<svg xmlns="http://www.w3.org/2000/svg" width="90" height="90" viewBox="0 0 90 90">
  <g id="Grupo_70477" data-name="Grupo 70477" transform="translate(-280 -7297)">
    <g id="Grupo_70461" data-name="Grupo 70461">
      <circle id="Elipse_4373" data-name="Elipse 4373" cx="45" cy="45" r="45" transform="translate(280 7297)" fill="#d9a171"/>
      <g id="Grupo_70384" data-name="Grupo 70384" transform="translate(294.768 7313.653)">
        <g id="Grupo_70373" data-name="Grupo 70373" transform="translate(33.279 31.092)">
          <g id="Grupo_70372" data-name="Grupo 70372">
            <path id="Trazado_108327" data-name="Trazado 108327" d="M304.614,264.206a2.135,2.135,0,1,1,2.441-2.113,1.109,1.109,0,1,0,2.219,0,4.414,4.414,0,0,0-3.55-4.206v-.577a1.109,1.109,0,0,0-2.219,0v.577a4.414,4.414,0,0,0-3.55,4.206,4.51,4.51,0,0,0,4.66,4.331,2.135,2.135,0,1,1-2.441,2.113,1.109,1.109,0,1,0-2.219,0,4.414,4.414,0,0,0,3.55,4.206v.479a1.109,1.109,0,0,0,2.219,0v-.479a4.414,4.414,0,0,0,3.55-4.206A4.51,4.51,0,0,0,304.614,264.206Z" transform="translate(-299.954 -256.201)" fill="#fff"/>
          </g>
        </g>
        <g id="Grupo_70375" data-name="Grupo 70375" transform="translate(42.595 27.162)">
          <g id="Grupo_70374" data-name="Grupo 70374">
            <path id="Trazado_108328" data-name="Trazado 108328" d="M391.419,226.12a14.456,14.456,0,0,0-5.9-5.226,1.109,1.109,0,1,0-.961,2,12.214,12.214,0,0,1,5.5,16.73,1.109,1.109,0,1,0,1.959,1.042,14.439,14.439,0,0,0-.594-14.546Z" transform="translate(-383.924 -220.785)" fill="#fff"/>
          </g>
        </g>
        <g id="Grupo_70377" data-name="Grupo 70377" transform="translate(38.498 25.855)">
          <g id="Grupo_70376" data-name="Grupo 70376">
            <path id="Trazado_108329" data-name="Trazado 108329" d="M348.184,209h-.075a1.109,1.109,0,1,0,0,2.219h.07a1.109,1.109,0,0,0,.005-2.219Z" transform="translate(-347 -209.001)" fill="#fff"/>
          </g>
        </g>
        <g id="Grupo_70379" data-name="Grupo 70379" transform="translate(23.521 32.923)">
          <g id="Grupo_70378" data-name="Grupo 70378">
            <path id="Trazado_108330" data-name="Trazado 108330" d="M221.144,291.072a12.215,12.215,0,0,1-5.5-16.73,1.109,1.109,0,0,0-1.959-1.042,14.429,14.429,0,0,0,6.5,19.772,1.109,1.109,0,1,0,.961-2Z" transform="translate(-212.002 -272.711)" fill="#fff"/>
          </g>
        </g>
        <g id="Grupo_70381" data-name="Grupo 70381" transform="translate(35.101 52.482)">
          <g id="Grupo_70380" data-name="Grupo 70380">
            <path id="Trazado_108331" data-name="Trazado 108331" d="M317.557,449h-.064a1.109,1.109,0,0,0-.01,2.219h.074a1.109,1.109,0,0,0,0-2.219Z" transform="translate(-316.378 -448.999)" fill="#fff"/>
          </g>
        </g>
        <g id="Grupo_70383" data-name="Grupo 70383" transform="translate(0 3)">
          <g id="Grupo_70382" data-name="Grupo 70382" transform="translate(0 0)">
            <path id="Trazado_108332" data-name="Trazado 108332" d="M42.981,22.1a5.093,5.093,0,0,0-.493-.906h2.888a5.1,5.1,0,1,0,0-10.207H36.492A5.1,5.1,0,0,0,32.285,3H5.1a5.1,5.1,0,1,0,0,10.207h8.885a5.089,5.089,0,0,0,0,5.769H11.095a5.1,5.1,0,0,0-3.171,9.1,5.094,5.094,0,0,0,0,7.988,5.094,5.094,0,0,0,0,7.988,5.1,5.1,0,0,0,3.171,9.1H24.169A18.857,18.857,0,1,0,42.981,22.1Zm2.4-8.894a2.885,2.885,0,0,1,0,5.769H18.2a2.885,2.885,0,0,1,0-5.769ZM5.1,10.988a2.885,2.885,0,0,1,0-5.769H32.285a2.885,2.885,0,0,1,0,5.769ZM11.095,21.2H38.276a2.883,2.883,0,0,1,1.259.29c-.525-.044-1.055-.068-1.591-.068A18.8,18.8,0,0,0,24.6,26.964h-13.5a2.885,2.885,0,1,1,0-5.769Zm0,7.988H22.7a18.807,18.807,0,0,0-2.852,5.769H11.095a2.885,2.885,0,1,1,0-5.769Zm0,7.988H19.34a18.876,18.876,0,0,0-.068,5.769H11.095a2.885,2.885,0,0,1,0-5.769Zm0,13.757a2.885,2.885,0,0,1,0-5.769h8.63a18.786,18.786,0,0,0,2.662,5.769ZM37.943,56.92A16.642,16.642,0,1,1,54.585,40.278,16.661,16.661,0,0,1,37.943,56.92Z" transform="translate(0 -3)" fill="#fff"/>
          </g>
        </g>
      </g>
    </g>
  </g>
</svg>
