<svg id="Grupo_24995" data-name="Grupo 24995" xmlns="http://www.w3.org/2000/svg" xmlns:xlink="http://www.w3.org/1999/xlink" width="337.546" height="321.405" viewBox="0 0 337.546 321.405">
  <defs>
    <clipPath id="clip-path">
      <rect id="Rectángulo_25682" data-name="Rectángulo 25682" width="337.546" height="321.405" fill="none"/>
    </clipPath>
    <clipPath id="clip-path-3">
      <rect id="Rectángulo_25650" data-name="Rectángulo 25650" width="25.346" height="21.569" fill="none"/>
    </clipPath>
    <clipPath id="clip-path-4">
      <rect id="Rectángulo_25651" data-name="Rectángulo 25651" width="43.383" height="55.508" fill="none"/>
    </clipPath>
    <clipPath id="clip-path-5">
      <rect id="Rectángulo_25652" data-name="Rectángulo 25652" width="63.179" height="50.238" fill="none"/>
    </clipPath>
    <clipPath id="clip-path-6">
      <rect id="Rectángulo_25655" data-name="Rectángulo 25655" width="89.031" height="78.553" fill="none"/>
    </clipPath>
    <clipPath id="clip-path-7">
      <rect id="Rectángulo_25653" data-name="Rectángulo 25653" width="77.224" height="69.108" fill="none"/>
    </clipPath>
    <clipPath id="clip-path-8">
      <rect id="Rectángulo_25654" data-name="Rectángulo 25654" width="39.187" height="35.672" fill="none"/>
    </clipPath>
    <clipPath id="clip-path-9">
      <rect id="Rectángulo_25657" data-name="Rectángulo 25657" width="68.968" height="100.83" fill="none"/>
    </clipPath>
    <clipPath id="clip-path-10">
      <rect id="Rectángulo_25671" data-name="Rectángulo 25671" width="62.568" height="72.958" fill="none"/>
    </clipPath>
    <clipPath id="clip-path-11">
      <rect id="Rectángulo_25680" data-name="Rectángulo 25680" width="63.324" height="63.322" fill="none"/>
    </clipPath>
    <clipPath id="clip-path-12">
      <path id="Trazado_64876" data-name="Trazado 64876" d="M15.385,245.947a31.662,31.662,0,1,0,31.661-31.664,31.661,31.661,0,0,0-31.661,31.664" transform="translate(-15.385 -214.283)" fill="none"/>
    </clipPath>
  </defs>
  <g id="Grupo_24994" data-name="Grupo 24994" clip-path="url(#clip-path)">
    <rect id="Rectángulo_25633" data-name="Rectángulo 25633" width="8.2" height="2.247" transform="translate(265.572 49.958) rotate(-83.77)" fill="#5e6178"/>
    <rect id="Rectángulo_25634" data-name="Rectángulo 25634" width="2.245" height="8.2" transform="translate(259.684 42.602) rotate(-83.787)" fill="#5e6178"/>
    <rect id="Rectángulo_25635" data-name="Rectángulo 25635" width="41.477" height="2.245" transform="translate(234.492 67.424) rotate(-38.755)" fill="#5e6178"/>
    <rect id="Rectángulo_25636" data-name="Rectángulo 25636" width="7.588" height="1.535" transform="translate(204.885 8.632) rotate(-83.786)" fill="#5e6178"/>
    <path id="Trazado_64792" data-name="Trazado 64792" d="M210.054,0l-.164,1.524,7.54.822L217.6.821,210.061,0Z" transform="translate(-10.696 0)" fill="#5e6178"/>
    <rect id="Rectángulo_25637" data-name="Rectángulo 25637" width="19.186" height="1.534" transform="matrix(0.779, -0.627, 0.627, 0.779, 190.995, 12.963)" fill="#5e6178"/>
    <rect id="Rectángulo_25638" data-name="Rectángulo 25638" width="9.993" height="2.247" transform="translate(213.059 37.42) rotate(-83.767)" fill="#2c5871"/>
    <rect id="Rectángulo_25639" data-name="Rectángulo 25639" width="2.245" height="9.992" transform="translate(205.661 28.184) rotate(-83.778)" fill="#2c5871"/>
    <rect id="Rectángulo_25640" data-name="Rectángulo 25640" width="25.275" height="2.245" transform="translate(194.802 43.055) rotate(-38.807)" fill="#5e6178"/>
    <rect id="Rectángulo_25641" data-name="Rectángulo 25641" width="8.167" height="1.651" transform="translate(287.345 76.768) rotate(-83.824)" fill="#2c5871"/>
    <rect id="Rectángulo_25642" data-name="Rectángulo 25642" width="1.653" height="8.165" transform="translate(281.215 69.116) rotate(-83.775)" fill="#2c5871"/>
    <rect id="Rectángulo_25643" data-name="Rectángulo 25643" width="21.033" height="1.652" transform="translate(272.107 81.685) rotate(-38.866)" fill="#5e6178"/>
    <rect id="Rectángulo_25644" data-name="Rectángulo 25644" width="8.495" height="1.719" transform="matrix(0.108, -0.994, 0.994, 0.108, 305.459, 42.102)" fill="#5e6178"/>
    <rect id="Rectángulo_25645" data-name="Rectángulo 25645" width="1.717" height="8.495" transform="translate(299.084 34.143) rotate(-83.784)" fill="#5e6178"/>
    <rect id="Rectángulo_25646" data-name="Rectángulo 25646" width="21.86" height="1.718" transform="matrix(0.79, -0.613, 0.613, 0.79, 289.388, 46.882)" fill="#5e6178"/>
    <rect id="Rectángulo_25647" data-name="Rectángulo 25647" width="9.504" height="1.922" transform="translate(263.854 15.882) rotate(-83.817)" fill="#5e6178"/>
    <rect id="Rectángulo_25648" data-name="Rectángulo 25648" width="1.923" height="9.503" transform="translate(256.72 6.978) rotate(-83.769)" fill="#5e6178"/>
    <rect id="Rectángulo_25649" data-name="Rectángulo 25649" width="37.354" height="1.921" transform="translate(235.938 29.481) rotate(-38.457)" fill="#5e6178"/>
    <g id="Grupo_24991" data-name="Grupo 24991">
      <g id="Grupo_24990" data-name="Grupo 24990" clip-path="url(#clip-path)">
        <path id="Trazado_64793" data-name="Trazado 64793" d="M62.01,301.711a2.288,2.288,0,0,1,2.089-1.553,31.417,31.417,0,0,0,7.13-.884,2.3,2.3,0,0,1,2.439.96c.9,1.6,2.266,3.928,2.266,3.928a1.671,1.671,0,0,0,2.276.62l8.772-4.99a1.632,1.632,0,0,0,.58-2.246l-2.246-3.913a2.217,2.217,0,0,1,.344-2.568,30.012,30.012,0,0,0,4.384-5.635,2.291,2.291,0,0,1,2.4-1.01l4.405,1.2a1.642,1.642,0,0,0,2.032-1.161l2.626-9.674a1.686,1.686,0,0,0-1.193-2.041l-4.373-1.159a2.306,2.306,0,0,1-1.581-2.091,29.608,29.608,0,0,0-.922-7.077A2.227,2.227,0,0,1,94.409,260c1.593-.887,3.941-2.214,3.941-2.214a1.643,1.643,0,0,0,.607-2.254l-5.044-8.706a1.681,1.681,0,0,0-2.289-.627l-3.938,2.226a2.266,2.266,0,0,1-2.584-.377,31.781,31.781,0,0,0-5.712-4.386,2.217,2.217,0,0,1-1.014-2.369l1.178-4.352a1.71,1.71,0,0,0-1.182-2.035l-9.756-2.64a1.662,1.662,0,0,0-2.041,1.141L65.4,237.777a2.267,2.267,0,0,1-2.111,1.554,29.281,29.281,0,0,0-7.124.9,2.369,2.369,0,0,1-2.432-.971l-2.265-3.939a1.674,1.674,0,0,0-2.273-.607l-8.753,4.962a1.65,1.65,0,0,0-.614,2.275l2.265,3.9a2.234,2.234,0,0,1-.368,2.571,30.351,30.351,0,0,0-4.367,5.651,2.323,2.323,0,0,1-2.446,1l-4.353-1.193a1.664,1.664,0,0,0-2.043,1.154l-2.627,9.658a1.664,1.664,0,0,0,1.175,2.04l4.378,1.18A2.238,2.238,0,0,1,33.012,270a30.268,30.268,0,0,0,.965,7.085,2.2,2.2,0,0,1-1.01,2.4l-3.926,2.229A1.631,1.631,0,0,0,28.466,284l5.028,8.672a1.638,1.638,0,0,0,2.259.624l3.942-2.218a2.249,2.249,0,0,1,2.605.364,31.808,31.808,0,0,0,5.686,4.378,2.2,2.2,0,0,1,1.028,2.4l-1.176,4.332a1.668,1.668,0,0,0,1.183,2.035l9.768,2.653a1.683,1.683,0,0,0,2.035-1.16ZM46.121,265a18.2,18.2,0,1,1,12.851,22.16A18.134,18.134,0,0,1,46.121,265" transform="translate(-1.316 -11.833)" fill="#5e6178"/>
        <path id="Trazado_64794" data-name="Trazado 64794" d="M107.8,321.819a1.288,1.288,0,0,1,1.329-.369,15.8,15.8,0,0,0,3.687.9,1.176,1.176,0,0,1,1.016.93c.164.937.386,2.341.386,2.341a.888.888,0,0,0,1.007.715l5.254-.806a.858.858,0,0,0,.717-1l-.363-2.355a1.144,1.144,0,0,1,.655-1.195,14.933,14.933,0,0,0,3.215-1.969,1.207,1.207,0,0,1,1.392-.042l1.94,1.4a.91.91,0,0,0,1.234-.2l3.1-4.29a.851.851,0,0,0-.195-1.218l-1.938-1.381a1.173,1.173,0,0,1-.4-1.321,17.206,17.206,0,0,0,.88-3.638,1.129,1.129,0,0,1,.932-1c.978-.178,2.356-.382,2.356-.382a.873.873,0,0,0,.734-1l-.866-5.211a.871.871,0,0,0-1.017-.717l-2.346.355a1.142,1.142,0,0,1-1.206-.66,16.928,16.928,0,0,0-2-3.218,1.19,1.19,0,0,1-.046-1.369l1.393-1.924a.867.867,0,0,0-.188-1.205l-4.339-3.112a.891.891,0,0,0-1.206.182L121.5,291a1.172,1.172,0,0,1-1.314.358,16.645,16.645,0,0,0-3.683-.849,1.3,1.3,0,0,1-1.037-.933l-.382-2.355a.873.873,0,0,0-1-.722l-5.274.823a.845.845,0,0,0-.706,1l.382,2.337a1.15,1.15,0,0,1-.683,1.181,18.031,18.031,0,0,0-3.214,2.011,1.2,1.2,0,0,1-1.372.01l-1.94-1.377a.888.888,0,0,0-1.234.2l-3.127,4.278a.835.835,0,0,0,.233,1.182l1.939,1.415a1.213,1.213,0,0,1,.367,1.326,15.187,15.187,0,0,0-.857,3.636,1.219,1.219,0,0,1-.956,1.025L95.3,305.9a.853.853,0,0,0-.724,1l.858,5.226a.838.838,0,0,0,.993.707l2.383-.346a1.166,1.166,0,0,1,1.183.65,16.27,16.27,0,0,0,2.016,3.22,1.156,1.156,0,0,1,.036,1.343l-1.4,1.941a.874.874,0,0,0,.208,1.195l4.32,3.12a.87.87,0,0,0,1.232-.191Zm-.939-21a9.614,9.614,0,0,1,13.385-2.083,9.46,9.46,0,0,1,2.2,13.284,9.616,9.616,0,0,1-13.395,2.091,9.463,9.463,0,0,1-2.186-13.291" transform="translate(-4.819 -14.599)" fill="#5e6178"/>
        <path id="Trazado_64795" data-name="Trazado 64795" d="M310.282,168.514A139.128,139.128,0,1,1,171.153,29.394a139.13,139.13,0,0,1,139.129,139.12" transform="translate(-1.632 -1.498)" fill="#5e6178"/>
        <path id="Trazado_64796" data-name="Trazado 64796" d="M76.9,45.895a4.611,4.611,0,0,0-4.668-4.554,4.666,4.666,0,0,0-4.353,2.915,3.046,3.046,0,0,0-3.919,2.836,2.867,2.867,0,0,0,.1.737c-.081-.006-.164-.011-.252-.011a2.408,2.408,0,1,0,0,4.814H76.9a3.37,3.37,0,1,0,0-6.738" transform="translate(-3.126 -2.107)" fill="#5e6178"/>
        <path id="Trazado_64797" data-name="Trazado 64797" d="M56.532,59.792A3.228,3.228,0,0,1,59.8,56.6a3.265,3.265,0,0,1,3.046,2.046,2.122,2.122,0,0,1,.625-.092,2.1,2.1,0,0,1,2.119,2.075,2.149,2.149,0,0,1-.065.519c.056-.006.117-.006.176-.006a1.684,1.684,0,1,1,0,3.367H56.532a2.359,2.359,0,1,1,0-4.718" transform="translate(-2.758 -2.884)" fill="#5e6178"/>
        <path id="Trazado_64798" data-name="Trazado 64798" d="M171.956,37.529A27.734,27.734,0,1,1,144.221,9.8a27.733,27.733,0,0,1,27.735,27.731" transform="translate(-5.936 -0.499)" fill="#f5f5f5"/>
        <path id="Trazado_64799" data-name="Trazado 64799" d="M143.841,71.834A34.231,34.231,0,1,1,178.071,37.6a34.269,34.269,0,0,1-34.23,34.232m0-63.718A29.486,29.486,0,1,0,173.327,37.6,29.518,29.518,0,0,0,143.841,8.116" transform="translate(-5.586 -0.172)" fill="#5e6178"/>
        <path id="Trazado_64800" data-name="Trazado 64800" d="M144.051,68.262a30.9,30.9,0,1,1,30.9-30.906,30.938,30.938,0,0,1-30.9,30.906m0-56.095a25.191,25.191,0,1,0,25.191,25.189,25.219,25.219,0,0,0-25.191-25.189" transform="translate(-5.766 -0.329)" fill="#fe5d27"/>
        <path id="Trazado_64801" data-name="Trazado 64801" d="M144.051,68.262a30.9,30.9,0,1,1,30.9-30.906,30.939,30.939,0,0,1-30.9,30.906m0-55.087a24.183,24.183,0,1,0,24.183,24.181,24.21,24.21,0,0,0-24.183-24.181" transform="translate(-5.766 -0.329)" fill="#d9a171"/>
        <path id="Trazado_64802" data-name="Trazado 64802" d="M144.608,58.434a20.519,20.519,0,1,1,20.52-20.521,20.541,20.541,0,0,1-20.52,20.521m0-38.179A17.66,17.66,0,1,0,162.27,37.913a17.679,17.679,0,0,0-17.662-17.658" transform="translate(-6.324 -0.887)" fill="#d9a171"/>
        <path id="Trazado_64803" data-name="Trazado 64803" d="M145.042,50.793a12.44,12.44,0,1,1,12.441-12.445,12.455,12.455,0,0,1-12.441,12.445m0-22.023a9.582,9.582,0,1,0,9.584,9.579,9.589,9.589,0,0,0-9.584-9.579" transform="translate(-6.757 -1.32)" fill="#d9a171"/>
        <path id="Trazado_64804" data-name="Trazado 64804" d="M145.5,42.638a3.827,3.827,0,1,1,3.827-3.828,3.831,3.831,0,0,1-3.827,3.828" transform="translate(-7.22 -1.783)" fill="#d9a171"/>
        <g id="Grupo_24965" data-name="Grupo 24965" transform="translate(137.405 35.814)" opacity="0.4" style="mix-blend-mode: multiply;isolation: isolate">
          <g id="Grupo_24964" data-name="Grupo 24964">
            <g id="Grupo_24963" data-name="Grupo 24963" clip-path="url(#clip-path-3)">
              <path id="Trazado_64805" data-name="Trazado 64805" d="M170.129,57.819,146.348,37.877c-.4-.335-1-.015-1.342.387a.955.955,0,0,0,.118,1.343l23.776,19.7c.493-.52,1.173-1.413,1.229-1.487" transform="translate(-144.783 -37.737)" fill="#999c9b"/>
            </g>
          </g>
        </g>
        <path id="Trazado_64806" data-name="Trazado 64806" d="M167.717,9.609,145.006,36.7a.957.957,0,0,0,.118,1.343l23.84-28.6a.945.945,0,0,0-1.247.165" transform="translate(-7.378 -0.473)" fill="#fcfcfc"/>
        <path id="Trazado_64807" data-name="Trazado 64807" d="M168.982,9.453l-23.84,28.6a.959.959,0,0,0,1.344-.117L169.2,10.844a.953.953,0,0,0-.12-1.34c-.031-.025-.065-.03-.1-.051" transform="translate(-7.396 -0.482)" fill="#c2c2c1"/>
        <path id="Trazado_64808" data-name="Trazado 64808" d="M166.838,11.294l-6.14,7.281-1.238-8.416L165.6,2.876Z" transform="translate(-8.126 -0.147)" fill="#dfe3e2"/>
        <path id="Trazado_64809" data-name="Trazado 64809" d="M168.562,12.8l-6.119,7.3,8.5-.223,6.117-7.3Z" transform="translate(-8.278 -0.641)" fill="#9da1a0"/>
        <path id="Trazado_64810" data-name="Trazado 64810" d="M162.811,145.726l-13.58,3.712c-1.033-2.582,4.391-13.429,4.935-18,.808-6.772,13.294-9.726,13.294-9.726s9.155-7.706,31.465,1.965c19.978,3.306,39.592-20.421,39.592-20.421l40.091,53.512s-15.766,10.345-24.258,17.643c-14.565,12.5-9.526,14.31-27.222,31.345l-24.569,16.251c-11.74,6.492-28.385,7-37.928-4.4L141.54,192.183c-10.537-14.073,6.2-24.175,21.271-46.457" transform="translate(-7.044 -5.262)" fill="#f7ce97"/>
        <g id="Grupo_24968" data-name="Grupo 24968" transform="translate(201.307 117.345)" opacity="0.23" style="mix-blend-mode: multiply;isolation: isolate">
          <g id="Grupo_24967" data-name="Grupo 24967">
            <g id="Grupo_24966" data-name="Grupo 24966" clip-path="url(#clip-path-4)">
              <path id="Trazado_64811" data-name="Trazado 64811" d="M215.042,123.646s34.263,22.274,40.457,54.131c-.311.35-1.5,1-1.716,1.377-.717-9.02-34.631-47.952-41.667-54.706,1.316-.3,2.926-.8,2.926-.8" transform="translate(-212.116 -123.646)" fill="#e0b886"/>
            </g>
          </g>
        </g>
        <path id="Trazado_64812" data-name="Trazado 64812" d="M203.889,225.775l-19-15.629,19.565,14.5,3.093,1.6c5.876,4.614,14.24,1.775,16.764-1.878,2.254-3.273,3.372-7.654-1.271-11.956l-9.681-7.11-11.584-9.083,18.467,13.554c6.014,4.73,14.144,3.994,17.7-.955,2.61-3.624,2.742-11.033-7.454-18.582-9.444-6.993-12.555-8.734-18.724-12.768,0,0-41.024-29.013-49.422-49.083a34.9,34.9,0,0,0-24.444-.441c-8.874,1.6-28.961-11.284-28.961-11.284L77.306,161.29s15.016,4.324,19.45,20.183c3.207,11.469,22.688,31.357,49.966,51.747,0,0,11.313,6.579,17.182,11.241,5.08,4.034,14.1,5.543,18.73.285,7.276-8.268-8.823-15.142-13.812-19.641l18.71,13.025c5.838,4.6,13,3.667,16.748-.659,1.334-1.538,4.583-6.166-.391-11.7" transform="translate(-3.939 -5.945)" fill="#ffe6b5"/>
        <path id="Trazado_64813" data-name="Trazado 64813" d="M208.455,200.49l11.584,9.082,5.872,4.311.414-.278Z" transform="translate(-10.623 -10.217)" fill="#ebc68f"/>
        <path id="Trazado_64814" data-name="Trazado 64814" d="M205.471,227.346c.321-.161.64-.32.959-.489l-15.768-11.69Z" transform="translate(-9.716 -10.965)" fill="#ebc68f"/>
        <path id="Trazado_64815" data-name="Trazado 64815" d="M233.717,193.028c-6.416-4.628-13.895-9.82-21.124-14.354,2.442,4.791,5.46,10.737,2.428,14.4-4.8,5.787-10.879,2.272-13.233,1.683,1.01,2.849,4.489,8.013-1.4,13.325-4.53,4.857-12.117,2.354-19.145-1.452,5.95,5.952,4.5,15.037,1.414,17.584-3.809,4.577-12.283,6.526-17.245.571,4.347,11.446-6.374,17.039-16.493,10.63l1.456,1.1s11.314,6.58,17.183,11.24c5.08,4.038,14.1,5.544,18.729.286,7.276-8.265-8.823-15.143-13.811-19.64l18.71,13.024c5.838,4.6,13,3.666,16.747-.658,1.334-1.541,4.583-6.165-.391-11.7l-19-15.627,19.564,14.5,3.093,1.6c5.876,4.614,14.24,1.772,16.764-1.881,2.254-3.269,3.372-7.652-1.27-11.955l-9.68-7.111-11.586-9.081L223.89,213.06c6.013,4.731,14.073,3.943,17.7-.954,3.357-4.527,1.139-12.573-7.876-19.078" transform="translate(-7.589 -9.105)" fill="#f7d69f"/>
        <g id="Grupo_24971" data-name="Grupo 24971" transform="translate(170.345 138.185)" opacity="0.23" style="mix-blend-mode: multiply;isolation: isolate">
          <g id="Grupo_24970" data-name="Grupo 24970">
            <g id="Grupo_24969" data-name="Grupo 24969" clip-path="url(#clip-path-5)">
              <path id="Trazado_64816" data-name="Trazado 64816" d="M224.824,180.563c-15.521-11.834-34.947-24.76-40.505-34.958h0a25.46,25.46,0,0,1-4.828.967c14.8,16.656,36.98,32.078,36.98,32.078,5.927,3.426,10.178,6.712,19.226,13.062a23.647,23.647,0,0,1,4.581,4.132c.816-1.079,1.741-2.368,2.393-3.312,0,0-14.744-9.6-17.847-11.968" transform="translate(-179.492 -145.605)" fill="#e0b886"/>
            </g>
          </g>
        </g>
        <path id="Trazado_64817" data-name="Trazado 64817" d="M183.245,121.869c.214-6.563-31.9,4.117-31.9,4.117-8.781,4.1-8.5,9.515-24.56,16.521-11.7,5.113-8.574,8.407-4.25,12.887s21.1,5.745,30.345-2.8c7.831-7.238,16.893-6.71,23.511-7.338,4.747-.449,26.983-6.289,6.655-12.1-3.687-1.053-5.292.249-6.387-.891Z" transform="translate(-6.046 -6.102)" fill="#f7ce97"/>
        <g id="Grupo_24980" data-name="Grupo 24980" transform="translate(92.727 162.565)" opacity="0.32" style="mix-blend-mode: multiply;isolation: isolate">
          <g id="Grupo_24979" data-name="Grupo 24979">
            <g id="Grupo_24978" data-name="Grupo 24978" clip-path="url(#clip-path-6)">
              <g id="Grupo_24974" data-name="Grupo 24974" opacity="0.42" style="mix-blend-mode: multiply;isolation: isolate">
                <g id="Grupo_24973" data-name="Grupo 24973">
                  <g id="Grupo_24972" data-name="Grupo 24972" clip-path="url(#clip-path-7)">
                    <path id="Trazado_64818" data-name="Trazado 64818" d="M172.638,200.841c-3.767-4.468-10.849-4.7-15.816-.509l-1.329,1.118c4.335-4.136,5.228-10.543,1.812-14.875-3.656-4.62-10.769-5.079-15.913-1.017l-2.188,1.725a10.715,10.715,0,0,0,.078-11.295c-3.259-5.051-10.458-6.209-16.068-2.583L103.569,186.08c-5.621,3.617-7.535,10.654-4.27,15.706s10.452,6.211,16.068,2.585l11.917-7.68-12.732,10.044c-5.129,4.051-6.335,11.089-2.691,15.714,3.659,4.616,10.787,5.081,15.912,1.027l25.083-19.806L132.04,221.226c-4.962,4.181-5.94,11.2-2.17,15.672s10.85,4.7,15.821.507l24.772-20.888c4.965-4.181,5.937-11.2,2.173-15.674" transform="translate(-97.706 -171.294)" fill="#ab763a"/>
                  </g>
                </g>
              </g>
              <g id="Grupo_24977" data-name="Grupo 24977" transform="translate(49.844 42.881)" opacity="0.42" style="mix-blend-mode: multiply;isolation: isolate">
                <g id="Grupo_24976" data-name="Grupo 24976">
                  <g id="Grupo_24975" data-name="Grupo 24975" clip-path="url(#clip-path-8)">
                    <path id="Trazado_64819" data-name="Trazado 64819" d="M185.464,233.359c4.378-3.669,5.247-9.835,1.952-13.778s-9.518-4.162-13.9-.5l-19.334,16.183c-4.381,3.658-5.261,9.831-1.958,13.77s9.523,4.168,13.9.5Z" transform="translate(-150.227 -216.477)" fill="#ab763a"/>
                  </g>
                </g>
              </g>
            </g>
          </g>
        </g>
        <path id="Trazado_64820" data-name="Trazado 64820" d="M134.7,176.2c-3.257-5.055-10.455-6.211-16.065-2.583L98.989,186.289c-5.621,3.616-7.533,10.653-4.268,15.7s10.451,6.216,16.069,2.589l19.645-12.671c5.616-3.622,7.531-10.655,4.262-15.713" transform="translate(-4.746 -8.739)" fill="#f7ce97"/>
        <path id="Trazado_64821" data-name="Trazado 64821" d="M153.369,187.4c-3.647-4.619-10.768-5.08-15.909-1.02l-26.84,21.185c-5.13,4.05-6.335,11.083-2.691,15.708,3.66,4.622,10.783,5.082,15.913,1.029l26.836-21.186c5.132-4.063,6.341-11.088,2.691-15.714" transform="translate(-5.393 -9.357)" fill="#f7ce97"/>
        <path id="Trazado_64822" data-name="Trazado 64822" d="M169.66,202.444c-3.766-4.462-10.849-4.691-15.818-.507l-24.782,20.9c-4.959,4.177-5.935,11.2-2.166,15.673,3.766,4.458,10.851,4.7,15.821.5l24.775-20.887c4.965-4.183,5.937-11.2,2.17-15.678" transform="translate(-6.349 -10.138)" fill="#f7ce97"/>
        <path id="Trazado_64823" data-name="Trazado 64823" d="M182.837,219.791c-3.3-3.937-9.518-4.169-13.9-.5L149.6,235.476c-4.377,3.66-5.257,9.826-1.956,13.767s9.526,4.174,13.9.508l19.338-16.181c4.382-3.671,5.251-9.838,1.956-13.778" transform="translate(-7.422 -11.042)" fill="#f7ce97"/>
        <path id="Trazado_64824" data-name="Trazado 64824" d="M134.046,148.41c-5.465,2.122-17.432-.354-11.572-3.052,8.51-3.945,5.857-2.451,8.7-3.9a39.642,39.642,0,0,0,10.16-7.042c1.185,3.048-1.837,11.876-7.293,14" transform="translate(-6.161 -6.85)" fill="#f7dfc1"/>
        <path id="Trazado_64825" data-name="Trazado 64825" d="M123.967,184.25c2.152,3.332,6.07,4.63,8.756,2.9s3.119-5.835.967-9.172-6.071-4.621-8.757-2.892-3.116,5.838-.966,9.167" transform="translate(-6.248 -8.883)" fill="#f7dfc1"/>
        <path id="Trazado_64826" data-name="Trazado 64826" d="M143.8,195.852c2.146,3.331,6.068,4.628,8.751,2.9s3.119-5.843.973-9.171-6.076-4.628-8.758-2.895-3.117,5.838-.966,9.165" transform="translate(-7.258 -9.474)" fill="#f7dfc1"/>
        <path id="Trazado_64827" data-name="Trazado 64827" d="M160.372,211.442c2.153,3.333,6.068,4.627,8.751,2.895s3.12-5.83.972-9.173c-2.15-3.327-6.069-4.62-8.754-2.9-2.689,1.744-3.117,5.845-.969,9.173" transform="translate(-8.103 -10.268)" fill="#f7dfc1"/>
        <path id="Trazado_64828" data-name="Trazado 64828" d="M174.007,228.258c1.936,3,5.458,4.163,7.868,2.605s2.814-5.25.878-8.245-5.461-4.159-7.875-2.6-2.8,5.248-.87,8.241" transform="translate(-8.805 -11.177)" fill="#f7dfc1"/>
        <path id="Trazado_64829" data-name="Trazado 64829" d="M266.833,171.793l5.839-4.374-43.52-57.873-5.837,4.379Z" transform="translate(-11.38 -5.582)" fill="#fff"/>
        <rect id="Rectángulo_25656" data-name="Rectángulo 25656" width="67.226" height="6.766" transform="matrix(0.618, -0.787, 0.787, 0.618, 75.417, 163.434)" fill="#fff"/>
        <path id="Trazado_64830" data-name="Trazado 64830" d="M275.615,168.259l40.1-31.2a138.7,138.7,0,0,0-41.934-69.307l-46.524,36.2Z" transform="translate(-11.581 -3.453)" fill="#d9a171"/>
        <path id="Trazado_64831" data-name="Trazado 64831" d="M251.968,136.743l24.907,33.121,40.1-31.2a137.993,137.993,0,0,0-16.809-39.427Z" transform="translate(-12.84 -5.057)" fill="#a66d58"/>
        <path id="Trazado_64832" data-name="Trazado 64832" d="M257.289,100.843a4.9,4.9,0,1,0,.98-6.861,4.907,4.907,0,0,0-.98,6.861" transform="translate(-13.061 -4.739)" fill="#fff"/>
        <path id="Trazado_64833" data-name="Trazado 64833" d="M244.172,110.706a4.9,4.9,0,1,0,.974-6.857,4.9,4.9,0,0,0-.974,6.857" transform="translate(-12.393 -5.242)" fill="#fff"/>
        <path id="Trazado_64834" data-name="Trazado 64834" d="M51.668,102.38,99,140.252l25.662-32.7L77.47,69.79a139.351,139.351,0,0,0-25.8,32.59" transform="translate(-2.633 -3.556)" fill="#aed3f2"/>
        <path id="Trazado_64835" data-name="Trazado 64835" d="M72.248,175.029,98.169,142,50.836,104.13a137.835,137.835,0,0,0-15.512,41.358Z" transform="translate(-1.8 -5.306)" fill="#6595bf"/>
        <g id="Grupo_24983" data-name="Grupo 24983" transform="translate(268.579 135.692)" opacity="0.24" style="mix-blend-mode: multiply;isolation: isolate">
          <g id="Grupo_24982" data-name="Grupo 24982">
            <g id="Grupo_24981" data-name="Grupo 24981" clip-path="url(#clip-path-9)">
              <path id="Trazado_64836" data-name="Trazado 64836" d="M346.582,153.755H322.5a7.028,7.028,0,0,1-.384-4.088,4.974,4.974,0,0,0,.256-1.067c.05-.158.084-.255.086-.262l-.058-.022c.009-.12.037-.233.037-.358a4.982,4.982,0,0,0-9.963,0c0,.129.029.248.036.373l-.062.025c0,.006.041.108.094.276a4.91,4.91,0,0,0,.25,1.024,7.021,7.021,0,0,1-.38,4.1H288.388A5.389,5.389,0,0,0,283,159.143v79.279a5.387,5.387,0,0,0,5.388,5.386h58.194a5.387,5.387,0,0,0,5.387-5.386V159.143a5.388,5.388,0,0,0-5.387-5.388m-29.121-8.77.024,0v5.943h-.024A2.967,2.967,0,0,1,314.6,148.7c-.023-.108-.044-.215-.065-.31a3.012,3.012,0,0,1-.044-.436,2.977,2.977,0,0,1,2.973-2.973m-2.672,7.163a4.9,4.9,0,0,0,5.349,0l.48,1.611H314.5a9.012,9.012,0,0,0,.289-1.607" transform="translate(-283 -142.978)" fill="#636363"/>
            </g>
          </g>
        </g>
        <path id="Rectángulo_25658" data-name="Rectángulo 25658" d="M5.675,0H63.291a5.677,5.677,0,0,1,5.677,5.677v78.7a5.676,5.676,0,0,1-5.676,5.676H5.676A5.676,5.676,0,0,1,0,84.377V5.675A5.675,5.675,0,0,1,5.675,0Z" transform="translate(264.785 140.744)" fill="#6595bf"/>
        <path id="Trazado_64837" data-name="Trazado 64837" d="M344.382,153.736H283v79.737h48.783l12.6-14.244Z" transform="translate(-14.421 -7.834)" fill="#f5f5f5"/>
        <path id="Trazado_64838" data-name="Trazado 64838" d="M302.8,156.26h23.549a2.523,2.523,0,0,0,2.524-2.524h-28.6a2.522,2.522,0,0,0,2.522,2.524" transform="translate(-15.302 -7.834)" fill="#919191"/>
        <rect id="Rectángulo_25659" data-name="Rectángulo 25659" width="12.267" height="10.766" transform="translate(273.7 158.519)" fill="#c9c9c9"/>
        <rect id="Rectángulo_25660" data-name="Rectángulo 25660" width="32.81" height="1.008" transform="translate(290.849 159.161)" fill="#454545"/>
        <rect id="Rectángulo_25661" data-name="Rectángulo 25661" width="32.81" height="1.01" transform="translate(290.849 163.398)" fill="#454545"/>
        <rect id="Rectángulo_25662" data-name="Rectángulo 25662" width="32.81" height="1.009" transform="translate(290.849 167.636)" fill="#454545"/>
        <path id="Trazado_64839" data-name="Trazado 64839" d="M294.92,174.015l.486-.641.5-.654c.338-.435.681-.876,1.029-1.317.693-.883,1.4-1.766,2.109-2.635,1.411-1.737,2.81-3.408,4.046-4.867,2.471-2.916,4.3-4.974,4.3-4.974L295.18,176.6l-8.361-8.309s7.4,5.147,7.74,5.438l.261.225.065.055c.01.007.029.024.025.019h0l0,0Z" transform="translate(-14.616 -8.099)" fill="#de6747"/>
        <rect id="Rectángulo_25663" data-name="Rectángulo 25663" width="12.267" height="10.767" transform="translate(273.7 181.226)" fill="#c9c9c9"/>
        <rect id="Rectángulo_25664" data-name="Rectángulo 25664" width="32.81" height="1.01" transform="translate(290.849 181.869)" fill="#454545"/>
        <rect id="Rectángulo_25665" data-name="Rectángulo 25665" width="32.81" height="1.008" transform="translate(290.849 186.109)" fill="#454545"/>
        <rect id="Rectángulo_25666" data-name="Rectángulo 25666" width="32.81" height="1.009" transform="translate(290.849 190.344)" fill="#454545"/>
        <path id="Trazado_64840" data-name="Trazado 64840" d="M294.92,197.944l.486-.641.5-.655q.507-.655,1.029-1.317c.693-.883,1.4-1.766,2.109-2.635,1.411-1.737,2.81-3.408,4.046-4.867,2.471-2.915,4.3-4.974,4.3-4.974l-12.208,17.67-8.361-8.309s7.4,5.147,7.74,5.438l.261.224.065.056c.01.006.029.025.025.02h0l0,0Z" transform="translate(-14.616 -9.318)" fill="#de6747"/>
        <rect id="Rectángulo_25667" data-name="Rectángulo 25667" width="12.267" height="10.766" transform="translate(273.7 203.936)" fill="#c9c9c9"/>
        <rect id="Rectángulo_25668" data-name="Rectángulo 25668" width="32.81" height="1.008" transform="translate(290.849 204.578)" fill="#454545"/>
        <rect id="Rectángulo_25669" data-name="Rectángulo 25669" width="32.81" height="1.008" transform="translate(290.849 208.817)" fill="#454545"/>
        <rect id="Rectángulo_25670" data-name="Rectángulo 25670" width="32.81" height="1.01" transform="translate(290.849 213.052)" fill="#454545"/>
        <path id="Trazado_64841" data-name="Trazado 64841" d="M294.92,221.871l.486-.64.5-.655q.507-.656,1.029-1.317c.693-.884,1.4-1.767,2.109-2.634,1.411-1.74,2.81-3.411,4.046-4.868,2.471-2.917,4.3-4.975,4.3-4.975L295.18,224.455l-8.361-8.311s7.4,5.147,7.74,5.439l.261.223.065.057c.01.007.029.024.025.019h0l0,0Z" transform="translate(-14.616 -10.537)" fill="#de6747"/>
        <path id="Trazado_64842" data-name="Trazado 64842" d="M347.157,222.884l-12.6-.292-.331,14.238Z" transform="translate(-17.032 -11.343)" fill="#cfcfcf"/>
        <path id="Trazado_64843" data-name="Trazado 64843" d="M327.819,152.88h1.05a2.521,2.521,0,0,0-2.523-2.522h-4.216a6.068,6.068,0,0,1-2.207-2.021,6.682,6.682,0,0,1-.717-4.7,5.059,5.059,0,0,0,.255-1.067c.051-.158.084-.255.086-.262l-.058-.022c.009-.12.037-.234.037-.359a4.981,4.981,0,0,0-9.962,0c0,.13.029.25.037.373l-.063.025c0,.007.041.109.094.277a4.925,4.925,0,0,0,.249,1.024,6.672,6.672,0,0,1-.71,4.718,6.057,6.057,0,0,1-2.188,2.018H302.8a2.521,2.521,0,0,0-2.523,2.522Zm-13.271-13.927.023,0V144.9h-.023a2.969,2.969,0,0,1-2.866-2.226c-.021-.109-.043-.216-.064-.31a2.9,2.9,0,0,1-.044-.437,2.976,2.976,0,0,1,2.973-2.971m3.657,10.441a6.611,6.611,0,0,0,.676.964H310.21a7.115,7.115,0,0,0,.676-.949,7.838,7.838,0,0,0,.989-3.294,4.909,4.909,0,0,0,5.349,0Z" transform="translate(-15.302 -6.979)" fill="#bfbfbf"/>
        <path id="Trazado_64844" data-name="Trazado 64844" d="M226.217,318.923a3.738,3.738,0,0,0,3.737,3.738H252.72l12.655,13.325-.815-13.325h4.711a3.737,3.737,0,0,0,3.74-3.738V289.912a3.742,3.742,0,0,0-3.74-3.741H229.954a3.742,3.742,0,0,0-3.737,3.741Z" transform="translate(-11.528 -14.583)" fill="#5e6178"/>
        <path id="Trazado_64845" data-name="Trazado 64845" d="M226.217,290.2v28.522h32.023a4.085,4.085,0,0,0,4.133-4.078V286.12c0-.019-.01-.042-.01-.06H230.354a4.14,4.14,0,0,0-4.137,4.138" transform="translate(-11.528 -14.577)" fill="#525466"/>
        <path id="Trazado_64846" data-name="Trazado 64846" d="M255.438,310.536a4.134,4.134,0,0,1-4.134,4.13H223.917L209.911,329.41l.905-14.743H205.6a4.132,4.132,0,0,1-4.134-4.13V280.462a4.132,4.132,0,0,1,4.134-4.132h45.7a4.134,4.134,0,0,1,4.134,4.132Z" transform="translate(-10.266 -14.081)" fill="#fff"/>
        <path id="Trazado_64847" data-name="Trazado 64847" d="M201.465,296.5v15.063a4.132,4.132,0,0,0,4.134,4.13h5.218l-.906,14.743,14.007-14.743H251.3a4.134,4.134,0,0,0,4.134-4.13V296.5Z" transform="translate(-10.266 -15.109)" fill="#e9f0f5"/>
        <path id="Trazado_64848" data-name="Trazado 64848" d="M222.141,296.33a3.184,3.184,0,1,1-3.188-3.183,3.187,3.187,0,0,1,3.188,3.183" transform="translate(-10.996 -14.938)" fill="#6595bf"/>
        <path id="Trazado_64849" data-name="Trazado 64849" d="M232.914,296.33a3.182,3.182,0,1,1-3.179-3.183,3.184,3.184,0,0,1,3.179,3.183" transform="translate(-11.545 -14.938)" fill="#6595bf"/>
        <path id="Trazado_64850" data-name="Trazado 64850" d="M243.69,296.33a3.182,3.182,0,1,1-3.178-3.183,3.18,3.18,0,0,1,3.178,3.183" transform="translate(-12.094 -14.938)" fill="#6595bf"/>
        <g id="Grupo_24986" data-name="Grupo 24986" transform="translate(4.479 99.013)" opacity="0.24" style="mix-blend-mode: multiply;isolation: isolate">
          <g id="Grupo_24985" data-name="Grupo 24985">
            <g id="Grupo_24984" data-name="Grupo 24984" clip-path="url(#clip-path-10)">
              <path id="Trazado_64851" data-name="Trazado 64851" d="M61.705,128.17v-16H44.462l-8.456-7.844-8.457,7.844H10.3v16L4.72,133.348v43a.951.951,0,0,0,.96.94H66.327a.951.951,0,0,0,.961-.94v-43Z" transform="translate(-4.72 -104.33)" fill="#636363"/>
            </g>
          </g>
        </g>
        <path id="Trazado_64852" data-name="Trazado 64852" d="M62.567,173.106a.951.951,0,0,1-.96.94H.959a.951.951,0,0,1-.959-.94v-43H62.567Z" transform="translate(0 -6.63)" fill="#c1906b"/>
        <path id="Trazado_64853" data-name="Trazado 64853" d="M31.285,99.53l31.282,29.018H0Z" transform="translate(0 -5.072)" fill="#d9a171"/>
        <rect id="Rectángulo_25672" data-name="Rectángulo 25672" width="51.402" height="54.613" transform="translate(5.583 102.302)" fill="#fff"/>
        <rect id="Rectángulo_25673" data-name="Rectángulo 25673" width="26.792" height="0.949" transform="translate(24.4 107.971)" fill="#f2e9e4"/>
        <rect id="Rectángulo_25674" data-name="Rectángulo 25674" width="30.658" height="0.949" transform="translate(20.534 113.571)" fill="#f2e9e4"/>
        <rect id="Rectángulo_25675" data-name="Rectángulo 25675" width="39.817" height="0.949" transform="translate(11.375 119.17)" fill="#f2e9e4"/>
        <rect id="Rectángulo_25676" data-name="Rectángulo 25676" width="39.817" height="0.949" transform="translate(11.375 124.769)" fill="#f2e9e4"/>
        <rect id="Rectángulo_25677" data-name="Rectángulo 25677" width="39.817" height="0.949" transform="translate(11.375 130.37)" fill="#f2e9e4"/>
        <rect id="Rectángulo_25678" data-name="Rectángulo 25678" width="39.817" height="0.949" transform="translate(11.375 135.969)" fill="#f2e9e4"/>
        <rect id="Rectángulo_25679" data-name="Rectángulo 25679" width="39.817" height="0.949" transform="translate(11.375 141.566)" fill="#f2e9e4"/>
        <path id="Trazado_64854" data-name="Trazado 64854" d="M62.567,174.345v-1.3l-22.75-18.636H22.707L0,173v1.342a.951.951,0,0,0,.959.94H61.607a.951.951,0,0,0,.96-.94" transform="translate(0 -7.869)" fill="#d9a171"/>
        <path id="Trazado_64855" data-name="Trazado 64855" d="M64.706,171.82V130.283l-22.75,22.9Z" transform="translate(-2.138 -6.639)" fill="#a66d58"/>
        <path id="Trazado_64856" data-name="Trazado 64856" d="M0,171.82V130.283l22.753,22.9Z" transform="translate(0 -6.639)" fill="#a66d58"/>
        <g id="Grupo_24989" data-name="Grupo 24989" transform="translate(19.7 206.359)" opacity="0.24" style="mix-blend-mode: multiply;isolation: isolate">
          <g id="Grupo_24988" data-name="Grupo 24988">
            <g id="Grupo_24987" data-name="Grupo 24987" clip-path="url(#clip-path-11)">
              <path id="Trazado_64857" data-name="Trazado 64857" d="M52.418,217.44A31.661,31.661,0,1,0,84.08,249.1,31.663,31.663,0,0,0,52.418,217.44" transform="translate(-20.757 -217.44)" fill="#636363" fill-rule="evenodd"/>
            </g>
          </g>
        </g>
        <path id="Trazado_64858" data-name="Trazado 64858" d="M78.709,245.947a31.662,31.662,0,1,1-31.663-31.664,31.662,31.662,0,0,1,31.663,31.664" transform="translate(-0.784 -10.92)" fill="#fff" fill-rule="evenodd"/>
      </g>
    </g>
    <g id="Grupo_24993" data-name="Grupo 24993" transform="translate(14.601 203.363)">
      <g id="Grupo_24992" data-name="Grupo 24992" clip-path="url(#clip-path-12)">
        <path id="Trazado_64859" data-name="Trazado 64859" d="M41.328,221.018c.1.456.591.41.96.514-.391.356-.455,1.115-.761,1.575-.939-.2-1.14.919-1.564,1.512-.372.162-.988-.1-1.282.232a1.927,1.927,0,0,1-.041.562c-.319.415-1,.226-1.4.756-.421.55-.644,1.248-.959,1.432-.5.288-1.313-.337-.679-.956.007-.241-.2-.2-.161-.488,1.192-.683.663-2.468,0-3.21-.309.015-.688.13-.8-.116.332-1.02,1.673-.8,2.358-1.293,1.2.078,2.571-.362,3.73-.183a.539.539,0,0,0,.6-.339" transform="translate(-16.366 -214.626)" fill="#aed3f2" fill-rule="evenodd"/>
        <path id="Trazado_64860" data-name="Trazado 64860" d="M65.745,224.067c-.019.4-.424.269-.438.674.809.411,2.929-.009,4.174.766.685.424,1.363,1.126,2.413.885.141-.031.274-.285.435-.288a7.2,7.2,0,0,1,1.067.341c1.416.342,3.721,1.943,5.143,1.975.136.007.209-.158.353-.179.772-.086,1.787.89,2.454,1.22.006.307-.263.261-.309.506.03.336.529.28.661.527-.2.684-.922.438-1.713.377-.026-.55-.661-1.265-.935-.622-.516-.424-1.046-.186-1.058.438-2.188-1.678-3.812,1.87-1.253,1.793.775.555,1.343,2.345.546,3.152-.816-.312-.9.968-.861,1.577-.284-.179-.334-.6-.668-.736-.183-.049-.251.042-.394.053-.863-1.168-2.066,1.029-.43,1.126-.017,1.074.86,1.561.983,2.62-.14.833-.325,1.61-.942,1.88-.16-.023-.345-.2-.474-.11-.435.92-2.321-.05-1.893,1.822.157.685,1.376.733,1.107,2.025a2.519,2.519,0,0,1-.751.6c-.575-.263-.938-1.5-1.7-.964a3.624,3.624,0,0,0-.63-1.505c-.269-.074-.241.213-.475.182a4.589,4.589,0,0,0-1.507-2.4c-.192,0-.14.306-.239.421-.158.029-.231-.049-.355-.056-.493.947-1.346,1.443-1.834,2.286-.195.338.078,2.595-.516,2.529a13.552,13.552,0,0,1-1.354-3.922c-.029-.832-.133-1.283-.638-.6-.159-.154.022-.288,0-.547-.97-.752-1.606-1.514-3.237-1.064-.247-.159-.3-.564-.52-.767-.22-.011-.328.115-.478.193-.547.1-1.739-2.337-1.964-1.053-.167.971,1.3,3.271,2.124,2.163a3.834,3.834,0,0,1,.879.67c-.547,1.944-2.006,2.751-3.564,3.457-.5-2.513-1.823-4-2.566-6.242-.2-.153-.358.258-.48-.06a3.329,3.329,0,0,0,.6-2.859c-.67-.073-2.188.56-2.208-.859.347-.011.333-.34.6-.5.842-.514,2.809,1,2.851-.395.019-.766-.678-.761-.964-1.252-.02-.288.174-.5.081-.716-1.284.055-3-.322-2.811,2.145-.542-.073-1.179-.085-1.241.6-.007-.551-2.261-3.327-2.45-2.125-.11.7.553.814.639,1.391-.751.047-.611-1.136-1.164-1.236a8.906,8.906,0,0,0-1.4.313c-.817.267-.954,3.03-2.291,2.752-.739-.153-.713-1.134-.439-2.255,1.321.411,2.443-.572,1.567-1.874.72-.541,1.087-1.162,1.8-1.769.983-.836,3.26.285,3.577-1.425.461.057.623-.344.562-.816a1.045,1.045,0,0,0,1.044-.336c-.111-.867-1.008-.518-1.486-.342-.723-.752.471-.951.442-1.482-.061-1.141-2.714.638-1.768,1.775-.309.288-.182,1.138-.723,1.131-.181-.948-.581-1.541-1.324-.875-.091-.317.1-.531,0-.926,1-.22,1.412-1.877,2.29-2.363,1.322-.738,2.873-.016,4.093.617-.4.493-1.132-.536-1.524-.054.249.978,1.578,1.935,2.046.637,1.218-.593,2.519-.454,3.729-.958,1.053.72,1.853.353.839-.749.526-.224.746.726,1.042,1.1-1.127.552.706,1.437.8.321.233.042.53.339.718.118.065-.571-.441-.491-.519-.9.078-.249.344-.236.56-.3.661-1.574,2.667-1.089,4.271-.669" transform="translate(-16.819 -214.76)" fill="#aed3f2" fill-rule="evenodd"/>
        <path id="Trazado_64861" data-name="Trazado 64861" d="M30.361,225.29a.509.509,0,0,1-.558.175c.011-.351.613-.866.558-.175" transform="translate(-16.12 -214.826)" fill="#aed3f2" fill-rule="evenodd"/>
        <path id="Trazado_64862" data-name="Trazado 64862" d="M25.477,225.975c-.271.968-1.382.372-1.9.284.431-.494,1.394-.157,1.9-.284" transform="translate(-15.802 -214.879)" fill="#aed3f2" fill-rule="evenodd"/>
        <path id="Trazado_64863" data-name="Trazado 64863" d="M32.084,225.488c.055.139-.024.219,0,.446.11.29.5.207.559.58-.223.158-.259-.246-.477-.242-.773.44-.866-.737-1.4-.918.416-.639.868.078,1.314.134" transform="translate(-16.169 -214.834)" fill="#aed3f2" fill-rule="evenodd"/>
        <path id="Trazado_64864" data-name="Trazado 64864" d="M23.191,227.814a2.834,2.834,0,0,1,2.338-.413,7.61,7.61,0,0,0,1.109-.977c.14.2.41.214.438.566-.176.37-.615.014-.873.218-.137.137-.047.326-.04.531a2.991,2.991,0,0,1-.755.154c-.156,1-1.464,1.138-1.506,2.1-.05,1.174,1.567,1.267,1.746,2.478,1.218-.489,2.01-2.375,2.541-3.844a1.024,1.024,0,0,1,.914-.1c-.068,1.185.66,1.351,1.358.789.052.48-.021.938.276,1.256.026.289-.251.237-.2.558.148.384.493-.193.717-.012-.924,1.3-3.38.685-3.9,2.485.3.479,1.16-.938,1.231.14-.786.4-1.653.706-1.948,1.652a1.085,1.085,0,0,0-.952.791l-.435.034c-.515.457-.314,1.134-.635,1.749-.428.816-2.037.793-1.546,2.621-.3-.089-.095-.781-.354-.912-1.294.02-3.547.007-3.941,1.315a4.071,4.071,0,0,0,.16,3.114c1.222.487,1.365-.853,2.083-.954a11.92,11.92,0,0,0-.549,1.647c.905.141,1.743.415,1.1,1.78-.2-.4-.456-.722-.667-1.1-.879.162-1.04-.97-1.811-1.025a2.608,2.608,0,0,1-2.357-1.005c.344-.8-.278-1.176-.549-1.75-.333-.72-.518-2.066-1.325-2a2.876,2.876,0,0,1-.351-3.3c.337-.709,1.469-1.407,1.56-2.1.042-.294-.233-.6-.271-.813-.142-.76.167-1.707-.041-2.311-1.314-.251-2.656-.526-3.853.52-.351.308-.615.778-1.2.517a1.107,1.107,0,0,0-.079-.576c.612-.477,1.686-.58,1.821-1.453.306-.064.591-.146.7-.374.033-.251-.146-.224-.157-.416,1.577-1.695,3.908-.814,6.179-1.529a11.543,11.543,0,0,1,2.126-.6c.36-.035.605.367.907.387.45.025.792-.289.987.155" transform="translate(-15.143 -214.902)" fill="#aed3f2" fill-rule="evenodd"/>
        <path id="Trazado_64865" data-name="Trazado 64865" d="M31.846,227.49c-.374-.047-.574-.059-.8.234-.108-.151-.317-.162-.276-.508.357-.168,1.089-.395,1.076.273" transform="translate(-16.169 -214.933)" fill="#aed3f2" fill-rule="evenodd"/>
        <path id="Trazado_64866" data-name="Trazado 64866" d="M81.809,231.452c.232.721,1.254,1.162.935,2.075-.718-.384-1.5-1.264-.935-2.075" transform="translate(-18.76 -215.158)" fill="#aed3f2" fill-rule="evenodd"/>
        <path id="Trazado_64867" data-name="Trazado 64867" d="M81.548,238.427c.215.1.28.487.195.74-.089.133-.448.136-.623.024-.045-.479.326-.465.428-.764" transform="translate(-18.735 -215.513)" fill="#aed3f2" fill-rule="evenodd"/>
        <path id="Trazado_64868" data-name="Trazado 64868" d="M78.559,238.251c.2.171.42.3.434.654-.289.263-.587-.326-.434-.654" transform="translate(-18.602 -215.504)" fill="#aed3f2" fill-rule="evenodd"/>
        <path id="Trazado_64869" data-name="Trazado 64869" d="M47.829,237.337c-.233,1.177.085,1.232.926,1.649.809.407,1.617,1.6,2-.041a5.152,5.152,0,0,0,2.652.694,8.611,8.611,0,0,0,.883,2.826c.3.854.709,2.732,1.121,3.122.464.443,1.028.465.885,1.428.466.954,1.359-.047,2.163.2.036,2.722-2.9,3.56-3.2,5.986-.182,1.407.95,2.745.318,4.025-.281.572-1.392.861-1.524,1.574-.17.94.512,2.053-.56,2.371a2.958,2.958,0,0,1-3.373,3.053c-.158-1.948-1.42-4.028-1.606-6.324-.075-.907.506-1.415.521-2.266a14.023,14.023,0,0,0-.279-2.062c-.121-.649-.872-1.118-.926-1.75-.075-.874.482-3.014-.843-2.476-.955-1.593-2.526.129-3.814-.012-.8-.087-2.187-2.725-2.246-3.743-.017-.276.257-.662.28-.919.051-.541-.176-1.131-.158-1.632.029-1,1.029-1.838,1.522-2.473.616-.8.594-2.416,1.484-2.636,1.257.216,2.41-.8,3.775-.59" transform="translate(-16.687 -215.456)" fill="#aed3f2" fill-rule="evenodd"/>
        <path id="Trazado_64870" data-name="Trazado 64870" d="M28.588,248.773c.237,1.372,2.474.572,2.269,2.34-.056.493-.665.486-.557,1.114.783.979,1.793-.809,2.154.757a2.18,2.18,0,0,1,2.516,1.332c.16.977-.878,1.5-1.039,2.309-.275,1.385.239,2.694-.56,3.265A2.727,2.727,0,0,0,31.7,261.01c-.121,1.685-.535,3.57-1.953,2.9-.028.624.571.784.359,1.461-.181.226-.724-.034-.956.123-.087.193.006.392,0,.634-.106.1-.393-.176-.477.031.606,1.051-.615,2.055.4,2.775a7.324,7.324,0,0,0-.4,1.152c-1.4-.349-.8-3.21-1.826-4.088-.7-2.676.316-5.512-.6-8.033-.228-.635-1.03-.827-1.427-1.4a7.671,7.671,0,0,1-.314-.868c-.607-1.4-1.539-2.316-1.308-3.9.42-.806,1.277-1.521.912-2.993a1.012,1.012,0,0,1,1.543-.4c.277-1.477,2.2-.07,2.938.372" transform="translate(-15.781 -215.988)" fill="#aed3f2" fill-rule="evenodd"/>
        <path id="Trazado_64871" data-name="Trazado 64871" d="M77.794,249.508c-.222.951.17,1.869-.548,2.7a6.308,6.308,0,0,1-1.182-.114c-.007-.412-.4-.65-.2-1.034.123-.121.264.049.395-.061.345-.619,1.072-1.46,1.533-1.489" transform="translate(-18.464 -216.078)" fill="#aed3f2" fill-rule="evenodd"/>
        <path id="Trazado_64872" data-name="Trazado 64872" d="M85.571,253.22c-.622-.491-1.069.453-1.708.251a1.719,1.719,0,0,0-.852-1.207c.6-.879,2.6.111,2.561.956" transform="translate(-18.831 -216.201)" fill="#aed3f2" fill-rule="evenodd"/>
        <path id="Trazado_64873" data-name="Trazado 64873" d="M83.979,255.4c.56.269.393.958.622,1.537.276.693,1.083,1.185,1.124,1.963.045.838-.841,1.682-1.4,2.42-.515.689-.536,1.455-1.475,1.738-.21.064-.189-.17-.389-.12-.252.2-.676.423-.857.151.033-.517-.075-1.048,0-1.564-.327-.1-.6.39-.78.412-1.091-1.484-3.153.953-4.667,1.258.364-1.081-.137-2.439.194-3.733.539-.973,2.1-.9,2.4-2.09.736-.07.649-.957,1.211-1.192.167.453,1.02.264.978-.326a6.334,6.334,0,0,0,1.014-.079c.363,1.314,1.957,1.346,2.021-.376" transform="translate(-18.482 -216.378)" fill="#aed3f2" fill-rule="evenodd"/>
        <path id="Trazado_64874" data-name="Trazado 64874" d="M58.866,257.564c.064-.017.068.047.119.047-.226,1.594-.337,3.331-1.241,4.109-.684-.848.249-1.977.08-3a1.9,1.9,0,0,0,1.043-1.157" transform="translate(-17.531 -216.488)" fill="#aed3f2" fill-rule="evenodd"/>
        <path id="Trazado_64875" data-name="Trazado 64875" d="M72.958,250.87c.792.111,1.232,1.284,1.462,2.058-.674-.266-1.1-1.241-1.462-2.058" transform="translate(-18.319 -216.147)" fill="#aed3f2" fill-rule="evenodd"/>
      </g>
    </g>
  </g>
</svg>
