<svg xmlns="http://www.w3.org/2000/svg" width="150.999" height="128" viewBox="0 0 150.999 128">
  <g id="Grupo_70503" data-name="Grupo 70503" transform="translate(-584 -9398.316)">
    <g id="Unión_3" data-name="Unión 3" transform="translate(11518.999 21248.729) rotate(180)" fill="none">
      <path d="M10808.572,11800.567l-24.572-14.156,24.572-14.156a64,64,0,1,1,0,28.313Z" stroke="none"/>
      <path d="M 10871 11848.412109375 C 10879.37109375 11848.412109375 10887.490234375 11846.7734375 10895.1328125 11843.541015625 C 10898.8056640625 11841.9873046875 10902.3486328125 11840.0634765625 10905.6630859375 11837.82421875 C 10908.9462890625 11835.6064453125 10912.0341796875 11833.05859375 10914.83984375 11830.2529296875 C 10917.646484375 11827.4462890625 10920.193359375 11824.3583984375 10922.412109375 11821.0751953125 C 10924.6513671875 11817.7607421875 10926.57421875 11814.2177734375 10928.1279296875 11810.5439453125 C 10931.3603515625 11802.9013671875 10932.9990234375 11794.7822265625 10932.9990234375 11786.4111328125 C 10932.9990234375 11778.041015625 10931.3603515625 11769.921875 10928.1279296875 11762.279296875 C 10926.57421875 11758.6064453125 10924.6513671875 11755.0634765625 10922.412109375 11751.7490234375 C 10920.193359375 11748.4658203125 10917.646484375 11745.3779296875 10914.83984375 11742.572265625 C 10912.0341796875 11739.765625 10908.9462890625 11737.2177734375 10905.6630859375 11735 C 10902.3486328125 11732.7607421875 10898.8056640625 11730.837890625 10895.1328125 11729.2841796875 C 10887.490234375 11726.05078125 10879.37109375 11724.412109375 10871 11724.412109375 C 10863.7763671875 11724.412109375 10856.701171875 11725.642578125 10849.970703125 11728.0693359375 C 10843.4658203125 11730.4140625 10837.4296875 11733.8193359375 10832.0302734375 11738.1884765625 C 10826.6767578125 11742.5205078125 10822.1083984375 11747.669921875 10818.4521484375 11753.4931640625 C 10814.728515625 11759.423828125 10812.0615234375 11765.884765625 10810.5234375 11772.6953125 L 10810.330078125 11773.55078125 L 10809.5703125 11773.98828125 L 10788.0068359375 11786.4111328125 L 10810.330078125 11799.271484375 L 10810.5234375 11800.126953125 C 10812.0615234375 11806.9384765625 10814.7294921875 11813.3994140625 10818.4521484375 11819.330078125 C 10822.1083984375 11825.154296875 10826.6767578125 11830.3037109375 10832.0302734375 11834.6357421875 C 10837.4296875 11839.005859375 10843.4658203125 11842.41015625 10849.970703125 11844.7548828125 C 10856.701171875 11847.181640625 10863.7763671875 11848.412109375 10871 11848.412109375 M 10871 11850.412109375 C 10840.5185546875 11850.412109375 10815.015625 11829.1025390625 10808.572265625 11800.5673828125 L 10784 11786.4111328125 L 10808.572265625 11772.2548828125 C 10815.015625 11743.72265625 10840.5185546875 11722.412109375 10871 11722.412109375 C 10906.3466796875 11722.412109375 10934.9990234375 11751.0673828125 10934.9990234375 11786.4111328125 C 10934.9990234375 11821.7578125 10906.3466796875 11850.412109375 10871 11850.412109375 Z" stroke="none" fill="#d8a175"/>
    </g>
    <g id="Grupo_25098" data-name="Grupo 25098" transform="translate(-53.243 -894.411)">
      <path id="Trazado_65789" data-name="Trazado 65789" d="M214.812,20.908a.864.864,0,0,1-.612-.253l-2.589-2.591a.863.863,0,1,1,1.22-1.221l1.846,1.846,2.871-4.3a.863.863,0,1,1,1.436.957l-3.453,5.181a.868.868,0,0,1-.634.381c-.028,0-.058,0-.084,0" transform="translate(472.384 10324.271)" fill="#ab8484"/>
      <path id="Trazado_65790" data-name="Trazado 65790" d="M214.812,31.409a.864.864,0,0,1-.612-.253l-2.589-2.591a.863.863,0,1,1,1.22-1.221l1.846,1.846,2.871-4.3a.863.863,0,1,1,1.436.957l-3.453,5.181a.868.868,0,0,1-.634.381c-.028,0-.058,0-.084,0" transform="translate(472.384 10326.725)" fill="#ab8484"/>
      <path id="Trazado_65791" data-name="Trazado 65791" d="M214.812,41.909a.864.864,0,0,1-.612-.253l-2.589-2.591a.863.863,0,1,1,1.22-1.221l1.846,1.846,2.871-4.3a.863.863,0,1,1,1.436.957l-3.453,5.181a.868.868,0,0,1-.634.381c-.028,0-.058,0-.084,0" transform="translate(472.384 10329.178)" fill="#20201d"/>
      <path id="Trazado_65792" data-name="Trazado 65792" d="M227.02,52.114h-19a.863.863,0,0,1-.864-.864V10.664a.864.864,0,0,1,.864-.864h7.772a.864.864,0,0,1,0,1.727h-6.908v38.86H227.02a.864.864,0,1,1,0,1.727" transform="translate(471.403 10323.29)" fill="#20201d"/>
      <path id="Trazado_65793" data-name="Trazado 65793" d="M237.494,17.572a.863.863,0,0,1-.864-.864V11.527h-6.908a.864.864,0,0,1,0-1.727h7.772a.864.864,0,0,1,.864.864v6.045a.863.863,0,0,1-.864.864" transform="translate(476.473 10323.29)" fill="#20201d"/>
      <path id="Trazado_65794" data-name="Trazado 65794" d="M233.32,13.49h-19a.864.864,0,0,1-.864-.864V4.854a.863.863,0,0,1,.864-.864h5.554a4.3,4.3,0,0,1,7.89,0h5.554a.863.863,0,0,1,.864.864v7.772a.864.864,0,0,1-.864.864m-18.135-1.727h17.271V5.718h-5.3a.864.864,0,0,1-.836-.646,2.574,2.574,0,0,0-4.991,0,.866.866,0,0,1-.836.646h-5.3Z" transform="translate(472.875 10321.327)" fill="#20201d"/>
      <path id="Trazado_65795" data-name="Trazado 65795" d="M238.2,57.25H204.52a.862.862,0,0,1-.862-.864V7.164a.863.863,0,0,1,.862-.864h12.091V8.027H205.384v47.5H238.2Z" transform="translate(470.585 10322.472)" fill="#20201d"/>
      <path id="Trazado_65796" data-name="Trazado 65796" d="M241.811,21.844a.863.863,0,0,1-.864-.864V8.027H229.722a.864.864,0,1,1,0-1.727h12.09a.864.864,0,0,1,.864.864V20.98a.863.863,0,0,1-.864.864" transform="translate(476.473 10322.472)" fill="#20201d"/>
      <path id="Trazado_65797" data-name="Trazado 65797" d="M233.41,17.827h-12.09a.864.864,0,0,1,0-1.727h12.09a.864.864,0,0,1,0,1.727" transform="translate(474.51 10324.762)" fill="#ab8484"/>
      <path id="Trazado_65798" data-name="Trazado 65798" d="M233.41,28.327h-12.09a.864.864,0,0,1,0-1.727h12.09a.864.864,0,1,1,0,1.727" transform="translate(474.51 10327.215)" fill="#ab8484"/>
      <path id="Trazado_65799" data-name="Trazado 65799" d="M228.23,38.827h-6.908a.864.864,0,0,1,0-1.727h6.908a.864.864,0,1,1,0,1.727" transform="translate(474.51 10329.669)" fill="#20201d"/>
      <path id="Trazado_65800" data-name="Trazado 65800" d="M239.1,31.317c-3.615,0-6.045-2.776-6.045-6.908s2.43-6.908,6.045-6.908,6.045,2.777,6.045,6.908-2.429,6.908-6.045,6.908m0-12.09c-3.187,0-4.318,2.792-4.318,5.181s1.131,5.181,4.318,5.181,4.318-2.791,4.318-5.181-1.131-5.181-4.318-5.181" transform="translate(477.454 10325.089)" fill="#20201d"/>
      <path id="Trazado_65801" data-name="Trazado 65801" d="M244.422,51.708a.863.863,0,0,1-.864-.864V45.664a.864.864,0,1,1,1.727,0v5.181a.863.863,0,0,1-.864.864" transform="translate(479.908 10331.468)" fill="#20201d"/>
      <path id="Trazado_65802" data-name="Trazado 65802" d="M231.822,51.708a.863.863,0,0,1-.865-.864V45.664a.864.864,0,1,1,1.727,0v5.181a.863.863,0,0,1-.862.864" transform="translate(476.964 10331.468)" fill="#20201d"/>
      <path id="Trazado_65803" data-name="Trazado 65803" d="M239.149,31.827h-1.728a.864.864,0,1,1,0-1.727h1.728a.864.864,0,0,1,0,1.727" transform="translate(478.272 10328.033)" fill="#20201d"/>
      <path id="Trazado_65804" data-name="Trazado 65804" d="M238.121,41.326a.863.863,0,0,1-.864-.864v-9.5a.864.864,0,0,1,1.727,0v9.5a.863.863,0,0,1-.864.864" transform="translate(478.436 10328.033)" fill="#20201d"/>
      <path id="Trazado_65805" data-name="Trazado 65805" d="M251.145,49.169h-6.417a9.164,9.164,0,0,1-2.324-.426,1.046,1.046,0,0,1-.111.016l-4.967.407-8.4,0a3.9,3.9,0,0,1-2.9-1.242,2.656,2.656,0,0,1-.632-2.149l1.794-10.014c.627-3.079,4.051-5.664,7.481-5.664h1.058a.862.862,0,0,1,.787.509l4.42,9.814,4.367-9.814a.864.864,0,0,1,.788-.509h.617a6.905,6.905,0,0,1,6.625,5.644l1.356,10.043a2.458,2.458,0,0,1-.565,2.038,3.961,3.961,0,0,1-2.971,1.343m-8.986-2.348a8.555,8.555,0,0,0,2.568.621h6.417a2.234,2.234,0,0,0,1.636-.712.746.746,0,0,0,.2-.659l-1.355-10.039a5.161,5.161,0,0,0-4.923-4.2h-.059l-4.191,9.305a1.749,1.749,0,0,1-1.549.963,1.725,1.725,0,0,1-1.52-.908l-4.219-9.361h-.5c-2.62,0-5.323,1.991-5.785,4.261l-1.785,9.967a.9.9,0,0,0,.234.743,2.2,2.2,0,0,0,1.594.644h8.335l2.444-.2c-1.926-1.219-5.358-3.069-8.041-2.809a.842.842,0,0,1-.73-.285.866.866,0,0,1-.2-.759l.952-4.347a.863.863,0,1,1,1.686.37l-.719,3.284c4.155.249,8.844,3.633,9.509,4.127" transform="translate(475.656 10328.033)" fill="#20201d"/>
      <path id="Trazado_65806" data-name="Trazado 65806" d="M230.691,42.667a.863.863,0,0,1-.7-1.369l1.045-1.448a2.045,2.045,0,0,1,2.341-.876l3.395.635c.924-.1,6.024-.612,9.59.508l-.253-2.564a.863.863,0,0,1,.774-.944.853.853,0,0,1,.945.775l.394,3.99a.862.862,0,0,1-1.268.845c-3.19-1.716-10.036-.888-10.1-.88a.879.879,0,0,1-.266-.009l-3.606-.676a.848.848,0,0,1-.185-.057c-.065-.028-.242.1-.355.262l-1.045,1.448a.864.864,0,0,1-.7.359" transform="translate(476.7 10329.553)" fill="#20201d"/>
    </g>
  </g>
</svg>
