<svg xmlns="http://www.w3.org/2000/svg" width="150.999" height="128" viewBox="0 0 150.999 128">
  <g id="Grupo_70508" data-name="Grupo 70508" transform="translate(-855 -10256.615)">
    <g id="Unión_8" data-name="Unión 8" transform="translate(-9929 -1465.797)" fill="#fff">
      <path d="M 10871 11849.412109375 C 10863.6611328125 11849.412109375 10856.4716796875 11848.162109375 10849.6318359375 11845.6962890625 C 10843.021484375 11843.3125 10836.8876953125 11839.853515625 10831.4013671875 11835.4130859375 C 10825.9619140625 11831.01171875 10821.3203125 11825.779296875 10817.60546875 11819.8623046875 C 10813.822265625 11813.8349609375 10811.1103515625 11807.26953125 10809.5478515625 11800.3466796875 L 10809.451171875 11799.919921875 L 10809.0712890625 11799.701171875 L 10786.0029296875 11786.4111328125 L 10809.0712890625 11773.12109375 L 10809.451171875 11772.90234375 L 10809.5478515625 11772.4755859375 C 10811.1103515625 11765.5537109375 10813.822265625 11758.98828125 10817.60546875 11752.9619140625 C 10821.3203125 11747.044921875 10825.9619140625 11741.8125 10831.4013671875 11737.4111328125 C 10836.8876953125 11732.970703125 10843.021484375 11729.51171875 10849.6318359375 11727.12890625 C 10856.4716796875 11724.662109375 10863.6611328125 11723.412109375 10871 11723.412109375 C 10879.505859375 11723.412109375 10887.755859375 11725.078125 10895.5224609375 11728.3623046875 C 10899.2548828125 11729.94140625 10902.85546875 11731.8955078125 10906.22265625 11734.1708984375 C 10909.5595703125 11736.4248046875 10912.6962890625 11739.013671875 10915.5478515625 11741.865234375 C 10918.3984375 11744.7158203125 10920.9873046875 11747.853515625 10923.240234375 11751.189453125 C 10925.515625 11754.5576171875 10927.4697265625 11758.1572265625 10929.048828125 11761.890625 C 10932.333984375 11769.65625 10933.9990234375 11777.90625 10933.9990234375 11786.4111328125 C 10933.9990234375 11794.9169921875 10932.333984375 11803.1669921875 10929.048828125 11810.93359375 C 10927.4697265625 11814.666015625 10925.515625 11818.2666015625 10923.240234375 11821.634765625 C 10920.9873046875 11824.970703125 10918.3984375 11828.1083984375 10915.5478515625 11830.9599609375 C 10912.6962890625 11833.810546875 10909.5595703125 11836.3994140625 10906.22265625 11838.6533203125 C 10902.85546875 11840.9287109375 10899.2548828125 11842.8828125 10895.5224609375 11844.4619140625 C 10887.755859375 11847.74609375 10879.505859375 11849.412109375 10871 11849.412109375 Z" stroke="none"/>
      <path d="M 10871 11848.412109375 C 10879.37109375 11848.412109375 10887.490234375 11846.7734375 10895.1328125 11843.541015625 C 10898.8056640625 11841.9873046875 10902.3486328125 11840.0634765625 10905.6630859375 11837.82421875 C 10908.9462890625 11835.6064453125 10912.0341796875 11833.05859375 10914.83984375 11830.2529296875 C 10917.646484375 11827.4462890625 10920.193359375 11824.3583984375 10922.412109375 11821.0751953125 C 10924.6513671875 11817.7607421875 10926.57421875 11814.2177734375 10928.1279296875 11810.5439453125 C 10931.3603515625 11802.9013671875 10932.9990234375 11794.7822265625 10932.9990234375 11786.4111328125 C 10932.9990234375 11778.041015625 10931.3603515625 11769.921875 10928.1279296875 11762.279296875 C 10926.57421875 11758.6064453125 10924.6513671875 11755.0634765625 10922.412109375 11751.7490234375 C 10920.193359375 11748.4658203125 10917.646484375 11745.3779296875 10914.83984375 11742.572265625 C 10912.0341796875 11739.765625 10908.9462890625 11737.2177734375 10905.6630859375 11735 C 10902.3486328125 11732.7607421875 10898.8056640625 11730.837890625 10895.1328125 11729.2841796875 C 10887.490234375 11726.05078125 10879.37109375 11724.412109375 10871 11724.412109375 C 10863.7763671875 11724.412109375 10856.701171875 11725.642578125 10849.970703125 11728.0693359375 C 10843.4658203125 11730.4140625 10837.4296875 11733.8193359375 10832.0302734375 11738.1884765625 C 10826.6767578125 11742.5205078125 10822.1083984375 11747.669921875 10818.4521484375 11753.4931640625 C 10814.728515625 11759.423828125 10812.0615234375 11765.884765625 10810.5234375 11772.6953125 L 10810.330078125 11773.55078125 L 10809.5703125 11773.98828125 L 10788.0068359375 11786.4111328125 L 10810.330078125 11799.271484375 L 10810.5234375 11800.126953125 C 10812.0615234375 11806.9384765625 10814.7294921875 11813.3994140625 10818.4521484375 11819.330078125 C 10822.1083984375 11825.154296875 10826.6767578125 11830.3037109375 10832.0302734375 11834.6357421875 C 10837.4296875 11839.005859375 10843.4658203125 11842.41015625 10849.970703125 11844.7548828125 C 10856.701171875 11847.181640625 10863.7763671875 11848.412109375 10871 11848.412109375 M 10871 11850.412109375 C 10840.5185546875 11850.412109375 10815.015625 11829.1025390625 10808.572265625 11800.5673828125 L 10784 11786.4111328125 L 10808.572265625 11772.2548828125 C 10815.015625 11743.72265625 10840.5185546875 11722.412109375 10871 11722.412109375 C 10906.3466796875 11722.412109375 10934.9990234375 11751.0673828125 10934.9990234375 11786.4111328125 C 10934.9990234375 11821.7578125 10906.3466796875 11850.412109375 10871 11850.412109375 Z" stroke="none" fill="#d8a175"/>
    </g>
    <g id="Grupo_25101" data-name="Grupo 25101" transform="translate(498.499 -515.28)">
      <path id="Trazado_65887" data-name="Trazado 65887" d="M226.063,239.586a.862.862,0,0,1-.864-.862v-2.967a2.349,2.349,0,0,1,2.346-2.346h5.967l-.949-2.937a.863.863,0,1,1,1.642-.53l1.314,4.066a.864.864,0,0,1-.822,1.129h-7.153a.62.62,0,0,0-.619.619v2.967a.862.862,0,0,1-.864.862" transform="translate(217.618 10589.587)" fill="#20201d"/>
      <path id="Trazado_65888" data-name="Trazado 65888" d="M227.654,239.579a.862.862,0,0,1-.864-.862V235.75a.62.62,0,0,0-.619-.619h-6.92a.865.865,0,0,1-.83-1.1L219.572,230a.864.864,0,0,1,1.662.475l-.838,2.93h5.775a2.349,2.349,0,0,1,2.346,2.346v2.967a.862.862,0,0,1-.864.862" transform="translate(216.027 10589.594)" fill="#20201d"/>
      <path id="Trazado_65889" data-name="Trazado 65889" d="M227.1,223.984h-1.727a.864.864,0,0,1,0-1.727H227.1a.864.864,0,0,1,0,1.727" transform="translate(217.457 10587.931)" fill="#20201d"/>
      <path id="Trazado_65890" data-name="Trazado 65890" d="M227.054,223.474c-3.615,0-6.045-2.776-6.045-6.908s2.43-6.908,6.045-6.908,6.045,2.777,6.045,6.908-2.429,6.908-6.045,6.908m0-12.09c-3.187,0-4.318,2.792-4.318,5.181s1.131,5.181,4.318,5.181,4.318-2.792,4.318-5.181-1.131-5.181-4.318-5.181" transform="translate(216.639 10584.987)" fill="#20201d"/>
      <path id="Trazado_65891" data-name="Trazado 65891" d="M226.073,230.893a.862.862,0,0,1-.864-.864v-6.908a.864.864,0,1,1,1.727,0v6.908a.862.862,0,0,1-.864.864" transform="translate(217.621 10587.931)" fill="#20201d"/>
      <path id="Trazado_65892" data-name="Trazado 65892" d="M240.908,241.255h-24.18a3.066,3.066,0,0,1-2.62-1.216,4.42,4.42,0,0,1-.361-3.955l2.673-8.278c1.309-3.69,3.527-5.549,6.6-5.549h.617a.864.864,0,0,1,.736.413l4.421,7.222,4.468-7.222a.864.864,0,0,1,.737-.413h.617c3.073,0,5.29,1.858,6.594,5.526l2.678,8.3a4.425,4.425,0,0,1-.36,3.96,3.067,3.067,0,0,1-2.62,1.216M223.02,223.984c-2.328,0-3.906,1.39-4.965,4.377l-2.663,8.248a2.848,2.848,0,0,0,.11,2.409,1.41,1.41,0,0,0,1.227.51h24.18a1.41,1.41,0,0,0,1.227-.51,2.861,2.861,0,0,0,.109-2.415l-2.67-8.267c-1.054-2.962-2.631-4.352-4.958-4.352h-.133l-4.169,6.811a1.71,1.71,0,0,1-1.5.867h0a1.729,1.729,0,0,1-1.52-.91l-4.145-6.768Z" transform="translate(214.875 10587.931)" fill="#20201d"/>
      <path id="Trazado_65893" data-name="Trazado 65893" d="M254.981,267.309H237.423a.862.862,0,0,1-.864-.864A7.458,7.458,0,0,1,244.007,259H248.4a7.458,7.458,0,0,1,7.448,7.449.863.863,0,0,1-.865.864m-16.63-1.727h15.7a5.729,5.729,0,0,0-5.655-4.858h-4.392a5.729,5.729,0,0,0-5.655,4.858" transform="translate(220.273 10596.516)" fill="#20201d"/>
      <path id="Trazado_65894" data-name="Trazado 65894" d="M245.371,259.426c-3.093,0-5.253-2.46-5.253-5.984s2.16-5.984,5.253-5.984,5.253,2.461,5.253,5.984-2.16,5.984-5.253,5.984m0-10.242c-2.6,0-3.526,2.293-3.526,4.257s.924,4.257,3.526,4.257,3.526-2.293,3.526-4.257-.924-4.257-3.526-4.257" transform="translate(221.104 10593.819)" fill="#20201d"/>
      <path id="Trazado_65895" data-name="Trazado 65895" d="M219.047,267.309H201.49a.863.863,0,0,1-.865-.864A7.458,7.458,0,0,1,208.074,259h4.389a7.458,7.458,0,0,1,7.449,7.449.864.864,0,0,1-.865.864m-16.63-1.727h15.7a5.73,5.73,0,0,0-5.656-4.858h-4.389a5.73,5.73,0,0,0-5.656,4.858" transform="translate(211.876 10596.516)" fill="#20201d"/>
      <path id="Trazado_65896" data-name="Trazado 65896" d="M209.438,259.426c-3.093,0-5.254-2.46-5.254-5.984s2.161-5.984,5.254-5.984,5.253,2.461,5.253,5.984-2.16,5.984-5.253,5.984m0-10.242c-2.6,0-3.527,2.293-3.527,4.257s.924,4.257,3.527,4.257,3.526-2.293,3.526-4.257-.924-4.257-3.526-4.257" transform="translate(212.708 10593.819)" fill="#20201d"/>
      <path id="Trazado_65897" data-name="Trazado 65897" d="M236.547,267.309H218.99a.863.863,0,0,1-.865-.864A7.458,7.458,0,0,1,225.574,259h4.389a7.458,7.458,0,0,1,7.449,7.449.864.864,0,0,1-.865.864m-16.63-1.727h15.7a5.73,5.73,0,0,0-5.656-4.858h-4.389a5.73,5.73,0,0,0-5.656,4.858" transform="translate(215.965 10596.516)" fill="#20201d"/>
      <path id="Trazado_65898" data-name="Trazado 65898" d="M226.938,259.426c-3.093,0-5.254-2.46-5.254-5.984s2.161-5.984,5.254-5.984,5.253,2.461,5.253,5.984-2.16,5.984-5.253,5.984m0-10.242c-2.6,0-3.527,2.293-3.527,4.257s.924,4.257,3.527,4.257,3.526-2.293,3.526-4.257-.924-4.257-3.526-4.257" transform="translate(216.797 10593.819)" fill="#20201d"/>
      <path id="Trazado_65899" data-name="Trazado 65899" d="M226.024,246.74a.862.862,0,0,1-.864-.861v-6.046a.864.864,0,1,1,1.727,0v6.046a.862.862,0,0,1-.864.861" transform="translate(217.609 10591.836)" fill="#f9a44a"/>
      <path id="Trazado_65900" data-name="Trazado 65900" d="M252.764,246.228a.862.862,0,0,1-.864-.861v-1.62a.865.865,0,0,0-.864-.864H210.45a.864.864,0,0,0-.864.864v1.62a.864.864,0,0,1-1.727,0v-1.62a2.592,2.592,0,0,1,2.591-2.589h40.587a2.592,2.592,0,0,1,2.591,2.589v1.62a.862.862,0,0,1-.864.861" transform="translate(213.567 10592.347)" fill="#f9a44a"/>
    </g>
  </g>
</svg>
