<svg xmlns="http://www.w3.org/2000/svg" width="150.999" height="128" viewBox="0 0 150.999 128">
  <g id="Grupo_70510" data-name="Grupo 70510" transform="translate(-855 -10621.615)">
    <g id="Unión_10" data-name="Unión 10" transform="translate(-9929 -1100.797)" fill="#fff">
      <path d="M 10871 11849.412109375 C 10863.6611328125 11849.412109375 10856.4716796875 11848.162109375 10849.6318359375 11845.6962890625 C 10843.021484375 11843.3125 10836.8876953125 11839.853515625 10831.4013671875 11835.4130859375 C 10825.9619140625 11831.01171875 10821.3203125 11825.779296875 10817.60546875 11819.8623046875 C 10813.822265625 11813.8349609375 10811.1103515625 11807.26953125 10809.5478515625 11800.3466796875 L 10809.451171875 11799.919921875 L 10809.0712890625 11799.701171875 L 10786.0029296875 11786.4111328125 L 10809.0712890625 11773.12109375 L 10809.451171875 11772.90234375 L 10809.5478515625 11772.4755859375 C 10811.1103515625 11765.5537109375 10813.822265625 11758.98828125 10817.60546875 11752.9619140625 C 10821.3203125 11747.044921875 10825.9619140625 11741.8125 10831.4013671875 11737.4111328125 C 10836.8876953125 11732.970703125 10843.021484375 11729.51171875 10849.6318359375 11727.12890625 C 10856.4716796875 11724.662109375 10863.6611328125 11723.412109375 10871 11723.412109375 C 10879.505859375 11723.412109375 10887.755859375 11725.078125 10895.5224609375 11728.3623046875 C 10899.2548828125 11729.94140625 10902.85546875 11731.8955078125 10906.22265625 11734.1708984375 C 10909.5595703125 11736.4248046875 10912.6962890625 11739.013671875 10915.5478515625 11741.865234375 C 10918.3984375 11744.7158203125 10920.9873046875 11747.853515625 10923.240234375 11751.189453125 C 10925.515625 11754.5576171875 10927.4697265625 11758.1572265625 10929.048828125 11761.890625 C 10932.333984375 11769.65625 10933.9990234375 11777.90625 10933.9990234375 11786.4111328125 C 10933.9990234375 11794.9169921875 10932.333984375 11803.1669921875 10929.048828125 11810.93359375 C 10927.4697265625 11814.666015625 10925.515625 11818.2666015625 10923.240234375 11821.634765625 C 10920.9873046875 11824.970703125 10918.3984375 11828.1083984375 10915.5478515625 11830.9599609375 C 10912.6962890625 11833.810546875 10909.5595703125 11836.3994140625 10906.22265625 11838.6533203125 C 10902.85546875 11840.9287109375 10899.2548828125 11842.8828125 10895.5224609375 11844.4619140625 C 10887.755859375 11847.74609375 10879.505859375 11849.412109375 10871 11849.412109375 Z" stroke="none"/>
      <path d="M 10871 11848.412109375 C 10879.37109375 11848.412109375 10887.490234375 11846.7734375 10895.1328125 11843.541015625 C 10898.8056640625 11841.9873046875 10902.3486328125 11840.0634765625 10905.6630859375 11837.82421875 C 10908.9462890625 11835.6064453125 10912.0341796875 11833.05859375 10914.83984375 11830.2529296875 C 10917.646484375 11827.4462890625 10920.193359375 11824.3583984375 10922.412109375 11821.0751953125 C 10924.6513671875 11817.7607421875 10926.57421875 11814.2177734375 10928.1279296875 11810.5439453125 C 10931.3603515625 11802.9013671875 10932.9990234375 11794.7822265625 10932.9990234375 11786.4111328125 C 10932.9990234375 11778.041015625 10931.3603515625 11769.921875 10928.1279296875 11762.279296875 C 10926.57421875 11758.6064453125 10924.6513671875 11755.0634765625 10922.412109375 11751.7490234375 C 10920.193359375 11748.4658203125 10917.646484375 11745.3779296875 10914.83984375 11742.572265625 C 10912.0341796875 11739.765625 10908.9462890625 11737.2177734375 10905.6630859375 11735 C 10902.3486328125 11732.7607421875 10898.8056640625 11730.837890625 10895.1328125 11729.2841796875 C 10887.490234375 11726.05078125 10879.37109375 11724.412109375 10871 11724.412109375 C 10863.7763671875 11724.412109375 10856.701171875 11725.642578125 10849.970703125 11728.0693359375 C 10843.4658203125 11730.4140625 10837.4296875 11733.8193359375 10832.0302734375 11738.1884765625 C 10826.6767578125 11742.5205078125 10822.1083984375 11747.669921875 10818.4521484375 11753.4931640625 C 10814.728515625 11759.423828125 10812.0615234375 11765.884765625 10810.5234375 11772.6953125 L 10810.330078125 11773.55078125 L 10809.5703125 11773.98828125 L 10788.0068359375 11786.4111328125 L 10810.330078125 11799.271484375 L 10810.5234375 11800.126953125 C 10812.0615234375 11806.9384765625 10814.7294921875 11813.3994140625 10818.4521484375 11819.330078125 C 10822.1083984375 11825.154296875 10826.6767578125 11830.3037109375 10832.0302734375 11834.6357421875 C 10837.4296875 11839.005859375 10843.4658203125 11842.41015625 10849.970703125 11844.7548828125 C 10856.701171875 11847.181640625 10863.7763671875 11848.412109375 10871 11848.412109375 M 10871 11850.412109375 C 10840.5185546875 11850.412109375 10815.015625 11829.1025390625 10808.572265625 11800.5673828125 L 10784 11786.4111328125 L 10808.572265625 11772.2548828125 C 10815.015625 11743.72265625 10840.5185546875 11722.412109375 10871 11722.412109375 C 10906.3466796875 11722.412109375 10934.9990234375 11751.0673828125 10934.9990234375 11786.4111328125 C 10934.9990234375 11821.7578125 10906.3466796875 11850.412109375 10871 11850.412109375 Z" stroke="none" fill="#d8a175"/>
    </g>
    <g id="Grupo_25095" data-name="Grupo 25095" transform="translate(-62.627 -156.51)">
      <path id="Trazado_65901" data-name="Trazado 65901" d="M30.96,436.974h-.011a24.387,24.387,0,0,1-7.551-1.082,12.988,12.988,0,0,1-4.149-2.709l1.226-1.215a11.3,11.3,0,0,0,3.494,2.295,22.982,22.982,0,0,0,6.987.984h0a1.5,1.5,0,0,0,1.082-.45,1.475,1.475,0,0,0-.971-2.509c-.231-.016-.47-.023-.716-.033-2.111-.085-5-.2-7.026-3.675-.412-.706-.8-1.525-1.2-2.391-1.506-3.235-3.214-6.9-7.5-7.436H10.364c-5,0-8.636,4-8.636,9.5v1.727H0v-1.727c0-6.4,4.456-11.226,10.364-11.226h4.318a.7.7,0,0,1,.1.006c5.28.628,7.38,5.136,8.912,8.427.386.83.751,1.614,1.124,2.249,1.549,2.659,3.61,2.74,5.6,2.819.262.011.513.021.757.037a3.208,3.208,0,0,1-.22,6.41" transform="translate(966 10418.439)" fill="#20201d"/>
      <path id="Trazado_65902" data-name="Trazado 65902" d="M11.645,418.243c-3.615,0-6.045-2.776-6.045-6.908s2.43-6.908,6.045-6.908,6.045,2.777,6.045,6.908-2.429,6.908-6.045,6.908m0-12.09c-3.187,0-4.318,2.792-4.318,5.181s1.131,5.181,4.318,5.181,4.318-2.791,4.318-5.181-1.131-5.181-4.318-5.181" transform="translate(967.308 10415.495)" fill="#20201d"/>
      <path id="Trazado_65903" data-name="Trazado 65903" d="M24.178,444.915H7.772A7.781,7.781,0,0,1,0,437.143v-8.918a4.9,4.9,0,0,1,4.9-4.9h8.048a7.787,7.787,0,0,1,7.778,7.777v6.04a7.251,7.251,0,0,0,3.843,6.136.865.865,0,0,1-.39,1.636M4.9,425.053a3.176,3.176,0,0,0-3.172,3.172v8.918a6.051,6.051,0,0,0,6.045,6.044H21.6a8.355,8.355,0,0,1-2.6-6.044V431.1a6.057,6.057,0,0,0-6.051-6.05Z" transform="translate(966 10419.911)" fill="#20201d"/>
      <path id="Trazado_65904" data-name="Trazado 65904" d="M27.98,442.134H13.3v-1.727H27.029a4.324,4.324,0,0,0-4.23-3.454h-5.18v-1.727H22.8a6.052,6.052,0,0,1,6.045,6.045.863.863,0,0,1-.864.864" transform="translate(969.108 10422.691)" fill="#20201d"/>
      <path id="Trazado_65905" data-name="Trazado 65905" d="M22.085,422.456a3.359,3.359,0,0,1-.566-3.538,3.114,3.114,0,0,1,2.887-1.895l7.218-.136L36.6,407.2l1.536.787L32.688,418.6l-8.244.154a1.373,1.373,0,0,0-1.336.844,1.634,1.634,0,0,0,.25,1.7Z" transform="translate(970.965 10416.144)" fill="#20201d"/>
      <path id="Trazado_65906" data-name="Trazado 65906" d="M57.325,425.933H55.6V414.814c-.072-4.761-3.177-4.879-6.772-5.017-.431-.016-.856-.032-1.269-.058l.106-1.723c.4.025.813.041,1.23.055,3.517.136,8.335.32,8.432,6.731Z" transform="translate(977.112 10416.334)" fill="#20201d"/>
      <path id="Trazado_65907" data-name="Trazado 65907" d="M46.587,416.884a.864.864,0,0,1-.727-.395l-2.409-3.732a.863.863,0,1,1,1.45-.936l2.411,3.731a.864.864,0,0,1-.724,1.332" transform="translate(976.12 10417.131)" fill="#20201d"/>
      <path id="Trazado_65908" data-name="Trazado 65908" d="M42.173,423.832a2.674,2.674,0,0,1-2.42-2.608,2.856,2.856,0,0,1,2.434-3.337l8.119-1.1a.863.863,0,1,1,.231,1.711l-8.116,1.1a1.178,1.178,0,0,0-.95,1.435c.057.518.345,1.062.727,1.075l12.121-.039a2.2,2.2,0,0,0,1.421-1.33,2.367,2.367,0,0,0,.03-1.979l-5.088-7.733c-1.4-2.171-3.706-4.752-6.736-4.752H39.626c-1.691,0-5.183,1.477-5.183,6.045,0,0-.009,2.977,0,9.5a.864.864,0,0,1-1.727,0c-.009-6.527,0-9.5,0-9.5,0-5.359,4.04-7.771,6.91-7.771h4.318c3.013,0,5.844,1.916,8.184,5.538l5.091,7.74a4.01,4.01,0,0,1,.11,3.586,3.863,3.863,0,0,1-2.733,2.366l-.176.018Z" transform="translate(973.643 10415.522)" fill="#20201d"/>
      <path id="Trazado_65909" data-name="Trazado 65909" d="M41.561,405.763c-3.616,0-6.045-2.777-6.045-6.91s2.429-6.907,6.045-6.907,6.045,2.776,6.045,6.907-2.43,6.91-6.045,6.91m0-12.09c-3.187,0-4.318,2.791-4.318,5.18s1.131,5.181,4.318,5.181,4.318-2.789,4.318-5.181-1.131-5.18-4.318-5.18" transform="translate(974.298 10412.579)" fill="#20201d"/>
      <path id="Trazado_65910" data-name="Trazado 65910" d="M16.625,421.567l-.365-1.688c.548-.118,1.113-.233,1.69-.343a97.076,97.076,0,0,1,17.541-1.491c3.263,0,6.477.139,9.552.412l-.153,1.721c-3.025-.27-6.188-.406-9.4-.406a95.223,95.223,0,0,0-17.222,1.463q-.842.157-1.644.332" transform="translate(969.799 10418.677)" fill="#8d85ac"/>
      <path id="Trazado_65911" data-name="Trazado 65911" d="M33.444,436.9c-3.322,0-5.447-.089-8.415-.349l.152-1.721c2.911.255,5,.343,8.263.343,17.811,0,30.224-4.107,30.224-7.792,0-2.2-5.113-5.294-16.342-6.874l.241-1.71c4.182.588,17.829,2.946,17.829,8.584,0,6.183-16.462,9.519-31.952,9.519" transform="translate(971.848 10418.854)" fill="#8d85ac"/>
    </g>
  </g>
</svg>
