<svg id="Grupo_24843" data-name="Grupo 24843" xmlns="http://www.w3.org/2000/svg" xmlns:xlink="http://www.w3.org/1999/xlink" width="420" height="312.585" viewBox="0 0 420 312.585">
  <defs>
    <clipPath id="clip-path">
      <rect id="Rectángulo_25536" data-name="Rectángulo 25536" width="420" height="312.585" fill="none"/>
    </clipPath>
  </defs>
  <g id="Grupo_24842" data-name="Grupo 24842" clip-path="url(#clip-path)">
    <path id="Trazado_63541" data-name="Trazado 63541" d="M80.389,52.41H193.283a3.91,3.91,0,0,1,3.9,3.9v71.674a3.909,3.909,0,0,1-3.9,3.9H80.389a3.91,3.91,0,0,1-3.9-3.9V56.308a3.911,3.911,0,0,1,3.9-3.9" transform="translate(-11.06 -7.578)" fill="#f2e9e4" fill-rule="evenodd"/>
    <rect id="Rectángulo_25502" data-name="Rectángulo 25502" width="120.691" height="16.154" transform="translate(65.43 58.851)" fill="#fff"/>
    <path id="Trazado_63542" data-name="Trazado 63542" d="M90.161,111.193a.343.343,0,1,1,0-.685h35.417a.343.343,0,1,1,0,.685Z" transform="translate(-12.987 -15.979)" fill="#302b36"/>
    <path id="Trazado_63543" data-name="Trazado 63543" d="M90.161,127.148a.343.343,0,0,1,0-.687h26.411a.343.343,0,1,1,0,.687Z" transform="translate(-12.987 -18.285)" fill="#302b36"/>
    <path id="Trazado_63544" data-name="Trazado 63544" d="M173.738,105.045a12.163,12.163,0,1,1-12.162,12.163,12.163,12.163,0,0,1,12.162-12.163" transform="translate(-23.363 -15.189)" fill="#fff" fill-rule="evenodd"/>
    <path id="Trazado_63545" data-name="Trazado 63545" d="M186.979,105.045a12.163,12.163,0,1,1-12.162,12.163,12.163,12.163,0,0,1,12.162-12.163" transform="translate(-25.277 -15.189)" fill="#fff" fill-rule="evenodd"/>
    <path id="Trazado_63546" data-name="Trazado 63546" d="M90.161,118.457a.343.343,0,1,1,0-.686h35.417a.343.343,0,1,1,0,.686Z" transform="translate(-12.987 -17.029)" fill="#302b36"/>
    <path id="Trazado_63547" data-name="Trazado 63547" d="M333.667,284.471c3.552-32.966,14.526-56.47,29.007-73.972l4.86,5.036.279-10.85c32.08-34.035,77.719-43.221,100.433-59.761-9.85,10.214-18.311,22.7-26.3,35.971h0l-10.852.506,6.819,6.311h0c-26.582,45.649-49.516,97.279-104.249,96.759" transform="translate(-48.246 -20.955)" fill="#e0e0e0" fill-rule="evenodd"/>
    <path id="Trazado_63548" data-name="Trazado 63548" d="M333.939,288.083q13.962-19.761,29.759-38.33l25.07,1.2.039-.8-24.45-1.166q8.594-10.09,17.693-19.851l25.083,1.2.038-.8-24.4-1.164q1.323-1.417,2.657-2.825,7.822-8.262,15.993-16.3l19.823.548.022-.8-19.051-.527q20.854-20.457,43.824-39.54l-.517-.617q-14.548,12.123-28.287,24.772l1.824-15.31-.8-.095L416.326,193.9q-10.814,10-21.092,20.357l.051-16.523-.8,0-.054,17.34q-4.853,4.912-9.581,9.9Q378.3,231.894,372,238.973l-.579-17.151-.8.028.607,18q-8.334,9.409-16.212,19.113l-.577-17.081-.8.029.607,18.007q-10.942,13.55-20.955,27.7Z" transform="translate(-48.19 -24.334)" fill="#fff"/>
    <path id="Trazado_63549" data-name="Trazado 63549" d="M347.726,231.8c-1.115-8.6-.358-17.128,4.162-25.489,6.657-10.26,8.217-18.483,6.6-25.439l-9.554.356,6.594-7.536a44.929,44.929,0,0,0-9.38-10.571c-7.43-5.511-10.459-17.893-21.424-18.918-8.831-.825-9.779,15.562-17.1,22.179-13.638,10.239-22.443,21.911-4.533,41.512,2.2,3.187,4.946,7.763,5.357,11.174l5.384,6.154-7.544-.212c-33.321,46.852,55.581,58.73,41.438,6.79" transform="translate(-42.369 -20.846)" fill="#e0e0e0" fill-rule="evenodd"/>
    <path id="Trazado_63550" data-name="Trazado 63550" d="M330.465,162.09q1.193,12.255,1.518,24.684L323.9,175.521l-.53.381,8.64,12.033q.318,13.212-.247,26.6-.086,2.066-.191,4.136l-12.683-17.664-.53.381,13.16,18.329q-.8,15.227-2.6,30.66l-8.205-11.429-.53.382,8.624,12.01q-.988,8.449-2.239,16.951l.648.1q2.329-15.886,3.748-31.6L345.1,224.761l-.423-.5-13.637,11.6q.929-10.7,1.374-21.306.182-4.413.273-8.806l17.289-14.71-.422-.5-16.85,14.336a371.287,371.287,0,0,0-1.593-42.857Z" transform="translate(-46.033 -23.428)" fill="#fff"/>
    <path id="Trazado_63551" data-name="Trazado 63551" d="M37.395,337.912l3.03-5.547-7.895-4.312-3.477,5.724Z" transform="translate(-4.201 -47.434)" fill="#e8baa3" fill-rule="evenodd"/>
    <path id="Trazado_63552" data-name="Trazado 63552" d="M38.881,358.513,15.466,342.726l7.93-11.761,14.124,9.523-1.659,2.46Z" transform="translate(-2.236 -47.855)" fill="#6595bf" fill-rule="evenodd"/>
    <path id="Trazado_63553" data-name="Trazado 63553" d="M38.881,360.223,15.466,344.436l1.109-1.646,21.771,14.679Z" transform="translate(-2.236 -49.565)" fill="#003336" fill-rule="evenodd"/>
    <path id="Trazado_63554" data-name="Trazado 63554" d="M22.8,346.2l-6.042-4.074,2.665-3.953,3.2,2.159a3.435,3.435,0,0,1,.926,4.754Z" transform="translate(-2.424 -48.897)" fill="#003336" fill-rule="evenodd"/>
    <path id="Trazado_63555" data-name="Trazado 63555" d="M36.114,350.172a.152.152,0,0,1-.059-.3l3.466-.676a.152.152,0,0,1,.059.3Z" transform="translate(-5.196 -50.491)" fill="#302b36"/>
    <path id="Trazado_63556" data-name="Trazado 63556" d="M36.612,352.734a.152.152,0,0,1-.059-.3l3.465-.676a.152.152,0,1,1,.06.3Z" transform="translate(-5.268 -50.861)" fill="#302b36"/>
    <path id="Trazado_63557" data-name="Trazado 63557" d="M45.343,344.807c-1.065.721-3.035.94-6.107-.257a.144.144,0,0,1-.051-.028.153.153,0,0,1-.018-.215c2.175-2.559,4-3.347,5.263-3.251a1.983,1.983,0,0,1,1.863,1.5,2.108,2.108,0,0,1-.95,2.248m-5.8-.465c2.849,1.069,4.659.872,5.632.214A1.81,1.81,0,0,0,46,342.63a1.686,1.686,0,0,0-1.59-1.27c-1.15-.088-2.831.641-4.867,2.982" transform="translate(-5.658 -49.313)" fill="#003336"/>
    <path id="Trazado_63558" data-name="Trazado 63558" d="M42.88,349.839c-1.238-.349-2.673-1.715-3.738-4.835a.159.159,0,0,1-.01-.058.152.152,0,0,1,.152-.151c3.359.015,5.139.9,5.878,1.929a1.984,1.984,0,0,1,.05,2.393,2.106,2.106,0,0,1-2.332.721M39.5,345.1c1.017,2.868,2.335,4.125,3.465,4.445a1.811,1.811,0,0,0,2-.608,1.689,1.689,0,0,0-.053-2.035c-.674-.936-2.314-1.752-5.416-1.8" transform="translate(-5.658 -49.855)" fill="#302b36"/>
    <path id="Trazado_63559" data-name="Trazado 63559" d="M125.885,128.617,124.426,136l7.268,2.022c5.014-4.6,9.691-9.569,12.536-16.548,0-.693-.308-1.007-.879-.985.37-1.011,0-1.558-.672-1.34.117-1.148-.387-1.234-.867-1.009-.022-.5-.283-.752-.6-.7l-.6.435a20.435,20.435,0,0,1-4.305,4.248c-.968.839-1.72.764-1.418-.073Z" transform="translate(-17.991 -16.979)" fill="#ff9e8a" fill-rule="evenodd"/>
    <path id="Trazado_63560" data-name="Trazado 63560" d="M88.833,134.327,92.49,144.1l21.084-13.58c1.869-1.2,3.127-1.513,5.139-.036l6.129,9.006c.523,2.058.333,3.737-.729,4.955L97.925,169.707c-4.377,4.072-12.336,4.7-15.846-1.537L75,140Z" transform="translate(-10.844 -18.724)" fill="#6595bf" fill-rule="evenodd"/>
    <path id="Trazado_63561" data-name="Trazado 63561" d="M48.1,305.9l33.546-44.914c4.925-5.5,5.43-13.432,2.9-23.034l-9.033-54.162-47.929,3.177,32.935,58.344L31.075,297Z" transform="translate(-3.988 -26.575)" fill="#5e6178" fill-rule="evenodd"/>
    <path id="Trazado_63562" data-name="Trazado 63562" d="M29.782,315.782l17.81.118L73.436,171.036h-44.7l-1.152,14.089Z" transform="translate(-3.988 -24.73)" fill="#5e6178" fill-rule="evenodd"/>
    <path id="Trazado_63563" data-name="Trazado 63563" d="M28.058,134.359,22.2,171.331c-.979,9.18,57,11.039,54.084.642l-5.933-35.81,9.994-2.619L73.87,113.168c-1.807-4.878-6.121-10.254-11.659-10.716L31.5,99.891c-8.844.258-16.869,3.158-19.55,14.577L8.179,130.491Z" transform="translate(-1.183 -14.443)" fill="#6595bf" fill-rule="evenodd"/>
    <path id="Trazado_63564" data-name="Trazado 63564" d="M44.68,346.683l.283-6.315-8.987-.4-.607,6.67Z" transform="translate(-5.114 -49.156)" fill="#fad6c2" fill-rule="evenodd"/>
    <path id="Trazado_63565" data-name="Trazado 63565" d="M39.767,80.119,38.336,97.274l-2.89-.242c4.351,9.214,17.5,9.852,20.445,1.707L53.51,97l.831-8.633Z" transform="translate(-5.125 -11.585)" fill="#ffd1ca" fill-rule="evenodd"/>
    <path id="Trazado_63566" data-name="Trazado 63566" d="M65.154,64.286c8.175-9.031,2.244-19.313-11.236-16.233q-7.626,2.293-15.252,4.583c-3.5,1.292-4.86,3.97-3.164,8.622L37.034,66.7,50.148,77.744,65.154,64.286" transform="translate(-5.028 -6.867)" fill="#003336" fill-rule="evenodd"/>
    <path id="Trazado_63567" data-name="Trazado 63567" d="M63.537,79.446q.757-6.86,1.515-13.718c.2-4.523-1.352-7.689-6.345-8.2-5.991.152-14.412-1.007-13.932,2.641q-.408,4.255-.817,8.511c-.182,1.538-1.582,1.832-2.791.8-4.86-4.966-12.348,3.717-1.6,8.916,4.948,10.568,20.395,11.042,23.969,1.05" transform="translate(-4.926 -8.31)" fill="#ffd1ca" fill-rule="evenodd"/>
    <path id="Trazado_63568" data-name="Trazado 63568" d="M47.339,89.359s1.747,6.914,7.987,7.97l.591-6.144-.125-.07a14.573,14.573,0,0,1-8.453-1.755" transform="translate(-6.845 -12.921)" fill="#003336" fill-rule="evenodd"/>
    <path id="Trazado_63569" data-name="Trazado 63569" d="M29.393,139.6,23.858,161.99,38.014,195.7,26.587,202.5,2.831,172.144C.176,168.92-.692,165.009.571,160.278L7,135.449l15.256-1.277Z" transform="translate(0 -19.4)" fill="#6595bf" fill-rule="evenodd"/>
    <line id="Línea_69" data-name="Línea 69" y1="6.794" x2="11.427" transform="translate(26.586 176.304)" fill="none" stroke="#172429" stroke-linecap="round" stroke-linejoin="round" stroke-width="0.251"/>
    <path id="Trazado_63570" data-name="Trazado 63570" d="M59.085,72.379l2.9,5.875c.228.39.189.623-.161.671H60.506" transform="translate(-8.543 -10.465)" fill="none" stroke="#003336" stroke-linecap="round" stroke-linejoin="round" stroke-width="0.151"/>
    <path id="Trazado_63571" data-name="Trazado 63571" d="M56.284,81.7s1.064,1.459,2.168,1.459" transform="translate(-8.138 -11.814)" fill="none" stroke="#003336" stroke-linecap="round" stroke-linejoin="round" stroke-width="0.151"/>
    <path id="Trazado_63572" data-name="Trazado 63572" d="M63.013,67.467a8.215,8.215,0,0,1,4.063.118" transform="translate(-9.111 -9.724)" fill="none" stroke="#003336" stroke-linecap="round" stroke-linejoin="round" stroke-width="0.151"/>
    <path id="Trazado_63573" data-name="Trazado 63573" d="M65.85,72.158a.809.809,0,1,1-.808.808.809.809,0,0,1,.808-.808" transform="translate(-9.405 -10.433)" fill="#003336" fill-rule="evenodd"/>
    <path id="Trazado_63574" data-name="Trazado 63574" d="M51.693,67.467a8.211,8.211,0,0,1,4.062.118" transform="translate(-7.474 -9.724)" fill="none" stroke="#003336" stroke-linecap="round" stroke-linejoin="round" stroke-width="0.151"/>
    <path id="Trazado_63575" data-name="Trazado 63575" d="M54.53,72.158a.809.809,0,1,1-.808.808.809.809,0,0,1,.808-.808" transform="translate(-7.768 -10.433)" fill="#003336" fill-rule="evenodd"/>
    <path id="Trazado_63576" data-name="Trazado 63576" d="M68.271,233.409l7.7,23.409L57.685,292.749" transform="translate(-8.341 -33.749)" fill="none" stroke="#172429" stroke-linecap="round" stroke-linejoin="round" stroke-width="0.201"/>
    <path id="Trazado_63577" data-name="Trazado 63577" d="M59.664,361.978H31.423V347.793H48.459v2.967Z" transform="translate(-4.544 -50.288)" fill="#6595bf" fill-rule="evenodd"/>
    <path id="Trazado_63578" data-name="Trazado 63578" d="M59.664,364.04H31.423v-1.985H57.682Z" transform="translate(-4.544 -52.35)" fill="#003336" fill-rule="evenodd"/>
    <path id="Trazado_63579" data-name="Trazado 63579" d="M38.71,361.25H31.423v-4.767h3.862a3.435,3.435,0,0,1,3.425,3.425Z" transform="translate(-4.544 -51.545)" fill="#003336" fill-rule="evenodd"/>
    <path id="Trazado_63580" data-name="Trazado 63580" d="M51.669,357.012a.152.152,0,0,1-.216-.215l2.5-2.5a.152.152,0,1,1,.215.215Z" transform="translate(-7.433 -51.222)" fill="#003336"/>
    <path id="Trazado_63581" data-name="Trazado 63581" d="M53.514,358.859a.152.152,0,0,1-.216-.215l2.5-2.5a.152.152,0,1,1,.215.215Z" transform="translate(-7.7 -51.489)" fill="#003336"/>
    <path id="Trazado_63582" data-name="Trazado 63582" d="M56.56,347.2c-.48,1.193-1.991,2.476-5.206,3.2a.149.149,0,0,1-.058.006.153.153,0,0,1-.135-.168c.374-3.339,1.449-5.014,2.547-5.639a1.983,1.983,0,0,1,2.385.2,2.108,2.108,0,0,1,.468,2.4m-5.071,2.858c2.96-.706,4.351-1.881,4.789-2.971a1.81,1.81,0,0,0-.391-2.058,1.688,1.688,0,0,0-2.03-.163c-1,.57-1.988,2.112-2.368,5.192" transform="translate(-7.397 -49.783)" fill="#003336"/>
    <path id="Trazado_63583" data-name="Trazado 63583" d="M57.03,352.97c-1.222.4-3.175.072-5.8-1.919a.181.181,0,0,1-.042-.043.152.152,0,0,1,.043-.21c2.793-1.866,4.767-2.123,5.951-1.686a1.984,1.984,0,0,1,1.381,1.955,2.108,2.108,0,0,1-1.53,1.9m-5.453-2.038c2.446,1.809,4.242,2.115,5.358,1.748a1.81,1.81,0,0,0,1.322-1.624,1.686,1.686,0,0,0-1.181-1.658c-1.082-.4-2.9-.16-5.5,1.534" transform="translate(-7.397 -50.452)" fill="#003336"/>
    <path id="Trazado_63584" data-name="Trazado 63584" d="M49.252,105.73,36.853,99.2l.481-5.753a19.194,19.194,0,0,0-12.143,7c4.494,7.288,15.1,10.429,24.062,5.282" transform="translate(-3.642 -13.512)" fill="#6595bf" fill-rule="evenodd"/>
    <path id="Trazado_63585" data-name="Trazado 63585" d="M47.222,106.344l7.99-7.333.477-4.961c4.437.048,9.741,3.214,12.616,7.606-4.493,7.288-12.122,9.835-21.084,4.687" transform="translate(-6.828 -13.599)" fill="#6595bf" fill-rule="evenodd"/>
    <path id="Trazado_63586" data-name="Trazado 63586" d="M49.4,109.574c-1.667,16.439,5.943,41.342,2.488,47.438" transform="translate(-7.108 -15.844)" fill="none" stroke="#fff" stroke-linecap="round" stroke-linejoin="round" stroke-width="0.5"/>
    <path id="Trazado_63587" data-name="Trazado 63587" d="M55.947,109.447C57.34,133,66.85,140.915,67.693,154.756" transform="translate(-8.09 -15.825)" fill="none" stroke="#fff" stroke-linecap="round" stroke-linejoin="round" stroke-width="0.5"/>
    <path id="Trazado_63588" data-name="Trazado 63588" d="M137.929,112.922l6.6,2.636a1.277,1.277,0,0,1,.709,1.654l-5.582,13.963a1.276,1.276,0,0,1-1.654.71l-6.6-2.638a1.276,1.276,0,0,1-.71-1.654l5.582-13.964a1.275,1.275,0,0,1,1.653-.708" transform="translate(-18.884 -16.315)" fill="#fff" fill-rule="evenodd"/>
    <path id="Trazado_63589" data-name="Trazado 63589" d="M144.533,115.528l-6.6-2.637a1.306,1.306,0,0,0-1.69.725l-5.582,13.964a1.305,1.305,0,0,0,.725,1.69l6.6,2.637a1.306,1.306,0,0,0,1.691-.725l5.581-13.964a1.3,1.3,0,0,0-.725-1.69m-6.618-2.584,6.6,2.637a1.248,1.248,0,0,1,.694,1.617l-5.582,13.964a1.247,1.247,0,0,1-1.617.693l-6.6-2.637a1.247,1.247,0,0,1-.694-1.616l5.582-13.964a1.248,1.248,0,0,1,1.617-.694" transform="translate(-18.88 -16.31)" fill="#302b36"/>
    <path id="Trazado_63590" data-name="Trazado 63590" d="M137.374,112.7l6.6,2.637a1.276,1.276,0,0,1,.71,1.654L139.1,130.954a1.276,1.276,0,0,1-1.653.709l-6.6-2.637a1.276,1.276,0,0,1-.71-1.654l5.582-13.964a1.275,1.275,0,0,1,1.654-.709" transform="translate(-18.804 -16.282)" fill="#302b36" fill-rule="evenodd"/>
    <path id="Trazado_63591" data-name="Trazado 63591" d="M137.258,113.05l6.692,2.675a.865.865,0,0,1,.481,1.121l-5.635,14.1a.864.864,0,0,1-1.121.481l-6.692-2.675a.864.864,0,0,1-.481-1.121l5.635-14.1a.864.864,0,0,1,1.121-.481" transform="translate(-18.861 -16.337)" fill="#fff" fill-rule="evenodd"/>
    <path id="Trazado_63592" data-name="Trazado 63592" d="M141.17,113.774l2.05.819a.335.335,0,0,1,.186.435l-.131.328a.335.335,0,0,1-.435.186l-2.049-.819a.335.335,0,0,1-.187-.435l.131-.328a.336.336,0,0,1,.435-.186" transform="translate(-20.327 -16.447)" fill="#302b36" fill-rule="evenodd"/>
    <rect id="Rectángulo_25503" data-name="Rectángulo 25503" width="66.048" height="85.395" transform="translate(78.745 226.295)" fill="#3396c2"/>
    <rect id="Rectángulo_25504" data-name="Rectángulo 25504" width="68.756" height="13.287" transform="translate(76.037 213.008)" fill="#3396c2"/>
    <rect id="Rectángulo_25505" data-name="Rectángulo 25505" width="30.181" height="85.395" transform="translate(144.793 226.295)" fill="#2b7da6"/>
    <rect id="Rectángulo_25506" data-name="Rectángulo 25506" width="32.897" height="13.287" transform="translate(144.793 213.008)" fill="#2b7da6"/>
    <rect id="Rectángulo_25507" data-name="Rectángulo 25507" width="6.077" height="85.395" transform="translate(156.846 226.295)" fill="#fadbed"/>
    <rect id="Rectángulo_25508" data-name="Rectángulo 25508" width="6.715" height="13.287" transform="translate(157.884 213.008)" fill="#fadbed"/>
    <rect id="Rectángulo_25509" data-name="Rectángulo 25509" width="30.181" height="4.323" transform="translate(144.793 226.295)" fill="#003336"/>
    <rect id="Rectángulo_25510" data-name="Rectángulo 25510" width="6.077" height="4.323" transform="translate(156.846 226.295)" fill="#f7cce6"/>
    <rect id="Rectángulo_25511" data-name="Rectángulo 25511" width="66.048" height="4.323" transform="translate(78.745 226.295)" fill="#003336"/>
    <rect id="Rectángulo_25512" data-name="Rectángulo 25512" width="9.313" height="85.395" transform="translate(107.112 226.295)" fill="#fff"/>
    <rect id="Rectángulo_25513" data-name="Rectángulo 25513" width="9.313" height="4.323" transform="translate(107.112 226.295)" fill="#fadbed"/>
    <rect id="Rectángulo_25514" data-name="Rectángulo 25514" width="9.184" height="13.287" transform="translate(105.823 213.008)" fill="#fff"/>
    <path id="Trazado_63593" data-name="Trazado 63593" d="M180.066,240.713q-1.97-11.644-3.937-23.288a39.561,39.561,0,0,1-24.594,17.864l-1.576,7.461c13.935,2.717,25.48,3.352,30.107-2.037" transform="translate(-21.683 -31.438)" fill="#d9a171" fill-rule="evenodd"/>
    <path id="Trazado_63594" data-name="Trazado 63594" d="M152.194,238.11c-.219.057-.439.115-.66.17l-1.576,7.461.82.157a6.858,6.858,0,0,0,1.415-7.788" transform="translate(-21.683 -34.429)" fill="#d9a171" fill-rule="evenodd"/>
    <path id="Trazado_63595" data-name="Trazado 63595" d="M149.683,233.058c10.658-9.045,20.876-17.181,26.4-15.664-4.647,8.829-11.87,16.079-24.594,17.864l-1.811-2.2" transform="translate(-21.643 -31.407)" fill="#a66d58" fill-rule="evenodd"/>
    <path id="Trazado_63596" data-name="Trazado 63596" d="M106.323,240.713q1.968-11.644,3.938-23.288a39.555,39.555,0,0,0,24.593,17.864q.788,3.73,1.575,7.461c-13.934,2.717-25.479,3.352-30.106-2.037" transform="translate(-15.373 -31.438)" fill="#d9a171" fill-rule="evenodd"/>
    <path id="Trazado_63597" data-name="Trazado 63597" d="M138.014,237.9q.652.185,1.317.352l1.575,7.461q-.726.141-1.442.275a6.861,6.861,0,0,1-1.45-8.087" transform="translate(-19.851 -34.398)" fill="#a66d58" fill-rule="evenodd"/>
    <path id="Trazado_63598" data-name="Trazado 63598" d="M137.331,233.058c-10.659-9.045-20.876-17.181-26.4-15.664,4.454,8.894,12.129,16.014,24.594,17.864l1.811-2.2" transform="translate(-16.039 -31.407)" fill="#a66d58" fill-rule="evenodd"/>
    <path id="Trazado_63599" data-name="Trazado 63599" d="M144.234,234.1a6.321,6.321,0,1,0,6.321,6.321,6.321,6.321,0,0,0-6.321-6.321" transform="translate(-19.941 -33.85)" fill="#d9a171" fill-rule="evenodd"/>
    <path id="Trazado_63600" data-name="Trazado 63600" d="M187.29,38.536H299.918A20.227,20.227,0,0,1,320.085,58.7V297.093a20.228,20.228,0,0,1-20.167,20.169H187.29a20.229,20.229,0,0,1-20.17-20.169V58.7a20.228,20.228,0,0,1,20.17-20.168" transform="translate(-24.164 -5.572)" fill="#fff" fill-rule="evenodd"/>
    <path id="Rectángulo_25515" data-name="Rectángulo 25515" d="M23.578,0h105.81a23.577,23.577,0,0,1,23.577,23.577V255.148a23.578,23.578,0,0,1-23.578,23.578H23.578A23.578,23.578,0,0,1,0,255.148V23.578A23.578,23.578,0,0,1,23.578,0Z" transform="translate(142.956 32.964)" fill="none" stroke="#302b36" stroke-miterlimit="22.926" stroke-width="0.251"/>
    <path id="Trazado_63601" data-name="Trazado 63601" d="M177.808,38.536H290.436A20.228,20.228,0,0,1,310.6,58.7V297.093a20.228,20.228,0,0,1-20.168,20.169H177.808a20.229,20.229,0,0,1-20.169-20.169V58.7a20.228,20.228,0,0,1,20.169-20.168" transform="translate(-22.793 -5.572)" fill="#302b36" fill-rule="evenodd"/>
    <path id="Trazado_63602" data-name="Trazado 63602" d="M177.955,44.813H292.21a13.7,13.7,0,0,1,13.664,13.665V299.135A13.7,13.7,0,0,1,292.21,312.8H177.955a13.7,13.7,0,0,1-13.665-13.663V58.478a13.705,13.705,0,0,1,13.665-13.665" transform="translate(-23.755 -6.48)" fill="#fff" fill-rule="evenodd"/>
    <path id="Trazado_63603" data-name="Trazado 63603" d="M225.7,38.536h34.983A5.329,5.329,0,0,1,266,43.85v5.594a5.329,5.329,0,0,1-5.313,5.314H225.7a5.33,5.33,0,0,1-5.314-5.314V43.85a5.329,5.329,0,0,1,5.314-5.314" transform="translate(-31.867 -5.572)" fill="#302b36" fill-rule="evenodd"/>
    <path id="Trazado_63604" data-name="Trazado 63604" d="M181.964,97.849a15.411,15.411,0,0,1-15.33,14.89H163.6a15.211,15.211,0,0,1-15.1-14.89l16.041-1.365Z" transform="translate(-21.472 -13.951)" fill="#b28360" fill-rule="evenodd"/>
    <path id="Trazado_63605" data-name="Trazado 63605" d="M164.543,44.813,148.5,90.378H181.95l7.509-45.565Z" transform="translate(-21.472 -6.48)" fill="#d9a171" fill-rule="evenodd"/>
    <path id="Trazado_63606" data-name="Trazado 63606" d="M340.268,97.323a15.576,15.576,0,0,1-15.515,14.89h-3.029c-8.327,0-14.679-6.641-15.018-14.89L323.7,92.844Z" transform="translate(-44.347 -13.425)" fill="#b28360" fill-rule="evenodd"/>
    <path id="Trazado_63607" data-name="Trazado 63607" d="M305.466,90.378h33.448l-16.9-45.565H298.127Z" transform="translate(-43.107 -6.48)" fill="#d9a171" fill-rule="evenodd"/>
    <path id="Trazado_63608" data-name="Trazado 63608" d="M221.906,90.378H187.6l7.509-45.565h26.281Z" transform="translate(-27.126 -6.48)" fill="#f7f7f7" fill-rule="evenodd"/>
    <path id="Trazado_63609" data-name="Trazado 63609" d="M221.908,98.08a15.783,15.783,0,0,1-15.743,14.89h-3.029a15.576,15.576,0,0,1-15.515-14.89Z" transform="translate(-27.129 -14.182)" fill="#e8e8e8" fill-rule="evenodd"/>
    <path id="Trazado_63610" data-name="Trazado 63610" d="M227.617,90.378h33.277V44.813H227.1Z" transform="translate(-32.838 -6.48)" fill="#d9a171" fill-rule="evenodd"/>
    <path id="Trazado_63611" data-name="Trazado 63611" d="M261,98.08a15.185,15.185,0,0,1-15.074,14.89h-3.029A15.285,15.285,0,0,1,227.7,98.08Z" transform="translate(-32.924 -14.182)" fill="#b28360" fill-rule="evenodd"/>
    <path id="Trazado_63612" data-name="Trazado 63612" d="M300.908,90.378h-34.3V44.813H293.57Z" transform="translate(-38.549 -6.48)" fill="#f7f7f7" fill-rule="evenodd"/>
    <path id="Trazado_63613" data-name="Trazado 63613" d="M300.908,98.08a15.783,15.783,0,0,1-15.743,14.89h-3.029a15.59,15.59,0,0,1-15.53-14.89Z" transform="translate(-38.549 -14.182)" fill="#e8e8e8" fill-rule="evenodd"/>
    <path id="Trazado_63614" data-name="Trazado 63614" d="M267.181,142.246H215.963a6.81,6.81,0,0,0-6.791,6.79v31.43a6.811,6.811,0,0,0,6.791,6.79h17.975l7.635,15.715,7.693-15.715h17.917a6.81,6.81,0,0,0,6.791-6.79v-31.43a6.81,6.81,0,0,0-6.791-6.79" transform="translate(-30.245 -20.568)" fill="#8c5b4c" fill-rule="evenodd"/>
    <path id="Trazado_63615" data-name="Trazado 63615" d="M267.181,139.63H215.963a6.81,6.81,0,0,0-6.791,6.79v31.43a6.81,6.81,0,0,0,6.791,6.79h17.975l7.635,15.716,7.693-15.716h17.917a6.81,6.81,0,0,0,6.791-6.79V146.42a6.81,6.81,0,0,0-6.791-6.79" transform="translate(-30.245 -20.189)" fill="#a66d58" fill-rule="evenodd"/>
    <path id="Trazado_63616" data-name="Trazado 63616" d="M234.479,155.085h27.557L258.1,168.208H238.456Z" transform="translate(-33.904 -22.424)" fill="none" stroke="#fff" stroke-linecap="round" stroke-linejoin="round" stroke-width="1"/>
    <path id="Trazado_63617" data-name="Trazado 63617" d="M233.252,153.913l-2.1-6.93h-5.157" transform="translate(-32.677 -21.253)" fill="none" stroke="#fff" stroke-linecap="round" stroke-linejoin="round" stroke-width="1"/>
    <path id="Trazado_63618" data-name="Trazado 63618" d="M238.352,170.426h-2.566c-2.73,0-2.683,4.295,0,4.295h23.695l3.657,3.93" transform="translate(-33.799 -24.642)" fill="none" stroke="#fff" stroke-linecap="round" stroke-linejoin="round" stroke-width="1"/>
    <path id="Trazado_63619" data-name="Trazado 63619" d="M241.834,179.171a3.081,3.081,0,1,1-3.081,3.081A3.082,3.082,0,0,1,241.834,179.171Z" transform="translate(-34.522 -25.907)" fill="none" stroke="#fff" stroke-linecap="round" stroke-linejoin="round" stroke-width="1"/>
    <path id="Trazado_63620" data-name="Trazado 63620" d="M259.079,179.171A3.081,3.081,0,1,1,256,182.252,3.082,3.082,0,0,1,259.079,179.171Z" transform="translate(-37.015 -25.907)" fill="none" stroke="#fff" stroke-linecap="round" stroke-linejoin="round" stroke-width="1"/>
    <path id="Trazado_63621" data-name="Trazado 63621" d="M218.6,268.764h45.64a10.5,10.5,0,0,1,0,21H218.6a10.5,10.5,0,0,1,0-21" transform="translate(-30.09 -38.861)" fill="#57b3e0" fill-rule="evenodd"/>
    <path id="Trazado_63622" data-name="Trazado 63622" d="M203.279,247.9H274.51m-83.853-8.391h96.477" transform="translate(-27.568 -34.631)" fill="none" stroke="#302b36" stroke-miterlimit="22.926" stroke-width="0.251"/>
    <rect id="Rectángulo_25516" data-name="Rectángulo 25516" width="77.458" height="10.908" transform="translate(172.598 267.107)" fill="#e0e0e0"/>
    <path id="Trazado_63623" data-name="Trazado 63623" d="M377.359,268.748a6.469,6.469,0,0,1,6.45,6.45v4.523h-.724V275.2a5.726,5.726,0,0,0-11.452,0v4.523h-.724V275.2a6.469,6.469,0,0,1,6.45-6.45" transform="translate(-53.631 -38.859)" fill="#003336"/>
    <rect id="Rectángulo_25517" data-name="Rectángulo 25517" width="25.222" height="29.175" transform="translate(307.856 237.873)" fill="#57b3e0"/>
    <rect id="Rectángulo_25518" data-name="Rectángulo 25518" width="4.988" height="29.175" transform="translate(333.078 237.873)" fill="#3396c2"/>
    <path id="Trazado_63624" data-name="Trazado 63624" d="M367.357,280.448a.964.964,0,1,1-.964.964.964.964,0,0,1,.964-.964" transform="translate(-52.978 -40.551)" fill="#003336" fill-rule="evenodd"/>
    <path id="Trazado_63625" data-name="Trazado 63625" d="M381.591,280.448a.964.964,0,1,1-.964.964.964.964,0,0,1,.964-.964" transform="translate(-55.036 -40.551)" fill="#003336" fill-rule="evenodd"/>
    <path id="Trazado_63626" data-name="Trazado 63626" d="M373.547,268.748A6.468,6.468,0,0,1,380,275.2v4.523h-.723V275.2a5.727,5.727,0,0,0-11.453,0v4.523H367.1V275.2a6.466,6.466,0,0,1,6.449-6.45" transform="translate(-53.08 -38.859)" fill="#003336"/>
    <path id="Trazado_63627" data-name="Trazado 63627" d="M366.183,340.806A10.081,10.081,0,1,1,356.1,350.887a10.081,10.081,0,0,1,10.081-10.081" transform="translate(-51.49 -49.278)" fill="#302b36" fill-rule="evenodd"/>
    <path id="Trazado_63628" data-name="Trazado 63628" d="M422.613,340.806a10.081,10.081,0,1,1-10.081,10.081,10.081,10.081,0,0,1,10.081-10.081" transform="translate(-59.649 -49.278)" fill="#302b36" fill-rule="evenodd"/>
    <rect id="Rectángulo_25519" data-name="Rectángulo 25519" width="20.063" height="27.725" transform="translate(350.361 238.607)" fill="#57b3e0"/>
    <rect id="Rectángulo_25520" data-name="Rectángulo 25520" width="19.861" height="27.725" transform="translate(330.501 238.607)" fill="#3396c2"/>
    <rect id="Rectángulo_25521" data-name="Rectángulo 25521" width="3.439" height="3.03" transform="translate(351.798 242.336)" fill="#3396c2"/>
    <rect id="Rectángulo_25522" data-name="Rectángulo 25522" width="6.654" height="8.721" transform="translate(357.066 257.611)" fill="#3396c2"/>
    <rect id="Rectángulo_25523" data-name="Rectángulo 25523" width="17.707" height="22.894" transform="translate(346.994 215.713)" fill="#3396c2"/>
    <rect id="Rectángulo_25524" data-name="Rectángulo 25524" width="18.433" height="3.562" transform="translate(346.994 212.151)" fill="#3396c2"/>
    <rect id="Rectángulo_25525" data-name="Rectángulo 25525" width="8.091" height="22.894" transform="translate(338.903 215.713)" fill="#2b7da6"/>
    <rect id="Rectángulo_25526" data-name="Rectángulo 25526" width="8.82" height="3.562" transform="translate(338.174 212.151)" fill="#2b7da6"/>
    <rect id="Rectángulo_25527" data-name="Rectángulo 25527" width="1.629" height="22.894" transform="translate(342.134 215.713)" fill="#fadbed"/>
    <rect id="Rectángulo_25528" data-name="Rectángulo 25528" width="1.8" height="3.562" transform="translate(341.684 212.151)" fill="#fadbed"/>
    <rect id="Rectángulo_25529" data-name="Rectángulo 25529" width="8.091" height="1.158" transform="translate(338.903 215.713)" fill="#003336"/>
    <rect id="Rectángulo_25530" data-name="Rectángulo 25530" width="1.629" height="1.158" transform="translate(342.134 215.713)" fill="#f7cce6"/>
    <rect id="Rectángulo_25531" data-name="Rectángulo 25531" width="17.707" height="1.158" transform="translate(346.994 215.713)" fill="#003336"/>
    <rect id="Rectángulo_25532" data-name="Rectángulo 25532" width="2.496" height="22.894" transform="translate(354.599 215.713)" fill="#fff"/>
    <rect id="Rectángulo_25533" data-name="Rectángulo 25533" width="2.496" height="1.158" transform="translate(354.599 215.713)" fill="#fadbed"/>
    <rect id="Rectángulo_25534" data-name="Rectángulo 25534" width="2.462" height="3.562" transform="translate(354.98 212.151)" fill="#fff"/>
    <path id="Trazado_63629" data-name="Trazado 63629" d="M401.388,245.787q.527-3.122,1.056-6.244a10.612,10.612,0,0,0,6.594,4.79q.21,1,.423,2c-3.736.728-6.831.9-8.072-.547" transform="translate(-58.038 -34.636)" fill="#003336" fill-rule="evenodd"/>
    <path id="Trazado_63630" data-name="Trazado 63630" d="M410.095,245.089l.177.046q.21,1,.422,2l-.22.041a1.836,1.836,0,0,1-.379-2.087" transform="translate(-59.272 -35.438)" fill="#002e29" fill-rule="evenodd"/>
    <path id="Trazado_63631" data-name="Trazado 63631" d="M409.7,243.734c-2.858-2.425-5.6-4.606-7.079-4.2a8.408,8.408,0,0,0,6.594,4.789l.485-.59" transform="translate(-58.216 -34.628)" fill="#002e29" fill-rule="evenodd"/>
    <path id="Trazado_63632" data-name="Trazado 63632" d="M421.159,245.787q-.529-3.122-1.056-6.244a10.614,10.614,0,0,1-6.594,4.79q-.212,1-.423,2c3.736.728,6.83.9,8.072-.547" transform="translate(-59.729 -34.636)" fill="#003336" fill-rule="evenodd"/>
    <path id="Trazado_63633" data-name="Trazado 63633" d="M413.862,245.032c-.117.033-.233.064-.353.094q-.21,1-.422,2c.129.026.258.05.386.074a1.838,1.838,0,0,0,.389-2.168" transform="translate(-59.729 -35.43)" fill="#002e29" fill-rule="evenodd"/>
    <path id="Trazado_63634" data-name="Trazado 63634" d="M413.013,243.734c2.857-2.425,5.6-4.606,7.078-4.2a8.437,8.437,0,0,1-6.593,4.789c-.162-.2-.324-.393-.485-.59" transform="translate(-59.719 -34.628)" fill="#002e29" fill-rule="evenodd"/>
    <path id="Trazado_63635" data-name="Trazado 63635" d="M411.787,244.014a1.695,1.695,0,1,1-1.694,1.695,1.695,1.695,0,0,1,1.694-1.695" transform="translate(-59.296 -35.283)" fill="#003336" fill-rule="evenodd"/>
    <path id="Trazado_63636" data-name="Trazado 63636" d="M431.2,262.587H342.957l12.581,41.506h63.213Zm-89.209-1.432h90.17a.716.716,0,0,1,.673.96l-12.87,42.9a.715.715,0,0,1-.685.512H355.01a.717.717,0,0,1-.7-.572l-13-42.875a.714.714,0,0,1,.476-.89.728.728,0,0,1,.207-.031Z" transform="translate(-49.347 -37.761)" fill="#1c2e36"/>
    <path id="Trazado_63637" data-name="Trazado 63637" d="M338.662,257.831a.713.713,0,0,1-1.365.414l-6.719-22.168H314.229a.716.716,0,1,1,0-1.431h16.876v0a.714.714,0,0,1,.683.507Z" transform="translate(-45.332 -33.928)" fill="#302b36"/>
    <path id="Trazado_63638" data-name="Trazado 63638" d="M354.669,311.351a.716.716,0,0,1,0,1.433h-8.395a5.552,5.552,0,0,0-5.457,3.661,7.312,7.312,0,0,0-.473,2.618,7.4,7.4,0,0,0,.479,2.621,5.585,5.585,0,0,0,5.451,3.723h77.532a.714.714,0,0,1,.553.263L436.3,338.492a.715.715,0,1,1-1.046.973L423.5,326.838H346.274a6.962,6.962,0,0,1-6.788-4.643,8.847,8.847,0,0,1-.568-3.132,8.735,8.735,0,0,1,.562-3.128,6.924,6.924,0,0,1,6.794-4.584Z" transform="translate(-49.005 -45.019)" fill="#302b36"/>
    <path id="Trazado_63639" data-name="Trazado 63639" d="M347.385,280.372a.716.716,0,0,1,0-1.433h81a.716.716,0,0,1,0,1.433Z" transform="translate(-50.126 -40.332)" fill="#1c2e36"/>
    <path id="Trazado_63640" data-name="Trazado 63640" d="M352.464,297.127a.716.716,0,1,1,0-1.432h72.35a.716.716,0,1,1,0,1.432Z" transform="translate(-50.86 -42.755)" fill="#302b36"/>
    <path id="Trazado_63641" data-name="Trazado 63641" d="M370.815,152.7h39.616a5.354,5.354,0,0,0,5.337-5.337V135.137a5.352,5.352,0,0,0-5.337-5.337H367.615c-5.52,0-11.951,3.972-11.951,9.383v21.954c3.444-4.779,9.44-8.435,15.151-8.435" transform="translate(-51.426 -18.768)" fill="#57b3e0" fill-rule="evenodd"/>
    <path id="Trazado_63642" data-name="Trazado 63642" d="M412.906,150.974H373.289a16.836,16.836,0,0,0-8.068,2.268,21.3,21.3,0,0,0-6.818,6.018.309.309,0,0,1-.574-.159V137.147a8.623,8.623,0,0,1,3.653-6.684,14.462,14.462,0,0,1,8.607-3.008h42.817a5.66,5.66,0,0,1,5.645,5.644v12.229a5.662,5.662,0,0,1-5.645,5.646m-39.617-.618h39.617a5.045,5.045,0,0,0,5.027-5.028V133.1a5.044,5.044,0,0,0-5.027-5.027H370.089a13.816,13.816,0,0,0-8.226,2.877,8.023,8.023,0,0,0-3.416,6.2v21.036a22.092,22.092,0,0,1,6.476-5.479,17.431,17.431,0,0,1,8.367-2.348" transform="translate(-51.739 -18.429)" fill="#1c2e36"/>
    <path id="Trazado_63643" data-name="Trazado 63643" d="M411.463,138.772l-1.147,2.245-2.553.444,1.781,1.784-.368,2.565,2.248-1.142,2.325,1.142-.392-2.491,1.8-1.858-2.489-.4Z" transform="translate(-58.959 -20.065)" fill="#fff" fill-rule="evenodd"/>
    <path id="Trazado_63644" data-name="Trazado 63644" d="M400.961,138.772l-1.147,2.245-2.553.444,1.781,1.784-.368,2.565,2.248-1.142,2.325,1.142-.392-2.491,1.8-1.858-2.489-.4Z" transform="translate(-57.441 -20.065)" fill="#fff" fill-rule="evenodd"/>
    <path id="Trazado_63645" data-name="Trazado 63645" d="M390.46,138.772l-1.147,2.245-2.553.444,1.781,1.784-.367,2.565,2.247-1.142,2.325,1.142-.391-2.491,1.8-1.858-2.49-.4Z" transform="translate(-55.922 -20.065)" fill="#fff" fill-rule="evenodd"/>
    <path id="Trazado_63646" data-name="Trazado 63646" d="M379.959,138.772l-1.147,2.245-2.553.444,1.78,1.784-.367,2.565,2.247-1.142,2.326,1.142-.392-2.491,1.8-1.858-2.489-.4Z" transform="translate(-54.404 -20.065)" fill="#fff" fill-rule="evenodd"/>
    <path id="Trazado_63647" data-name="Trazado 63647" d="M369.457,138.772l-1.147,2.245-2.553.444,1.78,1.784-.367,2.565,2.248-1.142,2.325,1.142-.392-2.491,1.8-1.858-2.489-.4Z" transform="translate(-52.886 -20.065)" fill="#fff" fill-rule="evenodd"/>
    <path id="Trazado_63648" data-name="Trazado 63648" d="M342.55,32.527a3.322,3.322,0,1,1-3.322,3.322,3.322,3.322,0,0,1,3.322-3.322m46.112,9.1V30.067h8.35v1.357H390.2v3.553h6.38v1.357H390.2v3.942h7.09v1.357Zm-9.649,0V30.067h1.535V40.276h5.685v1.357ZM369.8,36.883h3.941l-1.206-3.206q-.544-1.461-.829-2.415a16.32,16.32,0,0,1-.638,2.227Zm-3.327,4.749L370.9,30.067h1.683L377.3,41.632h-1.742l-1.338-3.5h-4.871l-1.255,3.5Zm-10.575-3.715,1.438-.129a3.191,3.191,0,0,0,.476,1.432,2.625,2.625,0,0,0,1.163.9,4.379,4.379,0,0,0,1.774.345,4.227,4.227,0,0,0,1.546-.26,2.145,2.145,0,0,0,1-.719,1.67,1.67,0,0,0,.328-.991,1.507,1.507,0,0,0-.315-.948,2.37,2.37,0,0,0-1.042-.682c-.31-.117-1-.306-2.06-.562a10.5,10.5,0,0,1-2.232-.722,3.125,3.125,0,0,1-1.23-1.079,2.641,2.641,0,0,1-.406-1.441,2.942,2.942,0,0,1,.5-1.64,3.077,3.077,0,0,1,1.451-1.157,5.494,5.494,0,0,1,2.121-.4,5.774,5.774,0,0,1,2.267.415,3.251,3.251,0,0,1,1.511,1.22,3.506,3.506,0,0,1,.568,1.822l-1.47.114a2.358,2.358,0,0,0-.8-1.654,3.113,3.113,0,0,0-2.016-.559,3.233,3.233,0,0,0-2.025.509,1.527,1.527,0,0,0-.636,1.227,1.321,1.321,0,0,0,.45,1.026,6.129,6.129,0,0,0,2.307.824,15.493,15.493,0,0,1,2.56.737A3.5,3.5,0,0,1,364.6,36.73a2.854,2.854,0,0,1,.479,1.64,3.13,3.13,0,0,1-.527,1.736,3.48,3.48,0,0,1-1.516,1.268,5.285,5.285,0,0,1-2.227.453,6.628,6.628,0,0,1-2.624-.458,3.651,3.651,0,0,1-1.661-1.375,3.885,3.885,0,0,1-.636-2.076m-8.621-17.446h56.479c2.335,0,3.783-.488,3.783,1.7V49.68c0,1.868-1.215,1.566-3.083,1.566H347.914c-2.5,0-2.035.346-3.818-1.365L332.054,38.316c-2.436-2.34-2.159-2.839.3-5.2l12.185-11.7c1.258-1.21.964-.943,2.736-.943" transform="translate(-47.768 -2.953)" fill="#57b3e0" fill-rule="evenodd"/>
    <path id="Trazado_63649" data-name="Trazado 63649" d="M344.048,41.218a3.325,3.325,0,1,0-3.322-3.322,3.322,3.322,0,0,0,3.322,3.322" transform="translate(-49.266 -4.999)" fill="#fff" fill-rule="evenodd"/>
    <path id="Trazado_63650" data-name="Trazado 63650" d="M368.92,38.327a3.5,3.5,0,0,0-1.488-1.177,15.493,15.493,0,0,0-2.56-.737,6.125,6.125,0,0,1-2.307-.825,1.321,1.321,0,0,1-.45-1.026,1.525,1.525,0,0,1,.636-1.227,3.231,3.231,0,0,1,2.024-.51,3.114,3.114,0,0,1,2.017.56,2.354,2.354,0,0,1,.8,1.653l1.47-.113a3.512,3.512,0,0,0-.568-1.823,3.259,3.259,0,0,0-1.511-1.219,5.774,5.774,0,0,0-2.267-.415,5.475,5.475,0,0,0-2.121.4,3.068,3.068,0,0,0-1.451,1.157,2.94,2.94,0,0,0-.5,1.64,2.631,2.631,0,0,0,.406,1.44,3.134,3.134,0,0,0,1.23,1.08,10.481,10.481,0,0,0,2.232.722q1.595.384,2.06.562a2.361,2.361,0,0,1,1.041.682,1.5,1.5,0,0,1,.316.947,1.678,1.678,0,0,1-.328.991,2.142,2.142,0,0,1-1,.719,4.207,4.207,0,0,1-1.545.261,4.394,4.394,0,0,1-1.774-.345,2.626,2.626,0,0,1-1.163-.9,3.2,3.2,0,0,1-.476-1.433l-1.439.13a3.88,3.88,0,0,0,.636,2.075,3.655,3.655,0,0,0,1.66,1.376,6.649,6.649,0,0,0,2.624.458,5.294,5.294,0,0,0,2.227-.453,3.471,3.471,0,0,0,1.516-1.269,3.126,3.126,0,0,0,.528-1.736,2.852,2.852,0,0,0-.479-1.64" transform="translate(-52.083 -4.55)" fill="#fff" fill-rule="evenodd"/>
    <path id="Trazado_63651" data-name="Trazado 63651" d="M375.9,38.513l1.269-3.394a16.4,16.4,0,0,0,.638-2.227q.286.955.829,2.416l1.206,3.205Zm7.5,4.749L378.69,31.7h-1.683l-4.436,11.565h1.623l1.255-3.5h4.87l1.338,3.5Z" transform="translate(-53.871 -4.583)" fill="#fff" fill-rule="evenodd"/>
    <path id="Trazado_63652" data-name="Trazado 63652" d="M388.771,41.905V31.7h-1.535V43.262h7.22V41.905Z" transform="translate(-55.991 -4.583)" fill="#fff" fill-rule="evenodd"/>
    <path id="Trazado_63653" data-name="Trazado 63653" d="M406.43,37.964V36.607H400.05V33.054h6.817V31.7h-8.351V43.262h8.626V41.9H400.05V37.964Z" transform="translate(-57.622 -4.583)" fill="#fff" fill-rule="evenodd"/>
    <path id="Trazado_63654" data-name="Trazado 63654" d="M323.352,14.6q.5-.742,1-1.488c.6-.908,1.192-1.837,1.7-2.795a13.95,13.95,0,0,0,1.467-3.933,6.924,6.924,0,0,0,0-2.868,2.934,2.934,0,0,0-2.3-2.433,2.961,2.961,0,0,0-2.84,2c-1.074,2.311-.673,5.545-.1,7.928a33.923,33.923,0,0,0,1.075,3.591m-.248,2.255-.11.163a88.629,88.629,0,0,0-4.79,7.654,34.38,34.38,0,0,0-2.658,6.143,18.3,18.3,0,0,0-.892,6.22c.379,8.234,7.818,12.975,14.676,15.859L329.6,53a1.179,1.179,0,1,1-.467.958l-.217-.092c-7.28-3.062-14.926-8.091-15.326-16.792a19.357,19.357,0,0,1,.938-6.582,35.344,35.344,0,0,1,2.739-6.335,89.623,89.623,0,0,1,4.846-7.747l.506-.742a34.543,34.543,0,0,1-1.377-4.417c-.638-2.648-1.021-6.068.168-8.626A3.98,3.98,0,0,1,325.338.022a3.962,3.962,0,0,1,3.216,3.241,7.987,7.987,0,0,1,.014,3.315,15.007,15.007,0,0,1-1.576,4.239c-.529.986-1.139,1.943-1.754,2.877-.467.708-.943,1.411-1.421,2.111a30.606,30.606,0,0,0,13.611,15.147,3.311,3.311,0,0,0-.478.953A31.752,31.752,0,0,1,323.1,16.851" transform="translate(-45.34 0)" fill="#4d4d4d" fill-rule="evenodd"/>
    <rect id="Rectángulo_25535" data-name="Rectángulo 25535" width="415.981" height="0.895" transform="translate(2.009 311.69)" fill="#1c2e36"/>
  </g>
</svg>
