<svg xmlns="http://www.w3.org/2000/svg" width="108" height="108" viewBox="0 0 108 108">
  <g id="Grupo_70457" data-name="Grupo 70457" transform="translate(-1225.75 -8318.995)">
    <circle id="Elipse_3960" data-name="Elipse 3960" cx="54" cy="54" r="54" transform="translate(1225.75 8318.995)" fill="#5e6178"/>
    <g id="Grupo_63436" data-name="Grupo 63436" transform="translate(880.285 8212.738)">
      <path id="Trazado_100823" data-name="Trazado 100823" d="M431.583,168.272H363.23a1.886,1.886,0,0,1-1.883-1.884v-1.554a1.883,1.883,0,0,1,1.883-1.881h68.353a1.883,1.883,0,0,1,1.883,1.881v1.554A1.886,1.886,0,0,1,431.583,168.272Zm-68.343-3.426v1.541l68.343-.01-.011-1.545Z" transform="translate(0 24.268)" fill="#fff"/>
      <path id="Trazado_100824" data-name="Trazado 100824" d="M377.436,166.574H366.46a1.53,1.53,0,0,1-1.529-1.529V154.174a1.531,1.531,0,0,1,1.529-1.53l10.976,0a1.534,1.534,0,0,1,1.532,1.527v10.877A1.532,1.532,0,0,1,377.436,166.574Zm-10.611-1.894h10.249V154.534l-10.249,0Z" transform="translate(2.159 18.058)" fill="#fff"/>
      <path id="Trazado_100825" data-name="Trazado 100825" d="M387.409,170.211H376.424a1.531,1.531,0,0,1-1.529-1.529v-20.55a1.53,1.53,0,0,1,1.529-1.529h10.986a1.53,1.53,0,0,1,1.529,1.529v20.55A1.531,1.531,0,0,1,387.409,170.211Zm-10.62-1.894h10.257V148.5H376.789Zm10.62-19.819h0Z" transform="translate(8.161 14.421)" fill="#fff"/>
      <path id="Trazado_100826" data-name="Trazado 100826" d="M397.445,173.722H386.461a1.531,1.531,0,0,1-1.529-1.529V142.3a1.531,1.531,0,0,1,1.529-1.529h10.984a1.53,1.53,0,0,1,1.527,1.529v29.89A1.53,1.53,0,0,1,397.445,173.722Zm-10.619-1.894h10.252v-29.16H386.826Zm10.619-29.16h0Z" transform="translate(14.206 10.91)" fill="#fff"/>
      <path id="Trazado_100827" data-name="Trazado 100827" d="M407.68,177.936H396.7a1.53,1.53,0,0,1-1.529-1.529v-41.1a1.53,1.53,0,0,1,1.529-1.527H407.68a1.53,1.53,0,0,1,1.527,1.527v41.1A1.53,1.53,0,0,1,407.68,177.936Zm-10.617-1.894h10.25V135.674h-10.25Zm10.617-40.368h0Z" transform="translate(20.373 6.696)" fill="#fff"/>
      <path id="Trazado_100828" data-name="Trazado 100828" d="M367.387,162.919a2.591,2.591,0,0,1-.9-5.022l24.977-9.18.814-9.552a2.576,2.576,0,0,1,1.533-2.155l21.479-9.467-4.753-3.145a.947.947,0,0,1,.628-1.731l15.524,1.743a.948.948,0,0,1,.655,1.5l-9.273,12.575a.947.947,0,0,1-1.694-.729l.981-5.47-20.05,8.839-.824,9.669a2.593,2.593,0,0,1-1.687,2.214l-26.522,9.747A2.633,2.633,0,0,1,367.387,162.919Zm47.478-37.929,2.921,1.932a.946.946,0,0,1-.141,1.655l-23.066,10.165a.686.686,0,0,0-.41.575v0l-.867,10.156a.944.944,0,0,1-.617.808l-25.54,9.388a.7.7,0,1,0,.484,1.307l26.52-9.745a.7.7,0,0,0,.454-.6l.87-10.229a.95.95,0,0,1,.562-.787l22.193-9.782a.946.946,0,0,1,1.314,1.034l-.578,3.221,5.889-7.985Zm-21.64,14.251h0Z" transform="translate(2.078 0)" fill="#fff"/>
    </g>
  </g>
</svg>
