<svg id="Grupo_25190" data-name="Grupo 25190" xmlns="http://www.w3.org/2000/svg" xmlns:xlink="http://www.w3.org/1999/xlink" width="159" height="156.457" viewBox="0 0 159 156.457">
  <defs>
    <clipPath id="clip-path">
      <rect id="Rectángulo_25970" data-name="Rectángulo 25970" width="159" height="156.457" fill="none"/>
    </clipPath>
  </defs>
  <g id="Grupo_25189" data-name="Grupo 25189" clip-path="url(#clip-path)">
    <path id="Trazado_66308" data-name="Trazado 66308" d="M567.6,64.339a2.092,2.092,0,0,1-2.091,2.092h-1.394v4.881l-4.881-4.881H543.2a2.09,2.09,0,0,1-2.09-2.092V46.91a2.09,2.09,0,0,1,2.09-2.092h22.311A2.092,2.092,0,0,1,567.6,46.91Z" transform="translate(-427.979 -35.448)" fill="#d4edff"/>
    <rect id="Rectángulo_25966" data-name="Rectángulo 25966" width="18.127" height="1.394" transform="translate(117.315 15.645)" fill="#8dcfff"/>
    <rect id="Rectángulo_25967" data-name="Rectángulo 25967" width="18.127" height="1.395" transform="translate(117.315 19.13)" fill="#8dcfff"/>
    <rect id="Rectángulo_25968" data-name="Rectángulo 25968" width="18.127" height="1.395" transform="translate(117.315 22.616)" fill="#8dcfff"/>
    <path id="Trazado_66309" data-name="Trazado 66309" d="M204.018,651.765c.174.233.044.847.044.847a18.767,18.767,0,0,1-4.053.134,4.958,4.958,0,0,1-1.1-.561c-.069-.044-.189-.3-.256-.344-.124-.08-.189.054-.293-.018a3.282,3.282,0,0,1-.468-.354,3.5,3.5,0,0,1,.1-2.164s2.613-.961,3.1-.3a21.263,21.263,0,0,0,2.923,2.758" transform="translate(-156.446 -513.132)" fill="#163f59"/>
    <path id="Trazado_66310" data-name="Trazado 66310" d="M304.8,646.786l.454,2.494h1.2s.134-.354.339-.354c.174,0,.4.354.632.354h6.167s.11-.525-.024-.705a2.293,2.293,0,0,0-.745-.334c-1.251-.369-4.836-1.523-5.459-2.779-.759-1.527-2.56,1.324-2.56,1.324" transform="translate(-241.074 -510.157)" fill="#163f59"/>
    <path id="Trazado_66311" data-name="Trazado 66311" d="M214.16,371.8l-2.556-1.422-.3-.318.355-.568.561.069-.1-1.664,2.677-.477,1.372-.641L214.9,371.3" transform="translate(-167.124 -290.098)" fill="#e9d6b8"/>
    <path id="Trazado_66312" data-name="Trazado 66312" d="M279.962,182.84s-2.865,3.155,5.954,11.486,10.427,5.892,10.427,5.892l2.664-1.773,1.977-9.27-4.258-.987-.462.546a1.614,1.614,0,0,1-1.376-.561,76.377,76.377,0,0,1-7.592-8.258c-1.944-2.5-6.788,2.314-7.336,2.925" transform="translate(-221.078 -141.736)" fill="#d4edff"/>
    <path id="Trazado_66313" data-name="Trazado 66313" d="M364.106,189.4s8.895-.162,9.6-9.422c.21-2.752.916-.09,1.4,2.539s-1.139,10.038-5.892,13.015-6.782,3.708-8.618,2.493,3.506-8.625,3.506-8.625" transform="translate(-284.903 -141.428)" fill="#e9d6b8"/>
    <path id="Trazado_66314" data-name="Trazado 66314" d="M284.48,525.251s-1.381,2-2.4.129c-2.342-4.316-5.821-14.977-5.938-19.83a49.721,49.721,0,0,1,1.011-11.8l7.414-2.42Z" transform="translate(-218.397 -388.609)" fill="#163f59"/>
    <path id="Trazado_66315" data-name="Trazado 66315" d="M273.062,336.1l.337,31.884-6.74,3.723a45.925,45.925,0,0,1-4.55-17.318c-.215-4.124-.32-13.37,1.986-16.515,3.125-4.261,8.967-1.774,8.967-1.774" transform="translate(-207.225 -265.263)" fill="#163f59"/>
    <path id="Trazado_66316" data-name="Trazado 66316" d="M219.97,335.163l-1.1,11.037-2.994,11.971-3.188,11.188L201.3,400.416l-3.313.27s.418-23.313,4.461-30.111c2.14-3.6,2.138-11.581,3.127-20.179.178-1.548-.7-5.046-.559-6.459a23.028,23.028,0,0,1,3.427-9.744Z" transform="translate(-156.592 -264.321)" fill="#194866"/>
    <path id="Trazado_66317" data-name="Trazado 66317" d="M232.606,211.968l-14.6-.324-6.235-20.878s-4.044-12.624,3.706-12.786,16.684-.162,16.684-.162,6.4,11.775.447,34.15" transform="translate(-166.66 -140.641)" fill="#d4edff"/>
    <path id="Trazado_66318" data-name="Trazado 66318" d="M167.171,311.984l9.247,11.255s-.333,1.639-1.076.768c-.09-.1.359-.435-.205-.743-2.272-1.239-7.608-3.149-9.582-5.057a32.919,32.919,0,0,1-4.446-5.461Z" transform="translate(-127.424 -246.756)" fill="#e9d6b8"/>
    <path id="Trazado_66319" data-name="Trazado 66319" d="M277.475,191.844s6.795,13.436,4.865,28.3a3.421,3.421,0,0,1-1.368,2.009l-1.673-1.675s.134-16.828-1.824-28.639" transform="translate(-219.462 -151.734)" fill="#387bff"/>
    <path id="Trazado_66320" data-name="Trazado 66320" d="M258.122,181.793l-.37,2.588-4.439-4.2v-.647Z" transform="translate(-200.352 -141.994)" fill="#acd4f8"/>
    <path id="Trazado_66321" data-name="Trazado 66321" d="M278.49,182.37l.778,3.367-1.97-1.7Z" transform="translate(-219.322 -144.241)" fill="#acd4f8"/>
    <path id="Trazado_66322" data-name="Trazado 66322" d="M345.978,226.027l1.158-2.093.511-.811a1.744,1.744,0,0,0,1.183.35l-1.154,1.4-1.058,1.9-.6,2.89Z" transform="translate(-273.643 -176.474)" fill="#acd4f8"/>
    <path id="Trazado_66323" data-name="Trazado 66323" d="M163.967,191.123l-5.079,14.626-1.1.437.613.972-6.263,1.089-2.751-4.779,7.314-19.851a13.033,13.033,0,0,1,9.126-4.864c4.567-.5-1.494,11.153-1.859,12.371" transform="translate(-118.153 -141.367)" fill="#d4edff"/>
    <path id="Trazado_66324" data-name="Trazado 66324" d="M160.719,303.66s4.271.8,6.513,1.14l-.48.192.613.972-2.169.359-3.158.071-.493-1.169.922-.231Z" transform="translate(-127.117 -240.172)" fill="#b0bfde"/>
    <path id="Trazado_66325" data-name="Trazado 66325" d="M250.688,164.564a16.334,16.334,0,0,0,.786,2.771c.5,1.133,4.886,2.589,5.56,2.751s-.169-3.4-.169-4.208c0-.617-.4-.426.081-1.314Z" transform="translate(-198.275 -130.158)" fill="#e9d6b8"/>
    <path id="Trazado_66326" data-name="Trazado 66326" d="M250.48,120.23a1.273,1.273,0,0,1-1.054,1.458l-5.651.906a1.271,1.271,0,0,1-1.457-1.054l-1.342-8.371a1.271,1.271,0,0,1,1.054-1.457l5.65-.907a1.272,1.272,0,0,1,1.457,1.054Z" transform="translate(-190.581 -87.625)" fill="#e9d6b8"/>
    <path id="Trazado_66327" data-name="Trazado 66327" d="M275.891,113a4.864,4.864,0,0,0,.688-1.452,1.894,1.894,0,0,0-1.053-1.441c-.687-.266-1.1.5-1.1.5s1.092.4,1.179.6.288,1.8.288,1.8" transform="translate(-217.05 -87.044)" fill="#163f59"/>
    <path id="Trazado_66328" data-name="Trazado 66328" d="M236.01,105.672a18.884,18.884,0,0,1-1.365-4.048c.006-.967.006-1.637,1.139-1.927,1.7-.433,1.778-.071,2.531-.728a25.805,25.805,0,0,1,2.553-2.368,1.749,1.749,0,0,1,2.54,1.337,1.82,1.82,0,0,0,1.02,1.411c-.044.158-.337.345-.841.707a4.825,4.825,0,0,1-3.613,1.224c-1.254-.121-3.6-.441-3.723.49s.422,3.635.352,3.861-.359.165-.593.042" transform="translate(-185.587 -76.27)" fill="#194866"/>
    <path id="Trazado_66329" data-name="Trazado 66329" d="M242.449,141.48a.424.424,0,0,1-.351.486l-1.221.2a.424.424,0,0,1-.486-.352l-.358-2.232a.425.425,0,0,1,.351-.485l1.221-.2a.423.423,0,0,1,.485.351Z" transform="translate(-189.844 -109.852)" fill="#e9d6b8"/>
    <path id="Trazado_66330" data-name="Trazado 66330" d="M277.273,135.893a.422.422,0,0,1-.351.485l-1.221.2a.424.424,0,0,1-.486-.352l-.357-2.231a.424.424,0,0,1,.351-.487l1.221-.2a.424.424,0,0,1,.486.351Z" transform="translate(-217.388 -105.433)" fill="#e9d6b8"/>
    <path id="Trazado_66331" data-name="Trazado 66331" d="M244.322,143.72s.529,3.3.705,4.394c.159.994.9,3.11,6.516,2.21,3.323-.534,2.809-2.956,2.68-3.757a7.217,7.217,0,0,0-1.489-2.623c-.013-.009.218,1.36.218,1.36a2.688,2.688,0,0,0-2.482-.961c-2.548.409-2.887,1.993-4.015,2.147-.866.118-1.741-1.187-2.133-2.77" transform="translate(-193.24 -113.672)" fill="#194866"/>
    <path id="Trazado_66332" data-name="Trazado 66332" d="M268.389,154.028l1.744-.279a.423.423,0,0,0,.351-.486l-.039-.244-2.58.414.039.244a.422.422,0,0,0,.485.351" transform="translate(-211.86 -121.027)" fill="#e9d6b8"/>
    <path id="Trazado_66333" data-name="Trazado 66333" d="M422.107,163.593s-.841-2.845-.406-3.557,2.188-3.194,2.188-3.194l.5-.59s.909.235-.285,1.891-.2,1.191-.2,1.191l1.612-1.057,2.073-1.13.858-.627s.463-.4.648-.388c.534.021.321.452.321.452l-3.148,2.743,3.543-1.681s.487-.134.64.1,0,.3,0,.3l-3.594,2.917,1.919-.646s.48-.119.64.1c.174.238.227.3.227.3L422.57,164.3Z" transform="translate(-333.435 -123.489)" fill="#e9d6b8"/>
    <path id="Trazado_66334" data-name="Trazado 66334" d="M446.4,169.248l2.557-1.027a2.105,2.105,0,0,1,.883-.265.383.383,0,0,1,.366.4l-3.715,1.955Z" transform="translate(-353.069 -132.838)" fill="#e9d6b8"/>
    <path id="Trazado_66335" data-name="Trazado 66335" d="M235.543,647.867l1.75,9.5,6.027,1.553,3.208.1s-5.874-2.525-7.032-3.823c-1.756-1.966-1.265-9.763-1.265-9.763Z" transform="translate(-186.297 -510.493)" fill="#e9d6b8"/>
    <path id="Trazado_66336" data-name="Trazado 66336" d="M242.749,700.716l1.264.1.68-.877,5.346,1.58,3.4.268a2.839,2.839,0,0,0-.461-.706,19.088,19.088,0,0,0-3.087-1.433s.048.778-.34.875a28.537,28.537,0,0,1-4.958-1.265c-1.505-.585-1.853-1.054-1.944-.971-.243.219.1,2.428.1,2.428" transform="translate(-191.851 -552.286)" fill="#161711"/>
    <path id="Trazado_66337" data-name="Trazado 66337" d="M184.5,356.268l3.084,31.845,3.507,30.468-4.651.579s-5.759-30.6-6.4-33.238-7.134-23.757-4.8-29.327,9.263-.327,9.263-.327" transform="translate(-138.204 -280.013)" fill="#163f59"/>
    <path id="Trazado_66338" data-name="Trazado 66338" d="M155.219,650.205l.485,10.11,6.029,1.556,3.207.1s-5.707-2.37-6.6-3.859c-1.194-1.977,0-8.639,0-8.639Z" transform="translate(-122.767 -513.682)" fill="#e9d6b8"/>
    <path id="Trazado_66339" data-name="Trazado 66339" d="M156.379,699.551l1.264.1.68-.874,4.837,1.363,4.107.193a.734.734,0,0,0-.17-.46,18.1,18.1,0,0,0-3.623-1.436s.122.922-.266,1.022a30.323,30.323,0,0,1-4.982-1.362c-1.506-.586-1.853-1.056-1.944-.973-.244.218.1,2.431.1,2.431" transform="translate(-123.538 -551.362)" fill="#161711"/>
    <path id="Trazado_66340" data-name="Trazado 66340" d="M150.217,351.818l.875,27.852s-1.157,7.554-1.25,10.07c-.211,5.67.031,22.681.031,22.681l5.035.2s3.547-30.748,4-33.413,5.607-24.085,2.632-29.415-11.328,2.021-11.328,2.021" transform="translate(-118.445 -275.13)" fill="#194866"/>
    <path id="Trazado_66341" data-name="Trazado 66341" d="M128.327,204.923a7.507,7.507,0,1,1-7.506-7.35,7.429,7.429,0,0,1,7.506,7.35" transform="translate(-89.624 -156.265)" fill="#194866"/>
    <path id="Trazado_66342" data-name="Trazado 66342" d="M165.493,123.047a5.4,5.4,0,0,1-5.406,5.4l-1.351-2.568a5.4,5.4,0,0,1-5.4-5.4v-2.026a5.4,5.4,0,0,1,5.4-5.4h1.351a5.405,5.405,0,0,1,5.406,5.4Z" transform="translate(-121.275 -89.412)" fill="#194866"/>
    <path id="Trazado_66343" data-name="Trazado 66343" d="M153.333,120.478v-2.026a5.4,5.4,0,0,1,5.4-5.4h1.351a5.368,5.368,0,0,1,3.279,1.116,12.1,12.1,0,0,1-.279,3.688c-.9,3.937-3.544,6.867-6.478,7.6a5.405,5.405,0,0,1-3.277-4.97" transform="translate(-121.275 -89.412)" fill="#194866"/>
    <path id="Trazado_66344" data-name="Trazado 66344" d="M130.306,159.355a7.189,7.189,0,1,1-7.188-7.037,7.114,7.114,0,0,1,7.188,7.037" transform="translate(-91.693 -120.472)" fill="#194866"/>
    <path id="Trazado_66345" data-name="Trazado 66345" d="M134.92,203.423a7.408,7.408,0,1,1-7.407-7.252,7.33,7.33,0,0,1,7.407,7.252" transform="translate(-94.996 -155.157)" fill="#163f59"/>
    <path id="Trazado_66346" data-name="Trazado 66346" d="M137.719,161.409c2.671-1.81,5.777-1.888,6.938-.177s-.065,4.568-2.738,6.377-5.779,1.89-6.937.178.065-4.567,2.737-6.378" transform="translate(-106.414 -126.547)" fill="#163f59"/>
    <path id="Trazado_66347" data-name="Trazado 66347" d="M171.264,122.868a10.5,10.5,0,0,1-.129,1.522c-.546,3.47-2.654,6.1-4.961,6.429a16.43,16.43,0,0,1-.765,4.186,8.23,8.23,0,0,1-2.034,2.816c-.391,2.422,7.858,5.98,7.663,5.59a23.711,23.711,0,0,1-2.893-5.866,5.328,5.328,0,0,1,.829-4.367,4.419,4.419,0,0,1,3.159-1.495.623.623,0,0,0,.455-.2,3.837,3.837,0,0,0,.17-1.13V125.9a3.817,3.817,0,0,0-1.494-3.029" transform="translate(-129.207 -97.179)" fill="#e9d6b8"/>
    <path id="Trazado_66348" data-name="Trazado 66348" d="M190.4,241.926l3.87.992s-2.521-11.005-3.226-15.305-.626-5.708-.391-7.038.859-2.892,0-4.379-2.2-3.949-2.736-4.144a6.616,6.616,0,0,1-2.5-1.406c-.387-.387,4.984,31.28,4.984,31.28" transform="translate(-146.636 -166.602)" fill="#0253a2"/>
    <path id="Trazado_66349" data-name="Trazado 66349" d="M159.915,228.257s-1.877-10.322-2.712-15.535-3.127-15.116-3.336-16.367a15.423,15.423,0,0,0-.938-2.92s-1.98-1.458-3.753-1.146-3.231,4.274-3.962,8.132,4.587,14.6,4.587,15.533-3.752,8.861-3.752,11.155v2.607s9.278-4.483,13.865-1.459" transform="translate(-114.799 -152.052)" fill="#fec00f"/>
    <path id="Trazado_66350" data-name="Trazado 66350" d="M162.713,185.228l1.513.943,2.162,1.48-.413,2.3-4.044-3.625Z" transform="translate(-128.075 -146.502)" fill="#f99b1c"/>
    <path id="Trazado_66351" data-name="Trazado 66351" d="M115.445,306.578s3.39,4.518,5.169,4.341a14.756,14.756,0,0,0,1.733-.3c1.213-.234,1.447-.22,2.411-.351a8.9,8.9,0,0,1,1.081-.118s0,.548-.365.692c-.327.128-1.146.234-1.42.35s.69-.078,2.137.04a20.462,20.462,0,0,1,3.453.587c.379.106.43.129.43.148,0,.177-.014.339-.19.372-.154.028-.7-.014-.671.012a7.39,7.39,0,0,0,1.133.426c.157.038.372.083.5.129.266.092.142.416-.32.547-.006,0-.109.227-.248.275-.072.023-.123.044-.2.064s-.18.025-.262.045a5.873,5.873,0,0,1-.924.131,8.28,8.28,0,0,0-1.206-.006,4.207,4.207,0,0,1,.835.256c-.034.145-.2.324-.346.312-.275-.025-.691-.054-1.825-.2a8.934,8.934,0,0,0-3.115-.091c-1.4.17-1.261.46-2.254.077-1.329-.511-6.165-4.261-7.063-4.848s1.515-2.893,1.515-2.893" transform="translate(-89.951 -242.48)" fill="#e9d6b8"/>
    <path id="Trazado_66352" data-name="Trazado 66352" d="M82.486,214.729l10.869-11.807s1.316-3.109,1.25-4.691c-.078-1.876-2.32-3.285-2.32-3.285s-4.952,4.458-10.816,10.869-9.07,9.226-5.864,11.729,8.288,5.708,8.288,5.708l1.954-5Z" transform="translate(-58.795 -154.188)" fill="#f99b1c"/>
    <path id="Trazado_66353" data-name="Trazado 66353" d="M0,438.678H105.169l21.369-81.031H21.368Z" transform="translate(0 -282.872)" fill="#cee5ff"/>
    <path id="Trazado_66354" data-name="Trazado 66354" d="M0,701.793H105.169l21.369-11.479H70.289Z" transform="translate(0 -545.987)" fill="#acd4f8"/>
    <path id="Trazado_66355" data-name="Trazado 66355" d="M230.813,438.678H125.644l-21.369-81.031H209.445Z" transform="translate(-82.474 -282.872)" fill="#6595bf"/>
    <path id="Trazado_66356" data-name="Trazado 66356" d="M177.008,427.15h-10.1L164.2,416.888h10.1Z" transform="translate(-129.873 -329.727)" fill="#0063cb"/>
    <path id="Trazado_66357" data-name="Trazado 66357" d="M238.022,427.15h-10.1l-2.706-10.262h10.1Z" transform="translate(-178.129 -329.727)" fill="#0063cb"/>
    <path id="Trazado_66358" data-name="Trazado 66358" d="M299.042,427.15h-10.1l-2.706-10.262h10.1Z" transform="translate(-226.392 -329.727)" fill="#8dcfff"/>
    <path id="Trazado_66359" data-name="Trazado 66359" d="M360.065,427.15h-10.1l-2.705-10.262h10.1Z" transform="translate(-274.657 -329.727)" fill="#8dcfff"/>
    <path id="Trazado_66360" data-name="Trazado 66360" d="M421.08,427.15h-10.1l-2.706-10.262h10.1Z" transform="translate(-322.915 -329.727)" fill="#8dcfff"/>
    <path id="Trazado_66361" data-name="Trazado 66361" d="M482.1,427.15H472l-2.707-10.262h10.1Z" transform="translate(-371.173 -329.727)" fill="#8dcfff"/>
    <path id="Trazado_66362" data-name="Trazado 66362" d="M543.116,427.15h-10.1l-2.706-10.262h10.1Z" transform="translate(-419.436 -329.727)" fill="#73a9ff"/>
    <path id="Trazado_66363" data-name="Trazado 66363" d="M193.055,488h-10.1l-2.706-10.262h10.1Z" transform="translate(-142.564 -377.854)" fill="#8dcfff"/>
    <path id="Trazado_66364" data-name="Trazado 66364" d="M254.071,488h-10.1l-2.706-10.262h10.1Z" transform="translate(-190.823 -377.854)" fill="#8dcfff"/>
    <path id="Trazado_66365" data-name="Trazado 66365" d="M315.09,488h-10.1l-2.706-10.262h10.1Z" transform="translate(-239.084 -377.854)" fill="#fec00f"/>
    <path id="Trazado_66366" data-name="Trazado 66366" d="M376.109,488h-10.1L363.3,477.736h10.1Z" transform="translate(-287.345 -377.854)" fill="#fec00f"/>
    <path id="Trazado_66367" data-name="Trazado 66367" d="M437.129,488h-10.1l-2.706-10.262h10.1Z" transform="translate(-335.608 -377.854)" fill="#e9f6ff"/>
    <path id="Trazado_66368" data-name="Trazado 66368" d="M498.14,488h-10.1l-2.706-10.262h10.1Z" transform="translate(-383.862 -377.854)" fill="#8dcfff"/>
    <path id="Trazado_66369" data-name="Trazado 66369" d="M559.159,488h-10.1l-2.707-10.262h10.1Z" transform="translate(-432.124 -377.854)" fill="#73a9ff"/>
    <path id="Trazado_66370" data-name="Trazado 66370" d="M209.1,548.845H199l-2.708-10.262h10.1Z" transform="translate(-155.249 -425.979)" fill="#e9f6ff"/>
    <path id="Trazado_66371" data-name="Trazado 66371" d="M270.118,548.845h-10.1l-2.705-10.262h10.1Z" transform="translate(-203.516 -425.979)" fill="#8dcfff"/>
    <path id="Trazado_66372" data-name="Trazado 66372" d="M331.139,548.845h-10.1l-2.7-10.262h10.1Z" transform="translate(-251.778 -425.979)" fill="#e9f6ff"/>
    <path id="Trazado_66373" data-name="Trazado 66373" d="M392.151,548.845h-10.1l-2.707-10.262h10.1Z" transform="translate(-300.033 -425.979)" fill="#8dcfff"/>
    <path id="Trazado_66374" data-name="Trazado 66374" d="M453.173,548.845h-10.1l-2.7-10.262h10.1Z" transform="translate(-348.299 -425.979)" fill="#8dcfff"/>
    <path id="Trazado_66375" data-name="Trazado 66375" d="M514.187,548.845h-10.1l-2.707-10.262h10.1Z" transform="translate(-396.554 -425.979)" fill="#8dcfff"/>
    <path id="Trazado_66376" data-name="Trazado 66376" d="M575.206,548.845h-10.1L562.4,538.583h10.1Z" transform="translate(-444.816 -425.979)" fill="#73a9ff"/>
    <path id="Trazado_66377" data-name="Trazado 66377" d="M225.145,609.7h-10.1l-2.706-10.261h10.1Z" transform="translate(-167.944 -474.109)" fill="#8dcfff"/>
    <path id="Trazado_66378" data-name="Trazado 66378" d="M286.165,609.7h-10.1l-2.706-10.261h10.1Z" transform="translate(-216.207 -474.109)" fill="#fec00f"/>
    <path id="Trazado_66379" data-name="Trazado 66379" d="M347.18,609.7h-10.1l-2.707-10.261h10.1Z" transform="translate(-264.463 -474.109)" fill="#8dcfff"/>
    <path id="Trazado_66380" data-name="Trazado 66380" d="M408.2,609.7H398.1L395.4,599.436h10.1Z" transform="translate(-312.729 -474.109)" fill="#8dcfff"/>
    <path id="Trazado_66381" data-name="Trazado 66381" d="M469.217,609.7h-10.1l-2.707-10.261h10.1Z" transform="translate(-360.987 -474.109)" fill="#8dcfff"/>
    <path id="Trazado_66382" data-name="Trazado 66382" d="M530.236,609.7h-10.1l-2.706-10.261h10.1Z" transform="translate(-409.249 -474.109)" fill="#8dcfff"/>
    <path id="Trazado_66383" data-name="Trazado 66383" d="M591.252,609.7h-10.1l-2.706-10.261h10.1Z" transform="translate(-457.508 -474.109)" fill="#73a9ff"/>
    <path id="Trazado_66384" data-name="Trazado 66384" d="M241.194,670.545H231.1l-2.705-10.262h10.1Z" transform="translate(-180.639 -522.235)" fill="#8dcfff"/>
    <path id="Trazado_66385" data-name="Trazado 66385" d="M302.209,670.545h-10.1L289.4,660.283h10.1Z" transform="translate(-228.896 -522.235)" fill="#8dcfff"/>
    <path id="Trazado_66386" data-name="Trazado 66386" d="M363.229,670.545h-10.1l-2.706-10.262h10.1Z" transform="translate(-277.159 -522.235)" fill="#8dcfff"/>
    <path id="Trazado_66387" data-name="Trazado 66387" d="M424.246,670.545h-10.1l-2.707-10.262h10.1Z" transform="translate(-325.418 -522.235)" fill="#8dcfff"/>
    <path id="Trazado_66388" data-name="Trazado 66388" d="M485.265,670.545h-10.1l-2.706-10.262h10.1Z" transform="translate(-373.68 -522.235)" fill="#0063cb"/>
    <path id="Trazado_66389" data-name="Trazado 66389" d="M546.283,670.545h-10.1l-2.706-10.262h10.1Z" transform="translate(-421.941 -522.235)" fill="#0063cb"/>
    <path id="Trazado_66390" data-name="Trazado 66390" d="M607.3,670.545H597.2l-2.706-10.262h10.1Z" transform="translate(-470.201 -522.235)" fill="#0063cb"/>
    <line id="Línea_310" data-name="Línea 310" x2="6.986" y2="5.597" transform="translate(91.325 101.96)" fill="none" stroke="#387bff" stroke-width="2.53"/>
    <line id="Línea_311" data-name="Línea 311" x1="4.033" y2="5.597" transform="translate(92.802 101.96)" fill="none" stroke="#387bff" stroke-width="2.53"/>
    <path id="Trazado_66391" data-name="Trazado 66391" d="M596.672,357.5s-7.948-.012-11.059-.718a38.349,38.349,0,0,0-6.391-.806,12.112,12.112,0,0,1-2.239.759c-.592.043-1.765-.89-1.765-.89l-2.252.591s-1.47,1.272-1.722.848c-.1-.163.9-1,1.064-1.14.319-.278,1.563-.71,1.713-.976.212-.375-2-.023-2.4.3a18.1,18.1,0,0,1-1.819,1.281s-.67.134-.6-.126a19.02,19.02,0,0,1,2.325-1.913l1.965-.442-2.23-.261s-1.766.682-1.806.132a11.339,11.339,0,0,1,1.842-.815l2.53-.271s1.347-.025,1.86.023,2.7.747,2.7.747,5.066-.457,7.107-.437c2.977.029,8.576-.119,10.37,0s1.657,4.043.811,4.105" transform="translate(-450.189 -279.24)" fill="#e9d6b8"/>
    <path id="Trazado_66392" data-name="Trazado 66392" d="M592.271,347.771c-.038.216-.014.533.183.614.541.222,1.471.5-.13.838-.6.127,3.535.538,3.535.538s-1.249-1.015-2.346-1.708c0,0-1.219-.422-1.242-.282" transform="translate(-468.43 -275.038)" fill="#e9d6b8"/>
    <path id="Trazado_66393" data-name="Trazado 66393" d="M568.943,357.681l1.724-1.274,2.706-.039.139.595s-2.439.211-2.568.189-1.414.709-1.663.791-.455-.126-.338-.262" transform="translate(-449.965 -281.86)" fill="#e9d6b8"/>
    <path id="Trazado_66394" data-name="Trazado 66394" d="M692.555,151.26s-3.47.293-4.554-1.027,2.1-.891.663.063-4.644-.761-3.786-2.365,2.2-2.29,3.507-1.352.236,1.469-.255.553,1.489-3.146,3.156.034.765,3.424.2,1.319.765-3.434,1.757-.959-.534,3.694-.914,2.587,2.862-3.437,3.111-1.326.447,4.639-1.158,4.669,2.142-5.5,3.609-.976-1.489,3.146-1.6,2.128,5.4.879,1.122,2.36-2.67-.327-3.03-1.359,3.6,1.688,1.454,3.883-4.2,1.78-3.77-.514,2.852-1.094,2.076.81a2.443,2.443,0,0,0,.873,3.233c.457.2-2.953,1.606-3.613-.233s-1.569-10.871,1.158-11.528" transform="translate(-541.574 -115.092)" fill="#163f59"/>
    <path id="Trazado_66395" data-name="Trazado 66395" d="M683.358,165.069l-1.972,2.55.019.963-1.713,2.319.762,1.326-.356,4.05s-.3,2.179,1.745,1.384l2.045-.8s1.722,5.433.531,6.4-2.033,2.068-1.549,2.668c.441.547,1.609.147,2.808.014a19.023,19.023,0,0,1,4.467.211c.662.032-.255-.366-.436-1.732s-1.3-9.349-1.3-9.349a1.205,1.205,0,0,0,.868-.074c.506-.217,2.777-1.961,2.022-2.967s-2.412-.559-2.959.4-1.551-.065-1.307-2.147,4.4-3.3-.341-3.942c-3.181-.43-3.331-1.277-3.331-1.277" transform="translate(-537.586 -130.557)" fill="#e9d6b8"/>
    <path id="Trazado_66396" data-name="Trazado 66396" d="M570.992,235.838l-10.9-9.969a2.034,2.034,0,0,0-.451,1.676c.747,2.169,3.777,5.411,5.474,7.249a35.091,35.091,0,0,0,5.3,4.526Z" transform="translate(-442.585 -178.646)" fill="#e9d6b8"/>
    <path id="Trazado_66397" data-name="Trazado 66397" d="M550.943,216.888l-1.376-1.171a6.19,6.19,0,0,1-1.248-1.4,1.8,1.8,0,0,1,.492-2.425,2.692,2.692,0,0,1,1.286-.778s1.185.525,1.035,1.586.918,3.4.513,3.568a1.848,1.848,0,0,0-.7.619" transform="translate(-433.451 -166.976)" fill="#e9d6b8"/>
    <path id="Trazado_66398" data-name="Trazado 66398" d="M549.469,201.561l-1.369-1.476-1.336-1.315-.17.385.818,1.066.437,2.227.54-.3Z" transform="translate(-432.315 -157.212)" fill="#e9d6b8"/>
    <path id="Trazado_66399" data-name="Trazado 66399" d="M541.673,205.412l-1.473-.77-.267.324,1.314,1.021.953,1.5.919-.691Z" transform="translate(-427.047 -161.857)" fill="#e9d6b8"/>
    <path id="Trazado_66400" data-name="Trazado 66400" d="M538.6,209.38l1.213.539.853.247.588.784-.548.78-.607-.865-1.475-.982Z" transform="translate(-425.991 -165.604)" fill="#e9d6b8"/>
    <path id="Trazado_66401" data-name="Trazado 66401" d="M537.318,215.607l2.317.594.379.584-.344.556-.94-.651-1.246-.7Z" transform="translate(-424.978 -170.529)" fill="#e9d6b8"/>
    <path id="Trazado_66402" data-name="Trazado 66402" d="M559.108,212.283a2.434,2.434,0,0,1-.586-1.894s.34-2.83-.075-3.3a4.9,4.9,0,0,1-.675-1.676s-.355-.451-.506.694a4.752,4.752,0,0,0,.043,1.418,7,7,0,0,0-.707,2.045c.116,1.032,1.974,2.845,1.974,2.845s.626-.038.53-.135" transform="translate(-440.229 -162.4)" fill="#e9d6b8"/>
    <path id="Trazado_66403" data-name="Trazado 66403" d="M584.577,238.041l-5.052,1.218-4.75.9-11.783-7.913-2.727,4.7,13.611,11.042,15.922-2.054a33.428,33.428,0,0,0,3.724-8.6c.887-3.419-7.939.566-8.944.708" transform="translate(-443.128 -183.688)" fill="#12344a"/>
    <path id="Trazado_66404" data-name="Trazado 66404" d="M701.712,731.994l.03,1.388,7.712-.164.1-3.731-4.652-.056a18.975,18.975,0,0,1-3.19,2.563" transform="translate(-555.002 -576.925)" fill="#161711"/>
    <path id="Trazado_66405" data-name="Trazado 66405" d="M670.274,394.185s-3.507,22.938-7.459,33.056c-3.5,8.966-8.047-2.5-8.047-2.5l5.919-38.487,11.08-1.078s.77.265-1.493,9.013" transform="translate(-517.873 -304.642)" fill="#163f59"/>
    <path id="Trazado_66406" data-name="Trazado 66406" d="M690.2,389.077l-1.052,14.762,1.947,1.092s1.578,21.864,1.966,22.963c2.215,6.291,7.519,2.376,8.209.247s1.581-17.782,1.1-29.181l-.488-11.4Z" transform="translate(-545.068 -306.531)" fill="#194866"/>
    <path id="Trazado_66407" data-name="Trazado 66407" d="M707.3,545.548a52.079,52.079,0,0,0-.524,11.288c.181,4.67.9,17.033,1.953,26.225.066.563,4.655.038,4.655.038s2.167-29.954,2.292-35.748c.037-1.745-4.791-6.005-8.376-1.8" transform="translate(-558.956 -430.068)" fill="#194866"/>
    <path id="Trazado_66408" data-name="Trazado 66408" d="M668.186,241.8l.569.546,4.222-2.436,6.127,4.44s1.165,4.131,1.224,12.4c.061,8.288-.642,38.006-.642,38.006l-15.793,1.285-1.669-11.3-1.155,10.144-1.926-1.541s4.273-47.808,9.044-51.543" transform="translate(-521.332 -189.754)" fill="#12344a"/>
    <path id="Trazado_66409" data-name="Trazado 66409" d="M644.642,565.665a23.445,23.445,0,0,0,5.4.452c4.087.061-4.563,33.121-4.563,33.121l-5.846-2.009,3.476-33.171Z" transform="translate(-505.9 -446.128)" fill="#163f59"/>
    <path id="Trazado_66410" data-name="Trazado 66410" d="M627.36,723.2l-.49,2.892-2.937.063-2.753.058-3.856.081-.022-1.058s4.555-1.684,5.436-3.468,4.622,1.431,4.622,1.431" transform="translate(-488.239 -570.436)" fill="#161711"/>
    <path id="Trazado_66411" data-name="Trazado 66411" d="M695.086,249.265l-2.127-.31-2.19,2.694-.306,7.889,2.311-4.109,2.825-4.494Z" transform="translate(-546.105 -196.904)" fill="#d1dbea"/>
    <path id="Trazado_66412" data-name="Trazado 66412" d="M703.342,240.078l-.289,2.7,5.878-3.3-.678-1.932Z" transform="translate(-556.063 -187.878)" fill="#b0bfde"/>
    <path id="Trazado_66413" data-name="Trazado 66413" d="M699.411,245.987l.289.77-1.156,2.5-.1-2.215Z" transform="translate(-552.42 -194.558)" fill="#b0bfde"/>
    <path id="Trazado_66414" data-name="Trazado 66414" d="M688.352,238.769l-5.393,6.036-2.7,6.677-2.7,12.326,6.292-15.793-.642-.513,1.027-.642a34.535,34.535,0,0,1,3.723-4.494c1.669-1.541,1.669-1.8,1.669-1.8Z" transform="translate(-535.904 -188.848)" fill="#194866"/>
    <path id="Trazado_66415" data-name="Trazado 66415" d="M650.365,259.654s3.19,1.642,1.659,6.38c-2.606,8.077-8.049,14.732-9.074,16.064s-4.447,4.1-6.99,3.492c-1.6-.384-10.208-.769-10.208-.769l-.385-5.778,9.625-.066.939-.176s3.307-5.247,6.07-10.358,8.364-8.788,8.364-8.788" transform="translate(-494.619 -205.367)" fill="#194866"/>
    <path id="Trazado_66416" data-name="Trazado 66416" d="M686.018,257.333s.62-8.137,1.08-8.627-1.208.923-1.208.923l-.465,1.741-.562,2.111-1.156,13.1Z" transform="translate(-540.761 -196.626)" fill="#194866"/>
    <rect id="Rectángulo_25969" data-name="Rectángulo 25969" width="7.511" height="1.637" transform="translate(143.813 92.936)" fill="#194866"/>
    <path id="Trazado_66417" data-name="Trazado 66417" d="M395.953,1.68l8.023,13.9L412,29.474H379.905l8.024-13.9Z" transform="translate(-300.477 -1.328)" fill="none" stroke="#cdd5d7" stroke-miterlimit="10" stroke-width="1.68"/>
    <path id="Trazado_66418" data-name="Trazado 66418" d="M348.347,99.581a8.847,8.847,0,1,1-8.847-8.847,8.847,8.847,0,0,1,8.847,8.847" transform="translate(-261.522 -71.764)" fill="#fdbf14"/>
    <path id="Trazado_66419" data-name="Trazado 66419" d="M515.728,99.581a8.847,8.847,0,1,1-8.847-8.847,8.847,8.847,0,0,1,8.847,8.847" transform="translate(-393.908 -71.764)" fill="#387bff"/>
    <path id="Trazado_66420" data-name="Trazado 66420" d="M530.6,125.5l1.276,1.277,3.83-3.829" transform="translate(-419.669 -97.244)" fill="none" stroke="#fff" stroke-width="4.067"/>
    <path id="Trazado_66421" data-name="Trazado 66421" d="M366.054,124.245h-3.238v-.681l1.163-1.176q.517-.529.675-.733a1.618,1.618,0,0,0,.228-.379.967.967,0,0,0,.069-.361.528.528,0,0,0-.153-.415.6.6,0,0,0-.411-.136,1.183,1.183,0,0,0-.523.123,2.718,2.718,0,0,0-.529.352l-.532-.63a3.472,3.472,0,0,1,.567-.412,2.088,2.088,0,0,1,.491-.185,2.515,2.515,0,0,1,.6-.065,1.761,1.761,0,0,1,.767.158,1.224,1.224,0,0,1,.516.443,1.178,1.178,0,0,1,.184.653,1.6,1.6,0,0,1-.113.6,2.3,2.3,0,0,1-.349.575,8.458,8.458,0,0,1-.831.84l-.6.561v.044h2.018Z" transform="translate(-286.951 -94.553)" fill="#fff"/>
  </g>
</svg>
