<svg id="Grupo_63419" data-name="Grupo 63419" xmlns="http://www.w3.org/2000/svg" xmlns:xlink="http://www.w3.org/1999/xlink" width="190" height="136.771" viewBox="0 0 190 136.771">
  <defs>
    <clipPath id="clip-path">
      <rect id="Rectángulo_26063" data-name="Rectángulo 26063" width="190" height="136.77" fill="none"/>
    </clipPath>
    <clipPath id="clip-path-3">
      <rect id="Rectángulo_25973" data-name="Rectángulo 25973" width="33.709" height="5.459" fill="none"/>
    </clipPath>
    <clipPath id="clip-path-4">
      <rect id="Rectángulo_25975" data-name="Rectángulo 25975" width="33.709" height="5.46" fill="none"/>
    </clipPath>
    <clipPath id="clip-path-6">
      <rect id="Rectángulo_26030" data-name="Rectángulo 26030" width="23.331" height="28.628" fill="none"/>
    </clipPath>
    <clipPath id="clip-path-7">
      <path id="Trazado_66544" data-name="Trazado 66544" d="M323.54,257.77l-5.6,11.577,2.232,4.166,5.254-10.136,1.6-5.923a1.834,1.834,0,0,0-.864-.668l-.246-.094a1.844,1.844,0,0,0-2.376,1.079" transform="translate(-317.939 -256.573)" fill="none"/>
    </clipPath>
    <linearGradient id="linear-gradient" x1="-6.706" y1="5.171" x2="-6.685" y2="5.171" gradientUnits="objectBoundingBox">
      <stop offset="0" stop-color="#d1dbea"/>
      <stop offset="1" stop-color="#dbe7f3"/>
    </linearGradient>
    <clipPath id="clip-path-9">
      <path id="Trazado_66549" data-name="Trazado 66549" d="M398.28,249.951s-1.934,11.16-1.934,14.433,2.232,12.2,2.084,16.366-.052,19.966-.052,19.966H404.7s1.017-21.008-1.363-29.042c-1.9-6.412-1.507-21.793-1.507-21.793Z" transform="translate(-396.346 -249.881)" fill="none"/>
    </clipPath>
    <linearGradient id="linear-gradient-2" x1="-8.104" y1="1.748" x2="-8.083" y2="1.748" xlink:href="#linear-gradient"/>
    <clipPath id="clip-path-11">
      <path id="Trazado_66551" data-name="Trazado 66551" d="M339.872,254.609s.51,10.679.659,13.8-1.637,8.779-2.678,12.5c-1.828,6.525-1.905,22.473-1.905,22.473a48.05,48.05,0,0,0,8.433.767,241.707,241.707,0,0,0,.911-25.174,174.716,174.716,0,0,0-1.785-24.847Z" transform="translate(-335.948 -254.129)" fill="none"/>
    </clipPath>
    <linearGradient id="linear-gradient-3" x1="-6.783" y1="1.761" x2="-6.763" y2="1.761" xlink:href="#linear-gradient"/>
    <clipPath id="clip-path-13">
      <path id="Trazado_66558" data-name="Trazado 66558" d="M291.434,289.594c.3,1.042,3.125,9.225,4.91,9.969s2.678-1.636,2.827-2.232-5.654-9.82-5.654-9.82-2.381,1.042-2.083,2.083" transform="translate(-291.409 -287.511)" fill="none"/>
    </clipPath>
    <linearGradient id="linear-gradient-4" x1="-6.791" y1="6.382" x2="-6.768" y2="6.382" xlink:href="#linear-gradient"/>
  </defs>
  <g id="Grupo_25221" data-name="Grupo 25221" clip-path="url(#clip-path)">
    <rect id="Rectángulo_25971" data-name="Rectángulo 25971" width="33.709" height="38.215" transform="translate(94.123 35.124)" fill="none" stroke="#c1e3fe" stroke-miterlimit="10" stroke-width="0.212"/>
    <line id="Línea_312" data-name="Línea 312" x2="33.709" transform="translate(94.123 67.88)" fill="none" stroke="#c1e3fe" stroke-miterlimit="10" stroke-width="0.212"/>
    <line id="Línea_313" data-name="Línea 313" x2="33.709" transform="translate(94.123 62.421)" fill="none" stroke="#c1e3fe" stroke-miterlimit="10" stroke-width="0.212"/>
    <line id="Línea_314" data-name="Línea 314" x2="33.709" transform="translate(94.123 56.961)" fill="none" stroke="#c1e3fe" stroke-miterlimit="10" stroke-width="0.212"/>
    <line id="Línea_315" data-name="Línea 315" x2="33.709" transform="translate(94.123 51.502)" fill="none" stroke="#c1e3fe" stroke-miterlimit="10" stroke-width="0.212"/>
    <line id="Línea_316" data-name="Línea 316" x2="33.709" transform="translate(94.123 46.043)" fill="none" stroke="#c1e3fe" stroke-miterlimit="10" stroke-width="0.212"/>
    <line id="Línea_317" data-name="Línea 317" x2="33.709" transform="translate(94.123 40.583)" fill="none" stroke="#c1e3fe" stroke-miterlimit="10" stroke-width="0.212"/>
    <line id="Línea_318" data-name="Línea 318" y2="38.215" transform="translate(116.596 35.124)" fill="none" stroke="#c1e3fe" stroke-miterlimit="10" stroke-width="0.212"/>
    <line id="Línea_319" data-name="Línea 319" y2="38.215" transform="translate(105.359 35.124)" fill="none" stroke="#c1e3fe" stroke-miterlimit="10" stroke-width="0.212"/>
    <line id="Línea_320" data-name="Línea 320" x1="1.744" y2="1.744" transform="translate(92.379 35.124)" fill="none" stroke="#c1e3fe" stroke-miterlimit="10" stroke-width="0.212"/>
    <line id="Línea_321" data-name="Línea 321" x1="1.744" y2="1.743" transform="translate(92.379 40.583)" fill="none" stroke="#c1e3fe" stroke-miterlimit="10" stroke-width="0.212"/>
    <line id="Línea_322" data-name="Línea 322" x1="1.744" y2="1.743" transform="translate(92.379 46.043)" fill="none" stroke="#c1e3fe" stroke-miterlimit="10" stroke-width="0.212"/>
    <line id="Línea_323" data-name="Línea 323" x1="1.744" y2="1.744" transform="translate(92.379 51.502)" fill="none" stroke="#c1e3fe" stroke-miterlimit="10" stroke-width="0.212"/>
    <line id="Línea_324" data-name="Línea 324" x1="1.744" y2="1.744" transform="translate(92.379 56.961)" fill="none" stroke="#c1e3fe" stroke-miterlimit="10" stroke-width="0.212"/>
    <line id="Línea_325" data-name="Línea 325" x1="1.744" y2="1.743" transform="translate(92.379 62.421)" fill="none" stroke="#c1e3fe" stroke-miterlimit="10" stroke-width="0.212"/>
    <line id="Línea_326" data-name="Línea 326" x1="1.744" y2="1.743" transform="translate(92.379 67.88)" fill="none" stroke="#c1e3fe" stroke-miterlimit="10" stroke-width="0.212"/>
    <path id="Trazado_66422" data-name="Trazado 66422" d="M473.074,363.539h0l-.172.093-.026-.1.216-.116h.114v.99h-.13Z" transform="translate(-382.244 -293.764)" fill="#c1e3fe"/>
    <g id="Grupo_25204" data-name="Grupo 25204">
      <g id="Grupo_25203" data-name="Grupo 25203" clip-path="url(#clip-path)">
        <path id="Trazado_66423" data-name="Trazado 66423" d="M477.087,363.828c0,.337-.125.522-.344.522-.194,0-.325-.181-.328-.509s.143-.515.344-.515.328.186.328.5m-.538.015c0,.257.079.4.2.4.137,0,.2-.16.2-.413s-.062-.4-.2-.4c-.118,0-.2.143-.2.413" transform="translate(-385.107 -293.693)" fill="#c1e3fe"/>
        <path id="Trazado_66424" data-name="Trazado 66424" d="M472.4,336.052v-.082l.105-.1c.253-.241.367-.369.369-.518a.177.177,0,0,0-.2-.194.339.339,0,0,0-.21.084l-.043-.094a.436.436,0,0,1,.28-.1.279.279,0,0,1,.3.288c0,.183-.133.331-.341.532l-.079.073v0h.445v.111Z" transform="translate(-381.866 -270.831)" fill="#c1e3fe"/>
        <path id="Trazado_66425" data-name="Trazado 66425" d="M477.087,335.546c0,.337-.125.523-.344.523-.194,0-.325-.181-.328-.509s.143-.515.344-.515.328.186.328.5m-.538.015c0,.258.079.4.2.4.137,0,.2-.16.2-.413s-.062-.4-.2-.4c-.118,0-.2.143-.2.413" transform="translate(-385.107 -270.831)" fill="#c1e3fe"/>
        <path id="Trazado_66426" data-name="Trazado 66426" d="M472.418,307.617a.449.449,0,0,0,.22.062c.172,0,.225-.11.224-.192,0-.139-.127-.2-.256-.2h-.075v-.1h.075c.1,0,.221-.05.221-.168,0-.079-.051-.15-.174-.15a.365.365,0,0,0-.2.066l-.035-.1a.469.469,0,0,1,.259-.076c.2,0,.284.116.284.236a.246.246,0,0,1-.183.233v0a.258.258,0,0,1,.221.255c0,.158-.123.3-.361.3a.5.5,0,0,1-.257-.067Z" transform="translate(-381.847 -247.971)" fill="#c1e3fe"/>
        <path id="Trazado_66427" data-name="Trazado 66427" d="M477.087,307.265c0,.337-.125.522-.344.522-.194,0-.325-.181-.328-.509s.143-.515.344-.515.328.186.328.5m-.538.015c0,.258.079.4.2.4.137,0,.2-.16.2-.413s-.062-.4-.2-.4c-.118,0-.2.143-.2.413" transform="translate(-385.107 -247.971)" fill="#c1e3fe"/>
        <path id="Trazado_66428" data-name="Trazado 66428" d="M472.627,279.558v-.27h-.46V279.2l.442-.632h.145v.616h.139v.105h-.139v.27Zm0-.375v-.331c0-.052,0-.1,0-.156h0c-.031.058-.055.1-.082.146l-.242.337v0Z" transform="translate(-381.673 -225.179)" fill="#c1e3fe"/>
        <path id="Trazado_66429" data-name="Trazado 66429" d="M477.087,278.982c0,.337-.125.522-.344.522-.194,0-.325-.181-.328-.509s.143-.515.344-.515.328.186.328.5m-.538.015c0,.257.079.4.2.4.137,0,.2-.16.2-.413s-.062-.4-.2-.4c-.118,0-.2.143-.2.413" transform="translate(-385.107 -225.108)" fill="#c1e3fe"/>
        <path id="Trazado_66430" data-name="Trazado 66430" d="M472.978,250.4H472.6l-.038.254a.543.543,0,0,1,.081-.006.417.417,0,0,1,.213.053.283.283,0,0,1,.142.254.344.344,0,0,1-.369.338.486.486,0,0,1-.247-.061l.033-.1a.444.444,0,0,0,.212.055.219.219,0,0,0,.235-.215c0-.128-.087-.219-.285-.219a.985.985,0,0,0-.137.011l.064-.476h.474Z" transform="translate(-381.847 -202.316)" fill="#c1e3fe"/>
        <path id="Trazado_66431" data-name="Trazado 66431" d="M477.087,250.7c0,.337-.125.522-.344.522-.194,0-.325-.181-.328-.509s.143-.515.344-.515.328.186.328.5m-.538.015c0,.258.079.4.2.4.137,0,.2-.16.2-.413s-.062-.4-.2-.4c-.118,0-.2.143-.2.413" transform="translate(-385.107 -202.246)" fill="#c1e3fe"/>
        <path id="Trazado_66432" data-name="Trazado 66432" d="M472.9,222.032a.483.483,0,0,0-.1.006.4.4,0,0,0-.344.352h0a.3.3,0,0,1,.538.206.331.331,0,0,1-.329.349c-.212,0-.35-.164-.35-.422a.623.623,0,0,1,.167-.446.539.539,0,0,1,.317-.146.632.632,0,0,1,.1-.008Zm-.038.571a.2.2,0,0,0-.2-.227.221.221,0,0,0-.192.122.114.114,0,0,0-.015.06c0,.163.078.283.218.283.116,0,.194-.1.194-.238" transform="translate(-381.795 -179.389)" fill="#c1e3fe"/>
        <path id="Trazado_66433" data-name="Trazado 66433" d="M477.087,222.416c0,.337-.125.522-.344.522-.194,0-.325-.181-.328-.509s.143-.515.344-.515.328.186.328.5m-.538.015c0,.258.079.4.2.4.137,0,.2-.16.2-.413s-.062-.4-.2-.4c-.118,0-.2.143-.2.413" transform="translate(-385.107 -179.384)" fill="#c1e3fe"/>
        <path id="Trazado_66434" data-name="Trazado 66434" d="M473.126,193.72v.088l-.431.9h-.139l.43-.876v0H472.5v-.111Z" transform="translate(-381.943 -156.593)" fill="#c1e3fe"/>
        <path id="Trazado_66435" data-name="Trazado 66435" d="M477.087,194.135c0,.337-.125.523-.344.523-.194,0-.325-.181-.328-.509s.143-.515.344-.515.328.185.328.5m-.538.015c0,.258.079.4.2.4.137,0,.2-.16.2-.413s-.062-.4-.2-.4c-.118,0-.2.143-.2.413" transform="translate(-385.107 -156.523)" fill="#c1e3fe"/>
        <path id="Trazado_66436" data-name="Trazado 66436" d="M509.614,388.935v-.082l.105-.1c.253-.241.367-.369.369-.518a.177.177,0,0,0-.2-.193.337.337,0,0,0-.21.084l-.042-.094a.432.432,0,0,1,.28-.1.279.279,0,0,1,.3.288c0,.183-.133.331-.341.532l-.079.073v0h.445v.112Z" transform="translate(-411.943 -313.579)" fill="#c1e3fe"/>
        <path id="Trazado_66437" data-name="Trazado 66437" d="M514.3,388.43c0,.337-.125.523-.344.523-.194,0-.325-.181-.327-.509s.143-.515.344-.515.328.186.328.5m-.538.015c0,.258.079.4.2.4.137,0,.2-.16.2-.413s-.062-.4-.2-.4c-.118,0-.2.144-.2.413" transform="translate(-415.185 -313.58)" fill="#c1e3fe"/>
        <path id="Trazado_66438" data-name="Trazado 66438" d="M518.446,388.141h0l-.172.093-.026-.1.216-.116h.114v.99h-.13Z" transform="translate(-418.92 -313.651)" fill="#c1e3fe"/>
        <path id="Trazado_66439" data-name="Trazado 66439" d="M522.576,388.016v.088l-.431.9h-.139l.43-.876v0h-.485v-.111Z" transform="translate(-421.916 -313.651)" fill="#c1e3fe"/>
        <path id="Trazado_66440" data-name="Trazado 66440" d="M569.426,388.935v-.082l.105-.1c.253-.241.367-.369.369-.518a.177.177,0,0,0-.2-.193.337.337,0,0,0-.21.084l-.042-.094a.433.433,0,0,1,.28-.1.279.279,0,0,1,.3.288c0,.183-.133.331-.341.532l-.079.073v0h.445v.112Z" transform="translate(-460.292 -313.579)" fill="#c1e3fe"/>
        <path id="Trazado_66441" data-name="Trazado 66441" d="M574.107,388.43c0,.337-.125.523-.344.523-.193,0-.325-.181-.328-.509s.143-.515.344-.515.327.186.327.5m-.538.015c0,.258.079.4.2.4s.2-.16.2-.413-.063-.4-.2-.4c-.117,0-.2.144-.2.413" transform="translate(-463.533 -313.58)" fill="#c1e3fe"/>
        <path id="Trazado_66442" data-name="Trazado 66442" d="M578.256,388.141h0l-.172.093-.026-.1.217-.116h.114v.99h-.129Z" transform="translate(-467.267 -313.651)" fill="#c1e3fe"/>
        <path id="Trazado_66443" data-name="Trazado 66443" d="M581.6,388.685a.283.283,0,0,1,.2-.265l0,0a.245.245,0,0,1-.157-.222.277.277,0,0,1,.306-.264.256.256,0,0,1,.288.244.252.252,0,0,1-.163.232v0a.274.274,0,0,1,.2.256.305.305,0,0,1-.337.288c-.207,0-.332-.124-.332-.268m.533-.006c0-.12-.084-.178-.218-.216a.216.216,0,0,0-.178.2.183.183,0,0,0,.2.189.179.179,0,0,0,.2-.177m-.369-.5c0,.1.075.152.189.183a.194.194,0,0,0,.151-.18.154.154,0,0,0-.168-.161.157.157,0,0,0-.172.159" transform="translate(-470.137 -313.58)" fill="#c1e3fe"/>
        <path id="Trazado_66444" data-name="Trazado 66444" d="M629.232,388.935v-.082l.105-.1c.253-.241.367-.369.369-.518a.177.177,0,0,0-.2-.193.335.335,0,0,0-.21.084l-.043-.094a.433.433,0,0,1,.28-.1.279.279,0,0,1,.3.288c0,.183-.133.331-.341.532l-.08.073v0h.445v.112Z" transform="translate(-508.636 -313.579)" fill="#c1e3fe"/>
        <path id="Trazado_66445" data-name="Trazado 66445" d="M633.914,388.43c0,.337-.125.523-.344.523-.193,0-.324-.181-.328-.509s.143-.515.344-.515.328.186.328.5m-.538.015c0,.258.079.4.2.4s.2-.16.2-.413-.062-.4-.2-.4c-.118,0-.2.144-.2.413" transform="translate(-511.877 -313.58)" fill="#c1e3fe"/>
        <path id="Trazado_66446" data-name="Trazado 66446" d="M638.063,388.141h0l-.172.093-.026-.1.217-.116h.114v.99h-.129Z" transform="translate(-515.612 -313.651)" fill="#c1e3fe"/>
        <path id="Trazado_66447" data-name="Trazado 66447" d="M641.526,388.842a.575.575,0,0,0,.108,0,.373.373,0,0,0,.207-.1.438.438,0,0,0,.131-.264h0a.3.3,0,0,1-.526-.2.34.34,0,0,1,.338-.352c.2,0,.328.164.328.417a.625.625,0,0,1-.171.465.492.492,0,0,1-.288.133.6.6,0,0,1-.123.008Zm.049-.57a.191.191,0,0,0,.191.21.222.222,0,0,0,.2-.1.091.091,0,0,0,.012-.049c0-.169-.063-.3-.2-.3-.115,0-.2.1-.2.241" transform="translate(-518.506 -313.58)" fill="#c1e3fe"/>
        <g id="Grupo_25193" data-name="Grupo 25193" transform="translate(94.123 40.584)" opacity="0.34">
          <g id="Grupo_25192" data-name="Grupo 25192">
            <g id="Grupo_25191" data-name="Grupo 25191" clip-path="url(#clip-path-3)">
              <rect id="Rectángulo_25972" data-name="Rectángulo 25972" width="33.709" height="5.459" transform="translate(0)" fill="#fff"/>
            </g>
          </g>
        </g>
        <g id="Grupo_25196" data-name="Grupo 25196" transform="translate(94.123 51.502)" opacity="0.34">
          <g id="Grupo_25195" data-name="Grupo 25195">
            <g id="Grupo_25194" data-name="Grupo 25194" clip-path="url(#clip-path-4)">
              <rect id="Rectángulo_25974" data-name="Rectángulo 25974" width="33.709" height="5.459" transform="translate(0 0)" fill="#fff"/>
            </g>
          </g>
        </g>
        <g id="Grupo_25199" data-name="Grupo 25199" transform="translate(94.123 62.42)" opacity="0.34">
          <g id="Grupo_25198" data-name="Grupo 25198">
            <g id="Grupo_25197" data-name="Grupo 25197" clip-path="url(#clip-path-3)">
              <rect id="Rectángulo_25976" data-name="Rectángulo 25976" width="33.709" height="5.459" transform="translate(0 0)" fill="#fff"/>
            </g>
          </g>
        </g>
        <rect id="Rectángulo_25978" data-name="Rectángulo 25978" width="15.148" height="0.871" transform="translate(94.123 40.584)" fill="#c2deff"/>
        <rect id="Rectángulo_25979" data-name="Rectángulo 25979" width="26.021" height="0.872" transform="translate(94.123 42.877)" fill="#0451db"/>
        <rect id="Rectángulo_25980" data-name="Rectángulo 25980" width="9.274" height="0.872" transform="translate(94.123 45.171)" fill="#7ab6fe"/>
        <rect id="Rectángulo_25981" data-name="Rectángulo 25981" width="27.344" height="0.872" transform="translate(94.123 51.502)" fill="#c2deff"/>
        <rect id="Rectángulo_25982" data-name="Rectángulo 25982" width="11.236" height="0.872" transform="translate(94.123 53.796)" fill="#0451db"/>
        <rect id="Rectángulo_25983" data-name="Rectángulo 25983" width="22.473" height="0.872" transform="translate(94.123 56.09)" fill="#7ab6fe"/>
        <rect id="Rectángulo_25984" data-name="Rectángulo 25984" width="11.236" height="0.872" transform="translate(94.123 62.491)" fill="#c2deff"/>
        <rect id="Rectángulo_25985" data-name="Rectángulo 25985" width="22.473" height="0.871" transform="translate(94.123 64.785)" fill="#0451db"/>
        <rect id="Rectángulo_25986" data-name="Rectángulo 25986" width="18.548" height="0.872" transform="translate(94.123 67.078)" fill="#7ab6fe"/>
        <rect id="Rectángulo_25987" data-name="Rectángulo 25987" width="1.824" height="1.825" transform="translate(43.609 3.838)" fill="#c1e3fe"/>
        <rect id="Rectángulo_25988" data-name="Rectángulo 25988" width="1.825" height="1.825" transform="translate(48.779 3.838)" fill="#c1e3fe"/>
        <rect id="Rectángulo_25989" data-name="Rectángulo 25989" width="1.825" height="1.825" transform="translate(53.95 3.838)" fill="#c1e3fe"/>
        <rect id="Rectángulo_25990" data-name="Rectángulo 25990" width="1.825" height="1.825" transform="translate(59.121 3.838)" fill="#c1e3fe"/>
        <rect id="Rectángulo_25991" data-name="Rectángulo 25991" width="1.825" height="1.825" transform="translate(64.292 3.838)" fill="#c1e3fe"/>
        <rect id="Rectángulo_25992" data-name="Rectángulo 25992" width="1.825" height="1.825" transform="translate(69.463 3.838)" fill="#c2deff"/>
        <rect id="Rectángulo_25993" data-name="Rectángulo 25993" width="1.826" height="1.825" transform="translate(74.633 3.838)" fill="#c2deff"/>
        <rect id="Rectángulo_25994" data-name="Rectángulo 25994" width="1.824" height="1.825" transform="translate(43.609 8.4)" fill="#c1e3fe"/>
        <rect id="Rectángulo_25995" data-name="Rectángulo 25995" width="1.825" height="1.825" transform="translate(48.779 8.4)" fill="#c1e3fe"/>
        <rect id="Rectángulo_25996" data-name="Rectángulo 25996" width="1.825" height="1.825" transform="translate(53.95 8.4)" fill="#c1e3fe"/>
        <rect id="Rectángulo_25997" data-name="Rectángulo 25997" width="1.825" height="1.825" transform="translate(59.121 8.4)" fill="#c1e3fe"/>
        <rect id="Rectángulo_25998" data-name="Rectángulo 25998" width="1.825" height="1.825" transform="translate(64.292 8.4)" fill="#c1e3fe"/>
        <rect id="Rectángulo_25999" data-name="Rectángulo 25999" width="1.825" height="1.825" transform="translate(69.463 8.4)" fill="#c2deff"/>
        <rect id="Rectángulo_26000" data-name="Rectángulo 26000" width="1.826" height="1.825" transform="translate(74.633 8.4)" fill="#c2deff"/>
        <rect id="Rectángulo_26001" data-name="Rectángulo 26001" width="1.824" height="1.825" transform="translate(43.609 12.962)" fill="#c1e3fe"/>
        <rect id="Rectángulo_26002" data-name="Rectángulo 26002" width="1.825" height="1.825" transform="translate(48.779 12.962)" fill="#c1e3fe"/>
        <rect id="Rectángulo_26003" data-name="Rectángulo 26003" width="1.825" height="1.825" transform="translate(53.95 12.962)" fill="#7ab6fe"/>
        <rect id="Rectángulo_26004" data-name="Rectángulo 26004" width="1.825" height="1.825" transform="translate(59.121 12.962)" fill="#7ab6fe"/>
        <rect id="Rectángulo_26005" data-name="Rectángulo 26005" width="1.825" height="1.825" transform="translate(64.292 12.962)" fill="#c1e3fe"/>
        <rect id="Rectángulo_26006" data-name="Rectángulo 26006" width="1.825" height="1.825" transform="translate(69.463 12.962)" fill="#c2deff"/>
        <rect id="Rectángulo_26007" data-name="Rectángulo 26007" width="1.826" height="1.825" transform="translate(74.633 12.962)" fill="#c2deff"/>
        <rect id="Rectángulo_26008" data-name="Rectángulo 26008" width="1.824" height="1.825" transform="translate(43.609 17.525)" fill="#0451db"/>
        <rect id="Rectángulo_26009" data-name="Rectángulo 26009" width="1.825" height="1.825" transform="translate(48.779 17.525)" fill="#c1e3fe"/>
        <rect id="Rectángulo_26010" data-name="Rectángulo 26010" width="1.825" height="1.825" transform="translate(53.95 17.525)" fill="#c1e3fe"/>
        <rect id="Rectángulo_26011" data-name="Rectángulo 26011" width="1.825" height="1.825" transform="translate(59.121 17.525)" fill="#c1e3fe"/>
        <rect id="Rectángulo_26012" data-name="Rectángulo 26012" width="1.825" height="1.825" transform="translate(64.292 17.525)" fill="#c1e3fe"/>
        <rect id="Rectángulo_26013" data-name="Rectángulo 26013" width="1.825" height="1.825" transform="translate(69.463 17.525)" fill="#c2deff"/>
        <rect id="Rectángulo_26014" data-name="Rectángulo 26014" width="1.826" height="1.825" transform="translate(74.633 17.525)" fill="#c2deff"/>
        <rect id="Rectángulo_26015" data-name="Rectángulo 26015" width="1.824" height="1.825" transform="translate(43.609 22.088)" fill="#c1e3fe"/>
        <rect id="Rectángulo_26016" data-name="Rectángulo 26016" width="1.825" height="1.825" transform="translate(48.779 22.088)" fill="#c1e3fe"/>
        <rect id="Rectángulo_26017" data-name="Rectángulo 26017" width="1.825" height="1.825" transform="translate(53.95 22.088)" fill="#c1e3fe"/>
        <rect id="Rectángulo_26018" data-name="Rectángulo 26018" width="1.825" height="1.825" transform="translate(59.121 22.088)" fill="#c1e3fe"/>
        <rect id="Rectángulo_26019" data-name="Rectángulo 26019" width="1.825" height="1.825" transform="translate(64.292 22.088)" fill="#c1e3fe"/>
        <rect id="Rectángulo_26020" data-name="Rectángulo 26020" width="1.825" height="1.825" transform="translate(69.463 22.088)" fill="#c2deff"/>
        <rect id="Rectángulo_26021" data-name="Rectángulo 26021" width="1.826" height="1.825" transform="translate(74.633 22.088)" fill="#c2deff"/>
        <rect id="Rectángulo_26022" data-name="Rectángulo 26022" width="1.824" height="1.826" transform="translate(43.609 26.65)" fill="#c1e3fe"/>
        <rect id="Rectángulo_26023" data-name="Rectángulo 26023" width="1.825" height="1.826" transform="translate(48.779 26.65)" fill="#c1e3fe"/>
        <rect id="Rectángulo_26024" data-name="Rectángulo 26024" width="1.825" height="1.826" transform="translate(53.95 26.65)" fill="#c1e3fe"/>
        <rect id="Rectángulo_26025" data-name="Rectángulo 26025" width="1.825" height="1.826" transform="translate(59.121 26.65)" fill="#c1e3fe"/>
        <rect id="Rectángulo_26026" data-name="Rectángulo 26026" width="1.825" height="1.826" transform="translate(64.292 26.65)" fill="#c1e3fe"/>
        <rect id="Rectángulo_26027" data-name="Rectángulo 26027" width="1.825" height="1.826" transform="translate(69.463 26.65)" fill="#c1e3fe"/>
        <rect id="Rectángulo_26028" data-name="Rectángulo 26028" width="1.826" height="1.826" transform="translate(74.633 26.65)" fill="#c1e3fe"/>
        <line id="Línea_327" data-name="Línea 327" y2="28.628" transform="translate(49.503 34.019)" fill="none" stroke="#c1e3fe" stroke-miterlimit="10" stroke-width="0.318"/>
        <line id="Línea_328" data-name="Línea 328" y2="28.628" transform="translate(37.838 34.019)" fill="none" stroke="#c1e3fe" stroke-miterlimit="10" stroke-width="0.318"/>
        <line id="Línea_329" data-name="Línea 329" y2="28.628" transform="translate(26.172 34.019)" fill="none" stroke="#c1e3fe" stroke-miterlimit="10" stroke-width="0.318"/>
        <line id="Línea_330" data-name="Línea 330" y2="28.628" transform="translate(14.507 34.019)" fill="none" stroke="#c1e3fe" stroke-miterlimit="10" stroke-width="0.318"/>
        <g id="Grupo_25202" data-name="Grupo 25202" transform="translate(26.172 34.019)" opacity="0.34">
          <g id="Grupo_25201" data-name="Grupo 25201">
            <g id="Grupo_25200" data-name="Grupo 25200" clip-path="url(#clip-path-6)">
              <rect id="Rectángulo_26029" data-name="Rectángulo 26029" width="23.331" height="28.628" transform="translate(0)" fill="#fff"/>
            </g>
          </g>
        </g>
        <rect id="Rectángulo_26031" data-name="Rectángulo 26031" width="58.328" height="28.628" transform="translate(2.841 34.019)" fill="none" stroke="#c1e3fe" stroke-miterlimit="10" stroke-width="0.318"/>
        <line id="Línea_331" data-name="Línea 331" x1="58.328" transform="translate(2.842 57.875)" fill="none" stroke="#c1e3fe" stroke-miterlimit="10" stroke-width="0.318"/>
        <line id="Línea_332" data-name="Línea 332" x2="58.328" transform="translate(2.842 53.104)" fill="none" stroke="#c1e3fe" stroke-miterlimit="10" stroke-width="0.318"/>
        <line id="Línea_333" data-name="Línea 333" x2="58.328" transform="translate(2.842 48.333)" fill="none" stroke="#c1e3fe" stroke-miterlimit="10" stroke-width="0.318"/>
        <line id="Línea_334" data-name="Línea 334" x2="58.328" transform="translate(2.842 43.561)" fill="none" stroke="#c1e3fe" stroke-miterlimit="10" stroke-width="0.318"/>
        <line id="Línea_335" data-name="Línea 335" x2="58.328" transform="translate(2.842 38.789)" fill="none" stroke="#c1e3fe" stroke-miterlimit="10" stroke-width="0.318"/>
        <path id="Trazado_66448" data-name="Trazado 66448" d="M6.159,322.846c0,.422-.157.655-.432.655-.243,0-.407-.227-.411-.638s.18-.645.432-.645.411.233.411.628m-.674.019c0,.323.1.506.252.506.172,0,.255-.2.255-.518s-.079-.506-.252-.506c-.147,0-.254.179-.254.518" transform="translate(-4.298 -260.463)" fill="#c1e3fe"/>
        <path id="Trazado_66449" data-name="Trazado 66449" d="M1.139,297.512h0l-.216.116L.887,297.5l.271-.145H1.3V298.6H1.139Z" transform="translate(-0.717 -240.366)" fill="#c1e3fe"/>
        <path id="Trazado_66450" data-name="Trazado 66450" d="M6.159,297.874c0,.422-.157.655-.432.655-.243,0-.407-.227-.411-.638s.18-.646.432-.646.411.233.411.628m-.674.019c0,.323.1.506.252.506.172,0,.255-.2.255-.518s-.079-.506-.252-.506c-.147,0-.254.179-.254.518" transform="translate(-4.298 -240.277)" fill="#c1e3fe"/>
        <path id="Trazado_66451" data-name="Trazado 66451" d="M.3,273.534v-.1l.132-.128c.317-.3.46-.462.462-.649a.221.221,0,0,0-.246-.242.423.423,0,0,0-.264.1L.329,272.4a.545.545,0,0,1,.352-.126.349.349,0,0,1,.38.361c0,.229-.166.414-.428.667l-.1.092v0h.558v.14Z" transform="translate(-0.242 -220.089)" fill="#c1e3fe"/>
        <path id="Trazado_66452" data-name="Trazado 66452" d="M6.159,272.9c0,.422-.157.655-.432.655-.243,0-.407-.227-.411-.638s.18-.646.432-.646.411.233.411.628m-.674.019c0,.323.1.506.252.506.172,0,.255-.2.255-.518s-.079-.506-.252-.506c-.147,0-.254.18-.254.518" transform="translate(-4.298 -220.089)" fill="#c1e3fe"/>
        <path id="Trazado_66453" data-name="Trazado 66453" d="M.315,248.366a.562.562,0,0,0,.275.078c.216,0,.283-.137.281-.241,0-.174-.158-.248-.321-.248H.456v-.126H.55c.122,0,.277-.063.277-.21,0-.1-.063-.187-.218-.187a.455.455,0,0,0-.248.082l-.044-.122a.591.591,0,0,1,.325-.1c.244,0,.355.145.355.3a.308.308,0,0,1-.229.292v0a.324.324,0,0,1,.277.319c0,.2-.155.372-.453.372a.633.633,0,0,1-.323-.084Z" transform="translate(-0.217 -199.901)" fill="#c1e3fe"/>
        <path id="Trazado_66454" data-name="Trazado 66454" d="M6.159,247.925c0,.422-.157.655-.432.655-.243,0-.407-.227-.411-.638s.18-.645.432-.645.411.233.411.628m-.674.019c0,.323.1.506.252.506.172,0,.255-.2.255-.518s-.079-.506-.252-.506c-.147,0-.254.179-.254.518" transform="translate(-4.298 -199.901)" fill="#c1e3fe"/>
        <path id="Trazado_66455" data-name="Trazado 66455" d="M.577,223.677v-.338H0v-.111l.554-.793H.735v.771H.909v.132H.735v.338Zm0-.47v-.414c0-.065,0-.13.006-.195H.577c-.038.073-.068.126-.1.183l-.3.422v0Z" transform="translate(0 -179.805)" fill="#c1e3fe"/>
        <path id="Trazado_66456" data-name="Trazado 66456" d="M6.159,222.954c0,.422-.157.655-.432.655-.243,0-.407-.227-.411-.638s.18-.646.432-.646.411.233.411.628m-.674.019c0,.323.1.506.252.506.172,0,.255-.2.255-.518s-.079-.506-.252-.506c-.147,0-.254.179-.254.517" transform="translate(-4.298 -179.716)" fill="#c1e3fe"/>
        <path id="Trazado_66457" data-name="Trazado 66457" d="M1.016,197.6H.542l-.048.319a.66.66,0,0,1,.1-.008.524.524,0,0,1,.267.067.353.353,0,0,1,.177.319.431.431,0,0,1-.462.424.607.607,0,0,1-.309-.077l.042-.128a.554.554,0,0,0,.265.069.274.274,0,0,0,.294-.27c0-.16-.109-.275-.357-.275a1.287,1.287,0,0,0-.172.013l.08-.6h.594Z" transform="translate(-0.217 -159.616)" fill="#c1e3fe"/>
        <path id="Trazado_66458" data-name="Trazado 66458" d="M6.159,197.979c0,.422-.157.655-.432.655-.243,0-.407-.227-.411-.638s.18-.645.432-.645.411.233.411.628M5.485,198c0,.323.1.506.252.506.172,0,.255-.2.255-.517s-.079-.506-.252-.506c-.147,0-.254.179-.254.517" transform="translate(-4.298 -159.527)" fill="#c1e3fe"/>
        <path id="Trazado_66459" data-name="Trazado 66459" d="M43.306,334.474h0l-.2.109-.03-.12.254-.136h.134v1.164h-.152Z" transform="translate(-34.815 -270.252)" fill="#c1e3fe"/>
        <path id="Trazado_66460" data-name="Trazado 66460" d="M103.4,335.408v-.1l.123-.12c.3-.283.431-.433.433-.609a.208.208,0,0,0-.231-.227.4.4,0,0,0-.247.1l-.05-.111a.511.511,0,0,1,.329-.118.327.327,0,0,1,.356.338c0,.215-.156.388-.4.625l-.093.086v0h.523v.131Z" transform="translate(-83.58 -270.169)" fill="#c1e3fe"/>
        <path id="Trazado_66461" data-name="Trazado 66461" d="M164.289,335.228a.527.527,0,0,0,.258.073c.2,0,.265-.129.263-.226,0-.163-.149-.233-.3-.233h-.088v-.118h.088c.115,0,.26-.059.26-.2,0-.093-.059-.175-.2-.175a.424.424,0,0,0-.232.077l-.041-.115a.55.55,0,0,1,.3-.089c.229,0,.333.136.333.277a.289.289,0,0,1-.215.274v0a.3.3,0,0,1,.259.3c0,.186-.145.349-.424.349a.594.594,0,0,1-.3-.079Z" transform="translate(-132.767 -270.169)" fill="#c1e3fe"/>
        <path id="Trazado_66462" data-name="Trazado 66462" d="M225.41,335.491v-.317h-.54v-.1l.519-.743h.17v.723h.163v.124h-.163v.317Zm0-.44v-.388c0-.061,0-.122.005-.183h-.005c-.036.068-.064.118-.1.172l-.284.4v0Z" transform="translate(-181.772 -270.252)" fill="#c1e3fe"/>
        <path id="Trazado_66463" data-name="Trazado 66463" d="M286.7,334.46h-.444l-.045.3a.586.586,0,0,1,.095-.007.489.489,0,0,1,.251.063.332.332,0,0,1,.167.3.4.4,0,0,1-.433.4.566.566,0,0,1-.29-.072l.039-.12a.52.52,0,0,0,.249.065.256.256,0,0,0,.275-.252c0-.15-.1-.258-.334-.258a1.162,1.162,0,0,0-.161.013l.075-.559h.557Z" transform="translate(-231.187 -270.252)" fill="#c1e3fe"/>
        <path id="Trazado_66464" data-name="Trazado 66464" d="M14.826,246.629l11.666-4.772,11.665-5.106,11.666-4.715H61.6l11.559-4.676" transform="translate(-11.985 -183.785)" fill="none" stroke="#0451db" stroke-miterlimit="10" stroke-width="1.71"/>
        <path id="Trazado_66465" data-name="Trazado 66465" d="M14.826,201.354l11.666-4.771,11.665,4.771,11.666-4.431,11.665-14.359L73.155,177.5" transform="translate(-11.985 -143.479)" fill="none" stroke="#7ab6fe" stroke-miterlimit="10" stroke-width="1.83"/>
        <path id="Trazado_66466" data-name="Trazado 66466" d="M256.145,201.121a.668.668,0,1,1-.668-.667.668.668,0,0,1,.668.667" transform="translate(-205.973 -162.036)" fill="#fff"/>
        <path id="Trazado_66467" data-name="Trazado 66467" d="M256.145,201.121a.668.668,0,1,1-.668-.667A.668.668,0,0,1,256.145,201.121Z" transform="translate(-205.973 -162.036)" fill="none" stroke="#7ab6fe" stroke-miterlimit="10" stroke-width="1.83"/>
        <path id="Trazado_66468" data-name="Trazado 66468" d="M195.281,276.042a.667.667,0,1,1-.667-.667.668.668,0,0,1,.667.667" transform="translate(-156.775 -222.598)" fill="#fff"/>
        <path id="Trazado_66469" data-name="Trazado 66469" d="M195.281,276.042a.667.667,0,1,1-.667-.667A.668.668,0,0,1,195.281,276.042Z" transform="translate(-156.775 -222.598)" fill="none" stroke="#7ab6fe" stroke-miterlimit="10" stroke-width="1.83"/>
        <path id="Trazado_66470" data-name="Trazado 66470" d="M134.413,299.16a.667.667,0,1,1-.667-.667.668.668,0,0,1,.667.667" transform="translate(-107.574 -241.285)" fill="#fff"/>
        <path id="Trazado_66471" data-name="Trazado 66471" d="M134.413,299.16a.667.667,0,1,1-.667-.667A.668.668,0,0,1,134.413,299.16Z" transform="translate(-107.574 -241.285)" fill="none" stroke="#7ab6fe" stroke-miterlimit="10" stroke-width="1.83"/>
        <path id="Trazado_66472" data-name="Trazado 66472" d="M73.541,274.268a.668.668,0,1,1-.667-.667.668.668,0,0,1,.667.667" transform="translate(-58.366 -221.164)" fill="#fff"/>
        <path id="Trazado_66473" data-name="Trazado 66473" d="M73.541,274.268a.668.668,0,1,1-.667-.667A.668.668,0,0,1,73.541,274.268Z" transform="translate(-58.366 -221.164)" fill="none" stroke="#7ab6fe" stroke-miterlimit="10" stroke-width="1.83"/>
        <path id="Trazado_66474" data-name="Trazado 66474" d="M193.88,249.249a.668.668,0,1,1-.668-.668.669.669,0,0,1,.668.668" transform="translate(-155.642 -200.939)" fill="#fff"/>
        <path id="Trazado_66475" data-name="Trazado 66475" d="M193.88,249.249a.668.668,0,1,1-.668-.668A.669.669,0,0,1,193.88,249.249Z" transform="translate(-155.642 -200.939)" fill="none" stroke="#0451db" stroke-miterlimit="10" stroke-width="1.71"/>
        <path id="Trazado_66476" data-name="Trazado 66476" d="M256.1,249.249a.668.668,0,1,1-.668-.668.668.668,0,0,1,.668.668" transform="translate(-205.934 -200.939)" fill="#fff"/>
        <path id="Trazado_66477" data-name="Trazado 66477" d="M256.1,249.249a.668.668,0,1,1-.668-.668A.668.668,0,0,1,256.1,249.249Z" transform="translate(-205.934 -200.939)" fill="none" stroke="#0451db" stroke-miterlimit="10" stroke-width="1.71"/>
        <path id="Trazado_66478" data-name="Trazado 66478" d="M2.816,128.627h0l-.153.082-.023-.09.191-.1h.1v.876H2.816Z" transform="translate(-2.133 -103.886)" fill="#c1e3fe"/>
        <path id="Trazado_66479" data-name="Trazado 66479" d="M6.361,128.882c0,.3-.11.462-.3.462-.171,0-.287-.16-.29-.45s.127-.456.3-.456.29.165.29.444m-.476.014c0,.228.07.357.178.357s.179-.142.179-.365-.055-.357-.178-.357c-.1,0-.179.127-.179.365" transform="translate(-4.662 -103.822)" fill="#c1e3fe"/>
        <path id="Trazado_66480" data-name="Trazado 66480" d="M2.223,105.762v-.073l.093-.09c.224-.213.325-.326.326-.458a.156.156,0,0,0-.174-.171.3.3,0,0,0-.186.074l-.038-.084a.386.386,0,0,1,.248-.089.247.247,0,0,1,.268.255c0,.162-.117.292-.3.47l-.07.065v0h.394v.1Z" transform="translate(-1.797 -84.772)" fill="#c1e3fe"/>
        <path id="Trazado_66481" data-name="Trazado 66481" d="M6.361,105.314c0,.3-.11.462-.3.462-.171,0-.287-.16-.29-.45s.127-.456.3-.456.29.165.29.443m-.476.014c0,.228.07.357.178.357s.179-.142.179-.365-.055-.357-.178-.357c-.1,0-.179.126-.179.365" transform="translate(-4.662 -84.772)" fill="#c1e3fe"/>
        <path id="Trazado_66482" data-name="Trazado 66482" d="M2.235,82.053a.4.4,0,0,0,.194.055c.152,0,.2-.1.2-.17,0-.122-.112-.175-.227-.175H2.334v-.089H2.4c.086,0,.2-.044.2-.148,0-.07-.045-.132-.154-.132a.322.322,0,0,0-.175.058l-.031-.086a.416.416,0,0,1,.229-.067c.173,0,.251.1.251.209a.218.218,0,0,1-.162.206v0a.229.229,0,0,1,.2.225c0,.14-.109.263-.32.263a.448.448,0,0,1-.228-.059Z" transform="translate(-1.78 -65.717)" fill="#c1e3fe"/>
        <path id="Trazado_66483" data-name="Trazado 66483" d="M6.361,81.741c0,.3-.11.462-.3.462-.171,0-.287-.16-.29-.45s.127-.456.3-.456.29.165.29.444m-.476.013c0,.228.07.357.178.357s.179-.141.179-.365-.055-.357-.178-.357c-.1,0-.179.127-.179.365" transform="translate(-4.662 -65.716)" fill="#c1e3fe"/>
        <path id="Trazado_66484" data-name="Trazado 66484" d="M2.42,58.679v-.239H2.013v-.078L2.4,57.8h.128v.544h.123v.093H2.532v.239Zm0-.332v-.292c0-.046,0-.092,0-.138h0c-.027.051-.049.089-.073.129l-.214.3v0Z" transform="translate(-1.627 -46.725)" fill="#c1e3fe"/>
        <path id="Trazado_66485" data-name="Trazado 66485" d="M6.361,58.169c0,.3-.11.463-.3.463-.171,0-.287-.161-.29-.45s.127-.456.3-.456.29.165.29.443m-.476.013c0,.228.07.357.178.357s.179-.142.179-.365-.055-.357-.178-.357c-.1,0-.179.126-.179.365" transform="translate(-4.662 -46.662)" fill="#c1e3fe"/>
        <path id="Trazado_66486" data-name="Trazado 66486" d="M2.729,34.333H2.395l-.034.225a.469.469,0,0,1,.071-.006.374.374,0,0,1,.189.047.25.25,0,0,1,.125.225.3.3,0,0,1-.326.3A.43.43,0,0,1,2.2,35.07l.03-.09a.394.394,0,0,0,.187.049.194.194,0,0,0,.208-.19c0-.113-.077-.194-.252-.194a.882.882,0,0,0-.121.009l.057-.42h.419Z" transform="translate(-1.78 -27.672)" fill="#c1e3fe"/>
        <path id="Trazado_66487" data-name="Trazado 66487" d="M6.361,34.6c0,.3-.11.462-.3.462-.171,0-.287-.16-.29-.45s.127-.456.3-.456.29.165.29.443m-.476.013c0,.228.07.357.178.357s.179-.142.179-.365-.055-.357-.178-.357c-.1,0-.179.126-.179.365" transform="translate(-4.662 -27.609)" fill="#c1e3fe"/>
        <path id="Trazado_66488" data-name="Trazado 66488" d="M2.661,10.686a.419.419,0,0,0-.089.006.356.356,0,0,0-.3.312h0a.267.267,0,0,1,.476.182.293.293,0,0,1-.291.308c-.187,0-.31-.145-.31-.373a.55.55,0,0,1,.148-.395.476.476,0,0,1,.281-.13.572.572,0,0,1,.086-.007Zm-.034.506a.178.178,0,0,0-.181-.2.2.2,0,0,0-.17.108.1.1,0,0,0-.014.053c0,.144.069.251.193.251.1,0,.171-.085.171-.21" transform="translate(-1.735 -8.56)" fill="#c1e3fe"/>
        <path id="Trazado_66489" data-name="Trazado 66489" d="M6.361,11.027c0,.3-.11.462-.3.462-.171,0-.287-.16-.29-.45s.127-.456.3-.456.29.165.29.444m-.476.013c0,.228.07.357.178.357s.179-.142.179-.365-.055-.357-.178-.357c-.1,0-.179.127-.179.365" transform="translate(-4.662 -8.555)" fill="#c1e3fe"/>
        <path id="Trazado_66490" data-name="Trazado 66490" d="M30.176,149.356h0l-.133.072-.02-.079.167-.089h.088v.766h-.1Z" transform="translate(-24.267 -120.653)" fill="#c1e3fe"/>
        <path id="Trazado_66491" data-name="Trazado 66491" d="M65.941,149.972v-.064l.081-.079c.2-.187.284-.285.285-.4a.137.137,0,0,0-.152-.15.261.261,0,0,0-.163.065l-.033-.073a.336.336,0,0,1,.217-.078.215.215,0,0,1,.235.223c0,.141-.1.256-.264.411l-.061.056v0h.344v.086Z" transform="translate(-53.303 -120.599)" fill="#c1e3fe"/>
        <path id="Trazado_66492" data-name="Trazado 66492" d="M102.237,149.853a.346.346,0,0,0,.17.048c.133,0,.174-.085.173-.148,0-.107-.1-.153-.2-.153h-.058v-.078h.058c.075,0,.171-.039.171-.13,0-.061-.039-.115-.134-.115a.281.281,0,0,0-.153.051l-.027-.075a.365.365,0,0,1,.2-.059c.151,0,.219.09.219.182a.19.19,0,0,1-.141.18v0a.2.2,0,0,1,.171.2c0,.122-.1.23-.279.23a.389.389,0,0,1-.2-.052Z" transform="translate(-82.62 -120.599)" fill="#c1e3fe"/>
        <path id="Trazado_66493" data-name="Trazado 66493" d="M138.685,150.026v-.209h-.356v-.069l.342-.489h.112v.476h.107v.081h-.107v.209Zm0-.29v-.255c0-.04,0-.08,0-.12h0c-.023.045-.042.078-.064.113l-.187.26v0Z" transform="translate(-111.817 -120.653)" fill="#c1e3fe"/>
        <path id="Trazado_66494" data-name="Trazado 66494" d="M175.236,149.347h-.292l-.03.2a.418.418,0,0,1,.062,0,.323.323,0,0,1,.165.041.218.218,0,0,1,.109.2.266.266,0,0,1-.285.262.374.374,0,0,1-.191-.047l.025-.079a.349.349,0,0,0,.164.042.169.169,0,0,0,.181-.166c0-.1-.067-.17-.22-.17a.8.8,0,0,0-.106.008l.05-.368h.366Z" transform="translate(-141.278 -120.653)" fill="#c1e3fe"/>
        <rect id="Rectángulo_26032" data-name="Rectángulo 26032" width="35.145" height="27.637" transform="translate(2.421 0.035)" fill="none" stroke="#c1e3fe" stroke-miterlimit="10" stroke-width="0.36"/>
        <line id="Línea_336" data-name="Línea 336" x2="35.145" transform="translate(2.421 23.066)" fill="none" stroke="#c1e3fe" stroke-miterlimit="10" stroke-width="0.36"/>
        <line id="Línea_337" data-name="Línea 337" x2="35.145" transform="translate(2.421 18.459)" fill="none" stroke="#c1e3fe" stroke-miterlimit="10" stroke-width="0.36"/>
        <line id="Línea_338" data-name="Línea 338" x2="35.145" transform="translate(2.421 13.853)" fill="none" stroke="#c1e3fe" stroke-miterlimit="10" stroke-width="0.36"/>
        <line id="Línea_339" data-name="Línea 339" x2="35.145" transform="translate(2.421 9.248)" fill="none" stroke="#c1e3fe" stroke-miterlimit="10" stroke-width="0.36"/>
        <line id="Línea_340" data-name="Línea 340" x2="35.145" transform="translate(2.421 4.641)" fill="none" stroke="#c1e3fe" stroke-miterlimit="10" stroke-width="0.36"/>
        <line id="Línea_341" data-name="Línea 341" y2="27.637" transform="translate(30.536 0.035)" fill="none" stroke="#c1e3fe" stroke-miterlimit="10" stroke-width="0.36"/>
        <line id="Línea_342" data-name="Línea 342" y2="27.637" transform="translate(23.508 0.035)" fill="none" stroke="#c1e3fe" stroke-miterlimit="10" stroke-width="0.36"/>
        <line id="Línea_343" data-name="Línea 343" y2="27.637" transform="translate(16.479 0.035)" fill="none" stroke="#c1e3fe" stroke-miterlimit="10" stroke-width="0.36"/>
        <line id="Línea_344" data-name="Línea 344" y2="27.637" transform="translate(9.45 0.035)" fill="none" stroke="#c1e3fe" stroke-miterlimit="10" stroke-width="0.36"/>
        <rect id="Rectángulo_26033" data-name="Rectángulo 26033" width="1.684" height="11.758" transform="translate(5.093 15.913)" fill="#0451db"/>
        <rect id="Rectángulo_26034" data-name="Rectángulo 26034" width="1.684" height="11.758" transform="translate(12.116 15.913)" fill="#c2deff"/>
        <rect id="Rectángulo_26035" data-name="Rectángulo 26035" width="1.685" height="11.758" transform="translate(19.138 15.913)" fill="#7ab6fe"/>
        <rect id="Rectángulo_26036" data-name="Rectángulo 26036" width="1.684" height="11.758" transform="translate(26.16 15.913)" fill="#0451db"/>
        <rect id="Rectángulo_26037" data-name="Rectángulo 26037" width="1.685" height="11.758" transform="translate(33.183 15.913)" fill="#7ab6fe"/>
        <rect id="Rectángulo_26038" data-name="Rectángulo 26038" width="1.684" height="2.06" transform="translate(5.093 13.853)" fill="#0451db"/>
        <rect id="Rectángulo_26039" data-name="Rectángulo 26039" width="1.684" height="9.065" transform="translate(12.116 6.848)" fill="#c2deff"/>
        <rect id="Rectángulo_26040" data-name="Rectángulo 26040" width="1.684" height="7.97" transform="translate(26.16 7.943)" fill="#0451db"/>
        <rect id="Rectángulo_26041" data-name="Rectángulo 26041" width="1.685" height="14.79" transform="translate(33.183 1.123)" fill="#7ab6fe"/>
        <path id="Trazado_66495" data-name="Trazado 66495" d="M39.151,40.255a1.895,1.895,0,1,1-1.895-1.9,1.894,1.894,0,0,1,1.895,1.9" transform="translate(-28.585 -31.007)" fill="#c2deff"/>
        <path id="Trazado_66496" data-name="Trazado 66496" d="M41,46.036v-.328h-.559V45.6l.537-.768h.176v.748h.168v.128H41.15v.328Zm0-.455v-.4c0-.063,0-.126.006-.189H41c-.037.07-.067.122-.1.178l-.294.409v0Z" transform="translate(-32.687 -36.24)" fill="#ecf6f8"/>
        <path id="Trazado_66497" data-name="Trazado 66497" d="M46.38,44.97H45.92l-.046.309a.681.681,0,0,1,.1-.007.511.511,0,0,1,.259.065.342.342,0,0,1,.172.309.417.417,0,0,1-.448.411.584.584,0,0,1-.3-.074l.041-.124a.538.538,0,0,0,.257.067.266.266,0,0,0,.285-.261c0-.155-.106-.267-.347-.267a1.234,1.234,0,0,0-.166.013l.078-.578h.576Z" transform="translate(-36.906 -36.24)" fill="#ecf6f8"/>
        <line id="Línea_345" data-name="Línea 345" x2="1.55" transform="translate(10.566 9.248)" fill="none" stroke="#c2deff" stroke-miterlimit="10" stroke-width="0.879"/>
        <path id="Trazado_66498" data-name="Trazado 66498" d="M149.205,16.222a1.895,1.895,0,1,1-1.9-1.895,1.895,1.895,0,0,1,1.9,1.895" transform="translate(-117.546 -11.581)" fill="#7ab6fe"/>
        <path id="Trazado_66499" data-name="Trazado 66499" d="M151.476,20.936h-.459l-.046.309a.715.715,0,0,1,.1-.007.512.512,0,0,1,.259.065.343.343,0,0,1,.172.309.417.417,0,0,1-.448.411.584.584,0,0,1-.3-.074l.041-.124a.54.54,0,0,0,.257.066.266.266,0,0,0,.285-.261c0-.155-.106-.267-.346-.267a1.279,1.279,0,0,0-.167.013l.078-.578h.576Z" transform="translate(-121.859 -16.813)" fill="#ecf6f8"/>
        <path id="Trazado_66500" data-name="Trazado 66500" d="M155.661,21.611a.344.344,0,0,1,.239-.322l0-.005a.3.3,0,0,1-.191-.27.337.337,0,0,1,.372-.32.311.311,0,0,1,.35.3.306.306,0,0,1-.2.281v.006a.333.333,0,0,1,.242.311.37.37,0,0,1-.409.35c-.252,0-.4-.15-.4-.326m.648-.007c0-.146-.1-.217-.264-.263a.261.261,0,0,0-.217.248.223.223,0,0,0,.241.23.218.218,0,0,0,.241-.215m-.448-.6c0,.12.091.185.229.222a.237.237,0,0,0,.183-.218.187.187,0,0,0-.2-.2.191.191,0,0,0-.209.193" transform="translate(-125.828 -16.727)" fill="#ecf6f8"/>
        <line id="Línea_346" data-name="Línea 346" x2="1.549" transform="translate(31.659 4.641)" fill="#7ab6fe"/>
        <line id="Línea_347" data-name="Línea 347" x2="1.549" transform="translate(31.659 4.641)" fill="none" stroke="#5ba9dd" stroke-miterlimit="10" stroke-width="0.879"/>
        <path id="Trazado_66501" data-name="Trazado 66501" d="M80.553,459.587a3.557,3.557,0,0,1-2.352-.85c-1.181-1.028-1.693-2.856-1.522-5.433a18.877,18.877,0,0,1,1.526-5.365c1.22-3.137,2.6-6.691,1.879-11.393l1.344-.207c.778,5.061-.738,8.959-1.956,12.092a17.675,17.675,0,0,0-1.436,4.962c-.139,2.089.222,3.578,1.045,4.306a2.255,2.255,0,0,0,1.8.5l.272,1.332a3.107,3.107,0,0,1-.6.051" transform="translate(-61.957 -352.713)" fill="#013e78"/>
        <path id="Trazado_66502" data-name="Trazado 66502" d="M109.7,613.888l1.324,2.017-11.116,3.561s-.742-.71,1.985-2.136c3.175-1.662,7.807-3.443,7.807-3.443" transform="translate(-80.686 -496.233)" fill="#88bdda"/>
        <path id="Trazado_66503" data-name="Trazado 66503" d="M156.108,613.888l-1.323,2.017,11.114,3.561s.743-.71-1.985-2.136c-3.175-1.662-7.806-3.443-7.806-3.443" transform="translate(-125.119 -496.233)" fill="#88bdda"/>
        <rect id="Rectángulo_26042" data-name="Rectángulo 26042" width="2.322" height="8.269" transform="translate(28.84 111.652)" fill="#88bdda"/>
        <path id="Trazado_66504" data-name="Trazado 66504" d="M114.928,616.106l1.133,1.925-9.514,3.4s-.636-.677,1.7-2.039a74.454,74.454,0,0,1,6.683-3.284" transform="translate(-86.062 -498.026)" fill="#acd5f4"/>
        <path id="Trazado_66505" data-name="Trazado 66505" d="M157.686,616.106l-1.132,1.925,9.515,3.4s.635-.677-1.7-2.039a74.366,74.366,0,0,0-6.684-3.284" transform="translate(-126.549 -498.026)" fill="#acd5f4"/>
        <path id="Trazado_66506" data-name="Trazado 66506" d="M105.692,644.467a.807.807,0,1,1-.807-.807.807.807,0,0,1,.807.807" transform="translate(-84.131 -520.299)" fill="#001f46"/>
        <path id="Trazado_66507" data-name="Trazado 66507" d="M201.882,644.467a.807.807,0,1,1-.808-.807.808.808,0,0,1,.808.807" transform="translate(-161.885 -520.299)" fill="#001f46"/>
        <path id="Trazado_66508" data-name="Trazado 66508" d="M95.5,644.467a.807.807,0,1,1-.807-.807.807.807,0,0,1,.807.807" transform="translate(-75.889 -520.299)" fill="#367082"/>
        <path id="Trazado_66509" data-name="Trazado 66509" d="M212.076,644.467a.807.807,0,1,1-.807-.807.807.807,0,0,1,.807.807" transform="translate(-170.126 -520.299)" fill="#367082"/>
        <rect id="Rectángulo_26043" data-name="Rectángulo 26043" width="1.699" height="2.974" transform="translate(29.123 108.621)" fill="#013e78"/>
        <path id="Trazado_66510" data-name="Trazado 66510" d="M149.55,551.567a1.657,1.657,0,0,1-1.657,1.657h-.934a1.657,1.657,0,0,1,0-3.313h.934a1.656,1.656,0,0,1,1.657,1.656" transform="translate(-117.454 -444.517)" fill="#013e78"/>
        <path id="Trazado_66511" data-name="Trazado 66511" d="M115.483,533.568c.04-.2.064-1.418.064-1.628a2.219,2.219,0,0,0-1.931-2.422H92.1a2.219,2.219,0,0,0-1.932,2.422c0,.21.024,1.433.064,1.628Z" transform="translate(-72.884 -428.033)" fill="#8cc3ff"/>
        <path id="Trazado_66512" data-name="Trazado 66512" d="M89.13,550.944c0,.41.239.741.535.741h24.71c.295,0,.535-.332.535-.741s-.24-.742-.535-.742H89.665c-.3,0-.535.332-.535.742" transform="translate(-72.048 -444.753)" fill="#013e78"/>
        <path id="Trazado_66513" data-name="Trazado 66513" d="M94.988,424.892c.531.039,3.9.1,4.485.105,3.692.044,6.873-.648,7.049-1.558a31.516,31.516,0,0,0,.1-11.435c-.157-.909-3.386-1.6-7.155-1.556-.593.007-4.036.067-4.577.107a30.935,30.935,0,0,1,.1,14.337" transform="translate(-76.701 -331.782)" fill="#8cc3ff"/>
        <path id="Trazado_66514" data-name="Trazado 66514" d="M90.021,411.011c-.413,0-.7.2-.644.439a30.889,30.889,0,0,1,.115,13.462c-.052.238.234.434.638.438s.779-.184.83-.422a30.951,30.951,0,0,0-.088-13.5c-.056-.239-.437-.427-.851-.422" transform="translate(-72.241 -332.238)" fill="#013e78"/>
        <path id="Trazado_66515" data-name="Trazado 66515" d="M91.427,425.108a8.955,8.955,0,0,0,.968.064,1.943,1.943,0,0,0,1.793-1.594,31.017,31.017,0,0,0-.051-11.261,1.982,1.982,0,0,0-1.837-1.594,9.455,9.455,0,0,0-.987.065,30.91,30.91,0,0,1,.114,14.32" transform="translate(-73.812 -332.006)" fill="#73a9ff"/>
        <path id="Trazado_66516" data-name="Trazado 66516" d="M149.257,442.113l-.011-.02.011-.634H175.5v.634s0,.013,0,.02l-.067.118a1.724,1.724,0,0,1-1.635.648H150.96a1.725,1.725,0,0,1-1.635-.648Z" transform="translate(-120.642 -356.851)" fill="#d0dee6"/>
        <path id="Trazado_66517" data-name="Trazado 66517" d="M156.629,443.268a.023.023,0,0,1,0,.017l-.065.1a1.066,1.066,0,0,1-.384.323h-3.991a1.818,1.818,0,0,1-1.573-.524l-.063-.1-.012-.016.007-.312h6.081Z" transform="translate(-121.689 -357.898)" fill="#b6c2c9"/>
        <rect id="Rectángulo_26044" data-name="Rectángulo 26044" width="13.114" height="0.448" transform="translate(38.482 84.755)" fill="#b6c2c9"/>
        <path id="Trazado_66518" data-name="Trazado 66518" d="M183.064,384.346l3.4-12.9a.856.856,0,0,1,.778-.617h18.413a.459.459,0,0,1,.453.617l-3.4,12.9Z" transform="translate(-147.979 -299.76)" fill="#d7dfe2"/>
        <path id="Trazado_66519" data-name="Trazado 66519" d="M237.22,401.053a.888.888,0,0,0,.877,1.192,1.66,1.66,0,0,0,1.507-1.192.888.888,0,0,0-.878-1.194,1.659,1.659,0,0,0-1.507,1.194" transform="translate(-191.722 -323.224)" fill="#b6c2c9"/>
        <path id="Trazado_66520" data-name="Trazado 66520" d="M437.531,498.977h2.687l-4.432-42.924H431.89Z" transform="translate(-349.116 -368.647)" fill="#0253a2"/>
        <path id="Trazado_66521" data-name="Trazado 66521" d="M433.243,458.031l1.709,13,2.026-14.009-.1-.969h-3.4Z" transform="translate(-350.209 -368.647)" fill="#013e78"/>
        <path id="Trazado_66522" data-name="Trazado 66522" d="M249.748,498.977h2.686L248,456.052h-3.895Z" transform="translate(-197.322 -368.647)" fill="#0253a2"/>
        <path id="Trazado_66523" data-name="Trazado 66523" d="M245.464,458.031l1.708,13,2.027-14.009-.1-.969h-3.4Z" transform="translate(-198.419 -368.647)" fill="#013e78"/>
        <path id="Trazado_66524" data-name="Trazado 66524" d="M115.054,498.977h-2.687l4.432-42.924h3.9Z" transform="translate(-90.832 -368.647)" fill="#0253a2"/>
        <path id="Trazado_66525" data-name="Trazado 66525" d="M132.473,458.031l-5.213,13.247,1.478-14.257.1-.969h3.4Z" transform="translate(-102.87 -368.647)" fill="#013e78"/>
        <rect id="Rectángulo_26045" data-name="Rectángulo 26045" width="32.386" height="2.509" transform="translate(22.208 86.011)" fill="#387bff"/>
        <rect id="Rectángulo_26046" data-name="Rectángulo 26046" width="36.775" height="2.509" transform="translate(53.097 86.011)" fill="#8cc3ff"/>
        <path id="Trazado_66526" data-name="Trazado 66526" d="M426.333,41.154a2.465,2.465,0,0,0,2.465,2.465h1.643v5.753l5.753-5.753h18.9a2.465,2.465,0,0,0,2.466-2.465V20.61a2.466,2.466,0,0,0-2.466-2.466H428.8a2.466,2.466,0,0,0-2.465,2.466Z" transform="translate(-344.624 -14.667)" fill="#fec00f"/>
        <rect id="Rectángulo_26047" data-name="Rectángulo 26047" width="21.365" height="1.643" transform="translate(86.64 10.874)" fill="#fff"/>
        <rect id="Rectángulo_26048" data-name="Rectángulo 26048" width="21.365" height="1.643" transform="translate(86.64 14.982)" fill="#fff"/>
        <rect id="Rectángulo_26049" data-name="Rectángulo 26049" width="21.365" height="1.643" transform="translate(86.64 19.091)" fill="#fff"/>
        <path id="Trazado_66527" data-name="Trazado 66527" d="M381.5,512.211c-.431-.265-1.905,1.376-2.531,2.829a25.618,25.618,0,0,0-2.019,7.562c-.755,4.98-2.032,12.89-2.454,16.257-.38,3.035-1.6,6.623.223,6.117-.028-4.165,1.887-10.446,3-13.744,3.793-11.263,5.11-18.209,3.783-19.021" transform="translate(-302.114 -414.02)" fill="#e9d6b8"/>
        <path id="Trazado_66528" data-name="Trazado 66528" d="M356.185,509.411q.242-1.2.494-2.359c.564-1.128,1.058-1.721,1.435-1.632,1.423.334,2.712,6.771-1.76,22.06-.224.769-3.225,14.1-3.2,13.768.517-8.556.642-19.989,3.036-31.837" transform="translate(-285.465 -408.546)" fill="#e9d6b8"/>
        <path id="Trazado_66529" data-name="Trazado 66529" d="M342.542,683.951c-.772,1.562-1.733,2.662-2.145,2.457s-.122-1.635.651-3.2,1.733-2.663,2.145-2.458.122,1.636-.651,3.2" transform="translate(-275.006 -550.263)" fill="#7dc2f5"/>
        <path id="Trazado_66530" data-name="Trazado 66530" d="M345.683,676.206c-.4,1.223-1.235,2.107-1.649,1.9s-.261-1.252.359-2.378c.784-1.423,1.084-1.832,1.151-2.852.062-.958,1.626-1.269.138,3.327" transform="translate(-277.911 -543.444)" fill="#e9d6b8"/>
        <path id="Trazado_66531" data-name="Trazado 66531" d="M377.1,671.3a8.6,8.6,0,0,0-1.555-.394c-.667-.126-1.173-.122-1.414-.373-.4-.413-.176-1.416-.37-1.37-.945.217-1.272,2.426-.72,2.7s3.665-.092,3.921-.112.216-.512.138-.452" transform="translate(-301.325 -540.916)" fill="#e9d6b8"/>
        <path id="Trazado_66532" data-name="Trazado 66532" d="M376.259,679.275c.176.744-2.106.444-2.7.25a6.942,6.942,0,0,0-.924-.242c-.024,0-.046,0-.071,0a.458.458,0,0,0-.008.054c0,.408-.179.952.473.952h4.092c3.345,0-.87-1.026-.866-1.008" transform="translate(-301.138 -549.088)" fill="#7dc2f5"/>
        <path id="Trazado_66533" data-name="Trazado 66533" d="M386.021,187.191l-.878-6.067a4.621,4.621,0,0,0-3.989-1.587c-2.8.405-4.628,3.759-4.088,7.492s3.247,6.43,6.044,6.025c1.958-.284,3.44-2.013,3.97-4.3a2.211,2.211,0,0,1-1.059-1.562" transform="translate(-304.723 -145.095)" fill="#163f59"/>
        <path id="Trazado_66534" data-name="Trazado 66534" d="M366.18,194.275c-.106.97.915,1.877,2.282,2.027l3.117.344c1.367.15,2.562-.513,2.667-1.484l.974-8.842c.108-.97-.914-1.877-2.281-2.028l-3.118-.342c-1.367-.152-2.561.514-2.667,1.482Z" transform="translate(-295.993 -148.677)" fill="#163f59"/>
        <path id="Trazado_66535" data-name="Trazado 66535" d="M372.9,232.578c1.849.8,2.774.55,1.361,1.146-.679.831-9.357-.327-9.83-1.4-.078-.182,3.445-.7,3.464-.833a11.161,11.161,0,0,0-.136-4.628.26.26,0,0,1,.232-.243c.658.019,1.32.025,1.981.043.109.006,1.4.291,1.115.911-.141,1.7-.143,4.16,1.812,5.007" transform="translate(-294.584 -183.185)" fill="#e9d6b8"/>
        <path id="Trazado_66536" data-name="Trazado 66536" d="M387.94,199.983c.03-.061.059-.124.087-.187.007-.019.017-.037.026-.058.035-.077.068-.158.1-.242.009-.022.016-.044.024-.066.023-.062.046-.124.067-.188.012-.034.025-.07.036-.105l.052-.164c.012-.037.022-.076.034-.114.021-.072.038-.145.059-.219.014-.054.027-.109.04-.167s.025-.1.036-.152.021-.1.032-.157.018-.089.026-.136.014-.072.022-.109v0a16.511,16.511,0,0,0-.606-5.006.454.454,0,0,0-.5-.278c-1.525.17-6.172-.045-4.972,4.19v0c0,.01.07.375.106.541,0,.016.007.029.01.043.038.168.077.334.122.5,0,.012.006.021.009.032.046.164.094.324.146.48a.045.045,0,0,0,.005.016c.665,2,1.83,3.314,3.064,3.228a2.421,2.421,0,0,0,1.826-1.4h0a.146.146,0,0,0,.01-.02c.036-.063.072-.129.105-.2l.03-.059" transform="translate(-309.036 -155.71)" fill="#e9d6b8"/>
        <path id="Trazado_66537" data-name="Trazado 66537" d="M275.828,233.183s-.323.155-.459-.091a5.019,5.019,0,0,1-.317-1.662c-.016-.368.2-2.116.2-2.116a2.05,2.05,0,0,1,.273,1.251,8.882,8.882,0,0,0,.305,2.617" transform="translate(-222.336 -185.365)" fill="#e9d6b8"/>
        <path id="Trazado_66538" data-name="Trazado 66538" d="M276.332,233.5a2.583,2.583,0,0,1,.252-2.195,1.511,1.511,0,0,0,.1-1.3,10.594,10.594,0,0,0-.745,1.795,3.275,3.275,0,0,0-.225,1.155c.044,1.156,1.373,2.079.615.547" transform="translate(-222.873 -185.918)" fill="#e9d6b8"/>
        <path id="Trazado_66539" data-name="Trazado 66539" d="M323.572,286.227c-1.688,1.247-3.182,5.632-4.341,8.409a5.1,5.1,0,0,0-.413,2.747s.573,3.67,4.944-6.333c1.1-2.5.444-5.291-.19-4.824" transform="translate(-257.679 -231.328)" fill="#e9d6b8"/>
        <path id="Trazado_66540" data-name="Trazado 66540" d="M277,241.822l-.283.18-.19,1.132a12.973,12.973,0,0,0,.975,2.691c.465.686,2.337,6.094,2.647,6.335.549.427,1.637-1.041,1.637-1.041s-2.383-3.782-2.865-5a28.415,28.415,0,0,1-.746-3.663,13,13,0,0,1-.4-1.259s-.419.218-.034,1.538c.1.348-.342.276-.342.276Z" transform="translate(-223.531 -194.973)" fill="#e9d6b8"/>
        <path id="Trazado_66541" data-name="Trazado 66541" d="M357.169,263.165l11.582-.1,1.416-13.246-13.744,1.305Z" transform="translate(-288.113 -201.941)" fill="#f99b1c"/>
        <path id="Trazado_66542" data-name="Trazado 66542" d="M359.544,357.35c-5.7.892-6.725.135-13.269-.8-.619.01-3.271-6.361-1.4-23.164.385-3.463,3-6.244,2.4-15.643q5.84-.115,11.679-.226c-1.55,8.544,7.7,9.871.592,39.832" transform="translate(-278.244 -256.664)" fill="#f99b1c"/>
        <path id="Trazado_66543" data-name="Trazado 66543" d="M419.3,266.493l-1.644-11.613.4-4.683a1.718,1.718,0,0,1,1-.5l.262-.033a1.946,1.946,0,0,1,2.036,1.908l1.292,15.9Z" transform="translate(-337.608 -201.803)" fill="#dbe7f3"/>
      </g>
    </g>
    <g id="Grupo_25206" data-name="Grupo 25206" transform="translate(60.935 49.174)">
      <g id="Grupo_25205" data-name="Grupo 25205" clip-path="url(#clip-path-7)">
        <rect id="Rectángulo_26051" data-name="Rectángulo 26051" width="9.087" height="16.94" transform="translate(0 0)" fill="url(#linear-gradient)"/>
      </g>
    </g>
    <g id="Grupo_25208" data-name="Grupo 25208">
      <g id="Grupo_25207" data-name="Grupo 25207" clip-path="url(#clip-path)">
        <path id="Trazado_66545" data-name="Trazado 66545" d="M277.7,237.45a3.457,3.457,0,0,1-.159-1.513c.113-.351.916-1.919.916-1.919a2.064,2.064,0,0,1-.175,1.269,7.014,7.014,0,0,0-.582,2.164" transform="translate(-224.312 -189.166)" fill="#e9d6b8"/>
        <path id="Trazado_66546" data-name="Trazado 66546" d="M280.468,248.868s.294.068.391-.025a1.712,1.712,0,0,1-.029.276c-.019.175.077,1.361.077,1.361a9.693,9.693,0,0,0-.356-1.072,4.842,4.842,0,0,1-.23-.8c-.009-.036.006-.1,0-.17Z" transform="translate(-226.594 -200.827)" fill="#e9d6b8"/>
        <path id="Trazado_66547" data-name="Trazado 66547" d="M281.694,243.167c-.259-.887-.154-1.275-.058-1.436.058.21.162.545.327,1.011a6.213,6.213,0,0,1,.17.949,1.62,1.62,0,0,0-.422.875c-.022.129-.259-.646-.3-1.118.117,0,.359-.013.282-.28" transform="translate(-227.478 -195.402)" fill="#e9d6b8"/>
        <path id="Trazado_66548" data-name="Trazado 66548" d="M372.028,191.748a2.21,2.21,0,0,1-1.058-1.563l-.878-6.066c-.054-.056-.11-.1-.164-.157l-.107-.012c-1.367-.152-2.561.514-2.667,1.482l-.974,8.843a1.9,1.9,0,0,0,1.413,1.809,3.7,3.7,0,0,0,.467-.036c1.957-.283,3.44-2.011,3.969-4.3" transform="translate(-295.992 -148.677)" fill="#163f59"/>
      </g>
    </g>
    <g id="Grupo_25210" data-name="Grupo 25210" transform="translate(75.962 47.891)">
      <g id="Grupo_25209" data-name="Grupo 25209" clip-path="url(#clip-path-9)">
        <rect id="Rectángulo_26053" data-name="Rectángulo 26053" width="9.374" height="50.836" transform="translate(0 0)" fill="url(#linear-gradient-2)"/>
      </g>
    </g>
    <g id="Grupo_25212" data-name="Grupo 25212">
      <g id="Grupo_25211" data-name="Grupo 25211" clip-path="url(#clip-path)">
        <path id="Trazado_66550" data-name="Trazado 66550" d="M399.058,249.62l1.785-.149-.006,2.727-1.035,1.29.446,1.339-1.488,5.952v11.754s-1.934-10.414-1.339-12.5,1.637-10.416,1.637-10.416" transform="translate(-321.161 -201.659)" fill="#e7f5fe"/>
      </g>
    </g>
    <g id="Grupo_25214" data-name="Grupo 25214" transform="translate(64.386 48.705)">
      <g id="Grupo_25213" data-name="Grupo 25213" clip-path="url(#clip-path-11)">
        <rect id="Rectángulo_26055" data-name="Rectángulo 26055" width="9.493" height="50.021" transform="translate(0 0)" fill="url(#linear-gradient-3)"/>
      </g>
    </g>
    <g id="Grupo_25216" data-name="Grupo 25216">
      <g id="Grupo_25215" data-name="Grupo 25215" clip-path="url(#clip-path)">
        <path id="Trazado_66552" data-name="Trazado 66552" d="M370.632,251.8l1.488,10.118-.744,16.069-1.19-17.111-1.488-3.72.446-1.339-.744-.744.6-3.273Z" transform="translate(-297.794 -203.54)" fill="#e7f5fe"/>
        <path id="Trazado_66553" data-name="Trazado 66553" d="M363.818,269.313l12.116-1.212L371.8,283.873l-11.159,1.19Z" transform="translate(-291.519 -216.718)" fill="#6595bf"/>
        <path id="Trazado_66554" data-name="Trazado 66554" d="M400.023,274.9c-1.366-2.113-.989-3.637-1.23-4.665a18.724,18.724,0,0,1-.334-2.153c-.52,1-.1,1.7-.146,2.209s.031.336-.508-.382c-.307-.411-.1-1.6-.075-2.385a2.129,2.129,0,0,0-.136-.99,10.3,10.3,0,0,0-.451,2.045,12.785,12.785,0,0,0,.049,2.978,10.746,10.746,0,0,0,1.772,2.924c.873,1.046,2.046,1.941,1.058.419" transform="translate(-320.978 -215.449)" fill="#e9d6b8"/>
        <path id="Trazado_66555" data-name="Trazado 66555" d="M407.52,305.743c-2.976-3.571-6.923-7.642-6.923-7.642l5.417,9.279s2.993.147,1.506-1.638" transform="translate(-323.82 -240.968)" fill="#e9d6b8"/>
        <path id="Trazado_66556" data-name="Trazado 66556" d="M421.629,321.571s1.919,2.58.19,3.535a1.647,1.647,0,0,1-2.335-.588c-1.049-1.468-2.158-3.19-2.158-3.19l1.869-2.446Z" transform="translate(-337.343 -257.766)" fill="#dbe7f3"/>
        <path id="Trazado_66557" data-name="Trazado 66557" d="M395.2,271.734a14.73,14.73,0,0,1-.526-2.3c.024-.283.36-1.6.36-1.6a2.637,2.637,0,0,1,.157,1.212,21.889,21.889,0,0,0,.009,2.683" transform="translate(-319.029 -216.506)" fill="#e2c59c"/>
      </g>
    </g>
    <g id="Grupo_25218" data-name="Grupo 25218" transform="translate(55.85 55.103)">
      <g id="Grupo_25217" data-name="Grupo 25217" clip-path="url(#clip-path-13)">
        <rect id="Rectángulo_26057" data-name="Rectángulo 26057" width="8.184" height="12.796" transform="translate(-0.272 0)" fill="url(#linear-gradient-4)"/>
      </g>
    </g>
    <g id="Grupo_25220" data-name="Grupo 25220">
      <g id="Grupo_25219" data-name="Grupo 25219" clip-path="url(#clip-path)">
        <path id="Trazado_66559" data-name="Trazado 66559" d="M676.075,81.675v2.559L673.2,81.675H662a1.279,1.279,0,0,1-1.28-1.279V64.4a1.28,1.28,0,0,1,1.28-1.28h17.914a1.28,1.28,0,0,1,1.28,1.28V80.4a1.28,1.28,0,0,1-1.28,1.279H678" transform="translate(-534.091 -51.024)" fill="#7dc2f5"/>
        <path id="Trazado_66560" data-name="Trazado 66560" d="M718.712,97.854l-1.72-1.72V92.768h1.047V95.7l1.413,1.413Z" transform="translate(-579.576 -74.988)" fill="#fff"/>
        <rect id="Rectángulo_26058" data-name="Rectángulo 26058" width="5.759" height="1.047" transform="translate(130.086 19.873)" fill="#fff"/>
        <path id="Trazado_66561" data-name="Trazado 66561" d="M695.249,103.916a4.691,4.691,0,0,0-.11,1,4.935,4.935,0,0,0,.03.524h1.058a3.5,3.5,0,0,1,.1-1.528Z" transform="translate(-561.911 -84)" fill="#fff"/>
        <path id="Trazado_66562" data-name="Trazado 66562" d="M701.01,84.569a4.715,4.715,0,0,0-4.237,2.661h1.2a3.668,3.668,0,1,1-.27,3.622h-1.131a4.71,4.71,0,1,0,4.437-6.283" transform="translate(-563.071 -68.361)" fill="#fff"/>
        <rect id="Rectángulo_26059" data-name="Rectángulo 26059" width="5.236" height="1.048" transform="translate(131.657 22.491)" fill="#fff"/>
        <rect id="Rectángulo_26060" data-name="Rectángulo 26060" width="1.571" height="1.047" transform="translate(131.133 17.256)" fill="#fff"/>
        <path id="Trazado_66563" data-name="Trazado 66563" d="M804.436,295.68h-19.63a53.677,53.677,0,0,1,2.035,17.595c-.378,8.08-2.648,15.424-6.5,20.909H808.9c-3.851-5.484-6.122-12.829-6.5-20.909a53.949,53.949,0,0,1,2.037-17.595" transform="translate(-630.786 -239.011)" fill="#194866"/>
        <path id="Trazado_66564" data-name="Trazado 66564" d="M802.393,495.732a1.86,1.86,0,0,1-1.863,1.86H771.654a1.862,1.862,0,1,1,0-3.724H800.53a1.863,1.863,0,0,1,1.863,1.864" transform="translate(-622.257 -399.215)" fill="#163f59"/>
        <path id="Trazado_66565" data-name="Trazado 66565" d="M770.658,619.933a1.862,1.862,0,0,1-1.864,1.863h-48.6a1.863,1.863,0,1,1,0-3.726h48.6a1.864,1.864,0,0,1,1.864,1.862" transform="translate(-580.658 -499.614)" fill="#163f59"/>
        <path id="Trazado_66566" data-name="Trazado 66566" d="M813.672,282.961a1.863,1.863,0,0,1-1.865,1.864H789.946a1.863,1.863,0,0,1,0-3.727h21.862a1.864,1.864,0,0,1,1.865,1.863" transform="translate(-637.042 -227.224)" fill="#163f59"/>
        <path id="Trazado_66567" data-name="Trazado 66567" d="M838.59,153.9a1.862,1.862,0,0,1-1.863,1.866h-6.378a1.863,1.863,0,0,1,0-3.725h6.378a1.861,1.861,0,0,1,1.863,1.859" transform="translate(-669.702 -122.905)" fill="#163f59"/>
        <path id="Trazado_66568" data-name="Trazado 66568" d="M821.853,250.006a1.864,1.864,0,0,1-1.863,1.86H803.214a1.863,1.863,0,1,1,0-3.727H819.99a1.863,1.863,0,0,1,1.863,1.867" transform="translate(-647.766 -200.582)" fill="#163f59"/>
        <path id="Trazado_66569" data-name="Trazado 66569" d="M758.283,503.054a17.23,17.23,0,0,0-5.588.932,17.268,17.268,0,0,0-5.591-.932c-10.287,0-18.629,9.082-18.629,20.285a22.554,22.554,0,0,0,.193,2.9H776.72a22.2,22.2,0,0,0,.19-2.9c0-11.2-8.339-20.285-18.628-20.285" transform="translate(-588.858 -406.641)" fill="#194866"/>
        <path id="Trazado_66570" data-name="Trazado 66570" d="M839.528,111.945a4.761,4.761,0,1,1-4.762-4.764,4.761,4.761,0,0,1,4.762,4.764" transform="translate(-670.93 -86.639)" fill="#194866"/>
        <path id="Trazado_66571" data-name="Trazado 66571" d="M850.16,111.635a4.741,4.741,0,1,0,2.054,3.91,4.744,4.744,0,0,0-2.054-3.91" transform="translate(-683.616 -90.239)" fill="#163f59"/>
        <path id="Trazado_66572" data-name="Trazado 66572" d="M798.228,166.062c.072,2-7.867,4.248-17.592,4.551-9.724-.3-17.664-2.546-17.594-4.551,0-1.927,7.4-8.993,17.594-9.223,10.2.23,17.595,7.3,17.592,9.223" transform="translate(-616.799 -126.78)" fill="#194866"/>
        <path id="Trazado_66573" data-name="Trazado 66573" d="M798.149,185.746c.009.978-4.612,16.119-17.592,16.714-12.981-.595-17.6-15.736-17.594-16.714-.471-1.19,7.829-3.757,17.594-4.556,9.763.8,18.066,3.365,17.592,4.556" transform="translate(-616.72 -146.464)" fill="#163f59"/>
        <path id="Trazado_66574" data-name="Trazado 66574" d="M818.363,267.822a1.861,1.861,0,0,1-1.862,1.861H797.549a1.862,1.862,0,1,1,0-3.725H816.5a1.863,1.863,0,0,1,1.862,1.863" transform="translate(-643.188 -214.986)" fill="#163f59"/>
        <path id="Trazado_66575" data-name="Trazado 66575" d="M862.561,317.206a54.04,54.04,0,0,1,1.784-16.663h-9.574v37.052H868.73c-3.637-5.425-5.8-12.553-6.169-20.389" transform="translate(-690.949 -242.942)" fill="#163f59"/>
        <path id="Trazado_66576" data-name="Trazado 66576" d="M860.374,495.628a17.268,17.268,0,0,1,7.957,1.964h.892a1.862,1.862,0,1,0,0-3.724H854.772v2.689a.023.023,0,0,0,.014,0,17.229,17.229,0,0,1,5.588-.932" transform="translate(-690.95 -399.215)" fill="#163f59"/>
        <path id="Trazado_66577" data-name="Trazado 66577" d="M879.086,618.071h-.16c-.03.383-.064.763-.114,1.142h-24.04V621.8h24.314a1.863,1.863,0,1,0,0-3.725" transform="translate(-690.95 -499.614)" fill="#163f59"/>
        <path id="Trazado_66578" data-name="Trazado 66578" d="M865.714,284.863a1.86,1.86,0,0,0,.088-3.718,1.866,1.866,0,0,1-1.541.814H860.4a15.76,15.76,0,0,1-5.619,1.3h-.014v1.605h10.943Z" transform="translate(-690.949 -227.262)" fill="#163f59"/>
        <path id="Trazado_66579" data-name="Trazado 66579" d="M859.977,153.651a1.853,1.853,0,0,0-1.837-1.606h-.391a4.708,4.708,0,0,1-2.772.922,23.227,23.227,0,0,1,5,.684" transform="translate(-691.115 -122.905)" fill="#163f59"/>
        <path id="Trazado_66580" data-name="Trazado 66580" d="M884.165,271.332h3.857A1.855,1.855,0,0,0,889.148,268a17.424,17.424,0,0,1-4.984,3.334" transform="translate(-714.709 -216.634)" fill="#163f59"/>
        <path id="Trazado_66581" data-name="Trazado 66581" d="M878.811,526.239c.05-.379.084-.759.114-1.142.045-.579.077-1.163.077-1.759a20.465,20.465,0,0,0-10.671-18.321,17.151,17.151,0,0,0-13.545-1.032.023.023,0,0,1-.014,0v22.258h24.04Z" transform="translate(-690.949 -406.64)" fill="#163f59"/>
        <path id="Trazado_66582" data-name="Trazado 66582" d="M872.317,165.759c-.51-1.845-5.405-6.483-12.506-8.233a23.233,23.233,0,0,0-5-.684c-.009,0-.018,0-.026,0a.024.024,0,0,0-.014,0v4.666l.014,0c9.012.736,16.759,2.977,17.532,4.253" transform="translate(-690.949 -126.78)" fill="#163f59"/>
        <path id="Trazado_66583" data-name="Trazado 66583" d="M860.4,201.161a17.419,17.419,0,0,0,4.984-3.334,25.766,25.766,0,0,0,6.99-12.082.332.332,0,0,0-.06-.3c-.773-1.276-8.521-3.517-17.532-4.253l-.014,0v21.267h.014a15.757,15.757,0,0,0,5.619-1.3" transform="translate(-690.949 -146.464)" fill="#163f59"/>
        <path id="Trazado_66584" data-name="Trazado 66584" d="M813.672,282.961a1.863,1.863,0,0,1-1.865,1.864H789.946a1.863,1.863,0,0,1,0-3.727h21.862a1.864,1.864,0,0,1,1.865,1.863" transform="translate(-637.042 -227.224)" fill="#194866"/>
        <path id="Trazado_66585" data-name="Trazado 66585" d="M849.908,287.709a1.858,1.858,0,0,0,.269.953h11.607a1.856,1.856,0,0,0,1.6-2.817H851.77a1.864,1.864,0,0,0-1.862,1.864" transform="translate(-687.018 -231.061)" fill="#163f59"/>
        <path id="Trazado_66586" data-name="Trazado 66586" d="M802.393,495.732a1.86,1.86,0,0,1-1.863,1.86H771.654a1.862,1.862,0,1,1,0-3.724H800.53a1.863,1.863,0,0,1,1.863,1.864" transform="translate(-622.257 -399.215)" fill="#194866"/>
        <path id="Trazado_66587" data-name="Trazado 66587" d="M867.156,499.566a1.877,1.877,0,0,0-.269-.955H851.771a1.854,1.854,0,0,0-1.593,2.815h15.115a1.86,1.86,0,0,0,1.863-1.86" transform="translate(-687.019 -403.049)" fill="#163f59"/>
        <path id="Trazado_66588" data-name="Trazado 66588" d="M867.156,623.767a1.871,1.871,0,0,0-.269-.953H851.771a1.855,1.855,0,0,0-1.593,2.817h15.115a1.862,1.862,0,0,0,1.863-1.863" transform="translate(-687.019 -503.448)" fill="#163f59"/>
        <path id="Trazado_66589" data-name="Trazado 66589" d="M807.666,270.4a.631.631,0,0,1-.633.63H800.6a.631.631,0,1,1,0-1.262h6.434a.635.635,0,0,1,.633.632" transform="translate(-646.648 -218.065)" fill="#194866"/>
        <path id="Trazado_66590" data-name="Trazado 66590" d="M687.776,491.9c2.028.511,5.764,2.327,6.547,5.435,1.173,4.667-1.176,11.516,2.544,18.216,1.187,2.135-20.549,5.006-20.549,5.006l-4.194-23.577s5.24-5.117,6.311-5.462c2.219-.714,5.29-.637,9.342.382" transform="translate(-543.307 -396.936)" fill="#8dcfff"/>
        <path id="Trazado_66591" data-name="Trazado 66591" d="M665.576,521.877c-.755,1.885-2.661,13.093-.535,15.735.245.3-1.1.78-.859,2.174.04.233.448,1.345.448,1.345l1.736.453,5.25-2.988-1.007-1.224-.476.01a1.072,1.072,0,0,1-.324-.934c.124-.513-1.2-1.349-3.213-10.047-.59-2.561-.855-4.94-1.021-4.525" transform="translate(-536.794 -421.817)" fill="#7dc2f5"/>
        <path id="Trazado_66592" data-name="Trazado 66592" d="M674.981,599.542l1.553-.342.629-.1a1.154,1.154,0,0,0,.345.744l-1.2.038-1.41.3-1.7.971Z" transform="translate(-544.169 -484.279)" fill="#ecb60d"/>
        <path id="Trazado_66593" data-name="Trazado 66593" d="M680.22,608.96a4.652,4.652,0,0,0-2.224.615c-.777.48-1.494,1.522-.779,2.086a11.593,11.593,0,0,0,1.818,1.091s2.733.074,1.184-3.791" transform="translate(-547.187 -492.249)" fill="#c4d1e1"/>
        <path id="Trazado_66594" data-name="Trazado 66594" d="M677.471,622.13l.732-.157a13.765,13.765,0,0,1,2.875-.031c.359.2,1.514.978,1.514.978l.238.219a1.215,1.215,0,0,1-1.319-.181c-.76-.529-.823-.122-.823-.122l.127.671-.009.858.117.359s.106.2.022.268a.472.472,0,0,1-.477.109l-.766-1.338-.208,1.455a.537.537,0,0,1-.344.249c-.225.047-.226-.011-.226-.011l-.173-.371a.46.46,0,0,1-.152.256.739.739,0,0,1-.457.129l.071-1.532-.314.777a.58.58,0,0,1-.344.249c-.254.061-.323.079-.323.079Z" transform="translate(-547.436 -502.679)" fill="#e4eef3"/>
        <path id="Trazado_66595" data-name="Trazado 66595" d="M716.126,584.556s-1.829,4.63-6.22,5.87c-.761.214-1.227,1.035-.861,1.3a3.7,3.7,0,0,0,2.215.409,11.233,11.233,0,0,0,7.583-2.811c3.2-3.1,4.207-4.5,3.883-6.062s-6.6,1.3-6.6,1.3" transform="translate(-573.05 -471.097)" fill="#e9d6b8"/>
        <path id="Trazado_66596" data-name="Trazado 66596" d="M745.607,509.067c.929,1.529,1.466,3.984,1.46,7.5-.007,2.718-2.352,7.171-2.712,8.539-.061.228-.2,1.208-.2,1.208l-2.6,2.551-5.214-3.533,1.585-2.434.473.049a8.039,8.039,0,0,0,.22-1.864c-.082-.523,1.444-7.536,2.2-12.031.434-2.59,3.871-1.5,4.793.019" transform="translate(-595.214 -410.227)" fill="#7dc2f5"/>
        <path id="Trazado_66597" data-name="Trazado 66597" d="M749.618,585.029l-1.519-.472-.618-.152a1.147,1.147,0,0,1-.407.712l1.2.137,1.38.421,1.617,1.111Z" transform="translate(-603.893 -472.4)" fill="#8dcfff"/>
        <path id="Trazado_66598" data-name="Trazado 66598" d="M701.971,619.465l-2.655-.727s-.753,1.009-.61,1.261a7.071,7.071,0,0,1,0,1.743l1.287,1.094,1.048-.349s.072-.456-.287-.5.242-.306.43-.412,1.727-.9.789-2.112" transform="translate(-564.781 -500.153)" fill="#e9d6b8"/>
        <path id="Trazado_66599" data-name="Trazado 66599" d="M711.724,473.59a1.628,1.628,0,0,1-.995,2.069l-1.508.529a1.627,1.627,0,0,1-2.069-.995l-1.341-3.828a1.628,1.628,0,0,1,.995-2.069l1.507-.529a1.628,1.628,0,0,1,2.069.995Z" transform="translate(-570.465 -378.852)" fill="#e4eef3"/>
        <path id="Trazado_66600" data-name="Trazado 66600" d="M694.754,472.594a1.048,1.048,0,0,0,1.288.73l4.547-1.252a1.049,1.049,0,0,0,.732-1.289l-1.856-6.735a1.047,1.047,0,0,0-1.289-.731l-4.546,1.252a1.049,1.049,0,0,0-.732,1.289Z" transform="translate(-560.069 -374.489)" fill="#e9d6b8"/>
        <path id="Trazado_66601" data-name="Trazado 66601" d="M690.466,473.5a4.028,4.028,0,0,1-1.013-.853,1.571,1.571,0,0,1,.3-1.441c.424-.434,1,0,1,0s-.683.671-.679.851.4,1.445.4,1.445" transform="translate(-557.261 -380.74)" fill="#163f59"/>
        <path id="Trazado_66602" data-name="Trazado 66602" d="M698.352,460.769a15.492,15.492,0,0,0-.362-3.5c-.335-.725-.564-1.227-1.514-1.057-1.42.257-1.355.557-2.145.32a20.931,20.931,0,0,0-2.725-.9,1.44,1.44,0,0,0-1.447,1.87,1.5,1.5,0,0,1-.282,1.406c.085.1.371.144.872.242a3.975,3.975,0,0,0,3.128-.318c.9-.519,2.55-1.563,2.958-.907s.927,2.871,1.058,3.016.325,0,.459-.173" transform="translate(-557.658 -368.308)" fill="#194866"/>
        <path id="Trazado_66603" data-name="Trazado 66603" d="M727.393,484.458a.35.35,0,0,0,.43.244l.983-.271a.349.349,0,0,0,.244-.429l-.5-1.8a.35.35,0,0,0-.43-.244l-.982.271a.35.35,0,0,0-.243.429Z" transform="translate(-587.574 -389.581)" fill="#e9d6b8"/>
        <path id="Trazado_66604" data-name="Trazado 66604" d="M696.824,492.881a.349.349,0,0,0,.431.244l.981-.269a.35.35,0,0,0,.245-.429l-.495-1.8a.348.348,0,0,0-.43-.243l-.983.27a.351.351,0,0,0-.244.43Z" transform="translate(-562.864 -396.39)" fill="#e9d6b8"/>
        <path id="Trazado_66605" data-name="Trazado 66605" d="M705.252,486.14s.731,2.652.975,3.536c.22.8.385,2.641-4.13,3.886-2.672.735-3.116-1.256-3.293-1.9a5.931,5.931,0,0,1,.22-2.475c.006-.012.3,1.093.3,1.093a2.215,2.215,0,0,1,1.533-1.569c2.05-.564,2.845.507,3.743.238.69-.209.9-1.486.652-2.807" transform="translate(-564.831 -392.968)" fill="#194866"/>
        <path id="Trazado_66606" data-name="Trazado 66606" d="M708.68,504.773l-1.4.387a.35.35,0,0,1-.429-.244l-.054-.195,2.076-.573.054.2a.348.348,0,0,1-.244.428" transform="translate(-571.333 -407.524)" fill="#e9d6b8"/>
        <path id="Trazado_66607" data-name="Trazado 66607" d="M600.067,609.361c.647,1.79,11.99,8.374,15.791,7.984l11.455.547c9.744-1.188,14.353-16.327,14.353-16.327-.39-3.8-9.986,1.709-13.407,3.416-5.418,2.7-8.843,2.84-8.843,2.84-3.623.372-7.826-2.425-12.4-2.521-5.025-.108-7.969,1.242-6.949,4.061" transform="translate(-484.898 -485.213)" fill="#102e40"/>
        <path id="Trazado_66608" data-name="Trazado 66608" d="M647.78,634.693l.009-.013V634.2l-19.72-.358-.009.476a.028.028,0,0,0,0,.016l.049.089a1.294,1.294,0,0,0,1.22.51l17.16.312a1.294,1.294,0,0,0,1.238-.465Z" transform="translate(-507.689 -512.364)" fill="#b6c2c9"/>
        <path id="Trazado_66609" data-name="Trazado 66609" d="M706.146,636.626a.032.032,0,0,0,0,.013l.047.075a.8.8,0,0,0,.284.247l3,.054a1.358,1.358,0,0,0,1.189-.373l.049-.071s0-.008.009-.013v-.233l-4.569-.082Z" transform="translate(-570.808 -514.303)" fill="#d8e5ed"/>
        <rect id="Rectángulo_26061" data-name="Rectángulo 26061" width="0.336" height="9.855" transform="translate(122.825 121.97) rotate(-88.956)" fill="#879ba6"/>
        <path id="Trazado_66610" data-name="Trazado 66610" d="M633.289,591.04l-2.38-9.738a.645.645,0,0,0-.577-.474l-13.835-.252a.344.344,0,0,0-.348.456l2.381,9.739Z" transform="translate(-498.049 -469.305)" fill="#d9e1e4"/>
        <path id="Trazado_66611" data-name="Trazado 66611" d="M657.628,604.067a.667.667,0,0,1-.675.885,1.253,1.253,0,0,1-1.116-.916.668.668,0,0,1,.677-.884,1.243,1.243,0,0,1,1.114.916" transform="translate(-530.12 -487.554)" fill="#b6c2c9"/>
        <path id="Trazado_66612" data-name="Trazado 66612" d="M727.206,680.117c-1.365.235-2.4-1.35-2.4-1.35l-3.526-2.776.744-1.877,6.866,3.087s-.316,2.682-1.68,2.915" transform="translate(-583.039 -544.916)" fill="#e9d6b8"/>
        <path id="Trazado_66613" data-name="Trazado 66613" d="M739.638,688.132a3.532,3.532,0,0,0,.259.888c.264.723.585.975.926,1.077,1.315.386,2.264.191,5.43.8s4.115.149,5.041-1.309-.035-2.6-1.578-2.722c-2.235-.17-3.479.086-4.642-.092a3.723,3.723,0,0,1-2.009-.9c-.67-.412-1.285,2.036-.653,2.6.558.5-2.3.577-2.774-.352" transform="translate(-597.882 -554.389)" fill="#7dc2f5"/>
        <path id="Trazado_66614" data-name="Trazado 66614" d="M742.216,695.671c1.315.387,2.265.191,5.431.8s4.115.149,5.041-1.309a1.685,1.685,0,0,0,.2-1.747,1.553,1.553,0,0,1,.307,2.3c-.925,1.458-1.876,1.918-5.041,1.309s-4.115-.415-5.43-.8a1.223,1.223,0,0,1-.735-.652,1.167,1.167,0,0,0,.228.1" transform="translate(-599.781 -560.519)" fill="#d9e1e4"/>
        <path id="Trazado_66615" data-name="Trazado 66615" d="M739.643,697.87a.315.315,0,0,1,0-.044.437.437,0,0,0,.032.049l-.027,0" transform="translate(-597.882 -564.083)" fill="#e9d6b8"/>
        <path id="Trazado_66616" data-name="Trazado 66616" d="M774.672,692.851c.1.037.193-.154.224-.423a7.574,7.574,0,0,1,.366-1.631c.09-.267.089-.5-.022-.534s-.29.161-.378.422a7.61,7.61,0,0,0-.345,1.613c-.027.266.052.512.155.553" transform="translate(-626.072 -557.967)" fill="#d9e1e4"/>
        <path id="Trazado_66617" data-name="Trazado 66617" d="M769.509,692.568c.108.022.206-.165.234-.419a7,7,0,0,1,.362-1.534c.09-.251.083-.467-.034-.484s-.3.174-.386.425a6.921,6.921,0,0,0-.341,1.518c-.026.249.06.468.165.493" transform="translate(-621.891 -557.863)" fill="#d9e1e4"/>
        <path id="Trazado_66618" data-name="Trazado 66618" d="M764.175,692.01c.111.016.222-.182.262-.445a7.9,7.9,0,0,1,.429-1.584c.1-.258.1-.478-.023-.483s-.316.2-.413.453a7.63,7.63,0,0,0-.406,1.568c-.037.258.041.477.152.491" transform="translate(-617.585 -557.352)" fill="#d9e1e4"/>
        <path id="Trazado_66619" data-name="Trazado 66619" d="M629.165,639.718s-24.23-9.962-25.615-9.977c-4.68-.043-3.606,4.693-1.235,6.921,2.8,2.628,24.072,7.439,24.072,7.439Z" transform="translate(-485.239 -509.047)" fill="#194866"/>
        <path id="Trazado_66620" data-name="Trazado 66620" d="M686.353,652.594l6.615-6.271-2.819-2.793-7.222,7.593Z" transform="translate(-552.039 -520.193)" fill="#e9d6b8"/>
        <path id="Trazado_66621" data-name="Trazado 66621" d="M693.658,596.64s16.833-15.429,17.969-15.89c3.842-1.56,6.223,2.685,6.088,4.149-.176,1.9-17.278,17.356-17.278,17.356Z" transform="translate(-560.714 -469.171)" fill="#163f59"/>
        <path id="Trazado_66622" data-name="Trazado 66622" d="M639.665,679.825a2.767,2.767,0,0,0-.461,1.433s5.618,2.125,7.59,2.164a10.027,10.027,0,0,0,2.319-.441c.149-.039.491-.425.635-.467.27-.079.332.183.563.109a6.856,6.856,0,0,0,1.04-.384c1.186-2.523.784-3.765.784-3.765s-2.58.739-2.138.162c.947-1.236-1.759-2.5-2.362-1.844-2.4,2.633-6.831,1.982-7.97,3.033" transform="translate(-516.697 -546.935)" fill="#7dc2f5"/>
        <path id="Trazado_66623" data-name="Trazado 66623" d="M639.353,696.115a51.313,51.313,0,0,0,6.076,2.152,12.344,12.344,0,0,0,6.4-1.458,11.316,11.316,0,0,1-.481,1.2,6.843,6.843,0,0,1-1.04.383c-.231.074-.293-.188-.563-.109-.144.043-.486.428-.635.467a10.011,10.011,0,0,1-2.319.441c-1.972-.038-7.59-2.164-7.59-2.164a3.876,3.876,0,0,1,.149-.908" transform="translate(-516.697 -562.7)" fill="#d9e1e4"/>
        <path id="Trazado_66624" data-name="Trazado 66624" d="M660.663,687.109c-.051.1.168.212.483.279a10.739,10.739,0,0,1,1.9.574c.308.128.587.156.63.047s-.171-.311-.473-.431a10.486,10.486,0,0,0-1.877-.553c-.311-.062-.608-.013-.66.084" transform="translate(-534.037 -555.331)" fill="#d9e1e4"/>
        <path id="Trazado_66625" data-name="Trazado 66625" d="M667.244,684.86c-.047.1.168.241.474.33a10.878,10.878,0,0,1,1.834.721c.295.149.564.2.6.082s-.164-.337-.457-.48a10.7,10.7,0,0,0-1.818-.7c-.3-.085-.59-.054-.637.044" transform="translate(-539.357 -553.526)" fill="#d9e1e4"/>
        <path id="Trazado_66626" data-name="Trazado 66626" d="M673.579,682.855c-.045.1.163.266.462.38a10.913,10.913,0,0,1,1.768.859c.284.17.542.231.577.114s-.156-.363-.437-.528a10.669,10.669,0,0,0-1.754-.835c-.3-.109-.573-.094-.617.009" transform="translate(-544.479 -551.913)" fill="#d9e1e4"/>
      </g>
    </g>
  </g>
</svg>
