<svg xmlns="http://www.w3.org/2000/svg" width="467.24" height="420.385" viewBox="0 0 467.24 420.385">
  <g id="Grupo_63423" data-name="Grupo 63423" transform="translate(-895.333 -125)">
    <rect id="Rectángulo_8194" data-name="Rectángulo 8194" width="420" height="420" transform="translate(895.333 125)" fill="none"/>
    <g id="grafico-03" transform="translate(887.333 194.322)" style="isolation: isolate">
      <g id="Layer_1" data-name="Layer 1" transform="translate(8 21.427)">
        <path id="Trazado_100480" data-name="Trazado 100480" d="M300.979,82.359h26.229A26.229,26.229,0,1,1,300.331,56.13Z" transform="translate(93.495 -8.223)" fill="#f2e9e4"/>
        <path id="Trazado_100481" data-name="Trazado 100481" d="M299.044,77.719,298.45,51.49a27.61,27.61,0,0,1,18.913,7.441,26.989,26.989,0,0,1,7.952,18.416Z" transform="translate(102.513 -9.988)" fill="#d9a171"/>
        <path id="Trazado_100482" data-name="Trazado 100482" d="M55.8,250.416c.939-12.231,9.94-31.144,20.983-36.528a36,36,0,0,1,35.064,2.526c6.9,4.68,12.162,11.789,19.741,15.31,14.992,6.9,32.759-2.9,43.223-15.682s17.021-28.645,28.866-40.172a59.817,59.817,0,0,1,85.59,2.14c8.048,8.669,13.322,19.479,19.782,29.391s14.785,19.41,26.008,23.123c15.448,5.08,32.869-2.388,43.8-14.426s16.566-27.858,21.329-43.416,8.9-31.572,17.6-45.321,23-25.1,39.261-25.539V249.947Z" transform="translate(10.187 9.162)" fill="#e0e0e0" opacity="0.562"/>
        <path id="Trazado_100483" data-name="Trazado 100483" d="M154.975,81.76H114.237a2.913,2.913,0,0,0-2.927,2.913v50.388l6.682-6.682h37.052a2.913,2.913,0,0,0,2.913-2.927V84.673a2.9,2.9,0,0,0-2.982-2.913Z" transform="translate(31.308 1.529)" fill="#aed3f2"/>
        <path id="Trazado_100484" data-name="Trazado 100484" d="M145.549,90.088h0a9.374,9.374,0,0,0-2.858.221,7.7,7.7,0,0,0,2.568.235c-.152.138-.359.373-.621.663-.58.635-1.38,1.491-2.264,2.54-1.919,2.195-4.514,5.177-7.455,8.573l-3.175-2.1-1.629-1.091-.166-.11-.124.152c-3.327,3.893-6.281,7.372-8.38,9.884l-2.43,3.009a11.251,11.251,0,0,0-.856,1.132,8.7,8.7,0,0,0,.98-1.022l2.568-2.885c2.126-2.43,5.066-5.812,8.283-9.663l1.463.98,3.313,2.195.166.11.124-.138,7.468-8.835,2.167-2.623.594-.759h0a8.421,8.421,0,0,0,.221,2.568,9.126,9.126,0,0,0,.235-2.761v-.235Z" transform="translate(33.915 4.687)" fill="#fff" stroke="#fff" stroke-linecap="round" stroke-linejoin="round" stroke-width="0.38"/>
        <path id="Trazado_100485" data-name="Trazado 100485" d="M111.345,125.971c-.29,8.877.221,36.017.221,36.017l8.007-8.007h44.645a2.83,2.83,0,0,0,2.844-2.83v-25.1a2.844,2.844,0,0,0-2.844-2.844H114.175A2.844,2.844,0,0,0,111.345,125.971Z" transform="translate(31.288 17.3)" fill="#57b3e0"/>
        <path id="Trazado_100486" data-name="Trazado 100486" d="M129.017,134.982a2.1,2.1,0,1,1-.61-1.493A2.1,2.1,0,0,1,129.017,134.982Z" transform="translate(36.449 20.976)" fill="#fff"/>
        <path id="Trazado_100487" data-name="Trazado 100487" d="M134.164,134.982a2.1,2.1,0,1,1-.61-1.493A2.112,2.112,0,0,1,134.164,134.982Z" transform="translate(38.397 20.976)" fill="#fff"/>
        <path id="Trazado_100488" data-name="Trazado 100488" d="M139.284,134.982a2.112,2.112,0,1,1-2.112-2.112A2.112,2.112,0,0,1,139.284,134.982Z" transform="translate(40.345 20.976)" fill="#fff"/>
        <path id="Trazado_100489" data-name="Trazado 100489" d="M131.481,149.19h0V93.115a2.664,2.664,0,0,0-2.761-2.664L40.369,92.742A2.678,2.678,0,0,0,37.76,95.42v66.263a2.664,2.664,0,0,0,2.72,2.692h80.938l10.064,10.064Z" transform="translate(3.323 4.835)" fill="#afd3f1"/>
        <path id="Trazado_100490" data-name="Trazado 100490" d="M122.1,103.147a24.722,24.722,0,0,0-3.272-1.242,20.811,20.811,0,0,0-15.558,1.3,29.761,29.761,0,0,0-6.074,4.362c-1.988,1.767-3.962,3.755-6.254,5.6a21.48,21.48,0,0,1-7.979,4.321,12.051,12.051,0,0,1-4.652.276,15.186,15.186,0,0,1-4.321-1.38,77.014,77.014,0,0,1-7.234-4.2,22.655,22.655,0,0,0-6.806-3.051,20.363,20.363,0,0,0-6.474-.5,21.039,21.039,0,0,0-8.932,2.913c-1.905,1.173-2.761,2.057-2.871,1.988a4.929,4.929,0,0,1,.649-.635A15.475,15.475,0,0,1,44.4,111.32a20.39,20.39,0,0,1,15.682-2.761,22.9,22.9,0,0,1,7,3.065,78.221,78.221,0,0,0,7.192,4.224,12.217,12.217,0,0,0,8.518.994,21.3,21.3,0,0,0,7.731-4.141c2.236-1.808,4.224-3.8,6.254-5.522a29.169,29.169,0,0,1,6.24-4.418,20.832,20.832,0,0,1,6.364-1.946,20.5,20.5,0,0,1,9.525.925,17.45,17.45,0,0,1,2.4,1.022A5.523,5.523,0,0,1,122.1,103.147Z" transform="translate(4.811 8.704)" fill="#fff"/>
        <rect id="Rectángulo_31198" data-name="Rectángulo 31198" width="8.642" height="23.372" transform="translate(61.998 127.423)" fill="#fff"/>
        <rect id="Rectángulo_31199" data-name="Rectángulo 31199" width="8.642" height="23.372" transform="translate(98.65 127.423)" fill="#fff"/>
        <rect id="Rectángulo_31200" data-name="Rectángulo 31200" width="8.642" height="37.08" transform="translate(110.867 113.715)" fill="#fff"/>
        <rect id="Rectángulo_31201" data-name="Rectángulo 31201" width="8.642" height="7.869" transform="translate(50.816 143.437)" fill="#fff"/>
        <rect id="Rectángulo_31202" data-name="Rectángulo 31202" width="8.642" height="12.811" transform="translate(74.215 137.984)" fill="#fff"/>
        <rect id="Rectángulo_31203" data-name="Rectángulo 31203" width="8.642" height="15.751" transform="translate(86.432 135.044)" fill="#fff"/>
        <path id="Trazado_100491" data-name="Trazado 100491" d="M62,132.771a16.662,16.662,0,0,1-4.68.345,16.566,16.566,0,0,1-4.666-.345,15.725,15.725,0,0,1,4.625-.359A15.778,15.778,0,0,1,62,132.771Z" transform="translate(8.989 20.785)" fill="#fff"/>
        <path id="Trazado_100492" data-name="Trazado 100492" d="M54.2,132.771a16.566,16.566,0,0,1-4.666.345,16.566,16.566,0,0,1-4.666-.345,15.641,15.641,0,0,1,4.666-.359,15.723,15.723,0,0,1,4.666.359Z" transform="translate(6.029 20.785)" fill="#fff"/>
        <path id="Trazado_100493" data-name="Trazado 100493" d="M98.707,132.771a21.053,21.053,0,0,1-5.273.345,21.053,21.053,0,0,1-5.273-.345,19.922,19.922,0,0,1,5.3-.359,19.92,19.92,0,0,1,5.246.359Z" transform="translate(22.5 20.785)" fill="#fff"/>
        <ellipse id="Elipse_4352" data-name="Elipse 4352" cx="5.273" cy="0.345" rx="5.273" ry="0.345" transform="translate(97.821 153.211)" fill="#fff"/>
        <path id="Trazado_100494" data-name="Trazado 100494" d="M79.446,132.77a16.566,16.566,0,0,1-4.666.345,16.663,16.663,0,0,1-4.68-.345,15.778,15.778,0,0,1,4.68-.359,15.722,15.722,0,0,1,4.666.359Z" transform="translate(15.628 20.785)" fill="#fff"/>
        <path id="Trazado_100495" data-name="Trazado 100495" d="M70.292,132.771a16.566,16.566,0,0,1-4.666.345,16.566,16.566,0,0,1-4.666-.345,15.641,15.641,0,0,1,4.666-.359A15.641,15.641,0,0,1,70.292,132.771Z" transform="translate(12.151 20.785)" fill="#fff"/>
        <path id="Trazado_100496" data-name="Trazado 100496" d="M189.486,74.459c-11.6-2.568-24.338,3.741-27.61,15.7-3.134,11.486,4.445,24.849,15.972,28.01,11.279,3.051,24.145-3.879,27.872-14.937,4.141-12.259-3.741-25.484-15.6-29.391-1.38-.456-1.933,1.657-.594,2.154,10.119,3.7,17.38,14.619,14.357,25.553-2.871,10.409-15.061,17.367-25.484,14.606-10.009-2.664-16.469-13.4-15.185-23.468,1.56-12.259,14.537-19.6,26.091-17.6.428,0,.621-.566.179-.663Z" transform="translate(50.278 -1.51)" fill="#f2e9e4"/>
        <path id="Trazado_100497" data-name="Trazado 100497" d="M173.292,118.507c11.858,3.644,25.5-3.161,28.99-15.406,3.617-12.424-4.445-25.939-16.566-29.639-2.761-.856-3.8,3.272-1.173,4.293,10.285,4.031,17.09,15.185,13.032,26.105-3.617,9.663-14.274,14.426-24.145,13.308-.787-.1-.884,1.118-.179,1.38Z" transform="translate(54.696 -1.672)" fill="#d9a171"/>
        <path id="Trazado_100498" data-name="Trazado 100498" d="M72,193.242c0,19.078-11.941,35.52-11.941,35.52S47.11,212.321,47.11,193.242,59.534,158.73,59.534,158.73,72,174.164,72,193.242Z" transform="translate(6.881 30.815)" fill="#e0e0e0"/>
        <path id="Trazado_100499" data-name="Trazado 100499" d="M54.35,189.644c13.487,13.487,15.613,33.27,15.613,33.27s-19.713-2.181-33.215-15.682S21.08,174.1,21.08,174.1,40.862,176.143,54.35,189.644Z" transform="translate(-3.023 36.663)" fill="#e0e0e0"/>
        <path id="Trazado_100500" data-name="Trazado 100500" d="M74.94,212.824c-3.769-2.761-17.339-12.2-33.5-12.2S11.7,209.593,8,212.34Z" transform="translate(-8 46.754)" fill="#e0e0e0"/>
        <path id="Trazado_100501" data-name="Trazado 100501" d="M326.672,225.085,286.445,124.309a17.436,17.436,0,0,0-16.635-10.947l53.08,130.415A17.436,17.436,0,0,0,326.672,225.085Z" transform="translate(91.616 13.551)" fill="#6595bf"/>
        <path id="Trazado_100502" data-name="Trazado 100502" d="M268.43,114.6a17.422,17.422,0,0,0-9.663,22.654l40.214,100.776a17.422,17.422,0,0,0,22.654,9.663h0a17.3,17.3,0,0,0,5.95-3.962L274.5,113.32A17.228,17.228,0,0,0,268.43,114.6Z" transform="translate(86.935 13.537)" fill="#6595bf"/>
        <path id="Trazado_100503" data-name="Trazado 100503" d="M162.115,246.382,219.1,112.337a17.822,17.822,0,0,0-18.816,11.306L152.3,246.382Z" transform="translate(46.905 13.112)" fill="#6595bf"/>
        <path id="Trazado_100504" data-name="Trazado 100504" d="M220.568,113.335h0a17.489,17.489,0,0,0-4.141-1.035L159.44,246.345h28.3l43.14-110.011a17.794,17.794,0,0,0-10.312-23Z" transform="translate(49.621 13.149)" fill="#6595bf"/>
        <path id="Trazado_100505" data-name="Trazado 100505" d="M216.818,155.9l-20.39,6.544,51.837,76.962,51.851-76.962-20.39-6.544,24.725-16.538-24.807-30.026L248.708,98.9l-32.745,11.555L192.08,139.362Z" transform="translate(62.04 8.051)" fill="#67a7d6"/>
        <path id="Trazado_100506" data-name="Trazado 100506" d="M305.916,114.467l-23.744-8.007,24.849,30.026L282.3,153.051l20.39,6.53-51.851,76.962L199,159.581l20.348-6.544-24.738-16.566,23.882-28.907-19.506,6.9a21.356,21.356,0,0,0-13.543,20.128l11.21,113.7h111.6l11.21-113.7a21.356,21.356,0,0,0-13.543-20.128Z" transform="translate(59.514 10.927)" fill="#6595bf"/>
        <path id="Trazado_100507" data-name="Trazado 100507" d="M219.018,276.306l81.891-59.416H206.221L124.33,276.306Z" transform="translate(36.262 52.944)" fill="#fff" stroke="#ccc" stroke-miterlimit="10" stroke-width="0.77"/>
        <path id="Trazado_100508" data-name="Trazado 100508" d="M209.42,46.722a34.111,34.111,0,0,1,5.149-11.21A34.912,34.912,0,0,1,232.6,23.088c11.279-3.575,31.751-2.278,33.9,12.935a42.8,42.8,0,0,1,7.468,2.927c5.025,4.21,6.405,11.568,6.9,17.864.828,9.47-1.022,19.686-6.185,27.72a23.468,23.468,0,0,1-10.6,8.614,41.608,41.608,0,0,1-13.253,2.9A69.121,69.121,0,0,1,225.7,93.286a30.951,30.951,0,0,1-11.513-5.8c-3.962-3.451-4.9-8.283-5.439-13.239a103.538,103.538,0,0,1-.718-18.374,48.441,48.441,0,0,1,1.394-9.153Z" transform="translate(68.059 -21.427)" fill="#003336"/>
        <path id="Trazado_100509" data-name="Trazado 100509" d="M263.4,60.287c1.712.594,2.4,2.761,2.319,4.846a23.386,23.386,0,0,1-7.22,15.185,8.462,8.462,0,0,1-2.374,1.739c-6.212,2.761-1.726-13.336-.8-15.834C256.356,63.5,259.945,59.072,263.4,60.287Z" transform="translate(85.177 -6.72)" fill="#e39b7d"/>
        <path id="Trazado_100510" data-name="Trazado 100510" d="M209.309,60.628c-1.726.759-2.637,3.106-2.761,5.287a21.439,21.439,0,0,0,5.522,15.5,6.433,6.433,0,0,0,2.167,1.684c5.826,2.43,3.023-14.205,2.361-16.787C215.921,63.486,212.884,59.082,209.309,60.628Z" transform="translate(67.534 -6.633)" fill="#e39b7d"/>
        <path id="Trazado_100511" data-name="Trazado 100511" d="M240.842,148.535h0A23.9,23.9,0,0,0,264.31,124.79l.318-51.34-45.087.759-2.94,49.063a23.91,23.91,0,0,0,24.241,25.263Z" transform="translate(71.356 -1.633)" fill="#e39b7d"/>
        <path id="Trazado_100512" data-name="Trazado 100512" d="M210.94,65.877a56.407,56.407,0,0,1,2.885-14.247A7.482,7.482,0,0,1,216.3,47.9c2.761-2.029,27.43,4.694,43.03-8.283a31.944,31.944,0,0,0,8.283,14.8,21.092,21.092,0,0,1,4.28,4.873,17.946,17.946,0,0,1,1.877,8.683,75.445,75.445,0,0,1-1.877,17.946,45.556,45.556,0,0,1-10.3,20.486,24.849,24.849,0,0,1-16.663,8.462,21.785,21.785,0,0,1-3.147,0c-7.358-.676-13.543-4.956-18.057-10.022a53.329,53.329,0,0,1-12.286-26.933A59.365,59.365,0,0,1,210.94,65.877Z" transform="translate(69.175 -14.505)" fill="#ffb997"/>
        <path id="Trazado_100513" data-name="Trazado 100513" d="M271.874,63.461a21.092,21.092,0,0,0-4.28-4.873,31.944,31.944,0,0,1-8.283-14.8c-15.6,12.921-40.214,6.2-43.03,8.283a7.385,7.385,0,0,0-2.471,3.672,56.406,56.406,0,0,0-2.94,14.247V65.877a56.407,56.407,0,0,1,2.94-14.247,7.482,7.482,0,0,1,2.471-3.727c2.761-2.029,27.43,4.694,43.03-8.283a31.944,31.944,0,0,0,8.283,14.8,21.093,21.093,0,0,1,4.28,4.873,17.946,17.946,0,0,1,1.877,8.683v2.761a16.566,16.566,0,0,0-1.877-7.275Z" transform="translate(69.19 -14.505)" fill="gray" opacity="0.25" style="mix-blend-mode: multiply;isolation: isolate"/>
        <path id="Trazado_100514" data-name="Trazado 100514" d="M214.489,64.836a11.127,11.127,0,1,0,11.927-10.257A11.127,11.127,0,0,0,214.489,64.836Z" transform="translate(70.555 -8.825)" fill="none" stroke="#000" stroke-miterlimit="10" stroke-width="0.52"/>
        <path id="Trazado_100515" data-name="Trazado 100515" d="M237.589,64.84a11.127,11.127,0,1,0,3.841-7.612,11.127,11.127,0,0,0-3.841,7.612Z" transform="translate(79.344 -8.829)" fill="none" stroke="#000" stroke-miterlimit="10" stroke-width="0.52"/>
        <line id="Línea_349" data-name="Línea 349" x1="10.436" y1="0.193" transform="translate(307.09 54.092)" fill="none" stroke="#000" stroke-miterlimit="10" stroke-width="0.52"/>
        <line id="Línea_350" data-name="Línea 350" x2="5.922" transform="translate(338.524 54.023)" fill="none" stroke="#000" stroke-miterlimit="10" stroke-width="0.52"/>
        <line id="Línea_351" data-name="Línea 351" x2="5.508" transform="translate(279.825 54.023)" fill="none" stroke="#000" stroke-miterlimit="10" stroke-width="0.52"/>
        <path id="Trazado_100516" data-name="Trazado 100516" d="M259.413,116.95,239.63,232.083,220.11,117.088Z" transform="translate(72.706 14.918)" fill="#fff"/>
        <path id="Trazado_100517" data-name="Trazado 100517" d="M226.73,125.815l8.559-8.835h3.948l8.518,8.835-6.267,9.028,5.342,41.746-9.719,55.482-9.567-55.482L233,134.844Z" transform="translate(75.224 14.93)" fill="#b28360"/>
        <path id="Trazado_100518" data-name="Trazado 100518" d="M230.81,120l2.927-3.023h3.12L246,126.119l-3.714,5.356Z" transform="translate(76.777 14.93)" fill="#d9a171"/>
        <path id="Trazado_100519" data-name="Trazado 100519" d="M230.443,128.58l10.933,10.947,2.181,17.035L230.07,143.117l1.657-12.687Z" transform="translate(76.495 19.343)" fill="#d9a171"/>
        <path id="Trazado_100520" data-name="Trazado 100520" d="M245.756,168.252l-2.54,14.5L228.03,167.562l-.69-4.045,1.588-12.107Z" transform="translate(75.456 28.03)" fill="#d9a171"/>
        <path id="Trazado_100521" data-name="Trazado 100521" d="M239.665,186.82,235.772,209.1,230.25,177.35Z" transform="translate(76.564 37.9)" fill="#d9a171"/>
        <path id="Trazado_100522" data-name="Trazado 100522" d="M259.413,117l-3.838,22.364c-4.335-5.522-14.44-18.14-14.44-18.14h-2.416L223.8,138.867l-3.686-21.729Z" transform="translate(72.706 14.937)" fill="#ccc" style="mix-blend-mode: multiply;isolation: isolate"/>
        <path id="Trazado_100523" data-name="Trazado 100523" d="M257.063,101.93,235.79,122.706l15.268,16.787,11.651-32.179Z" transform="translate(78.672 9.203)" fill="#fff"/>
        <path id="Trazado_100524" data-name="Trazado 100524" d="M218.507,101.93l21.839,20.776-15.268,16.787-11.858-31.71Z" transform="translate(70.084 9.203)" fill="#fff"/>
        <path id="Trazado_100525" data-name="Trazado 100525" d="M185.161,217.11l-2.181,8.007,7.358-4.321Z" transform="translate(58.578 53.028)" fill="#77152a"/>
        <rect id="Rectángulo_31204" data-name="Rectángulo 31204" width="6.35" height="52.417" transform="matrix(-0.815, -0.579, 0.579, -0.815, 248.883, 273.83)" fill="#c24a5e"/>
        <rect id="Rectángulo_31205" data-name="Rectángulo 31205" width="6.35" height="5.826" transform="matrix(-0.815, -0.579, 0.579, -0.815, 277.663, 233.462)" fill="#fff"/>
        <path id="Trazado_100526" data-name="Trazado 100526" d="M231.259,205.45l3.714,19.2L216.1,226.641l-3.051-17.712Z" transform="translate(70.019 48.592)" fill="#ffb997"/>
        <path id="Trazado_100527" data-name="Trazado 100527" d="M243.559,201.61c1.242,6.833,1.988,13.8,3.617,20.528.483,1.96.98,3.907,1.491,5.853l-25.926,2.761L218.6,206.414Z" transform="translate(72.131 47.131)" fill="#fff"/>
        <path id="Trazado_100528" data-name="Trazado 100528" d="M229.711,229.743,225.39,204.77l15.586-3.12c1.242,6.833,1.988,13.8,3.617,20.528.483,1.96.98,3.907,1.491,5.853Z" transform="translate(74.715 47.146)" fill="#ccc" style="mix-blend-mode: multiply;isolation: isolate"/>
        <path id="Trazado_100529" data-name="Trazado 100529" d="M229.307,213.452l-7.358-12.19L210.906,197.3l-6.447,4.569-12.549.663.87,22.405a3.852,3.852,0,0,0,3.686,3.686l27.693,1.049Z" transform="translate(61.976 45.491)" fill="#ffb997"/>
        <path id="Trazado_100530" data-name="Trazado 100530" d="M197.971,200.86l-5.853.331a2.568,2.568,0,0,0-2.416,2.761l.262,3.465a2.581,2.581,0,0,0,2.761,2.374l7.924-.635Z" transform="translate(61.133 46.845)" fill="#ffb997"/>
        <path id="Trazado_100531" data-name="Trazado 100531" d="M343.686,201.016h0a19.658,19.658,0,0,0-23.3-16.4L226.91,209.022l3.327,19.2,112.427-17.5A19.56,19.56,0,0,0,343.686,201.016Z" transform="translate(75.293 40.519)" fill="#6595bf"/>
        <path id="Trazado_100532" data-name="Trazado 100532" d="M229.32,220.925l1.463,8.449,94.577-13.239a19.658,19.658,0,0,0,16.386-12.714Z" transform="translate(76.21 47.819)" fill="#6595bf"/>
        <path id="Trazado_100533" data-name="Trazado 100533" d="M183.262,246.08H63.38v-3.4l51.285-28.424h107.94v3.4Z" transform="translate(13.071 51.944)" fill="#838896"/>
        <path id="Trazado_100534" data-name="Trazado 100534" d="M183.262,242.684H63.38l51.285-28.424h107.94Z" transform="translate(13.071 51.944)" fill="#d1dced"/>
        <path id="Trazado_100535" data-name="Trazado 100535" d="M111.351,217.2,74.52,237.6H175.351l28.259-20.4Z" transform="translate(17.31 53.062)" fill="#838896"/>
        <rect id="Rectángulo_31206" data-name="Rectángulo 31206" width="107.264" height="1.201" transform="translate(115.216 273.175)" fill="#d1dced"/>
        <rect id="Rectángulo_31207" data-name="Rectángulo 31207" width="107.264" height="1.201" transform="translate(108.893 277.662)" fill="#d1dced"/>
        <rect id="Rectángulo_31208" data-name="Rectángulo 31208" width="107.264" height="1.201" transform="translate(102.57 282.148)" fill="#d1dced"/>
        <rect id="Rectángulo_31209" data-name="Rectángulo 31209" width="107.264" height="1.201" transform="translate(96.248 286.649)" fill="#d1dced"/>
        <path id="Trazado_100536" data-name="Trazado 100536" d="M148.164,238.764a.621.621,0,0,1-.483-.248.608.608,0,0,1,.138-.842l29.846-21.411a.6.6,0,0,1,.7.966l-29.86,21.425A.608.608,0,0,1,148.164,238.764Z" transform="translate(45.104 52.662)" fill="#d1dced"/>
        <path id="Trazado_100537" data-name="Trazado 100537" d="M139.884,238.763a.593.593,0,0,1-.483-.262.58.58,0,0,1,.152-.828l30.813-21.411a.594.594,0,0,1,.828.138.607.607,0,0,1-.152.842l-30.771,21.411a.635.635,0,0,1-.387.11Z" transform="translate(41.954 52.663)" fill="#d1dced"/>
        <path id="Trazado_100538" data-name="Trazado 100538" d="M131.644,238.763a.594.594,0,0,1-.483-.262.58.58,0,0,1,.152-.828l31.751-21.425a.6.6,0,1,1,.663.994l-31.751,21.411a.634.634,0,0,1-.331.11Z" transform="translate(38.819 52.662)" fill="#d1dced"/>
        <path id="Trazado_100539" data-name="Trazado 100539" d="M123.416,238.763a.621.621,0,0,1-.511-.276.607.607,0,0,1,.179-.828l32.745-21.411a.6.6,0,1,1,.663.994l-32.759,21.425A.662.662,0,0,1,123.416,238.763Z" transform="translate(35.685 52.662)" fill="#d1dced"/>
        <path id="Trazado_100540" data-name="Trazado 100540" d="M115.167,238.762a.621.621,0,0,1-.511-.276.594.594,0,0,1,.193-.828l33.712-21.411a.6.6,0,1,1,.649,1.008l-33.725,21.411a.538.538,0,0,1-.318.1Z" transform="translate(32.546 52.663)" fill="#d1dced"/>
        <path id="Trazado_100541" data-name="Trazado 100541" d="M106.938,238.764a.594.594,0,0,1-.318-1.1l34.692-21.425a.6.6,0,1,1,.621,1.022l-34.678,21.411A.538.538,0,0,1,106.938,238.764Z" transform="translate(29.413 52.662)" fill="#d1dced"/>
        <path id="Trazado_100542" data-name="Trazado 100542" d="M98.691,238.763a.607.607,0,0,1-.3-1.118l35.658-21.411a.594.594,0,1,1,.607,1.022L98.994,238.68a.593.593,0,0,1-.3.083Z" transform="translate(26.285 52.663)" fill="#d1dced"/>
        <path id="Trazado_100543" data-name="Trazado 100543" d="M90.453,238.762a.58.58,0,0,1-.511-.3.607.607,0,0,1,.207-.815l36.624-21.411a.621.621,0,0,1,.828.207.607.607,0,0,1-.221.828L90.756,238.679a.593.593,0,0,1-.3.083Z" transform="translate(23.148 52.664)" fill="#d1dced"/>
        <path id="Trazado_100544" data-name="Trazado 100544" d="M82.217,238.761a.594.594,0,0,1-.29-1.118l37.591-21.411a.6.6,0,0,1,.594,1.035L82.521,238.679a.593.593,0,0,1-.3.083Z" transform="translate(20.008 52.664)" fill="#d1dced"/>
        <path id="Trazado_100545" data-name="Trazado 100545" d="M73.987,238.764a.594.594,0,0,1-.29-1.118l38.557-21.425a.6.6,0,1,1,.58,1.049l-38.6,21.411a.58.58,0,0,1-.248.083Z" transform="translate(16.877 52.661)" fill="#d1dced"/>
        <path id="Trazado_100546" data-name="Trazado 100546" d="M184.9,261.1H65.023l-5.95-91a3.934,3.934,0,0,1,4.045-4.238h111.35a4.6,4.6,0,0,1,4.542,4.238Z" transform="translate(11.428 33.528)" fill="#9ba1b2"/>
        <path id="Trazado_100547" data-name="Trazado 100547" d="M112.926,202.253a7.979,7.979,0,1,1-2.332-5.651,7.993,7.993,0,0,1,2.332,5.651Z" transform="translate(25.841 44.334)" fill="#fff"/>
      </g>
    </g>
  </g>
</svg>
