<?xml version="1.0" encoding="utf-8"?>
<!-- Generator: Adobe Illustrator 25.3.1, SVG Export Plug-In . SVG Version: 6.00 Build 0)  -->
<svg version="1.1" id="Layer_1" xmlns="http://www.w3.org/2000/svg" xmlns:xlink="http://www.w3.org/1999/xlink" x="0px" y="0px"
	 viewBox="0 0 303.5 282" style="enable-background:new 0 0 303.5 282;" xml:space="preserve">
<style type="text/css">
	.st0{fill:#AED3F2;}
	.st1{fill:#87898D;}
	.st2{fill:#12263F;}
	.st3{fill:#5E6178;}
	.st4{fill:#707070;}
	.st5{fill:#FFFFFF;}
</style>
<g id="Grupo_70420" transform="translate(5682 9744.998)">
	<g id="Grupo_70414" transform="translate(-5838.884 -10502.01)">
		<path id="Trazado_108315" class="st0" d="M195.1,923.1c-13.9-68.7,30.5-135.7,99.3-149.6c8.3-1.7,16.7-2.5,25.1-2.5
			c52.1,0,98.9,31.8,118,80.3l-13.5,5.3c-22.8-57.7-88.1-86-145.8-63.2c-42.9,16.9-71.1,58.4-71.1,104.5c0,7.5,0.7,15,2.2,22.4
			L195.1,923.1z"/>
		<circle id="Elipse_4363" class="st0" cx="319.4" cy="898" r="99.7"/>
		<g id="Grupo_70355">
			<path id="Trazado_108316" class="st1" d="M319.4,1018.4c-51.1,0-96.7-32.3-113.7-80.6l1-0.4c21.9,62.2,90,94.9,152.2,73
				c57.9-20.4,90.9-81.4,76.3-141l1-0.3c15.8,64.7-23.7,129.9-88.4,145.7C338.6,1017.3,329,1018.4,319.4,1018.4z"/>
			<g id="Grupo_70353">
				<path id="Trazado_108317" class="st1" d="M429.9,871.2c-0.8-3.2,1.1-6.6,4.4-7.4c3.2-0.8,6.6,1.1,7.4,4.4
					c0.8,3.2-1.1,6.6-4.4,7.4C434.1,876.4,430.8,874.4,429.9,871.2C429.9,871.2,429.9,871.2,429.9,871.2z"/>
			</g>
			<g id="Grupo_70354">
				<path id="Trazado_108318" class="st1" d="M212.2,936c-1.1-3.2-4.5-4.9-7.7-3.8c-3.2,1.1-4.9,4.5-3.8,7.7
					c1.1,3.2,4.5,4.9,7.7,3.8S213.3,939.2,212.2,936C212.2,936,212.2,936,212.2,936z"/>
			</g>
		</g>
	</g>
	<path id="Trazado_108343" class="st2" d="M-5564.6-9677h-1.5v-11.4h1.5V-9677z M-5560.7-9685.5l0,1.1c0.6-0.8,1.5-1.2,2.5-1.2
		c1.8,0,2.7,1,2.7,3v5.6h-1.4v-5.6c0-0.5-0.1-1-0.4-1.4c-0.3-0.3-0.8-0.5-1.3-0.4c-0.4,0-0.9,0.1-1.2,0.4c-0.4,0.3-0.6,0.6-0.8,1v6
		h-1.4v-8.5H-5560.7z M-5548.3-9679.2c0-0.4-0.1-0.7-0.4-0.9c-0.5-0.3-1-0.5-1.5-0.6c-0.6-0.1-1.2-0.3-1.7-0.6
		c-0.4-0.2-0.7-0.4-1-0.8c-0.2-0.3-0.3-0.7-0.3-1.1c0-0.7,0.3-1.3,0.9-1.8c0.6-0.5,1.4-0.8,2.2-0.7c0.8,0,1.7,0.2,2.3,0.7
		c0.6,0.5,0.9,1.2,0.9,1.9h-1.5c0-0.4-0.2-0.8-0.5-1c-0.4-0.3-0.8-0.4-1.3-0.4c-0.4,0-0.9,0.1-1.2,0.3c-0.3,0.2-0.5,0.5-0.4,0.9
		c0,0.3,0.1,0.6,0.4,0.8c0.5,0.2,1,0.4,1.5,0.5c0.6,0.1,1.2,0.3,1.8,0.6c0.4,0.2,0.7,0.5,1,0.8c0.2,0.3,0.3,0.7,0.3,1.2
		c0,0.7-0.3,1.4-0.9,1.8c-0.7,0.5-1.5,0.7-2.4,0.7c-0.6,0-1.2-0.1-1.8-0.4c-0.5-0.2-0.9-0.6-1.2-1c-0.3-0.4-0.4-0.9-0.4-1.4h1.4
		c0,0.5,0.2,0.9,0.6,1.2c0.4,0.3,0.9,0.5,1.4,0.4c0.5,0,0.9-0.1,1.3-0.3C-5548.5-9678.5-5548.3-9678.9-5548.3-9679.2z M-5541.6-9678
		c0.5,0,1-0.2,1.4-0.5c0.4-0.3,0.6-0.7,0.6-1.2h1.4c0,0.5-0.2,1-0.5,1.4c-0.3,0.4-0.7,0.8-1.2,1c-0.5,0.3-1.1,0.4-1.6,0.4
		c-1,0-2.1-0.4-2.7-1.2c-0.7-0.9-1.1-2-1-3.2v-0.2c0-0.8,0.1-1.5,0.5-2.2c0.3-0.6,0.7-1.1,1.3-1.5c0.6-0.4,1.3-0.5,2-0.5
		c0.9,0,1.7,0.3,2.4,0.9c0.6,0.6,1,1.4,1,2.2h-1.4c0-0.5-0.3-1-0.6-1.3c-0.4-0.4-0.9-0.5-1.4-0.5c-0.7,0-1.3,0.3-1.7,0.8
		c-0.4,0.7-0.7,1.5-0.6,2.3v0.3c-0.1,0.8,0.2,1.6,0.6,2.2C-5542.9-9678.3-5542.2-9678-5541.6-9678z M-5532.5-9684.2
		c-0.2,0-0.5-0.1-0.7-0.1c-0.8-0.1-1.6,0.4-1.9,1.2v6h-1.4v-8.5h1.4l0,1c0.4-0.7,1.2-1.2,2-1.1c0.2,0,0.4,0,0.6,0.1V-9684.2z
		 M-5529.6-9677h-1.4v-8.5h1.4V-9677z M-5531.2-9687.7c0-0.2,0.1-0.4,0.2-0.6c0.2-0.2,0.4-0.3,0.6-0.2c0.2,0,0.5,0.1,0.6,0.2
		c0.1,0.2,0.2,0.4,0.2,0.6c0,0.2-0.1,0.4-0.2,0.6c-0.2,0.2-0.4,0.3-0.6,0.2c-0.2,0-0.5-0.1-0.6-0.2
		C-5531.1-9687.3-5531.2-9687.5-5531.2-9687.7z M-5520.1-9681.1c0.1,1.1-0.3,2.2-0.9,3.1c-0.6,0.8-1.4,1.2-2.4,1.2
		c-1,0-1.9-0.4-2.5-1.1l-0.1,1h-1.3v-12h1.4v4.5c0.6-0.7,1.5-1.1,2.4-1.1c0.9,0,1.9,0.4,2.4,1.2c0.6,0.9,0.9,2.1,0.9,3.2V-9681.1z
		 M-5521.6-9681.3c0-0.8-0.1-1.6-0.6-2.3c-0.4-0.5-1-0.8-1.6-0.8c-0.9,0-1.7,0.5-2.1,1.3v3.7c0.4,0.8,1.2,1.4,2.1,1.3
		c0.6,0,1.2-0.3,1.6-0.8C-5521.7-9679.6-5521.5-9680.4-5521.6-9681.3z M-5516.7-9677h-1.4v-8.5h1.4L-5516.7-9677z M-5518.3-9687.7
		c0-0.2,0.1-0.4,0.2-0.6c0.2-0.2,0.4-0.3,0.6-0.2c0.2,0,0.5,0.1,0.6,0.2c0.1,0.2,0.2,0.4,0.2,0.6c0,0.2-0.1,0.4-0.2,0.6
		c-0.2,0.2-0.4,0.3-0.6,0.2c-0.2,0-0.5-0.1-0.6-0.2C-5518.2-9687.3-5518.3-9687.5-5518.3-9687.7z M-5510.3-9684.2
		c-0.2,0-0.5-0.1-0.7-0.1c-0.8-0.1-1.6,0.4-1.9,1.2v6h-1.4v-8.5h1.4l0,1c0.4-0.7,1.2-1.2,2-1.1c0.2,0,0.4,0,0.6,0.1L-5510.3-9684.2z
		 M-5501.5-9676.8c-1.1,0-2.1-0.4-2.8-1.1c-0.7-0.8-1.1-1.9-1.1-3v-0.3c0-0.8,0.2-1.5,0.5-2.2c0.3-0.6,0.8-1.2,1.3-1.5
		c0.6-0.4,1.2-0.6,1.9-0.6c1-0.1,1.9,0.3,2.6,1.1c0.7,0.9,1,2,0.9,3.1v0.6h-5.7c0,0.7,0.2,1.5,0.7,2c0.5,0.5,1.1,0.8,1.8,0.8
		c0.5,0,0.9-0.1,1.3-0.3c0.4-0.2,0.7-0.5,0.9-0.8l0.9,0.7C-5499-9677.4-5500.3-9676.8-5501.5-9676.8L-5501.5-9676.8z
		 M-5501.7-9684.4c-0.6,0-1.1,0.2-1.5,0.6c-0.4,0.5-0.7,1.1-0.7,1.8h4.2v-0.1c0-0.6-0.2-1.2-0.6-1.7
		C-5500.6-9684.2-5501.2-9684.4-5501.7-9684.4L-5501.7-9684.4z M-5495.2-9685.5l0,1.1c0.6-0.8,1.5-1.2,2.5-1.2c1.8,0,2.7,1,2.7,3
		v5.6h-1.4v-5.6c0-0.5-0.1-1-0.4-1.4c-0.3-0.3-0.8-0.5-1.3-0.4c-0.4,0-0.9,0.1-1.2,0.4c-0.4,0.3-0.6,0.6-0.8,1v6h-1.4v-8.5
		L-5495.2-9685.5z M-5480.3-9676.8c-1.1,0-2.1-0.4-2.8-1.1c-0.7-0.8-1.1-1.9-1.1-3v-0.3c0-0.8,0.2-1.5,0.5-2.2
		c0.3-0.6,0.8-1.2,1.3-1.5c0.6-0.4,1.2-0.6,1.9-0.6c1-0.1,1.9,0.3,2.6,1.1c0.7,0.9,1,2,0.9,3.1v0.6h-5.7c0,0.7,0.2,1.5,0.7,2
		c0.5,0.5,1.1,0.8,1.8,0.8c0.5,0,0.9-0.1,1.3-0.3c0.4-0.2,0.7-0.5,0.9-0.8l0.9,0.7C-5477.8-9677.4-5479-9676.8-5480.3-9676.8
		L-5480.3-9676.8z M-5480.5-9684.4c-0.6,0-1.1,0.2-1.5,0.6c-0.4,0.5-0.7,1.1-0.7,1.8h4.2v-0.1c0-0.6-0.2-1.2-0.6-1.7
		C-5479.4-9684.2-5479.9-9684.4-5480.5-9684.4L-5480.5-9684.4z M-5473.7-9677h-1.4v-12h1.4V-9677z M-5577.4-9660.2
		c-0.2,0-0.5-0.1-0.7-0.1c-0.8-0.1-1.6,0.4-1.9,1.2v6h-1.4v-8.5h1.4l0,1c0.4-0.7,1.2-1.2,2-1.1c0.2,0,0.4,0,0.6,0.1L-5577.4-9660.2z
		 M-5572.7-9652.8c-1.1,0-2.1-0.4-2.8-1.1c-0.7-0.8-1.1-1.9-1.1-3v-0.3c0-0.8,0.2-1.5,0.5-2.2c0.3-0.6,0.8-1.2,1.3-1.5
		c0.6-0.4,1.2-0.6,1.9-0.6c1-0.1,1.9,0.3,2.6,1.1c0.7,0.9,1,2,0.9,3.1v0.6h-5.7c0,0.7,0.2,1.5,0.7,2c0.5,0.5,1.1,0.8,1.8,0.8
		c0.5,0,0.9-0.1,1.3-0.3c0.4-0.2,0.7-0.5,0.9-0.8l0.9,0.7C-5570.2-9653.4-5571.4-9652.8-5572.7-9652.8L-5572.7-9652.8z
		 M-5572.9-9660.4c-0.6,0-1.1,0.2-1.5,0.6c-0.4,0.5-0.7,1.1-0.7,1.8h4.2v-0.1c0-0.6-0.2-1.2-0.6-1.7
		C-5571.8-9660.2-5572.3-9660.4-5572.9-9660.4L-5572.9-9660.4z M-5568.1-9657.3c-0.1-1.1,0.3-2.2,0.9-3.1c1.1-1.4,3.1-1.6,4.4-0.5
		c0.1,0.1,0.3,0.2,0.4,0.4l0.1-0.9h1.3v8.3c0.1,1-0.3,1.9-1,2.6c-0.7,0.7-1.7,1-2.6,0.9c-0.6,0-1.2-0.1-1.8-0.4
		c-0.5-0.2-1-0.6-1.3-1.1l0.8-0.9c0.5,0.7,1.4,1.1,2.3,1.1c0.6,0,1.2-0.2,1.6-0.6c0.4-0.5,0.6-1.1,0.6-1.7v-0.7
		c-0.6,0.7-1.5,1-2.4,1c-0.9,0-1.8-0.4-2.4-1.2C-5567.8-9655-5568.1-9656.1-5568.1-9657.3L-5568.1-9657.3z M-5566.6-9657.1
		c0,0.8,0.2,1.6,0.6,2.2c0.4,0.5,1,0.8,1.6,0.8c0.9,0,1.7-0.5,2-1.2v-3.9c-0.4-0.8-1.1-1.2-2-1.2c-0.7,0-1.3,0.3-1.6,0.8
		C-5566.5-9658.8-5566.7-9658-5566.6-9657.1L-5566.6-9657.1z M-5557.2-9653h-1.4v-8.5h1.4V-9653z M-5558.7-9663.7
		c0-0.2,0.1-0.4,0.2-0.6c0.2-0.2,0.4-0.3,0.6-0.2c0.2,0,0.5,0.1,0.6,0.2c0.1,0.2,0.2,0.4,0.2,0.6c0,0.2-0.1,0.4-0.2,0.6
		c-0.2,0.2-0.4,0.3-0.6,0.2c-0.2,0-0.5-0.1-0.6-0.2C-5558.7-9663.3-5558.7-9663.5-5558.7-9663.7z M-5549.9-9655.2
		c0-0.4-0.2-0.7-0.4-0.9c-0.5-0.3-1-0.5-1.5-0.6c-0.6-0.1-1.2-0.3-1.7-0.6c-0.4-0.2-0.7-0.4-1-0.8c-0.2-0.3-0.3-0.7-0.3-1.1
		c0-0.7,0.3-1.3,0.9-1.8c0.6-0.5,1.4-0.8,2.2-0.7c0.8,0,1.7,0.2,2.3,0.7c0.6,0.5,0.9,1.2,0.9,1.9h-1.5c0-0.4-0.2-0.8-0.5-1
		c-0.4-0.3-0.8-0.4-1.3-0.4c-0.4,0-0.9,0.1-1.2,0.3c-0.3,0.2-0.5,0.5-0.4,0.9c0,0.3,0.1,0.6,0.4,0.8c0.5,0.2,1,0.4,1.5,0.5
		c0.6,0.1,1.2,0.3,1.7,0.6c0.4,0.2,0.7,0.5,1,0.8c0.2,0.3,0.3,0.7,0.3,1.2c0,0.7-0.3,1.4-0.9,1.8c-0.7,0.5-1.5,0.7-2.4,0.7
		c-0.6,0-1.2-0.1-1.8-0.4c-0.5-0.2-0.9-0.6-1.2-1c-0.3-0.4-0.4-0.9-0.4-1.4h1.4c0,0.5,0.2,0.9,0.6,1.2c0.4,0.3,0.9,0.5,1.4,0.4
		c0.5,0,0.9-0.1,1.3-0.3C-5550.1-9654.5-5549.9-9654.9-5549.9-9655.2L-5549.9-9655.2z M-5544.6-9663.5v2h1.6v1.1h-1.6v5.2
		c0,0.3,0.1,0.5,0.2,0.8c0.2,0.2,0.5,0.3,0.7,0.3c0.2,0,0.5,0,0.7-0.1v1.2c-0.4,0.1-0.7,0.2-1.1,0.2c-0.6,0-1.1-0.2-1.5-0.6
		c-0.4-0.5-0.5-1.1-0.5-1.7v-5.2h-1.5v-1.1h1.5v-2H-5544.6z M-5537.3-9660.2c-0.2,0-0.5-0.1-0.7-0.1c-0.8-0.1-1.6,0.4-1.9,1.2v6
		h-1.4v-8.5h1.4l0,1c0.4-0.7,1.2-1.2,2-1.1c0.2,0,0.4,0,0.6,0.1V-9660.2z M-5536.5-9657.3c0-0.8,0.2-1.5,0.5-2.2
		c0.3-0.6,0.8-1.2,1.4-1.5c0.6-0.4,1.3-0.6,2-0.5c1.1,0,2.1,0.4,2.8,1.2c0.7,0.9,1.1,2,1.1,3.2v0.1c0,0.8-0.1,1.5-0.5,2.2
		c-0.3,0.6-0.8,1.2-1.4,1.5c-0.6,0.4-1.3,0.6-2,0.5c-1.1,0-2.1-0.4-2.8-1.2C-5536.2-9654.9-5536.6-9656-5536.5-9657.3
		L-5536.5-9657.3z M-5535-9657.1c0,0.8,0.2,1.6,0.7,2.3c0.7,1,2.1,1.1,3.1,0.4c0.1-0.1,0.3-0.3,0.4-0.4c0.5-0.7,0.7-1.6,0.6-2.4
		c0-0.8-0.2-1.6-0.7-2.3c-0.4-0.6-1.1-0.9-1.8-0.9c-0.7,0-1.3,0.3-1.7,0.9C-5534.9-9658.8-5535.1-9658-5535-9657.1L-5535-9657.1z
		 M-5521.7-9661.4l0,0.9c0.6-0.7,1.5-1.1,2.5-1.1c1-0.1,2,0.4,2.4,1.4c0.3-0.4,0.7-0.7,1.1-1c0.5-0.3,1-0.4,1.6-0.4
		c1.9,0,2.8,1,2.8,2.9v5.7h-1.4v-5.6c0-0.5-0.1-1-0.4-1.4c-0.4-0.3-0.9-0.5-1.4-0.4c-0.5,0-1,0.2-1.3,0.5c-0.4,0.3-0.6,0.8-0.6,1.3
		v5.6h-1.5v-5.5c0.1-0.9-0.5-1.7-1.4-1.8c-0.1,0-0.3,0-0.4,0c-0.8-0.1-1.6,0.4-1.9,1.2v6.2h-1.5v-8.5L-5521.7-9661.4z
		 M-5505.5-9652.8c-1.1,0-2.1-0.4-2.8-1.1c-0.7-0.8-1.1-1.9-1.1-3v-0.3c0-0.8,0.2-1.5,0.5-2.2c0.3-0.6,0.8-1.2,1.3-1.5
		c0.6-0.4,1.2-0.6,1.9-0.6c1-0.1,1.9,0.3,2.6,1.1c0.7,0.9,1,2,0.9,3.1v0.6h-5.7c0,0.7,0.2,1.5,0.7,2c0.4,0.5,1.1,0.8,1.8,0.8
		c0.5,0,0.9-0.1,1.3-0.3c0.4-0.2,0.7-0.5,0.9-0.8l0.9,0.7C-5503-9653.4-5504.2-9652.8-5505.5-9652.8z M-5505.7-9660.4
		c-0.6,0-1.1,0.2-1.5,0.6c-0.4,0.5-0.7,1.1-0.7,1.8h4.2v-0.1c0-0.6-0.2-1.2-0.6-1.7C-5504.6-9660.2-5505.1-9660.4-5505.7-9660.4
		L-5505.7-9660.4z M-5496.4-9660.2c-0.2,0-0.5-0.1-0.7-0.1c-0.8-0.1-1.6,0.4-1.9,1.2v6h-1.4v-8.5h1.4l0,1c0.4-0.7,1.2-1.2,2-1.1
		c0.2,0,0.4,0,0.6,0.1L-5496.4-9660.2z M-5491.9-9654c0.5,0,1-0.2,1.4-0.5c0.4-0.3,0.6-0.7,0.6-1.2h1.4c0,0.5-0.2,1-0.5,1.4
		c-0.3,0.4-0.7,0.8-1.2,1c-0.5,0.3-1.1,0.4-1.6,0.4c-1,0-2-0.4-2.7-1.2c-0.7-0.9-1.1-2-1-3.2v-0.2c0-0.8,0.1-1.5,0.5-2.2
		c0.3-0.6,0.7-1.1,1.3-1.5c0.6-0.4,1.3-0.5,2-0.5c0.9,0,1.7,0.3,2.4,0.9c0.6,0.6,1,1.4,1,2.2h-1.4c0-0.5-0.2-1-0.6-1.3
		c-0.4-0.4-0.9-0.5-1.4-0.5c-0.7,0-1.3,0.3-1.7,0.8c-0.4,0.7-0.7,1.5-0.6,2.3v0.3c-0.1,0.8,0.2,1.6,0.6,2.2
		C-5493.2-9654.3-5492.5-9654-5491.9-9654L-5491.9-9654z M-5481.7-9653c-0.1-0.3-0.2-0.6-0.2-0.9c-0.6,0.7-1.5,1.1-2.4,1
		c-0.7,0-1.5-0.2-2.1-0.7c-0.5-0.4-0.8-1.1-0.8-1.8c0-0.8,0.3-1.6,1-2.1c0.8-0.5,1.8-0.8,2.8-0.7h1.4v-0.7c0-0.4-0.1-0.9-0.5-1.2
		c-0.4-0.3-0.8-0.5-1.3-0.4c-0.5,0-0.9,0.1-1.3,0.4c-0.3,0.2-0.5,0.6-0.5,0.9h-1.5c0-0.4,0.2-0.9,0.4-1.2c0.3-0.4,0.7-0.7,1.2-0.9
		c0.5-0.2,1.1-0.4,1.7-0.3c0.8,0,1.6,0.2,2.3,0.7c0.6,0.5,0.9,1.2,0.9,2v3.9c0,0.6,0.1,1.3,0.3,1.9v0.1H-5481.7z M-5484.1-9654.1
		c0.5,0,0.9-0.1,1.3-0.4c0.4-0.2,0.7-0.5,0.9-0.9v-1.7h-1.1c-1.8,0-2.7,0.5-2.7,1.6c0,0.4,0.1,0.8,0.5,1.1
		C-5484.9-9654.2-5484.5-9654.1-5484.1-9654.1L-5484.1-9654.1z M-5476.8-9661.5l0,1.1c0.6-0.8,1.5-1.2,2.5-1.2c1.8,0,2.7,1,2.7,3
		v5.6h-1.4v-5.6c0-0.5-0.1-1-0.4-1.4c-0.3-0.3-0.8-0.5-1.3-0.4c-0.4,0-0.9,0.1-1.2,0.4c-0.4,0.3-0.6,0.6-0.8,1v6h-1.4v-8.5
		L-5476.8-9661.5z M-5467.4-9663.5v2h1.6v1.1h-1.6v5.2c0,0.3,0.1,0.5,0.2,0.8c0.2,0.2,0.5,0.3,0.7,0.3c0.2,0,0.5,0,0.7-0.1v1.2
		c-0.4,0.1-0.7,0.2-1.1,0.2c-0.6,0-1.1-0.2-1.5-0.6c-0.4-0.5-0.5-1.1-0.5-1.7v-5.2h-1.5v-1.1h1.5v-2L-5467.4-9663.5z M-5462.6-9653
		h-1.4v-8.5h1.4L-5462.6-9653z M-5464.1-9663.7c0-0.2,0.1-0.4,0.2-0.6c0.2-0.2,0.4-0.3,0.6-0.2c0.2,0,0.5,0.1,0.6,0.2
		c0.1,0.2,0.2,0.4,0.2,0.6c0,0.2-0.1,0.4-0.2,0.6c-0.2,0.2-0.4,0.3-0.6,0.2c-0.2,0-0.5-0.1-0.6-0.2
		C-5464.1-9663.3-5464.1-9663.5-5464.1-9663.7z M-5458.7-9653h-1.4v-12h1.4V-9653z M-5573.2-9639.5v2h1.6v1.1h-1.6v5.2
		c0,0.3,0.1,0.5,0.2,0.8c0.2,0.2,0.5,0.3,0.7,0.3c0.2,0,0.5,0,0.7-0.1v1.2c-0.4,0.1-0.7,0.2-1.1,0.2c-0.6,0-1.1-0.2-1.5-0.6
		c-0.4-0.5-0.5-1.1-0.5-1.7v-5.2h-1.5v-1.1h1.5v-2H-5573.2z M-5570.4-9633.3c0-0.8,0.2-1.5,0.5-2.2c0.3-0.6,0.8-1.2,1.4-1.5
		c0.6-0.4,1.3-0.6,2-0.5c1.1,0,2.1,0.4,2.8,1.2c0.7,0.9,1.1,2,1.1,3.2v0.1c0,0.8-0.1,1.5-0.5,2.2c-0.3,0.6-0.8,1.2-1.4,1.5
		c-0.6,0.4-1.3,0.6-2,0.5c-1.1,0-2.1-0.4-2.8-1.2C-5570.1-9630.9-5570.5-9632-5570.4-9633.3L-5570.4-9633.3z M-5569-9633.1
		c0,0.8,0.2,1.6,0.7,2.3c0.7,1,2.1,1.1,3.1,0.4c0.1-0.1,0.3-0.3,0.4-0.4c0.5-0.7,0.7-1.6,0.6-2.4c0-0.8-0.2-1.6-0.7-2.3
		c-0.4-0.6-1.1-0.9-1.8-0.9c-0.7,0-1.3,0.3-1.7,0.9C-5568.8-9634.8-5569-9634-5569-9633.1L-5569-9633.1z M-5561.3-9633.3
		c-0.1-1.1,0.3-2.2,0.9-3.1c1.1-1.4,3.1-1.6,4.4-0.5c0.1,0.1,0.2,0.2,0.4,0.3v-4.4h1.4v12h-1.3l-0.1-0.9c-0.6,0.7-1.5,1.1-2.4,1.1
		c-0.9,0-1.8-0.4-2.4-1.2c-0.7-0.9-1-2-0.9-3.1L-5561.3-9633.3z M-5559.8-9633.1c0,0.8,0.2,1.6,0.6,2.2c0.4,0.5,1,0.8,1.6,0.8
		c0.9,0,1.7-0.5,2-1.2v-3.9c-0.4-0.8-1.1-1.2-2-1.2c-0.7,0-1.3,0.3-1.7,0.8C-5559.7-9634.8-5559.9-9634-5559.8-9633.1
		L-5559.8-9633.1z M-5552.3-9633.3c0-0.8,0.2-1.5,0.5-2.2c0.3-0.6,0.8-1.2,1.4-1.5c0.6-0.4,1.3-0.6,2-0.5c1.1,0,2.1,0.4,2.8,1.2
		c0.7,0.9,1.1,2,1.1,3.2v0.1c0,0.8-0.1,1.5-0.5,2.2c-0.3,0.6-0.8,1.2-1.4,1.5c-0.6,0.4-1.3,0.6-2,0.5c-1.1,0-2.1-0.4-2.8-1.2
		C-5552-9630.9-5552.3-9632-5552.3-9633.3L-5552.3-9633.3z M-5550.8-9633.1c0,0.8,0.2,1.6,0.7,2.3c0.7,1,2.1,1.1,3.1,0.4
		c0.1-0.1,0.3-0.3,0.4-0.4c0.5-0.7,0.7-1.6,0.6-2.4c0-0.8-0.2-1.6-0.7-2.3c-0.4-0.6-1.1-0.9-1.8-0.9c-0.7,0-1.3,0.3-1.7,0.9
		C-5550.7-9634.8-5550.9-9634-5550.8-9633.1L-5550.8-9633.1z M-5537.9-9631.2c0-0.4-0.2-0.7-0.4-0.9c-0.5-0.3-1-0.5-1.5-0.6
		c-0.6-0.1-1.2-0.3-1.7-0.6c-0.4-0.2-0.7-0.4-1-0.8c-0.2-0.3-0.3-0.7-0.3-1.1c0-0.7,0.3-1.3,0.9-1.8c0.6-0.5,1.4-0.8,2.2-0.7
		c0.8,0,1.7,0.2,2.3,0.7c0.6,0.5,0.9,1.2,0.9,1.9h-1.5c0-0.4-0.2-0.8-0.5-1c-0.4-0.3-0.8-0.4-1.3-0.4c-0.4,0-0.9,0.1-1.2,0.3
		c-0.3,0.2-0.5,0.5-0.4,0.9c0,0.3,0.1,0.6,0.4,0.8c0.5,0.2,1,0.4,1.5,0.5c0.6,0.1,1.2,0.3,1.8,0.6c0.4,0.2,0.7,0.5,1,0.8
		c0.2,0.3,0.3,0.7,0.3,1.2c0,0.7-0.3,1.4-0.9,1.8c-0.7,0.5-1.5,0.7-2.4,0.7c-0.6,0-1.2-0.1-1.8-0.4c-0.5-0.2-0.9-0.6-1.2-1
		c-0.3-0.4-0.4-0.9-0.4-1.4h1.4c0,0.5,0.2,0.9,0.6,1.2c0.4,0.3,0.9,0.5,1.4,0.4c0.5,0,0.9-0.1,1.3-0.3
		C-5538-9630.5-5537.8-9630.9-5537.9-9631.2L-5537.9-9631.2z M-5529-9629h-1.4v-12h1.4V-9629z M-5527.1-9633.3
		c0-0.8,0.2-1.5,0.5-2.2c0.3-0.6,0.8-1.2,1.4-1.5c0.6-0.4,1.3-0.6,2-0.5c1.1,0,2.1,0.4,2.8,1.2c0.7,0.9,1.1,2,1.1,3.2v0.1
		c0,0.8-0.1,1.5-0.5,2.2c-0.3,0.6-0.8,1.2-1.4,1.5c-0.6,0.4-1.3,0.6-2,0.5c-1.1,0-2.1-0.4-2.8-1.2
		C-5526.7-9630.9-5527.1-9632-5527.1-9633.3L-5527.1-9633.3z M-5525.6-9633.1c0,0.8,0.2,1.6,0.7,2.3c0.7,1,2.1,1.1,3.1,0.4
		c0.1-0.1,0.3-0.3,0.4-0.4c0.5-0.7,0.7-1.6,0.6-2.4c0-0.8-0.2-1.6-0.7-2.3c-0.4-0.6-1.1-0.9-1.8-0.9c-0.7,0-1.3,0.3-1.7,0.9
		C-5525.4-9634.8-5525.7-9634-5525.6-9633.1L-5525.6-9633.1z M-5512.6-9631.2c0-0.4-0.1-0.7-0.4-0.9c-0.5-0.3-1-0.5-1.5-0.6
		c-0.6-0.1-1.2-0.3-1.7-0.6c-0.4-0.2-0.7-0.4-1-0.8c-0.2-0.3-0.3-0.7-0.3-1.1c0-0.7,0.3-1.3,0.9-1.8c0.6-0.5,1.4-0.8,2.2-0.7
		c0.8,0,1.7,0.2,2.3,0.7c0.6,0.5,0.9,1.2,0.9,1.9h-1.5c0-0.4-0.2-0.8-0.5-1c-0.4-0.3-0.8-0.4-1.3-0.4c-0.4,0-0.9,0.1-1.2,0.3
		c-0.3,0.2-0.5,0.5-0.4,0.9c0,0.3,0.1,0.6,0.4,0.8c0.5,0.2,1,0.4,1.5,0.5c0.6,0.1,1.2,0.3,1.8,0.6c0.4,0.2,0.7,0.5,1,0.8
		c0.2,0.3,0.3,0.7,0.3,1.2c0,0.7-0.3,1.4-0.9,1.8c-0.7,0.5-1.5,0.7-2.4,0.7c-0.6,0-1.2-0.1-1.8-0.4c-0.5-0.2-0.9-0.6-1.2-1
		c-0.3-0.4-0.4-0.9-0.4-1.4h1.4c0,0.5,0.2,0.9,0.6,1.2c0.4,0.3,0.9,0.5,1.4,0.4c0.5,0,0.9-0.1,1.3-0.3
		C-5512.8-9630.5-5512.6-9630.9-5512.6-9631.2L-5512.6-9631.2z M-5500.1-9629c-0.1-0.3-0.2-0.6-0.2-0.9c-0.6,0.7-1.5,1.1-2.4,1
		c-0.7,0-1.5-0.2-2.1-0.7c-0.5-0.4-0.8-1.1-0.8-1.8c0-0.8,0.3-1.6,1-2.1c0.8-0.5,1.8-0.8,2.8-0.7h1.4v-0.7c0-0.4-0.1-0.9-0.5-1.2
		c-0.4-0.3-0.8-0.5-1.3-0.4c-0.5,0-0.9,0.1-1.3,0.4c-0.3,0.2-0.5,0.6-0.5,0.9h-1.5c0-0.4,0.2-0.9,0.4-1.2c0.3-0.4,0.7-0.7,1.2-0.9
		c0.5-0.2,1.1-0.4,1.7-0.3c0.8,0,1.6,0.2,2.3,0.7c0.6,0.5,0.9,1.2,0.9,2v3.9c0,0.6,0.1,1.3,0.3,1.9v0.1H-5500.1z M-5502.5-9630.1
		c0.5,0,0.9-0.1,1.3-0.4c0.4-0.2,0.7-0.5,0.9-0.9v-1.7h-1.1c-1.8,0-2.7,0.5-2.7,1.6c0,0.4,0.1,0.8,0.5,1.1
		C-5503.4-9630.2-5503-9630.1-5502.5-9630.1L-5502.5-9630.1z M-5493.3-9630c0.5,0,1-0.2,1.4-0.5c0.4-0.3,0.6-0.7,0.6-1.2h1.4
		c0,0.5-0.2,1-0.5,1.4c-0.3,0.4-0.7,0.8-1.2,1c-0.5,0.3-1.1,0.4-1.6,0.4c-1,0-2-0.4-2.7-1.2c-0.7-0.9-1.1-2-1-3.2v-0.2
		c0-0.8,0.1-1.5,0.5-2.2c0.3-0.6,0.7-1.1,1.3-1.5c0.6-0.4,1.3-0.5,2-0.5c0.9,0,1.7,0.3,2.4,0.9c0.6,0.6,1,1.4,1,2.2h-1.4
		c0-0.5-0.2-1-0.6-1.3c-0.4-0.4-0.9-0.5-1.4-0.5c-0.7,0-1.3,0.3-1.7,0.8c-0.4,0.7-0.7,1.5-0.6,2.3v0.3c-0.1,0.8,0.2,1.6,0.6,2.2
		C-5494.6-9630.3-5493.9-9630-5493.3-9630L-5493.3-9630z M-5486.3-9639.5v2h1.6v1.1h-1.6v5.2c0,0.3,0.1,0.5,0.2,0.8
		c0.2,0.2,0.5,0.3,0.7,0.3c0.2,0,0.5,0,0.7-0.1v1.2c-0.4,0.1-0.7,0.2-1.1,0.2c-0.6,0-1.1-0.2-1.5-0.6c-0.4-0.5-0.5-1.1-0.5-1.7v-5.2
		h-1.5v-1.1h1.5v-2L-5486.3-9639.5z M-5483.6-9633.3c0-0.8,0.2-1.5,0.5-2.2c0.3-0.6,0.8-1.2,1.4-1.5c0.6-0.4,1.3-0.6,2-0.5
		c1.1,0,2.1,0.4,2.8,1.2c0.7,0.9,1.1,2,1.1,3.2v0.1c0,0.8-0.1,1.5-0.5,2.2c-0.3,0.6-0.8,1.2-1.4,1.5c-0.6,0.4-1.3,0.6-2,0.5
		c-1.1,0-2.1-0.4-2.8-1.2c-0.7-0.9-1.1-2-1.1-3.2L-5483.6-9633.3z M-5482.1-9633.1c0,0.8,0.2,1.6,0.7,2.3c0.7,1,2.1,1.1,3.1,0.4
		c0.1-0.1,0.3-0.3,0.4-0.4c0.5-0.7,0.7-1.6,0.6-2.4c0-0.8-0.2-1.6-0.7-2.3c-0.4-0.6-1.1-0.9-1.8-0.9c-0.7,0-1.3,0.3-1.7,0.9
		C-5482-9634.8-5482.2-9634-5482.1-9633.1L-5482.1-9633.1z M-5469.2-9631.2c0-0.4-0.1-0.7-0.4-0.9c-0.5-0.3-1-0.5-1.5-0.6
		c-0.6-0.1-1.2-0.3-1.7-0.6c-0.4-0.2-0.7-0.4-1-0.8c-0.2-0.3-0.3-0.7-0.3-1.1c0-0.7,0.3-1.3,0.9-1.8c0.6-0.5,1.4-0.8,2.2-0.7
		c0.8,0,1.7,0.2,2.3,0.7c0.6,0.5,0.9,1.2,0.9,1.9h-1.5c0-0.4-0.2-0.8-0.5-1c-0.4-0.3-0.8-0.4-1.3-0.4c-0.4,0-0.9,0.1-1.2,0.3
		c-0.3,0.2-0.5,0.5-0.4,0.9c0,0.3,0.1,0.6,0.4,0.8c0.5,0.2,1,0.4,1.5,0.5c0.6,0.1,1.2,0.3,1.8,0.6c0.4,0.2,0.7,0.5,1,0.8
		c0.2,0.3,0.3,0.7,0.3,1.2c0,0.7-0.3,1.4-0.9,1.8c-0.7,0.5-1.5,0.7-2.4,0.7c-0.6,0-1.2-0.1-1.8-0.4c-0.5-0.2-0.9-0.6-1.2-1
		c-0.3-0.4-0.4-0.9-0.4-1.4h1.4c0,0.5,0.2,0.9,0.6,1.2c0.4,0.3,0.9,0.5,1.4,0.4c0.5,0,0.9-0.1,1.3-0.3
		C-5469.3-9630.5-5469.1-9630.9-5469.2-9631.2L-5469.2-9631.2z M-5465.9-9626.7l-0.8-0.6c0.5-0.6,0.7-1.3,0.8-2.1v-1.3h1.4v1.1
		c0,0.5-0.1,1.1-0.4,1.6C-5465.1-9627.5-5465.5-9627.1-5465.9-9626.7L-5465.9-9626.7z M-5589.3-9605h-1.4v-12h1.4V-9605z
		 M-5585.4-9605h-1.4v-8.5h1.4L-5585.4-9605z M-5587-9615.7c0-0.2,0.1-0.4,0.2-0.6c0.2-0.2,0.4-0.3,0.6-0.2c0.2,0,0.5,0.1,0.6,0.2
		c0.1,0.2,0.2,0.4,0.2,0.6c0,0.2-0.1,0.4-0.2,0.6c-0.2,0.2-0.4,0.3-0.6,0.2c-0.2,0-0.5-0.1-0.6-0.2
		C-5586.9-9615.3-5587-9615.5-5587-9615.7z M-5576-9609.1c0.1,1.1-0.3,2.2-0.9,3.1c-0.6,0.8-1.4,1.2-2.4,1.2c-1,0-1.9-0.4-2.5-1.1
		l-0.1,1h-1.3v-12h1.4v4.5c0.6-0.7,1.5-1.1,2.4-1.1c0.9,0,1.9,0.4,2.4,1.2c0.6,0.9,0.9,2.1,0.9,3.2V-9609.1z M-5577.4-9609.3
		c0-0.8-0.2-1.6-0.6-2.3c-0.4-0.5-1-0.8-1.6-0.8c-0.9,0-1.7,0.5-2.1,1.3v3.7c0.4,0.8,1.2,1.4,2.1,1.3c0.6,0,1.2-0.3,1.6-0.8
		C-5577.6-9607.6-5577.4-9608.4-5577.4-9609.3z M-5570.1-9612.2c-0.2,0-0.5-0.1-0.7-0.1c-0.8-0.1-1.6,0.4-1.9,1.2v6h-1.4v-8.5h1.4
		l0,1c0.4-0.7,1.2-1.2,2-1.1c0.2,0,0.4,0,0.6,0.1V-9612.2z M-5569.3-9609.3c0-0.8,0.2-1.5,0.5-2.2c0.3-0.6,0.8-1.2,1.4-1.5
		c0.6-0.4,1.3-0.6,2-0.5c1.1,0,2.1,0.4,2.8,1.2c0.7,0.9,1.1,2,1.1,3.2v0.1c0,0.8-0.1,1.5-0.5,2.2c-0.3,0.6-0.8,1.2-1.4,1.5
		c-0.6,0.4-1.3,0.6-2,0.5c-1.1,0-2.1-0.4-2.8-1.2c-0.7-0.9-1.1-2-1.1-3.2V-9609.3z M-5567.8-9609.1c0,0.8,0.2,1.6,0.7,2.3
		c0.7,1,2.1,1.1,3.1,0.4c0.1-0.1,0.3-0.2,0.4-0.4c0.5-0.7,0.7-1.6,0.6-2.4c0-0.8-0.2-1.6-0.7-2.3c-0.4-0.6-1.1-0.9-1.8-0.9
		c-0.7,0-1.3,0.3-1.7,0.9C-5567.7-9610.9-5567.9-9610-5567.8-9609.1L-5567.8-9609.1z M-5554.9-9607.2c0-0.4-0.1-0.7-0.4-0.9
		c-0.5-0.3-1-0.5-1.5-0.6c-0.6-0.1-1.2-0.3-1.7-0.6c-0.4-0.2-0.7-0.4-1-0.8c-0.2-0.3-0.3-0.7-0.3-1.1c0-0.7,0.3-1.3,0.9-1.8
		c0.6-0.5,1.4-0.8,2.2-0.7c0.8,0,1.7,0.2,2.3,0.7c0.6,0.5,0.9,1.2,0.9,1.9h-1.5c0-0.4-0.2-0.8-0.5-1c-0.4-0.3-0.8-0.4-1.3-0.4
		c-0.4,0-0.9,0.1-1.2,0.3c-0.3,0.2-0.5,0.5-0.4,0.9c0,0.3,0.1,0.6,0.4,0.8c0.5,0.2,1,0.4,1.5,0.5c0.6,0.1,1.2,0.3,1.8,0.6
		c0.4,0.2,0.7,0.5,1,0.8c0.2,0.3,0.3,0.7,0.3,1.2c0,0.7-0.3,1.4-0.9,1.8c-0.7,0.5-1.5,0.7-2.4,0.7c-0.6,0-1.2-0.1-1.8-0.4
		c-0.5-0.2-0.9-0.6-1.2-1c-0.3-0.4-0.4-0.9-0.4-1.4h1.4c0,0.5,0.2,0.9,0.6,1.2c0.4,0.3,0.9,0.5,1.4,0.4c0.5,0,0.9-0.1,1.3-0.3
		C-5555-9606.5-5554.8-9606.9-5554.9-9607.2L-5554.9-9607.2z M-5544.8-9607.1l2-6.3h1.5l-3.4,9.8c-0.5,1.4-1.4,2.1-2.5,2.1l-0.3,0
		l-0.5-0.1v-1.2l0.4,0c0.4,0,0.8-0.1,1.1-0.3c0.3-0.3,0.6-0.7,0.7-1.1l0.3-0.9l-3-8.4h1.6L-5544.8-9607.1z M-5536.4-9609.3
		c-0.1-1.1,0.3-2.2,0.9-3.1c1.1-1.4,3.1-1.6,4.4-0.5c0.1,0.1,0.2,0.2,0.4,0.3v-4.4h1.4v12h-1.3l-0.1-0.9c-0.6,0.7-1.5,1.1-2.4,1.1
		c-0.9,0-1.8-0.4-2.4-1.2c-0.7-0.9-1-2-0.9-3.1L-5536.4-9609.3z M-5534.9-9609.1c0,0.8,0.2,1.6,0.6,2.2c0.4,0.5,1,0.8,1.6,0.8
		c0.9,0,1.6-0.5,2-1.2v-3.9c-0.4-0.8-1.1-1.2-2-1.2c-0.7,0-1.3,0.3-1.7,0.8C-5534.8-9610.8-5535-9610-5534.9-9609.1L-5534.9-9609.1z
		 M-5527.4-9609.3c0-0.8,0.2-1.5,0.5-2.2c0.3-0.6,0.8-1.2,1.4-1.5c0.6-0.4,1.3-0.6,2-0.5c1.1,0,2.1,0.4,2.8,1.2
		c0.7,0.9,1.1,2,1.1,3.2v0.1c0,0.8-0.1,1.5-0.5,2.2c-0.3,0.6-0.8,1.2-1.4,1.5c-0.6,0.4-1.3,0.6-2,0.5c-1.1,0-2.1-0.4-2.8-1.2
		c-0.7-0.9-1.1-2-1.1-3.2L-5527.4-9609.3z M-5525.9-9609.1c0,0.8,0.2,1.6,0.7,2.3c0.8,1,2.1,1.1,3.1,0.4c0.1-0.1,0.3-0.2,0.4-0.4
		c0.5-0.7,0.7-1.6,0.6-2.4c0-0.8-0.2-1.6-0.7-2.3c-0.4-0.6-1.1-0.9-1.8-0.9c-0.7,0-1.3,0.3-1.7,0.9
		C-5525.8-9610.9-5526-9610-5525.9-9609.1L-5525.9-9609.1z M-5514.5-9606c0.5,0,1-0.2,1.4-0.5c0.4-0.3,0.6-0.7,0.6-1.2h1.4
		c0,0.5-0.2,1-0.5,1.4c-0.3,0.4-0.7,0.8-1.2,1c-0.5,0.3-1.1,0.4-1.6,0.4c-1,0-2.1-0.4-2.7-1.2c-0.7-0.9-1.1-2-1-3.2v-0.2
		c0-0.8,0.1-1.5,0.5-2.2c0.3-0.6,0.7-1.1,1.3-1.5c0.6-0.4,1.3-0.5,2-0.5c0.9,0,1.7,0.3,2.4,0.9c0.6,0.6,1,1.4,1,2.2h-1.4
		c0-0.5-0.2-1-0.6-1.3c-0.4-0.4-0.9-0.5-1.4-0.5c-0.7,0-1.3,0.3-1.7,0.8c-0.4,0.7-0.7,1.5-0.6,2.3v0.3c-0.1,0.8,0.2,1.6,0.6,2.2
		C-5515.8-9606.3-5515.2-9606-5514.5-9606L-5514.5-9606z M-5504.3-9605.8c-0.6,0.7-1.5,1.1-2.5,1c-0.8,0.1-1.5-0.2-2.1-0.8
		c-0.5-0.7-0.8-1.5-0.7-2.3v-5.5h1.4v5.5c0,1.3,0.5,1.9,1.6,1.9c0.9,0.1,1.8-0.4,2.2-1.2v-6.1h1.4v8.5h-1.4L-5504.3-9605.8z
		 M-5499.3-9613.5l0,0.9c0.6-0.7,1.5-1.1,2.5-1.1c1-0.1,2,0.4,2.4,1.4c0.3-0.4,0.7-0.7,1.1-1c0.5-0.3,1-0.4,1.6-0.4
		c1.9,0,2.8,1,2.8,2.9v5.7h-1.4v-5.6c0-0.5-0.1-1-0.4-1.4c-0.4-0.3-0.9-0.5-1.4-0.4c-0.5,0-1,0.2-1.3,0.5c-0.4,0.3-0.6,0.8-0.6,1.3
		v5.6h-1.5v-5.5c0.1-0.9-0.5-1.7-1.4-1.8c-0.1,0-0.3,0-0.4,0c-0.8-0.1-1.6,0.4-1.9,1.2v6.2h-1.5v-8.5L-5499.3-9613.5z
		 M-5483.2-9604.8c-1.1,0-2.1-0.4-2.8-1.1c-0.7-0.8-1.1-1.9-1.1-3v-0.3c0-0.8,0.2-1.5,0.5-2.2c0.3-0.6,0.8-1.2,1.3-1.5
		c0.6-0.4,1.2-0.6,1.9-0.6c1-0.1,1.9,0.3,2.6,1.1c0.7,0.9,1,2,0.9,3.1v0.6h-5.7c0,0.7,0.2,1.5,0.7,2c0.5,0.5,1.1,0.8,1.8,0.8
		c0.5,0,0.9-0.1,1.3-0.3c0.4-0.2,0.7-0.5,0.9-0.8l0.9,0.7C-5480.7-9605.4-5481.9-9604.8-5483.2-9604.8L-5483.2-9604.8z
		 M-5483.3-9612.4c-0.6,0-1.1,0.2-1.5,0.6c-0.4,0.5-0.7,1.1-0.7,1.8h4.2v-0.1c0-0.6-0.2-1.2-0.6-1.7
		C-5482.3-9612.2-5482.8-9612.4-5483.3-9612.4L-5483.3-9612.4z M-5476.8-9613.5l0,1.1c0.6-0.8,1.5-1.2,2.5-1.2c1.8,0,2.7,1,2.7,3
		v5.6h-1.4v-5.6c0-0.5-0.1-1-0.4-1.4c-0.3-0.3-0.8-0.5-1.3-0.4c-0.4,0-0.9,0.1-1.2,0.4c-0.4,0.3-0.6,0.6-0.8,1v6h-1.4v-8.5
		L-5476.8-9613.5z M-5467.4-9615.5v2h1.6v1.1h-1.6v5.2c0,0.3,0.1,0.5,0.2,0.8c0.2,0.2,0.5,0.3,0.7,0.3c0.2,0,0.5,0,0.7-0.1v1.2
		c-0.4,0.1-0.7,0.2-1.1,0.2c-0.6,0-1.1-0.2-1.5-0.6c-0.4-0.5-0.5-1.1-0.5-1.7v-5.2h-1.5v-1.1h1.5v-2H-5467.4z M-5464.7-9609.3
		c0-0.8,0.2-1.5,0.5-2.2c0.3-0.6,0.8-1.2,1.4-1.5c0.6-0.4,1.3-0.6,2-0.5c1.1,0,2.1,0.4,2.8,1.2c0.7,0.9,1.1,2,1.1,3.2v0.1
		c0,0.8-0.1,1.5-0.5,2.2c-0.3,0.6-0.8,1.2-1.4,1.5c-0.6,0.4-1.3,0.6-2,0.5c-1.1,0-2.1-0.4-2.8-1.2c-0.7-0.9-1.1-2-1.1-3.2
		L-5464.7-9609.3z M-5463.2-9609.1c0,0.8,0.2,1.6,0.7,2.3c0.7,1,2.1,1.1,3.1,0.4c0.1-0.1,0.3-0.3,0.4-0.4c0.5-0.7,0.7-1.6,0.6-2.4
		c0-0.8-0.2-1.6-0.7-2.3c-0.4-0.6-1.1-0.9-1.8-0.9c-0.7,0-1.3,0.3-1.7,0.9C-5463-9610.8-5463.3-9610-5463.2-9609.1L-5463.2-9609.1z
		 M-5450.2-9607.2c0-0.4-0.1-0.7-0.4-0.9c-0.5-0.3-1-0.5-1.5-0.6c-0.6-0.1-1.2-0.3-1.7-0.6c-0.4-0.2-0.7-0.4-1-0.8
		c-0.2-0.3-0.3-0.7-0.3-1.1c0-0.7,0.3-1.3,0.9-1.8c0.6-0.5,1.4-0.8,2.2-0.7c0.8,0,1.7,0.2,2.3,0.7c0.6,0.5,0.9,1.2,0.9,1.9h-1.5
		c0-0.4-0.2-0.8-0.5-1c-0.4-0.3-0.8-0.4-1.3-0.4c-0.4,0-0.9,0.1-1.2,0.3c-0.3,0.2-0.5,0.5-0.4,0.9c0,0.3,0.1,0.6,0.4,0.8
		c0.5,0.2,1,0.4,1.5,0.5c0.6,0.1,1.2,0.3,1.8,0.6c0.4,0.2,0.7,0.5,1,0.8c0.2,0.3,0.3,0.7,0.3,1.2c0,0.7-0.3,1.4-0.9,1.8
		c-0.7,0.5-1.5,0.7-2.4,0.7c-0.6,0-1.2-0.1-1.8-0.4c-0.5-0.2-0.9-0.6-1.2-1c-0.3-0.4-0.4-0.9-0.4-1.4h1.4c0,0.5,0.2,0.9,0.6,1.2
		c0.4,0.3,0.9,0.5,1.4,0.4c0.5,0,0.9-0.1,1.3-0.3C-5450.4-9606.5-5450.2-9606.9-5450.2-9607.2L-5450.2-9607.2z M-5569.2-9588.2
		c-0.2,0-0.5-0.1-0.7-0.1c-0.8-0.1-1.6,0.4-1.9,1.2v6h-1.4v-8.5h1.4l0,1c0.4-0.7,1.2-1.2,2-1.1c0.2,0,0.4,0,0.6,0.1V-9588.2z
		 M-5564.5-9580.8c-1.1,0-2.1-0.4-2.8-1.1c-0.7-0.8-1.1-1.9-1.1-3v-0.3c0-0.8,0.2-1.5,0.5-2.2c0.3-0.6,0.8-1.2,1.3-1.5
		c0.6-0.4,1.2-0.6,1.9-0.6c1-0.1,1.9,0.3,2.6,1.1c0.7,0.9,1,2,0.9,3.1v0.6h-5.7c0,0.7,0.2,1.5,0.7,2c0.5,0.5,1.1,0.8,1.8,0.8
		c0.5,0,0.9-0.1,1.3-0.3c0.4-0.2,0.7-0.5,0.9-0.8l0.9,0.7C-5562-9581.4-5563.2-9580.8-5564.5-9580.8L-5564.5-9580.8z
		 M-5564.7-9588.4c-0.6,0-1.1,0.2-1.5,0.6c-0.4,0.5-0.7,1.1-0.7,1.8h4.2v-0.1c0-0.6-0.2-1.2-0.6-1.7
		C-5563.6-9588.2-5564.1-9588.4-5564.7-9588.4L-5564.7-9588.4z M-5554.6-9583.2c0-0.4-0.2-0.7-0.4-0.9c-0.5-0.3-1-0.5-1.5-0.6
		c-0.6-0.1-1.2-0.3-1.7-0.6c-0.4-0.2-0.7-0.4-1-0.8c-0.2-0.3-0.3-0.7-0.3-1.1c0-0.7,0.3-1.3,0.9-1.8c0.6-0.5,1.4-0.8,2.2-0.7
		c0.8,0,1.7,0.2,2.3,0.7c0.6,0.5,0.9,1.2,0.9,1.9h-1.5c0-0.4-0.2-0.8-0.5-1c-0.4-0.3-0.8-0.4-1.3-0.4c-0.4,0-0.9,0.1-1.2,0.3
		c-0.3,0.2-0.5,0.5-0.4,0.9c0,0.3,0.1,0.6,0.4,0.8c0.5,0.2,1,0.4,1.5,0.5c0.6,0.1,1.2,0.3,1.8,0.6c0.4,0.2,0.7,0.5,1,0.8
		c0.2,0.3,0.3,0.7,0.3,1.2c0,0.7-0.3,1.4-0.9,1.8c-0.7,0.5-1.5,0.7-2.4,0.7c-0.6,0-1.2-0.1-1.8-0.4c-0.5-0.2-0.9-0.6-1.2-1
		c-0.3-0.4-0.4-0.9-0.4-1.4h1.4c0,0.5,0.2,0.9,0.6,1.2c0.4,0.3,0.9,0.5,1.4,0.4c0.5,0,0.9-0.1,1.3-0.3
		C-5554.8-9582.5-5554.6-9582.9-5554.6-9583.2L-5554.6-9583.2z M-5544.1-9585.1c0.1,1.1-0.3,2.2-0.9,3.1c-0.5,0.8-1.4,1.2-2.4,1.2
		c-0.9,0-1.8-0.3-2.4-1v4.1h-1.4v-11.7h1.3l0.1,0.9c0.6-0.7,1.5-1.1,2.5-1.1c0.9,0,1.8,0.4,2.4,1.1c0.6,0.9,1,2.1,0.9,3.2
		L-5544.1-9585.1z M-5545.6-9585.3c0-0.8-0.2-1.6-0.6-2.3c-0.4-0.5-1-0.9-1.7-0.8c-0.8,0-1.6,0.4-2,1.2v4c0.4,0.7,1.2,1.2,2,1.2
		c0.7,0,1.3-0.3,1.7-0.8C-5545.7-9583.6-5545.5-9584.4-5545.6-9585.3L-5545.6-9585.3z M-5538.8-9580.8c-1.1,0-2.1-0.4-2.8-1.1
		c-0.7-0.8-1.1-1.9-1.1-3v-0.3c0-0.8,0.2-1.5,0.5-2.2c0.3-0.6,0.8-1.2,1.3-1.5c0.6-0.4,1.2-0.6,1.9-0.6c1-0.1,1.9,0.3,2.6,1.1
		c0.7,0.9,1,2,0.9,3.1v0.6h-5.7c0,0.7,0.2,1.5,0.7,2c0.5,0.5,1.1,0.8,1.8,0.8c0.5,0,0.9-0.1,1.3-0.3c0.4-0.2,0.7-0.5,0.9-0.8
		l0.9,0.7C-5536.3-9581.4-5537.5-9580.8-5538.8-9580.8L-5538.8-9580.8z M-5539-9588.4c-0.6,0-1.1,0.2-1.5,0.6
		c-0.4,0.5-0.7,1.1-0.7,1.8h4.2v-0.1c0-0.6-0.2-1.2-0.6-1.7C-5537.9-9588.2-5538.4-9588.4-5539-9588.4L-5539-9588.4z M-5530.4-9582
		c0.5,0,1-0.2,1.4-0.5c0.4-0.3,0.6-0.7,0.6-1.2h1.4c0,0.5-0.2,1-0.5,1.4c-0.3,0.4-0.7,0.8-1.2,1c-0.5,0.3-1.1,0.4-1.6,0.4
		c-1,0-2.1-0.4-2.7-1.2c-0.7-0.9-1.1-2-1-3.2v-0.2c0-0.8,0.1-1.5,0.5-2.2c0.3-0.6,0.7-1.1,1.3-1.5c0.6-0.4,1.3-0.5,2-0.5
		c0.9,0,1.7,0.3,2.4,0.9c0.6,0.6,1,1.4,1,2.2h-1.4c0-0.5-0.2-1-0.6-1.3c-0.4-0.4-0.9-0.5-1.4-0.5c-0.7,0-1.3,0.3-1.7,0.8
		c-0.4,0.7-0.7,1.5-0.6,2.3v0.3c-0.1,0.8,0.2,1.6,0.6,2.2C-5531.7-9582.3-5531.1-9582-5530.4-9582L-5530.4-9582z M-5523.5-9591.5v2
		h1.6v1.1h-1.6v5.2c0,0.3,0.1,0.5,0.2,0.8c0.2,0.2,0.5,0.3,0.7,0.3c0.2,0,0.5,0,0.7-0.1v1.2c-0.4,0.1-0.7,0.2-1.1,0.2
		c-0.6,0-1.1-0.2-1.5-0.6c-0.4-0.5-0.5-1.1-0.5-1.7v-5.2h-1.5v-1.1h1.5v-2L-5523.5-9591.5z M-5520.7-9585.3c0-0.8,0.2-1.5,0.5-2.2
		c0.3-0.6,0.8-1.2,1.4-1.5c0.6-0.4,1.3-0.6,2-0.5c1.1,0,2.1,0.4,2.8,1.2c0.7,0.9,1.1,2,1.1,3.2v0.1c0,0.8-0.1,1.5-0.5,2.2
		c-0.3,0.6-0.8,1.2-1.4,1.5c-0.6,0.4-1.3,0.6-2,0.5c-1.1,0-2.1-0.4-2.8-1.2C-5520.4-9582.9-5520.8-9584.1-5520.7-9585.3
		L-5520.7-9585.3z M-5519.3-9585.1c0,0.8,0.2,1.6,0.7,2.3c0.7,1,2.1,1.1,3.1,0.4c0.1-0.1,0.3-0.3,0.4-0.4c0.5-0.7,0.7-1.6,0.6-2.4
		c0-0.8-0.2-1.6-0.7-2.3c-0.4-0.6-1.1-0.9-1.8-0.9c-0.7,0-1.3,0.3-1.7,0.9C-5519.1-9586.8-5519.3-9586-5519.3-9585.1L-5519.3-9585.1
		z M-5507.6-9585.3c-0.1-1.1,0.3-2.2,0.9-3.1c1.1-1.4,3.1-1.6,4.4-0.5c0.1,0.1,0.2,0.2,0.4,0.3v-4.4h1.4v12h-1.3l-0.1-0.9
		c-0.6,0.7-1.5,1.1-2.4,1.1c-0.9,0-1.8-0.4-2.4-1.2c-0.7-0.9-1-2-0.9-3.1V-9585.3z M-5506.2-9585.1c0,0.8,0.2,1.6,0.6,2.2
		c0.4,0.5,1,0.8,1.6,0.8c0.9,0,1.7-0.5,2-1.2v-3.9c-0.4-0.8-1.1-1.2-2-1.2c-0.7,0-1.3,0.3-1.7,0.8
		C-5506-9586.8-5506.2-9586-5506.2-9585.1L-5506.2-9585.1z M-5494.7-9580.8c-1.1,0-2.1-0.4-2.8-1.1c-0.7-0.8-1.1-1.9-1.1-3v-0.3
		c0-0.8,0.2-1.5,0.5-2.2c0.3-0.6,0.8-1.2,1.3-1.5c0.6-0.4,1.2-0.6,1.9-0.6c1-0.1,1.9,0.3,2.6,1.1c0.7,0.9,1,2,0.9,3.1v0.6h-5.7
		c0,0.7,0.2,1.5,0.7,2c0.4,0.5,1.1,0.8,1.8,0.8c0.5,0,0.9-0.1,1.3-0.3c0.4-0.2,0.7-0.5,0.9-0.8l0.9,0.7
		C-5492.2-9581.4-5493.5-9580.8-5494.7-9580.8L-5494.7-9580.8z M-5494.9-9588.4c-0.6,0-1.1,0.2-1.5,0.6c-0.4,0.5-0.7,1.1-0.7,1.8
		h4.2v-0.1c0-0.6-0.2-1.2-0.6-1.7C-5493.9-9588.2-5494.4-9588.4-5494.9-9588.4L-5494.9-9588.4z M-5484.2-9581h-1.4v-12h1.4V-9581z
		 M-5482.3-9585.3c0-0.8,0.2-1.5,0.5-2.2c0.3-0.6,0.8-1.2,1.4-1.5c0.6-0.4,1.3-0.6,2-0.5c1.1,0,2.1,0.4,2.8,1.2
		c0.7,0.9,1.1,2,1.1,3.2v0.1c0,0.8-0.1,1.5-0.5,2.2c-0.3,0.6-0.8,1.2-1.4,1.5c-0.6,0.4-1.3,0.6-2,0.5c-1.1,0-2.1-0.4-2.8-1.2
		c-0.7-0.9-1.1-2-1.1-3.2L-5482.3-9585.3z M-5480.9-9585.1c0,0.8,0.2,1.6,0.7,2.3c0.7,1,2.1,1.1,3.1,0.4c0.1-0.1,0.3-0.3,0.4-0.4
		c0.5-0.7,0.7-1.6,0.6-2.4c0-0.8-0.2-1.6-0.7-2.3c-0.4-0.6-1.1-0.9-1.8-0.9c-0.7,0-1.3,0.3-1.7,0.9
		C-5480.7-9586.8-5480.9-9586-5480.9-9585.1L-5480.9-9585.1z M-5467.9-9583.2c0-0.4-0.1-0.7-0.4-0.9c-0.5-0.3-1-0.5-1.5-0.6
		c-0.6-0.1-1.2-0.3-1.7-0.6c-0.4-0.2-0.7-0.4-1-0.8c-0.2-0.3-0.3-0.7-0.3-1.1c0-0.7,0.3-1.3,0.9-1.8c0.6-0.5,1.4-0.8,2.2-0.7
		c0.8,0,1.7,0.2,2.3,0.7c0.6,0.5,0.9,1.2,0.9,1.9h-1.5c0-0.4-0.2-0.8-0.5-1c-0.4-0.3-0.8-0.4-1.3-0.4c-0.4,0-0.9,0.1-1.2,0.3
		c-0.3,0.2-0.5,0.5-0.4,0.9c0,0.3,0.1,0.6,0.4,0.8c0.5,0.2,1,0.4,1.5,0.5c0.6,0.1,1.2,0.3,1.8,0.6c0.4,0.2,0.7,0.5,1,0.8
		c0.2,0.3,0.3,0.7,0.3,1.2c0,0.7-0.3,1.4-0.9,1.8c-0.7,0.5-1.5,0.7-2.4,0.7c-0.6,0-1.2-0.1-1.8-0.4c-0.5-0.2-0.9-0.6-1.2-1
		c-0.3-0.4-0.4-0.9-0.4-1.4h1.4c0,0.5,0.2,0.9,0.6,1.2c0.4,0.3,0.9,0.5,1.4,0.4c0.5,0,0.9-0.1,1.3-0.3
		C-5468.1-9582.5-5467.9-9582.9-5467.9-9583.2L-5467.9-9583.2z M-5577.3-9558c0.5,0,1-0.2,1.4-0.5c0.4-0.3,0.6-0.7,0.6-1.2h1.4
		c0,0.5-0.2,1-0.5,1.4c-0.3,0.4-0.7,0.8-1.2,1c-0.5,0.3-1.1,0.4-1.6,0.4c-1,0-2.1-0.4-2.7-1.2c-0.7-0.9-1.1-2-1-3.2v-0.2
		c0-0.8,0.1-1.5,0.5-2.2c0.3-0.6,0.7-1.1,1.3-1.5c0.6-0.4,1.3-0.5,2-0.5c0.9,0,1.7,0.3,2.4,0.9c0.6,0.6,1,1.4,1,2.2h-1.4
		c0-0.5-0.2-1-0.6-1.3c-0.4-0.4-0.9-0.5-1.4-0.5c-0.7,0-1.3,0.3-1.7,0.8c-0.4,0.7-0.7,1.5-0.6,2.3v0.3c-0.1,0.8,0.2,1.6,0.6,2.2
		C-5578.6-9558.3-5578-9558-5577.3-9558z M-5567.1-9557.8c-0.6,0.7-1.5,1.1-2.5,1c-0.8,0.1-1.5-0.2-2.1-0.8
		c-0.5-0.7-0.8-1.5-0.7-2.3v-5.5h1.4v5.5c0,1.3,0.5,1.9,1.6,1.9c0.9,0.1,1.8-0.4,2.2-1.2v-6.1h1.4v8.5h-1.4L-5567.1-9557.8z
		 M-5558.3-9557c-0.1-0.3-0.2-0.6-0.2-0.9c-0.6,0.7-1.5,1.1-2.4,1c-0.7,0-1.5-0.2-2.1-0.7c-0.5-0.4-0.8-1.1-0.8-1.8
		c0-0.8,0.3-1.6,1-2.1c0.8-0.5,1.8-0.8,2.8-0.7h1.4v-0.7c0-0.4-0.1-0.9-0.5-1.2c-0.4-0.3-0.8-0.5-1.3-0.4c-0.5,0-0.9,0.1-1.3,0.4
		c-0.3,0.2-0.5,0.6-0.5,0.9h-1.5c0-0.4,0.2-0.9,0.4-1.2c0.3-0.4,0.7-0.7,1.2-0.9c0.5-0.2,1.1-0.4,1.7-0.3c0.8,0,1.6,0.2,2.3,0.7
		c0.6,0.5,0.9,1.2,0.9,2v3.9c0,0.6,0.1,1.3,0.3,1.9v0.1H-5558.3z M-5560.7-9558.1c0.5,0,0.9-0.1,1.3-0.4c0.4-0.2,0.7-0.5,0.9-0.9
		v-1.7h-1.1c-1.8,0-2.7,0.5-2.7,1.6c0,0.4,0.1,0.8,0.5,1.1C-5561.5-9558.2-5561.1-9558.1-5560.7-9558.1z M-5553.2-9557h-1.4v-12h1.4
		L-5553.2-9557z M-5547.4-9556.8c-1.1,0-2.1-0.4-2.8-1.1c-0.7-0.8-1.1-1.9-1.1-3v-0.3c0-0.8,0.2-1.5,0.5-2.2
		c0.3-0.6,0.8-1.2,1.3-1.5c0.6-0.4,1.2-0.6,1.9-0.6c1-0.1,1.9,0.3,2.6,1.1c0.7,0.9,1,2,0.9,3.1v0.6h-5.7c0,0.7,0.2,1.5,0.7,2
		c0.5,0.5,1.1,0.8,1.8,0.8c0.5,0,0.9-0.1,1.3-0.3c0.4-0.2,0.7-0.5,0.9-0.8l0.9,0.7C-5544.9-9557.4-5546.1-9556.8-5547.4-9556.8
		L-5547.4-9556.8z M-5547.6-9564.4c-0.6,0-1.1,0.2-1.5,0.6c-0.4,0.5-0.7,1.1-0.7,1.8h4.2v-0.1c0-0.6-0.2-1.2-0.6-1.7
		C-5546.5-9564.2-5547.1-9564.4-5547.6-9564.4L-5547.6-9564.4z M-5537.5-9559.2c0-0.4-0.1-0.7-0.4-0.9c-0.5-0.3-1-0.5-1.5-0.6
		c-0.6-0.1-1.2-0.3-1.7-0.6c-0.4-0.2-0.7-0.4-1-0.8c-0.2-0.3-0.3-0.7-0.3-1.1c0-0.7,0.3-1.3,0.9-1.8c0.6-0.5,1.4-0.8,2.2-0.7
		c0.8,0,1.7,0.2,2.3,0.7c0.6,0.5,0.9,1.2,0.9,1.9h-1.5c0-0.4-0.2-0.8-0.5-1c-0.4-0.3-0.8-0.4-1.3-0.4c-0.4,0-0.9,0.1-1.2,0.3
		c-0.3,0.2-0.5,0.5-0.4,0.9c0,0.3,0.1,0.6,0.4,0.8c0.5,0.2,1,0.4,1.5,0.5c0.6,0.1,1.2,0.3,1.8,0.6c0.4,0.2,0.7,0.5,1,0.8
		c0.2,0.3,0.3,0.7,0.3,1.2c0,0.7-0.3,1.4-0.9,1.8c-0.7,0.5-1.5,0.7-2.4,0.7c-0.6,0-1.2-0.1-1.8-0.4c-0.5-0.2-0.9-0.6-1.2-1
		c-0.3-0.4-0.4-0.9-0.4-1.4h1.4c0,0.5,0.2,0.9,0.6,1.2c0.4,0.3,0.9,0.5,1.4,0.4c0.5,0,0.9-0.1,1.3-0.3
		C-5537.7-9558.5-5537.5-9558.9-5537.5-9559.2L-5537.5-9559.2z M-5528.7-9557h-1.4v-12h1.4V-9557z M-5521.1-9557
		c-0.1-0.3-0.2-0.6-0.2-0.9c-0.6,0.7-1.5,1.1-2.4,1c-0.7,0-1.5-0.2-2.1-0.7c-0.5-0.4-0.8-1.1-0.8-1.8c0-0.8,0.3-1.6,1-2.1
		c0.8-0.5,1.8-0.8,2.8-0.7h1.4v-0.7c0-0.4-0.1-0.9-0.5-1.2c-0.4-0.3-0.8-0.5-1.3-0.4c-0.5,0-0.9,0.1-1.3,0.4
		c-0.3,0.2-0.5,0.6-0.5,0.9h-1.5c0-0.4,0.2-0.9,0.4-1.2c0.3-0.4,0.7-0.7,1.2-0.9c0.5-0.2,1.1-0.4,1.7-0.3c0.8,0,1.6,0.2,2.3,0.7
		c0.6,0.5,0.9,1.2,0.9,2v3.9c0,0.6,0.1,1.3,0.3,1.9v0.1H-5521.1z M-5523.5-9558.1c0.5,0,0.9-0.1,1.3-0.4c0.4-0.2,0.7-0.5,0.9-0.9
		v-1.7h-1.1c-1.8,0-2.7,0.5-2.7,1.6c0,0.4,0.1,0.8,0.5,1.1C-5524.4-9558.2-5524-9558.1-5523.5-9558.1L-5523.5-9558.1z M-5512.1-9557
		h-1.4v-12h1.4V-9557z M-5506.3-9556.8c-1.1,0-2.1-0.4-2.8-1.1c-0.7-0.8-1.1-1.9-1.1-3v-0.3c0-0.8,0.2-1.5,0.5-2.2
		c0.3-0.6,0.8-1.2,1.3-1.5c0.6-0.4,1.2-0.6,1.9-0.6c1-0.1,1.9,0.3,2.6,1.1c0.7,0.9,1,2,0.9,3.1v0.6h-5.7c0,0.7,0.2,1.5,0.7,2
		c0.5,0.5,1.1,0.8,1.8,0.8c0.5,0,0.9-0.1,1.3-0.3c0.4-0.2,0.7-0.5,0.9-0.8l0.9,0.7C-5503.8-9557.4-5505-9556.8-5506.3-9556.8z
		 M-5506.5-9564.4c-0.6,0-1.1,0.2-1.5,0.6c-0.4,0.5-0.7,1.1-0.7,1.8h4.2v-0.1c0-0.6-0.2-1.2-0.6-1.7
		C-5505.4-9564.2-5505.9-9564.4-5506.5-9564.4L-5506.5-9564.4z M-5498.7-9559.1l2-6.3h1.5l-3.4,9.8c-0.5,1.4-1.4,2.1-2.5,2.1l-0.3,0
		l-0.5-0.1v-1.2l0.4,0c0.4,0,0.8-0.1,1.1-0.3c0.3-0.3,0.6-0.7,0.7-1.1l0.3-0.9l-3-8.4h1.6L-5498.7-9559.1z M-5486.4-9556.8
		c-1.1,0-2.1-0.4-2.8-1.1c-0.7-0.8-1.1-1.9-1.1-3v-0.3c0-0.8,0.2-1.5,0.5-2.2c0.3-0.6,0.8-1.2,1.3-1.5c0.6-0.4,1.2-0.6,1.9-0.6
		c1-0.1,1.9,0.3,2.6,1.1c0.7,0.9,1,2,0.9,3.1v0.6h-5.7c0,0.7,0.2,1.5,0.7,2c0.5,0.5,1.1,0.8,1.8,0.8c0.5,0,0.9-0.1,1.3-0.3
		c0.4-0.2,0.7-0.5,0.9-0.8l0.9,0.7C-5483.9-9557.4-5485.1-9556.8-5486.4-9556.8L-5486.4-9556.8z M-5486.6-9564.4
		c-0.6,0-1.1,0.2-1.5,0.6c-0.4,0.5-0.7,1.1-0.7,1.8h4.2v-0.1c0-0.6-0.2-1.2-0.6-1.7C-5485.5-9564.2-5486-9564.4-5486.6-9564.4
		L-5486.6-9564.4z M-5478.6-9562.4l1.9-3.1h1.7l-2.8,4.2l2.9,4.3h-1.7l-2-3.2l-2,3.2h-1.7l2.9-4.3l-2.8-4.2h1.7L-5478.6-9562.4z
		 M-5471.9-9557h-1.4v-8.5h1.4V-9557z M-5473.5-9567.7c0-0.2,0.1-0.4,0.2-0.6c0.2-0.2,0.4-0.3,0.6-0.2c0.2,0,0.5,0.1,0.6,0.2
		c0.1,0.2,0.2,0.4,0.2,0.6c0,0.2-0.1,0.4-0.2,0.6c-0.2,0.2-0.4,0.3-0.6,0.2c-0.2,0-0.5-0.1-0.6-0.2
		C-5473.4-9567.3-5473.5-9567.5-5473.5-9567.7z M-5468.1-9565.5v9.4c0,1.6-0.7,2.4-2.2,2.4c-0.3,0-0.6,0-0.9-0.1v-1.1
		c0.2,0,0.4,0.1,0.7,0.1c0.3,0,0.5-0.1,0.7-0.3c0.2-0.3,0.3-0.6,0.3-0.9v-9.5L-5468.1-9565.5z M-5469.7-9567.7
		c0-0.2,0.1-0.4,0.2-0.6c0.2-0.2,0.4-0.3,0.6-0.2c0.2,0,0.5,0.1,0.6,0.2c0.1,0.2,0.2,0.4,0.2,0.6c0,0.2-0.1,0.4-0.2,0.6
		c-0.2,0.2-0.4,0.3-0.6,0.2c-0.2,0-0.5-0.1-0.6-0.2C-5469.7-9567.3-5469.7-9567.5-5469.7-9567.7L-5469.7-9567.7z M-5460.6-9557
		c-0.1-0.3-0.2-0.6-0.2-0.9c-0.6,0.7-1.5,1.1-2.4,1c-0.7,0-1.5-0.2-2.1-0.7c-0.5-0.4-0.8-1.1-0.8-1.8c0-0.8,0.3-1.6,1-2.1
		c0.8-0.5,1.8-0.8,2.8-0.7h1.4v-0.7c0-0.4-0.1-0.9-0.5-1.2c-0.4-0.3-0.8-0.5-1.3-0.4c-0.5,0-0.9,0.1-1.3,0.4
		c-0.3,0.2-0.5,0.6-0.5,0.9h-1.5c0-0.4,0.2-0.9,0.4-1.2c0.3-0.4,0.7-0.7,1.2-0.9c0.5-0.2,1.1-0.4,1.7-0.3c0.8,0,1.6,0.2,2.3,0.7
		c0.6,0.5,0.9,1.2,0.9,2v3.9c0,0.6,0.1,1.3,0.3,1.9v0.1H-5460.6z M-5463-9558.1c0.5,0,0.9-0.1,1.3-0.4c0.4-0.2,0.7-0.5,0.9-0.9v-1.7
		h-1.1c-1.8,0-2.7,0.5-2.7,1.6c0,0.4,0.1,0.8,0.5,1.1C-5463.8-9558.2-5463.4-9558.1-5463-9558.1L-5463-9558.1z M-5570.5-9532.8
		c-1.1,0-2.1-0.4-2.8-1.1c-0.7-0.8-1.1-1.9-1.1-3v-0.3c0-0.8,0.2-1.5,0.5-2.2c0.3-0.6,0.8-1.2,1.3-1.5c0.6-0.4,1.2-0.6,1.9-0.6
		c1-0.1,1.9,0.3,2.6,1.1c0.7,0.9,1,2,0.9,3.1v0.6h-5.7c0,0.7,0.2,1.5,0.7,2c0.5,0.5,1.1,0.8,1.8,0.8c0.5,0,0.9-0.1,1.3-0.3
		c0.4-0.2,0.7-0.5,0.9-0.8l0.9,0.7C-5568-9533.4-5569.2-9532.8-5570.5-9532.8z M-5570.6-9540.4c-0.6,0-1.1,0.2-1.5,0.6
		c-0.4,0.5-0.7,1.1-0.7,1.8h4.2v-0.1c0-0.6-0.2-1.2-0.6-1.7C-5569.6-9540.2-5570.1-9540.4-5570.6-9540.4z M-5560.6-9535.2
		c0-0.4-0.1-0.7-0.4-0.9c-0.5-0.3-1-0.5-1.5-0.6c-0.6-0.1-1.2-0.3-1.7-0.6c-0.4-0.2-0.7-0.4-1-0.8c-0.2-0.3-0.3-0.7-0.3-1.1
		c0-0.7,0.3-1.3,0.9-1.8c0.6-0.5,1.4-0.8,2.2-0.7c0.8,0,1.7,0.2,2.3,0.7c0.6,0.5,0.9,1.2,0.9,1.9h-1.5c0-0.4-0.2-0.8-0.5-1
		c-0.4-0.3-0.8-0.4-1.3-0.4c-0.4,0-0.9,0.1-1.2,0.3c-0.3,0.2-0.5,0.5-0.4,0.9c0,0.3,0.1,0.6,0.4,0.8c0.5,0.2,1,0.4,1.5,0.5
		c0.6,0.1,1.2,0.3,1.8,0.6c0.4,0.2,0.7,0.5,1,0.8c0.2,0.3,0.3,0.7,0.3,1.2c0,0.7-0.3,1.4-0.9,1.8c-0.7,0.5-1.5,0.7-2.4,0.7
		c-0.6,0-1.2-0.1-1.8-0.4c-0.5-0.2-0.9-0.6-1.2-1c-0.3-0.4-0.4-0.9-0.4-1.4h1.4c0,0.5,0.2,0.9,0.6,1.2c0.4,0.3,0.9,0.5,1.4,0.4
		c0.5,0,0.9-0.1,1.3-0.3C-5560.7-9534.5-5560.6-9534.9-5560.6-9535.2L-5560.6-9535.2z M-5552-9533c-0.1-0.3-0.2-0.6-0.2-0.9
		c-0.6,0.7-1.5,1.1-2.4,1c-0.7,0-1.5-0.2-2.1-0.7c-0.5-0.4-0.8-1.1-0.8-1.8c0-0.8,0.3-1.6,1-2.1c0.8-0.5,1.8-0.8,2.8-0.7h1.4v-0.7
		c0-0.4-0.1-0.9-0.5-1.2c-0.4-0.3-0.8-0.5-1.3-0.4c-0.5,0-0.9,0.1-1.3,0.4c-0.3,0.2-0.5,0.6-0.5,0.9h-1.4c0-0.4,0.2-0.9,0.4-1.2
		c0.3-0.4,0.7-0.7,1.2-0.9c0.5-0.2,1.1-0.4,1.7-0.3c0.8,0,1.6,0.2,2.3,0.7c0.6,0.5,0.9,1.2,0.9,2v3.9c0,0.6,0.1,1.3,0.3,1.9v0.1
		H-5552z M-5554.4-9534.1c0.5,0,0.9-0.1,1.3-0.4c0.4-0.2,0.7-0.5,0.9-0.9v-1.7h-1.1c-1.8,0-2.7,0.5-2.7,1.6c0,0.4,0.1,0.8,0.5,1.1
		C-5555.2-9534.2-5554.8-9534.1-5554.4-9534.1L-5554.4-9534.1z M-5543.9-9533v-7.3h-1.3v-1.1h1.3v-0.9c0-0.8,0.2-1.5,0.7-2.1
		c0.6-0.5,1.3-0.8,2.1-0.7c0.3,0,0.7,0,1,0.1l-0.1,1.2c-0.3,0-0.5-0.1-0.8-0.1c-0.4,0-0.8,0.1-1.1,0.4c-0.3,0.3-0.4,0.8-0.4,1.2v0.9
		h1.8v1.1h-1.8v7.3H-5543.9z M-5539.4-9537.3c0-0.8,0.2-1.5,0.5-2.2c0.3-0.6,0.8-1.2,1.4-1.5c0.6-0.4,1.3-0.6,2-0.5
		c1.1,0,2.1,0.4,2.8,1.2c0.7,0.9,1.1,2,1.1,3.2v0.1c0,0.8-0.1,1.5-0.5,2.2c-0.3,0.6-0.8,1.2-1.4,1.5c-0.6,0.4-1.3,0.6-2,0.5
		c-1.1,0-2.1-0.4-2.8-1.2C-5539.1-9534.9-5539.5-9536-5539.4-9537.3L-5539.4-9537.3z M-5537.9-9537.1c0,0.8,0.2,1.6,0.7,2.3
		c0.7,1,2.1,1.1,3.1,0.4c0.1-0.1,0.3-0.3,0.4-0.4c0.5-0.7,0.7-1.6,0.6-2.4c0-0.8-0.2-1.6-0.7-2.3c-0.4-0.6-1.1-0.9-1.8-0.9
		c-0.7,0-1.3,0.3-1.7,0.9C-5537.8-9538.8-5538-9538-5537.9-9537.1L-5537.9-9537.1z M-5525.8-9540.2c-0.2,0-0.5-0.1-0.7-0.1
		c-0.8-0.1-1.6,0.4-1.9,1.2v6h-1.4v-8.5h1.4l0,1c0.4-0.7,1.2-1.2,2-1.1c0.2,0,0.4,0,0.6,0.1L-5525.8-9540.2z M-5523.1-9541.5l0,0.9
		c0.6-0.7,1.5-1.1,2.5-1.1c1-0.1,2,0.4,2.4,1.4c0.3-0.4,0.7-0.7,1.1-1c0.5-0.3,1-0.4,1.6-0.4c1.9,0,2.8,1,2.8,2.9v5.7h-1.5v-5.6
		c0-0.5-0.1-1-0.4-1.4c-0.4-0.3-0.9-0.5-1.4-0.4c-0.5,0-1,0.2-1.3,0.5c-0.4,0.3-0.6,0.8-0.6,1.3v5.6h-1.5v-5.5
		c0.1-0.9-0.5-1.7-1.4-1.8c-0.1,0-0.3,0-0.4,0c-0.8-0.1-1.6,0.4-1.9,1.2v6.2h-1.4v-8.5L-5523.1-9541.5z M-5505.2-9533
		c-0.1-0.3-0.2-0.6-0.2-0.9c-0.6,0.7-1.5,1.1-2.4,1c-0.7,0-1.5-0.2-2.1-0.7c-0.5-0.4-0.8-1.1-0.8-1.8c0-0.8,0.3-1.6,1-2.1
		c0.8-0.5,1.8-0.8,2.8-0.7h1.4v-0.7c0-0.4-0.1-0.9-0.5-1.2c-0.4-0.3-0.8-0.5-1.3-0.4c-0.5,0-0.9,0.1-1.3,0.4
		c-0.3,0.2-0.5,0.6-0.5,0.9h-1.4c0-0.4,0.2-0.9,0.4-1.2c0.3-0.4,0.7-0.7,1.2-0.9c0.5-0.2,1.1-0.4,1.7-0.3c0.8,0,1.6,0.2,2.3,0.7
		c0.6,0.5,0.9,1.2,0.9,2v3.9c0,0.6,0.1,1.3,0.3,1.9v0.1H-5505.2z M-5507.6-9534.1c0.5,0,0.9-0.1,1.3-0.4c0.4-0.2,0.7-0.5,0.9-0.9
		v-1.7h-1.1c-1.8,0-2.7,0.5-2.7,1.6c0,0.4,0.1,0.8,0.5,1.1C-5508.5-9534.2-5508.1-9534.1-5507.6-9534.1L-5507.6-9534.1z
		 M-5500.2-9533h-1.4v-12h1.4V-9533z M-5496.3-9533h-1.4v-8.5h1.4L-5496.3-9533z M-5497.9-9543.7c0-0.2,0.1-0.4,0.2-0.6
		c0.2-0.2,0.4-0.3,0.6-0.2c0.2,0,0.5,0.1,0.6,0.2c0.1,0.2,0.2,0.4,0.2,0.6c0,0.2-0.1,0.4-0.2,0.6c-0.2,0.2-0.4,0.3-0.6,0.2
		c-0.2,0-0.5-0.1-0.6-0.2C-5497.8-9543.3-5497.9-9543.5-5497.9-9543.7z M-5494.3-9537.3c-0.1-1.1,0.3-2.2,0.9-3.1
		c1.1-1.4,3.1-1.6,4.4-0.5c0.1,0.1,0.2,0.2,0.4,0.3v-4.4h1.4v12h-1.3l-0.1-0.9c-0.6,0.7-1.5,1.1-2.4,1.1c-0.9,0-1.8-0.4-2.4-1.2
		c-0.7-0.9-1-2-0.9-3.1L-5494.3-9537.3z M-5492.9-9537.1c0,0.8,0.2,1.6,0.6,2.2c0.4,0.5,1,0.8,1.6,0.8c0.9,0,1.7-0.5,2-1.2v-3.9
		c-0.4-0.8-1.1-1.2-2-1.2c-0.7,0-1.3,0.3-1.7,0.8C-5492.7-9538.8-5493-9538-5492.9-9537.1L-5492.9-9537.1z M-5479.7-9533
		c-0.1-0.3-0.2-0.6-0.2-0.9c-0.6,0.7-1.5,1.1-2.4,1c-0.7,0-1.5-0.2-2.1-0.7c-0.5-0.4-0.8-1.1-0.8-1.8c0-0.8,0.3-1.6,1-2.1
		c0.8-0.5,1.8-0.8,2.8-0.7h1.4v-0.7c0-0.4-0.1-0.9-0.5-1.2c-0.4-0.3-0.8-0.5-1.3-0.4c-0.5,0-0.9,0.1-1.3,0.4
		c-0.3,0.2-0.5,0.6-0.5,0.9h-1.5c0-0.4,0.2-0.9,0.4-1.2c0.3-0.4,0.7-0.7,1.2-0.9c0.5-0.2,1.1-0.4,1.7-0.3c0.8,0,1.6,0.2,2.3,0.7
		c0.6,0.5,0.9,1.2,0.9,2v3.9c0,0.6,0.1,1.3,0.3,1.9v0.1H-5479.7z M-5482.1-9534.1c0.5,0,0.9-0.1,1.3-0.4c0.4-0.2,0.7-0.5,0.9-0.9
		v-1.7h-1.1c-1.8,0-2.7,0.5-2.7,1.6c0,0.4,0.1,0.8,0.5,1.1C-5483-9534.2-5482.6-9534.1-5482.1-9534.1L-5482.1-9534.1z
		 M-5476.6-9537.3c-0.1-1.1,0.3-2.2,0.9-3.1c1.1-1.4,3.1-1.6,4.4-0.5c0.1,0.1,0.2,0.2,0.4,0.3v-4.4h1.4v12h-1.3l-0.1-0.9
		c-0.6,0.7-1.5,1.1-2.4,1.1c-0.9,0-1.8-0.4-2.4-1.2c-0.7-0.9-1-2-0.9-3.1L-5476.6-9537.3z M-5475.2-9537.1c0,0.8,0.2,1.6,0.6,2.2
		c0.4,0.5,1,0.8,1.6,0.8c0.9,0,1.7-0.5,2-1.2v-3.9c-0.4-0.8-1.1-1.2-2-1.2c-0.7,0-1.3,0.3-1.7,0.8
		C-5475-9538.8-5475.2-9538-5475.2-9537.1L-5475.2-9537.1z"/>
	<g id="Trazado_108344" transform="translate(-5682 -9652.998)">
		<path class="st3" d="M37,73.5c-4.9,0-9.7-1-14.2-2.9c-4.3-1.8-8.2-4.5-11.6-7.8c-3.4-3.4-6-7.3-7.8-11.6C1.5,46.7,0.5,41.9,0.5,37
			s1-9.7,2.9-14.2c1.8-4.3,4.5-8.2,7.8-11.6c3.4-3.4,7.3-6,11.6-7.8c4.5-1.9,9.3-2.9,14.2-2.9s9.7,1,14.2,2.9
			c4.3,1.8,8.2,4.5,11.6,7.8c3.4,3.4,6,7.3,7.8,11.6c1.9,4.5,2.9,9.3,2.9,14.2s-1,9.7-2.9,14.2c-1.8,4.3-4.5,8.2-7.8,11.6
			c-3.4,3.4-7.3,6-11.6,7.8C46.7,72.5,41.9,73.5,37,73.5z"/>
		<path class="st4" d="M37,1c-4.9,0-9.6,1-14,2.8c-4.3,1.8-8.1,4.4-11.4,7.7C8.2,14.9,5.6,18.7,3.8,23C2,27.4,1,32.1,1,37
			s1,9.6,2.8,14c1.8,4.3,4.4,8.1,7.7,11.4c3.3,3.3,7.2,5.9,11.4,7.7C27.4,72,32.1,73,37,73s9.6-1,14-2.8c4.3-1.8,8.1-4.4,11.4-7.7
			c3.3-3.3,5.9-7.2,7.7-11.4C72,46.6,73,41.9,73,37s-1-9.6-2.8-14c-1.8-4.3-4.4-8.1-7.7-11.4C59.1,8.2,55.3,5.6,51,3.8
			C46.6,2,41.9,1,37,1 M37,0c20.4,0,37,16.6,37,37S57.4,74,37,74S0,57.4,0,37S16.6,0,37,0z"/>
	</g>
	<path id="Trazado_108345" class="st5" d="M-5639.5-9604h-14.9v-3.2l6.9-7.2c1.7-1.9,2.5-3.5,2.5-4.6c0.1-0.7-0.2-1.5-0.6-2.1
		c-0.4-0.5-1.1-0.8-1.7-0.7c-0.7,0-1.4,0.4-1.8,1c-0.5,0.7-0.7,1.5-0.7,2.4h-5c0-1.3,0.3-2.5,1-3.6c0.6-1.1,1.6-2,2.7-2.6
		c1.2-0.6,2.5-1,3.9-0.9c1.9-0.1,3.8,0.4,5.3,1.6c1.3,1.2,2,2.9,1.9,4.6c0,0.8-0.2,1.7-0.5,2.5c-0.4,0.9-0.9,1.7-1.5,2.5
		c-1,1.2-2,2.4-3.2,3.5l-2.8,3.2h8.4V-9604z"/>
</g>
</svg>
