<svg xmlns="http://www.w3.org/2000/svg" width="286" height="286" viewBox="0 0 286 286">
  <g id="Grupo_70496" data-name="Grupo 70496" transform="translate(-2112 1373)">
    <rect id="Rectángulo_31445" data-name="Rectángulo 31445" width="286" height="286" transform="translate(2112 -1373)" fill="none"/>
    <g id="Grupo_70489" data-name="Grupo 70489" transform="translate(403 -39.846)">
      <g id="Grupo_70487" data-name="Grupo 70487" transform="translate(1797.681 -1290.841)">
        <g id="Grupo_66184" data-name="Grupo 66184" transform="translate(2.798 29.241)">
          <path id="Trazado_105947" data-name="Trazado 105947" d="M1718.742,7278.869l4.437,75.649a5.11,5.11,0,0,0,5.085,4.81l136.163.415a5.109,5.109,0,0,0,5.124-5.093l.18-58.9a5.11,5.11,0,0,0-5.126-5.125l-83.74.284a5.107,5.107,0,0,1-3.614-1.48l-14.51-14.38a5.113,5.113,0,0,0-3.581-1.48l-35.3-.107A5.109,5.109,0,0,0,1718.742,7278.869Z" transform="translate(-1718.733 -7273.461)" fill="#d9a171"/>
          <path id="Trazado_105948" data-name="Trazado 105948" d="M1718.742,7278.869l4.437,75.649a5.11,5.11,0,0,0,5.085,4.81l136.163.415a5.109,5.109,0,0,0,5.124-5.093l.18-58.9a5.11,5.11,0,0,0-5.126-5.125l-83.74.284a5.107,5.107,0,0,1-3.614-1.48l-14.51-14.38a5.113,5.113,0,0,0-3.581-1.48l-35.3-.107A5.109,5.109,0,0,0,1718.742,7278.869Z" transform="translate(-1718.733 -7273.461)" opacity="0.3"/>
        </g>
        <g id="Grupo_66190" data-name="Grupo 66190" transform="translate(4.148 0.798)">
          <g id="Grupo_66187" data-name="Grupo 66187">
            <g id="Grupo_66186" data-name="Grupo 66186">
              <rect id="Rectángulo_6055" data-name="Rectángulo 6055" width="73.892" height="59.075" transform="matrix(0.606, -0.795, 0.795, 0.606, 0.205, 58.781)" fill="#fff"/>
              <g id="Grupo_66185" data-name="Grupo 66185">
                <path id="Trazado_105949" data-name="Trazado 105949" d="M1765.864,7228.2s-.07.1-.209.289l-.62.828c-.552.732-1.362,1.806-2.416,3.2l-9.133,12.053-32.282,42.5-.028-.205,47,35.78.005,0-.229.032,44.8-58.764.026.19-34.051-26.027-9.5-7.281c-1.092-.841-1.93-1.486-2.5-1.924s-.859-.674-.859-.674.29.208.854.633l2.5,1.883,9.518,7.208,34.2,25.966.108.083-.082.109-44.754,58.8-.1.13-.13-.1-.005,0L1721,7287.093l-.117-.088.089-.117,32.456-42.485c3.94-5.145,7.047-9.2,9.175-11.981l2.426-3.156.624-.8C1765.791,7228.282,1765.864,7228.2,1765.864,7228.2Z" transform="translate(-1720.882 -7228.195)" fill="#344154"/>
              </g>
            </g>
          </g>
          <rect id="Rectángulo_6056" data-name="Rectángulo 6056" width="68.701" height="51.637" transform="matrix(0.606, -0.795, 0.795, 0.606, 4.707, 59.008)" fill="#344154"/>
          <path id="Trazado_105950" data-name="Trazado 105950" d="M1787.243,7340.605l-10.992-38.537,24.982.345-2.431-14.525,30.072-1.933Z" transform="translate(-1741.459 -7249.661)" fill="#6595bf"/>
          <g id="Grupo_66189" data-name="Grupo 66189" transform="translate(35.126 30.747)">
            <g id="Grupo_66188" data-name="Grupo 66188" transform="translate(0 0)">
              <ellipse id="Elipse_4067" data-name="Elipse 4067" cx="5.409" cy="5.409" rx="5.409" ry="5.409" transform="translate(0 1.462) rotate(-7.768)" fill="#6595bf"/>
            </g>
          </g>
        </g>
        <g id="Grupo_66196" data-name="Grupo 66196" transform="translate(55.507)">
          <g id="Grupo_66193" data-name="Grupo 66193">
            <g id="Grupo_66192" data-name="Grupo 66192">
              <rect id="Rectángulo_6057" data-name="Rectángulo 6057" width="82.223" height="102.847" transform="matrix(0.041, -0.999, 0.999, 0.041, 0.17, 82.306)" fill="#fff"/>
              <g id="Grupo_66191" data-name="Grupo 66191">
                <path id="Trazado_105951" data-name="Trazado 105951" d="M1908.926,7231.305s-.168,0-.491-.012l-1.436-.05-5.572-.212-21.026-.827-74.241-2.98.153-.14c-1,24.45-2.148,52.483-3.362,82.146v.009l-.157-.17,102.759,4.255-.141.13c1.047-24.758,1.916-45.279,2.523-59.616.31-7.174.554-12.8.719-16.639.085-1.917.151-3.386.2-4.382s.077-1.511.077-1.511-.01.5-.046,1.483-.092,2.452-.163,4.358c-.15,3.832-.369,9.449-.649,16.611-.574,14.359-1.4,34.912-2.386,59.708l-.005.136-.136-.006-102.761-4.2-.163-.007.006-.164v-.009c1.227-29.662,2.385-57.694,3.4-82.145l.006-.146.146.007,74.33,3.131,20.989.9,5.542.245,1.419.067C1908.769,7231.293,1908.926,7231.305,1908.926,7231.305Z" transform="translate(-1802.616 -7226.925)" fill="#344154"/>
              </g>
            </g>
          </g>
          <rect id="Rectángulo_6058" data-name="Rectángulo 6058" width="71.871" height="95.622" transform="translate(3.926 77.28) rotate(-87.644)" fill="#6595bf"/>
          <path id="Trazado_105952" data-name="Trazado 105952" d="M1808.863,7324.324l35.206-43.263,19.522,28.777,14.635-14.353,26.178,32.77Z" transform="translate(-1804.938 -7247.044)" fill="#344154"/>
          <g id="Grupo_66195" data-name="Grupo 66195" transform="translate(52.286 20.456)">
            <g id="Grupo_66194" data-name="Grupo 66194" transform="translate(0 0)">
              <ellipse id="Elipse_4068" data-name="Elipse 4068" cx="7.529" cy="7.529" rx="7.529" ry="7.529" transform="translate(0 14.693) rotate(-77.36)" fill="#344154"/>
            </g>
          </g>
        </g>
        <g id="Grupo_66208" data-name="Grupo 66208" transform="translate(22.441 15.675)">
          <path id="Trazado_105953" data-name="Trazado 105953" d="M1897.392,7290.1l-139.2,19.165,14.739,101.949,138.057-19.448Z" transform="translate(-1753.042 -7266.078)" fill="#ececec"/>
          <path id="Trazado_105954" data-name="Trazado 105954" d="M1899.192,7269.857l-137.584,28.518L1783.2,7399.1l136.429-28.724Z" transform="translate(-1754.309 -7258.556)" fill="#839eb6"/>
          <g id="Grupo_66207" data-name="Grupo 66207">
            <g id="Grupo_66198" data-name="Grupo 66198">
              <path id="Trazado_105955" data-name="Trazado 105955" d="M1882.841,7251.871,1750.3,7298.506l34.844,96.936,131.372-46.683Z" transform="translate(-1750.106 -7251.871)" fill="#fff"/>
              <g id="Grupo_66197" data-name="Grupo 66197" transform="translate(0 0)">
                <path id="Trazado_105956" data-name="Trazado 105956" d="M1882.728,7251.873l33.8,96.844.043.125-.125.045L1785.082,7395.6l-.154.054-.055-.153-.254-.707-34.575-96.235-.051-.141.141-.05,132.594-46.494-132.5,46.774.09-.191,34.6,96.225.254.707-.209-.1,131.382-46.655-.081.169Z" transform="translate(-1749.993 -7251.873)" fill="#344154"/>
              </g>
            </g>
            <g id="Grupo_66199" data-name="Grupo 66199" transform="translate(108.938 18.791)">
              <path id="Trazado_105957" data-name="Trazado 105957" d="M1950.891,7355.96c-.255.1-6.622-16.437-14.221-36.919s-13.556-37.17-13.3-37.265,6.62,16.434,14.222,36.923S1951.145,7355.867,1950.891,7355.96Z" transform="translate(-1923.361 -7281.776)" fill="#344154"/>
            </g>
            <g id="Grupo_66200" data-name="Grupo 66200" transform="translate(97.619 23.965)">
              <path id="Trazado_105958" data-name="Trazado 105958" d="M1932.876,7364.2c-.255.095-6.622-16.437-14.22-36.919s-13.556-37.17-13.3-37.265,6.62,16.434,14.222,36.923S1933.13,7364.1,1932.876,7364.2Z" transform="translate(-1905.347 -7290.011)" fill="#344154"/>
            </g>
            <g id="Grupo_66201" data-name="Grupo 66201" transform="translate(62.474 38.686)">
              <path id="Trazado_105959" data-name="Trazado 105959" d="M1876.945,7387.623c-.255.094-6.622-16.438-14.22-36.919s-13.556-37.171-13.3-37.265,6.62,16.434,14.222,36.924S1877.2,7387.528,1876.945,7387.623Z" transform="translate(-1849.416 -7313.438)" fill="#344154"/>
            </g>
            <g id="Grupo_66202" data-name="Grupo 66202" transform="translate(73.675 34.175)">
              <path id="Trazado_105960" data-name="Trazado 105960" d="M1894.771,7380.444c-.254.095-6.622-16.437-14.22-36.919s-13.556-37.17-13.3-37.265,6.621,16.434,14.222,36.923S1895.026,7380.35,1894.771,7380.444Z" transform="translate(-1867.241 -7306.259)" fill="#344154"/>
            </g>
            <g id="Grupo_66203" data-name="Grupo 66203" transform="translate(84.876 29.665)">
              <path id="Trazado_105961" data-name="Trazado 105961" d="M1912.6,7373.266c-.255.095-6.622-16.437-14.221-36.92s-13.555-37.17-13.3-37.265,6.62,16.434,14.222,36.923S1912.852,7373.172,1912.6,7373.266Z" transform="translate(-1885.068 -7299.081)" fill="#344154"/>
            </g>
            <g id="Grupo_66204" data-name="Grupo 66204" transform="translate(49.499 42.42)">
              <path id="Trazado_105962" data-name="Trazado 105962" d="M1856.3,7393.564c-.254.095-6.622-16.437-14.22-36.919s-13.556-37.17-13.3-37.265,6.62,16.434,14.222,36.922S1856.551,7393.47,1856.3,7393.564Z" transform="translate(-1828.767 -7319.379)" fill="#344154"/>
            </g>
            <g id="Grupo_66205" data-name="Grupo 66205" transform="translate(37.09 46.97)">
              <path id="Trazado_105963" data-name="Trazado 105963" d="M1836.548,7400.806c-.254.094-6.622-16.437-14.221-36.919s-13.556-37.171-13.3-37.265,6.621,16.434,14.222,36.923S1836.8,7400.711,1836.548,7400.806Z" transform="translate(-1809.018 -7326.621)" fill="#344154"/>
            </g>
            <g id="Grupo_66206" data-name="Grupo 66206" transform="translate(24.681 51.52)">
              <path id="Trazado_105964" data-name="Trazado 105964" d="M1816.8,7408.047c-.254.095-6.622-16.437-14.221-36.92s-13.556-37.17-13.3-37.265,6.62,16.434,14.222,36.923S1817.055,7407.953,1816.8,7408.047Z" transform="translate(-1789.271 -7333.862)" fill="#344154"/>
            </g>
          </g>
        </g>
        <path id="Trazado_105965" data-name="Trazado 105965" d="M1714.3,7345.792l11.076,92.742a3.284,3.284,0,0,0,3.252,2.9l144.99.443a3.287,3.287,0,0,0,3.285-3.018l7.582-92.685a3.284,3.284,0,0,0-3.264-3.553l-163.649-.5A3.284,3.284,0,0,0,1714.3,7345.792Z" transform="translate(-1714.28 -7269.735)" fill="#d9a171"/>
      </g>
      <g id="Grupo_70484" data-name="Grupo 70484" transform="translate(1718 -1293.154)">
        <g id="Grupo_66469" data-name="Grupo 66469" transform="translate(0 90.46)">
          <g id="Grupo_66406" data-name="Grupo 66406" transform="translate(55.882 107.407)">
            <g id="Grupo_66405" data-name="Grupo 66405">
              <g id="Grupo_66359" data-name="Grupo 66359" transform="translate(0.129)">
                <g id="Grupo_66358" data-name="Grupo 66358">
                  <g id="Grupo_66357" data-name="Grupo 66357">
                    <path id="Trazado_106032" data-name="Trazado 106032" d="M1686.329,7543.291l-.06-5.155-9.659.051.008,7.544.6.035c2.666.134,13.565.494,15.343-.056C1694.545,7545.1,1686.329,7543.291,1686.329,7543.291Z" transform="translate(-1676.611 -7538.136)" fill="#6595bf"/>
                  </g>
                </g>
              </g>
              <g id="Grupo_66362" data-name="Grupo 66362" transform="translate(0 7.304)">
                <g id="Grupo_66361" data-name="Grupo 66361">
                  <g id="Grupo_66360" data-name="Grupo 66360">
                    <path id="Trazado_106033" data-name="Trazado 106033" d="M1676.405,7549.829a.864.864,0,0,0,.167.017l.477.027,1.756.067c1.483.047,3.532.084,5.8.076s4.314-.062,5.8-.12l1.755-.081.477-.031a.82.82,0,0,0,.166-.019.945.945,0,0,0-.167,0l-.478.008-1.756.044c-1.483.037-3.531.076-5.795.085s-4.311-.015-5.794-.041l-1.756-.03-.478,0A.881.881,0,0,0,1676.405,7549.829Z" transform="translate(-1676.405 -7549.761)" fill="#344154"/>
                  </g>
                </g>
              </g>
              <g id="Grupo_66365" data-name="Grupo 66365" transform="translate(12.995 6.062)">
                <g id="Grupo_66364" data-name="Grupo 66364">
                  <g id="Grupo_66363" data-name="Grupo 66363">
                    <path id="Trazado_106034" data-name="Trazado 106034" d="M1697.1,7549.3a4,4,0,0,1,.324-.84,3.952,3.952,0,0,1,.595-.674,1.56,1.56,0,0,0-.919,1.514Z" transform="translate(-1697.086 -7547.783)" fill="#344154"/>
                  </g>
                </g>
              </g>
              <g id="Grupo_66368" data-name="Grupo 66368" transform="translate(10.152 5.338)">
                <g id="Grupo_66367" data-name="Grupo 66367">
                  <g id="Grupo_66366" data-name="Grupo 66366">
                    <path id="Trazado_106035" data-name="Trazado 106035" d="M1692.565,7547.439c.028.017.163-.149.3-.372s.231-.417.2-.434-.163.149-.3.372S1692.538,7547.422,1692.565,7547.439Z" transform="translate(-1692.56 -7546.632)" fill="#344154"/>
                  </g>
                </g>
              </g>
              <g id="Grupo_66371" data-name="Grupo 66371" transform="translate(9.37 5.189)">
                <g id="Grupo_66370" data-name="Grupo 66370">
                  <g id="Grupo_66369" data-name="Grupo 66369">
                    <path id="Trazado_106036" data-name="Trazado 106036" d="M1691.319,7546.941c.021.024.173-.079.339-.229s.282-.292.261-.315-.174.078-.339.229S1691.3,7546.917,1691.319,7546.941Z" transform="translate(-1691.317 -7546.394)" fill="#344154"/>
                  </g>
                </g>
              </g>
              <g id="Grupo_66374" data-name="Grupo 66374" transform="translate(8.874 4.772)">
                <g id="Grupo_66373" data-name="Grupo 66373">
                  <g id="Grupo_66372" data-name="Grupo 66372">
                    <path id="Trazado_106037" data-name="Trazado 106037" d="M1690.527,7545.785a2.2,2.2,0,0,0,1.009.007,2.2,2.2,0,0,0-1.009-.007Z" transform="translate(-1690.527 -7545.73)" fill="#344154"/>
                  </g>
                </g>
              </g>
              <g id="Grupo_66377" data-name="Grupo 66377" transform="translate(8.701 4.175)">
                <g id="Grupo_66376" data-name="Grupo 66376">
                  <g id="Grupo_66375" data-name="Grupo 66375">
                    <path id="Trazado_106038" data-name="Trazado 106038" d="M1690.252,7544.79a1.422,1.422,0,0,0,1.144.081,39.731,39.731,0,0,1-1.144-.081Z" transform="translate(-1690.251 -7544.78)" fill="#344154"/>
                  </g>
                </g>
              </g>
              <g id="Grupo_66380" data-name="Grupo 66380" transform="translate(10.48 4.428)">
                <g id="Grupo_66379" data-name="Grupo 66379">
                  <g id="Grupo_66378" data-name="Grupo 66378">
                    <path id="Trazado_106039" data-name="Trazado 106039" d="M1693.083,7546.058a1.794,1.794,0,0,0,.621-.008,3.635,3.635,0,0,0,.66-.148,1.816,1.816,0,0,0,.377-.157.334.334,0,0,0,.153-.193.244.244,0,0,0-.095-.248,1.148,1.148,0,0,0-1.607.755.352.352,0,0,0-.015.168,1.757,1.757,0,0,1,.28-.531,1.114,1.114,0,0,1,.529-.347.957.957,0,0,1,.74.047c.1.072.061.188-.048.254a1.884,1.884,0,0,1-.348.151,4.43,4.43,0,0,1-.638.169C1693.32,7546.036,1693.083,7546.038,1693.083,7546.058Z" transform="translate(-1693.083 -7545.183)" fill="#344154"/>
                  </g>
                </g>
              </g>
              <g id="Grupo_66383" data-name="Grupo 66383" transform="translate(9.826 4.133)">
                <g id="Grupo_66382" data-name="Grupo 66382">
                  <g id="Grupo_66381" data-name="Grupo 66381">
                    <path id="Trazado_106040" data-name="Trazado 106040" d="M1692.858,7545.914a.618.618,0,0,0,.069-.432,1.022,1.022,0,0,0-.172-.453.624.624,0,0,0-.518-.314.248.248,0,0,0-.19.288.68.68,0,0,0,.107.276,1.913,1.913,0,0,0,.295.375.9.9,0,0,0,.357.25c.011-.015-.125-.11-.3-.307a2.156,2.156,0,0,1-.261-.371c-.086-.131-.145-.366.01-.4s.315.138.41.261a1.021,1.021,0,0,1,.177.4A2.265,2.265,0,0,1,1692.858,7545.914Z" transform="translate(-1692.043 -7544.714)" fill="#344154"/>
                  </g>
                </g>
              </g>
              <g id="Grupo_66386" data-name="Grupo 66386" transform="translate(0.185 4.662)">
                <g id="Grupo_66385" data-name="Grupo 66385">
                  <g id="Grupo_66384" data-name="Grupo 66384">
                    <path id="Trazado_106041" data-name="Trazado 106041" d="M1676.7,7545.623c0,.022.276-.027.713.022a3.023,3.023,0,0,1,2.539,2c.15.413.165.691.187.688a.542.542,0,0,0,0-.2,2.474,2.474,0,0,0-.107-.52,2.933,2.933,0,0,0-2.609-2.061,2.427,2.427,0,0,0-.531.016A.58.58,0,0,0,1676.7,7545.623Z" transform="translate(-1676.7 -7545.556)" fill="#344154"/>
                  </g>
                </g>
              </g>
              <g id="Grupo_66389" data-name="Grupo 66389" transform="translate(1.091 0.705)">
                <g id="Grupo_66388" data-name="Grupo 66388">
                  <g id="Grupo_66387" data-name="Grupo 66387">
                    <path id="Trazado_106042" data-name="Trazado 106042" d="M1678.217,7539.259a33.544,33.544,0,0,0-.032,3.97,33.544,33.544,0,0,0,.032-3.97Z" transform="translate(-1678.141 -7539.259)" fill="#344154"/>
                  </g>
                </g>
              </g>
              <g id="Grupo_66392" data-name="Grupo 66392" transform="translate(4.85 6.541)">
                <g id="Grupo_66391" data-name="Grupo 66391">
                  <g id="Grupo_66390" data-name="Grupo 66390">
                    <path id="Trazado_106043" data-name="Trazado 106043" d="M1684.123,7548.558a7.923,7.923,0,0,0,2.823.013c0-.033-.633.008-1.411,0S1684.127,7548.524,1684.123,7548.558Z" transform="translate(-1684.123 -7548.546)" fill="#344154"/>
                  </g>
                </g>
              </g>
              <g id="Grupo_66395" data-name="Grupo 66395" transform="translate(2.953 6.555)">
                <g id="Grupo_66394" data-name="Grupo 66394">
                  <g id="Grupo_66393" data-name="Grupo 66393">
                    <path id="Trazado_106044" data-name="Trazado 106044" d="M1681.109,7548.572c-.023.023.052.133.117.278s.1.272.134.27.049-.153-.028-.318S1681.129,7548.549,1681.109,7548.572Z" transform="translate(-1681.104 -7548.568)" fill="#344154"/>
                  </g>
                </g>
              </g>
              <g id="Grupo_66398" data-name="Grupo 66398" transform="translate(2.235 5.669)">
                <g id="Grupo_66397" data-name="Grupo 66397">
                  <g id="Grupo_66396" data-name="Grupo 66396">
                    <path id="Trazado_106045" data-name="Trazado 106045" d="M1679.966,7547.164c-.023.023.04.123.14.224s.2.164.224.141-.04-.123-.141-.224S1679.989,7547.141,1679.966,7547.164Z" transform="translate(-1679.962 -7547.159)" fill="#344154"/>
                  </g>
                </g>
              </g>
              <g id="Grupo_66401" data-name="Grupo 66401" transform="translate(1.217 5.217)">
                <g id="Grupo_66400" data-name="Grupo 66400">
                  <g id="Grupo_66399" data-name="Grupo 66399">
                    <path id="Trazado_106046" data-name="Trazado 106046" d="M1678.342,7546.5c.007.032.135.031.277.08s.245.125.27.1-.056-.155-.233-.213S1678.332,7546.466,1678.342,7546.5Z" transform="translate(-1678.341 -7546.439)" fill="#344154"/>
                  </g>
                </g>
              </g>
              <g id="Grupo_66404" data-name="Grupo 66404" transform="translate(0.488 5.063)">
                <g id="Grupo_66403" data-name="Grupo 66403">
                  <g id="Grupo_66402" data-name="Grupo 66402">
                    <path id="Trazado_106047" data-name="Trazado 106047" d="M1677.183,7546.215c-.012.03.044.08.125.111s.155.031.166,0-.044-.079-.124-.109S1677.194,7546.186,1677.183,7546.215Z" transform="translate(-1677.181 -7546.193)" fill="#344154"/>
                  </g>
                </g>
              </g>
            </g>
          </g>
          <g id="Grupo_66456" data-name="Grupo 66456" transform="translate(0 95.588)">
            <g id="Grupo_66455" data-name="Grupo 66455">
              <g id="Grupo_66409" data-name="Grupo 66409">
                <g id="Grupo_66408" data-name="Grupo 66408">
                  <g id="Grupo_66407" data-name="Grupo 66407">
                    <path id="Trazado_106048" data-name="Trazado 106048" d="M1596.966,7528.865l2.728-4.376-8.163-5.162-4.059,6.358.485.353c2.173,1.55,11.16,7.727,12.954,8.222C1602.914,7534.813,1596.966,7528.865,1596.966,7528.865Z" transform="translate(-1587.473 -7519.327)" fill="#6595bf"/>
                  </g>
                </g>
              </g>
              <g id="Grupo_66412" data-name="Grupo 66412" transform="translate(0.003 6.097)">
                <g id="Grupo_66411" data-name="Grupo 66411">
                  <g id="Grupo_66410" data-name="Grupo 66410">
                    <path id="Trazado_106049" data-name="Trazado 106049" d="M1587.478,7529.03a.8.8,0,0,0,.131.1l.388.279,1.442,1c1.224.839,2.931,1.974,4.842,3.187s3.667,2.273,4.947,3.024l1.522.877.418.231a.958.958,0,0,0,.15.074.855.855,0,0,0-.138-.094l-.407-.251-1.5-.909c-1.269-.768-3.016-1.839-4.926-3.051s-3.623-2.336-4.859-3.157l-1.463-.972-.4-.261A1.035,1.035,0,0,0,1587.478,7529.03Z" transform="translate(-1587.478 -7529.03)" fill="#344154"/>
                  </g>
                </g>
              </g>
              <g id="Grupo_66415" data-name="Grupo 66415" transform="translate(10.851 12.473)">
                <g id="Grupo_66414" data-name="Grupo 66414">
                  <g id="Grupo_66413" data-name="Grupo 66413">
                    <path id="Trazado_106050" data-name="Trazado 106050" d="M1604.745,7539.988a3.947,3.947,0,0,1,.725-.532,3.9,3.9,0,0,1,.865-.248,1.562,1.562,0,0,0-1.59.779Z" transform="translate(-1604.742 -7539.178)" fill="#344154"/>
                  </g>
                </g>
              </g>
              <g id="Grupo_66418" data-name="Grupo 66418" transform="translate(9.219 10.125)">
                <g id="Grupo_66417" data-name="Grupo 66417">
                  <g id="Grupo_66416" data-name="Grupo 66416">
                    <path id="Trazado_106051" data-name="Trazado 106051" d="M1602.144,7535.854a1.031,1.031,0,0,0,.455-.15c.238-.112.42-.228.406-.256s-.218.038-.456.149S1602.131,7535.824,1602.144,7535.854Z" transform="translate(-1602.144 -7535.441)" fill="#344154"/>
                  </g>
                </g>
              </g>
              <g id="Grupo_66421" data-name="Grupo 66421" transform="translate(8.78 9.614)">
                <g id="Grupo_66420" data-name="Grupo 66420">
                  <g id="Grupo_66419" data-name="Grupo 66419">
                    <path id="Trazado_106052" data-name="Trazado 106052" d="M1601.446,7534.783c.006.032.188.028.409-.01s.4-.093.39-.125-.188-.027-.409.01S1601.441,7534.752,1601.446,7534.783Z" transform="translate(-1601.446 -7534.627)" fill="#344154"/>
                  </g>
                </g>
              </g>
              <g id="Grupo_66424" data-name="Grupo 66424" transform="translate(8.849 8.731)">
                <g id="Grupo_66423" data-name="Grupo 66423">
                  <g id="Grupo_66422" data-name="Grupo 66422">
                    <path id="Trazado_106053" data-name="Trazado 106053" d="M1601.557,7533.226c-.018.027.157.172.391.324s.438.253.456.226-.158-.172-.391-.324S1601.575,7533.2,1601.557,7533.226Z" transform="translate(-1601.556 -7533.222)" fill="#344154"/>
                  </g>
                </g>
              </g>
              <g id="Grupo_66427" data-name="Grupo 66427" transform="translate(9.048 8.1)">
                <g id="Grupo_66426" data-name="Grupo 66426">
                  <g id="Grupo_66425" data-name="Grupo 66425">
                    <path id="Trazado_106054" data-name="Trazado 106054" d="M1601.875,7532.221c-.025.018.124.243.387.438a.981.981,0,0,0,.532.245c.013-.031-.212-.151-.462-.339S1601.9,7532.2,1601.875,7532.221Z" transform="translate(-1601.873 -7532.219)" fill="#344154"/>
                  </g>
                </g>
              </g>
              <g id="Grupo_66430" data-name="Grupo 66430" transform="translate(9.935 9.75)">
                <g id="Grupo_66429" data-name="Grupo 66429">
                  <g id="Grupo_66428" data-name="Grupo 66428">
                    <path id="Trazado_106055" data-name="Trazado 106055" d="M1603.3,7535.1a1.77,1.77,0,0,0,.527.328,3.573,3.573,0,0,0,.636.231,1.816,1.816,0,0,0,.4.071.332.332,0,0,0,.232-.081.244.244,0,0,0,.053-.26,1.138,1.138,0,0,0-1.367-.472,1.114,1.114,0,0,0-.393.241c-.077.077-.108.128-.1.133a1.779,1.779,0,0,1,.522-.3,1.113,1.113,0,0,1,.632-.008.964.964,0,0,1,.6.438c.044.115-.05.192-.178.189a1.823,1.823,0,0,1-.375-.062,4.132,4.132,0,0,1-.629-.2C1603.506,7535.205,1603.306,7535.079,1603.3,7535.1Z" transform="translate(-1603.284 -7534.843)" fill="#344154"/>
                  </g>
                </g>
              </g>
              <g id="Grupo_66433" data-name="Grupo 66433" transform="translate(9.815 8.752)">
                <g id="Grupo_66432" data-name="Grupo 66432">
                  <g id="Grupo_66431" data-name="Grupo 66431">
                    <path id="Trazado_106056" data-name="Trazado 106056" d="M1603.344,7534.617c0,.011.166-.074.291-.326a1.023,1.023,0,0,0,.1-.474.625.625,0,0,0-.268-.543.247.247,0,0,0-.315.14.681.681,0,0,0-.059.291,1.867,1.867,0,0,0,.047.473.907.907,0,0,0,.166.4c.017-.007-.045-.161-.085-.418a2.228,2.228,0,0,1-.02-.454c0-.156.075-.387.222-.327s.19.285.2.44a1.023,1.023,0,0,1-.067.436A2.291,2.291,0,0,1,1603.344,7534.617Z" transform="translate(-1603.093 -7533.255)" fill="#344154"/>
                  </g>
                </g>
              </g>
              <g id="Grupo_66436" data-name="Grupo 66436" transform="translate(1.583 3.969)">
                <g id="Grupo_66435" data-name="Grupo 66435">
                  <g id="Grupo_66434" data-name="Grupo 66434">
                    <path id="Trazado_106057" data-name="Trazado 106057" d="M1589.993,7525.645c-.009.021.248.126.589.4a3.023,3.023,0,0,1,1.058,3.057c-.1.429-.234.671-.214.68a.562.562,0,0,0,.1-.165,2.556,2.556,0,0,0,.19-.5,2.933,2.933,0,0,0-1.088-3.142,2.585,2.585,0,0,0-.456-.273A.6.6,0,0,0,1589.993,7525.645Z" transform="translate(-1589.993 -7525.644)" fill="#344154"/>
                  </g>
                </g>
              </g>
              <g id="Grupo_66439" data-name="Grupo 66439" transform="translate(2.412 1.111)">
                <g id="Grupo_66438" data-name="Grupo 66438">
                  <g id="Grupo_66437" data-name="Grupo 66437">
                    <path id="Trazado_106058" data-name="Trazado 106058" d="M1593.48,7521.095a33.634,33.634,0,0,0-2.167,3.327,33.906,33.906,0,0,0,2.167-3.327Z" transform="translate(-1591.312 -7521.094)" fill="#344154"/>
                  </g>
                </g>
              </g>
              <g id="Grupo_66442" data-name="Grupo 66442" transform="translate(4.53 8.02)">
                <g id="Grupo_66441" data-name="Grupo 66441">
                  <g id="Grupo_66440" data-name="Grupo 66440">
                    <path id="Trazado_106059" data-name="Trazado 106059" d="M1594.683,7532.091a5.447,5.447,0,0,0,1.116.873,5.507,5.507,0,0,0,1.254.66c.015-.03-.538-.335-1.191-.758S1594.7,7532.064,1594.683,7532.091Z" transform="translate(-1594.682 -7532.089)" fill="#344154"/>
                  </g>
                </g>
              </g>
              <g id="Grupo_66445" data-name="Grupo 66445" transform="translate(2.839 7.005)">
                <g id="Grupo_66444" data-name="Grupo 66444">
                  <g id="Grupo_66443" data-name="Grupo 66443">
                    <path id="Trazado_106060" data-name="Trazado 106060" d="M1592.085,7530.476c-.032.007-.028.141-.051.3s-.062.283-.033.3.124-.1.149-.282S1592.115,7530.467,1592.085,7530.476Z" transform="translate(-1591.991 -7530.475)" fill="#344154"/>
                  </g>
                </g>
              </g>
              <g id="Grupo_66448" data-name="Grupo 66448" transform="translate(2.781 5.873)">
                <g id="Grupo_66447" data-name="Grupo 66447">
                  <g id="Grupo_66446" data-name="Grupo 66446">
                    <path id="Trazado_106061" data-name="Trazado 106061" d="M1591.923,7528.675c-.031.006-.033.125,0,.264s.08.247.112.24.033-.125,0-.264S1591.954,7528.668,1591.923,7528.675Z" transform="translate(-1591.898 -7528.675)" fill="#344154"/>
                  </g>
                </g>
              </g>
              <g id="Grupo_66451" data-name="Grupo 66451" transform="translate(2.159 4.974)">
                <g id="Grupo_66450" data-name="Grupo 66450">
                  <g id="Grupo_66449" data-name="Grupo 66449">
                    <path id="Trazado_106062" data-name="Trazado 106062" d="M1590.909,7527.253c-.012.032.1.1.19.218s.139.236.172.231.036-.16-.081-.3S1590.917,7527.224,1590.909,7527.253Z" transform="translate(-1590.909 -7527.243)" fill="#344154"/>
                  </g>
                </g>
              </g>
              <g id="Grupo_66454" data-name="Grupo 66454" transform="translate(1.637 4.43)">
                <g id="Grupo_66453" data-name="Grupo 66453">
                  <g id="Grupo_66452" data-name="Grupo 66452">
                    <path id="Trazado_106063" data-name="Trazado 106063" d="M1590.089,7526.381c-.026.02-.006.09.045.16s.114.11.14.091.006-.091-.046-.161S1590.115,7526.362,1590.089,7526.381Z" transform="translate(-1590.078 -7526.376)" fill="#344154"/>
                  </g>
                </g>
              </g>
            </g>
          </g>
          <g id="Grupo_66466" data-name="Grupo 66466" transform="translate(0.354)">
            <g id="Grupo_66463" data-name="Grupo 66463">
              <g id="Grupo_66459" data-name="Grupo 66459" transform="translate(0 0.746)">
                <g id="Grupo_66458" data-name="Grupo 66458">
                  <g id="Grupo_66457" data-name="Grupo 66457">
                    <path id="Trazado_106064" data-name="Trazado 106064" d="M1634.584,7372.771s8.194,54.445,7,57.075-39.451,44.706-39.451,44.706l-14.1-9.342s33.418-42.076,33.166-43.086-12.665-53.732-12.665-53.732Z" transform="translate(-1588.036 -7368.392)" fill="#d9a171"/>
                  </g>
                </g>
              </g>
              <g id="Grupo_66462" data-name="Grupo 66462" transform="translate(14.671)">
                <g id="Grupo_66461" data-name="Grupo 66461">
                  <g id="Grupo_66460" data-name="Grupo 66460">
                    <path id="Trazado_106065" data-name="Trazado 106065" d="M1612.562,7367.205l-.5,2.021a23.786,23.786,0,0,0,2.5,17.547l22.221,38.517a30.945,30.945,0,0,1,3.406,8.756l10.031,44.489H1665.7c0,.927-4-36.648-6.01-49.129-1.514-9.412-14.109-38.628-20.21-52.424l3.78-4.651-6.567-1.1Z" transform="translate(-1611.383 -7367.205)" fill="#d9a171"/>
                  </g>
                </g>
              </g>
            </g>
            <g id="Grupo_66464" data-name="Grupo 66464" transform="translate(43.245 9.67)">
              <path id="Trazado_106066" data-name="Trazado 106066" d="M1656.86,7382.6a2.888,2.888,0,0,1,.343.612c.2.4.479.992.811,1.726.666,1.466,1.54,3.512,2.431,5.8s1.629,4.391,2.128,5.921c.25.765.444,1.387.567,1.82a.352.352,0,1,1-.121.04l-.665-1.784c-.555-1.51-1.326-3.592-2.215-5.879s-1.727-4.342-2.337-5.829q-.422-1.042-.716-1.766A2.9,2.9,0,0,1,1656.86,7382.6Z" transform="translate(-1656.857 -7382.595)" fill="#344154"/>
            </g>
            <g id="Grupo_66465" data-name="Grupo 66465" transform="translate(26.808 35.089)">
              <path id="Trazado_106067" data-name="Trazado 106067" d="M1648.965,7462.206a2.334,2.334,0,0,1-.1-.435c-.057-.317-.131-.733-.224-1.25l-.155-.9c-.073-.33-.152-.686-.237-1.065-.171-.764-.346-1.639-.624-2.584l-.405-1.492q-.245-.769-.509-1.6c-.331-1.11-.79-2.261-1.229-3.486-.955-2.423-2.115-5.043-3.471-7.728a145.46,145.46,0,0,0-7.809-13.275l-2.579-3.9-.7-1.062a2.265,2.265,0,0,1-.226-.383,2.2,2.2,0,0,1,.28.345l.75,1.027c.647.9,1.563,2.2,2.667,3.842a128.736,128.736,0,0,1,7.908,13.256c1.36,2.693,2.517,5.328,3.46,7.767.434,1.234.885,2.393,1.206,3.512q.254.833.493,1.61l.386,1.5c.265.953.425,1.835.579,2.6q.113.574.212,1.073.069.5.126.912c.068.521.123.941.164,1.262A2.235,2.235,0,0,1,1648.965,7462.206Z" transform="translate(-1630.699 -7423.048)" fill="#344154"/>
            </g>
          </g>
          <g id="Grupo_66467" data-name="Grupo 66467" transform="translate(2.065 95.395)">
            <path id="Trazado_106068" data-name="Trazado 106068" d="M1605.216,7528.279a2.667,2.667,0,0,1-.646-.211,15.991,15.991,0,0,1-1.681-.774,39.1,39.1,0,0,1-5.11-3.323c-1.907-1.42-3.62-2.712-4.914-3.57s-2.131-1.331-2.105-1.379a2.7,2.7,0,0,1,.622.273c.393.19.943.5,1.608.912,1.335.813,3.081,2.083,4.984,3.5a50.194,50.194,0,0,0,5.027,3.382C1604.347,7527.856,1605.238,7528.226,1605.216,7528.279Z" transform="translate(-1590.759 -7519.02)" fill="#344154"/>
          </g>
          <g id="Grupo_66468" data-name="Grupo 66468" transform="translate(52.985 108.67)">
            <path id="Trazado_106069" data-name="Trazado 106069" d="M1688.116,7540.5a2.451,2.451,0,0,1-.644.037l-1.749-.013-5.768-.049-5.768.037-1.749.007a2.41,2.41,0,0,1-.643-.038,2.536,2.536,0,0,1,.638-.089c.411-.037,1.009-.075,1.747-.112,1.477-.075,3.52-.134,5.776-.132s4.3.067,5.774.145c.738.039,1.335.08,1.747.117A2.424,2.424,0,0,1,1688.116,7540.5Z" transform="translate(-1671.795 -7540.145)" fill="#344154"/>
          </g>
        </g>
        <g id="Grupo_66498" data-name="Grupo 66498" transform="translate(19.003 9.758)">
          <path id="Trazado_106070" data-name="Trazado 106070" d="M1625.109,7263.9a7.053,7.053,0,0,1-3.98-.6,3.743,3.743,0,0,1-2.1-3.257,12.17,12.17,0,0,0,.239-2.367,7.512,7.512,0,0,0-1.092-2.122,4.4,4.4,0,0,1,1.18-5.387,16.556,16.556,0,0,0,2.565-1.727c.818-.914.948-2.231,1.447-3.351a5.423,5.423,0,0,1,4.036-3.093,17.287,17.287,0,0,0,2.9-.353,9.929,9.929,0,0,0,2.141-1.275,9.913,9.913,0,0,1,7.387-1.385,5.929,5.929,0,0,1,2.995,1.474c.9.892,2.056,1.858,2.38,3.082a9.835,9.835,0,0,1-.473,4.692,3.855,3.855,0,0,1-3.026,2.934" transform="translate(-1617.715 -7238.774)" fill="#344154"/>
          <g id="Grupo_66488" data-name="Grupo 66488" transform="translate(4.58 6.366)">
            <g id="Grupo_66485" data-name="Grupo 66485">
              <g id="Grupo_66478" data-name="Grupo 66478" transform="translate(2.498)">
                <g id="Grupo_66477" data-name="Grupo 66477">
                  <g id="Grupo_66471" data-name="Grupo 66471">
                    <g id="Grupo_66470" data-name="Grupo 66470">
                      <path id="Trazado_106071" data-name="Trazado 106071" d="M1628.978,7278.777l11.8.168c.2-1.36.6-6.66.6-6.66s4.945-.3,5.464-5.165.728-16.134.728-16.134h0a17.01,17.01,0,0,0-17.216.536l-.774.488Z" transform="translate(-1628.978 -7248.905)" fill="#ffbf9d"/>
                    </g>
                  </g>
                  <g id="Grupo_66474" data-name="Grupo 66474" transform="translate(12.795 9.17)">
                    <g id="Grupo_66473" data-name="Grupo 66473">
                      <g id="Grupo_66472" data-name="Grupo 66472">
                        <path id="Trazado_106072" data-name="Trazado 106072" d="M1649.34,7269.37a3.278,3.278,0,0,1,1.107-.127c.177,0,.318-.03.34-.124a.959.959,0,0,0-.078-.514c-.131-.46-.264-.925-.4-1.413a18.838,18.838,0,0,1-.812-3.693,18.763,18.763,0,0,1,1.181,3.591l.373,1.422a1.123,1.123,0,0,1,.027.738.461.461,0,0,1-.329.252,1.1,1.1,0,0,1-.3.01A3.29,3.29,0,0,1,1649.34,7269.37Z" transform="translate(-1649.34 -7263.498)" fill="#344154"/>
                      </g>
                    </g>
                  </g>
                  <g id="Grupo_66476" data-name="Grupo 66476" transform="translate(6.235 20.907)">
                    <g id="Grupo_66475" data-name="Grupo 66475">
                      <path id="Trazado_106073" data-name="Trazado 106073" d="M1645.083,7284.58a11.385,11.385,0,0,1-6.182-2.4s1.171,3.647,6.074,3.666Z" transform="translate(-1638.901 -7282.177)" fill="#ff9a6c"/>
                    </g>
                  </g>
                </g>
              </g>
              <g id="Grupo_66484" data-name="Grupo 66484" transform="translate(0 8.181)">
                <g id="Grupo_66480" data-name="Grupo 66480">
                  <g id="Grupo_66479" data-name="Grupo 66479">
                    <path id="Trazado_106074" data-name="Trazado 106074" d="M1628.163,7261.971c-.1-.041-3.336-.568-3.152,3.282s4.012,2.392,4.013,2.281S1628.163,7261.971,1628.163,7261.971Z" transform="translate(-1625.003 -7261.925)" fill="#ffbf9d"/>
                  </g>
                </g>
                <g id="Grupo_66483" data-name="Grupo 66483" transform="translate(0.987 1.302)">
                  <g id="Grupo_66482" data-name="Grupo 66482">
                    <g id="Grupo_66481" data-name="Grupo 66481">
                      <path id="Trazado_106075" data-name="Trazado 106075" d="M1628.363,7267.01c-.018-.012-.065.05-.176.107a.673.673,0,0,1-.5.034,1.661,1.661,0,0,1-.839-1.453,2.222,2.222,0,0,1,.142-.97.775.775,0,0,1,.48-.538.341.341,0,0,1,.4.165c.057.105.036.184.057.189s.08-.069.042-.227a.43.43,0,0,0-.163-.233.5.5,0,0,0-.376-.081.945.945,0,0,0-.672.631,2.274,2.274,0,0,0-.181,1.084,1.743,1.743,0,0,0,1.057,1.617.721.721,0,0,0,.608-.131C1628.361,7267.1,1628.377,7267.017,1628.363,7267.01Z" transform="translate(-1626.573 -7263.997)" fill="#ff9a6c"/>
                    </g>
                  </g>
                </g>
              </g>
            </g>
            <g id="Grupo_66486" data-name="Grupo 66486" transform="translate(10.901 7.281)">
              <path id="Trazado_106076" data-name="Trazado 106076" d="M1642.365,7261.344c-.053-.069.039-.251.289-.443a2.254,2.254,0,0,1,2.322-.16c.273.156.389.325.346.4-.1.16-.72-.053-1.485.011C1643.073,7261.191,1642.483,7261.488,1642.365,7261.344Z" transform="translate(-1642.351 -7260.493)" fill="#344154"/>
            </g>
            <g id="Grupo_66487" data-name="Grupo 66487" transform="translate(17.744 7.757)">
              <path id="Trazado_106077" data-name="Trazado 106077" d="M1653.242,7261.667c-.033-.176.494-.421,1.186-.418s1.218.249,1.184.424-.561.23-1.186.23S1653.275,7261.847,1653.242,7261.667Z" transform="translate(-1653.241 -7261.249)" fill="#344154"/>
            </g>
          </g>
          <path id="Trazado_106078" data-name="Trazado 106078" d="M1628.091,7251.238l.549,3.552a2.955,2.955,0,0,0,.564,1.568,2.111,2.111,0,0,0,2.574.165,6.152,6.152,0,0,0,2.317-3.263,10.089,10.089,0,0,1,1.893-3.579,4.69,4.69,0,0,0,5.411,1c.785-.4,1.439-1.007,2.192-1.459a2.878,2.878,0,0,1,2.508-.4c.445.184.845.55,1.327.528a1.072,1.072,0,0,0,.865-.594,1.841,1.841,0,0,0,.158-1.07,4.2,4.2,0,0,0-2.506-3.045,13.006,13.006,0,0,0-5.733-.984,21.632,21.632,0,0,0-5.53.548,9.553,9.553,0,0,0-4.764,2.733,6.174,6.174,0,0,0-1.579,5.142" transform="translate(-1621.571 -7240.587)" fill="#344154"/>
          <path id="Trazado_106079" data-name="Trazado 106079" d="M1652.325,7248.348a5.827,5.827,0,0,0,1.854,3.217,2.494,2.494,0,0,0,1.631.731,2.022,2.022,0,0,0,1.778-2.019,3.849,3.849,0,0,0-1.2-2.631,3.653,3.653,0,0,0-2.452-1.294,1.871,1.871,0,0,0-1.96,1.644" transform="translate(-1630.446 -7241.59)" fill="#344154"/>
          <g id="Grupo_66492" data-name="Grupo 66492" transform="translate(15.179 14.976)">
            <g id="Grupo_66489" data-name="Grupo 66489" transform="translate(1.025 0.774)">
              <path id="Trazado_106080" data-name="Trazado 106080" d="M1643.5,7264.41a.618.618,0,0,0,.608.61.59.59,0,0,0,.625-.569.618.618,0,0,0-.607-.612A.592.592,0,0,0,1643.5,7264.41Z" transform="translate(-1643.503 -7263.839)" fill="#344154"/>
            </g>
            <g id="Grupo_66491" data-name="Grupo 66491">
              <g id="Grupo_66490" data-name="Grupo 66490">
                <path id="Trazado_106081" data-name="Trazado 106081" d="M1641.882,7263.281c.079.079.539-.276,1.2-.288s1.158.311,1.229.228c.035-.036-.047-.181-.262-.331a1.7,1.7,0,0,0-.985-.282,1.631,1.631,0,0,0-.955.33C1641.909,7263.1,1641.844,7263.245,1641.882,7263.281Z" transform="translate(-1641.871 -7262.607)" fill="#344154"/>
              </g>
            </g>
          </g>
          <g id="Grupo_66496" data-name="Grupo 66496" transform="translate(22.116 15.077)">
            <g id="Grupo_66493" data-name="Grupo 66493" transform="translate(0.891 0.653)">
              <path id="Trazado_106082" data-name="Trazado 106082" d="M1654.329,7264.377a.618.618,0,0,0,.608.611.59.59,0,0,0,.625-.569.618.618,0,0,0-.607-.611A.591.591,0,0,0,1654.329,7264.377Z" transform="translate(-1654.329 -7263.808)" fill="#344154"/>
            </g>
            <g id="Grupo_66495" data-name="Grupo 66495">
              <g id="Grupo_66494" data-name="Grupo 66494">
                <path id="Trazado_106083" data-name="Trazado 106083" d="M1652.921,7263.441c.078.079.539-.276,1.2-.287s1.157.311,1.228.228c.034-.038-.045-.181-.261-.332a1.7,1.7,0,0,0-.985-.282,1.639,1.639,0,0,0-.956.33C1652.949,7263.259,1652.882,7263.406,1652.921,7263.441Z" transform="translate(-1652.911 -7262.768)" fill="#344154"/>
              </g>
            </g>
          </g>
          <g id="Grupo_66497" data-name="Grupo 66497" transform="translate(17.772 21.476)">
            <path id="Trazado_106084" data-name="Trazado 106084" d="M1647.938,7274.856c.006.041-.165.118-.463.1a1.607,1.607,0,0,1-1.478-1.546c-.005-.3.079-.466.119-.458.09,0,.021.72.561,1.286S1647.941,7274.767,1647.938,7274.856Z" transform="translate(-1645.998 -7272.951)" fill="#344154"/>
          </g>
        </g>
        <g id="Grupo_66500" data-name="Grupo 66500" transform="translate(40.87 55.03)">
          <g id="Grupo_66499" data-name="Grupo 66499">
            <path id="Trazado_106085" data-name="Trazado 106085" d="M1652.585,7314.1l9.806-3.279s6.829,16.15,8.587,16.311c9.735.889,20.152-2.34,23.8-3.615.371-.417.794-.917,1.266-1.528a5.819,5.819,0,0,0,.916-1.749,8.909,8.909,0,0,0,.521-2.405.764.764,0,0,1,1.313-.6c.422.544.528,2.631-.432,4.875s2.441.459,3.692-.169,5.214-2.391,5.711-2.16c.73.34.5,1.186-.763,1.783-1.279.606-4.928,2.66-4.564,3.3s6.684-2.65,6.684-2.65,1.239-.921,1.683-.19c.8,1.319-6.179,4.316-6.851,4.585-.466.188-.1.9.395.675s6.233-3.424,7.063-2.089c.637,1.024-5.72,2.52-6.541,3.841s4.706-1.624,5.274-.62c.212.373.318.682-3.1,1.914a72.58,72.58,0,0,1-7.618,1.945l.012.035s-35.18,15.743-41.507.551C1651.491,7317.384,1652.585,7314.1,1652.585,7314.1Z" transform="translate(-1652.515 -7310.821)" fill="#ff9a6c"/>
          </g>
        </g>
        <path id="Trazado_106086" data-name="Trazado 106086" d="M1648.83,7308.844c-3.924-9.193-9.069-12.795-11.782-14.124a7.891,7.891,0,0,0-3.038-.781h0l-.326-1.579-13.01-1.171-.318,2.011-1.909-.1s-11.216,1.123-11.236,14.114c-.009,6.076,3.272,11.989,4.429,14.884.723,6.061-1.878,17.045-1.807,19.726l31.878,2.262,1.349-19.926-.3-1.87,10.493-3.212Zm-28.156-15.628Z" transform="translate(-1594.808 -7248.495)" fill="#ececec"/>
        <g id="Grupo_66504" data-name="Grupo 66504" transform="translate(36.045)">
          <g id="Grupo_66501" data-name="Grupo 66501">
            <path id="Trazado_106087" data-name="Trazado 106087" d="M1735.179,7241.179a37.036,37.036,0,0,0-65.65,19.321h0a37.011,37.011,0,0,0,12.5,31.835l-32.419,38.044,4.652,3.965,32.693-38.366a36.823,36.823,0,0,0,15.462,5.283,37.742,37.742,0,0,0,4.006.214,37.04,37.04,0,0,0,28.753-60.3Zm1.925,26.543a30.923,30.923,0,1,1-6.682-22.7A30.723,30.723,0,0,1,1737.1,7267.722Z" transform="translate(-1646.611 -7224.788)" fill="#344154"/>
            <path id="Trazado_106088" data-name="Trazado 106088" d="M1730.794,7237.025a37.037,37.037,0,0,0-65.65,19.321h0a37.01,37.01,0,0,0,12.5,31.835l-32.811,38.356,4.973,3.979,32.764-38.69a36.808,36.808,0,0,0,15.462,5.282,37.6,37.6,0,0,0,4.006.214,37.04,37.04,0,0,0,28.753-60.3Zm1.925,26.544a30.922,30.922,0,1,1-6.681-22.706A30.72,30.72,0,0,1,1732.719,7263.569Z" transform="translate(-1644.836 -7223.245)" fill="#6595bf"/>
          </g>
          <g id="Grupo_66502" data-name="Grupo 66502" transform="translate(33.618 23.294)">
            <path id="Trazado_106089" data-name="Trazado 106089" d="M1705.047,7294.124a1.456,1.456,0,0,1-.245-.272c-.148-.187-.38-.455-.643-.826a28.278,28.278,0,0,1-2.064-3.253,30.635,30.635,0,0,1-2.1-24.67,28.019,28.019,0,0,1,1.485-3.554c.2-.411.38-.713.494-.923a1.534,1.534,0,0,1,.2-.309,1.586,1.586,0,0,1-.137.339c-.095.219-.259.531-.437.947a33.609,33.609,0,0,0-1.381,3.572,31.472,31.472,0,0,0,2.081,24.489,33.622,33.622,0,0,0,1.964,3.288c.246.381.461.66.591.86A1.582,1.582,0,0,1,1705.047,7294.124Z" transform="translate(-1698.336 -7260.316)" fill="#344154"/>
          </g>
          <g id="Grupo_66503" data-name="Grupo 66503" transform="translate(40.438 19.06)">
            <path id="Trazado_106090" data-name="Trazado 106090" d="M1710.626,7253.589c.055.076-.322.427-.7.922s-.624.946-.712.914.038-.576.453-1.113S1710.579,7253.516,1710.626,7253.589Z" transform="translate(-1709.19 -7253.577)" fill="#344154"/>
          </g>
        </g>
        <g id="Grupo_66526" data-name="Grupo 66526" transform="translate(13.14 42.997)">
          <g id="Grupo_66506" data-name="Grupo 66506" transform="translate(32.19 10.409)">
            <g id="Grupo_66505" data-name="Grupo 66505">
              <path id="Trazado_106091" data-name="Trazado 106091" d="M1659.62,7308.236a4.762,4.762,0,0,1,.228.868c.127.562.292,1.379.482,2.393.38,2.027.838,4.839,1.225,7.962s.625,5.964.749,8.021c.063,1.029.1,1.863.115,2.439a.449.449,0,1,1-.127.007l-.219-2.429c-.184-2.051-.459-4.882-.843-8s-.807-5.929-1.128-7.963c-.153-.97-.28-1.779-.379-2.409A4.624,4.624,0,0,1,1659.62,7308.236Z" transform="translate(-1659.614 -7308.236)" fill="#344154"/>
            </g>
          </g>
          <g id="Grupo_66508" data-name="Grupo 66508" transform="translate(2.623 19.821)">
            <g id="Grupo_66507" data-name="Grupo 66507">
              <path id="Trazado_106092" data-name="Trazado 106092" d="M1659.474,7344.669s-35.168,15.778-41.494.586c-6.445-15.479-5.351-18.762-5.351-18.762l9.806-3.279s6.83,16.151,8.587,16.312c9.736.888,20.152-2.34,23.805-3.616.371-.416.794-.917,1.266-1.528.4-.525.825-1.282,1.239-1.8a12.866,12.866,0,0,1,2.07-1.816c.971-1.1,1.858-.3,1.436.295a10.589,10.589,0,0,0-2.427,3.441c-.961,2.243,2.463,1.142,3.817.784,1.5-.394,4.309-1.486,4.309-1.486a3.291,3.291,0,0,1-1.944,2.584,20.01,20.01,0,0,1-2.108.876s2.6-.315,2.669.277-.77,4.975-3.535,6.277Z" transform="translate(-1612.559 -7323.214)" fill="#ffbf9d"/>
            </g>
          </g>
          <path id="Trazado_106093" data-name="Trazado 106093" d="M1618.6,7300.808l6.317,19.086-13.826,5.465s-7.214-18.742,1.921-23.33Z" transform="translate(-1608.385 -7295.066)" fill="#ececec"/>
          <g id="Grupo_66515" data-name="Grupo 66515" transform="translate(2.67 2.929)">
            <g id="Grupo_66509" data-name="Grupo 66509" transform="translate(3.835)">
              <path id="Trazado_106094" data-name="Trazado 106094" d="M1629.683,7317.486c-.007.006-.077-.049-.188-.178a3.552,3.552,0,0,1-.414-.614,21.179,21.179,0,0,1-1-2.511c-.774-2.139-1.823-5.1-2.962-8.379-.564-1.638-1.1-3.2-1.594-4.626a11.49,11.49,0,0,0-1.595-3.588,2.914,2.914,0,0,0-2.259-1.124,2.864,2.864,0,0,0-.937.226.634.634,0,0,1,.212-.149,1.851,1.851,0,0,1,.718-.2,2.994,2.994,0,0,1,2.443,1.1,11.22,11.22,0,0,1,1.7,3.639l1.618,4.618c1.139,3.277,2.153,6.251,2.871,8.41.366,1.077.619,1.964.892,2.529S1629.705,7317.468,1629.683,7317.486Z" transform="translate(-1618.738 -7296.333)" fill="#344154"/>
            </g>
            <g id="Grupo_66510" data-name="Grupo 66510" transform="translate(0 21.508)">
              <path id="Trazado_106095" data-name="Trazado 106095" d="M1627.121,7330.563a2.252,2.252,0,0,1-.523.328c-.346.193-.855.458-1.49.773-1.269.629-3.049,1.447-5.054,2.257s-3.856,1.454-5.207,1.881c-.675.215-1.225.377-1.608.478a2.28,2.28,0,0,1-.6.128,18.093,18.093,0,0,1,2.138-.823c1.328-.482,3.159-1.161,5.158-1.967s3.787-1.588,5.079-2.163A18.82,18.82,0,0,1,1627.121,7330.563Z" transform="translate(-1612.635 -7330.559)" fill="#344154"/>
            </g>
            <g id="Grupo_66511" data-name="Grupo 66511" transform="translate(1.163 23.82)">
              <path id="Trazado_106096" data-name="Trazado 106096" d="M1615.626,7337.08a7.194,7.194,0,1,1-.408-1.48A3.7,3.7,0,0,1,1615.626,7337.08Z" transform="translate(-1614.485 -7334.239)" fill="#344154"/>
            </g>
            <g id="Grupo_66512" data-name="Grupo 66512" transform="translate(4.201 22.796)">
              <path id="Trazado_106097" data-name="Trazado 106097" d="M1620.341,7335.352c-.077.042-.46-.509-.736-1.283a2.655,2.655,0,0,1-.246-1.458,15.656,15.656,0,0,1,.982,2.741Z" transform="translate(-1619.321 -7332.61)" fill="#344154"/>
            </g>
            <g id="Grupo_66513" data-name="Grupo 66513" transform="translate(7.197 21.382)">
              <path id="Trazado_106098" data-name="Trazado 106098" d="M1625.176,7333.189a4.247,4.247,0,0,1-1.05-2.829,22.866,22.866,0,0,1,1.05,2.829Z" transform="translate(-1624.089 -7330.359)" fill="#344154"/>
            </g>
            <g id="Grupo_66514" data-name="Grupo 66514" transform="translate(10.592 19.876)">
              <path id="Trazado_106099" data-name="Trazado 106099" d="M1630.458,7330.974a7.678,7.678,0,1,1-.315-1.554A3.948,3.948,0,0,1,1630.458,7330.974Z" transform="translate(-1629.491 -7327.963)" fill="#344154"/>
            </g>
          </g>
          <g id="Grupo_66520" data-name="Grupo 66520" transform="translate(34.812 25.363)">
            <g id="Grupo_66516" data-name="Grupo 66516" transform="translate(0 2)">
              <path id="Trazado_106100" data-name="Trazado 106100" d="M1674.532,7335.225a97.061,97.061,0,0,1-10.746,3.422,97.614,97.614,0,0,1,10.746-3.422Z" transform="translate(-1663.786 -7335.218)" fill="#344154"/>
            </g>
            <g id="Grupo_66517" data-name="Grupo 66517" transform="translate(1.366 2.034)">
              <path id="Trazado_106101" data-name="Trazado 106101" d="M1666.917,7337.463c-.083.035-.359-.427-.617-1.031s-.4-1.123-.317-1.16.359.427.618,1.032S1667,7337.428,1666.917,7337.463Z" transform="translate(-1665.959 -7335.271)" fill="#344154"/>
            </g>
            <g id="Grupo_66518" data-name="Grupo 66518" transform="translate(4.264 0.997)">
              <path id="Trazado_106102" data-name="Trazado 106102" d="M1671.337,7336.239c-.082.033-.381-.513-.581-1.248a2.48,2.48,0,0,1-.136-1.37c.09-.015.255.568.452,1.283A3.7,3.7,0,0,1,1671.337,7336.239Z" transform="translate(-1670.571 -7333.621)" fill="#344154"/>
            </g>
            <g id="Grupo_66519" data-name="Grupo 66519" transform="translate(7.345)">
              <path id="Trazado_106103" data-name="Trazado 106103" d="M1676.066,7334.718a5.818,5.818,0,1,1-.114-1.375A3.021,3.021,0,0,1,1676.066,7334.718Z" transform="translate(-1675.475 -7332.033)" fill="#344154"/>
            </g>
          </g>
          <g id="Grupo_66521" data-name="Grupo 66521" transform="translate(13.894)">
            <path id="Trazado_106104" data-name="Trazado 106104" d="M1630.614,7293.2c-.09-.006-.139-.354-.109-.778s.127-.762.218-.755.139.354.109.778S1630.7,7293.211,1630.614,7293.2Z" transform="translate(-1630.497 -7291.671)" fill="#344154"/>
          </g>
          <g id="Grupo_66522" data-name="Grupo 66522" transform="translate(16.68 0.166)">
            <path id="Trazado_106105" data-name="Trazado 106105" d="M1635.127,7293.469c-.09,0-.177-.338-.194-.761s.043-.77.133-.774.177.337.195.761S1635.218,7293.465,1635.127,7293.469Z" transform="translate(-1634.93 -7291.935)" fill="#344154"/>
          </g>
          <g id="Grupo_66523" data-name="Grupo 66523" transform="translate(18.935 0.494)">
            <path id="Trazado_106106" data-name="Trazado 106106" d="M1638.676,7294.045c-.09,0-.161-.356-.157-.8s.079-.793.17-.792.161.356.158.8S1638.766,7294.046,1638.676,7294.045Z" transform="translate(-1638.519 -7292.458)" fill="#344154"/>
          </g>
          <g id="Grupo_66524" data-name="Grupo 66524" transform="translate(21.804 0.548)">
            <path id="Trazado_106107" data-name="Trazado 106107" d="M1643.365,7294.406c-.085.022-.264-.385-.28-.923s.137-.958.223-.94.087.431.1.93S1643.455,7294.384,1643.365,7294.406Z" transform="translate(-1643.084 -7292.542)" fill="#344154"/>
          </g>
          <g id="Grupo_66525" data-name="Grupo 66525" transform="translate(24.24 0.55)">
            <path id="Trazado_106108" data-name="Trazado 106108" d="M1647.269,7294.408c-.09.011-.212-.4-.274-.912s-.039-.939.051-.95.213.4.274.911S1647.359,7294.4,1647.269,7294.408Z" transform="translate(-1646.961 -7292.545)" fill="#344154"/>
          </g>
        </g>
      </g>
    </g>
  </g>
</svg>
