<svg xmlns="http://www.w3.org/2000/svg" xmlns:xlink="http://www.w3.org/1999/xlink" width="125" height="116.391" viewBox="0 0 125 116.391">
  <defs>
    <clipPath id="clip-path">
      <rect id="Rectángulo_25627" data-name="Rectángulo 25627" width="125" height="116.391" fill="none"/>
    </clipPath>
  </defs>
  <g id="Grupo_58894" data-name="Grupo 58894" transform="translate(0)">
    <g id="Grupo_24951" data-name="Grupo 24951" transform="translate(0 0)" clip-path="url(#clip-path)">
      <path id="Trazado_64730" data-name="Trazado 64730" d="M117.254,18.628a17.128,17.128,0,1,0-17.129,17.129A17.128,17.128,0,0,0,117.254,18.628Z" transform="translate(-4.048 -0.073)" fill="none" stroke="#344154" stroke-linecap="round" stroke-linejoin="round" stroke-width="3"/>
      <path id="Trazado_64731" data-name="Trazado 64731" d="M100.419,21.51a11.434,11.434,0,0,1-10.45-6.83,11.421,11.421,0,1,0,20.9,0,11.431,11.431,0,0,1-10.449,6.83" transform="translate(-4.341 -0.716)" fill="#f37e5f"/>
      <path id="Trazado_64732" data-name="Trazado 64732" d="M106.885,36.32l10.969,10.969V36.357h10.932L117.817,25.387" transform="translate(-5.214 -1.238)" fill="none" stroke="#344154" stroke-linecap="round" stroke-linejoin="round" stroke-width="3"/>
      <path id="Trazado_64733" data-name="Trazado 64733" d="M94,36.32,83.031,47.289V36.357H72.1L83.068,25.387" transform="translate(-3.517 -1.238)" fill="none" stroke="#344154" stroke-linecap="round" stroke-linejoin="round" stroke-width="3"/>
      <line id="Línea_154" data-name="Línea 154" x2="34.222" transform="translate(59.866 80.707)" fill="none" stroke="#344154" stroke-linecap="round" stroke-linejoin="round" stroke-width="3"/>
      <line id="Línea_155" data-name="Línea 155" y2="29.702" transform="translate(106.185 52.836)" fill="none" stroke="#344154" stroke-linecap="round" stroke-linejoin="round" stroke-width="3"/>
      <line id="Línea_156" data-name="Línea 156" x2="46.822" transform="translate(26.833 7.558)" fill="none" stroke="#344154" stroke-linecap="round" stroke-linejoin="round" stroke-width="3"/>
      <line id="Línea_157" data-name="Línea 157" y1="32.827" transform="translate(26.833 15.816)" fill="none" stroke="#344154" stroke-linecap="round" stroke-linejoin="round" stroke-width="3"/>
      <path id="Trazado_64734" data-name="Trazado 64734" d="M108.441,120.859H46.255" transform="translate(-2.256 -5.895)" fill="none" stroke="#344154" stroke-linecap="round" stroke-linejoin="round" stroke-width="3"/>
      <path id="Trazado_64735" data-name="Trazado 64735" d="M109.468,119.627a14.106,14.106,0,0,0,10.02-24.034H67.308" transform="translate(-3.283 -4.663)" fill="none" stroke="#344154" stroke-linecap="round" stroke-linejoin="round" stroke-width="3"/>
      <path id="Trazado_64736" data-name="Trazado 64736" d="M27.393,30.475H11.481s.993-22.53,15.912-22.53" transform="translate(-0.56 -0.388)" fill="none" stroke="#344154" stroke-linecap="round" stroke-linejoin="round" stroke-width="3"/>
      <path id="Trazado_64737" data-name="Trazado 64737" d="M32.72,107.779c2.669.308,9.991.449,14.2-2.483a3.145,3.145,0,0,0-3.37-5.3,11.855,11.855,0,0,1-9.552.385c-8.913-5.592-17.249-4.6-23.538-.122" transform="translate(-0.51 -4.709)" fill="none" stroke="#344154" stroke-linecap="round" stroke-linejoin="round" stroke-width="3"/>
      <path id="Trazado_64738" data-name="Trazado 64738" d="M10.464,113.407s10.169.717,24.923,1.557c8.987.512,15.069-4.392,23.823-12.873a2.8,2.8,0,0,0-3.191-4.53l-7.788,5.624" transform="translate(-0.51 -4.745)" fill="none" stroke="#344154" stroke-linecap="round" stroke-linejoin="round" stroke-width="3"/>
      <path id="Trazado_64739" data-name="Trazado 64739" d="M1.5,119.5H6.819a2.981,2.981,0,0,0,2.98-2.98V96.012a2.981,2.981,0,0,0-2.98-2.98H1.5" transform="translate(-0.073 -4.538)" fill="none" stroke="#344154" stroke-linecap="round" stroke-linejoin="round" stroke-width="3"/>
      <path id="Trazado_64740" data-name="Trazado 64740" d="M36.665,76.234a4.741,4.741,0,1,0,9.482,0c0-2.618-1.943-3.828-4.741-4.741-2.489-.812-4.741-2.122-4.741-4.741a4.741,4.741,0,1,1,9.482,0" transform="translate(-1.788 -3.025)" fill="none" stroke="#344154" stroke-linecap="round" stroke-linejoin="round" stroke-width="3"/>
      <line id="Línea_158" data-name="Línea 158" y2="2.676" transform="translate(39.617 56.344)" fill="none" stroke="#344154" stroke-linecap="round" stroke-linejoin="round" stroke-width="3"/>
      <line id="Línea_159" data-name="Línea 159" y2="2.675" transform="translate(39.617 77.95)" fill="none" stroke="#344154" stroke-linecap="round" stroke-linejoin="round" stroke-width="3"/>
      <ellipse id="Elipse_59" data-name="Elipse 59" cx="17.91" cy="17.91" rx="17.91" ry="17.91" transform="translate(21.708 50.575)" fill="none" stroke="#344154" stroke-linecap="round" stroke-linejoin="round" stroke-width="3"/>
    </g>
  </g>
</svg>
