<svg xmlns="http://www.w3.org/2000/svg" width="294.579" height="188.814" viewBox="0 0 294.579 188.814">
  <g id="grafico-05" transform="translate(0 -0.042)" style="isolation: isolate">
    <g id="Layer_1" data-name="Layer 1" transform="translate(0 0.042)">
      <path id="Trazado_100829" data-name="Trazado 100829" d="M205,23.446h.063c21.493-5.168,37.963,1.563,46.292,20.374,4.126,9.308,4.9,24.4,15.831,29.586s18.923,8.378,24.369,19.707c4.96,10.3,7.113,23,5.085,34.129C291.881,153.368,267.915,173.02,239,173.02H124.385c-35.428,0-90.6,9.447-109.756-25.89-8.51-15.72-6.745-35.58,3.828-50.189C26.875,85.3,40.5,77.212,55.273,74.232c6.148-1.243,14.032.042,19.124-3.779,4.529-3.4,5.87-9.885,7.211-14.817,2.549-9.357,5.884-18.8,12.5-26.4C106.1,15.471,128.025,10.344,146.079,16.2c10.594,3.4,19.985,10.163,31.1,11.413C186.585,28.669,195.858,25.655,205,23.446Z" transform="translate(-2.819 -4.247)" fill="#dfedfa"/>
      <path id="Trazado_100830" data-name="Trazado 100830" d="M0,89.591c4.383-1.577,10.6-1.271,15.317-1.563a127.122,127.122,0,0,1,16.748-.049c10.927.785,21.923,3.591,30.975,9.725,15.748,10.7,24.9,31.607,24.549,50.432,0,1.674-27.849-2.841-29.613-3.411-13.122-4.244-23.868-10.58-32.857-21.284a167.93,167.93,0,0,1-13.06-18.533c-2.049-3.23-3.869-6.947-6.252-9.892A23.494,23.494,0,0,0,0,89.591Z" transform="translate(0 -26.816)" fill="#f2f2f2"/>
      <path id="Trazado_100831" data-name="Trazado 100831" d="M5.773,95.856c2.417,2.966,4.237,6.662,6.252,9.892a169.812,169.812,0,0,0,13.06,18.534c8.989,10.7,19.735,17.04,32.857,21.284,1.764.57,29.586,5.085,29.613,3.411v-.049C82,135.972,66.84,121.739,48.494,107.387,26.223,89.93,0,90.409,0,90.409a23.493,23.493,0,0,1,5.773,5.446Z" transform="translate(0 -27.634)" fill="#e6e6e6" opacity="0.2" style="mix-blend-mode: multiply;isolation: isolate"/>
      <g id="Grupo_63445" data-name="Grupo 63445" transform="translate(15.081 64.574)" opacity="0.31">
        <g id="Grupo_63437" data-name="Grupo 63437" style="mix-blend-mode: multiply;isolation: isolate">
          <path id="Trazado_100832" data-name="Trazado 100832" d="M21.71,93a44.122,44.122,0,0,1,5.453.959c1.806.417,3.584.938,5.349,1.487a87.6,87.6,0,0,1,10.343,4.078,98.027,98.027,0,0,1,9.809,5.286c3.161,1.945,6.252,4.064,9.183,6.294a108.28,108.28,0,0,1,8.5,7.2,107.524,107.524,0,0,1,7.745,7.975,116.008,116.008,0,0,1,13.06,17.881,215.61,215.61,0,0,0-14.442-16.6c-1.257-1.327-2.6-2.57-3.883-3.862-.653-.639-1.334-1.243-2-1.869s-1.327-1.25-2.028-1.841c-2.7-2.438-5.557-4.751-8.412-6.947s-5.877-4.307-8.933-6.287-6.21-3.807-9.427-5.557a100.558,100.558,0,0,0-9.913-4.654A78.738,78.738,0,0,0,21.71,93Z" transform="translate(-21.71 -93)" fill="#999"/>
        </g>
        <g id="Grupo_63438" data-name="Grupo 63438" transform="translate(20.18 1.132)" style="mix-blend-mode: multiply;isolation: isolate">
          <path id="Trazado_100833" data-name="Trazado 100833" d="M50.76,94.63a15.978,15.978,0,0,1,5.37,1.82,20.84,20.84,0,0,1,4.619,3.362,22.306,22.306,0,0,1,1.938,2.084c.292.389.57.778.841,1.174.132.2.271.389.4.6l.354.625a14.824,14.824,0,0,1,1.848,5.377c-1.209-1.487-2.209-2.959-3.411-4.293-.549-.695-1.195-1.313-1.764-1.98a21.645,21.645,0,0,0-1.876-1.869q-1.9-1.778-3.98-3.494C53.705,96.895,52.26,95.79,50.76,94.63Z" transform="translate(-50.76 -94.63)" fill="#999"/>
        </g>
        <g id="Grupo_63439" data-name="Grupo 63439" transform="translate(6.148 10.51)" style="mix-blend-mode: multiply;isolation: isolate">
          <path id="Trazado_100834" data-name="Trazado 100834" d="M52.025,109.1a15.887,15.887,0,0,1-5.182,2.237,21.708,21.708,0,0,1-8.537.3c-.465-.09-.938-.195-1.389-.313l-.695-.174-.695-.236a14.8,14.8,0,0,1-4.967-2.779c1.889.3,3.626.695,5.4.91.875.16,1.771.188,2.64.3a20.865,20.865,0,0,0,2.64.139q2.64.1,5.321,0C48.329,109.373,50.129,109.235,52.025,109.1Z" transform="translate(-30.56 -108.13)" fill="#999"/>
        </g>
        <g id="Grupo_63440" data-name="Grupo 63440" transform="translate(18.652 19.589)" style="mix-blend-mode: multiply;isolation: isolate">
          <path id="Trazado_100835" data-name="Trazado 100835" d="M70.032,122.166a15.887,15.887,0,0,1-5.189,2.237,21.048,21.048,0,0,1-5.675.577,22.047,22.047,0,0,1-2.862-.278c-.472-.1-.938-.2-1.389-.313l-.695-.174-.695-.236A14.811,14.811,0,0,1,48.56,121.2c1.889.306,3.626.729,5.4.917.875.153,1.771.188,2.64.3a20.865,20.865,0,0,0,2.64.139c1.757.056,3.529.049,5.321-.042S68.135,122.3,70.032,122.166Z" transform="translate(-48.56 -121.2)" fill="#999"/>
        </g>
        <g id="Grupo_63441" data-name="Grupo 63441" transform="translate(31.155 28.669)" style="mix-blend-mode: multiply;isolation: isolate">
          <path id="Trazado_100836" data-name="Trazado 100836" d="M88.039,135.236a15.728,15.728,0,0,1-5.2,2.23,20.778,20.778,0,0,1-5.675.584,23.343,23.343,0,0,1-2.862-.278c-.472-.1-.938-.2-1.389-.313-.229-.063-.465-.111-.695-.181l-.695-.229a14.935,14.935,0,0,1-4.967-2.779c1.889.3,3.626.729,5.4.917.875.153,1.771.188,2.64.3a22.246,22.246,0,0,0,2.64.139q2.64.083,5.321-.042C84.343,135.513,86.142,135.374,88.039,135.236Z" transform="translate(-66.56 -134.27)" fill="#999"/>
        </g>
        <g id="Grupo_63442" data-name="Grupo 63442" transform="translate(40.846 40.874)" style="mix-blend-mode: multiply;isolation: isolate">
          <path id="Trazado_100837" data-name="Trazado 100837" d="M102.01,152.813a16.151,16.151,0,0,1-5.217,2.23,21.077,21.077,0,0,1-5.682.583,23.1,23.1,0,0,1-2.855-.278c-.472-.1-.938-.2-1.389-.32-.236-.056-.465-.1-.695-.174l-.695-.236a14.866,14.866,0,0,1-4.967-2.779c1.9.3,3.626.695,5.411.917.875.153,1.764.188,2.633.3a22.253,22.253,0,0,0,2.64.139c1.764.056,3.536.042,5.328-.042S100.113,152.951,102.01,152.813Z" transform="translate(-80.51 -151.84)" fill="#999"/>
        </g>
        <g id="Grupo_63443" data-name="Grupo 63443" transform="translate(36.949 7.732)" style="mix-blend-mode: multiply;isolation: isolate">
          <path id="Trazado_100838" data-name="Trazado 100838" d="M74.9,104.13a15.977,15.977,0,0,1,4.758,3.091,21.145,21.145,0,0,1,3.647,4.39,21.535,21.535,0,0,1,1.389,2.529c.188.445.361.889.528,1.341.076.229.167.452.236.695l.188.695a14.887,14.887,0,0,1,.465,5.668c-.806-1.744-1.389-3.418-2.251-5.008-.354-.806-.827-1.57-1.223-2.355a20.746,20.746,0,0,0-1.355-2.265c-.931-1.5-1.924-2.959-2.994-4.4S76.067,105.63,74.9,104.13Z" transform="translate(-74.9 -104.13)" fill="#999"/>
        </g>
        <g id="Grupo_63444" data-name="Grupo 63444" transform="translate(52.718 16.29)" style="mix-blend-mode: multiply;isolation: isolate">
          <path id="Trazado_100839" data-name="Trazado 100839" d="M97.6,116.45a15.977,15.977,0,0,1,3.911,4.112,21.048,21.048,0,0,1,2.529,5.12,22.382,22.382,0,0,1,.695,2.779c.076.472.146.945.2,1.389,0,.236.056.472.076.695v.695a14.81,14.81,0,0,1-.854,5.62c-.382-1.876-.584-3.647-1.035-5.384-.16-.875-.438-1.723-.639-2.577a21.633,21.633,0,0,0-.792-2.522c-.556-1.674-1.188-3.327-1.889-4.981S98.392,118.18,97.6,116.45Z" transform="translate(-97.6 -116.45)" fill="#999"/>
        </g>
      </g>
      <path id="Trazado_100840" data-name="Trazado 100840" d="M70.38,29.4c3.473.2,7.579,2.223,10.878,3.4A93.561,93.561,0,0,1,92.672,37.66c7.2,3.709,13.893,8.815,18.242,15.644,7.6,11.865,7.752,28.752,2.035,41.464C112.442,95.9,94.818,84.73,93.783,83.827,86.093,77.1,80.619,69.662,77.618,59.764a125.878,125.878,0,0,1-3.473-16.415,79.119,79.119,0,0,0-1.389-8.565A17.568,17.568,0,0,0,70.38,29.4Z" transform="translate(-21.49 -9.006)" fill="#007577"/>
      <path id="Trazado_100841" data-name="Trazado 100841" d="M70.38,29.4c3.473.2,7.579,2.223,10.878,3.4A93.561,93.561,0,0,1,92.672,37.66c7.2,3.709,13.893,8.815,18.242,15.644,7.6,11.865,7.752,28.752,2.035,41.464C112.442,95.9,94.818,84.73,93.783,83.827,86.093,77.1,80.619,69.662,77.618,59.764a125.878,125.878,0,0,1-3.473-16.415,79.119,79.119,0,0,0-1.389-8.565A17.568,17.568,0,0,0,70.38,29.4Z" transform="translate(-21.49 -9.006)" fill="#f2f2f2"/>
      <path id="Trazado_100842" data-name="Trazado 100842" d="M72.7,34.787a72.369,72.369,0,0,1,1.389,8.565,125.876,125.876,0,0,0,3.473,16.415c3,9.9,8.475,17.366,16.165,24.042,1.035.9,18.659,12.073,19.166,10.941h0c0-10.42-6.189-24.528-14.5-39.637-10.1-18.367-28.085-25.7-28.085-25.7a17.568,17.568,0,0,1,2.39,5.377Z" transform="translate(-21.468 -9.009)" fill="#b3b3b3" opacity="0.2" style="mix-blend-mode: multiply;isolation: isolate"/>
      <g id="Grupo_63454" data-name="Grupo 63454" transform="translate(58.636 25.986)" opacity="0.31">
        <g id="Grupo_63446" data-name="Grupo 63446" style="mix-blend-mode: multiply;isolation: isolate">
          <path id="Trazado_100843" data-name="Trazado 100843" d="M84.41,37.45a53.42,53.42,0,0,1,12.5,10.614,79.837,79.837,0,0,1,9.545,13.386c.653,1.216,1.264,2.445,1.9,3.661.313.611.653,1.216.931,1.841l.827,1.883c.528,1.271,1.1,2.522,1.6,3.8s.91,2.584,1.389,3.883l.695,1.945.535,1.98,1.042,3.973c.188.695.3,1.334.424,2.008l.368,2.015c.236,1.348.465,2.688.695,4.036q-.6-1.959-1.167-3.918l-.556-1.966c-.181-.653-.354-1.306-.6-1.945L113.224,80.8l-.639-1.924-.757-1.883c-.507-1.257-1.014-2.508-1.5-3.765s-1.125-2.459-1.688-3.682l-.9-1.841c-.285-.618-.625-1.2-.931-1.8l-1.9-3.571-2.084-3.473-.507-.882-.57-.841-1.118-1.681c-.382-.556-.736-1.132-1.125-1.681L98.3,52.156l-1.2-1.632-1.271-1.577A73.633,73.633,0,0,0,84.41,37.45Z" transform="translate(-84.41 -37.45)" fill="#999"/>
        </g>
        <g id="Grupo_63447" data-name="Grupo 63447" transform="translate(13.393 6.634)" style="mix-blend-mode: multiply;isolation: isolate">
          <path id="Trazado_100844" data-name="Trazado 100844" d="M103.69,47a11.809,11.809,0,0,1,3.133,2.779,15.65,15.65,0,0,1,2.16,3.626,16.767,16.767,0,0,1,.695,2.008,15.165,15.165,0,0,1,.382,2.084,11.219,11.219,0,0,1-.306,4.168c-.4-1.389-.639-2.661-1.077-3.911-.167-.639-.424-1.243-.625-1.862s-.458-1.223-.695-1.82c-.514-1.195-1.07-2.383-1.688-3.557S104.371,48.257,103.69,47Z" transform="translate(-103.69 -47)" fill="#999"/>
        </g>
        <g id="Grupo_63448" data-name="Grupo 63448" transform="translate(1.105 8.961)" style="mix-blend-mode: multiply;isolation: isolate">
          <path id="Trazado_100845" data-name="Trazado 100845" d="M100.338,57.255a11.809,11.809,0,0,1-4.168,0A15.63,15.63,0,0,1,92.134,56a17.365,17.365,0,0,1-1.889-1.035,13.892,13.892,0,0,1-1.681-1.3A11,11,0,0,1,86,50.35c1.2.75,2.251,1.549,3.411,2.2.556.361,1.153.639,1.709.973a14.7,14.7,0,0,0,1.757.861q1.771.82,3.633,1.521C97.747,56.359,99.011,56.8,100.338,57.255Z" transform="translate(-86 -50.35)" fill="#999"/>
        </g>
        <g id="Grupo_63449" data-name="Grupo 63449" transform="translate(6.995 18.77)" style="mix-blend-mode: multiply;isolation: isolate">
          <path id="Trazado_100846" data-name="Trazado 100846" d="M108.8,71.382a11.705,11.705,0,0,1-4.168,0,15.6,15.6,0,0,1-4.029-1.257A16.246,16.246,0,0,1,98.738,69.1,13.952,13.952,0,0,1,97.057,67.8,11.024,11.024,0,0,1,94.48,64.47c1.209.757,2.258,1.556,3.418,2.2.549.361,1.146.646,1.709.973a15.831,15.831,0,0,0,1.757.861q1.771.834,3.633,1.521C106.206,70.5,107.477,70.923,108.8,71.382Z" transform="translate(-94.48 -64.47)" fill="#999"/>
        </g>
        <g id="Grupo_63450" data-name="Grupo 63450" transform="translate(12.823 28.599)" style="mix-blend-mode: multiply;isolation: isolate">
          <path id="Trazado_100847" data-name="Trazado 100847" d="M117.236,85.525a11.81,11.81,0,0,1-4.168,0,15.644,15.644,0,0,1-4.036-1.257,16.159,16.159,0,0,1-1.9-1.021,13.891,13.891,0,0,1-1.681-1.3,10.975,10.975,0,0,1-2.577-3.327c1.2.75,2.251,1.549,3.411,2.2.549.354,1.153.639,1.709.966a17.2,17.2,0,0,0,1.757.868q1.771.82,3.633,1.521C114.644,84.643,115.909,85.066,117.236,85.525Z" transform="translate(-102.87 -78.62)" fill="#999"/>
        </g>
        <g id="Grupo_63451" data-name="Grupo 63451" transform="translate(15.894 39.735)" style="mix-blend-mode: multiply;isolation: isolate">
          <path id="Trazado_100848" data-name="Trazado 100848" d="M121.676,101.555a11.864,11.864,0,0,1-4.168,0,15.6,15.6,0,0,1-4.029-1.257,16.249,16.249,0,0,1-1.869-1.021,15.075,15.075,0,0,1-1.744-1.3,11.2,11.2,0,0,1-2.577-3.327c1.209.75,2.258,1.549,3.418,2.2.549.354,1.146.639,1.709.966a17.211,17.211,0,0,0,1.757.868q1.771.82,3.633,1.521C119.044,100.673,120.287,101.1,121.676,101.555Z" transform="translate(-107.29 -94.65)" fill="#999"/>
        </g>
        <g id="Grupo_63452" data-name="Grupo 63452" transform="translate(22.889 16.033)" style="mix-blend-mode: multiply;isolation: isolate">
          <path id="Trazado_100849" data-name="Trazado 100849" d="M117.36,60.53A11.97,11.97,0,0,1,119.7,64a15.65,15.65,0,0,1,1.2,4.05,16.557,16.557,0,0,1,.188,2.119,13.522,13.522,0,0,1-.146,2.084,11.031,11.031,0,0,1-1.327,3.994c-.042-1.389,0-2.737-.076-4.057,0-.695-.111-1.313-.146-1.959a15.283,15.283,0,0,0-.264-1.938c-.2-1.292-.452-2.577-.757-3.869S117.714,61.892,117.36,60.53Z" transform="translate(-117.36 -60.53)" fill="#999"/>
        </g>
        <g id="Grupo_63453" data-name="Grupo 63453" transform="translate(29.662 26.446)" style="mix-blend-mode: multiply;isolation: isolate">
          <path id="Trazado_100850" data-name="Trazado 100850" d="M128.576,75.52a11.81,11.81,0,0,1,1.466,3.939,15.282,15.282,0,0,1,.229,4.217,16.52,16.52,0,0,1-.306,2.084,13.72,13.72,0,0,1-.632,2.028,11.114,11.114,0,0,1-2.223,3.577c.285-1.389.695-2.654.868-3.966.146-.639.2-1.3.313-1.938a15.224,15.224,0,0,0,.194-1.952c.1-1.3.16-2.6.16-3.932S128.61,76.93,128.576,75.52Z" transform="translate(-127.11 -75.52)" fill="#999"/>
        </g>
      </g>
      <path id="Trazado_100851" data-name="Trazado 100851" d="M18.9,167.556c5.689-2.779,14.449-3.584,20.958-4.863A194.046,194.046,0,0,1,63.226,159.5c15.47-1.049,31.6.452,45.945,6.558,24.945,10.621,43.513,35.372,48.237,59.282.417,2.126-39.672,1.6-42.3,1.209-19.485-2.924-36.247-8.947-51.759-20.84-8.405-6.363-15.949-13.657-23.368-20.951-3.751-3.7-7.322-8.051-11.517-11.351A34.985,34.985,0,0,0,18.9,167.556Z" transform="translate(-5.771 -48.638)" fill="#f2f2f2"/>
      <path id="Trazado_100852" data-name="Trazado 100852" d="M28.465,176.7c4.168,3.3,7.766,7.641,11.517,11.351a250.7,250.7,0,0,0,23.368,21.034c15.512,11.872,32.274,17.894,51.759,20.84,2.626.389,42.715.917,42.291-1.209v-.063c-11.379-15.366-36.456-30.565-66.034-45.313C55.377,165.379,18.9,170.881,18.9,170.881A35.747,35.747,0,0,1,28.465,176.7Z" transform="translate(-5.771 -51.964)" fill="#ccc" opacity="0.2" style="mix-blend-mode: multiply;isolation: isolate"/>
      <g id="Grupo_63463" data-name="Grupo 63463" transform="translate(34.67 116.045)" opacity="0.31">
        <g id="Grupo_63455" data-name="Grupo 63455" transform="translate(0 2.253)" style="mix-blend-mode: multiply;isolation: isolate">
          <path id="Trazado_100853" data-name="Trazado 100853" d="M49.91,170.382a68.59,68.59,0,0,1,7.836.174c2.612.174,5.21.493,7.808.847a140.355,140.355,0,0,1,15.4,3.14,156.063,156.063,0,0,1,15,4.758q7.363,2.779,14.484,6.176A177.47,177.47,0,0,1,137.4,201.634a172.83,172.83,0,0,1,23.618,20.576c-8.114-6.558-16.429-12.782-25.07-18.478l-1.619-1.07-1.646-1.028L129.4,199.55l-3.327-1.987c-1.1-.695-2.216-1.32-3.355-1.938-4.46-2.6-9.031-4.96-13.706-7.217s-9.378-4.314-14.171-6.252-9.67-3.633-14.588-5.2-9.927-2.862-15-3.98c-2.529-.583-5.071-1.084-7.641-1.521S52.508,170.618,49.91,170.382Z" transform="translate(-49.91 -170.339)" fill="gray"/>
        </g>
        <g id="Grupo_63456" data-name="Grupo 63456" transform="translate(28.502)" style="mix-blend-mode: multiply;isolation: isolate">
          <path id="Trazado_100854" data-name="Trazado 100854" d="M90.94,167.1a24.416,24.416,0,0,1,7.85,1.167,32.464,32.464,0,0,1,7.273,3.286,28,28,0,0,1,6.21,5.05c.452.5.889,1.007,1.32,1.514a17.872,17.872,0,0,1,1.146,1.646c.181.285.368.556.542.841a9.877,9.877,0,0,1,.458.9c.3.6.584,1.195.827,1.813-.542-.4-1.042-.827-1.535-1.25-.25-.208-.486-.424-.729-.639l-.757-.59c-.507-.4-.993-.8-1.473-1.2s-1.021-.743-1.521-1.125c-2.008-1.487-4.05-2.89-6.189-4.168s-4.3-2.522-6.537-3.7S93.3,168.314,90.94,167.1Z" transform="translate(-90.94 -167.096)" fill="gray"/>
        </g>
        <g id="Grupo_63457" data-name="Grupo 63457" transform="translate(11.455 11.743)" style="mix-blend-mode: multiply;isolation: isolate">
          <path id="Trazado_100855" data-name="Trazado 100855" d="M96.687,184a23.008,23.008,0,0,1-6.947,3.918,31.192,31.192,0,0,1-7.8,1.785,33.629,33.629,0,0,1-4.015.16,30.889,30.889,0,0,1-4-.424,23.1,23.1,0,0,1-7.523-2.661c2.7,0,5.21.167,7.738.069,1.257,0,2.515-.09,3.758-.111l1.862-.146a16.971,16.971,0,0,0,1.869-.167q3.723-.34,7.454-1.035C91.581,184.993,94.075,184.493,96.687,184Z" transform="translate(-66.4 -184)" fill="gray"/>
        </g>
        <g id="Grupo_63458" data-name="Grupo 63458" transform="translate(31.44 20.877)" style="mix-blend-mode: multiply;isolation: isolate">
          <path id="Trazado_100856" data-name="Trazado 100856" d="M125.45,197.15a22.986,22.986,0,0,1-6.947,3.911,30.78,30.78,0,0,1-7.794,1.792,35.323,35.323,0,0,1-4.022.153,28.631,28.631,0,0,1-3.994-.4,22.742,22.742,0,0,1-7.523-2.633c2.688,0,5.2.174,7.732.076,1.257,0,2.515-.1,3.758-.118l1.869-.139a16.847,16.847,0,0,0,1.862-.167q3.723-.361,7.454-1.014C120.344,198.171,122.838,197.671,125.45,197.15Z" transform="translate(-95.17 -197.15)" fill="gray"/>
        </g>
        <g id="Grupo_63459" data-name="Grupo 63459" transform="translate(51.412 30.033)" style="mix-blend-mode: multiply;isolation: isolate">
          <path id="Trazado_100857" data-name="Trazado 100857" d="M154.214,210.33a23.175,23.175,0,0,1-6.947,3.918,30.89,30.89,0,0,1-7.8,1.785,33.8,33.8,0,0,1-4.022.16,30.653,30.653,0,0,1-3.994-.424,22.924,22.924,0,0,1-7.53-2.633c2.688,0,5.2.167,7.739.069,1.25,0,2.508-.09,3.751-.111l1.869-.146a18.524,18.524,0,0,0,1.862-.16q3.716-.361,7.454-1.014C149.1,211.351,151.6,210.851,154.214,210.33Z" transform="translate(-123.92 -210.33)" fill="gray"/>
        </g>
        <g id="Grupo_63460" data-name="Grupo 63460" transform="translate(68.354 43.697)" style="mix-blend-mode: multiply;isolation: isolate">
          <path id="Trazado_100858" data-name="Trazado 100858" d="M178.59,230a23.007,23.007,0,0,1-6.947,3.918,30.766,30.766,0,0,1-7.794,1.785,33.8,33.8,0,0,1-4.022.16,30.9,30.9,0,0,1-4-.424,22.923,22.923,0,0,1-7.516-2.661c2.688,0,5.2.174,7.732.069,1.257,0,2.515-.09,3.758-.111l1.869-.139a16.838,16.838,0,0,0,1.862-.167q3.716-.368,7.454-1.014C173.484,231.007,175.978,230.514,178.59,230Z" transform="translate(-148.31 -230)" fill="gray"/>
        </g>
        <g id="Grupo_63461" data-name="Grupo 63461" transform="translate(53.739 5.227)" style="mix-blend-mode: multiply;isolation: isolate">
          <path id="Trazado_100859" data-name="Trazado 100859" d="M127.27,174.62a23.438,23.438,0,0,1,7.259,2.779,30.712,30.712,0,0,1,6.252,4.738,26.467,26.467,0,0,1,4.772,6.252c.313.583.611,1.167.9,1.757a19.036,19.036,0,0,1,.695,1.848l.313.924c.069.32.153.639.208.966.132.646.257,1.285.333,1.924-.417-.514-.792-1.035-1.16-1.556-.188-.257-.354-.521-.535-.778l-.584-.743c-.382-.493-.75-.993-1.111-1.487s-.8-.938-1.181-1.389a69.462,69.462,0,0,0-4.939-5.363c-1.73-1.7-3.529-3.348-5.4-4.967S129.264,176.308,127.27,174.62Z" transform="translate(-127.27 -174.62)" fill="gray"/>
        </g>
        <g id="Grupo_63462" data-name="Grupo 63462" transform="translate(78.128 13.132)" style="mix-blend-mode: multiply;isolation: isolate">
          <path id="Trazado_100860" data-name="Trazado 100860" d="M162.38,186a22.152,22.152,0,0,1,6.356,4.168,29.279,29.279,0,0,1,4.9,5.87,24.847,24.847,0,0,1,3.112,7.037c.16.632.3,1.257.431,1.883a17.794,17.794,0,0,1,.215,1.917l.069.959v.966c-.035.639-.076,1.271-.167,1.9-.271-.59-.507-1.174-.729-1.751-.118-.292-.215-.577-.32-.868l-.382-.834c-.243-.563-.472-1.118-.695-1.667s-.542-1.077-.792-1.619a62.523,62.523,0,0,0-3.473-6.182q-1.9-2.994-4.043-5.891C165.409,189.946,163.915,188.028,162.38,186Z" transform="translate(-162.38 -186)" fill="gray"/>
        </g>
      </g>
      <rect id="Rectángulo_31250" data-name="Rectángulo 31250" width="35.205" height="29.217" transform="translate(139.39 143.098)" fill="#e6e8e8"/>
      <rect id="Rectángulo_31251" data-name="Rectángulo 31251" width="172.658" height="110.652" rx="12.2" transform="translate(70.668 42.421)" fill="#fbffff"/>
      <path id="Trazado_100861" data-name="Trazado 100861" d="M267.278,64.3H110.91a6.21,6.21,0,0,0-6.21,6.21v85.971H273.5V70.51a6.2,6.2,0,0,0-6.224-6.21Z" transform="translate(-31.969 -19.663)" fill="#6595bf"/>
      <path id="Trazado_100862" data-name="Trazado 100862" d="M246.93,253.644h-81.4v.445a8.906,8.906,0,0,1,8.906-8.9h63.6a8.906,8.906,0,0,1,8.9,8.9Z" transform="translate(-50.543 -74.896)" fill="#fbffff"/>
      <rect id="Rectángulo_31252" data-name="Rectángulo 31252" width="35.205" height="5.745" transform="translate(139.39 153.074)" fill="#e5e5e5" style="mix-blend-mode: multiply;isolation: isolate"/>
      <path id="Trazado_100863" data-name="Trazado 100863" d="M101.73,165.416V67.469a6.349,6.349,0,0,1,6.342-6.349H268.031C271.539,61.113,101.73,165.416,101.73,165.416Z" transform="translate(-31.062 -18.692)" fill="#00499b" opacity="0.47" style="mix-blend-mode: screen;isolation: isolate"/>
      <rect id="Rectángulo_31253" data-name="Rectángulo 31253" width="37.053" height="43.687" rx="4.46" transform="translate(87.555 8.96)" fill="#e0e0e0"/>
      <path id="Trazado_100864" data-name="Trazado 100864" d="M160.124,20.492H133.581a1.431,1.431,0,0,1-1.431-1.431h0a1.431,1.431,0,0,1,1.431-1.431h26.543a1.431,1.431,0,0,1,1.431,1.431h0A1.431,1.431,0,0,1,160.124,20.492Z" transform="translate(-40.351 -5.412)" fill="#d9a171"/>
      <path id="Trazado_100865" data-name="Trazado 100865" d="M161.069,26.236H132.643a.493.493,0,0,1-.493-.493h0a.493.493,0,0,1,.493-.493h28.425a.486.486,0,0,1,.486.493h0a.486.486,0,0,1-.486.493Z" transform="translate(-40.351 -7.739)" fill="#d9a171"/>
      <path id="Trazado_100866" data-name="Trazado 100866" d="M157.661,29.849H132.653a.486.486,0,0,1-.493-.486h0a.493.493,0,0,1,.493-.493h25.008a.493.493,0,0,1,.493.493h0a.486.486,0,0,1-.493.486Z" transform="translate(-40.354 -8.844)" fill="#d9a171"/>
      <path id="Trazado_100867" data-name="Trazado 100867" d="M160.381,33.469H132.643a.486.486,0,0,1-.493-.486h0a.493.493,0,0,1,.493-.493h27.738a.486.486,0,0,1,.486.493h0A.486.486,0,0,1,160.381,33.469Z" transform="translate(-40.351 -9.95)" fill="#d9a171"/>
      <path id="Trazado_100868" data-name="Trazado 100868" d="M156.6,37.089H132.643a.493.493,0,0,1-.493-.493h0a.486.486,0,0,1,.493-.486H156.6a.486.486,0,0,1,.493.486h0A.493.493,0,0,1,156.6,37.089Z" transform="translate(-40.351 -11.055)" fill="#d9a171"/>
      <path id="Trazado_100869" data-name="Trazado 100869" d="M155.234,40.709h-22.59a.493.493,0,0,1-.493-.493h0a.486.486,0,0,1,.493-.486h22.59a.486.486,0,0,1,.486.486h0a.486.486,0,0,1-.486.493Z" transform="translate(-40.351 -12.16)" fill="#d9a171"/>
      <path id="Trazado_100870" data-name="Trazado 100870" d="M159.693,44.326h-27.05a.493.493,0,0,1-.493-.493h0a.493.493,0,0,1,.493-.493h27.05a.493.493,0,0,1,.493.493h0a.493.493,0,0,1-.493.493Z" transform="translate(-40.351 -13.263)" fill="#d9a171"/>
      <path id="Trazado_100871" data-name="Trazado 100871" d="M155.234,47.939h-22.59a.486.486,0,0,1-.493-.486h0a.493.493,0,0,1,.493-.493h22.59a.486.486,0,0,1,.486.493h0A.486.486,0,0,1,155.234,47.939Z" transform="translate(-40.351 -14.368)" fill="#d9a171"/>
      <path id="Trazado_100872" data-name="Trazado 100872" d="M160.034,51.569h-27.39a.486.486,0,0,1-.493-.486h0a.493.493,0,0,1,.493-.493h27.39a.493.493,0,0,1,.493.493h0a.486.486,0,0,1-.493.486Z" transform="translate(-40.351 -15.476)" fill="#d9a171"/>
      <path id="Trazado_100873" data-name="Trazado 100873" d="M155.234,55.179h-22.59a.493.493,0,0,1-.493-.493h0a.486.486,0,0,1,.493-.486h22.59a.486.486,0,0,1,.486.486h0a.486.486,0,0,1-.486.493Z" transform="translate(-40.351 -16.579)" fill="#d9a171"/>
      <path id="Trazado_100874" data-name="Trazado 100874" d="M159.346,58.8h-26.7a.493.493,0,0,1-.493-.493h0a.493.493,0,0,1,.493-.493h26.7a.493.493,0,0,1,.493.493h0A.493.493,0,0,1,159.346,58.8Z" transform="translate(-40.351 -17.681)" fill="#d9a171"/>
      <path id="Trazado_100875" data-name="Trazado 100875" d="M160.381,62.409H132.643a.486.486,0,0,1-.493-.486h0a.493.493,0,0,1,.493-.493h27.738a.486.486,0,0,1,.486.493h0A.486.486,0,0,1,160.381,62.409Z" transform="translate(-40.351 -18.786)" fill="#d9a171"/>
      <path id="Trazado_100876" data-name="Trazado 100876" d="M160.721,66.029H132.643a.486.486,0,0,1-.493-.486h0a.493.493,0,0,1,.493-.493h28.078a.493.493,0,0,1,.493.493h0a.486.486,0,0,1-.493.486Z" transform="translate(-40.351 -19.892)" fill="#d9a171"/>
      <rect id="Rectángulo_31254" data-name="Rectángulo 31254" width="26.661" height="0.979" transform="translate(91.799 47.673)" fill="#d9a171"/>
      <path id="Trazado_100877" data-name="Trazado 100877" d="M177.367,134.845a19.612,19.612,0,0,0,.583-3.112l9.072-1.236-3.633-14-1.3-1.167-7,4.05a19.45,19.45,0,0,0-5-5.356l3.473-8.475-1.3-1.167-12.65-2.674-1.646,8.621A19.4,19.4,0,0,0,150.831,112l-9.274,8.669a19.157,19.157,0,0,0-1.549,3.9,18.859,18.859,0,0,0-.584,3.112L132.7,141.743l1.3,1.167,8.294-2.883a19.319,19.319,0,0,0,5,5.356l-4.758,7.308,1.3,1.167,13.942,3.841,1.653-8.621a18.8,18.8,0,0,0,7.072-1.389l5.356,7.162,10.621-10.337-6.648-5.787A19.382,19.382,0,0,0,177.367,134.845ZM155.7,140.507a16.046,16.046,0,1,1,.014,0Z" transform="translate(-40.519 -31.085)" fill="#a66d58"/>
      <path id="Trazado_100878" data-name="Trazado 100878" d="M174.475,133.156a19.611,19.611,0,0,0,.584-3.112l9.072-1.237-3.647-14-8.294,2.883a19.319,19.319,0,0,0-5-5.356l3.473-8.475L156.706,100l-1.653,8.621a19.527,19.527,0,0,0-7.141,1.66l-5.606-7.231L132,113.2l6.648,5.738a19.379,19.379,0,0,0-1.549,3.9,19.607,19.607,0,0,0-.583,3.112l-9.072,1.236,3.647,14,8.294-2.883a19.318,19.318,0,0,0,5,5.356l-3.473,8.475,13.942,3.841,1.653-8.621a19.527,19.527,0,0,0,7.141-1.66l5.606,7.231,10.3-10.156-6.648-5.745A19.158,19.158,0,0,0,174.475,133.156Zm-22.16,7.461a13.073,13.073,0,1,1,16.074-9.135A13.074,13.074,0,0,1,152.316,140.617Z" transform="translate(-38.913 -30.563)" fill="#d9a171"/>
      <line id="Línea_352" data-name="Línea 352" x2="31.718" y2="0.882" transform="translate(48.828 131.268)" fill="none" stroke="#080022" stroke-linecap="round" stroke-linejoin="round" stroke-width="3.75"/>
      <path id="Trazado_100879" data-name="Trazado 100879" d="M111.41,157.35l3.473,2.494s.236,1.848-1.73,5.14-9.149,17.172-8.489,18.929,7.3,3.14,7.94,4.786c.764,1.98-12.782.882-13.977-.278-1.3-1.271,1.264-4.772,1.264-4.772s-.431-11.392.618-16.554c1-4.946,6.155-8.572,6.155-8.572Z" transform="translate(-30.003 -48.075)" fill="#fcb29a"/>
      <path id="Trazado_100880" data-name="Trazado 100880" d="M105.892,196.649c-2.7.938-6.03-1.389-6.03-1.389s-2.563,3.473-1.264,4.772c1.195,1.16,14.741,2.258,13.977.278C112.082,199,108.025,197.9,105.892,196.649Z" transform="translate(-29.994 -59.65)" fill="#ff6931"/>
      <path id="Trazado_100881" data-name="Trazado 100881" d="M42.96,237.116,66.12,171.04l19.207,66.451" transform="translate(-13.117 -52.255)" fill="none" stroke="#080022" stroke-linecap="round" stroke-linejoin="round" stroke-width="3.75"/>
      <line id="Línea_353" data-name="Línea 353" x2="31.718" y2="0.889" transform="translate(44.618 141.272)" fill="none" stroke="#080022" stroke-linecap="round" stroke-linejoin="round" stroke-width="3.75"/>
      <path id="Trazado_100882" data-name="Trazado 100882" d="M89.674,146.276l-5.168,18.061L76.83,186.671a2.82,2.82,0,0,0,1.389,3.473c2.362,1.174,5.78,3.022,5.856,3.862.118,1.285-13.386.695-14.254-.577s1.32-4.105,1.32-4.105-.57-17.366.577-21.632,3.564-6.516,3.473-9.725-1.389-14.06,0-16.769S89.674,146.276,89.674,146.276Z" transform="translate(-21.257 -42.968)" fill="#fcb29a"/>
      <path id="Trazado_100883" data-name="Trazado 100883" d="M78.9,183.7l6.085-19.353,5.168-18.061s-13.032-7.843-14.407-5.134-.056,13.539,0,16.769-2.369,5.467-3.473,9.725c-.695,2.647-1.146,10.163-1.084,15.5a26.647,26.647,0,0,1,7.711.556Z" transform="translate(-21.735 -42.954)" fill="#008eba"/>
      <path id="Trazado_100884" data-name="Trazado 100884" d="M78.9,183.7l6.085-19.353,5.168-18.061s-13.032-7.843-14.407-5.134-.056,13.539,0,16.769-2.369,5.467-3.473,9.725c-.695,2.647-1.146,10.163-1.084,15.5a26.647,26.647,0,0,1,7.711.556Z" transform="translate(-21.735 -42.954)" fill="#008eba" opacity="0.2" style="mix-blend-mode: multiply;isolation: isolate"/>
      <path id="Trazado_100885" data-name="Trazado 100885" d="M90.711,151.969A14.579,14.579,0,0,1,83,147.35s2.779,13.8,3.091,17.429-2.834,19.041-2.834,19.041h0l5.321-17.408,4.147-13.588a13.061,13.061,0,0,0-2.015-.854Z" transform="translate(-25.343 -45.021)" fill="#008eba" opacity="0.1" style="mix-blend-mode: multiply;isolation: isolate"/>
      <path id="Trazado_100886" data-name="Trazado 100886" d="M78.472,211.6a11.573,11.573,0,0,1-7.273-.917s-2.2,2.779-1.32,4.105,14.373,1.862,14.254.577C84.057,214.549,80.827,212.778,78.472,211.6Z" transform="translate(-21.274 -64.358)" fill="#ff6931"/>
      <path id="Trazado_100887" data-name="Trazado 100887" d="M108.586,154.123h0a3.744,3.744,0,0,0-.285-1.674c-1.876-4.814-11.115-11.2-11.115-11.2L95,139.854s-18.228-4.092-17.255,2.584S92.533,153.47,95,154.06a26.966,26.966,0,0,1,2.925.827,13.7,13.7,0,0,0-3.744,6.453,55.641,55.641,0,0,0-.695,8.8,28.334,28.334,0,0,1,7.6.188c2.084-4.4,4.668-9.315,5.731-11.115C108.823,155.971,108.586,154.123,108.586,154.123Z" transform="translate(-23.727 -42.353)" fill="#008eba"/>
      <path id="Trazado_100888" data-name="Trazado 100888" d="M98.508,153.707s-9.107-3.626-12.761-9.031A8.148,8.148,0,0,1,84.4,138.64c-3.793.049-7.037.91-6.606,3.828.973,6.669,14.789,11.031,17.255,11.622a26.265,26.265,0,0,1,2.89.827c1.23-.986,4.793-.785,4.793-.785C101.926,153.124,98.508,153.707,98.508,153.707Z" transform="translate(-23.742 -42.362)" fill="#008eba" opacity="0.1" style="mix-blend-mode: multiply;isolation: isolate"/>
      <path id="Trazado_100889" data-name="Trazado 100889" d="M89.8,93.22c.445,3.286-2.285,6.891-2.285,6.891s3.286,4.682,7.294,3.8c0,0-.125-5.259,1.632-7.794S89.559,91.427,89.8,93.22Z" transform="translate(-26.72 -28.291)" fill="#fcb29a"/>
      <path id="Trazado_100890" data-name="Trazado 100890" d="M113.336,90.59c-2.459,2.466-.764-.695-.354-1.445,1.334-2.4,1.236-4.606.986-5.029a7.854,7.854,0,0,1-.243-3.425,2.737,2.737,0,0,0-.1-1.389c-.181-.431-.063-.813.285-.465a2.021,2.021,0,0,1,.528,1.438c.049.375.111.424.2.431a4.111,4.111,0,0,0,.306-1.841,3.7,3.7,0,0,1,.278-1.924c.236-.285.34-.4.375.292s-.25,2.084,0,2.2.333-.91.32-1.535-.25-1.389.1-1.452c.243-.056.431.188.514,1.007s-.32,2.2-.083,2.244.389-1.473.361-1.855.25-.584.445.076a3.807,3.807,0,0,1-.1,1.862c-.1.695-.3,1.049-.125,1.146s.368-.292.389-.959,0-1.257.278-1.049.417,1.049.195,2.209-.472,2.681-1.3,3.369c0,0,0,.854-.056,4.613-.167,9.031-1.966,2.556-3.209,1.445Z" transform="translate(-34.208 -23.369)" fill="#f9af9a"/>
      <path id="Trazado_100891" data-name="Trazado 100891" d="M84.475,101.695s1.125,4.4,7.44,3.946c0,0,.91,7.141,1.3,13.08.3,4.613.952,9.809.952,9.809s-4.863,2.265-8.114,1.389a11.215,11.215,0,0,0-9.586,1.2c-2.049,1.473-1.389-7.329-.285-12.4S83.468,99.979,84.475,101.695Z" transform="translate(-22.942 -31.036)" fill="#b3b3b3"/>
      <path id="Trazado_100892" data-name="Trazado 100892" d="M98.08,115l-4.96,4.765a9.17,9.17,0,0,0,5.773,4.724Z" transform="translate(-28.433 -35.143)" fill="#4d4d4d" opacity="0.43" style="mix-blend-mode: multiply;isolation: isolate"/>
      <path id="Trazado_100893" data-name="Trazado 100893" d="M88.826,107.343s.118,6.252,8.169,3.98a23.945,23.945,0,0,0,11.351-8.169s2.376-5.217,1.23-14.63l-3.182-.695s-2.577,9.128-3.473,10.482-7.565,3.946-11.74,3.383S88.826,107.343,88.826,107.343Z" transform="translate(-27.002 -26.847)" fill="#b3b3b3"/>
      <path id="Trazado_100894" data-name="Trazado 100894" d="M93.325,82.661a4.787,4.787,0,0,1,6.947,4.293c0,.076.3,1.389,1.216,1.646a.32.32,0,0,1,.229.431,1.243,1.243,0,0,1-.792.875c0,3.4-1.806,5.3-3.307,5.627-3.105.695-5.807-2.153-7.037-5.043C89.066,86.919,90.643,83.863,93.325,82.661Z" transform="translate(-27.478 -25.124)" fill="#fcb29a"/>
      <path id="Trazado_100895" data-name="Trazado 100895" d="M93.326,82.633c.9-.41,3.286-.973,4.265,0-2.292,1.348-3.425,4.793-2.89,8.058.167,1.007.75,4.522,2.376,4.925-2.869.264-5.328-2.4-6.488-5.127C89.068,86.892,90.645,83.835,93.326,82.633Z" transform="translate(-27.479 -25.096)" fill="#fcb29a" opacity="0.35" style="mix-blend-mode: multiply;isolation: isolate"/>
      <path id="Trazado_100896" data-name="Trazado 100896" d="M90.882,83.994C92.827,84.119,94.2,82.9,94.2,82.1c0-1.167-1.028-3-4.585-2.084-2.4.6-2.4,1.3-3.786,1.424-2.084.188-3.973,1.459-5.022,4.237-.889,2.369-2.383,14.963-11.3,16.325,0,0,3.307,6.738,10.038,6.433,8.53-.389,9.031-12.5,8.009-16.672C86.165,86.419,88.93,83.862,90.882,83.994Z" transform="translate(-21.221 -24.387)" fill="#080022"/>
      <path id="Trazado_100897" data-name="Trazado 100897" d="M88.27,239.363l23.16-66.083,19.207,64.9" transform="translate(-26.952 -52.939)" fill="none" stroke="#080022" stroke-linecap="round" stroke-linejoin="round" stroke-width="3.75"/>
      <line id="Línea_354" data-name="Línea 354" x2="31.718" y2="0.882" transform="translate(41.812 151.282)" fill="none" stroke="#080022" stroke-linecap="round" stroke-linejoin="round" stroke-width="3.75"/>
      <line id="Línea_355" data-name="Línea 355" x2="31.718" y2="0.882" transform="translate(37.741 162.514)" fill="none" stroke="#080022" stroke-linecap="round" stroke-linejoin="round" stroke-width="3.75"/>
      <line id="Línea_356" data-name="Línea 356" x2="31.711" y2="0.882" transform="translate(33.01 174.455)" fill="none" stroke="#080022" stroke-linecap="round" stroke-linejoin="round" stroke-width="3.75"/>
      <path id="Trazado_100898" data-name="Trazado 100898" d="M253.428,87.258c1.938,2.633,3.571,3.473,3.605,4.96.035,1.313-7.384,6.738-9.135,7.28-2.473.771.82-4.432,2.417-6.69a3.876,3.876,0,0,0,.465-2.737l-1-.59S252.705,86.279,253.428,87.258Z" transform="translate(-75.421 -26.616)" fill="#080022"/>
      <path id="Trazado_100899" data-name="Trazado 100899" d="M214.7,3.9c-.361-.195,1.007-.82,1.118-1A5.264,5.264,0,0,1,218.885.124c1.716-.417,3.2.9,4.863.8.945-.056,1.827-.577,2.779-.549a4.853,4.853,0,0,1,2.452,1.278c1.035.729,2.021.431,3.209.368a4.606,4.606,0,0,1,2.661.695,11.15,11.15,0,0,0,2.862,1.716c1.1.285,2.508,0,3.675.493,3.543,1.389,3.8,8.51-.4,9.225-2.876.493-3.473,3.946-5.557,2.7s-2.5-3.536-4.029-2.779-3.723-.59-4.571-2.973A5.821,5.821,0,0,0,222.1,7.071C220.219,6.883,214.71,3.91,214.7,3.9Z" transform="translate(-65.539 -0.042)" fill="#080022"/>
      <path id="Trazado_100900" data-name="Trazado 100900" d="M225.86,9.07h3.286s1.528,2.779,6.4,4.008c2.931.695-4.168,6.342-4.168,6.342L228.7,15.482Z" transform="translate(-68.964 -2.799)" fill="#fcb29a"/>
      <path id="Trazado_100901" data-name="Trazado 100901" d="M262.775,40.908c1.994.368,3.182,1.98,4.557,3.473,1.236,1.341,1.737,6.856-1.028,9.42-3.07,2.848-20.673,1-20.673,1s3.473,1.389,4.265,8.079,1.778,12.059,1.778,12.059l-5.932,2.494S233.655,55.5,233.78,52.557s4.314-5.71,11.045-8.121C250.271,42.485,257.711,39.949,262.775,40.908Z" transform="translate(-71.382 -12.456)" fill="#b6e6dc"/>
      <g id="Grupo_63464" data-name="Grupo 63464" transform="translate(170.317 30.321)" opacity="0.63" style="mix-blend-mode: multiply;isolation: isolate">
        <path id="Trazado_100902" data-name="Trazado 100902" d="M269.368,43.69a8.156,8.156,0,0,1-4.168,8.433c-4.606,2.41-15.6,2.313-15.6,2.313s-2.779-1.16-4.418.577c0,0,2.723-.125,3.946.66,0,0,17.6,1.848,20.673-1,2.779-2.563,2.265-8.079,1.028-9.42C270.327,44.725,269.861,44.183,269.368,43.69Z" transform="translate(-245.18 -43.69)" fill="#b6e6dc"/>
      </g>
      <path id="Trazado_100903" data-name="Trazado 100903" d="M237.978,14.84a21,21,0,0,1,10.663,2.89c5.328,3.175,15.192,10.552,18.7,18.756,0,0-2.709,2.591-8.294.563s-16.026.174-16.026.174-4.411-9.183-5.043-10.2-4.168-5.842-4.168-5.842S237.978,17.507,237.978,14.84Z" transform="translate(-71.392 -4.56)" fill="#b3b3b3"/>
      <path id="Trazado_100904" data-name="Trazado 100904" d="M243.32,36.68l1.285,2.265,1.32,2.779s1.806-8.746.917-11.962C246.293,27.753,243.32,36.68,243.32,36.68Z" transform="translate(-74.295 -9.026)" fill="#666" style="mix-blend-mode: multiply;isolation: isolate"/>
      <rect id="Rectángulo_31255" data-name="Rectángulo 31255" width="3.188" height="21.659" transform="translate(133.263 57.387) rotate(-122.55)" fill="#fcba00"/>
      <path id="Trazado_100905" data-name="Trazado 100905" d="M180.648,77.492c-1.389,1.66-1.528,4.821-1.528,4.821l2.424-3.578,3.341-.313,2.084,3.209-1.688,2.9-4.272.695s3.209,1.438,5.015.639a4.988,4.988,0,0,0,2.265-7h0l-.056-.083-.1-.153-.1-.153-.056-.083h0C186.206,76.047,182.593,75.228,180.648,77.492Z" transform="translate(-54.693 -23.282)" fill="#fcba00"/>
      <path id="Trazado_100906" data-name="Trazado 100906" d="M214.924,61.13a15.646,15.646,0,0,0-2.647,2.028c-.556.695.695,2.438-1.66,4.467-1.674,1.431.083.549,1.236.438,4.036-.382,3.682-3.626,5.9-4.661C218.355,63.124,214.924,61.13,214.924,61.13Z" transform="translate(-64.099 -18.695)" fill="#fcb29a"/>
      <path id="Trazado_100907" data-name="Trazado 100907" d="M216.814,63.435,214.64,59.6l.618-.229,5.252-4.342L224,58.371Z" transform="translate(-65.538 -16.832)" fill="#fcb29a"/>
      <path id="Trazado_100908" data-name="Trazado 100908" d="M213.906,63.058,213.7,61.28s-3.14.952-4.168,3.23c0,0,2.237-1.48,2.7-.966a3.133,3.133,0,0,0,1.695.6Z" transform="translate(-63.978 -18.74)" fill="#fcb29a"/>
      <path id="Trazado_100909" data-name="Trazado 100909" d="M238.836,27.7s-1.487,9.531-5.932,15.227c0,0-7.641,8.169-14.338,10.934l-3.036-4.633L226.54,39s2.3-10.038,1.667-15.116C228.208,23.907,235.918,22.365,238.836,27.7Z" transform="translate(-65.81 -7.264)" fill="#b3b3b3"/>
      <path id="Trazado_100910" data-name="Trazado 100910" d="M216.965,5.845a5.177,5.177,0,0,0-.4,8.808c.069.056,1.1,1.125.729,2.084a.34.34,0,0,0,.25.458,1.313,1.313,0,0,0,1.257-.167c3.022,2.084,5.821,1.612,7.023.472,2.494-2.348,1.612-6.474-.215-9.336C223.356,4.643,219.647,4.191,216.965,5.845Z" transform="translate(-65.432 -1.532)" fill="#fcb29a"/>
      <path id="Trazado_100911" data-name="Trazado 100911" d="M216.982,5.845c-.91.556-2.862,2.341-2.612,3.786,2.591-1.223,6.349-.132,8.933,2.32.8.764,3.571,3.425,2.945,5.113,1.98-2.4,1.091-6.21-.625-8.9C223.373,4.643,219.664,4.191,216.982,5.845Z" transform="translate(-65.449 -1.532)" fill="#fcb29a" opacity="0.35" style="mix-blend-mode: multiply;isolation: isolate"/>
      <path id="Trazado_100912" data-name="Trazado 100912" d="M237.39,7.182l-11.629-2.9-3.369-1.521-1.285.146c-.1-.292-.174-.479-.174-.479L215.765,2l-1.994,1.848s-5.745,2.813-3.7,5.62c1.181,1.619,4.015,1.2,5.509-.952.118-.181.236-.347.347-.5.6-.854,2.133-1.612,3-.695a4.308,4.308,0,0,1,.695,1.223c.577,1.292,1.646,2.584,3.23,2.529,1.056-.042,2.084-.695,3.1-.535a2.82,2.82,0,0,1,1.716,1c.639.743.9,1.681,1.695,2.306a3.987,3.987,0,0,0,3.056.764c1.146-.181,2.147-1.264,3.334-1.084.729.111,1.285.6,2.035.695a4.592,4.592,0,0,0,1.869-.236,4.376,4.376,0,0,0,2.779-2.9C243.079,8.863,237.39,7.182,237.39,7.182Z" transform="translate(-64.01 -0.64)" fill="#080022"/>
      <rect id="Rectángulo_31256" data-name="Rectángulo 31256" width="42.27" height="45.104" rx="4.84" transform="translate(218.498 15.066)" fill="#f2e9e4"/>
      <path id="Trazado_100913" data-name="Trazado 100913" d="M353.017,30.85h-27.4a1.48,1.48,0,0,1-1.473-1.5h0a1.48,1.48,0,0,1,1.473-1.48h27.4a1.487,1.487,0,0,1,1.48,1.48h0a1.487,1.487,0,0,1-1.48,1.5Z" transform="translate(-98.973 -8.539)" fill="#57b3e0"/>
      <rect id="Rectángulo_31257" data-name="Rectángulo 31257" width="23.806" height="8.419" transform="translate(223.125 25.069)" fill="#57b3e0"/>
      <rect id="Rectángulo_31258" data-name="Rectángulo 31258" width="33.364" height="8.419" transform="translate(223.125 35.301)" fill="#57b3e0"/>
      <rect id="Rectángulo_31259" data-name="Rectángulo 31259" width="8.419" height="8.419" transform="translate(248.473 25.069)" fill="#57b3e0"/>
      <rect id="Rectángulo_31260" data-name="Rectángulo 31260" width="23.806" height="8.419" transform="translate(232.433 45.575)" fill="#57b3e0"/>
      <rect id="Rectángulo_31261" data-name="Rectángulo 31261" width="2.285" height="8.419" transform="translate(222.881 45.575)" fill="#fcba00"/>
      <rect id="Rectángulo_31262" data-name="Rectángulo 31262" width="4.501" height="8.419" transform="translate(226.584 45.575)" fill="#57b3e0"/>
      <rect id="Rectángulo_31263" data-name="Rectángulo 31263" width="47.084" height="52.447" rx="5.51" transform="translate(230.71 114.541)" fill="#f2e9e4"/>
      <path id="Trazado_100914" data-name="Trazado 100914" d="M375.53,173.989H341.6a1.723,1.723,0,0,1-1.716-1.716h0a1.723,1.723,0,0,1,1.716-1.723H375.53a1.723,1.723,0,0,1,1.716,1.723h0A1.723,1.723,0,0,1,375.53,173.989Z" transform="translate(-103.779 -52.105)" fill="#67a7d6"/>
      <path id="Trazado_100915" data-name="Trazado 100915" d="M376.655,180.891H340.47a.59.59,0,0,1-.59-.59h0a.59.59,0,0,1,.59-.59h36.185a.59.59,0,0,1,.59.59h0a.59.59,0,0,1-.59.59Z" transform="translate(-103.779 -54.902)" fill="#67a7d6"/>
      <path id="Trazado_100916" data-name="Trazado 100916" d="M372.327,185.231H340.47a.59.59,0,0,1-.59-.59h0a.59.59,0,0,1,.59-.59h31.857a.59.59,0,0,1,.59.59h0A.591.591,0,0,1,372.327,185.231Z" transform="translate(-103.779 -56.227)" fill="#67a7d6"/>
      <path id="Trazado_100917" data-name="Trazado 100917" d="M375.787,189.574H340.47a.591.591,0,0,1-.591-.584h0a.59.59,0,0,1,.59-.591h35.316a.583.583,0,0,1,.583.59h0A.584.584,0,0,1,375.787,189.574Z" transform="translate(-103.779 -57.555)" fill="#67a7d6"/>
      <path id="Trazado_100918" data-name="Trazado 100918" d="M370.987,193.921H340.47a.59.59,0,0,1-.59-.59h0a.59.59,0,0,1,.59-.59h30.516a.59.59,0,0,1,.59.59h0A.59.59,0,0,1,370.987,193.921Z" transform="translate(-103.779 -58.88)" fill="#67a7d6"/>
      <path id="Trazado_100919" data-name="Trazado 100919" d="M369.243,198.261H340.47a.59.59,0,0,1-.59-.59h0a.59.59,0,0,1,.59-.591h28.773a.59.59,0,0,1,.59.59h0a.59.59,0,0,1-.591.59Z" transform="translate(-103.779 -60.206)" fill="#67a7d6"/>
      <path id="Trazado_100920" data-name="Trazado 100920" d="M374.912,202.6H340.47a.591.591,0,0,1-.591-.584h0a.59.59,0,0,1,.59-.59h34.441a.59.59,0,0,1,.59.59h0a.59.59,0,0,1-.59.584Z" transform="translate(-103.779 -61.534)" fill="#67a7d6"/>
      <path id="Trazado_100921" data-name="Trazado 100921" d="M369.243,206.951H340.47a.59.59,0,0,1-.59-.59h0a.59.59,0,0,1,.59-.59h28.773a.59.59,0,0,1,.59.59h0a.591.591,0,0,1-.591.59Z" transform="translate(-103.779 -62.859)" fill="#67a7d6"/>
      <path id="Trazado_100922" data-name="Trazado 100922" d="M375.349,211.291H340.47a.59.59,0,0,1-.59-.59h0a.59.59,0,0,1,.59-.59h34.879a.59.59,0,0,1,.59.59h0A.59.59,0,0,1,375.349,211.291Z" transform="translate(-103.779 -64.184)" fill="#67a7d6"/>
      <path id="Trazado_100923" data-name="Trazado 100923" d="M369.243,215.634H340.47a.591.591,0,0,1-.591-.584h0a.59.59,0,0,1,.59-.59h28.773a.59.59,0,0,1,.59.59h0A.59.59,0,0,1,369.243,215.634Z" transform="translate(-103.779 -65.512)" fill="#67a7d6"/>
      <path id="Trazado_100924" data-name="Trazado 100924" d="M374.474,219.981h-34a.59.59,0,0,1-.59-.59h0a.59.59,0,0,1,.59-.59h34a.59.59,0,0,1,.59.59h0A.591.591,0,0,1,374.474,219.981Z" transform="translate(-103.779 -66.838)" fill="#67a7d6"/>
      <path id="Trazado_100925" data-name="Trazado 100925" d="M375.787,224.321H340.47a.59.59,0,0,1-.59-.59h0a.59.59,0,0,1,.59-.59h35.316a.583.583,0,0,1,.583.59h0a.584.584,0,0,1-.584.59Z" transform="translate(-103.779 -68.163)" fill="#67a7d6"/>
      <path id="Trazado_100926" data-name="Trazado 100926" d="M376.218,228.664H340.47a.591.591,0,0,1-.591-.584h0a.59.59,0,0,1,.591-.59h35.747a.591.591,0,0,1,.59.59h0A.59.59,0,0,1,376.218,228.664Z" transform="translate(-103.779 -69.491)" fill="#67a7d6"/>
      <rect id="Rectángulo_31264" data-name="Rectángulo 31264" width="33.879" height="1.181" transform="translate(236.101 161.014)" fill="#67a7d6"/>
      <path id="Trazado_100927" data-name="Trazado 100927" d="M310.988,125.16a32.1,32.1,0,0,0-1.153-5.106l12.948-7.822-14.727-18.86-2.73-.917-7.961,10.719a31.955,31.955,0,0,0-11.115-4.863l-.271-15.095-2.737-.917L262.32,86.524l3.14,14.15a32.114,32.114,0,0,0-9.725,7.2l-8.378,19.207a31.753,31.753,0,0,0,.215,6.947,31.342,31.342,0,0,0,1.146,5.106l-.986,25.737,2.737.924,10.691-9.8a32.017,32.017,0,0,0,11.115,4.863l-2.431,14.192,2.73.924,23.66-3.307-3.14-14.15a31.084,31.084,0,0,0,9.8-6.773l12.816,7.356,9.329-22.632-13.831-4.356A32.183,32.183,0,0,0,310.988,125.16ZM281.68,146.771a12.268,12.268,0,1,0-.028-.021Z" transform="translate(-75.498 -25.159)" fill="#d9a171"/>
      <path id="Trazado_100928" data-name="Trazado 100928" d="M300.97,124.2a32.421,32.421,0,0,0-1.146-5.106l12.955-7.843L298.087,92.441,287.4,102.221a32.009,32.009,0,0,0-11.115-4.863l-.3-15.109-23.639,3.341,3.14,14.15a32,32,0,0,0-9.725,7.2l-13.24-7.3-8.968,22.146,13.838,4.356a31.808,31.808,0,0,0,.208,6.947,32.424,32.424,0,0,0,1.146,5.106l-12.962,7.794,14.692,18.839,10.691-9.809a32.031,32.031,0,0,0,11.115,4.863l.306,15.109,23.639-3.3-3.14-14.15a31.885,31.885,0,0,0,9.725-7.2l13.247,7.3,8.961-22.146-13.831-4.356A32.244,32.244,0,0,0,300.97,124.2Zm-29.106,23.042a14.21,14.21,0,1,1,.014,0Z" transform="translate(-68.259 -25.143)" fill="#f2e9e4"/>
      <path id="Trazado_100929" data-name="Trazado 100929" d="M252.709,95.96a1.965,1.965,0,0,0-.6-.375,1.125,1.125,0,0,0-.695,0,.653.653,0,0,1,.326-.229.7.7,0,0,1,.424,0A.861.861,0,0,1,252.709,95.96Z" transform="translate(-76.766 -29.135)" fill="#fff"/>
      <path id="Trazado_100930" data-name="Trazado 100930" d="M252,97.068a1.938,1.938,0,0,0-.611-.375,1.077,1.077,0,0,0-.695,0,.7.7,0,0,1,.326-.236.757.757,0,0,1,.431,0A.875.875,0,0,1,252,97.068Z" transform="translate(-76.546 -29.472)" fill="#fff"/>
      <path id="Trazado_100931" data-name="Trazado 100931" d="M251.279,98.168a1.966,1.966,0,0,0-.6-.375,1.125,1.125,0,0,0-.695,0,.653.653,0,0,1,.327-.229.632.632,0,0,1,.424,0A.861.861,0,0,1,251.279,98.168Z" transform="translate(-76.329 -29.808)" fill="#fff"/>
      <path id="Trazado_100932" data-name="Trazado 100932" d="M250.566,99.278a1.938,1.938,0,0,0-.611-.375,1.076,1.076,0,0,0-.695,0,.7.7,0,0,1,.333-.236.736.736,0,0,1,.424,0A.875.875,0,0,1,250.566,99.278Z" transform="translate(-76.109 -30.146)" fill="#fff"/>
      <path id="Trazado_100933" data-name="Trazado 100933" d="M21.523,196.522a7.988,7.988,0,0,0-.278-1.236l3.14-1.9-3.564-4.571-.695-.222-1.931,2.6a7.642,7.642,0,0,0-2.688-1.174l-.076-3.668-.695-.222-5.078,1.028.764,3.432A7.759,7.759,0,0,0,8.1,192.333L6.06,196.994a8.051,8.051,0,0,0,.049,1.681,8.885,8.885,0,0,0,.278,1.236l-.236,6.252.695.222,2.591-2.376a7.905,7.905,0,0,0,2.688,1.174l-.556,3.432.695.229L18,208.04l-.757-3.432a7.585,7.585,0,0,0,2.376-1.646l3.063,1.785,2.265-5.488L21.592,198.2A8.051,8.051,0,0,0,21.523,196.522Zm-7.113,5.245A4.21,4.21,0,1,1,18,197.015,4.21,4.21,0,0,1,14.41,201.767Z" transform="translate(-1.843 -56.862)" fill="#b28360"/>
      <path id="Trazado_100934" data-name="Trazado 100934" d="M19.111,196.3a7.113,7.113,0,0,0-.257-1.23l3.14-1.9-3.564-4.571-2.591,2.376a7.676,7.676,0,0,0-2.7-1.174l-.069-3.668-5.745.806.764,3.432a7.759,7.759,0,0,0-2.362,1.744L2.522,190.35l-2.2,5.37,3.362,1.056a7.134,7.134,0,0,0,.049,1.674,7.343,7.343,0,0,0,.278,1.243l-3.14,1.9,3.564,4.6,2.612-2.41a7.878,7.878,0,0,0,2.7,1.181l.069,3.661,5.745-.8-.764-3.432a7.641,7.641,0,0,0,2.362-1.751l3.216,1.771,2.174-5.37-3.355-1.056a7.641,7.641,0,0,0-.076-1.681Zm-7.058,5.557a2.026,2.026,0,1,1,0,.035Z" transform="translate(-0.098 -56.865)" fill="#d9a171"/>
      <path id="Trazado_100935" data-name="Trazado 100935" d="M52.006,48.067a9.725,9.725,0,0,0-.354-1.57l3.98-2.4-4.515-5.787-.841-.285-2.445,3.293a9.816,9.816,0,0,0-3.411-1.487l-.09-4.647-.841-.278-6.426,1.3.959,4.321a9.725,9.725,0,0,0-2.987,2.209l-2.577,5.9a9.941,9.941,0,0,0,.069,2.126,10.511,10.511,0,0,0,.347,1.57l-.3,7.905.841.285L36.7,57.507A9.725,9.725,0,0,0,40.106,59l-.743,4.383.841.285,7.266-1.014L46.5,58.306a9.468,9.468,0,0,0,3.008-2.084L53.45,58.48l2.869-6.947-4.251-1.341A9.948,9.948,0,0,0,52.006,48.067Zm-9.031,6.641a4.713,4.713,0,1,1,.028,0Z" transform="translate(-9.902 -10.689)" fill="#b28360"/>
      <path id="Trazado_100936" data-name="Trazado 100936" d="M48.939,47.789a9.558,9.558,0,0,0-.354-1.57l3.98-2.4L48.05,38.029l-3.286,3.008a9.815,9.815,0,0,0-3.411-1.487l-.09-4.64L34,35.924l.966,4.349a9.67,9.67,0,0,0-2.973,2.209l-4.071-2.244L25.14,47.046l4.244,1.334a10.01,10.01,0,0,0,.069,2.133,10.421,10.421,0,0,0,.347,1.563l-3.973,2.4,4.515,5.787,3.286-3.008a9.836,9.836,0,0,0,3.4,1.487l.1,4.64L44.4,62.37l-.966-4.349a9.725,9.725,0,0,0,3-2.209L50.5,58.056l2.779-6.808-4.251-1.334a9.5,9.5,0,0,0-.09-2.126ZM40,54.868a5.773,5.773,0,1,1,4.918-6.516A5.773,5.773,0,0,1,40,54.868Z" transform="translate(-7.676 -10.689)" fill="#d9a171"/>
      <path id="Trazado_100937" data-name="Trazado 100937" d="M398.408,134.264a9.553,9.553,0,0,0-.354-1.57l3.98-2.4-4.515-5.787-.841-.285-2.438,3.293a9.815,9.815,0,0,0-3.411-1.487l-.09-4.64-.841-.285-6.4,1.32.966,4.349a9.725,9.725,0,0,0-2.994,2.209l-2.577,5.9a9.945,9.945,0,0,0,.069,2.133,9.553,9.553,0,0,0,.354,1.57l-.306,7.912.841.278,3.286-3.008a9.815,9.815,0,0,0,3.411,1.487l-.75,4.362.841.278,7.266-1.07-.966-4.349a9.462,9.462,0,0,0,3.015-2.084l3.932,2.258,2.869-6.947-4.251-1.334A9.5,9.5,0,0,0,398.408,134.264Zm-9.031,6.641a4.7,4.7,0,1,1,.056,0Z" transform="translate(-115.681 -37.006)" fill="#b28360"/>
      <path id="Trazado_100938" data-name="Trazado 100938" d="M395.36,133.979a9.72,9.72,0,0,0-.354-1.57l3.98-2.4-4.515-5.787-3.286,3.015a9.83,9.83,0,0,0-3.411-1.494l-.09-4.64-7.266,1.014.966,4.349a9.864,9.864,0,0,0-2.994,2.209l-4.071-2.244-2.779,6.808,4.251,1.341a9.514,9.514,0,0,0,.063,2.126,9.722,9.722,0,0,0,.354,1.57l-3.98,2.4,4.515,5.793,3.286-3.015a9.815,9.815,0,0,0,3.411,1.487l.09,4.647,7.266-1.021-.966-4.342A9.886,9.886,0,0,0,392.824,142l4.071,2.244,2.779-6.8-4.251-1.341a9.5,9.5,0,0,0-.063-2.126Zm-8.912,7.079a5.773,5.773,0,1,1,4.918-6.516A5.773,5.773,0,0,1,386.447,141.058Z" transform="translate(-113.446 -37.006)" fill="#d9a171"/>
    </g>
  </g>
</svg>
