<svg xmlns="http://www.w3.org/2000/svg" xmlns:xlink="http://www.w3.org/1999/xlink" width="505.276" height="345.529" viewBox="0 0 505.276 345.529">
  <defs>
    <clipPath id="clip-path">
      <rect id="Rectángulo_25499" data-name="Rectángulo 25499" width="505.276" height="345.529" transform="translate(125)" fill="none"/>
    </clipPath>
    <clipPath id="clip-path-2">
      <rect id="Rectángulo_25489" data-name="Rectángulo 25489" width="630.275" height="345.529" fill="none"/>
    </clipPath>
    <clipPath id="clip-path-3">
      <rect id="Rectángulo_25487" data-name="Rectángulo 25487" width="222.003" height="108.215" fill="none"/>
    </clipPath>
    <clipPath id="clip-path-4">
      <rect id="Rectángulo_25488" data-name="Rectángulo 25488" width="9.793" height="7.645" fill="none"/>
    </clipPath>
    <clipPath id="clip-path-6">
      <rect id="Rectángulo_25490" data-name="Rectángulo 25490" width="177.33" height="88.659" fill="none"/>
    </clipPath>
    <clipPath id="clip-path-7">
      <rect id="Rectángulo_25491" data-name="Rectángulo 25491" width="109.753" height="54.257" fill="none"/>
    </clipPath>
    <clipPath id="clip-path-8">
      <rect id="Rectángulo_25492" data-name="Rectángulo 25492" width="44.728" height="19.863" fill="none"/>
    </clipPath>
    <clipPath id="clip-path-9">
      <rect id="Rectángulo_25493" data-name="Rectángulo 25493" width="3.241" height="2.12" fill="none"/>
    </clipPath>
    <clipPath id="clip-path-10">
      <rect id="Rectángulo_25494" data-name="Rectángulo 25494" width="3.352" height="2.281" fill="none"/>
    </clipPath>
    <clipPath id="clip-path-11">
      <rect id="Rectángulo_25495" data-name="Rectángulo 25495" width="8.101" height="10.099" fill="none"/>
    </clipPath>
    <clipPath id="clip-path-12">
      <rect id="Rectángulo_25496" data-name="Rectángulo 25496" width="33.598" height="16.419" fill="none"/>
    </clipPath>
    <clipPath id="clip-path-13">
      <rect id="Rectángulo_25497" data-name="Rectángulo 25497" width="3.592" height="1.686" fill="none"/>
    </clipPath>
  </defs>
  <g id="Grupo_24841" data-name="Grupo 24841" transform="translate(-125)">
    <g id="Grupo_24840" data-name="Grupo 24840" clip-path="url(#clip-path)">
      <g id="Grupo_24813" data-name="Grupo 24813">
        <g id="Grupo_24812" data-name="Grupo 24812" clip-path="url(#clip-path-2)">
          <g id="Grupo_24808" data-name="Grupo 24808" transform="translate(408.273 43.711)" opacity="0.14" style="mix-blend-mode: multiply;isolation: isolate">
            <g id="Grupo_24807" data-name="Grupo 24807">
              <g id="Grupo_24806" data-name="Grupo 24806" clip-path="url(#clip-path-3)">
                <path id="Trazado_63389" data-name="Trazado 63389" d="M492.769,55.473l-75.005,37.58.839.785-42.14,19.909c-6.886,2.647-11.9,9.685-11.843,14.124l-28.054,15.282,2.413,1.1,26.133-14.363a3.213,3.213,0,0,0,1.444,1.326l6.53,3.145,9.046,1.311c7.977,3.843,19.66,5.986,27.576,2.02l27.636-13.846,12.792-11.274,5.511,2.1,36.481-18.279c104.8-65.963,70.584-75.041.643-40.921" transform="translate(-336.567 -36.034)" fill="#2096ba"/>
              </g>
            </g>
          </g>
          <g id="Grupo_24811" data-name="Grupo 24811" transform="translate(419.813 159.541)" opacity="0.44" style="mix-blend-mode: multiply;isolation: isolate">
            <g id="Grupo_24810" data-name="Grupo 24810">
              <g id="Grupo_24809" data-name="Grupo 24809" clip-path="url(#clip-path-4)">
                <path id="Trazado_63390" data-name="Trazado 63390" d="M354.143,131.771c-3.438-1.875-8.063,7.394-8.063,7.394l8.75-4.509s2.752-1.009-.687-2.885" transform="translate(-346.08 -131.52)" fill="#0b8aad"/>
              </g>
            </g>
          </g>
        </g>
      </g>
      <path id="Trazado_63391" data-name="Trazado 63391" d="M0,319.24H70L423.307,139.145,391.812,123.4Z" transform="translate(0 26.29)" fill="#a7f6fc"/>
      <path id="Trazado_63392" data-name="Trazado 63392" d="M0,319.168H70L420.548,139.484l-31.493-15.753Z" transform="translate(0 26.361)" fill="#fff"/>
      <g id="Grupo_24839" data-name="Grupo 24839">
        <g id="Grupo_24838" data-name="Grupo 24838" clip-path="url(#clip-path-2)">
          <path id="Trazado_63393" data-name="Trazado 63393" d="M343.665,130.638a1.371,1.371,0,0,1-1.872.523l-14.3-7.236a2.594,2.594,0,0,0-3.548,1l-4.164,8.679a1.5,1.5,0,0,0,.8,1.883,1.19,1.19,0,0,0,1.663-.428l3.677-7.665a1.642,1.642,0,0,1,2.248-.633l13.966,7.082a2.678,2.678,0,0,0,3.655-1.019L392.513,38.3c.169-.348-1.166-4.118-1.166-4.118Z" transform="translate(68.107 7.283)" fill="#d6094d"/>
          <path id="Trazado_63394" data-name="Trazado 63394" d="M325.067,114.365c-3.119,1.56-5.647,5.353-5.647,8.472s2.528,4.385,5.647,2.825,5.648-5.354,5.648-8.474-2.528-4.383-5.648-2.823" transform="translate(68.053 24.223)" fill="#def8ff"/>
          <path id="Trazado_63395" data-name="Trazado 63395" d="M320.406,125.627l30.782,15.532,8.425-11.719-30.519-15.357Z" transform="translate(68.263 24.306)" fill="#def8ff"/>
          <path id="Trazado_63396" data-name="Trazado 63396" d="M326.023,113.78a5.955,5.955,0,0,0-1.8.568,8.7,8.7,0,0,0-.829.5l34.4,17.28,2.389-.972c-.034-.106-.064-.214-.107-.311Z" transform="translate(68.899 24.241)" fill="#fff"/>
          <path id="Trazado_63397" data-name="Trazado 63397" d="M350.247,127.034c-3.119,1.56-5.648,5.353-5.648,8.472s2.529,4.385,5.648,2.825,5.648-5.354,5.648-8.474-2.529-4.383-5.648-2.823" transform="translate(73.417 26.922)" fill="#a7f6fc"/>
          <path id="Trazado_63398" data-name="Trazado 63398" d="M349.65,129.768a4.23,4.23,0,0,0-2.248,3.37,1.342,1.342,0,0,0,.566,1.208l.776.553,3.386-4.637-.8-.577a1.718,1.718,0,0,0-1.681.084" transform="translate(74.015 27.591)" fill="#61d6ed"/>
          <path id="Trazado_63399" data-name="Trazado 63399" d="M350.288,130.228a4.229,4.229,0,0,0-2.248,3.37c0,1.242,1.007,1.744,2.248,1.123a4.233,4.233,0,0,0,2.248-3.37c0-1.242-1.008-1.744-2.248-1.123" transform="translate(74.151 27.689)" fill="#41c2e0"/>
          <path id="Trazado_63400" data-name="Trazado 63400" d="M309.338,213.836,133.543,299.971h67.784l139.5-70.385Z" transform="translate(28.452 45.558)" fill="#a7f6fc"/>
          <path id="Trazado_63401" data-name="Trazado 63401" d="M306.58,214.173,133.543,299.9h65.842l138.688-69.976Z" transform="translate(28.452 45.63)" fill="#fff"/>
          <path id="Trazado_63402" data-name="Trazado 63402" d="M280.532,204.807c-3.119,1.56-5.647,5.353-5.647,8.473s2.528,4.384,5.647,2.824,5.648-5.354,5.648-8.473-2.528-4.384-5.648-2.824" transform="translate(58.565 43.492)" fill="#def8ff"/>
          <path id="Trazado_63403" data-name="Trazado 63403" d="M275.871,216.069,306.653,231.6l8.425-11.719-30.519-15.357Z" transform="translate(58.775 43.574)" fill="#def8ff"/>
          <path id="Trazado_63404" data-name="Trazado 63404" d="M281.488,204.223a5.917,5.917,0,0,0-1.8.566,8.477,8.477,0,0,0-.829.5l34.4,17.28,2.388-.973c-.034-.1-.064-.212-.107-.311Z" transform="translate(59.411 43.51)" fill="#fff"/>
          <path id="Trazado_63405" data-name="Trazado 63405" d="M305.712,217.476c-3.12,1.56-5.648,5.353-5.648,8.473s2.528,4.384,5.648,2.824,5.648-5.354,5.648-8.473-2.529-4.384-5.648-2.824" transform="translate(63.929 46.191)" fill="#a7f6fc"/>
          <path id="Trazado_63406" data-name="Trazado 63406" d="M305.115,220.209a4.23,4.23,0,0,0-2.248,3.371,1.34,1.34,0,0,0,.567,1.207l.776.553L307.6,220.7l-.8-.577a1.718,1.718,0,0,0-1.681.084" transform="translate(64.526 46.859)" fill="#61d6ed"/>
          <path id="Trazado_63407" data-name="Trazado 63407" d="M305.753,220.669a4.23,4.23,0,0,0-2.248,3.37c0,1.242,1.007,1.744,2.248,1.123a4.231,4.231,0,0,0,2.248-3.37c0-1.241-1.008-1.744-2.248-1.123" transform="translate(64.662 46.957)" fill="#41c2e0"/>
          <g id="Grupo_24816" data-name="Grupo 24816" transform="translate(224.748 184.703)" opacity="0.65">
            <g id="Grupo_24815" data-name="Grupo 24815">
              <g id="Grupo_24814" data-name="Grupo 24814" clip-path="url(#clip-path-6)">
                <path id="Trazado_63408" data-name="Trazado 63408" d="M226.816,204.5l1.212.607,4.8-2.4-1.212-.607Z" transform="translate(-176.425 -141.646)" fill="#fff"/>
                <path id="Trazado_63409" data-name="Trazado 63409" d="M232.75,201.53l1.213.607,4.8-2.4-1.213-.607Z" transform="translate(-175.16 -142.278)" fill="#fff"/>
                <path id="Trazado_63410" data-name="Trazado 63410" d="M220.88,207.466l1.213.607,4.8-2.4-1.213-.607Z" transform="translate(-177.689 -141.013)" fill="#fff"/>
                <path id="Trazado_63411" data-name="Trazado 63411" d="M250.552,192.627l1.213.607,4.8-2.4-1.212-.607Z" transform="translate(-171.368 -144.175)" fill="#fff"/>
                <path id="Trazado_63412" data-name="Trazado 63412" d="M244.619,195.595l1.212.605,4.8-2.4-1.213-.607Z" transform="translate(-172.632 -143.543)" fill="#fff"/>
                <path id="Trazado_63413" data-name="Trazado 63413" d="M238.684,198.562l1.213.607,4.8-2.4-1.213-.607Z" transform="translate(-173.896 -142.91)" fill="#fff"/>
                <path id="Trazado_63414" data-name="Trazado 63414" d="M214.947,210.434l1.213.607,4.8-2.4-1.213-.607Z" transform="translate(-178.953 -140.381)" fill="#fff"/>
                <path id="Trazado_63415" data-name="Trazado 63415" d="M197.143,219.337l1.213.607,4.8-2.4-1.213-.606Z" transform="translate(-182.746 -138.484)" fill="#fff"/>
                <path id="Trazado_63416" data-name="Trazado 63416" d="M191.21,222.3l1.213.607,4.8-2.4-1.212-.607Z" transform="translate(-184.011 -137.852)" fill="#fff"/>
                <path id="Trazado_63417" data-name="Trazado 63417" d="M203.078,216.369l1.213.607,4.8-2.4-1.213-.607Z" transform="translate(-181.482 -139.117)" fill="#fff"/>
                <path id="Trazado_63418" data-name="Trazado 63418" d="M209.012,213.4l1.212.607,4.8-2.4L213.812,211Z" transform="translate(-180.218 -139.749)" fill="#fff"/>
                <path id="Trazado_63419" data-name="Trazado 63419" d="M185.276,225.272l1.212.607,4.8-2.4-1.213-.607Z" transform="translate(-185.275 -137.22)" fill="#fff"/>
                <path id="Trazado_63420" data-name="Trazado 63420" d="M298.027,168.884l1.213.607,4.8-2.4-1.213-.607Z" transform="translate(-161.253 -149.233)" fill="#fff"/>
                <path id="Trazado_63421" data-name="Trazado 63421" d="M303.961,165.916l1.212.607,4.8-2.4-1.212-.607Z" transform="translate(-159.989 -149.866)" fill="#fff"/>
                <path id="Trazado_63422" data-name="Trazado 63422" d="M292.092,171.852l1.213.605,4.8-2.4-1.213-.607Z" transform="translate(-162.517 -148.601)" fill="#fff"/>
                <path id="Trazado_63423" data-name="Trazado 63423" d="M315.83,159.98l1.213.607,4.8-2.4-1.213-.607Z" transform="translate(-157.46 -151.13)" fill="#fff"/>
                <path id="Trazado_63424" data-name="Trazado 63424" d="M309.9,162.948l1.213.607,4.8-2.4-1.213-.607Z" transform="translate(-158.724 -150.498)" fill="#fff"/>
                <path id="Trazado_63425" data-name="Trazado 63425" d="M286.159,174.819l1.212.607,4.8-2.4-1.212-.607Z" transform="translate(-163.782 -147.969)" fill="#fff"/>
                <path id="Trazado_63426" data-name="Trazado 63426" d="M268.356,183.723l1.213.607,4.8-2.4-1.212-.607Z" transform="translate(-167.574 -146.072)" fill="#fff"/>
                <path id="Trazado_63427" data-name="Trazado 63427" d="M262.421,186.691l1.213.606,4.8-2.4-1.213-.607Z" transform="translate(-168.839 -145.439)" fill="#fff"/>
                <path id="Trazado_63428" data-name="Trazado 63428" d="M274.29,180.755l1.213.607,4.8-2.4-1.213-.607Z" transform="translate(-166.31 -146.704)" fill="#fff"/>
                <path id="Trazado_63429" data-name="Trazado 63429" d="M256.487,189.658l1.213.606,4.8-2.4-1.213-.606Z" transform="translate(-170.103 -144.807)" fill="#fff"/>
                <path id="Trazado_63430" data-name="Trazado 63430" d="M280.224,177.787l1.213.607,4.8-2.4-1.213-.607Z" transform="translate(-165.046 -147.336)" fill="#fff"/>
                <path id="Trazado_63431" data-name="Trazado 63431" d="M321.809,156.853l1.212.607,2.927-1.47-1.213-.607Z" transform="translate(-156.186 -151.598)" fill="#fff"/>
                <path id="Trazado_63432" data-name="Trazado 63432" d="M325.381,156.633l2.583,3.2,6.155-7.571-15.136,3.08Z" transform="translate(-156.788 -152.263)" fill="#fff"/>
              </g>
            </g>
          </g>
          <g id="Grupo_24819" data-name="Grupo 24819" transform="translate(248.505 290.786)" opacity="0.65">
            <g id="Grupo_24818" data-name="Grupo 24818">
              <g id="Grupo_24817" data-name="Grupo 24817" clip-path="url(#clip-path-7)">
                <path id="Trazado_63433" data-name="Trazado 63433" d="M261.9,256.335l1.213.606,4.8-2.4-1.212-.606Z" transform="translate(-192.706 -236.685)" fill="#fff"/>
                <path id="Trazado_63434" data-name="Trazado 63434" d="M255.968,259.3l1.212.607,4.8-2.4-1.213-.607Z" transform="translate(-193.97 -236.052)" fill="#fff"/>
                <path id="Trazado_63435" data-name="Trazado 63435" d="M206.869,283.613l-2.01,1h2.425l.8-.4Z" transform="translate(-204.859 -230.362)" fill="#fff"/>
                <path id="Trazado_63436" data-name="Trazado 63436" d="M267.837,253.368l1.213.605,4.8-2.4-1.213-.606Z" transform="translate(-191.442 -237.317)" fill="#fff"/>
                <path id="Trazado_63437" data-name="Trazado 63437" d="M279.706,247.432l1.212.607,4.8-2.4-1.212-.607Z" transform="translate(-188.913 -238.582)" fill="#fff"/>
                <path id="Trazado_63438" data-name="Trazado 63438" d="M273.771,250.4l1.213.607,4.8-2.4L278.57,248Z" transform="translate(-190.177 -237.949)" fill="#fff"/>
                <path id="Trazado_63439" data-name="Trazado 63439" d="M250.034,262.27l1.213.607,4.8-2.4-1.213-.607Z" transform="translate(-195.234 -235.42)" fill="#fff"/>
                <path id="Trazado_63440" data-name="Trazado 63440" d="M214.427,280.078l1.213.606,4.8-2.4-1.213-.607Z" transform="translate(-202.82 -231.626)" fill="#fff"/>
                <path id="Trazado_63441" data-name="Trazado 63441" d="M208.494,283.046l1.213.607,4.8-2.4-1.213-.607Z" transform="translate(-204.085 -230.994)" fill="#fff"/>
                <path id="Trazado_63442" data-name="Trazado 63442" d="M220.363,277.11l1.212.605,4.8-2.4-1.212-.607Z" transform="translate(-201.556 -232.259)" fill="#fff"/>
                <path id="Trazado_63443" data-name="Trazado 63443" d="M232.231,271.174l1.213.607,4.8-2.4-1.213-.605Z" transform="translate(-199.027 -233.523)" fill="#fff"/>
                <path id="Trazado_63444" data-name="Trazado 63444" d="M226.3,274.143l1.213.607,4.8-2.4-1.213-.607Z" transform="translate(-200.292 -232.891)" fill="#fff"/>
                <path id="Trazado_63445" data-name="Trazado 63445" d="M238.166,268.207l1.212.606,4.8-2.4-1.212-.607Z" transform="translate(-197.763 -234.155)" fill="#fff"/>
                <path id="Trazado_63446" data-name="Trazado 63446" d="M244.1,265.238l1.213.607,4.8-2.4-1.213-.606Z" transform="translate(-196.499 -234.788)" fill="#fff"/>
                <path id="Trazado_63447" data-name="Trazado 63447" d="M285.684,244.3l1.213.607,2.926-1.47-1.212-.607Z" transform="translate(-187.639 -239.05)" fill="#fff"/>
                <path id="Trazado_63448" data-name="Trazado 63448" d="M289.256,244.084l2.584,3.2,6.154-7.571-15.135,3.08Z" transform="translate(-188.241 -239.715)" fill="#fff"/>
              </g>
            </g>
          </g>
          <g id="Grupo_24822" data-name="Grupo 24822" transform="translate(312.431 184.426)" opacity="0.46" style="mix-blend-mode: multiply;isolation: isolate">
            <g id="Grupo_24821" data-name="Grupo 24821">
              <g id="Grupo_24820" data-name="Grupo 24820" clip-path="url(#clip-path-8)">
                <path id="Trazado_63449" data-name="Trazado 63449" d="M299.495,152.047a113.381,113.381,0,0,0-21.157,5.62c-6.033,2.228-23.374,11.184-20.451,13.848,1.52,1.384,15.072-.953,26.961-7.58,9.088-5.067,10.655-6.438,15.487-9.336s-.841-2.552-.841-2.552" transform="translate(-257.558 -152.035)" fill="#2096ba"/>
              </g>
            </g>
          </g>
          <path id="Trazado_63450" data-name="Trazado 63450" d="M290.623,133.242,263.178,130.2a5.045,5.045,0,0,1-.091,3.156l8.923,7.737,14.7.156-.621,2.288,2.8,13.339s2.631,1.174,3.243.7c.553-.431.17-4.16.17-4.16l.553-18.1Z" transform="translate(56.051 27.738)" fill="#f9a873" fill-rule="evenodd"/>
          <path id="Trazado_63451" data-name="Trazado 63451" d="M292.8,148.94l-7.895,1.777-1.173,1.8-.556,3.4s1.566,1.981,2.452,2.025a5.973,5.973,0,0,0,2.852-.917l1.961-1.644,2.381-.551,2.152-1.484a2.9,2.9,0,0,0,.624-2.83,5.719,5.719,0,0,0-2.8-1.581" transform="translate(60.331 31.732)" fill="#002b6a" fill-rule="evenodd"/>
          <path id="Trazado_63452" data-name="Trazado 63452" d="M288.162,149.7a.625.625,0,0,0-.4-.757s.353,2.3-2.624,2.413c0,0-.807.008-1.109-.4a6.8,6.8,0,0,0-.045,1.646s1.662-.051,2.23.831a4.355,4.355,0,0,0,3.415-1.872s-1.673-1.114-1.463-1.866" transform="translate(60.495 31.732)" fill="#fff" fill-rule="evenodd"/>
          <path id="Trazado_63453" data-name="Trazado 63453" d="M264.842,130.494l-1.4,4.452-2.93,17.373-3.4,2.233-10.543,14.1,3.892,2.979L266.4,158.112l8.5-18.9,2.618-12.752-12.872-3.884Z" transform="translate(52.53 26.115)" fill="#ffc39e" fill-rule="evenodd"/>
          <path id="Trazado_63454" data-name="Trazado 63454" d="M248.54,158.159l-1.253,1.675,1.06.5s.271.147,1.265,2.356c.54,1.2,1.246,1.342,1.246,1.342s.553.263.5-.461,1.314-1.7,1.314-1.7l.192-.306c-3.6-.91-4.327-3.405-4.327-3.405" transform="translate(52.685 33.696)" fill="#fff"/>
          <path id="Trazado_63455" data-name="Trazado 63455" d="M264.611,127.9l-1.239,6.92c.2.218-3.552,15.316-3.552,15.316l-12.954,14.879,4.093,3.734,3.38,1.414,15.107-14.05,6.252-17.143,2.278-12.839-19.3-2.987Z" transform="translate(52.595 26.237)" fill="#11347f" fill-rule="evenodd"/>
          <path id="Trazado_63456" data-name="Trazado 63456" d="M288.308,126.44l-1.269,5.847,3.848-.876,2.962-13.239-3.881.611Z" transform="translate(61.154 25.177)" fill="#346995"/>
          <path id="Trazado_63457" data-name="Trazado 63457" d="M277.946,109.509l-.021,0-1.625,7.5,14.3,11.275,1.661-7.657-.027-.016Z" transform="translate(58.866 23.331)" fill="#065487"/>
          <path id="Trazado_63458" data-name="Trazado 63458" d="M276.5,115.693l-1.138,5.239,14.166,11.883,1.269-5.847-.053-.032Z" transform="translate(58.666 24.649)" fill="#004277"/>
          <path id="Trazado_63459" data-name="Trazado 63459" d="M283.955,120.786l-.405,2.106,2.7,1.963.474-.027.475-2.076-2.652-2.083Z" transform="translate(60.411 25.709)" fill="#a4d6ea"/>
          <g id="Grupo_24825" data-name="Grupo 24825" transform="translate(344.366 146.379)" opacity="0.68">
            <g id="Grupo_24824" data-name="Grupo 24824">
              <g id="Grupo_24823" data-name="Grupo 24823" clip-path="url(#clip-path-9)">
                <path id="Trazado_63460" data-name="Trazado 63460" d="M283.884,120.786l2.664,2,.577-.038-2.652-2.083Z" transform="translate(-283.884 -120.67)" fill="#d7f2ff"/>
              </g>
            </g>
          </g>
          <path id="Trazado_63461" data-name="Trazado 63461" d="M277.4,115.519l-.285,2.262,2.808,2.112.474-.029.357-2.232-2.771-2.239Z" transform="translate(59.041 24.585)" fill="#a4d6ea"/>
          <g id="Grupo_24828" data-name="Grupo 24828" transform="translate(336.445 139.978)" opacity="0.68">
            <g id="Grupo_24827" data-name="Grupo 24827">
              <g id="Grupo_24826" data-name="Grupo 24826" clip-path="url(#clip-path-10)">
                <path id="Trazado_63462" data-name="Trazado 63462" d="M277.353,115.519l2.779,2.154.575-.041-2.771-2.239Z" transform="translate(-277.354 -115.393)" fill="#d7f2ff"/>
              </g>
            </g>
          </g>
          <path id="Trazado_63463" data-name="Trazado 63463" d="M277.657,109.586l14.312,11.12,3.881-.613c-.095-.069-14.11-10.671-14.45-10.944Z" transform="translate(59.155 23.254)" fill="#4482ab"/>
          <path id="Trazado_63464" data-name="Trazado 63464" d="M285.872,108.422l-4.021,3.275,1.289,1.917,2.89-.421,2.378.2.353-3.384-1.195-1.04Z" transform="translate(60.049 23.1)" fill="#f59362" fill-rule="evenodd"/>
          <path id="Trazado_63465" data-name="Trazado 63465" d="M279.6,111.27l2.117,3.092,3.538-1.046-2.416-3.462Z" transform="translate(59.569 23.405)" fill="#fff" fill-rule="evenodd"/>
          <path id="Trazado_63466" data-name="Trazado 63466" d="M276.3,113.939l-13.47-8.924s-2,2.074-2.424,2.61l-.463,4.682,12.741,10.087,2.889-1.766,13.563-5.786-3.171-3.925Z" transform="translate(55.381 22.374)" fill="#002b6a" fill-rule="evenodd"/>
          <path id="Trazado_63467" data-name="Trazado 63467" d="M286.653,110.962a.909.909,0,0,1-.13.126s-.342.542-.08.883a.3.3,0,0,1,.04.049c.179.169.6.489.6.489-.087.4-.65,3.041-.693,3.2a3.952,3.952,0,0,0,.457.388,2.116,2.116,0,0,0,.727-.04c.078-.33.9-3.917.9-3.917s-1.576-1.043-1.822-1.175" transform="translate(61.006 23.641)" fill="#a4d6ea"/>
          <path id="Trazado_63468" data-name="Trazado 63468" d="M291.9,132.461l-12.344-.735-.317-.631.01-.383-5.809,1.279-11.953-3.535c0,.431-1.544,8.423-1.544,8.423l11.331,5.288,14.628-.114.682,13.741,5.774,1.264,2.268-2.58-.546-19.643Z" transform="translate(55.381 27.368)" fill="#06418e" fill-rule="evenodd"/>
          <path id="Trazado_63469" data-name="Trazado 63469" d="M251.742,162.6l-2.056-2.191-2.613-1.228-3.178,1.867.807,2.886,2.8,3.492,1.765,2.345,4.426,1.44,1.681-2.869-2.037-2.146s-1.314-3.012-1.592-3.6" transform="translate(51.962 33.913)" fill="#11487f" fill-rule="evenodd"/>
          <path id="Trazado_63470" data-name="Trazado 63470" d="M274.856,116.194l3.421,4.183c-.023-.189,1.143-5.678,1.143-5.678l-3.574-4.36Z" transform="translate(58.559 23.508)" fill="#a5003f"/>
          <path id="Trazado_63471" data-name="Trazado 63471" d="M264.62,103.14,263,104.53l-2.979.483-1.408,6.3,4.329,17.714-1.314,5.881c1.837,1.052,10.335,1.963,12.014,2.071l4.861-1.186,1.192-1.946.217-10.362.56-7.254-1.652-5.8Z" transform="translate(55.098 21.974)" fill="#fff" fill-rule="evenodd"/>
          <path id="Trazado_63472" data-name="Trazado 63472" d="M261.775,128.886l1.642,2.893,10.186.717-.856-8.648s.815-5.085.856-5.228Z" transform="translate(55.772 25.272)" fill="#b5b5e2" fill-rule="evenodd"/>
          <path id="Trazado_63473" data-name="Trazado 63473" d="M273.639,98.1l-1.8,9.228,3.606-1.184,1.548-6.661-.034-6.1Z" transform="translate(57.916 19.895)" fill="#f09d67" fill-rule="evenodd"/>
          <path id="Trazado_63474" data-name="Trazado 63474" d="M272.48,106.279v0c0-.006,0-.006,0,0" transform="translate(58.052 22.641)" fill="#f09d67" fill-rule="evenodd"/>
          <path id="Trazado_63475" data-name="Trazado 63475" d="M274.157,107.663c0-.01,0-.01,0,0l.4-3.5.124-3.46s-7.062-1.161-7.345-.878c-.09.09-.433,3.6-.433,3.6l-1.195,1.294a6.474,6.474,0,0,0-1.109,2.268c0,.727,3.537,2.928,4.8,3.183,1.031.209,4.92-.186,5.371-.955,0,0-.57-1.468-.614-1.555Z" transform="translate(56.374 21.258)" fill="#f09d67" fill-rule="evenodd"/>
          <path id="Trazado_63476" data-name="Trazado 63476" d="M265.488,129.4l-4.391-1.951,0,2.282,2.909,1.441,10.283,1.178,4.71-1.424.164-2.256L273.944,130Z" transform="translate(55.627 27.153)" fill="#002b6a"/>
          <path id="Trazado_63477" data-name="Trazado 63477" d="M270.358,89.782l-2.52.748-.148,1.063-1.137.29-1.444,2.854-.441,4.465,1.3,4.786,1.093,1.1,4.891.7,3.633-3.046.818-2.333,1.2-3.585.691-.541.57-1.2.12-1.6V91.865l-1.029-.582Z" transform="translate(56.388 19.128)" fill="#601f08" fill-rule="evenodd"/>
          <path id="Trazado_63478" data-name="Trazado 63478" d="M247.427,162.186a13.67,13.67,0,0,0-2.6-1.43h-.935l.807,2.887,4.561,5.837,4.426,1.439-2.472-2.427s-3.686-6-3.79-6.305" transform="translate(51.962 34.249)" fill="#002b6a" fill-rule="evenodd"/>
          <path id="Trazado_63479" data-name="Trazado 63479" d="M266.14,103.39a18.932,18.932,0,0,1-2.454,1.8l11.28,4.986.271-3.093-2.147-1.2Z" transform="translate(56.179 22.027)" fill="#fff" fill-rule="evenodd"/>
          <path id="Trazado_63480" data-name="Trazado 63480" d="M278.315,107.228l-2.61-1.611-7.864-2.6-4.885.581-1.256,4.141-1.675,6.607-5.49,7.637-13.405,6.422,14.921,7.967,10.312-1.416,5.488-4.382,7.574-6.559,2.071-4.322,1.928-5.568-2.076-5.405Z" transform="translate(51.373 21.948)" fill="#06418e" fill-rule="evenodd"/>
          <path id="Trazado_63481" data-name="Trazado 63481" d="M279.4,116.886l-4.082,4.993-3.382,2.095-1.852,4.659,4.038.746,3.968-4.718,2.46-7.492-.11-3.238Z" transform="translate(57.541 24.274)" fill="#d6094d"/>
          <path id="Trazado_63482" data-name="Trazado 63482" d="M272.671,104.859l2.6-.852-2.426-.617Z" transform="translate(58.093 22.027)" fill="#e26d49"/>
          <path id="Trazado_63483" data-name="Trazado 63483" d="M264.9,128.64c.1.266-.429,5.381-.429,5.381l4.052,1.923,1.508-2.264-1.668-6.082Z" transform="translate(56.347 27.185)" fill="#f09d67" fill-rule="evenodd"/>
          <path id="Trazado_63484" data-name="Trazado 63484" d="M264.475,129.824v.9l2.205.347,2.672-1.087-.583-2.037Z" transform="translate(56.347 27.258)" fill="#fff" fill-rule="evenodd"/>
          <path id="Trazado_63485" data-name="Trazado 63485" d="M276.968,107.723l-4.2,1.224-10.386,9.109-.7,2.294,3.067,14.064,2.556.4,2.709-1.191-1.738-12.685,10.464-6.712a4.622,4.622,0,0,0-1.766-6.507" transform="translate(55.751 22.951)" fill="#0d5199" fill-rule="evenodd"/>
          <path id="Trazado_63486" data-name="Trazado 63486" d="M357.469,83.812l3.435.707,4.446-3.841,2.627-8.692V61.276L355.043,64c0,.3,2.426,19.808,2.426,19.808" transform="translate(75.643 13.055)" fill="#c95a4b"/>
          <path id="Trazado_63487" data-name="Trazado 63487" d="M354.254,89.071a4.152,4.152,0,0,1,1.564-.381,1.747,1.747,0,0,1,1.168,1.342l15.708-31.257-3.84.4Z" transform="translate(75.474 12.522)" fill="#a5003f"/>
          <path id="Trazado_63488" data-name="Trazado 63488" d="M425.392,38.432c.383,0,12.257,4.34,12.257,4.34l4.363-1.308,14.02-24.1L432.2,0H405.408c6.84,13.367,19.7,38.432,19.984,38.432" transform="translate(86.373)" fill="#01366c"/>
          <path id="Trazado_63489" data-name="Trazado 63489" d="M423.175,43.411l11.376,1.18,6.37-11.138-6.766-22.6L418.226,0H396.939l-.9,1.792Z" transform="translate(84.378 0)" fill="#5cbac4"/>
          <path id="Trazado_63490" data-name="Trazado 63490" d="M358.686,70.815l-2.317-12.531,4.363-17.331L348.225,27.2l-7.794,27.11,2.87,21.791L349.7,86.56l1.832,4.377L359.52,94.6l3.589-6.244-.514-10.478Z" transform="translate(72.529 5.796)" fill="#f6a98b"/>
          <path id="Trazado_63491" data-name="Trazado 63491" d="M346.856,33l3.72,44.063,3.987-3.4,7.176,7.693,8.761,2.319,8.785,6.629,8.238-.733,6.575,5.4,21.644-11.791,1.6-11.335,16.275-15.659L440.647,41.6l30.376-22.217L440.085,0H403.467L371.428,17.672Z" transform="translate(73.898 0)" fill="#ffc39e"/>
          <path id="Trazado_63492" data-name="Trazado 63492" d="M431.742,30.029l-2.35,19.288L409.338,63.16H397.455l-5.82-8.4-11.774-.728-2.97-8.443-10.3-.581-5.37-7.253-8.718-1.83s-3.371-5.972-3-6.39l2.619-3.287-5.271,3.287L350.578,73.6l3.986-3.405,7.176,7.694,8.762,2.319,8.785,6.629,8.238-.733,6.575,5.4,21.645-11.79,1.6-11.335L433.615,52.72l7.033-14.583,17.944-13.124,3.042-8.751-17.583,2.626Z" transform="translate(73.898 3.465)" fill="#f6a98b"/>
          <path id="Trazado_63493" data-name="Trazado 63493" d="M418.168,62.974l-16.153,7.05-4.389,9.166-12.838-4.362c0-.355,2.528-15.519,2.528-15.519L380.552,75.6l-12.611-5.572,4.46-16.43-7.886,15.459-9.638-5.781,3.21-20.412L351.8,59.309l1.027,16.867L342.8,72.771l5.855,9.681.7,5.149,9.658,3.661L362.6,85.02l-.514-10.478-2.257-5.291,2.772,2.972,8.762,2.319,8.785,6.629,6.053-.539,8.759,5.205,21.645-11.79,2.2-6.115-.678-4.687Z" transform="translate(73.034 9.131)" fill="#dd8064"/>
          <g id="Grupo_24831" data-name="Grupo 24831" transform="translate(421.936 89.101)" opacity="0.3">
            <g id="Grupo_24830" data-name="Grupo 24830">
              <g id="Grupo_24829" data-name="Grupo 24829" clip-path="url(#clip-path-11)">
                <path id="Trazado_63494" data-name="Trazado 63494" d="M352.465,75.158l-4.635-1.706v2.219l.894,5.669,5.738,2.211,1.469-1.382-1.469-4.829Z" transform="translate(-347.83 -73.452)" fill="#ffc39e"/>
              </g>
            </g>
          </g>
          <path id="Trazado_63495" data-name="Trazado 63495" d="M434.613,33.493l-2.424,11.1,9.457-5.693,26.36-22.08L453.3,0H407.128c9.911,6.713,24.082,16.432,24.082,16.432Z" transform="translate(86.739 0)" fill="#fff"/>
          <path id="Trazado_63496" data-name="Trazado 63496" d="M444.815,27.6l-4.556,10.507L503.955,0h-80.9l13.705,9.115Z" transform="translate(90.132 0)" fill="#1e7b9b"/>
          <path id="Trazado_63497" data-name="Trazado 63497" d="M430.384,32.438l-2.424,11.1,17.825-10.626V4.951l-18.8,10.427Z" transform="translate(90.969 1.055)" fill="#ccfffe"/>
          <path id="Trazado_63498" data-name="Trazado 63498" d="M438.2,27.6l-2.353,13.864L505.154,0H449.381L434.349,9.115Z" transform="translate(92.539 0)" fill="#0a5b89"/>
          <g id="Grupo_24834" data-name="Grupo 24834" transform="translate(275.298 294.242)" opacity="0.46" style="mix-blend-mode: multiply;isolation: isolate">
            <g id="Grupo_24833" data-name="Grupo 24833">
              <g id="Grupo_24832" data-name="Grupo 24832" clip-path="url(#clip-path-12)">
                <path id="Trazado_63499" data-name="Trazado 63499" d="M250.682,244.632c-1.181.443-4.232,2.2-4.232,2.2l-6.305,5.226-12.954,5.43s-1.026,1.527,1.141,1.5c5.5-.072,15.141-3.145,19.679-4.792,4.482-1.628,2.533-2.41,10.146-8.386s-5.217-2.021-7.475-1.173" transform="translate(-226.947 -242.564)" fill="#2096ba"/>
              </g>
            </g>
          </g>
          <path id="Trazado_63500" data-name="Trazado 63500" d="M255.626,235.848l-2.316-.163-3.126.767-.536,2.052,1.378,1.475.689.3.308.825.668-.089.127-.721,2.074-.872,3.082-.448.949-1.414.125-1.644-.841-.752Z" transform="translate(53.188 50.103)" fill="#002b6a"/>
          <path id="Trazado_63501" data-name="Trazado 63501" d="M243.422,207.554,244.745,221l5.82,5.227-.553,3.23,1.4,11.3.138,2.211a1.264,1.264,0,0,0,.8.61c.23.045,3.216-.222,2.856-1.8l-.579-.449,1.182-19.03Z" transform="translate(51.861 44.22)" fill="#ff9b64"/>
          <path id="Trazado_63502" data-name="Trazado 63502" d="M237.737,233.415a13.144,13.144,0,0,0-2.936,2.3c-1.234,1.371-4.737,10.242-7.048,14.321,1.191.035,1.047.6,2.12,1.987a23.259,23.259,0,0,0,1.861-2.542c1.915-3.735,9.424-11.292,10.184-13.822,1.254-.826,2.168-3.281,2.168-3.281l-6.017-1.514Z" transform="translate(48.523 49.186)" fill="#ffb080"/>
          <path id="Trazado_63503" data-name="Trazado 63503" d="M236.8,218.991s1.77,4.383,0,14.068c.4-.08,7.483-3.478,7.483-3.478l11.782-9.948-4.918-6.1s-14.564,5.075-14.343,5.455" transform="translate(50.449 45.494)" fill="#002149"/>
          <path id="Trazado_63504" data-name="Trazado 63504" d="M238.571,208.708l-2.511,5.211a13.653,13.653,0,0,0-.258,3.714,6.739,6.739,0,0,0,.9,1.975c1.5,1.561,1.784,1.562,2.207,2.22.478.742.95,2.831.508,3.491a111.776,111.776,0,0,0-3.645,11.295,8.584,8.584,0,0,0,5.976,2.288c4.578-3.728,11.172-11.923,11.622-18.3,1.165-5.648.321-8.493.321-8.493Z" transform="translate(50.231 44.466)" fill="#002b6a"/>
          <path id="Trazado_63505" data-name="Trazado 63505" d="M243.558,212.131c-5.54-2.136-4.4-4.874-4.4-4.874l-1.076,1.761s-.836,1.678,4.622,4.123c7.882,3.175,10.5-.719,10.5-.719l-.362-1.844a8.923,8.923,0,0,1-9.283,1.553" transform="translate(50.715 44.156)" fill="#134184"/>
          <path id="Trazado_63506" data-name="Trazado 63506" d="M228.225,202.845s-4.5,7.945-5.636,9.28a21.978,21.978,0,0,0-.906,3.951l1.51.838,1.44-.07,1.272-2.324-.306-.621a9.011,9.011,0,0,1,.122-2c.352-.961,4-4.566,4-4.566l2.232-3.01,7.469-5.2-2.5-4.138Z" transform="translate(47.23 41.542)" fill="#ff9b64"/>
          <path id="Trazado_63507" data-name="Trazado 63507" d="M222.44,208.215l3.291,1.263.323-.962-3.118-.962Z" transform="translate(47.391 44.22)" fill="#fff"/>
          <path id="Trazado_63508" data-name="Trazado 63508" d="M246.55,192.41c.15-.288-6.791-1.143-6.791-1.143a1.574,1.574,0,0,1-.97,1.038s-.369,1.1,2.581,2.362c1.815.771,6.037-.11,6.037-.11a3.3,3.3,0,0,1-.858-2.147" transform="translate(50.871 40.75)" fill="#d7ad9b"/>
          <path id="Trazado_63509" data-name="Trazado 63509" d="M259.162,204.059l-2.374-6.473-6.058-3.594s-3.779.9-6.046,0-1.957-2.078-1.957-2.078H237.45l-8.294,9.038-1.31,1.85-5.618,8.138,3.97,1.468,7.045-8.323,5.021-2.712.554.462,1.35,3.893,1.633,2.5.48,3.424s.127,1.986,3.854,3.609c7.044,2.886,10.073-1.414,10.073-1.414a35.481,35.481,0,0,0,.656-4.076l-1.624-2.145,1.246-.255Z" transform="translate(47.346 40.888)" fill="#002b6a"/>
          <path id="Trazado_63510" data-name="Trazado 63510" d="M230.508,247.533c-1.454-1.086-1.97-.97-2.159-.951-.86,1-3.876,2.014-4.016,3.541l2.388,2.6a1.27,1.27,0,0,0,.133.963c.4.574,1.351,2.427,2.906,2.927.365.081.756.12.977-.852.141-.6-.485-2.722-.09-4.557.131-.742.466-2.526.466-2.526s.3-.445-.605-1.141" transform="translate(47.794 52.532)" fill="#002b6a"/>
          <path id="Trazado_63511" data-name="Trazado 63511" d="M227.768,251.413c-1.747-2.575-3.435-1.9-3.435-1.9l.529.829-.477,1.251.32.314.345.046.964-.611.7.767s-.25,1.461.036,1.868A6.084,6.084,0,0,0,229.761,256c.429.211-.7-1.174-1.279-2.157-.431-.729-.275-1.782-.714-2.43" transform="translate(47.795 53.142)" fill="#002149"/>
          <path id="Trazado_63512" data-name="Trazado 63512" d="M248.874,182.892s-6.489,9.9-8.08,11.2c1.086,4.466,5.982,2.192,5.982,2.192l.46-1.754,2.729-.084,1.322-5.428-.182-7.839c.068-.115-2.231,1.716-2.231,1.716" transform="translate(51.302 38.599)" fill="#ffb080"/>
          <path id="Trazado_63513" data-name="Trazado 63513" d="M264.373,210.053l-7.751-.921-5.007-12.474-1.473-.391-2.841.939-.787,4.086,6.592,12.821,2.046,1.166s11.01-.619,10.892-1.024l-.483-2.41Z" transform="translate(52.52 41.815)" fill="#053772"/>
          <path id="Trazado_63514" data-name="Trazado 63514" d="M245.485,193.329l-2.254-.53-.723,1.383c.135.045,1.8.947,1.8.947l1.849-.473.721-.474-.347-.853Z" transform="translate(51.667 41.076)" fill="#fff"/>
          <path id="Trazado_63515" data-name="Trazado 63515" d="M250.973,179.22a10.59,10.59,0,0,0-3.246-.843c-7.87-.272-9.841,6.776-10.51,9.816a5.009,5.009,0,0,1-2.35,2.583c-3.87,2.477-5.376,6.372-2.395,8.232a10.882,10.882,0,0,0,11.355.469c2.084-1.024,6.606-10.2,9.646-13,1.34-1.236,2.076-2.282.678-5.345a7.76,7.76,0,0,0-3.179-1.912" transform="translate(49.193 38.002)" fill="#6b2b00"/>
          <path id="Trazado_63516" data-name="Trazado 63516" d="M224.333,249.558l.364.7-.312,1.382.369-.051.844-1.094.856-.6-.86-.676Z" transform="translate(47.794 53.097)" fill="#002b6a"/>
          <path id="Trazado_63517" data-name="Trazado 63517" d="M218.618,218.3l-2.874-1.014-.01-.009-.272-.1-.007,1.674.032,11.272,3.433,1.627.027-5.76.033-6.64v-.066l0-.837v-.024l-.347-.119Z" transform="translate(45.903 46.27)" fill="#346995"/>
          <path id="Trazado_63518" data-name="Trazado 63518" d="M218.4,219.527l-.027.009-.038,7.542,15.79-7.614.034-7.385-.017-.006Z" transform="translate(46.516 45.182)" fill="#065487"/>
          <path id="Trazado_63519" data-name="Trazado 63519" d="M218.339,225.779l-.027,5.761,15.793-8.212.024-5.162L218.4,225.76Z" transform="translate(46.512 46.481)" fill="#004277"/>
          <path id="Trazado_63520" data-name="Trazado 63520" d="M223.995,220.914l-.13,2.173.439.127,3.079-1.4.2-2.187-.523-.239Z" transform="translate(47.695 46.741)" fill="#a4d6ea"/>
          <g id="Grupo_24837" data-name="Grupo 24837" transform="translate(271.69 266.128)" opacity="0.68">
            <g id="Grupo_24836" data-name="Grupo 24836">
              <g id="Grupo_24835" data-name="Grupo 24835" clip-path="url(#clip-path-13)">
                <path id="Trazado_63521" data-name="Trazado 63521" d="M223.972,220.914l.531.16,3.061-1.447-.523-.239Z" transform="translate(-223.972 -219.387)" fill="#c6e9ff"/>
              </g>
            </g>
          </g>
          <path id="Trazado_63522" data-name="Trazado 63522" d="M215.463,218.36v.115l3.548,1.262,15.742-7.457-3.426-1.191c-.376.186-15.76,7.226-15.863,7.271" transform="translate(45.905 44.973)" fill="#4482ab"/>
          <path id="Trazado_63523" data-name="Trazado 63523" d="M223,211.571c-.26.074-1.955.724-1.955.724s.024,3.543.029,3.87a2.029,2.029,0,0,0,.673.188,3.666,3.666,0,0,0,.512-.268c-.007-.155.012-2.754.015-3.15,0,0,.462-.215.665-.334a.421.421,0,0,1,.05-.039c.317-.264.109-.847.109-.847a.857.857,0,0,1-.1-.144" transform="translate(47.091 45.076)" fill="#002b6a"/>
          <path id="Trazado_63524" data-name="Trazado 63524" d="M224.939,210.649l.306.621-.462.844.991-.369v2.321l.317.295.8-.408.023-3.428-.847-.281Z" transform="translate(47.89 44.793)" fill="#002b6a"/>
          <path id="Trazado_63525" data-name="Trazado 63525" d="M319.337,225.7l-4.437-.369-15.219-8.307-58.662-15.651c-1.156.258-1.807,2.1-.723,2.7l58.412,15.44,15.616,8.358,4.168.245c.848,0,2.98-2.589.845-2.412" transform="translate(51.078 42.903)" fill="#d6094d"/>
          <path id="Trazado_63526" data-name="Trazado 63526" d="M306.458,221.514l-4.709-.391h0a1.46,1.46,0,0,1,.788,1.639,1.007,1.007,0,0,1-1.055.91l4.047.312c1.468.033,2.694-2.534.932-2.47" transform="translate(64.231 47.111)" fill="#a5003f"/>
          <path id="Trazado_63527" data-name="Trazado 63527" d="M299.584,217.024l-58.661-15.651a.944.944,0,0,1,.512,1.348,2.821,2.821,0,0,1-1.236,1.348l58.412,15.441s-1.44-1.753.973-2.486" transform="translate(51.175 42.903)" fill="#a5003f"/>
          <path id="Trazado_63528" data-name="Trazado 63528" d="M269.57,209.464c-1.841-2.364-4.223-.273-4.223-.273l-4.385-.335-4.645-.728-1.4.569c.048-.124-1.488-6.182-1.488-6.182s-3.263-.342-4.63,1.189a77.922,77.922,0,0,0,4,8.038l1.7,1.57,5.894-2.356,4.476,1.39a7.516,7.516,0,0,1,2.22.137,7.5,7.5,0,0,0,1.675.342c.972-.221,1.719-.431,1.719-.431l-1.871-2.456Z" transform="translate(53.007 43.139)" fill="#ffb080"/>
          <path id="Trazado_63529" data-name="Trazado 63529" d="M259.965,207.78l2.812,3.918,1.083-.315v-2.344l-1.155-1.263Z" transform="translate(55.386 44.267)" fill="#fff"/>
          <path id="Trazado_63530" data-name="Trazado 63530" d="M264.373,209.974l-7.751-.922-5.007-12.473-1.473-.391-2.841.939-.787,4.086,6.592,12.821,2.046,1.166s11.01-.619,10.892-1.025l-.483-2.409Z" transform="translate(52.52 41.798)" fill="#053772"/>
        </g>
      </g>
    </g>
  </g>
</svg>
