<svg xmlns="http://www.w3.org/2000/svg" xmlns:xlink="http://www.w3.org/1999/xlink" width="215.906" height="195.45" viewBox="0 0 215.906 195.45">
  <defs>
    <linearGradient id="linear-gradient" x1="19.662" y1="-7.127" x2="18.641" y2="-8.453" gradientUnits="objectBoundingBox">
      <stop offset="0" stop-color="#ff9f55"/>
      <stop offset="1" stop-color="#ffd255"/>
    </linearGradient>
    <linearGradient id="linear-gradient-2" x1="0.615" y1="0.726" x2="0.456" y2="0.429" xlink:href="#linear-gradient"/>
    <linearGradient id="linear-gradient-3" x1="0.604" y1="0.896" x2="0.374" y2="0.123" xlink:href="#linear-gradient"/>
    <linearGradient id="linear-gradient-4" x1="0.619" y1="0.622" x2="0.385" y2="0.367" xlink:href="#linear-gradient"/>
    <linearGradient id="linear-gradient-5" x1="0.701" y1="0.795" x2="0.195" y2="0.112" xlink:href="#linear-gradient"/>
    <linearGradient id="linear-gradient-6" x1="0.938" y1="1.123" x2="0.167" y2="0.027" xlink:href="#linear-gradient"/>
    <linearGradient id="linear-gradient-7" x1="16.787" y1="-16.728" x2="16.221" y2="-18.025" xlink:href="#linear-gradient"/>
  </defs>
  <g id="grafico12-12-12" transform="translate(0 -0.001)">
    <path id="Path_108329" data-name="Path 108329" d="M209.584,119.962c-6.84,18.5-20.819,38.516-40.489,44.443-29.719,8.959-33.269,33.143-86.5,30.9A106.361,106.361,0,0,1,59.572,191.9a88.828,88.828,0,0,1-10.821-3.631C17.654,175.552,1.432,147.574.085,118.276c-1.777-38.506,24.84-56.859,42.141-67.612s38.15-52.4,90.5-50.607a103.084,103.084,0,0,1,23.655,3.49C173.993,8.358,191.9,19,202.3,34.566q1.172,1.751,2.24,3.583C218.471,61.992,218.911,94.745,209.584,119.962Z" transform="translate(0 0)" fill="#fff"/>
    <path id="Trazado_108182" data-name="Trazado 108182" d="M847.747,509.14l-.419-7.565-16.276-2.355-2.543,7.138a39.267,39.267,0,0,0-4.649.794l3.839,18.195a20.229,20.229,0,0,1,16.832,3.145l8.854-16.433a38.672,38.672,0,0,0-5.638-2.919Z" transform="translate(-645.067 -390.879)" fill="url(#linear-gradient)"/>
    <path id="Trazado_108183" data-name="Trazado 108183" d="M323.59,510.611v-.784a19.8,19.8,0,0,0,18.466-12.487l.727.293A20.582,20.582,0,0,1,323.59,510.611Z" transform="translate(-253.365 -389.407)" fill="url(#linear-gradient-2)"/>
    <path id="Trazado_108184" data-name="Trazado 108184" d="M323.59,561.761v-.783a26.2,26.2,0,0,0,16.422-5.708l.486.616A26.977,26.977,0,0,1,323.59,561.761Z" transform="translate(-253.365 -434.765)" fill="url(#linear-gradient-3)"/>
    <path id="Trazado_108185" data-name="Trazado 108185" d="M410.914,537.129l-.434-.651a33.781,33.781,0,0,0,12.025-14.388l.716.317A34.555,34.555,0,0,1,410.914,537.129Z" transform="translate(-321.398 -408.786)" fill="url(#linear-gradient-4)"/>
    <rect id="Rectángulo_31368" data-name="Rectángulo 31368" width="0.783" height="20.51" transform="matrix(0.741, -0.672, 0.672, 0.741, 136.432, 37.255)" fill="#98a6b1"/>
    <path id="Trazado_108186" data-name="Trazado 108186" d="M137.813,337.329l-13.933-9.918L127,320.43a38.883,38.883,0,0,1-5.506-8.8l-7.648-.243L111,294.518l7.149-2.737a38.829,38.829,0,0,1,2.318-10.113l-5.23-5.575,9.913-13.935,6.981,3.121a38.943,38.943,0,0,1,8.8-5.5l.237-7.652,16.862-2.843,2.734,7.149a38.88,38.88,0,0,1,10.135,2.318l5.573-5.232L190.4,263.43l-3.116,6.981a38.9,38.9,0,0,1,5.5,8.8l7.648.243,2.83,16.86-7.146,2.734a38.993,38.993,0,0,1-.692,4.557l-.085.4-18.807-4.636.067-.362a19.781,19.781,0,1,0-24.877,15.452l.345.1L148.468,333.6l-.4-.1a38.8,38.8,0,0,1-4.677-1.424Zm-12.956-10.2,12.889,9.173,5.462-5.128.23.089a38.01,38.01,0,0,0,4.41,1.382l3.32-17.542a20.573,20.573,0,1,1,26.259-16.328l17.32,4.264a38.115,38.115,0,0,0,.616-4.308l.022-.245,7.005-2.68-2.63-15.593-7.5-.237-.1-.217a38.233,38.233,0,0,0-5.642-9.026l-.158-.187,3.056-6.843-12.88-9.18-5.465,5.128-.23-.089a38.036,38.036,0,0,0-10.378-2.376l-.243-.022-2.68-7.005-15.6,2.628-.25,7.5-.217.1a38.06,38.06,0,0,0-9.026,5.642l-.189.158-6.843-3.053-9.171,12.889,5.128,5.462-.087.23a38.044,38.044,0,0,0-2.387,10.376l-.02.245-7.008,2.682,2.628,15.6,7.5.234.1.217a38.132,38.132,0,0,0,5.643,9.024l.158.187Z" transform="translate(-86.911 -195.181)" fill="url(#linear-gradient-5)"/>
    <path id="Trazado_108187" data-name="Trazado 108187" d="M203.032,305.072l-1.369-8.117-7.572-.23a38.6,38.6,0,0,0-5.7-9.115l3.084-6.912L178.06,271.15l-5.517,5.176a38,38,0,0,0-4.234-1.343L164.9,293.336A20.209,20.209,0,0,1,178.555,316.2l18.06,4.449a38.957,38.957,0,0,0,.707-4.751l7.075-2.708Zm-60.765-4.232a20.116,20.116,0,0,1,5.643-5.358L138.7,279.332a38.467,38.467,0,0,0-4.937,3.524l-6.91-3.084-4.774,6.7-4.774,6.706,5.178,5.519a38.533,38.533,0,0,0-2.4,10.482L113,311.893l1.369,8.114,1.367,8.117,7.572.239a38.5,38.5,0,0,0,5.705,9.115l-3.079,6.912,6.706,4.774,6.706,4.774,5.519-5.178a38.293,38.293,0,0,0,4.857,1.493l3.472-18.295a20.183,20.183,0,0,1-10.933-31.11Z" transform="translate(-88.477 -212.304)" fill="url(#linear-gradient-6)"/>
    <rect id="Rectángulo_31369" data-name="Rectángulo 31369" width="0.836" height="37.954" transform="translate(66.455 132.734)" fill="#706865"/>
    <rect id="Rectángulo_31370" data-name="Rectángulo 31370" width="0.836" height="37.954" transform="translate(47.699 132.734)" fill="#706865"/>
    <rect id="Rectángulo_31371" data-name="Rectángulo 31371" width="27.475" height="47.547" rx="13.737" transform="translate(43.497 116.879)" fill="#bdafaa"/>
    <rect id="Rectángulo_31372" data-name="Rectángulo 31372" width="25.966" height="44.923" rx="12.983" transform="translate(44.25 117.645)" fill="#fff"/>
    <rect id="Rectángulo_31373" data-name="Rectángulo 31373" width="8.188" height="1.849" transform="translate(53.141 116.518)" fill="#706865"/>
    <path id="Trazado_108188" data-name="Trazado 108188" d="M110.445,139.3a15.64,15.64,0,0,0,.979-4.269l2.88-1.1-.549-3.305-.558-3.3-3.082-.1a15.681,15.681,0,0,0-2.331-3.711l1.257-2.821-2.73-1.942-2.728-1.953-2.248,2.109a15.806,15.806,0,0,0-4.267-.979l-1.109-2.865-3.305.558-3.3.556-.1,3.084a15.625,15.625,0,0,0-3.711,2.322l-2.821-1.257-1.953,2.73-1.953,2.73,2.109,2.246a15.641,15.641,0,0,0-.979,4.269L77.1,133.4l.556,3.305.558,3.3,3.082.1a15.742,15.742,0,0,0,2.322,3.713l-1.257,2.821,2.73,1.953,2.73,1.942,2.246-2.107a15.754,15.754,0,0,0,4.269.977l1.1,2.882,3.3-.558,3.305-.556.1-3.084a15.66,15.66,0,0,0,3.711-2.322l2.821,1.257,1.953-2.73,1.942-2.73Zm-19.506,1.059a8.214,8.214,0,1,1,11.454-1.929A8.214,8.214,0,0,1,90.939,140.356Z" transform="translate(-60.368 -90.089)" fill="#ffb955"/>
    <path id="Trazado_108189" data-name="Trazado 108189" d="M230.4,572.9l-.543-1.419a7.829,7.829,0,0,1-1.623-.371l-1.109,1.039-3.073-2.188.618-1.389a7.761,7.761,0,0,1-.881-1.411l-1.519-.048-.629-3.726,1.421-.543a7.693,7.693,0,0,1,.371-1.628l-1.04-1.109,2.188-3.073,1.387.619a7.833,7.833,0,0,1,1.413-.883l.048-1.519,3.72-.627.545,1.422a7.64,7.64,0,0,1,1.621.371l1.109-1.04,3.075,2.188-.621,1.387a7.654,7.654,0,0,1,.883,1.411l1.519.05.627,3.72-1.419.558a7.775,7.775,0,0,1-.371,1.621l1.04,1.109-2.188,3.075-1.389-.621a7.648,7.648,0,0,1-1.411.883l-.048,1.519Zm-2.346-2.7.228.087a6.949,6.949,0,0,0,1.888.434l.245.02.488,1.276,2.454-.414.043-1.365.217-.1a6.9,6.9,0,0,0,1.641-1.026l.189-.158,1.246.556,1.443-2.027-.933-1,.087-.23a6.923,6.923,0,0,0,.434-1.888l.02-.243,1.276-.488-.412-2.457-1.367-.043-.1-.217a6.96,6.96,0,0,0-1.027-1.643l-.158-.187.558-1.246-2.029-1.445-1,.935-.23-.089a7.005,7.005,0,0,0-1.886-.434l-.245-.022-.488-1.276-2.457.414-.043,1.365-.217.1a6.914,6.914,0,0,0-1.641,1.029l-.189.156-1.246-.556L223.4,560.05l.935.994-.089.23a7.023,7.023,0,0,0-.434,1.888l-.022.245-1.276.488.415,2.455,1.365.043.1.217a6.993,6.993,0,0,0,1.029,1.643l.158.189-.558,1.246,2.029,1.443Z" transform="translate(-173.54 -434.256)" fill="#cfcfcf"/>
    <path id="Trazado_108190" data-name="Trazado 108190" d="M250.231,585.325l-.328-.712a3.453,3.453,0,0,0,1.992-2.821l.779.072a4.236,4.236,0,0,1-2.444,3.453Zm-4.21-.388H246a4.241,4.241,0,0,1-1.773-3.448,3.023,3.023,0,0,1,.017-.395l.781.074a3.183,3.183,0,0,0-.015.321,3.459,3.459,0,0,0,1.45,2.821Zm4.436-6.268a3.421,3.421,0,0,0-1.992-.636h0a3.5,3.5,0,0,0-1.439.313l-.326-.712a4.263,4.263,0,0,1,1.764-.384h0a4.208,4.208,0,0,1,2.444.779Z" transform="translate(-191.228 -451.975)" fill="#cfcfcf"/>
    <path id="Trazado_108191" data-name="Trazado 108191" d="M271.889,642.251l-.3-.783a4.444,4.444,0,0,1-.668-.152l-.612.573-1.86-1.324.343-.757a4.221,4.221,0,0,1-.365-.582l-.838-.026-.38-2.25.783-.3a4.091,4.091,0,0,1,.154-.668l-.575-.612,1.324-1.86.766.343a4.219,4.219,0,0,1,.582-.365l.026-.838,2.25-.38.3.783a4.443,4.443,0,0,1,.668.152l.618-.582,1.86,1.324-.341.766a4.008,4.008,0,0,1,.362.582l.84.026.378,2.25-.783.3a4.089,4.089,0,0,1-.152.668l.573.612-1.324,1.86-.762-.336a4.355,4.355,0,0,1-.582.365l-.028.838Zm-1.152-1.838.23.087a3.381,3.381,0,0,0,.938.217l.245.022.243.636.985-.167.022-.679.217-.1a3.484,3.484,0,0,0,.816-.51l.189-.158.618.276.579-.814-.458-.5.089-.217a3.471,3.471,0,0,0,.217-.94l.02-.245.636-.243-.165-.983-.681-.022-.1-.217a3.459,3.459,0,0,0-.51-.816l-.158-.187.278-.621-.814-.579-.5.447-.23-.087a3.4,3.4,0,0,0-.94-.217l-.243-.022-.243-.636-.985.167-.022.679-.217.1a3.441,3.441,0,0,0-.816.51l-.189.158-.621-.276-.579.814.464.495-.087.217a3.471,3.471,0,0,0-.217.94l-.022.245-.634.243.165.983.679.022.1.217a3.471,3.471,0,0,0,.512.816l.156.187-.276.621.814.579Zm1.463-.753a2.388,2.388,0,0,1-1.387-.445h0a2.4,2.4,0,1,1,1.793.412,2.56,2.56,0,0,1-.406.033Zm0-4.023a1.621,1.621,0,0,0-.942,2.941h0a1.621,1.621,0,1,0,.942-2.941Z" transform="translate(-209.22 -495.055)" fill="#cfcfcf"/>
    <path id="Trazado_108192" data-name="Trazado 108192" d="M190.1,688.792a1.652,1.652,0,0,1,.217.562,2.764,2.764,0,0,0,.258.662,6.06,6.06,0,0,1,.315,1.1,4.6,4.6,0,0,0-.148.738c.026.158.117.477-.026.5s-.308-.239-.308-.239a.217.217,0,0,1-.106.2.354.354,0,0,1-.362.013s-.087.163-.2.184a.451.451,0,0,1-.36-.048.434.434,0,0,1-.271.087.363.363,0,0,1-.3-.189s-.269.054-.347-.072a1.207,1.207,0,0,1-.1-.373,4.369,4.369,0,0,1,.343-1.886,1.673,1.673,0,0,0-.089-1.465Z" transform="translate(-147.485 -539.137)" fill="#eea886"/>
    <path id="Trazado_108193" data-name="Trazado 108193" d="M190.431,699.545s.024-.925-.217-1.12-.271.137-.271.137.033-.33-.232-.375-.278.347-.278.347a.256.256,0,0,0-.321-.2c-.28.052-.217.378-.217.378s-.267-.319-.434-.013a1.357,1.357,0,0,0-.011,1.124s.082.141.347.072a.367.367,0,0,0,.575.1s.408.217.556-.137a.336.336,0,0,0,.5-.312Z" transform="translate(-147.461 -546.663)" fill="#db9c7c"/>
    <path id="Trazado_108194" data-name="Trazado 108194" d="M193.346,620.457s-1.582,5.274-2.116,7.218c-.169.61-.573,6.435-.651,6.669s-2.079.556-2.079.556.243-7.287.265-7.685,2.216-8.535,2.852-8.826c.477-.217.731-.037,1.332.41A1.4,1.4,0,0,1,193.346,620.457Z" transform="translate(-147.592 -484.114)" fill="#323657"/>
    <rect id="Rectángulo_31374" data-name="Rectángulo 31374" width="4.327" height="0.321" transform="translate(61.177 128.963) rotate(-33.2)" fill="#4da8f2"/>
    <path id="Trazado_108195" data-name="Trazado 108195" d="M291.593,585.584a.89.89,0,0,1-.093.286s-.117.141-.2.247a.714.714,0,0,0-.056.085,1.8,1.8,0,0,1-.3.464c-.174.174-.844.731-.844.731l-.575-.488-.6-.269a11.123,11.123,0,0,1,.477-1.636.308.308,0,0,1,.043-.048,2.216,2.216,0,0,1,.373-.258c.03-.024.336-.245.447-.217a.369.369,0,0,1,.276.23.9.9,0,0,1,.41.263.556.556,0,0,1,.356.332S291.582,585.412,291.593,585.584Z" transform="translate(-226.227 -457.635)" fill="#efaa88"/>
    <path id="Trazado_108196" data-name="Trazado 108196" d="M198.077,793.68s-.145,1-.163,1.15-1.6-.087-1.6-.087l-.13-1.194A9.444,9.444,0,0,1,198.077,793.68Z" transform="translate(-153.605 -621.333)" fill="#424773"/>
    <path id="Trazado_108197" data-name="Trazado 108197" d="M197.038,798.651a4.259,4.259,0,0,0,.987.868c.486.263,1.25.367,1.539.638.217.2.755,1.044-1.263,1.026s-2.993.119-3.21-.206.313-2.387.313-2.387A4.425,4.425,0,0,0,197.038,798.651Z" transform="translate(-152.712 -625.28)" fill="#292c47"/>
    <path id="Trazado_108198" data-name="Trazado 108198" d="M250.455,793.68s-.143,1-.163,1.15-1.6-.087-1.6-.087l-.128-1.194A9.414,9.414,0,0,1,250.455,793.68Z" transform="translate(-194.618 -621.333)" fill="#424773"/>
    <path id="Trazado_108199" data-name="Trazado 108199" d="M249.409,798.651a4.287,4.287,0,0,0,.99.868c.486.263,2.274.477,2.561.751.217.2.553.987-2.287.914-2.018-.052-2.993.119-3.21-.206s.315-2.387.315-2.387A4.012,4.012,0,0,0,249.409,798.651Z" transform="translate(-193.717 -625.28)" fill="#292c47"/>
    <path id="Trazado_108200" data-name="Trazado 108200" d="M198.554,675.62a9.257,9.257,0,0,0-1.38,4.51c.111,2.14-.54,4.477-.764,6.715-.25,2.491-1.272,8.394-1.3,9.727s.158,5.593.158,5.593l2.046.048s1.717-10.319,2.17-11.372,2.65-8.557,2.724-9.4S198.554,675.62,198.554,675.62Z" transform="translate(-152.763 -528.997)" fill="#292c47"/>
    <path id="Trazado_108201" data-name="Trazado 108201" d="M216.137,674.471s1.124,5.859,1.272,7.177.247,6.341.321,7.162.692,10.693.89,11.936h-2.6s-2.007-7.2-2.007-10.6-1.55-7.4-2.552-9.646-3.29-2.3-3.906-6.465C207.541,674.03,215.306,673.147,216.137,674.471Z" transform="translate(-162.508 -527.526)" fill="#292c47"/>
    <path id="Trazado_108202" data-name="Trazado 108202" d="M217.91,583.219s2-.747,2.923.775.833,4.573-.176,4.948-2.522.178-3.038-.775a7.641,7.641,0,0,1-.961-3.255A1.989,1.989,0,0,1,217.91,583.219Z" transform="translate(-169.638 -456.505)" fill="#eea886"/>
    <path id="Trazado_108203" data-name="Trazado 108203" d="M222.47,603.718a1.737,1.737,0,0,0,.054.805c.137.265-2.591.273-2.591.273a17.869,17.869,0,0,0-.651-2.669C218.872,600.9,222.47,603.718,222.47,603.718Z" transform="translate(-171.669 -471.212)" fill="#eea886"/>
    <path id="Trazado_108204" data-name="Trazado 108204" d="M216.662,586.591s.189.31.957.191,1.708-1.144,2.029-1.257.323-.3.323-.3l.2.293.341.022s-.31-.914.158-1.287-.486-2.962-2.954-2.1c0,0-1.895.521-1.825,1.6A6,6,0,0,0,216.662,586.591Z" transform="translate(-169.039 -455.675)" fill="#d88a51"/>
    <path id="Trazado_108205" data-name="Trazado 108205" d="M224.05,611.439s0-.51-.239-.558a16.622,16.622,0,0,0-2.821-.161v.592S221.53,611.649,224.05,611.439Z" transform="translate(-173.031 -478.158)" fill="#e2d2ca"/>
    <path id="Trazado_108206" data-name="Trazado 108206" d="M231.864,593.718c-.043-.182-.5-.7-.679-.145s.267,1.3.512,1.233S231.981,594.176,231.864,593.718Z" transform="translate(-180.982 -464.56)" fill="#eea886"/>
    <path id="Trazado_108207" data-name="Trazado 108207" d="M212.318,598.549c-1.586-.217-3.826-.768-3.826-.768l-3.058-.126a29.712,29.712,0,0,0-3.922,1.12,30.2,30.2,0,0,1-.393,3.156l.918,1.938s.532,3.839.64,5.547c.052.783-1.085,7.35-1.085,7.35a21.338,21.338,0,0,0,3.318.592c2.094.23,7.32-.085,7.355-.332s-1.013-9.2-1.059-9.664c-.072-.712.245-4.495.245-4.495.482-.375,4.724-2.344,5.881-3.37.31-.273,1.617-1.547,1.988-1.986a37.312,37.312,0,0,0,2.526-3.179c.15-.163-1.476-1.035-1.619-1.085s-1.858,2.277-2.541,3.019a19.376,19.376,0,0,1-1.576,1.252A15.308,15.308,0,0,1,212.318,598.549Z" transform="translate(-157.473 -464.5)" fill="#323657"/>
    <path id="Trazado_108208" data-name="Trazado 108208" d="M215.626,584.71s-2.55.2-.078,4.021Z" transform="translate(-167.926 -457.816)" fill="#d88a51"/>
    <path id="Trazado_108209" data-name="Trazado 108209" d="M298.788,583.379l.208-.319-.386.05Z" transform="translate(-233.806 -456.524)" fill="#dfe1e8"/>
    <path id="Trazado_108210" data-name="Trazado 108210" d="M622.711,72.048a2.012,2.012,0,0,0,2.01-2.01h-.473a1.536,1.536,0,1,1-1.536-1.536h.237V44.17h-.475V68.042a2.01,2.01,0,0,0,.239,4.006Z" transform="translate(-485.989 -34.583)" fill="#385369"/>
    <rect id="Rectángulo_31375" data-name="Rectángulo 31375" width="1.131" height="11.491" transform="translate(137.306 33.357) rotate(180)" fill="#98a6b1"/>
    <path id="Trazado_108211" data-name="Trazado 108211" d="M565.819,183.811l-.579-.527,14.085-15.5.514.6Z" transform="translate(-442.572 -131.368)" fill="#98a6b1"/>
    <path id="Trazado_108212" data-name="Trazado 108212" d="M553.189,247.157a38.451,38.451,0,0,0,4.488-3.948L544.76,229.824a20.2,20.2,0,0,1-29.864-.174L502.22,243.29a38.328,38.328,0,0,0,4.277,3.763l-1.474,7.431,7.6,3.166,7.6,3.164,4.236-6.281a38.629,38.629,0,0,0,10.755.028l4.208,6.294,7.609-3.134,7.611-3.136Z" transform="translate(-393.229 -179.811)" fill="url(#linear-gradient-7)"/>
    <path id="Trazado_108213" data-name="Trazado 108213" d="M517.9,534.87H505.23v11.116l1.934-1.934H517.9Z" transform="translate(-395.586 -418.792)" fill="#ffce55"/>
    <path id="Trazado_108214" data-name="Trazado 108214" d="M505.84,625.69s.276-.677.319-.779a1.759,1.759,0,0,1,.629-.434,2.041,2.041,0,0,1,.868-.217.306.306,0,0,1,.193.178.606.606,0,0,1,.05.3.369.369,0,0,1,.145.332.319.319,0,0,1,.074.349.267.267,0,0,1,.074.286,2.392,2.392,0,0,0-.343.256,5.118,5.118,0,0,1-1.248.616S505.964,626.591,505.84,625.69Z" transform="translate(-396.063 -488.783)" fill="#eea886"/>
    <path id="Trazado_108215" data-name="Trazado 108215" d="M510.155,629.15a1.811,1.811,0,0,1-.043.471c-.052.1.744.334.744.334S510.6,629.152,510.155,629.15Z" transform="translate(-399.406 -492.612)" fill="#cf8c6c"/>
    <path id="Trazado_108216" data-name="Trazado 108216" d="M441.96,790.673l.347-1.083,1.469.239-.219.974Z" transform="translate(-346.046 -618.233)" fill="#555c94"/>
    <path id="Trazado_108217" data-name="Trazado 108217" d="M497.44,791.962l.082.592,1.608-.267-.087-.888Z" transform="translate(-389.486 -619.65)" fill="#555c94"/>
    <path id="Trazado_108218" data-name="Trazado 108218" d="M450.588,699.719s-.237,1.289-.51,2.721c-.048.25-.1.5-.148.755-.267,1.38-.538,2.708-.64,2.984-.228.623-5.152,9.644-5.152,9.644s-2.012-.152-2.088-.412c0,0,4.123-9.794,4.1-10.152s.5-10.4.5-10.4S450.479,699.137,450.588,699.719Z" transform="translate(-346.117 -544.061)" fill="#354c70"/>
    <path id="Trazado_108219" data-name="Trazado 108219" d="M469.315,688.448s1.925,9.864,2.09,10.619.9,10.862.9,10.862-.434.892-2.033.556c0,0-2.17-10.851-2.363-11.22-.714-1.413-4.215-8.247-4.557-9.23a5.859,5.859,0,0,1-.239-2.114S465.712,686.458,469.315,688.448Z" transform="translate(-362.594 -538.223)" fill="#354c70"/>
    <path id="Trazado_108220" data-name="Trazado 108220" d="M484.493,630.208s.844,2.107,1.057,2.044,2.641-2.912,2.641-2.912,1.111,1.387.961,1.545c-.217.217-3.075,4.991-3.472,4.9s-2.157-3-2.157-3S483.432,630.59,484.493,630.208Z" transform="translate(-378.588 -492.761)" fill="#deb135"/>
    <path id="Trazado_108221" data-name="Trazado 108221" d="M463.12,614.81a35.5,35.5,0,0,1,2.8,2.339c.605.664,2.274,3.418,2.153,4.247a60.552,60.552,0,0,0-.694,8.051c-.011,1.888.59,2.37.217,2.387-.434.033-5.944,2.031-6.76,2.274,0,0,.536-6.649.807-7.418S460.767,617.89,463.12,614.81Z" transform="translate(-360.821 -481.384)" fill="#f2c344"/>
    <path id="Trazado_108222" data-name="Trazado 108222" d="M516.716,600.17l.493,2.478.49,2.476a13.489,13.489,0,0,0-6-.247l-.217-1.085-.217-1.1A13.534,13.534,0,0,0,516.716,600.17Z" transform="translate(-400.307 -469.921)" fill="#d9d0c4"/>
    <path id="Trazado_108223" data-name="Trazado 108223" d="M497.082,794.141s1.213-.234,1.257-.271.3-.517.49-.434.189.666.373.766,1.632,1.085,1.81,1.254,1.274.074,1.4.384.137,1.04-1.5.868-3.5.093-3.859-.1S496.969,794.612,497.082,794.141Z" transform="translate(-389.046 -621.237)" fill="#ffb355"/>
    <path id="Trazado_108224" data-name="Trazado 108224" d="M440,792.887s1.237-.037,1.285-.067.382-.46.553-.347.08.688.245.814,1.439,1.326,1.586,1.53,1.248.276,1.322.6-.033,1.048-1.621.616-3.472-.469-3.791-.716S439.811,793.334,440,792.887Z" transform="translate(-344.106 -620.475)" fill="#ffb355"/>
    <path id="Trazado_108225" data-name="Trazado 108225" d="M481.579,694.33s.148.6.386.729-1.107,1.415-1.107,1.415a11.622,11.622,0,0,1-.53-1.3A8.893,8.893,0,0,1,481.579,694.33Z" transform="translate(-376.088 -543.646)" fill="#eea987"/>
    <path id="Trazado_108226" data-name="Trazado 108226" d="M460.743,623.927s-1.573,7.481-1.7,8.247c-.122.723,4.612,7.643,4.612,7.643l1.573-.933s-3.82-6.945-3.813-7.259,1.832-6.348,1.832-6.348a1.422,1.422,0,1,0-2.5-1.35Z" transform="translate(-359.419 -487.903)" fill="#ffd255"/>
    <path id="Trazado_108227" data-name="Trazado 108227" d="M482,696.7a25.738,25.738,0,0,1,.482,3.323c-.03.779-2.936-1.226-2.789-2Z" transform="translate(-375.584 -545.502)" fill="#3c5780"/>
    <path id="Trazado_108228" data-name="Trazado 108228" d="M471.38,605.713s3.991,4.36,3.744,3.876c-.868-1.723-1.487-2.014-1.476-2.335.011-.245.091-.957.106-1.2.033-.458.082-.836.082-.836s-1.983-2.782-1.895-1.834A5.736,5.736,0,0,1,471.38,605.713Z" transform="translate(-369.082 -472.287)" fill="#eea886"/>
    <path id="Trazado_108229" data-name="Trazado 108229" d="M474.489,588.322a10,10,0,0,1,.556,1.591,6.767,6.767,0,0,0-.022.868,11.835,11.835,0,0,1,.313,1.324c-.043.252-.575.121-.651.536s-.458,1.2-.651,1.213a4.672,4.672,0,0,1-2.507-1.126c-.119-.4-.805-2.6-1.02-3.023s3.336-2.719,3.659-2.047Z" transform="translate(-368.39 -460.029)" fill="#eea886"/>
    <path id="Trazado_108230" data-name="Trazado 108230" d="M466.55,588.075c-.252-1.085,1-1.228,1-1.228a3.409,3.409,0,0,1,2.776-.84c1.958.113,1.658,2.669,1.658,2.669a7.289,7.289,0,0,0-1.953-.054,9.341,9.341,0,0,0,0,1.361l-.738-.065s.082-.968-.271-1.013-.473,2.049-1.135,2.511a.727.727,0,0,0-.089-.293h0a8.6,8.6,0,0,1-.512-1.07A11.944,11.944,0,0,1,466.55,588.075Z" transform="translate(-365.274 -458.824)" fill="#fccca2"/>
    <path id="Trazado_108231" data-name="Trazado 108231" d="M476.324,598.947a.559.559,0,0,0-.922-.26c-.473.349.013,1.6.473,1.591S476.519,599.592,476.324,598.947Z" transform="translate(-372.079 -468.633)" fill="#eea886"/>
    <path id="Trazado_108232" data-name="Trazado 108232" d="M474.748,609.91a1.42,1.42,0,0,0,.2.484,4.232,4.232,0,0,0,1.465.766l-.085.783S474.661,611.288,474.748,609.91Z" transform="translate(-371.716 -477.547)" fill="#c48a6f"/>
    <path id="Trazado_108233" data-name="Trazado 108233" d="M509.14,624.093l.282-.135-1.276-2.708-.716.336,1.085,2.3a.434.434,0,0,0,.625.211Z" transform="translate(-397.308 -486.426)" fill="#e8734d"/>
    <path id="Trazado_108234" data-name="Trazado 108234" d="M510.833,624.309s-.8.434-.744.575a.232.232,0,0,0,.158.156l-.252.328s-.039.313.31.265c0,0-.067.286.265.2,0,0,.039.217.2.2a3.04,3.04,0,0,0,.664-.315s.078-.113-.074-.286a.315.315,0,0,0-.063-.349.341.341,0,0,0-.13-.33s.074-.391-.243-.48A.83.83,0,0,0,510.833,624.309Z" transform="translate(-399.316 -488.791)" fill="#db9c7c"/>
    <path id="Trazado_108235" data-name="Trazado 108235" d="M501.516,613.736l2.815-.527-.458-2.309-2.793.638Z" transform="translate(-392.336 -478.322)" fill="#e8734d"/>
    <path id="Trazado_108236" data-name="Trazado 108236" d="M507.227,627.174a3.082,3.082,0,0,1,.97.124c.078.03.15.076.15.161s-.124.191-.393.217a2.275,2.275,0,0,0-.61.174S507.058,627.786,507.227,627.174Z" transform="translate(-397.107 -491.063)" fill="#eea886"/>
    <path id="Trazado_108237" data-name="Trazado 108237" d="M472.736,717.247c-.048.25-.1.5-.148.755L471,713.77C471.217,714.2,472.736,717.247,472.736,717.247Z" transform="translate(-368.784 -558.868)" fill="#293b57"/>
    <path id="Trazado_108238" data-name="Trazado 108238" d="M579.358,689.9h25.819l-8.136,24.99.76.25,8.479-26.038h-27.5l-8.4,25.788.76.25Z" transform="translate(-446.597 -539.551)" fill="#fb5"/>
    <path id="Trazado_108239" data-name="Trazado 108239" d="M618.909,714.888l-8.136-24.99h25.819l8.218,25.239.76-.25-8.4-25.788h-27.5l8.479,26.038Z" transform="translate(-477.36 -539.551)" fill="#fb5"/>
    <rect id="Rectángulo_31376" data-name="Rectángulo 31376" width="31.602" height="0.801" transform="translate(130.359 157.418)" fill="#fb5"/>
    <rect id="Rectángulo_31377" data-name="Rectángulo 31377" width="37.809" height="0.801" transform="translate(127.104 166.105)" fill="#fb5"/>
    <path id="Trazado_108240" data-name="Trazado 108240" d="M732.844,455.507s.182-.625-.1-.868a2.093,2.093,0,0,1-.434-.786c-.063-.182-.469-.666-.241-.751s.708.766.842.924.291-.762.451-.907,1.669.2,1.491.814a5.78,5.78,0,0,1-.788,1.278,3.721,3.721,0,0,1-.113.46Z" transform="translate(-573.145 -354.757)" fill="#e09e7f"/>
    <path id="Trazado_108241" data-name="Trazado 108241" d="M737.9,445.918a14.942,14.942,0,0,1,.82-1.953c.148-.093.247-.043.193.132s-.6,1.816-.6,1.816,1.165-2.068,1.272-2.17c.063-.059.258.013.239.111s-1.061,2.211-1.061,2.211,1.085-1.927,1.207-1.984a.152.152,0,0,1,.191.217c-.072.15-.983,2-.983,2a9.047,9.047,0,0,1,1-1.343c.076,0,.247.059,0,.4s-.716,1.207-.716,1.207Z" transform="translate(-577.762 -347.425)" fill="#e09e7f"/>
    <path id="Trazado_108242" data-name="Trazado 108242" d="M607.324,540.117s-.6.263-.879.017a2.122,2.122,0,0,0-.838-.334c-.189-.039-.723-.378-.775-.141s.853.6,1.026.716-.716.386-.84.564.412,1.63,1,1.372,1.05-.922,1.163-.948a3.788,3.788,0,0,0,.434-.171Z" transform="translate(-473.571 -422.477)" fill="#e09e7f"/>
    <path id="Trazado_108243" data-name="Trazado 108243" d="M599.284,545.43a14.511,14.511,0,0,0-1.823,1.07c-.067.158,0,.25.158.171s1.721-.829,1.721-.829-1.9,1.426-1.979,1.543c-.05.069.048.254.141.217s2.053-1.341,2.053-1.341-1.767,1.337-1.808,1.456a.152.152,0,0,0,.234.161c.137-.089,1.849-1.235,1.849-1.235a9.062,9.062,0,0,0-1.2,1.172c.015.074.091.239.4-.043s1.1-.868,1.1-.868Z" transform="translate(-467.712 -427.061)" fill="#e09e7f"/>
    <path id="Trazado_108244" data-name="Trazado 108244" d="M613.42,509.307l.94,1.159s6.048-2.507,6.973-3.375a10,10,0,0,0,1.5-1.085h0c.267-.217.527-.414.768-.59l.163-.145h0l1.669-1.491s3.038-1.61,1.8-3.351a1.192,1.192,0,0,0-1.3-.089,11.422,11.422,0,0,0-2.2,1.619c-.269.258-2.025,1.756-2.118,1.849-.349.356-1.541,1.417-2.155,1.882C618.366,506.512,613.42,509.307,613.42,509.307Z" transform="translate(-480.296 -391.637)" fill="#323657"/>
    <path id="Trazado_108245" data-name="Trazado 108245" d="M677.151,468.487h0a7.341,7.341,0,0,1-.823,1.356c-1.07,1.374-3.566,1.406-3.6-2.361a5.711,5.711,0,0,1,.217-1.762,2.671,2.671,0,0,1,1.71-1.953c.885-.05,2.437.169,2.954,1.324A4.5,4.5,0,0,1,677.151,468.487Z" transform="translate(-526.731 -363.115)" fill="#eea987"/>
    <path id="Trazado_108246" data-name="Trazado 108246" d="M678,467.88h0s-.128.035-.588-.9c-.093-.187-.165-.054-.2-.137l-.734-.284s.725-1.215-.217-1.552a4.985,4.985,0,0,0-2.448.1c.315-2.993,1.71-1.953,1.71-1.953.885-.05,2.78,0,3.3,1.157C679.179,465.143,678.569,466.678,678,467.88Z" transform="translate(-527.581 -362.508)" fill="#665249"/>
    <path id="Trazado_108247" data-name="Trazado 108247" d="M688.544,477.246c.054-.254.551-.469.764.072s-.5,1.115-.684,1S688.453,477.663,688.544,477.246Z" transform="translate(-539.066 -373.467)" fill="#eea987"/>
    <path id="Trazado_108248" data-name="Trazado 108248" d="M633.208,680.1a5.735,5.735,0,0,1-1.892,1.029c-.864.187-1.32.629-1.326,1.144s2.489.853,3.472.334c1.478-.773,1.63-.54,1.793-.927a5.274,5.274,0,0,0,.043-1.519A13.15,13.15,0,0,0,633.208,680.1Z" transform="translate(-493.27 -532.495)" fill="#2e2626"/>
    <path id="Trazado_108249" data-name="Trazado 108249" d="M644.806,677.967a3.4,3.4,0,0,0-.1.434c.015,0,1.953.217,1.89-.111-.048-.273-.115-.571-.115-.571Z" transform="translate(-504.796 -530.641)" fill="#2e2626"/>
    <path id="Trazado_108250" data-name="Trazado 108250" d="M692.143,683.208a3.089,3.089,0,0,1-1.452,1.163c-.8.2-1.085.5-1.135.981s1.888,1.118,3.242.267c.89-.558,1.222-.525,1.4-.881a4.665,4.665,0,0,0,.061-1.467A12.987,12.987,0,0,0,692.143,683.208Z" transform="translate(-539.909 -534.929)" fill="#2e2626"/>
    <path id="Trazado_108251" data-name="Trazado 108251" d="M702.386,681.056a3.672,3.672,0,0,0-.026.417c.015.011,1.8.326,1.79,0a2.491,2.491,0,0,0-.113-.573Z" transform="translate(-549.935 -533.131)" fill="#2f6b8c"/>
    <path id="Trazado_108252" data-name="Trazado 108252" d="M648.748,561.666s-2.426,6.018-3.123,8.06a30.633,30.633,0,0,0-1.539,6.346c-.145,1.621-.714,9.269-.816,9.742s2.724.317,2.724.317,1.589-9.647,2.02-11.372c.4-1.608,4.217-8.9,4.586-8.464s1.589,7.9,1.86,9.169,1,11.246,1,11.246,2.478.4,2.978,0c0,0-.391-8.9-.564-11.285-.067-.9.573-10.851-.959-14.851C656.107,558.471,648.748,561.666,648.748,561.666Z" transform="translate(-503.666 -438.357)" fill="#f2c344"/>
    <path id="Trazado_108253" data-name="Trazado 108253" d="M668.7,498.58a12.9,12.9,0,0,0-2.37.673,12.925,12.925,0,0,0-.918,3.553,25.333,25.333,0,0,0,.445,4.675c.3,1.089-.26,5.621-.447,7.131,0,0,3.637,1.652,9.788.365,0,0-1.085-4.692-.9-6.185.234-1.912.855-6.1.855-6.1s.564-3.989.043-3.889a11.1,11.1,0,0,1-3.906-.217Z" transform="translate(-521.006 -390.378)" fill="#323657"/>
    <path id="Trazado_108254" data-name="Trazado 108254" d="M678.42,488.566s.651.484,2.8-.464a5.957,5.957,0,0,1,.217-2.552c.434-1.378-2.776,1.437-2.776,1.437.035.026.041.163.022.356v.037a3.8,3.8,0,0,1-.087.471.092.092,0,0,1-.015.061C678.442,488.373,678.42,488.171,678.42,488.566Z" transform="translate(-531.19 -379.878)" fill="#eea886"/>
    <path id="Trazado_108255" data-name="Trazado 108255" d="M679.15,492.039h0c1.543.2,2.387-1.465,2.409-1.519a2,2,0,0,1-2.322,1.042h0A3.887,3.887,0,0,1,679.15,492.039Z" transform="translate(-531.762 -384.067)" fill="#a77860"/>
    <path id="Trazado_108256" data-name="Trazado 108256" d="M677.839,498.139s-.495.734.193.868a3.231,3.231,0,0,0,2.858-.959A6.593,6.593,0,0,0,677.839,498.139Z" transform="translate(-530.6 -389.846)" fill="#eea886"/>
    <path id="Trazado_108257" data-name="Trazado 108257" d="M694.64,473.413c-.217-.451.334-1.625,1.27-2.448a6.8,6.8,0,0,1,1.916-1.2c.386-.145,3.019-.994,3.147-1.322.161-.419.868-2.468.916-2.645.113-.358,1.428-4.41,1.428-4.41l1.636.373s-1.22,5.859-1.372,6.613a2.71,2.71,0,0,1-1.287,2.073c-1.1.705-3.577,2.528-3.824,2.624S695.612,475.422,694.64,473.413Z" transform="translate(-543.853 -361.259)" fill="#323657"/>
    <path id="Trazado_108258" data-name="Trazado 108258" d="M844.068,791.526a3.415,3.415,0,0,0-.914.484,4.857,4.857,0,0,1-1.821,1.042c-.7.126-1.448.117-1.335.868s2.431,1.124,4.52.488,2.12-.7,2.12-.883a13.256,13.256,0,0,0-.41-2.116C846.134,791.344,844.068,791.526,844.068,791.526Z" transform="translate(-657.694 -619.647)" fill="#4b5182"/>
    <path id="Trazado_108259" data-name="Trazado 108259" d="M903.476,786.69a3.85,3.85,0,0,1-1.5.972c-.692.141-1.6.365-1.652.82a.56.56,0,0,0,.271.6,13.324,13.324,0,0,0,4.759-.217c.786-.3-.119-2.756-.119-2.756Z" transform="translate(-704.93 -615.508)" fill="#4b5182"/>
    <path id="Trazado_108260" data-name="Trazado 108260" d="M871.418,611.636s-2.366,2.637-2.287,1.858a5.841,5.841,0,0,0-.354-1.858c-.122-.38-.217-.651-.217-.651h0c.02-.037,2.576-3.663,2.483-2.528A14.148,14.148,0,0,0,871.418,611.636Z" transform="translate(-680.066 -476.237)" fill="#eea987"/>
    <path id="Trazado_108261" data-name="Trazado 108261" d="M874.5,695.838s-1.04,3.624-.868,4.267a23.506,23.506,0,0,0,2.2,3.34c.326.473,5.506,8.6,5.564,8.739s2.984-.569,3.1-1.191c0,0-4.1-8.42-5.076-9.531a4.239,4.239,0,0,1-1.046-3.553c.156-1.287,2.06-5.456,1.767-7.162S874.675,694.028,874.5,695.838Z" transform="translate(-684.022 -540.567)" fill="#f2c344"/>
    <path id="Trazado_108262" data-name="Trazado 108262" d="M839.6,688.877s-6.984,5.293-7.774,6.374.1,2.691.217,3.218,4.827,10.946,4.885,11.854c0,0,3.16.263,3.715-.434,0,0-3.438-9.89-3.935-11.587s1.213-2.107,2.587-2.721,7.409-4.156,7.758-5.486a3.972,3.972,0,0,0,0-2.133S845.373,686.87,839.6,688.877Z" transform="translate(-651.053 -538.428)" fill="#f2c344"/>
    <path id="Trazado_108263" data-name="Trazado 108263" d="M850.489,612.562s-4.685-1.636-4.6-2.652,4.193-6.04,4.193-6.04l1.391.907-2,5.241,3.548,1.337Z" transform="translate(-662.312 -472.818)" fill="#22243b"/>
    <path id="Trazado_108264" data-name="Trazado 108264" d="M871.67,618.43a8.6,8.6,0,0,1-.549-1.33,22.944,22.944,0,0,0-2.591,2.3,4.62,4.62,0,0,1,.039,1.209Z" transform="translate(-680.043 -483.177)" fill="#323657"/>
    <path id="Trazado_108265" data-name="Trazado 108265" d="M865.54,623.019a1.252,1.252,0,0,0-1.189.234c-.72.469-3.2,2.951-3.65,3.106,0,0,1.068,4.646,1.126,5.875s.868,7.656.4,8.464c0,0,1.8-.49,4.015-1.224a25.068,25.068,0,0,0,4.455-2.059,37.657,37.657,0,0,1-1.736-5.106C868.795,631.022,867.493,624.585,865.54,623.019Z" transform="translate(-673.912 -487.765)" fill="#323657"/>
    <path id="Trazado_108266" data-name="Trazado 108266" d="M853.661,602.016a2.122,2.122,0,0,1-.434-1.33c-.065-1.011-.03-.651-.03-.651Z" transform="translate(-668.03 -469.766)" fill="#eea987"/>
    <path id="Trazado_108267" data-name="Trazado 108267" d="M855.829,601.823a5.7,5.7,0,0,0-1.723-.59,2.59,2.59,0,0,0-1.228.434s-.26-.935-.039-1.3S855.829,601.823,855.829,601.823Z" transform="translate(-667.687 -470.035)" fill="#5c5c5c"/>
    <path id="Trazado_108268" data-name="Trazado 108268" d="M870.219,612.46a4.312,4.312,0,0,1-1.432,2.48h0c-.122-.38-.217-.651-.217-.651h0A4.164,4.164,0,0,0,870.219,612.46Z" transform="translate(-680.074 -479.544)" fill="#a87860"/>
    <path id="Trazado_108269" data-name="Trazado 108269" d="M854.062,594.306s-.77,2.29-.846,2.821-1.656-.5-1.656-.5a22.78,22.78,0,0,0,.868-2.891C852.578,592.8,854.062,594.306,854.062,594.306Z" transform="translate(-666.756 -464.645)" fill="#efaa88"/>
    <path id="Trazado_108270" data-name="Trazado 108270" d="M849.136,605.927a1.828,1.828,0,0,0-1.482-1.378,41.928,41.928,0,0,1-4.848-.28c-.134-.239,1.461-6.626,1.461-6.626a10.144,10.144,0,0,0-2.17-.623s-3.587,9.475-3.162,9.766c1.547,1.037,8.438,1.3,8.438,1.3s1.452-.339,1.736-1.3A1.841,1.841,0,0,0,849.136,605.927Z" transform="translate(-656.842 -467.455)" fill="#323657"/>
    <path id="Trazado_108271" data-name="Trazado 108271" d="M856.606,581.768a1.22,1.22,0,0,0-.254.289s-.078.217-.143.378a1.062,1.062,0,0,1-.054.117,2.246,2.246,0,0,0-.315.632c-.078.3-.25,1.4-.25,1.4l.911.31.716.256a9.928,9.928,0,0,0,1.452-1.367.38.38,0,0,1,.026-.08,2.848,2.848,0,0,0,.037-.577c0-.05.05-.532-.054-.632a.467.467,0,0,0-.434-.152,1.136,1.136,0,0,0-.558-.278.7.7,0,0,0-.595-.174S856.8,581.668,856.606,581.768Z" transform="translate(-669.911 -455.493)" fill="#efaa88"/>
    <path id="Trazado_108272" data-name="Trazado 108272" d="M854.321,590.729s-.3,1.428.091,1.519c.319.076.091,1.461.074,1.68s.593.193.753.284.985,1.545,1.467,1.45a7.358,7.358,0,0,0,2.771-2.231,6.979,6.979,0,0,0-.668-4.636C858.084,587.771,854.848,588.223,854.321,590.729Z" transform="translate(-668.833 -460.615)" fill="#eea886"/>
    <path id="Trazado_108273" data-name="Trazado 108273" d="M853.358,589.428s-.5-.354-.2-1.971c.345-1.864,3.787-.8,4.063-.812s2.034-.174,1.919,2.4c-.122,2.763-.252,2.711-.252,2.711s-.595-1.467-1.085-1.437c-.534.035-1.393.169-1.393.169s.089-1.283-.638-1.241S853.966,588.968,853.358,589.428Z" transform="translate(-667.933 -459.103)" fill="#323657"/>
    <path id="Trazado_108274" data-name="Trazado 108274" d="M869.938,602.708c0-.145-.032-.794.467-.846s.564.74.328,1.283S869.975,603.517,869.938,602.708Z" transform="translate(-681.145 -471.243)" fill="#eea886"/>
    <path id="Trazado_108275" data-name="Trazado 108275" d="M17.6,560.48h9.818v8.613l-1.5-1.5H17.6Z" transform="translate(-13.78 -438.844)" fill="#ffce55"/>
    <path id="Trazado_108276" data-name="Trazado 108276" d="M110.833,739.524,108.86,726.4l.38-.059,1.975,13.125Z" transform="translate(-85.235 -568.71)" fill="#5c5049"/>
    <path id="Trazado_108277" data-name="Trazado 108277" d="M99.725,739.524,97.75,726.4l.382-.059,1.973,13.125Z" transform="translate(-76.536 -568.71)" fill="#5c5049"/>
    <path id="Trazado_108278" data-name="Trazado 108278" d="M50.78,739.524l-.38-.059,1.973-13.125.38.059Z" transform="translate(-39.462 -568.71)" fill="#5c5049"/>
    <path id="Trazado_108279" data-name="Trazado 108279" d="M92.77,667.484l1.545-16.276a31.071,31.071,0,0,0-4.34-.267L87.52,667.484Z" transform="translate(-68.527 -509.663)" fill="#fab46c"/>
    <rect id="Rectángulo_31378" data-name="Rectángulo 31378" width="5.248" height="0.827" transform="translate(18.993 156.994)" fill="#fab46c"/>
    <path id="Trazado_108280" data-name="Trazado 108280" d="M68.748,666.931l-.818-15.5s6.843-.744,11.046-.1Z" transform="translate(-53.188 -509.772)" fill="#fab46c"/>
    <path id="Trazado_108281" data-name="Trazado 108281" d="M72.925,613.782s1.057-3.1-.961-4.06a3.118,3.118,0,0,0-4.052,1.181,5.37,5.37,0,0,0,.039,3.071c.276.953.234,2.4-.365,2.889a3.373,3.373,0,0,0-1.3,2.93c.022,1.018,4-2.6,4-2.6Z" transform="translate(-51.898 -477.144)" fill="#fccca2"/>
    <path id="Trazado_108282" data-name="Trazado 108282" d="M81.585,770.667s-.063,2.19.25,2.322,1.5-.631,2.018-1.385-.651-2.507-.846-3.472c-.08-.406-1-1.133-1.45-.924a2.189,2.189,0,0,0-.777.742A2.671,2.671,0,0,1,81.585,770.667Z" transform="translate(-63.249 -600.679)" fill="#d4c3bd"/>
    <path id="Trazado_108283" data-name="Trazado 108283" d="M80.78,768.082a12.167,12.167,0,0,1,.588,1.328c.2.579.239,2.185.365,2.3s1.118-.391,1.25-.99a4.428,4.428,0,0,0-.651-2.433,3.925,3.925,0,0,0-.773-.946A1,1,0,0,0,80.78,768.082Z" transform="translate(-63.249 -600.812)" fill="#de9673"/>
    <path id="Trazado_108284" data-name="Trazado 108284" d="M91.04,771.6l1.066,1.556-.2.137-.825-1.2Z" transform="translate(-71.283 -604.147)" fill="#d4c3bd"/>
    <path id="Trazado_108285" data-name="Trazado 108285" d="M58.929,690.244a1.443,1.443,0,0,1,0,1.519c-.521.651-4.026,2.4-4,3.418a8.806,8.806,0,0,0,.9,3.012c.232.408,1.085,2.079,1.519,3.06s3,5.671,3.5,6.728.193-4.23.193-4.23l-2.554-7.5,5.975-5.82S63.736,688.826,58.929,690.244Z" transform="translate(-43.009 -539.99)" fill="#de9673"/>
    <path id="Trazado_108286" data-name="Trazado 108286" d="M67.834,646.283a11.55,11.55,0,0,0-2.316.751c-.658.384-2.118,2.157-2.118,2.915s6.389,1.471,6.389,1.471L71,655.84s3.229-.79,3.613-1.441-1.272-5.306-1.5-6.293-1.439-1.641-2.784-1.83A9.225,9.225,0,0,0,67.834,646.283Z" transform="translate(-49.641 -505.958)" fill="#ffd255"/>
    <path id="Trazado_108287" data-name="Trazado 108287" d="M75.81,693s-.115.755.193,1.085,1.723,2.188.974,4.023a2.31,2.31,0,0,1-2.025,1.654H72.885a22.1,22.1,0,0,1,.406,5.033c-.193,1.994-1.107,6.565-1.124,6.795s-.868.953-1.124.586c0,0-.024-2.747-.158-3.787s-.707-5.189-.881-5.81-1.191-2.478-1.191-2.672-.994-3.2,1.178-3.971S72.928,693.02,75.81,693Z" transform="translate(-53.7 -542.605)" fill="#eea886"/>
    <path id="Trazado_108288" data-name="Trazado 108288" d="M70.55,781.2s-1.426,1.665-1.265,1.953a3.3,3.3,0,0,0,2.439.193c.879-.258,1.068-2.359,1.519-3.234.191-.365-.065-1.519-.545-1.63a2.194,2.194,0,0,0-1.072.091A2.632,2.632,0,0,1,70.55,781.2Z" transform="translate(-54.239 -609.516)" fill="#e6d3cc"/>
    <path id="Trazado_108289" data-name="Trazado 108289" d="M74.6,778.3a11.918,11.918,0,0,1-.378,1.4c-.217.575-1.189,1.847-1.161,2.014a1.569,1.569,0,0,0,1.593.015,4.41,4.41,0,0,0,1.022-2.3,3.907,3.907,0,0,0,0-1.222A1,1,0,0,0,74.6,778.3Z" transform="translate(-57.202 -609.226)" fill="#eea886"/>
    <path id="Trazado_108290" data-name="Trazado 108290" d="M86.183,786.15l-.15,1.879-.243-.02.115-1.452Z" transform="translate(-67.172 -615.54)" fill="#e6d3cc"/>
    <path id="Trazado_108291" data-name="Trazado 108291" d="M66.255,695.5a2.235,2.235,0,0,1-2.025,1.654H62.162a4.1,4.1,0,0,0-2.975-1.6,6.225,6.225,0,0,0-1.593.037h-.022c-2.806.414-2.264,1.445-2.255,1.471a5,5,0,0,1-.419-1.953c.269-2.222,3.472-2.687,4-3.329a1.431,1.431,0,0,0,0-1.519c4.807-1.417,5.53.191,5.53.191.217-.028.751-.341.981-.341,0,0,.241.525.41,1C65.968,691.527,66.96,693.655,66.255,695.5Z" transform="translate(-42.977 -540.005)" fill="#323657"/>
    <path id="Trazado_108292" data-name="Trazado 108292" d="M64.29,660.17,65,666.783H55.64l-.71-6.613Z" transform="translate(-43.009 -516.9)" fill="#ded1c5"/>
    <rect id="Rectángulo_31379" data-name="Rectángulo 31379" width="1.563" height="0.595" transform="translate(21.175 149.288)" fill="#ded1c5"/>
    <rect id="Rectángulo_31380" data-name="Rectángulo 31380" width="29.816" height="0.901" transform="translate(6.181 149.883)" fill="#bc8551"/>
    <path id="Trazado_108293" data-name="Trazado 108293" d="M80.189,613.189s2.1.621,1.8,3.531-1.669,2.76-1.8,2.782-1.754.128-2.268-3.4S80.189,613.189,80.189,613.189Z" transform="translate(-60.961 -480.081)" fill="#eea886"/>
    <path id="Trazado_108294" data-name="Trazado 108294" d="M84.668,637.593a4.834,4.834,0,0,0,.074,1.565c.184.6-2.441.605-2.441.113a5.084,5.084,0,0,0,.017-1.986C82.066,636.326,84.668,637.593,84.668,637.593Z" transform="translate(-64.439 -498.701)" fill="#eea886"/>
    <path id="Trazado_108295" data-name="Trazado 108295" d="M79.1,613.792a6.285,6.285,0,0,0,2.339,2.233s.651-3.038-2.051-3.689-2.281,3.071-2.079,4.06a8.031,8.031,0,0,1,1.79-2.6Z" transform="translate(-60.416 -479.387)" fill="#fccca2"/>
    <path id="Trazado_108296" data-name="Trazado 108296" d="M83.82,640.53a1.419,1.419,0,0,0,1.89.091.846.846,0,0,1-.851.623A1.062,1.062,0,0,1,83.82,640.53Z" transform="translate(-65.629 -501.522)" fill="#a77860"/>
    <path id="Trazado_108297" data-name="Trazado 108297" d="M79.06,613.093s.6-1.161,1.615-1.213a2,2,0,0,1,1.615.827,1.721,1.721,0,0,0-1.615-.99C79.457,611.717,79.06,613.093,79.06,613.093Z" transform="translate(-61.902 -478.961)" fill="#23344a"/>
    <path id="Trazado_108298" data-name="Trazado 108298" d="M84.226,646.1s-.037,2.014-1.634,2.075-1.265-1.934-1.265-1.934A5.546,5.546,0,0,1,84.226,646.1Z" transform="translate(-63.655 -505.794)" fill="#eea886"/>
    <rect id="Rectángulo_31381" data-name="Rectángulo 31381" width="0.662" height="22.724" transform="translate(35.333 150.783)" fill="#807066"/>
    <rect id="Rectángulo_31382" data-name="Rectángulo 31382" width="0.662" height="22.724" transform="translate(6.181 150.783)" fill="#807066"/>
    <path id="Trazado_108299" data-name="Trazado 108299" d="M382.887,169.614a3.053,3.053,0,0,1-1.584-1.059,2.292,2.292,0,0,1-.464-1.886,13.932,13.932,0,0,0-.08-3.665,6.146,6.146,0,1,1,7.162,1.723,13.2,13.2,0,0,0-1.489,3.153,2.686,2.686,0,0,1-3.312,1.79A1.4,1.4,0,0,1,382.887,169.614Zm4.175-15.949a5.642,5.642,0,0,0-5.875,9.069l.046.054.011.072a14.5,14.5,0,0,1,.091,3.887v.02a1.786,1.786,0,0,0,.369,1.482,2.576,2.576,0,0,0,1.519.931,2.185,2.185,0,0,0,2.715-1.417v-.017a13.836,13.836,0,0,1,1.6-3.353l.041-.067.074-.03a5.642,5.642,0,0,0-.59-10.634Z" transform="translate(-297.019 -119.745)" fill="#ffd255"/>
    <path id="Trazado_108300" data-name="Trazado 108300" d="M392.51,195.019l.586-6.719,1.131,1.417,1.044-.764.547,1.037,1.5-.814-2.153,6.4-.475-.161,1.745-5.191-.827.449-.514-.972-.964.705-.645-.809-.477,5.465Z" transform="translate(-307.328 -147.434)" fill="#ffd255"/>
    <rect id="Rectángulo_31383" data-name="Rectángulo 31383" width="4.358" height="1.756" transform="translate(84.087 48.871) rotate(12.23)" fill="#ffd255"/>
    <rect id="Rectángulo_31384" data-name="Rectángulo 31384" width="5.76" height="2.828" transform="translate(83.781 46.968) rotate(12.23)" fill="#ffd255"/>
    <path id="Trazado_108301" data-name="Trazado 108301" d="M34.844,337.452l-.3-.1,2.548-7.416,5.69-1.576,1.958-8.13,4.384-1.994.914-6.313.319.046-.94,6.487-4.4,2-1.964,8.162-5.712,1.58Z" transform="translate(-27.044 -244.227)" fill="#ffd078"/>
    <path id="Trazado_108302" data-name="Trazado 108302" d="M70.684,384.618a.855.855,0,1,1-.581-.3A.857.857,0,0,1,70.684,384.618Z" transform="translate(-54.158 -300.906)" fill="#fff"/>
    <path id="Trazado_108303" data-name="Trazado 108303" d="M70.1,385.363a1.018,1.018,0,1,1,.128-1.432,1.018,1.018,0,0,1-.128,1.432ZM69,384.05a.7.7,0,1,0,.981.087A.7.7,0,0,0,69,384.05Z" transform="translate(-53.578 -300.323)" fill="#ffd078"/>
    <path id="Trazado_108304" data-name="Trazado 108304" d="M79.794,347.316a.868.868,0,1,1-1.207-.106.857.857,0,0,1,1.207.106Z" transform="translate(-61.283 -271.701)" fill="#fff"/>
    <path id="Trazado_108305" data-name="Trazado 108305" d="M79.249,348.063a1.018,1.018,0,1,1,.126-1.434A1.018,1.018,0,0,1,79.249,348.063Zm-1.1-1.315a.7.7,0,1,0,.981.087A.7.7,0,0,0,78.149,346.748Z" transform="translate(-60.742 -271.118)" fill="#ffd078"/>
    <path id="Trazado_108306" data-name="Trazado 108306" d="M99.674,337.9a.868.868,0,1,1-1.207-.106A.857.857,0,0,1,99.674,337.9Z" transform="translate(-76.848 -264.325)" fill="#fff"/>
    <path id="Trazado_108307" data-name="Trazado 108307" d="M99.125,338.616a1.018,1.018,0,1,1,.126-1.432A1.018,1.018,0,0,1,99.125,338.616Zm-1.1-1.313a.695.695,0,1,0,.509-.16A.7.7,0,0,0,98.025,337.3Z" transform="translate(-76.304 -263.722)" fill="#ffd078"/>
    <path id="Trazado_108308" data-name="Trazado 108308" d="M44.494,392.226a.868.868,0,1,1-1.207-.106A.857.857,0,0,1,44.494,392.226Z" transform="translate(-33.643 -306.865)" fill="#fff"/>
    <path id="Trazado_108309" data-name="Trazado 108309" d="M43.97,392.973a1.018,1.018,0,1,1,.128-1.432,1.018,1.018,0,0,1-.128,1.432Zm-1.1-1.3a.495.495,0,1,0,0-.011Z" transform="translate(-33.119 -306.281)" fill="#ffd078"/>
    <rect id="Rectángulo_31385" data-name="Rectángulo 31385" width="13.785" height="0.966" transform="translate(187.478 72.724) rotate(180)" fill="#ffd887"/>
    <rect id="Rectángulo_31386" data-name="Rectángulo 31386" width="13.785" height="4.063" transform="translate(187.478 77.642) rotate(180)" fill="#ffd887"/>
    <rect id="Rectángulo_31387" data-name="Rectángulo 31387" width="8.134" height="0.608" transform="translate(175.351 79.614) rotate(180)" fill="#ffd887"/>
    <rect id="Rectángulo_31388" data-name="Rectángulo 31388" width="8.134" height="1.645" transform="translate(175.351 81.524) rotate(180)" fill="#ffd887"/>
    <rect id="Rectángulo_31389" data-name="Rectángulo 31389" width="0.608" height="11.383" transform="translate(190.351 77.932) rotate(180)" fill="#ffd989"/>
    <path id="Trazado_108310" data-name="Trazado 108310" d="M838.624,468.055,828.7,462.5l3.412-.224Z" transform="translate(-648.857 -361.956)" fill="#d6d6d6"/>
    <path id="Trazado_108311" data-name="Trazado 108311" d="M854.167,470.921l-3.053-4.913-2.563-.067Z" transform="translate(-664.399 -364.821)" fill="#e8e8e8"/>
    <path id="Trazado_108312" data-name="Trazado 108312" d="M838.5,469.2l-.2,1.25,7.841,3.023Z" transform="translate(-656.373 -367.374)" fill="#c2c2c2"/>
    <path id="Trazado_108313" data-name="Trazado 108313" d="M84.793,416.6a29.849,29.849,0,0,1-.237-3.984v-.779l.783.017v.762a29.5,29.5,0,0,0,.217,3.869Zm.97-9.38-.773-.115a27.372,27.372,0,0,1,1.155-4.627l.74.258A26.692,26.692,0,0,0,85.764,407.218Zm160.609-3.531a14.844,14.844,0,0,0-3.2-2.487l.412-.668a15.824,15.824,0,0,1,3.375,2.637Zm-67.534-2.424v-.783c1.571,0,3.147-.043,4.683-.115l.037.783C182.007,401.222,180.418,401.259,178.839,401.263Zm-4.718-.091c-1.536-.061-3.121-.156-4.709-.28l.061-.783c1.578.126,3.153.217,4.679.28Zm14.143-.362-.074-.779c1.554-.148,3.119-.336,4.649-.56l.113.775C191.408,400.473,189.831,400.664,188.264,400.81Zm-23.549-.369c-1.519-.171-3.086-.373-4.675-.6l.111-.775c1.582.217,3.147.434,4.653.6Zm32.889-.992-.152-.768c1.124-.217,2.257-.469,3.372-.731q.61-.148,1.209-.282l.174.766q-.595.132-1.2.278c-1.115.267-2.268.514-3.4.738Zm41.433-.33a36.622,36.622,0,0,0-4.412-1.465l.2-.751a36.812,36.812,0,0,1,4.507,1.5Zm-83.654,0c-1.493-.25-3.01-.521-4.636-.827l.145-.77c1.621.3,3.134.575,4.62.825Zm-66.516-.545-.651-.419a17.432,17.432,0,0,1,3.079-3.672l.525.584a16.611,16.611,0,0,0-2.954,3.5ZM206.8,397.5l-.141-.77c1.576-.286,3.147-.532,4.666-.731l.1.777c-1.508.193-3.073.436-4.627.718Zm-60.672-.117q-2.313-.482-4.616-.966l.163-.766q2.287.486,4.6.957Zm83.928-.675c-1.487-.23-3.038-.4-4.638-.5l.05-.781c1.612.1,3.2.276,4.707.508Zm-13.98-.421-.059-.781c1.6-.119,3.192-.189,4.722-.2v.783c-1.5.015-3.069.085-4.655.2Zm-79.164-.855-4.6-.983.163-.766q2.292.486,4.6.983Zm-9.2-1.936c-1.658-.334-3.166-.627-4.609-.894l.143-.77c1.448.267,2.96.56,4.622.9Zm-32.119-.977-.341-.705a20.3,20.3,0,0,1,4.521-1.539l.167.766a19.518,19.518,0,0,0-4.332,1.478Zm22.88-.718c-1.6-.258-3.162-.484-4.64-.675l.1-.777c1.487.191,3.056.419,4.664.677Zm-9.282-1.194h-.061c-1.15-.1-2.274-.15-3.346-.154-.423,0-.836,0-1.241.022l-.03-.781c.417-.017.853-.024,1.274-.026,1.085,0,2.242.054,3.414.158h.059Z" transform="translate(-66.206 -305.103)" fill="#e0e0e0"/>
  </g>
</svg>
