<svg id="Grupo_58915" data-name="Grupo 58915" xmlns="http://www.w3.org/2000/svg" xmlns:xlink="http://www.w3.org/1999/xlink" width="190" height="177.601" viewBox="0 0 190 177.601">
  <defs>
    <clipPath id="clip-path">
      <rect id="Rectángulo_25716" data-name="Rectángulo 25716" width="190" height="177.601" fill="none"/>
    </clipPath>
  </defs>
  <g id="Grupo_25025" data-name="Grupo 25025" clip-path="url(#clip-path)">
    <path id="Trazado_65048" data-name="Trazado 65048" d="M140.6,130.484c-6.885-24.059.131-43.619.2-43.816l.335.211c-.07.194-7.016,19.578-.189,43.433Z" transform="translate(11.628 7.325)" fill="#d4edff"/>
    <path id="Trazado_65049" data-name="Trazado 65049" d="M140.478,87.6a6.7,6.7,0,0,1,.368-2.931c.2-.5.834-1.159,1.189-.914s.383,1.077.091,1.8a4.588,4.588,0,0,1-1.647,2.043" transform="translate(11.87 7.074)" fill="#d4edff"/>
    <path id="Trazado_65050" data-name="Trazado 65050" d="M139.87,89.818a4.658,4.658,0,0,1,1.44-1.913c.345-.239,1.075-.324,1.234.074a1.34,1.34,0,0,1-.654,1.373,2.963,2.963,0,0,1-2.02.466" transform="translate(11.822 7.412)" fill="#d4edff"/>
    <path id="Trazado_65051" data-name="Trazado 65051" d="M139.114,93.883a3.259,3.259,0,0,1,1.365-1.493.829.829,0,0,1,1.063.44,1.1,1.1,0,0,1-.652,1.185,2.216,2.216,0,0,1-1.776-.132" transform="translate(11.758 7.804)" fill="#d4edff"/>
    <path id="Trazado_65052" data-name="Trazado 65052" d="M140.149,89.765a2.621,2.621,0,0,1-1.555-1.1c-.212-.331-.355-1.145-.081-1.448s.767-.127,1.075.354a4.531,4.531,0,0,1,.562,2.2" transform="translate(11.694 7.359)" fill="#d4edff"/>
    <path id="Trazado_65053" data-name="Trazado 65053" d="M138.425,116.058a2.6,2.6,0,0,1-1.878-.318c-.323-.208-.76-.883-.613-1.278s.676-.45,1.145-.149a4.085,4.085,0,0,1,1.346,1.744" transform="translate(11.486 9.645)" fill="#d4edff"/>
    <path id="Trazado_65054" data-name="Trazado 65054" d="M139.086,93.943a3.642,3.642,0,0,1-1.81-1.446c-.26-.406-.475-1.357-.189-1.671s.845-.055,1.222.531a5.946,5.946,0,0,1,.777,2.585" transform="translate(11.575 7.665)" fill="#d4edff"/>
    <path id="Trazado_65055" data-name="Trazado 65055" d="M138.295,98.314a2.552,2.552,0,0,1-1.743-1.09,1.681,1.681,0,0,1-.005-1.634c.338-.371.9-.223,1.229.288a4.626,4.626,0,0,1,.52,2.436" transform="translate(11.523 8.062)" fill="#d4edff"/>
    <path id="Trazado_65056" data-name="Trazado 65056" d="M138.4,98.228a3.971,3.971,0,0,1,1.254-1.967.868.868,0,0,1,1.222.282,1.329,1.329,0,0,1-.525,1.471,2.348,2.348,0,0,1-1.951.215" transform="translate(11.698 8.124)" fill="#d4edff"/>
    <path id="Trazado_65057" data-name="Trazado 65057" d="M138.346,116.316a4.887,4.887,0,0,1,.585-2.357c.232-.411.888-.985,1.2-.817s.28.825-.057,1.423a5.127,5.127,0,0,1-1.732,1.75" transform="translate(11.693 9.56)" fill="#d4edff"/>
    <path id="Trazado_65058" data-name="Trazado 65058" d="M137.708,106.881a2.7,2.7,0,0,1,1.325-1.126c.33-.125,1.044-.118,1.223.156s-.1.658-.577.841a4.069,4.069,0,0,1-1.972.129" transform="translate(11.639 8.932)" fill="#d4edff"/>
    <path id="Trazado_65059" data-name="Trazado 65059" d="M137.834,102.909a2.383,2.383,0,0,1-1.357-2.549c.149-.292.492-.107.747.373a6.848,6.848,0,0,1,.609,2.176" transform="translate(11.53 8.47)" fill="#d4edff"/>
    <path id="Trazado_65060" data-name="Trazado 65060" d="M137.979,111.9a6.955,6.955,0,0,1,.454-2.494c.167-.349.626-.613.837-.2a2.238,2.238,0,0,1-.074,1.7,1.541,1.541,0,0,1-1.218.987" transform="translate(11.662 9.212)" fill="#d4edff"/>
    <path id="Trazado_65061" data-name="Trazado 65061" d="M137.994,107.149a4.842,4.842,0,0,1-2.25-1.08c-.323-.311-.6-1.054-.248-1.312s1.043-.073,1.514.38a3.43,3.43,0,0,1,.985,2.013" transform="translate(11.438 8.844)" fill="#d4edff"/>
    <path id="Trazado_65062" data-name="Trazado 65062" d="M138.036,112.064a4.235,4.235,0,0,1-2.069-1.031c-.284-.294-.484-1-.125-1.243a1.237,1.237,0,0,1,1.423.361,2.971,2.971,0,0,1,.771,1.913" transform="translate(11.465 9.27)" fill="#d4edff"/>
    <path id="Trazado_65063" data-name="Trazado 65063" d="M150.257,93.442a2.6,2.6,0,0,1-1.878-.318c-.323-.207-.76-.884-.614-1.279s.676-.45,1.145-.149a4.109,4.109,0,0,1,1.347,1.745" transform="translate(12.486 7.734)" fill="#d4edff"/>
    <path id="Trazado_65064" data-name="Trazado 65064" d="M139.807,124.233a4.882,4.882,0,0,1,.585-2.356c.232-.412.888-.985,1.206-.817s.279.824-.056,1.422a5.122,5.122,0,0,1-1.734,1.75" transform="translate(11.816 10.229)" fill="#d4edff"/>
    <path id="Trazado_65065" data-name="Trazado 65065" d="M138.919,120.307a3.848,3.848,0,0,1,.694-1.858c.233-.329.855-.8,1.119-.682s.181.634-.161,1.113a5.26,5.26,0,0,1-1.653,1.427" transform="translate(11.741 9.952)" fill="#d4edff"/>
    <path id="Trazado_65066" data-name="Trazado 65066" d="M141.715,102.454a6.067,6.067,0,0,1,1.08-2.026c.245-.256.73-.359.809.057a1.956,1.956,0,0,1-.527,1.449,1.468,1.468,0,0,1-1.362.519" transform="translate(11.978 8.469)" fill="#d4edff"/>
    <path id="Trazado_65067" data-name="Trazado 65067" d="M140.005,124.321a4.54,4.54,0,0,1-2.335-.7c-.351-.254-.7-.947-.375-1.261a1.31,1.31,0,0,1,1.539.126,3.167,3.167,0,0,1,1.171,1.834" transform="translate(11.593 10.325)" fill="#d4edff"/>
    <path id="Trazado_65068" data-name="Trazado 65068" d="M139.084,120.36a3.642,3.642,0,0,1-2.027-.657c-.284-.236-.5-.88-.165-1.169a1.139,1.139,0,0,1,1.382.121,2.5,2.5,0,0,1,.81,1.7" transform="translate(11.555 10.003)" fill="#d4edff"/>
    <path id="Trazado_65069" data-name="Trazado 65069" d="M137.822,103.187a5.048,5.048,0,0,1,1.269-2.018c.341-.321,1.124-.694,1.36-.467s0,.818-.5,1.286a5.517,5.517,0,0,1-2.133,1.2" transform="translate(11.648 8.505)" fill="#d4edff"/>
    <path id="Trazado_65070" data-name="Trazado 65070" d="M39.97,123.76a2.031,2.031,0,0,1-1.548-.351,1.232,1.232,0,0,1-.411-1.156c.154-.345.6-.375.971-.093a3.431,3.431,0,0,1,.988,1.6" transform="translate(3.209 10.309)" fill="#8dcfff"/>
    <path id="Trazado_65071" data-name="Trazado 65071" d="M40.992,124.542a2.991,2.991,0,0,1-.733-1.5c-.05-.325.079-.945.346-1.016s.547.287.619.761a3.6,3.6,0,0,1-.232,1.756" transform="translate(3.402 10.313)" fill="#8dcfff"/>
    <path id="Trazado_65072" data-name="Trazado 65072" d="M42.112,125.7a3.626,3.626,0,0,1-.2-1.762c.056-.324.368-.82.633-.742s.409.554.329,1.026a2.938,2.938,0,0,1-.759,1.478" transform="translate(3.539 10.412)" fill="#8dcfff"/>
    <path id="Trazado_65073" data-name="Trazado 65073" d="M41.1,124.394a2.881,2.881,0,0,1-1,1.152c-.233.133-.707.149-.8-.118a.836.836,0,0,1,.472-.847,1.9,1.9,0,0,1,1.323-.187" transform="translate(3.32 10.51)" fill="#8dcfff"/>
    <path id="Trazado_65074" data-name="Trazado 65074" d="M42.29,125.414a2.818,2.818,0,0,1-.99,1.179c-.232.133-.71.137-.8-.145a.844.844,0,0,1,.462-.875,1.834,1.834,0,0,1,1.333-.158" transform="translate(3.421 10.595)" fill="#8dcfff"/>
    <path id="Trazado_65075" data-name="Trazado 65075" d="M43.678,127.192a2.011,2.011,0,0,1-.715,1.022.484.484,0,0,1-.655-.232.709.709,0,0,1,.311-.79,1.231,1.231,0,0,1,1.058,0" transform="translate(3.573 10.739)" fill="#8dcfff"/>
    <path id="Trazado_65076" data-name="Trazado 65076" d="M43.639,127.263a3.067,3.067,0,0,1-.278-1.378c.015-.269.2-.72.393-.7s.333.376.311.768a2.872,2.872,0,0,1-.426,1.311" transform="translate(3.665 10.58)" fill="#8dcfff"/>
    <path id="Trazado_65077" data-name="Trazado 65077" d="M51.282,133.322a.922.922,0,0,0,.2-.3l-.128-.084.064.041-.064-.042a.852.852,0,0,1-.634.482,2.942,2.942,0,0,1-2.114-.839,24.517,24.517,0,0,1-4.3-4.764,14.68,14.68,0,0,0-4.192-4.093c-.23-.151-.428-.28-.589-.41l-.075.158c.165.134.367.267.6.42a14.5,14.5,0,0,1,4.153,4.055c3.712,5.019,5.611,5.847,6.55,5.657a1.016,1.016,0,0,0,.531-.284" transform="translate(3.334 10.422)" fill="#8dcfff"/>
    <path id="Trazado_65078" data-name="Trazado 65078" d="M32.314,140.005c-.685-3.592,1.051-6.339,6.5-7.2a22.316,22.316,0,0,1,15.55,3.65C45,124.609,34.384,108.31,45.923,108.117c3.6-.06,8.607,4.12,13.988,10.328-5.381-11.993-7.972-21.609-3.682-22.762,3.986-1.074,10.611,8.981,17.374,22.054-3.461-10.663-5.1-19.786-2.49-23.641,2.133-3.147,5.327,1.212,8.666,8.945.583-6.333,2.361-9.97,5.258-8.808,2.724,1.092,4.109,8.7,4.663,17.673,4.363-13.231,12.507-20.6,19.191-15.517,7.852,5.965-2.921,37.639-8.6,52.625Z" transform="translate(2.719 7.866)" fill="#aed3f2"/>
    <path id="Trazado_65079" data-name="Trazado 65079" d="M153.879,128.355c-5.639,3.263-9.363,9.878-10.437,17.315,4.923,3.968,11.163,4.816,16.8,1.553s9.364-9.877,10.438-17.314c-4.924-3.968-11.164-4.816-16.8-1.554" transform="translate(12.123 10.679)" fill="#d9a171"/>
    <line id="Línea_183" data-name="Línea 183" x1="24.062" y2="13.922" transform="translate(156.561 141.716)" fill="none" stroke="#fff" stroke-miterlimit="10" stroke-width="0.35"/>
    <line id="Línea_184" data-name="Línea 184" x2="4.038" y2="2.495" transform="translate(175.671 144.626)" fill="none" stroke="#fff" stroke-miterlimit="10" stroke-width="0.35"/>
    <line id="Línea_185" data-name="Línea 185" x2="4.976" y2="3.076" transform="translate(171.57 147)" fill="none" stroke="#fff" stroke-miterlimit="10" stroke-width="0.35"/>
    <line id="Línea_186" data-name="Línea 186" x2="8.318" y2="5.143" transform="translate(167.467 149.373)" fill="none" stroke="#fff" stroke-miterlimit="10" stroke-width="0.35"/>
    <line id="Línea_187" data-name="Línea 187" x2="8.093" y2="5.004" transform="translate(163.364 151.747)" fill="none" stroke="#fff" stroke-miterlimit="10" stroke-width="0.35"/>
    <line id="Línea_188" data-name="Línea 188" x2="4.506" y2="2.786" transform="translate(159.261 154.121)" fill="none" stroke="#fff" stroke-miterlimit="10" stroke-width="0.35"/>
    <line id="Línea_189" data-name="Línea 189" y1="5.589" x2="1.309" transform="translate(176.135 138.656)" fill="none" stroke="#fff" stroke-miterlimit="10" stroke-width="0.35"/>
    <line id="Línea_190" data-name="Línea 190" y1="8.714" x2="2.041" transform="translate(172.032 137.905)" fill="none" stroke="#fff" stroke-miterlimit="10" stroke-width="0.35"/>
    <line id="Línea_191" data-name="Línea 191" y1="10.908" x2="2.555" transform="translate(167.93 138.085)" fill="none" stroke="#fff" stroke-miterlimit="10" stroke-width="0.35"/>
    <line id="Línea_192" data-name="Línea 192" y1="11.205" x2="2.625" transform="translate(163.828 140.162)" fill="none" stroke="#fff" stroke-miterlimit="10" stroke-width="0.35"/>
    <line id="Línea_193" data-name="Línea 193" y1="9.625" x2="2.255" transform="translate(159.725 144.115)" fill="none" stroke="#fff" stroke-miterlimit="10" stroke-width="0.35"/>
    <path id="Trazado_65080" data-name="Trazado 65080" d="M136.539,127.021a33.127,33.127,0,0,0-2.152,24.209c6.386-.007,12.63-3.945,16.491-11.3a33.13,33.13,0,0,0,2.152-24.21c-6.386.008-12.63,3.947-16.491,11.3" transform="translate(11.245 9.781)" fill="#d9a171"/>
    <line id="Línea_194" data-name="Línea 194" x1="16.467" y2="31.359" transform="translate(146.253 128.228)" fill="none" stroke="#fff" stroke-miterlimit="10" stroke-width="0.387"/>
    <line id="Línea_195" data-name="Línea 195" y1="0.718" x2="4.902" transform="translate(159.353 134.004)" fill="none" stroke="#fff" stroke-miterlimit="10" stroke-width="0.387"/>
    <line id="Línea_196" data-name="Línea 196" y1="0.884" x2="6.042" transform="translate(156.545 139.185)" fill="none" stroke="#fff" stroke-miterlimit="10" stroke-width="0.387"/>
    <line id="Línea_197" data-name="Línea 197" y1="1.479" x2="10.1" transform="translate(153.738 143.937)" fill="none" stroke="#fff" stroke-miterlimit="10" stroke-width="0.387"/>
    <line id="Línea_198" data-name="Línea 198" y1="1.437" x2="9.827" transform="translate(150.929 149.326)" fill="none" stroke="#fff" stroke-miterlimit="10" stroke-width="0.387"/>
    <line id="Línea_199" data-name="Línea 199" y1="0.8" x2="5.471" transform="translate(148.122 155.31)" fill="none" stroke="#fff" stroke-miterlimit="10" stroke-width="0.387"/>
    <line id="Línea_200" data-name="Línea 200" x1="1.243" y1="6.25" transform="translate(158.377 127.762)" fill="none" stroke="#fff" stroke-miterlimit="10" stroke-width="0.387"/>
    <line id="Línea_201" data-name="Línea 201" x1="1.938" y1="9.744" transform="translate(154.875 129.614)" fill="none" stroke="#fff" stroke-miterlimit="10" stroke-width="0.387"/>
    <line id="Línea_202" data-name="Línea 202" x1="2.425" y1="12.2" transform="translate(151.579 132.508)" fill="none" stroke="#fff" stroke-miterlimit="10" stroke-width="0.387"/>
    <line id="Línea_203" data-name="Línea 203" x1="2.492" y1="12.531" transform="translate(148.706 137.523)" fill="none" stroke="#fff" stroke-miterlimit="10" stroke-width="0.387"/>
    <line id="Línea_204" data-name="Línea 204" x1="2.14" y1="10.764" transform="translate(146.249 144.637)" fill="none" stroke="#fff" stroke-miterlimit="10" stroke-width="0.387"/>
    <path id="Trazado_65081" data-name="Trazado 65081" d="M149.323,140.548c-12.267-.171-50.278-.915-73.346-3.088-42.774-4.028-77.711,2.626-54.762,10.228,6.413,2.125-12.084,14.857,33.194,17.737,39.747,2.529,80.264-2.871,99.873-5.188s28.659-6.436,32.861-8.291c3.695-1.632,5.059-10.8-37.82-11.4" transform="translate(1.178 11.515)" fill="#f2e9e4"/>
    <path id="Trazado_65082" data-name="Trazado 65082" d="M146.76,106.417a6.514,6.514,0,0,1,.116-3.078c.177-.53.818-1.25,1.239-1.012s.537,1.105.282,1.875a4.554,4.554,0,0,1-1.637,2.215" transform="translate(12.393 8.645)" fill="#8dcfff"/>
    <path id="Trazado_65083" data-name="Trazado 65083" d="M146.132,108.548a3.758,3.758,0,0,1,1.569-1.7c.361-.157,1.088-.018,1.217.488a1.252,1.252,0,0,1-.749,1.346,2.56,2.56,0,0,1-2.037-.131" transform="translate(12.351 9.025)" fill="#8dcfff"/>
    <path id="Trazado_65084" data-name="Trazado 65084" d="M145.024,110.936a2.775,2.775,0,0,1,1.964-.715,1.233,1.233,0,0,1,.959,1.1.954.954,0,0,1-1.1.827,3.166,3.166,0,0,1-1.819-1.208" transform="translate(12.257 9.314)" fill="#8dcfff"/>
    <path id="Trazado_65085" data-name="Trazado 65085" d="M146.216,108.721a4.1,4.1,0,0,1-1.49-1.735c-.194-.428-.3-1.348-.012-1.57s.766.14,1.049.762a6.083,6.083,0,0,1,.453,2.543" transform="translate(12.216 8.904)" fill="#8dcfff"/>
    <path id="Trazado_65086" data-name="Trazado 65086" d="M145.278,111.232a3.894,3.894,0,0,1-1.519-1.712c-.2-.428-.285-1.359.017-1.594s.8.117,1.078.741a5.9,5.9,0,0,1,.424,2.566" transform="translate(12.135 9.115)" fill="#8dcfff"/>
    <path id="Trazado_65087" data-name="Trazado 65087" d="M143.5,114.264a2.419,2.419,0,0,1-1.291-1.2c-.149-.329-.158-1.085.143-1.32s.739-.011.954.464a3.984,3.984,0,0,1,.193,2.059" transform="translate(12.011 9.436)" fill="#8dcfff"/>
    <path id="Trazado_65088" data-name="Trazado 65088" d="M143.493,114.2a2.568,2.568,0,0,1,1.514-.792c.309-.022.854.253.867.636a.815.815,0,0,1-.814.747,2.416,2.416,0,0,1-1.566-.591" transform="translate(12.128 9.585)" fill="#8dcfff"/>
    <path id="Trazado_65089" data-name="Trazado 65089" d="M138.588,130.2a1.1,1.1,0,0,0,.373.338l.07-.264-.036.131.037-.13c-.02-.009-.47-.236-.663-1.15a8.8,8.8,0,0,1,.566-4.27,46.07,46.07,0,0,1,4.623-9.253,30.428,30.428,0,0,0,3.882-8.91c.128-.476.241-.887.358-1.222l-.194-.117c-.123.347-.234.764-.365,1.245a30.1,30.1,0,0,1-3.846,8.829c-5.02,8.146-5.613,11.995-5.226,13.79a2.444,2.444,0,0,0,.421.983" transform="translate(11.67 8.904)" fill="#8dcfff"/>
    <path id="Trazado_65090" data-name="Trazado 65090" d="M49.116,151.992c.733-1.477-.179-2.733-3.664-3.4a21.9,21.9,0,0,0-10.428.669c7.052-4.474,15.272-10.757,7.766-11.484-2.34-.226-5.939,1.257-9.942,3.576,4.465-4.759,6.921-8.671,4.217-9.4-2.512-.676-7.633,3.2-13.085,8.332,3.106-4.3,4.905-8.062,3.51-9.834-1.139-1.447-3.568.214-6.362,3.29.125-2.7-.743-4.338-2.724-4.011-1.863.308-3.372,3.438-4.45,7.195-1.787-5.825-6.508-9.388-11.27-7.62-5.594,2.078-1.1,16.044,1.4,22.684Z" transform="translate(0 10.891)" fill="#acd4f8"/>
    <path id="Trazado_65091" data-name="Trazado 65091" d="M18.666,147.553l-.255-.1c1.815-7.965,5.089-19.6,10.364-29.816a47.181,47.181,0,0,1,5.6-8.883l.174.264a47.064,47.064,0,0,0-5.56,8.83c-2.9,5.616-7.043,15.327-10.321,29.7" transform="translate(1.556 9.192)" fill="#acd4f8"/>
    <path id="Trazado_65092" data-name="Trazado 65092" d="M17.419,144.1l-.266-.028a99.786,99.786,0,0,1,7.481-30.986l.229.178A99.309,99.309,0,0,0,17.419,144.1" transform="translate(1.45 9.558)" fill="#acd4f8"/>
    <path id="Trazado_65093" data-name="Trazado 65093" d="M21.825,144.692l-.266-.03c.518-7.97,3.1-13.02,5.168-15.852a15.666,15.666,0,0,1,4.429-4.288l.1.322a15.39,15.39,0,0,0-4.348,4.22c-2.038,2.79-4.574,7.767-5.085,15.629" transform="translate(1.822 10.524)" fill="#acd4f8"/>
    <path id="Trazado_65094" data-name="Trazado 65094" d="M34.629,106.972c1.743,1.606,2.754,3.659,2.256,4.584s-2.313.372-4.056-1.235-2.754-3.659-2.256-4.584,2.313-.371,4.056,1.235" transform="translate(2.573 8.899)" fill="#acd4f8"/>
    <path id="Trazado_65095" data-name="Trazado 65095" d="M33.84,107.937c.553.51.874,1.162.717,1.455s-.735.118-1.288-.392-.874-1.163-.717-1.457.735-.118,1.288.393" transform="translate(2.748 9.077)" fill="#0063cb"/>
    <path id="Trazado_65096" data-name="Trazado 65096" d="M24.747,112.373c.726.669,1.146,1.524.939,1.909s-.963.155-1.689-.513-1.146-1.525-.939-1.91.963-.155,1.689.514" transform="translate(1.944 9.438)" fill="#acd4f8"/>
    <path id="Trazado_65097" data-name="Trazado 65097" d="M24.418,112.773c.231.213.364.484.3.606s-.3.049-.536-.163-.364-.484-.3-.606.306-.05.536.163" transform="translate(2.017 9.513)" fill="#0063cb"/>
    <path id="Trazado_65098" data-name="Trazado 65098" d="M31.215,124.139c.731,1.153,1.036,2.4.679,2.789s-1.239-.232-1.969-1.384-1.036-2.4-.679-2.79,1.239.232,1.969,1.385" transform="translate(2.459 10.365)" fill="#acd4f8"/>
    <path id="Trazado_65099" data-name="Trazado 65099" d="M30.7,124.5c.231.365.329.764.215.886s-.393-.074-.626-.439-.329-.764-.215-.886.394.074.626.439" transform="translate(2.538 10.482)" fill="#0063cb"/>
    <path id="Trazado_65100" data-name="Trazado 65100" d="M26.025,141.232c.029-.031.061-.061.091-.089l-.048-.023c-.419-.215-.689-.62-.6-.907s.495-.344.911-.129a1.189,1.189,0,0,1,.1.06c0-.022-.007-.043-.009-.066-.067-.581.066-1.09.3-1.137s.474.389.541.971c.007.05.01.1.013.147.013-.014.026-.03.039-.043.35-.367.754-.47.9-.229s-.02.732-.371,1.1c-.03.033-.061.061-.091.088.015.009.031.015.048.023.418.215.688.62.6.907s-.493.345-.911.13a.9.9,0,0,1-.1-.061c0,.023.007.044.009.066.067.582-.067,1.09-.3,1.137s-.475-.388-.542-.97c-.007-.05-.01-.1-.012-.148l-.039.043c-.35.367-.754.47-.9.23s.02-.732.37-1.1m1,.4a.573.573,0,0,0,.369-.655c-.037-.316-.261-.531-.5-.484a.575.575,0,0,0-.369.656c.037.313.26.53.5.483" transform="translate(2.151 11.743)" fill="#fff"/>
    <path id="Trazado_65101" data-name="Trazado 65101" d="M113.352,50.818,127.3,34.872l42.541,37.211-37.211,42.536L116.11,100.172a3.009,3.009,0,0,1-.147-.351c0-.014-.009-.029-.013-.049a2.608,2.608,0,0,1-.089-.351.259.259,0,0,1,0-.026,2.619,2.619,0,0,1-.024-.669c.005-.041,0-.076.005-.112.01-.074.028-.151.043-.221s.034-.163.056-.241a1.353,1.353,0,0,1,.068-.185,2.591,2.591,0,0,1,.121-.275c.028-.051.05-.1.079-.144a2.79,2.79,0,0,1,.282-.393,2.737,2.737,0,0,1,2.2-.921,9.267,9.267,0,1,0-8.516-7.45,2.759,2.759,0,0,1-.62,2.3,2.631,2.631,0,0,1-.351.329c-.043.035-.086.065-.132.1-.085.06-.171.112-.257.162-.06.033-.115.06-.175.087-.077.035-.153.065-.23.093s-.144.052-.215.069c-.036.013-.076.012-.113.022a2.51,2.51,0,0,1-.662.063.132.132,0,0,1-.029,0c-.119-.005-.24-.02-.364-.037l-.049-.01a3.247,3.247,0,0,1-.36-.094L90.089,77.412l13.949-15.951a2.725,2.725,0,0,0-2.722-4.262,9.266,9.266,0,1,1,7.442-8.511,2.728,2.728,0,0,0,4.594,2.13" transform="translate(7.614 2.947)" fill="#6595bf"/>
    <path id="Trazado_65102" data-name="Trazado 65102" d="M73.156,103.4,59.209,119.345,16.669,82.136,53.88,39.6,70.4,54.047a2.92,2.92,0,0,1,.147.35c0,.015.009.03.013.049a2.6,2.6,0,0,1,.089.354c0,.008,0,.016.005.025a2.665,2.665,0,0,1,.022.669c0,.04,0,.076,0,.112-.01.073-.028.15-.044.221s-.033.164-.055.242a1.452,1.452,0,0,1-.068.184,2.391,2.391,0,0,1-.121.274c-.028.053-.05.1-.079.144a2.613,2.613,0,0,1-.282.393,2.738,2.738,0,0,1-2.2.922,9.265,9.265,0,1,0,8.517,7.45,2.755,2.755,0,0,1,.619-2.3,2.645,2.645,0,0,1,.351-.33c.043-.034.086-.064.132-.1.085-.059.171-.113.257-.163.06-.031.115-.06.175-.087.077-.035.153-.065.23-.093s.144-.051.215-.069c.035-.012.076-.011.113-.022a2.5,2.5,0,0,1,.662-.062.132.132,0,0,1,.029,0,3.569,3.569,0,0,1,.364.036.145.145,0,0,0,.049.01,3.682,3.682,0,0,1,.361.1L96.419,76.807,82.47,92.759a2.726,2.726,0,0,0,2.722,4.261,9.265,9.265,0,1,1-7.442,8.51,2.729,2.729,0,0,0-4.594-2.13" transform="translate(1.409 3.347)" fill="#e9f6ff"/>
    <path id="Trazado_65103" data-name="Trazado 65103" d="M49.951,104.83l13.983,15.834-1.971,4.662a30.162,30.162,0,0,1-9.665-6.7c-4.4-4.628-2.347-13.8-2.347-13.8" transform="translate(4.181 8.86)" fill="#5e6178"/>
    <path id="Trazado_65104" data-name="Trazado 65104" d="M49.613,112.145a10.392,10.392,0,0,0,2.974,3.674,33.215,33.215,0,0,0,11.155,5.3l.192-.453L49.951,104.83a24.494,24.494,0,0,0-.338,7.315" transform="translate(4.181 8.86)" fill="#5e6178"/>
    <path id="Trazado_65105" data-name="Trazado 65105" d="M63.548,143.814c-1.31-3.974-3.963-10.858-4.352-13.469a37.27,37.27,0,0,1-.384-8.308l4.617-2.3,3.025,23.709Z" transform="translate(4.964 10.12)" fill="#5e6178"/>
    <path id="Trazado_65106" data-name="Trazado 65106" d="M48.971,101.22l5.211,9.268-3.421,19.059-4.888-3.177a56.633,56.633,0,0,0-1.71-10.508c-1.954-7.819,4.808-14.643,4.808-14.643" transform="translate(3.703 8.555)" fill="#5e6178"/>
    <path id="Trazado_65107" data-name="Trazado 65107" d="M44.072,143c-.234-4.179.588-11.192.887-13.816.556-4.859,1.874-6.354,1.874-6.354l4.643.488L47.708,143.4Z" transform="translate(3.721 10.382)" fill="#5e6178"/>
    <path id="Trazado_65108" data-name="Trazado 65108" d="M45.3,140.63l-.675,1.915-.23,1.711.487.662.428.321.042.318,1.261,1.715a3.108,3.108,0,0,0,1.813.791c.284.033.18-.814.129-.955a13.987,13.987,0,0,0-.856-1.782l-.714-2.076-.739-2.542Z" transform="translate(3.753 11.886)" fill="#194866"/>
    <path id="Trazado_65109" data-name="Trazado 65109" d="M63.948,141.011l-.349.8-.151.881.151,1.37.749.047.551-.167.388.224a29.327,29.327,0,0,0,2.928.2c1.312-.068,2.018-.265,2.254-.539.131-.153-.5-.378-.706-.393a15.489,15.489,0,0,1-3.043-.719l-1.051-1-.251-.75Z" transform="translate(5.363 11.914)" fill="#163f59"/>
    <path id="Trazado_65110" data-name="Trazado 65110" d="M62.564,95.339s-1.875,1.872,3.694,7.534,6.626,4.193,6.626,4.193l1.73-1.008,1.372-5.783-2.722-.813-.3.326a1.1,1.1,0,0,1-.877-.416A52.9,52.9,0,0,1,67.3,93.81c-1.22-1.668-4.381,1.166-4.74,1.529" transform="translate(5.262 7.885)" fill="#e5ae85"/>
    <path id="Trazado_65111" data-name="Trazado 65111" d="M74.7,100.5s5.71.286,6.267-5.545c.166-1.735.589-.017.872,1.668s-.843,6.309-3.929,7.984-4.392,2.049-5.558,1.2S74.7,100.5,74.7,100.5" transform="translate(6.095 7.964)" fill="#e9d6b8"/>
    <path id="Trazado_65112" data-name="Trazado 65112" d="M70.414,100.8l.767-1.275.337-.491a1.175,1.175,0,0,0,.755.274l-.755.834-.7,1.154-.415,1.8Z" transform="translate(5.95 8.37)" fill="#9fc400"/>
    <path id="Trazado_65113" data-name="Trazado 65113" d="M80.844,97.164s-1.5-.742-1.6-1.208-.352-2.2-.352-2.2l-.023-.449s.48-.3.637.861.392.552.392.552l.26-1.114.425-1.345.114-.618s.037-.356.119-.434c.233-.223.317.037.317.037L80.9,93.689l.829-2.2s.154-.265.311-.241.118.117.118.117l-.355,2.7.555-1.088s.155-.256.311-.241.215.016.215.016l-1.562,4.481Z" transform="translate(6.666 7.701)" fill="#e9d6b8"/>
    <path id="Trazado_65114" data-name="Trazado 65114" d="M81.146,93.654l.673-1.515a1.341,1.341,0,0,1,.269-.488.218.218,0,0,1,.313-.005l-.792,2.382Z" transform="translate(6.858 7.74)" fill="#e9d6b8"/>
    <path id="Trazado_65115" data-name="Trazado 65115" d="M126.371,105.409l-11.755.069a1.627,1.627,0,0,0,.641,1.226,26.117,26.117,0,0,0,7.512,2.11,30.811,30.811,0,0,0,5.437-.127Z" transform="translate(9.687 8.909)" fill="#e9d6b8"/>
    <path id="Trazado_65116" data-name="Trazado 65116" d="M116.256,107.163l-1.437.062a5,5,0,0,1-1.486-.144,1.435,1.435,0,0,1-1.024-1.681,2.135,2.135,0,0,1,.331-1.151,1.336,1.336,0,0,1,1.462.364c.483.7,2.375,1.491,2.229,1.808a1.489,1.489,0,0,0-.075.742" transform="translate(9.492 8.804)" fill="#e9d6b8"/>
    <path id="Trazado_65117" data-name="Trazado 65117" d="M113.235,104.115l-1.6-.123-1.491-.046.108.317,1.054.181,1.458,1.064.156-.465Z" transform="translate(9.309 8.785)" fill="#e9d6b8"/>
    <path id="Trazado_65118" data-name="Trazado 65118" d="M111.335,104.937l-1.278.344.021.334,1.32-.113,1.366.359.164-.9Z" transform="translate(9.302 8.869)" fill="#e9d6b8"/>
    <path id="Trazado_65119" data-name="Trazado 65119" d="M110.257,106.111l1-.339.632-.318.767.14.1.753-.823-.178-1.391.224Z" transform="translate(9.319 8.913)" fill="#e9d6b8"/>
    <path id="Trazado_65120" data-name="Trazado 65120" d="M110.763,106.965l1.676-.906.537.137.1.512-.9.127-1.107.262Z" transform="translate(9.361 8.964)" fill="#e9d6b8"/>
    <path id="Trazado_65121" data-name="Trazado 65121" d="M117.044,106.479a1.944,1.944,0,0,1-1.365-.791s-1.332-1.836-1.826-1.884a3.877,3.877,0,0,1-1.3-.615s-.45-.073.08.678a3.788,3.788,0,0,0,.793.806,5.632,5.632,0,0,0,.692,1.579,6.279,6.279,0,0,0,2.692.59s.345-.36.236-.363" transform="translate(9.498 8.721)" fill="#e9d6b8"/>
    <path id="Trazado_65122" data-name="Trazado 65122" d="M130.4,104.508l-8.417,1-.336,3.3,5.07,1.493Z" transform="translate(10.281 8.833)" fill="#954f3f"/>
    <path id="Trazado_65123" data-name="Trazado 65123" d="M128.328,106.141s4.558-3.493,6.109-4.418a38.236,38.236,0,0,1,4.174-1.772,4.95,4.95,0,0,1,.827,2.549c-.472,2.874-3.255,4.9-3.255,4.9l-9.819,3.283-.614-2.08Z" transform="translate(10.628 8.448)" fill="#895a4c"/>
    <path id="Trazado_65124" data-name="Trazado 65124" d="M122.7,97.207l15.945,13.946-37.21,42.54L58.9,116.482,73.341,99.964a3,3,0,0,1,.351-.146c.015,0,.03-.009.05-.014a2.572,2.572,0,0,1,.352-.088.1.1,0,0,1,.025-.005,2.611,2.611,0,0,1,.668-.023c.041.005.077,0,.113.005.074.009.151.028.221.043s.163.034.241.056a1.364,1.364,0,0,1,.187.067,2.823,2.823,0,0,1,.274.123c.051.027.1.049.144.078a2.83,2.83,0,0,1,.392.282,2.736,2.736,0,0,1,.922,2.2,9.266,9.266,0,1,0,7.45-8.516,2.752,2.752,0,0,1-2.3-.62,2.568,2.568,0,0,1-.329-.351c-.035-.043-.065-.085-.1-.132-.06-.085-.112-.171-.163-.257-.031-.06-.06-.115-.086-.174-.036-.077-.065-.153-.093-.23s-.052-.145-.069-.216a.942.942,0,0,1-.022-.113,2.457,2.457,0,0,1-.063-.662.081.081,0,0,1,0-.028c.005-.12.02-.241.037-.364a.367.367,0,0,0,.01-.05,2.933,2.933,0,0,1,.1-.36L96.1,73.943l15.951,13.949a2.724,2.724,0,0,0,4.261-2.722,9.267,9.267,0,1,1,8.512,7.443,2.728,2.728,0,0,0-2.13,4.594" transform="translate(4.978 6.25)" fill="#5e6178"/>
    <path id="Trazado_65125" data-name="Trazado 65125" d="M138.493,100.24l-2.317-2.388-3.088.653,1.324,2.575,1.579,1.885Z" transform="translate(11.248 8.27)" fill="#e9d6b8"/>
    <path id="Trazado_65126" data-name="Trazado 65126" d="M130.177,96.062a1.19,1.19,0,0,0,1.448.86l4.364-1.1a1.192,1.192,0,0,0-.587-2.311l-4.362,1.106a1.193,1.193,0,0,0-.863,1.449" transform="translate(10.999 7.9)" fill="#163f59"/>
    <path id="Trazado_65127" data-name="Trazado 65127" d="M131.386,97.776a2.2,2.2,0,0,0,2.673,1.594l2.275-.578a2.2,2.2,0,1,0-1.08-4.268l-2.277.579a2.2,2.2,0,0,0-1.591,2.672" transform="translate(11.099 7.983)" fill="#163f59"/>
    <path id="Trazado_65128" data-name="Trazado 65128" d="M130.733,101.653l-1.692-6.672c-.268-1.065.862-.221,1.927-.489l1.026-.258a1.982,1.982,0,0,1,2.412,1.435l1.2,4.749Z" transform="translate(10.903 7.959)" fill="#e9d6b8"/>
    <path id="Trazado_65129" data-name="Trazado 65129" d="M133.551,97.209a.873.873,0,1,0,1.692-.429.873.873,0,1,0-1.692.429" transform="translate(11.285 8.124)" fill="#e9d6b8"/>
    <path id="Trazado_65130" data-name="Trazado 65130" d="M130.73,99.205a.5.5,0,0,1-.352.608l-.394.1a.5.5,0,0,1-.6-.371s.223-2.75.485-2.819a.821.821,0,0,1,.339.436Z" transform="translate(10.935 8.175)" fill="#e9d6b8"/>
    <path id="Trazado_65131" data-name="Trazado 65131" d="M133.207,100.245c1.926-.487,1.977-1.127,1.861-1.817a14.507,14.507,0,0,1,1.081,2.1l.153.606a2.541,2.541,0,0,1-2.157,2.808l-2.7.683-.757-2.993-.178-.708Z" transform="translate(11.031 8.319)" fill="#163f59"/>
    <path id="Trazado_65132" data-name="Trazado 65132" d="M130.223,99.624l1.539-.389a1.324,1.324,0,0,1,1.609.96,1.232,1.232,0,0,1,.036.331l-2.777.7Z" transform="translate(11.006 8.384)" fill="#163f59"/>
    <path id="Trazado_65133" data-name="Trazado 65133" d="M132.5,100.368l.107.427a.222.222,0,0,1-.16.269l-1.247.315a.218.218,0,0,1-.269-.158l-.106-.426Z" transform="translate(11.057 8.483)" fill="#e9d6b8"/>
    <path id="Trazado_65134" data-name="Trazado 65134" d="M129.375,93.747l3.948-1a.79.79,0,0,1,.963.575l.393,1.54-4.718,1.2Z" transform="translate(10.935 7.837)" fill="#163f59"/>
    <path id="Trazado_65135" data-name="Trazado 65135" d="M127.39,95.47a1.2,1.2,0,0,0,1.459.869l2.67-.679a1.2,1.2,0,1,0-.589-2.325l-2.671.677a1.2,1.2,0,0,0-.869,1.459" transform="translate(10.764 7.885)" fill="#163f59"/>
    <rect id="Rectángulo_25714" data-name="Rectángulo 25714" width="1.1" height="2.899" transform="translate(143.945 102.53) rotate(-14.2)" fill="#163f59"/>
    <rect id="Rectángulo_25715" data-name="Rectángulo 25715" width="3.239" height="3.411" transform="translate(141.234 101.931) rotate(-14.208)" fill="#163f59"/>
    <path id="Trazado_65136" data-name="Trazado 65136" d="M133.525,96.611a1.64,1.64,0,0,0-1.99-1.186l-.82.208a1.445,1.445,0,0,0-.947,1.929,1.64,1.64,0,0,0,1.992,1.188l.58-.145a1.638,1.638,0,0,0,1.184-1.993" transform="translate(10.962 8.061)" fill="#e9d6b8"/>
    <path id="Trazado_65137" data-name="Trazado 65137" d="M148.029,152.587a13.586,13.586,0,0,0,1.643.557,3.543,3.543,0,0,0,1.519-.307,2.118,2.118,0,0,0,1.081-.757,21.684,21.684,0,0,0,.846-2.352l.324.243.636-1.224s-.608-1.725-1.138-1.829c-.707-.136-2.326,1.709-2.326,1.709l-.351,2.234-.87,1.1s-.786.116-1,.175-.365.447-.365.447" transform="translate(12.511 12.417)" fill="#081832"/>
    <path id="Trazado_65138" data-name="Trazado 65138" d="M126.912,150.885l-1.358,2.147-1.9-1.019.155-.607-.913-.4-1.3-.337-3.569-3.367s.167-.407.372-.427c.59-.064,2.122,1.194,2.122,1.194l3.072.723Z" transform="translate(9.976 12.413)" fill="#081832"/>
    <path id="Trazado_65139" data-name="Trazado 65139" d="M139.107,129.488l1.185,6.436L150.729,151.9l3.443-2.605L145.5,133.561l.492-12.663Z" transform="translate(11.757 10.218)" fill="#5e6178"/>
    <path id="Trazado_65140" data-name="Trazado 65140" d="M142.72,114.953s-8.967,19.7-11.62,24.234-9.261,11.86-9.261,11.86l4.967,3.107s11.281-14.868,14.015-20.2a61.4,61.4,0,0,1,7.678-10.828,7.888,7.888,0,0,0,3.822-8.217c-.813-5.879-9.6.041-9.6.041" transform="translate(10.298 9.492)" fill="#5e6178"/>
    <path id="Trazado_65141" data-name="Trazado 65141" d="M133.671,104.658l6.021,15.217,12.425-2.814a72.036,72.036,0,0,0-2.924-6.979,43.061,43.061,0,0,0-9.6-10.826s-3.092-2.211-5.927,5.4" transform="translate(11.298 8.364)" fill="#a66d58"/>
    <path id="Trazado_65142" data-name="Trazado 65142" d="M136.922,98.476l1.022.64-3.5,3.88-.3-1.23Z" transform="translate(11.337 8.323)" fill="#954f3f"/>
    <path id="Trazado_65143" data-name="Trazado 65143" d="M132.927,110.257l-9.748,6.572a1.616,1.616,0,0,0,1.212.662,26.121,26.121,0,0,0,7.425-2.4,31.161,31.161,0,0,0,4.454-3.12Z" transform="translate(10.411 9.319)" fill="#e9d6b8"/>
    <path id="Trazado_65144" data-name="Trazado 65144" d="M125.376,116.177l-.785.975a3.736,3.736,0,0,1-.957.863c-.606.378-1.231.08-1.763-.525a2.462,2.462,0,0,1-.613-1.027s.33-.87,1.1-.692,2.409-.487,2.544-.168a1.7,1.7,0,0,0,.475.574" transform="translate(10.249 9.763)" fill="#e9d6b8"/>
    <path id="Trazado_65145" data-name="Trazado 65145" d="M121.527,116.043l-1.005.953-.891.936.283.152.732-.554,1.584-.2L122,116.9Z" transform="translate(10.111 9.808)" fill="#e9d6b8"/>
    <path id="Trazado_65146" data-name="Trazado 65146" d="M120.987,117.855l-.495,1.073.243.223.682-.937,1.038-.632-.532-.745Z" transform="translate(10.184 9.875)" fill="#e9d6b8"/>
    <path id="Trazado_65147" data-name="Trazado 65147" d="M121.17,119.357l.338-.893.142-.634.541-.4.582.465-.6.409-.645,1.064Z" transform="translate(10.241 9.925)" fill="#e9d6b8"/>
    <path id="Trazado_65148" data-name="Trazado 65148" d="M122.044,119.622l.332-1.729.4-.252.415.3-.433.676-.453.9Z" transform="translate(10.315 9.943)" fill="#e9d6b8"/>
    <path id="Trazado_65149" data-name="Trazado 65149" d="M125.369,115.148a1.539,1.539,0,0,1-1.336.33s-2.052-.434-2.37-.149a2.936,2.936,0,0,1-1.178.412s-.309.243.518.426a3.219,3.219,0,0,0,1.021.056,5.588,5.588,0,0,0,1.5.665c.737-.025,1.965-1.33,1.965-1.33s-.053-.478-.118-.411" transform="translate(10.178 9.732)" fill="#e9d6b8"/>
    <path id="Trazado_65150" data-name="Trazado 65150" d="M134.866,107.813l-6.453,5.5,1.551,2.933,5.046-1.564Z" transform="translate(10.853 9.112)" fill="#895a4c"/>
    <path id="Trazado_65151" data-name="Trazado 65151" d="M133.743,110.5s1.858-5.435,2.638-7.063a38.211,38.211,0,0,1,2.493-3.788s1.686.744,2.1,1.661c1.2,2.656.009,5.889.009,5.889l-6.356,8.173-1.664-1.393Z" transform="translate(11.238 8.422)" fill="#895a4c"/>
    <path id="Trazado_65152" data-name="Trazado 65152" d="M54.962,111.721l-10.376-2.906s5.527-10.3,7.819-13.439c1.871-2.562,7.668-8.489,11.566-5.212s5.36,4.334,5.36,4.334.616,4.5-14.37,17.224" transform="translate(3.768 7.539)" fill="#d9a171"/>
    <path id="Trazado_65153" data-name="Trazado 65153" d="M70.445,85.386s-1.807,6.837-3.581,7.057a3.8,3.8,0,0,0-1.892-.048c-.7.275-.919.8-1.181.937a1.421,1.421,0,0,1-.41.211c-.907.207-1.543-2.182-1.54-2.554,0-.257-.409-.516-.121-.733a3.693,3.693,0,0,0,1.34-1.553c.421-1.488-.144-4.742,2.981-5.424.914-.2,4.383,1.615,4.4,2.106" transform="translate(5.208 7.037)" fill="#e9d6b8"/>
    <path id="Trazado_65154" data-name="Trazado 65154" d="M64.069,92.487l-1.008,1.221L61.272,89.65l.69-.239Z" transform="translate(5.179 7.557)" fill="#e5ae85"/>
    <path id="Trazado_65155" data-name="Trazado 65155" d="M66.768,91.955s-.163-.19-.44-.574a3.983,3.983,0,0,0-.547-.634,6.012,6.012,0,0,1-1.206-.976,16.038,16.038,0,0,1-1.221-1.836s.1.807.141,1.13a1.993,1.993,0,0,0,.663,1.272c1.284,1.208,1.142,1.283,1.348,1.369a8.278,8.278,0,0,1,1.262.249" transform="translate(5.355 7.432)" fill="#dbc9ad"/>
    <path id="Trazado_65156" data-name="Trazado 65156" d="M68.828,87.681a14.4,14.4,0,0,0-.012,1.558c.008.226.024.513-.037.57a2.277,2.277,0,0,1-.454.218c-.115.04-.57.213-.44-.311a15.63,15.63,0,0,1,.944-2.036" transform="translate(5.736 7.411)" fill="#e9d6b8"/>
    <path id="Trazado_65157" data-name="Trazado 65157" d="M65.949,82.99c1.581-.5,3.945.677,5.022,2.908a1.234,1.234,0,0,1-.915.466,3.235,3.235,0,0,0-2.161-2.041c-1.738-.434-.893.8-1.435,1.064-.454.22-.868.395-.868.395l-.6.835-.456-.117s.14-1.083-.192-.872c-.4.256-.564,1.048-.6,1.158s-.085.291-.149.3a11.913,11.913,0,0,1-.631,1.55c-.206-.074-.354-.452-.247-1.114.24-1.486,1.3-3.918,3.228-4.531" transform="translate(5.298 7.004)" fill="#163f59"/>
    <path id="Trazado_65158" data-name="Trazado 65158" d="M64.4,85.392a.725.725,0,0,0-.567,1.335" transform="translate(5.358 7.212)" fill="#e9d6b8"/>
    <path id="Trazado_65159" data-name="Trazado 65159" d="M67.6,89.208a7.781,7.781,0,0,1,.937.154c.075.053.267.155.241.238s-.225.241-.7.312c-.116.017.017-.164-.477-.7" transform="translate(5.714 7.54)" fill="#dbc9ad"/>
    <path id="Trazado_65160" data-name="Trazado 65160" d="M65.429,107.333l11.813,4.436s-.385.893-1.1.992a27.955,27.955,0,0,1-8.349-.66,33.071,33.071,0,0,1-5.43-2.146Z" transform="translate(5.271 9.072)" fill="#e9d6b8"/>
    <path id="Trazado_65161" data-name="Trazado 65161" d="M63.054,97.777l2.993,10.1-.421.66.71.312-2.943,2.969-3.35-1.638L56.207,96.313a8.519,8.519,0,0,1,3.005-6.159c2.26-2,3.562,6.8,3.841,7.623" transform="translate(4.75 7.595)" fill="#e5ae85"/>
    <path id="Trazado_65162" data-name="Trazado 65162" d="M61.419,108.628s2.612-1.162,3.95-1.815l-.184.288.711.312-1.027,1.019L63.2,109.662l-.721-.47.406-.477Z" transform="translate(5.191 9.028)" fill="#d9a171"/>
    <path id="Trazado_65163" data-name="Trazado 65163" d="M74.2,112.547l1.425.594a5.289,5.289,0,0,0,1.55.408c.886.092,1.408-.484,1.655-1.314a2.283,2.283,0,0,0,.093-1.28,1.434,1.434,0,0,0-1.608-.175c-.746.526-2.944.618-2.915.992a1.581,1.581,0,0,1-.2.774" transform="translate(6.271 9.346)" fill="#e9d6b8"/>
    <path id="Trazado_65164" data-name="Trazado 65164" d="M78.23,110.642l1.656.471,1.519.508-.229.279-1.127-.21-1.865.534.016-.528Z" transform="translate(6.608 9.351)" fill="#e9d6b8"/>
    <path id="Trazado_65165" data-name="Trazado 65165" d="M79.827,112.179l1.157.822-.142.33-1.288-.6-1.511-.146.17-.967Z" transform="translate(6.596 9.433)" fill="#e9d6b8"/>
    <path id="Trazado_65166" data-name="Trazado 65166" d="M80.457,113.74l-.88-.714-.519-.553-.825-.144-.381.72.894.126,1.319.743Z" transform="translate(6.58 9.494)" fill="#e9d6b8"/>
    <path id="Trazado_65167" data-name="Trazado 65167" d="M79.61,114.408l-1.351-1.535-.591-.062-.29.477.86.464,1.016.677Z" transform="translate(6.54 9.535)" fill="#e9d6b8"/>
    <path id="Trazado_65168" data-name="Trazado 65168" d="M73.729,111.538a2.085,2.085,0,0,0,1.669-.288s2.023-1.357,2.538-1.221a4.156,4.156,0,0,0,1.539-.136s.48.1-.332.654a4.027,4.027,0,0,1-1.1.517s-.878,1.179-1.282,1.331c-.831.311-2.93-.4-2.93-.4s-.215-.491-.1-.456" transform="translate(6.229 9.288)" fill="#e9d6b8"/>
    <path id="Trazado_65169" data-name="Trazado 65169" d="M64.38,91.919l.19-.137-.129.839-.642,1.1-.06-1.5Z" transform="translate(5.387 7.757)" fill="#e5ae85"/>
    <path id="Trazado_65170" data-name="Trazado 65170" d="M66.858,56.486,50.913,42.54,88.123,0l42.536,37.211L116.213,53.729a2.827,2.827,0,0,1-.351.146c-.015,0-.031.009-.05.014a2.576,2.576,0,0,1-.352.088.206.206,0,0,1-.025.005,2.618,2.618,0,0,1-.669.023c-.041-.005-.076,0-.112-.005-.074-.009-.151-.028-.221-.043a2.432,2.432,0,0,1-.241-.056,1.276,1.276,0,0,1-.187-.067,2.582,2.582,0,0,1-.274-.123c-.051-.027-.1-.049-.143-.078a2.823,2.823,0,0,1-.394-.282,2.738,2.738,0,0,1-.921-2.2,9.266,9.266,0,1,0-7.45,8.516,2.755,2.755,0,0,1,2.3.619,2.638,2.638,0,0,1,.329.352c.035.043.065.085.1.132a2.975,2.975,0,0,1,.162.257c.031.06.061.114.087.175.035.076.066.152.093.229s.052.145.069.215a.961.961,0,0,1,.022.114,2.5,2.5,0,0,1,.063.662.123.123,0,0,1,0,.028,3.547,3.547,0,0,1-.037.364.369.369,0,0,0-.01.05,3.138,3.138,0,0,1-.094.36L93.453,79.75,77.5,65.8a2.725,2.725,0,0,0-4.262,2.722,9.265,9.265,0,1,1-8.511-7.443,2.728,2.728,0,0,0,2.13-4.594" transform="translate(4.303)" fill="#aed3f2"/>
  </g>
</svg>
