<svg xmlns="http://www.w3.org/2000/svg" width="108" height="108" viewBox="0 0 108 108">
  <g id="Grupo_70456" data-name="Grupo 70456" transform="translate(-910.75 -8318.995)">
    <circle id="Elipse_3959" data-name="Elipse 3959" cx="54" cy="54" r="54" transform="translate(910.75 8318.995)" fill="#5e6178"/>
    <g id="Grupo_63435" data-name="Grupo 63435" transform="translate(503.897 8221.36)">
      <g id="Grupo_63434" data-name="Grupo 63434" transform="translate(415.909 116.898)">
        <path id="Trazado_100816" data-name="Trazado 100816" d="M460.442,125.652a5.646,5.646,0,0,1,5.631,5.642,1.276,1.276,0,0,1-2.552,0,3.084,3.084,0,1,0-3.079,3.079,1.282,1.282,0,0,1,0,2.563,5.642,5.642,0,0,1,0-11.285Z" transform="translate(-399.569 -113.22)" fill="#fff"/>
        <path id="Trazado_100817" data-name="Trazado 100817" d="M462.008,121.926a10.95,10.95,0,0,1,10.934,10.934,1.282,1.282,0,0,1-2.563,0,8.37,8.37,0,1,0-8.37,8.36,1.282,1.282,0,0,1,0,2.563,10.929,10.929,0,1,1,0-21.858Z" transform="translate(-401.134 -114.785)" fill="#fff"/>
        <path id="Trazado_100818" data-name="Trazado 100818" d="M473.805,160.715a9.492,9.492,0,0,0,1.1-3.89,1.073,1.073,0,0,1,.614-.909l2.159-1.074v-.065l-2.356-.527a1.131,1.131,0,0,1-.811-.756,8.719,8.719,0,0,0-.788-1.873,9.373,9.373,0,0,0-1.173-1.654,1.092,1.092,0,0,1-.219-1.085l.767-2.279c-.011-.01-.023-.033-.044-.044L471,147.842a1.08,1.08,0,0,1-.876.132l-4.339-1.227a1.1,1.1,0,0,1-.679-.571l-1.074-2.169a.138.138,0,0,1-.067.011l-.537,2.355a1.117,1.117,0,0,1-.744.8,10.086,10.086,0,0,0-1.873.788,9.98,9.98,0,0,0-1.666,1.183,1.092,1.092,0,0,1-1.074.219l-2.279-.777c-.01.021-.033.033-.044.054l1.294,2.038a1.112,1.112,0,0,1,.033,1.106,9.616,9.616,0,0,0-1.106,3.89,1.079,1.079,0,0,1-.6.909l-2.169,1.074a.456.456,0,0,0,.011.055l2.345.537a1.09,1.09,0,0,1,.809.756,9.592,9.592,0,0,0,1.973,3.529,1.1,1.1,0,0,1,.219,1.074l-.777,2.289c.021.011.033.021.054.033l2.038-1.282a1.1,1.1,0,0,1,1.1-.033,9.58,9.58,0,0,0,3.9,1.1,1.1,1.1,0,0,1,.909.614l1.074,2.159h.055l.537-2.356a1.077,1.077,0,0,1,.755-.8,9.822,9.822,0,0,0,1.875-.8,10.488,10.488,0,0,0,1.653-1.173,1.071,1.071,0,0,1,1.074-.219l2.291.767c.011-.011.021-.033.033-.044l-1.282-2.049A1.089,1.089,0,0,1,473.805,160.715Zm1.61-14.112L474.6,149a11.489,11.489,0,0,1,1.041,1.545,12.531,12.531,0,0,1,.767,1.7l2.487.56a1.1,1.1,0,0,1,.832.888,15.634,15.634,0,0,1,.209,1.731,1.12,1.12,0,0,1-.614,1.051l-2.291,1.129a11.677,11.677,0,0,1-1.007,3.572l1.358,2.147a1.111,1.111,0,0,1-.033,1.216,14.361,14.361,0,0,1-1.085,1.38,1.113,1.113,0,0,1-1.172.3l-2.41-.811a10.517,10.517,0,0,1-1.545,1.03,10.736,10.736,0,0,1-1.687.778l-.569,2.487a1.1,1.1,0,0,1-.878.832,15.753,15.753,0,0,1-1.741.209h-.065a1.08,1.08,0,0,1-.976-.614l-1.129-2.279a12.309,12.309,0,0,1-3.572-1.008l-2.157,1.348a1.076,1.076,0,0,1-1.206-.021,15.043,15.043,0,0,1-1.38-1.1,1.1,1.1,0,0,1-.307-1.172l.821-2.41a12.227,12.227,0,0,1-1.04-1.534,12.439,12.439,0,0,1-.778-1.7l-2.477-.569a1.092,1.092,0,0,1-.832-.866,14.116,14.116,0,0,1-.209-1.752,1.075,1.075,0,0,1,.6-1.041l2.289-1.129a11.885,11.885,0,0,1,1.008-3.572l-1.348-2.157a1.076,1.076,0,0,1,.021-1.206c.329-.46.69-.932,1.085-1.38a1.1,1.1,0,0,1,1.173-.307l2.41.822a11.6,11.6,0,0,1,1.555-1.041,11.8,11.8,0,0,1,1.687-.778L462,142.8a1.1,1.1,0,0,1,.876-.832,13.754,13.754,0,0,1,1.743-.209,1.109,1.109,0,0,1,1.051.6l1.183,2.41,3.408.953,2.268-1.413a1.074,1.074,0,0,1,1.2.021,15.442,15.442,0,0,1,1.38,1.1A1.093,1.093,0,0,1,475.416,146.6Z" transform="translate(-401.187 -106.452)" fill="#fff"/>
        <path id="Trazado_100819" data-name="Trazado 100819" d="M451.684,132.256a12.64,12.64,0,0,0,0,5.434,1.3,1.3,0,0,1-.395,1.217l-2.465,2.224.132.3,3.3-.175a1.272,1.272,0,0,1,1.15.591,12.7,12.7,0,0,0,3.834,3.846,1.259,1.259,0,0,1,.592,1.14l-.176,3.308c.1.044.209.088.307.121l2.214-2.454a1.237,1.237,0,0,1,1.216-.395,13.03,13.03,0,0,0,5.445,0,1.272,1.272,0,0,1,1.217.395l2.224,2.454c.1-.033.2-.077.3-.121l-.175-3.308a1.283,1.283,0,0,1,2.563-.132l.207,4.174a1.288,1.288,0,0,1-.7,1.217,18.614,18.614,0,0,1-2.159.886,1.27,1.27,0,0,1-1.359-.361l-2.312-2.563a15.61,15.61,0,0,1-5.05,0l-2.312,2.563a1.236,1.236,0,0,1-.953.427,1.292,1.292,0,0,1-.4-.067,18.461,18.461,0,0,1-2.149-.886,1.3,1.3,0,0,1-.712-1.217l.175-3.451a15.1,15.1,0,0,1-3.56-3.572l-3.451.176a1.276,1.276,0,0,1-1.216-.7,16.583,16.583,0,0,1-.888-2.147,1.3,1.3,0,0,1,.351-1.37l2.563-2.311a15.381,15.381,0,0,1,0-5.051l-2.563-2.312a1.282,1.282,0,0,1-.351-1.358,16.735,16.735,0,0,1,.888-2.159,1.309,1.309,0,0,1,1.216-.7l3.451.176a15.493,15.493,0,0,1,3.56-3.562l-.175-3.461a1.272,1.272,0,0,1,.712-1.206,17.52,17.52,0,0,1,2.137-.888,1.264,1.264,0,0,1,1.369.351l2.312,2.563a15.336,15.336,0,0,1,5.05,0l2.312-2.563a1.266,1.266,0,0,1,1.37-.351,17.669,17.669,0,0,1,2.147.888,1.26,1.26,0,0,1,.7,1.206l-.175,3.461a15.465,15.465,0,0,1,3.56,3.562l3.462-.176a1.237,1.237,0,0,1,1.227.723,21.433,21.433,0,0,1,.876,2.126,1.282,1.282,0,0,1-.351,1.369l-2.575,2.312a15.385,15.385,0,0,1,0,5.051l2.575,2.311a1.3,1.3,0,0,1,.351,1.38,19.579,19.579,0,0,1-.888,2.115,1.242,1.242,0,0,1-1.216.724l-4.185-.209a1.283,1.283,0,0,1,.132-2.563l3.319.175c.033-.1.077-.2.121-.307l-2.454-2.213a1.272,1.272,0,0,1-.395-1.217,12.579,12.579,0,0,0,0-5.434,1.291,1.291,0,0,1,.395-1.227l2.454-2.213c-.044-.1-.077-.209-.121-.307l-3.319.175a1.271,1.271,0,0,1-1.14-.592,12.805,12.805,0,0,0-3.834-3.834,1.3,1.3,0,0,1-.591-1.139l.175-3.309-.3-.131-2.224,2.464a1.262,1.262,0,0,1-1.217.383,12.532,12.532,0,0,0-5.445.011,1.293,1.293,0,0,1-1.216-.395l-2.214-2.464c-.1.043-.207.087-.307.131l.176,3.309a1.28,1.28,0,0,1-.592,1.139A12.714,12.714,0,0,0,453.4,128.1a1.264,1.264,0,0,1-1.15.581l-3.3-.175c-.044.1-.088.2-.132.307l2.465,2.213A1.291,1.291,0,0,1,451.684,132.256Z" transform="translate(-403.245 -116.898)" fill="#fff"/>
        <path id="Trazado_100820" data-name="Trazado 100820" d="M435.348,141.652a7.333,7.333,0,0,1,7.319,7.32,1.282,1.282,0,0,1-2.563,0,4.755,4.755,0,1,0-4.756,4.766,1.276,1.276,0,1,1,0,2.552,7.319,7.319,0,0,1,0-14.638Z" transform="translate(-410.816 -106.497)" fill="#fff"/>
        <path id="Trazado_100821" data-name="Trazado 100821" d="M422.869,151.14a14.654,14.654,0,0,1,29.308,0,1.282,1.282,0,0,1-2.565,0,12.09,12.09,0,1,0-12.1,12.1,1.276,1.276,0,1,1,0,2.552A14.667,14.667,0,0,1,422.869,151.14Z" transform="translate(-412.985 -108.666)" fill="#fff"/>
        <path id="Trazado_100822" data-name="Trazado 100822" d="M463.711,142.737a27.849,27.849,0,0,1,1.206,2.882,1.276,1.276,0,0,1-.351,1.369l-3.769,3.407a20.015,20.015,0,0,1,0,7.341l3.769,3.408a1.264,1.264,0,0,1,.351,1.358,25.348,25.348,0,0,1-1.206,2.9,1.285,1.285,0,0,1-1.216.723l-5.784-.307a1.276,1.276,0,0,1-1.217-1.336,1.253,1.253,0,0,1,1.348-1.217l4.919.253c.165-.351.307-.7.45-1.064l-3.66-3.309a1.262,1.262,0,0,1-.395-1.216,18.179,18.179,0,0,0,0-7.734,1.272,1.272,0,0,1,.395-1.217l3.66-3.309c-.143-.361-.285-.711-.439-1.062l-4.931.253a1.257,1.257,0,0,1-1.15-.581,18.036,18.036,0,0,0-5.466-5.468,1.3,1.3,0,0,1-.581-1.15l.251-4.931c-.351-.153-.7-.3-1.062-.427l-3.3,3.66a1.282,1.282,0,0,1-1.227.395,18.4,18.4,0,0,0-7.736,0,1.29,1.29,0,0,1-1.227-.395l-3.3-3.66c-.351.132-.711.285-1.062.439l.251,4.919a1.3,1.3,0,0,1-.581,1.15,18.18,18.18,0,0,0-5.466,5.468,1.337,1.337,0,0,1-1.14.581l-4.929-.253c-.153.351-.3.7-.439,1.062l3.66,3.309a1.294,1.294,0,0,1,.393,1.217,18.179,18.179,0,0,0,0,7.734,1.266,1.266,0,0,1-.393,1.216l-3.66,3.309c.142.362.285.713.439,1.064l4.929-.253a1.284,1.284,0,0,1,1.14.581,18.2,18.2,0,0,0,5.466,5.468,1.3,1.3,0,0,1,.581,1.15l-.251,4.929c.351.153.712.3,1.062.439l3.3-3.67a1.311,1.311,0,0,1,1.227-.395,18.079,18.079,0,0,0,7.736,0,1.284,1.284,0,0,1,1.227.395l3.3,3.67c.361-.142.712-.285,1.062-.439l-.251-4.929a1.278,1.278,0,1,1,2.552-.132l.3,5.8a1.282,1.282,0,0,1-.713,1.217,30.384,30.384,0,0,1-2.893,1.194,1.479,1.479,0,0,1-.426.065,1.3,1.3,0,0,1-.954-.416l-3.384-3.769a20.824,20.824,0,0,1-7.364,0l-3.386,3.769a1.288,1.288,0,0,1-1.369.351,28.866,28.866,0,0,1-2.893-1.194,1.279,1.279,0,0,1-.723-1.227l.263-5.063a21.115,21.115,0,0,1-5.2-5.192l-5.061.263a1.287,1.287,0,0,1-1.217-.723,26.116,26.116,0,0,1-1.193-2.9,1.284,1.284,0,0,1,.349-1.358l3.759-3.4a20.673,20.673,0,0,1,0-7.352l-3.759-3.407a1.284,1.284,0,0,1-.349-1.358,24.569,24.569,0,0,1,1.2-2.9,1.247,1.247,0,0,1,1.206-.711l5.061.263a20.974,20.974,0,0,1,5.2-5.2l-.263-5.061a1.26,1.26,0,0,1,.713-1.216,26.9,26.9,0,0,1,2.9-1.194,1.263,1.263,0,0,1,1.369.351l3.386,3.758a21.026,21.026,0,0,1,7.364,0l3.384-3.758a1.271,1.271,0,0,1,1.37-.351,24.465,24.465,0,0,1,2.9,1.183,1.281,1.281,0,0,1,.713,1.216l-.253,5.073a20.934,20.934,0,0,1,5.194,5.2l5.061-.263A1.252,1.252,0,0,1,463.711,142.737Z" transform="translate(-415.909 -111.592)" fill="#fff"/>
      </g>
    </g>
  </g>
</svg>
