<svg xmlns="http://www.w3.org/2000/svg" width="90" height="90" viewBox="0 0 90 90">
  <g id="Grupo_70475" data-name="Grupo 70475" transform="translate(-280 -7002)">
    <g id="Grupo_70459" data-name="Grupo 70459">
      <circle id="Elipse_4371" data-name="Elipse 4371" cx="45" cy="45" r="45" transform="translate(280 7002)" fill="#d9a171"/>
      <g id="Grupo_70366" data-name="Grupo 70366" transform="translate(-83.378 6144.493)">
        <path id="Trazado_108320" data-name="Trazado 108320" d="M439.693,983.5,429.124,969.77a1.238,1.238,0,0,0-1.646-.289l-6.823,4.34h-8.9a1.23,1.23,0,0,0-.341.057l-6.9,1.986-7.16-1.958L390.4,969.48a1.238,1.238,0,0,0-1.628.267l-11.69,14.479a1.238,1.238,0,0,0,.156,1.716l6.127,5.273,5.5,7.407a10.045,10.045,0,0,1,2.7,8.013,4.376,4.376,0,0,0,4.376,4.376h.047c0,.03,0,.059,0,.089a4.376,4.376,0,0,0,4.376,4.376,4.475,4.475,0,0,0,.683-.054,4.376,4.376,0,0,0,7.446,2.664l.669-.669.281.226a4.374,4.374,0,0,0,7.415-3.213,4.368,4.368,0,0,0,4.442-4.439,4.372,4.372,0,0,0,4.441-4.444,4.373,4.373,0,0,0,3.738-6.756l4.014-8.406,6.034-5.192A1.238,1.238,0,0,0,439.693,983.5ZM390,972.163l5,3.181L384.122,988.6l-4.361-3.753Zm.706,28.109,1.51-1.51c.046-.046.094-.089.143-.13a1.9,1.9,0,0,1,1.031-.419h.032c.054,0,.108-.007.162-.007a1.888,1.888,0,0,1,1.355.595,1.947,1.947,0,0,1-.084,2.694l-1.464,1.464a1.9,1.9,0,0,1-2.686-2.686Zm3.884,7.706a1.9,1.9,0,0,1,0-2.686l2.928-2.928a1.919,1.919,0,0,1,2.159-.373,1.893,1.893,0,0,1,1.046,1.961,2.005,2.005,0,0,1-.566,1.144l-2.881,2.881a1.9,1.9,0,0,1-2.686,0Zm4.421,4.463a1.9,1.9,0,0,1,0-2.686l2.927-2.928a1.921,1.921,0,0,1,2.3-.3,1.89,1.89,0,0,1,.907,1.919,2.008,2.008,0,0,1-.563,1.114l-2.881,2.881a1.9,1.9,0,0,1-2.686,0Zm5.035,3.893a1.9,1.9,0,0,1,0-2.686l1.51-1.51c.046-.046.093-.089.143-.129l0,0a1.892,1.892,0,0,1,.842-.391l.022,0c.053-.01.107-.017.161-.022l.065,0c.044,0,.088-.005.133,0a1.887,1.887,0,0,1,1.355.595,1.765,1.765,0,0,1,.122.144,1.96,1.96,0,0,1-.214,2.557l-1.456,1.456A1.9,1.9,0,0,1,404.048,1016.335Zm23.1-13.818a1.9,1.9,0,0,1-2.686,0,1.118,1.118,0,0,0-.084-.076l-7.961-8.045a1.238,1.238,0,0,0-1.76,1.742l8.048,8.131,0,0a1.9,1.9,0,1,1-2.686,2.686l-5.384-5.44a1.238,1.238,0,1,0-1.76,1.742l5.3,5.356a1.157,1.157,0,0,0,.087.1,1.9,1.9,0,1,1-2.687,2.686l-2.938-2.969a1.238,1.238,0,0,0-1.76,1.741l2.856,2.886a1.13,1.13,0,0,0,.087.1,1.9,1.9,0,0,1-2.686,2.686,2.715,2.715,0,0,0-.281-.224c-.081-.062-.1-.1-.062-.2s.1-.19.143-.29.082-.227.118-.343a4.464,4.464,0,0,0,.16-1.9,4.331,4.331,0,0,0-3.691-3.727,4.416,4.416,0,0,0-1.06-3.985,4.344,4.344,0,0,0-3.119-1.369h-.131a4.333,4.333,0,0,0-4.289-4.463,4.451,4.451,0,0,0-1.056.112,4.36,4.36,0,0,0-7.235-2.591l-4.786-6.449,11.45-13.949,3.649,1-4.766,8.41a4.377,4.377,0,0,0,1.65,5.964c.064.036.128.07.193.1l.015.007a4.414,4.414,0,0,0,.525.22,4.375,4.375,0,0,0,5.231-1.98l3.1-5.465,5.53.392,14.726,14.725A1.9,1.9,0,0,1,427.145,1002.516Zm.513-5.675-13.814-13.814a1.063,1.063,0,0,0-.082-.075,1.239,1.239,0,0,0-.706-.284l-6.771-.48a1.259,1.259,0,0,0-1.165.625l-3.482,6.145a1.9,1.9,0,0,1-3.3-1.873l4.648-8.2,1.884-.542.037-.012,7.03-2.03h8.494l10.6,13.48Zm5-9.008-9.807-12.473,5-3.183,9.163,11.9Z" transform="translate(0 -86.707)" fill="#fff"/>
        <path id="Trazado_108321" data-name="Trazado 108321" d="M677.6,909.6a1.235,1.235,0,0,0,.876-.363l8.458-8.458a1.238,1.238,0,0,0-1.751-1.751l-8.458,8.458a1.238,1.238,0,0,0,.875,2.114Z" transform="translate(-262.542 -24.816)" fill="#fff"/>
        <path id="Trazado_108322" data-name="Trazado 108322" d="M508.582,909.242a1.238,1.238,0,0,0,1.751-1.751l-8.458-8.458a1.238,1.238,0,0,0-1.751,1.751Z" transform="translate(-107.762 -24.816)" fill="#fff"/>
        <path id="Trazado_108323" data-name="Trazado 108323" d="M623.525,919.952a1.238,1.238,0,0,0,1.238-1.238v-7a1.238,1.238,0,0,0-2.476,0v7A1.238,1.238,0,0,0,623.525,919.952Z" transform="translate(-215.147 -35.163)" fill="#fff"/>
        <path id="Trazado_108324" data-name="Trazado 108324" d="M622.4,872.063a1.237,1.237,0,1,0,.456-1.5A1.245,1.245,0,0,0,622.4,872.063Z" transform="translate(-215.17)" fill="#fff"/>
      </g>
    </g>
  </g>
</svg>
