<svg xmlns="http://www.w3.org/2000/svg" width="90" height="90" viewBox="0 0 90 90">
  <g id="Grupo_70458" data-name="Grupo 70458" transform="translate(-280 -6860)">
    <circle id="Elipse_4370" data-name="Elipse 4370" cx="45" cy="45" r="45" transform="translate(280 6860)" fill="#d9a171"/>
    <g id="Grupo_70365" data-name="Grupo 70365" transform="translate(476.825 5888.196)">
      <g id="Grupo_70364" data-name="Grupo 70364" transform="translate(-189.825 994.068)">
        <path id="Trazado_108319" data-name="Trazado 108319" d="M-127.889,1014.076a8.18,8.18,0,0,0,3.486-6.688,8.17,8.17,0,0,0-8.176-8.176,8.17,8.17,0,0,0-8.176,8.176,8.143,8.143,0,0,0,3.486,6.688,14.168,14.168,0,0,0-4.832,2.834,18.33,18.33,0,0,0-6.631-3.613,10.381,10.381,0,0,0,5-8.87,10.353,10.353,0,0,0-10.358-10.358,10.362,10.362,0,0,0-10.358,10.358,10.35,10.35,0,0,0,5,8.87,18.484,18.484,0,0,0-6.561,3.571,14.281,14.281,0,0,0-4.775-2.777,8.18,8.18,0,0,0,3.486-6.688,8.17,8.17,0,0,0-8.176-8.176,8.17,8.17,0,0,0-8.176,8.176,8.143,8.143,0,0,0,3.486,6.688,14.351,14.351,0,0,0-9.664,13.56v.935a.061.061,0,0,0,.057.057h17.33a19.06,19.06,0,0,0-.156,2.395V1032a7.535,7.535,0,0,0,7.538,7.538h21.963a7.535,7.535,0,0,0,7.538-7.538v-.964a19.058,19.058,0,0,0-.156-2.395h17.443a.061.061,0,0,0,.057-.057v-.935A14.407,14.407,0,0,0-127.889,1014.076Zm-10.6-6.7a5.914,5.914,0,0,1,5.909-5.909,5.914,5.914,0,0,1,5.909,5.909,5.928,5.928,0,0,1-5.8,5.909h-.227A5.9,5.9,0,0,1-138.488,1007.374Zm-23.72-2.947a8.1,8.1,0,0,1,8.091-8.091,8.1,8.1,0,0,1,8.091,8.091,8.1,8.1,0,0,1-7.623,8.077h-.935A8.1,8.1,0,0,1-162.208,1004.426Zm-19.214,2.947a5.914,5.914,0,0,1,5.909-5.909,5.914,5.914,0,0,1,5.909,5.909,5.928,5.928,0,0,1-5.8,5.909h-.227A5.91,5.91,0,0,1-181.422,1007.374Zm9.38,18.988h-15.488a12.107,12.107,0,0,1,11.931-10.812h.17a11.981,11.981,0,0,1,7.723,2.877A18.6,18.6,0,0,0-172.042,1026.361Zm34.192,5.64a5.279,5.279,0,0,1-5.271,5.271h-21.963a5.279,5.279,0,0,1-5.271-5.271v-.964a16.277,16.277,0,0,1,15.771-16.253c.156.014.326.014.482.014s.326,0,.482-.014a16.277,16.277,0,0,1,15.771,16.253Zm1.686-5.64a18.556,18.556,0,0,0-4.293-7.878,12.039,12.039,0,0,1,7.793-2.933h.17a12.107,12.107,0,0,1,11.931,10.812Z" transform="translate(189.825 -994.068)" fill="#fff"/>
      </g>
    </g>
  </g>
</svg>
