<?xml version="1.0" encoding="utf-8"?>
<!-- Generator: Adobe Illustrator 25.3.1, SVG Export Plug-In . SVG Version: 6.00 Build 0)  -->
<svg version="1.1" id="Layer_1" xmlns="http://www.w3.org/2000/svg" xmlns:xlink="http://www.w3.org/1999/xlink" x="0px" y="0px"
	 viewBox="0 0 297.5 282" style="enable-background:new 0 0 297.5 282;" xml:space="preserve">
<style type="text/css">
	.st0{fill:#AED3F2;}
	.st1{fill:#87898D;}
	.st2{fill:#12263F;}
	.st3{fill:#5E6178;}
	.st4{fill:#707070;}
	.st5{fill:#FFFFFF;}
</style>
<g id="Grupo_70419" transform="translate(5978 9744.998)">
	<g id="Grupo_70413" transform="translate(-6140.88 -10502.01)">
		<path id="Trazado_108315" class="st0" d="M195.1,923.1c-13.9-68.7,30.5-135.7,99.3-149.6c8.3-1.7,16.7-2.5,25.1-2.5
			c52.1,0,98.9,31.8,118,80.3l-13.5,5.3c-22.8-57.7-88.1-86-145.8-63.2c-42.9,16.9-71.1,58.4-71.1,104.5c0,7.5,0.7,15,2.2,22.4
			L195.1,923.1z"/>
		<circle id="Elipse_4363" class="st0" cx="319.4" cy="898" r="99.7"/>
		<g id="Grupo_70355">
			<path id="Trazado_108316" class="st1" d="M319.4,1018.4c-51.1,0-96.7-32.3-113.7-80.6l1-0.4c21.9,62.2,90,94.9,152.2,73
				c57.9-20.4,90.9-81.4,76.3-141l1-0.3c15.8,64.7-23.7,129.9-88.4,145.7C338.6,1017.3,329,1018.4,319.4,1018.4z"/>
			<g id="Grupo_70353">
				<path id="Trazado_108317" class="st1" d="M429.9,871.2c-0.8-3.2,1.1-6.6,4.4-7.4c3.2-0.8,6.6,1.1,7.4,4.4
					c0.8,3.2-1.1,6.6-4.4,7.4C434.1,876.4,430.8,874.4,429.9,871.2C429.9,871.2,429.9,871.2,429.9,871.2z"/>
			</g>
			<g id="Grupo_70354">
				<path id="Trazado_108318" class="st1" d="M212.2,936c-1.1-3.2-4.5-4.9-7.7-3.8c-3.2,1.1-4.9,4.5-3.8,7.7
					c1.1,3.2,4.5,4.9,7.7,3.8S213.3,939.2,212.2,936C212.2,936,212.2,936,212.2,936z"/>
			</g>
		</g>
	</g>
	<path id="Trazado_108341" class="st2" d="M-5881.1-9623.4l3.7,9.3l3.7-9.3h1.9v11.4h-1.5v-4.4l0.1-4.8l-3.7,9.2h-1.2l-3.7-9.2
		l0.1,4.8v4.4h-1.5v-11.4H-5881.1z M-5864.1-9612c-0.1-0.3-0.2-0.6-0.2-0.9c-0.6,0.7-1.5,1.1-2.4,1c-0.7,0-1.5-0.2-2.1-0.7
		c-0.5-0.4-0.8-1.1-0.8-1.8c0-0.8,0.3-1.6,1-2.1c0.8-0.5,1.8-0.8,2.8-0.7h1.4v-0.7c0-0.4-0.1-0.9-0.5-1.2c-0.4-0.3-0.8-0.5-1.3-0.4
		c-0.5,0-0.9,0.1-1.3,0.4c-0.3,0.2-0.5,0.6-0.5,0.9h-1.4c0-0.4,0.2-0.9,0.4-1.2c0.3-0.4,0.7-0.7,1.2-0.9c0.5-0.2,1.1-0.3,1.7-0.3
		c0.8,0,1.6,0.2,2.3,0.7c0.6,0.5,0.9,1.2,0.9,2v3.9c0,0.6,0.1,1.3,0.3,1.9v0.1H-5864.1z M-5866.5-9613.1c0.5,0,0.9-0.1,1.3-0.4
		c0.4-0.2,0.7-0.5,0.9-0.9v-1.7h-1.1c-1.8,0-2.7,0.5-2.7,1.6c0,0.4,0.1,0.8,0.5,1.1C-5867.3-9613.2-5866.9-9613.1-5866.5-9613.1
		L-5866.5-9613.1z M-5858.6-9622.5v2h1.6v1.1h-1.6v5.2c0,0.3,0.1,0.5,0.2,0.8c0.2,0.2,0.5,0.3,0.7,0.3c0.2,0,0.5,0,0.7-0.1v1.2
		c-0.4,0.1-0.7,0.2-1.1,0.2c-0.6,0-1.1-0.2-1.5-0.6c-0.4-0.5-0.5-1.1-0.5-1.7v-5.2h-1.5v-1.1h1.5v-2H-5858.6z M-5851.3-9619.2
		c-0.2,0-0.5-0.1-0.7-0.1c-0.8-0.1-1.6,0.4-1.9,1.2v6h-1.4v-8.5h1.4l0,1c0.4-0.7,1.2-1.2,2-1.1c0.2,0,0.4,0,0.6,0.1L-5851.3-9619.2z
		 M-5848.4-9612h-1.4v-8.5h1.4V-9612z M-5849.9-9622.7c0-0.2,0.1-0.4,0.2-0.6c0.2-0.2,0.4-0.3,0.6-0.2c0.2,0,0.5,0.1,0.6,0.2
		c0.1,0.2,0.2,0.4,0.2,0.6c0,0.2-0.1,0.4-0.2,0.6c-0.2,0.2-0.4,0.3-0.6,0.2c-0.2,0-0.5-0.1-0.6-0.2
		C-5849.9-9622.3-5849.9-9622.5-5849.9-9622.7z M-5842.7-9613c0.5,0,1-0.2,1.4-0.5c0.4-0.3,0.6-0.7,0.6-1.2h1.4c0,0.5-0.2,1-0.5,1.4
		c-0.3,0.4-0.7,0.8-1.2,1c-0.5,0.3-1.1,0.4-1.6,0.4c-1,0-2.1-0.4-2.7-1.2c-0.7-0.9-1.1-2-1-3.2v-0.2c0-0.8,0.1-1.5,0.5-2.2
		c0.3-0.6,0.7-1.1,1.3-1.5c0.6-0.4,1.3-0.5,2-0.5c0.9,0,1.7,0.3,2.4,0.9c0.6,0.6,1,1.4,1,2.2h-1.4c0-0.5-0.2-1-0.6-1.3
		c-0.4-0.4-0.9-0.5-1.4-0.5c-0.7,0-1.3,0.3-1.7,0.8c-0.4,0.7-0.7,1.5-0.6,2.3v0.3c-0.1,0.8,0.2,1.6,0.6,2.2
		C-5844-9613.3-5843.3-9613-5842.7-9613L-5842.7-9613z M-5832.5-9612.8c-0.6,0.7-1.5,1.1-2.5,1c-0.8,0.1-1.5-0.2-2.1-0.8
		c-0.5-0.7-0.8-1.5-0.7-2.3v-5.5h1.4v5.5c0,1.3,0.5,1.9,1.6,1.9c0.9,0.1,1.8-0.4,2.2-1.2v-6.1h1.4v8.5h-1.4L-5832.5-9612.8z
		 M-5827.3-9612h-1.4v-12h1.4V-9612z M-5819.8-9612c-0.1-0.3-0.2-0.6-0.2-0.9c-0.6,0.7-1.5,1.1-2.4,1c-0.7,0-1.5-0.2-2.1-0.7
		c-0.5-0.4-0.8-1.1-0.8-1.8c0-0.8,0.3-1.6,1-2.1c0.8-0.5,1.8-0.8,2.8-0.7h1.4v-0.7c0-0.4-0.1-0.9-0.4-1.2c-0.4-0.3-0.8-0.5-1.3-0.4
		c-0.5,0-0.9,0.1-1.3,0.4c-0.3,0.2-0.5,0.6-0.5,0.9h-1.5c0-0.4,0.2-0.9,0.4-1.2c0.3-0.4,0.7-0.7,1.2-0.9c0.5-0.2,1.1-0.3,1.7-0.3
		c0.8,0,1.6,0.2,2.3,0.7c0.6,0.5,0.9,1.2,0.9,2v3.9c0,0.6,0.1,1.3,0.3,1.9v0.1H-5819.8z M-5822.2-9613.1c0.5,0,0.9-0.1,1.3-0.4
		c0.4-0.2,0.7-0.5,0.9-0.9v-1.7h-1.1c-1.8,0-2.7,0.5-2.7,1.6c0,0.4,0.1,0.8,0.5,1.1C-5823-9613.2-5822.6-9613.1-5822.2-9613.1
		L-5822.2-9613.1z M-5812.2-9619.2c-0.2,0-0.5-0.1-0.7-0.1c-0.8-0.1-1.6,0.4-1.9,1.2v6h-1.4v-8.5h1.4l0,1c0.4-0.7,1.2-1.2,2-1.1
		c0.2,0,0.4,0,0.6,0.1V-9619.2z M-5806-9614.2c0-0.4-0.1-0.7-0.4-0.9c-0.5-0.3-1-0.5-1.5-0.6c-0.6-0.1-1.2-0.3-1.7-0.6
		c-0.4-0.2-0.7-0.4-1-0.8c-0.2-0.3-0.3-0.7-0.3-1.1c0-0.7,0.3-1.3,0.9-1.8c0.6-0.5,1.4-0.8,2.3-0.7c0.8,0,1.7,0.2,2.3,0.7
		c0.6,0.5,0.9,1.2,0.9,1.9h-1.5c0-0.4-0.2-0.8-0.5-1c-0.4-0.3-0.8-0.4-1.3-0.4c-0.4,0-0.9,0.1-1.2,0.3c-0.3,0.2-0.5,0.5-0.4,0.9
		c0,0.3,0.1,0.6,0.4,0.8c0.5,0.2,1,0.4,1.5,0.5c0.6,0.1,1.2,0.3,1.8,0.6c0.4,0.2,0.7,0.5,1,0.8c0.2,0.3,0.3,0.7,0.3,1.2
		c0,0.7-0.3,1.4-0.9,1.8c-0.7,0.5-1.5,0.7-2.4,0.7c-0.6,0-1.2-0.1-1.8-0.4c-0.5-0.2-0.9-0.6-1.2-1c-0.3-0.4-0.4-0.9-0.4-1.4h1.4
		c0,0.5,0.2,0.9,0.6,1.2c0.4,0.3,0.9,0.5,1.4,0.4c0.5,0,0.9-0.1,1.3-0.3C-5806.1-9613.5-5805.9-9613.9-5806-9614.2L-5806-9614.2z
		 M-5799.1-9611.8c-1.1,0-2.1-0.4-2.8-1.1c-0.7-0.8-1.1-1.9-1.1-3v-0.3c0-0.8,0.2-1.5,0.5-2.2c0.3-0.6,0.8-1.2,1.3-1.6
		c0.6-0.4,1.2-0.6,1.9-0.6c1-0.1,1.9,0.3,2.6,1.1c0.7,0.9,1,2,0.9,3.1v0.6h-5.7c0,0.7,0.2,1.5,0.7,2c0.5,0.5,1.1,0.8,1.8,0.8
		c0.5,0,0.9-0.1,1.3-0.3c0.4-0.2,0.7-0.5,0.9-0.8l0.9,0.7C-5796.6-9612.4-5797.8-9611.8-5799.1-9611.8L-5799.1-9611.8z
		 M-5799.3-9619.4c-0.6,0-1.1,0.2-1.5,0.6c-0.4,0.5-0.7,1.1-0.7,1.8h4.2v-0.1c0-0.6-0.2-1.2-0.6-1.7
		C-5798.2-9619.2-5798.7-9619.4-5799.3-9619.4L-5799.3-9619.4z M-5786.7-9611.8c-1.1,0-2.1-0.4-2.8-1.1c-0.7-0.8-1.1-1.9-1.1-3v-0.3
		c0-0.8,0.2-1.5,0.5-2.2c0.3-0.6,0.8-1.2,1.3-1.5c0.6-0.4,1.2-0.6,1.9-0.6c1-0.1,1.9,0.3,2.6,1.1c0.7,0.9,1,2,0.9,3.1v0.6h-5.7
		c0,0.7,0.2,1.5,0.7,2c0.5,0.5,1.1,0.8,1.8,0.8c0.5,0,0.9-0.1,1.3-0.3c0.4-0.2,0.7-0.5,0.9-0.8l0.9,0.7
		C-5784.2-9612.4-5785.4-9611.8-5786.7-9611.8L-5786.7-9611.8z M-5786.9-9619.4c-0.6,0-1.1,0.2-1.5,0.6c-0.4,0.5-0.7,1.1-0.7,1.8
		h4.2v-0.1c0-0.6-0.2-1.2-0.6-1.7C-5785.8-9619.2-5786.3-9619.4-5786.9-9619.4L-5786.9-9619.4z M-5780.3-9620.4l0,1.1
		c0.6-0.8,1.5-1.2,2.5-1.2c1.8,0,2.7,1,2.7,3v5.6h-1.4v-5.6c0-0.5-0.1-1-0.4-1.4c-0.3-0.3-0.8-0.5-1.3-0.4c-0.4,0-0.9,0.1-1.2,0.4
		c-0.4,0.3-0.6,0.6-0.8,1v6h-1.4v-8.5L-5780.3-9620.4z M-5765.4-9611.8c-1.1,0-2.1-0.4-2.8-1.1c-0.7-0.8-1.1-1.9-1.1-3v-0.3
		c0-0.8,0.2-1.5,0.5-2.2c0.3-0.6,0.8-1.2,1.3-1.5c0.6-0.4,1.2-0.6,1.9-0.6c1-0.1,1.9,0.3,2.6,1.1c0.7,0.9,1,2,0.9,3.1v0.6h-5.7
		c0,0.7,0.2,1.5,0.7,2c0.5,0.5,1.1,0.8,1.8,0.8c0.5,0,0.9-0.1,1.3-0.3c0.4-0.2,0.7-0.5,0.9-0.8l0.9,0.7
		C-5762.9-9612.4-5764.1-9611.8-5765.4-9611.8L-5765.4-9611.8z M-5765.6-9619.4c-0.6,0-1.1,0.2-1.5,0.6c-0.4,0.5-0.7,1.1-0.7,1.8
		h4.2v-0.1c0-0.6-0.2-1.2-0.6-1.7C-5764.5-9619.2-5765-9619.4-5765.6-9619.4L-5765.6-9619.4z M-5758.9-9612h-1.4v-12h1.4V-9612z
		 M-5880.1-9595.2c-0.2,0-0.5-0.1-0.7-0.1c-0.8-0.1-1.6,0.4-1.9,1.2v6h-1.4v-8.5h1.4l0,1c0.4-0.7,1.2-1.2,2-1.1c0.2,0,0.4,0,0.6,0.1
		L-5880.1-9595.2z M-5875.4-9587.8c-1.1,0-2.1-0.4-2.8-1.1c-0.7-0.8-1.1-1.9-1.1-3v-0.3c0-0.8,0.2-1.5,0.5-2.2
		c0.3-0.6,0.8-1.2,1.3-1.5c0.6-0.4,1.2-0.6,1.9-0.6c1-0.1,1.9,0.3,2.6,1.1c0.7,0.9,1,2,0.9,3.1v0.6h-5.7c0,0.7,0.2,1.5,0.7,2
		c0.5,0.5,1.1,0.8,1.8,0.8c0.5,0,0.9-0.1,1.3-0.3c0.4-0.2,0.7-0.5,0.9-0.8l0.9,0.7C-5872.9-9588.4-5874.1-9587.8-5875.4-9587.8
		L-5875.4-9587.8z M-5875.5-9595.4c-0.6,0-1.1,0.2-1.5,0.6c-0.4,0.5-0.7,1.1-0.7,1.8h4.2v-0.1c0-0.6-0.2-1.2-0.6-1.7
		C-5874.5-9595.2-5875-9595.4-5875.5-9595.4L-5875.5-9595.4z M-5870.7-9592.3c-0.1-1.1,0.3-2.2,0.9-3.1c1.1-1.4,3.1-1.6,4.4-0.5
		c0.1,0.1,0.3,0.2,0.4,0.4l0.1-0.9h1.3v8.3c0.1,1-0.3,1.9-1,2.6c-0.7,0.7-1.7,1-2.6,0.9c-0.6,0-1.2-0.1-1.8-0.4
		c-0.5-0.2-1-0.6-1.3-1.1l0.8-0.9c0.5,0.7,1.4,1.1,2.3,1.1c0.6,0,1.2-0.2,1.6-0.6c0.4-0.5,0.6-1.1,0.6-1.7v-0.7
		c-0.6,0.7-1.5,1-2.4,1c-0.9,0-1.8-0.4-2.4-1.2C-5870.5-9590-5870.8-9591.1-5870.7-9592.3L-5870.7-9592.3z M-5869.3-9592.1
		c0,0.8,0.2,1.6,0.6,2.2c0.4,0.5,1,0.8,1.6,0.8c0.9,0,1.7-0.5,2-1.2v-3.9c-0.4-0.8-1.1-1.2-2-1.2c-0.7,0-1.3,0.3-1.6,0.8
		C-5869.1-9593.8-5869.3-9593-5869.3-9592.1L-5869.3-9592.1z M-5859.9-9588h-1.4v-8.5h1.4L-5859.9-9588z M-5861.4-9598.7
		c0-0.2,0.1-0.4,0.2-0.6c0.2-0.2,0.4-0.3,0.6-0.2c0.2,0,0.5,0.1,0.6,0.2c0.1,0.2,0.2,0.4,0.2,0.6c0,0.2-0.1,0.4-0.2,0.6
		c-0.2,0.2-0.4,0.3-0.6,0.2c-0.2,0-0.5-0.1-0.6-0.2C-5861.3-9598.3-5861.4-9598.5-5861.4-9598.7z M-5852.6-9590.2
		c0-0.4-0.2-0.7-0.4-0.9c-0.5-0.3-1-0.5-1.5-0.6c-0.6-0.1-1.2-0.3-1.7-0.6c-0.4-0.2-0.7-0.4-1-0.8c-0.2-0.3-0.3-0.7-0.3-1.1
		c0-0.7,0.3-1.3,0.9-1.8c0.6-0.5,1.4-0.8,2.2-0.7c0.8,0,1.7,0.2,2.3,0.7c0.6,0.5,0.9,1.2,0.9,1.9h-1.5c0-0.4-0.2-0.8-0.5-1
		c-0.4-0.3-0.8-0.4-1.3-0.4c-0.4,0-0.9,0.1-1.2,0.3c-0.3,0.2-0.5,0.5-0.4,0.9c0,0.3,0.1,0.6,0.4,0.8c0.5,0.2,1,0.4,1.5,0.5
		c0.6,0.1,1.2,0.3,1.8,0.6c0.4,0.2,0.7,0.5,1,0.8c0.2,0.3,0.3,0.7,0.3,1.2c0,0.7-0.3,1.4-0.9,1.8c-0.7,0.5-1.5,0.7-2.4,0.7
		c-0.6,0-1.2-0.1-1.8-0.4c-0.5-0.2-0.9-0.6-1.2-1c-0.3-0.4-0.4-0.9-0.4-1.4h1.4c0,0.5,0.2,0.9,0.6,1.2c0.4,0.3,0.9,0.5,1.4,0.4
		c0.5,0,0.9-0.1,1.3-0.3C-5852.8-9589.5-5852.6-9589.9-5852.6-9590.2L-5852.6-9590.2z M-5847.3-9598.5v2h1.6v1.1h-1.6v5.2
		c0,0.3,0.1,0.5,0.2,0.8c0.2,0.2,0.5,0.3,0.7,0.3c0.2,0,0.5,0,0.7-0.1v1.2c-0.4,0.1-0.7,0.2-1.1,0.2c-0.6,0-1.1-0.2-1.5-0.6
		c-0.4-0.5-0.5-1.1-0.5-1.7v-5.2h-1.5v-1.1h1.5v-2H-5847.3z M-5840-9595.2c-0.2,0-0.5-0.1-0.7-0.1c-0.8-0.1-1.6,0.4-1.9,1.2v6h-1.4
		v-8.5h1.4l0,1c0.4-0.7,1.2-1.2,2-1.1c0.2,0,0.4,0,0.6,0.1V-9595.2z M-5839.2-9592.3c0-0.8,0.2-1.5,0.5-2.2c0.3-0.6,0.8-1.2,1.4-1.5
		c0.6-0.4,1.3-0.6,2-0.5c1.1,0,2.1,0.4,2.8,1.2c0.7,0.9,1.1,2,1.1,3.2v0.1c0,0.8-0.1,1.5-0.5,2.2c-0.3,0.6-0.8,1.2-1.4,1.5
		c-0.6,0.4-1.3,0.6-2,0.5c-1.1,0-2.1-0.4-2.8-1.2c-0.7-0.9-1.1-2-1.1-3.2V-9592.3z M-5837.7-9592.1c0,0.8,0.2,1.6,0.7,2.3
		c0.7,1,2.1,1.1,3.1,0.4c0.1-0.1,0.3-0.2,0.4-0.4c0.5-0.7,0.7-1.6,0.6-2.4c0-0.8-0.2-1.6-0.7-2.3c-0.4-0.6-1.1-0.9-1.8-0.9
		c-0.7,0-1.3,0.3-1.7,0.9C-5837.6-9593.8-5837.8-9593-5837.7-9592.1L-5837.7-9592.1z M-5824.4-9596.5l0,0.9c0.6-0.7,1.5-1.1,2.5-1.1
		c1-0.1,2,0.4,2.4,1.4c0.3-0.4,0.7-0.7,1.1-1c0.5-0.3,1-0.4,1.6-0.4c1.9,0,2.8,1,2.8,2.9v5.7h-1.4v-5.6c0-0.5-0.1-1-0.4-1.4
		c-0.4-0.3-0.9-0.5-1.4-0.4c-0.5,0-1,0.2-1.3,0.5c-0.4,0.3-0.6,0.8-0.6,1.3v5.6h-1.5v-5.5c0.1-0.9-0.5-1.7-1.4-1.8
		c-0.1,0-0.3,0-0.4,0c-0.8-0.1-1.6,0.4-1.9,1.2v6.2h-1.5v-8.5L-5824.4-9596.5z M-5808.2-9587.8c-1.1,0-2.1-0.4-2.8-1.1
		c-0.7-0.8-1.1-1.9-1.1-3v-0.3c0-0.8,0.2-1.5,0.5-2.2c0.3-0.6,0.8-1.2,1.3-1.5c0.6-0.4,1.2-0.6,1.9-0.6c1-0.1,1.9,0.3,2.6,1.1
		c0.7,0.9,1,2,0.9,3.1v0.6h-5.7c0,0.7,0.2,1.5,0.7,2c0.5,0.5,1.1,0.8,1.8,0.8c0.5,0,0.9-0.1,1.3-0.3c0.4-0.2,0.7-0.5,0.9-0.8
		l0.9,0.7C-5805.7-9588.4-5806.9-9587.8-5808.2-9587.8L-5808.2-9587.8z M-5808.4-9595.4c-0.6,0-1.1,0.2-1.5,0.6
		c-0.4,0.5-0.7,1.1-0.7,1.8h4.2v-0.1c0-0.6-0.2-1.2-0.6-1.7C-5807.3-9595.2-5807.8-9595.4-5808.4-9595.4L-5808.4-9595.4z
		 M-5799.1-9595.2c-0.2,0-0.5-0.1-0.7-0.1c-0.8-0.1-1.6,0.4-1.9,1.2v6h-1.4v-8.5h1.4l0,1c0.4-0.7,1.2-1.2,2-1.1c0.2,0,0.4,0,0.6,0.1
		V-9595.2z M-5794.6-9589c0.5,0,1-0.2,1.4-0.5c0.4-0.3,0.6-0.7,0.6-1.2h1.4c0,0.5-0.2,1-0.5,1.4c-0.3,0.4-0.7,0.8-1.2,1
		c-0.5,0.3-1.1,0.4-1.6,0.4c-1,0-2.1-0.4-2.8-1.2c-0.7-0.9-1.1-2-1-3.2v-0.2c0-0.8,0.1-1.5,0.5-2.2c0.3-0.6,0.7-1.1,1.3-1.5
		c0.6-0.4,1.3-0.5,2-0.5c0.9,0,1.7,0.3,2.4,0.9c0.6,0.6,1,1.4,1,2.2h-1.4c0-0.5-0.2-1-0.6-1.3c-0.4-0.4-0.9-0.5-1.4-0.5
		c-0.7,0-1.3,0.3-1.7,0.8c-0.4,0.7-0.7,1.5-0.6,2.3v0.3c-0.1,0.8,0.2,1.6,0.6,2.2C-5795.9-9589.3-5795.2-9589-5794.6-9589
		L-5794.6-9589z M-5784.4-9588c-0.1-0.3-0.2-0.6-0.2-0.9c-0.6,0.7-1.5,1.1-2.4,1c-0.7,0-1.5-0.2-2.1-0.7c-0.5-0.4-0.8-1.1-0.8-1.8
		c0-0.8,0.3-1.6,1-2.1c0.8-0.5,1.8-0.8,2.8-0.7h1.4v-0.7c0-0.4-0.1-0.9-0.5-1.2c-0.4-0.3-0.8-0.5-1.3-0.4c-0.5,0-0.9,0.1-1.3,0.4
		c-0.3,0.2-0.5,0.6-0.5,0.9h-1.5c0-0.4,0.2-0.9,0.4-1.2c0.3-0.4,0.7-0.7,1.2-0.9c0.5-0.2,1.1-0.4,1.7-0.3c0.8,0,1.6,0.2,2.3,0.7
		c0.6,0.5,0.9,1.2,0.9,2v3.9c0,0.6,0.1,1.3,0.3,1.9v0.1H-5784.4z M-5786.8-9589.1c0.5,0,0.9-0.1,1.3-0.4c0.4-0.2,0.7-0.5,0.9-0.9
		v-1.7h-1.1c-1.8,0-2.7,0.5-2.7,1.6c0,0.4,0.1,0.8,0.5,1.1C-5787.6-9589.2-5787.2-9589.1-5786.8-9589.1L-5786.8-9589.1z
		 M-5779.5-9596.5l0,1.1c0.6-0.8,1.5-1.2,2.5-1.2c1.8,0,2.7,1,2.7,3v5.6h-1.4v-5.6c0-0.5-0.1-1-0.4-1.4c-0.3-0.3-0.8-0.5-1.3-0.4
		c-0.4,0-0.9,0.1-1.2,0.4c-0.4,0.3-0.6,0.6-0.8,1v6h-1.4v-8.5L-5779.5-9596.5z M-5770.1-9598.5v2h1.6v1.1h-1.6v5.2
		c0,0.3,0.1,0.5,0.2,0.8c0.2,0.2,0.5,0.3,0.7,0.3c0.2,0,0.5,0,0.7-0.1v1.2c-0.4,0.1-0.7,0.2-1.1,0.2c-0.6,0-1.1-0.2-1.5-0.6
		c-0.4-0.5-0.5-1.1-0.5-1.7v-5.2h-1.5v-1.1h1.5v-2L-5770.1-9598.5z M-5765.2-9588h-1.5v-8.5h1.4L-5765.2-9588z M-5766.8-9598.7
		c0-0.2,0.1-0.4,0.2-0.6c0.2-0.2,0.4-0.3,0.6-0.2c0.2,0,0.5,0.1,0.6,0.2c0.1,0.2,0.2,0.4,0.2,0.6c0,0.2-0.1,0.4-0.2,0.6
		c-0.2,0.2-0.4,0.3-0.6,0.2c-0.2,0-0.5-0.1-0.6-0.2C-5766.7-9598.3-5766.8-9598.5-5766.8-9598.7z M-5761.4-9588h-1.4v-12h1.4V-9588z
		"/>
	<g id="Trazado_108340" transform="translate(-5978 -9653.998)">
		<path class="st3" d="M37,73.5c-4.9,0-9.7-1-14.2-2.9c-4.3-1.8-8.2-4.5-11.6-7.8c-3.4-3.4-6-7.3-7.8-11.6C1.5,46.7,0.5,41.9,0.5,37
			s1-9.7,2.9-14.2c1.8-4.3,4.5-8.2,7.8-11.6c3.4-3.4,7.3-6,11.6-7.8c4.5-1.9,9.3-2.9,14.2-2.9s9.7,1,14.2,2.9
			c4.3,1.8,8.2,4.5,11.6,7.8c3.4,3.4,6,7.3,7.8,11.6c1.9,4.5,2.9,9.3,2.9,14.2s-1,9.7-2.9,14.2c-1.8,4.3-4.5,8.2-7.8,11.6
			c-3.4,3.4-7.3,6-11.6,7.8C46.7,72.5,41.9,73.5,37,73.5z"/>
		<path class="st4" d="M37,1c-4.9,0-9.6,1-14,2.8c-4.3,1.8-8.1,4.4-11.4,7.7C8.2,14.9,5.6,18.7,3.8,23C2,27.4,1,32.1,1,37
			s1,9.6,2.8,14c1.8,4.3,4.4,8.1,7.7,11.4c3.3,3.3,7.2,5.9,11.4,7.7C27.4,72,32.1,73,37,73s9.6-1,14-2.8c4.3-1.8,8.1-4.4,11.4-7.7
			c3.3-3.3,5.9-7.2,7.7-11.4C72,46.6,73,41.9,73,37s-1-9.6-2.8-14c-1.8-4.3-4.4-8.1-7.7-11.4C59.1,8.2,55.3,5.6,51,3.8
			C46.6,2,41.9,1,37,1 M37,0c20.4,0,37,16.6,37,37S57.4,74,37,74S0,57.4,0,37S16.6,0,37,0z"/>
	</g>
	<path id="Trazado_108342" class="st5" d="M-5939.4-9605h-5v-15.8l-4.9,1.4v-3.8l9.4-3.2h0.5V-9605z"/>
</g>
</svg>
