<svg xmlns="http://www.w3.org/2000/svg" width="286" height="286" viewBox="0 0 286 286">
  <g id="Grupo_70499" data-name="Grupo 70499" transform="translate(-2105 -79)">
    <rect id="Rectángulo_31448" data-name="Rectángulo 31448" width="286" height="286" transform="translate(2105 79)" fill="none"/>
    <g id="grafico-11" transform="translate(2113.48 143.672)">
      <rect id="Rectángulo_31359" data-name="Rectángulo 31359" width="130.759" height="155.937" fill="#efdbc7"/>
      <rect id="Rectángulo_31360" data-name="Rectángulo 31360" width="117.579" height="145.35" transform="translate(6.597 5.949)" fill="#fff"/>
      <rect id="Rectángulo_31361" data-name="Rectángulo 31361" width="15.427" height="84.104" transform="translate(16.925 53.208)" fill="#f4e9dc"/>
      <rect id="Rectángulo_31362" data-name="Rectángulo 31362" width="15.427" height="58.667" transform="translate(37.292 78.631)" fill="#f4e9dc"/>
      <rect id="Rectángulo_31363" data-name="Rectángulo 31363" width="15.427" height="95.21" transform="translate(57.673 42.088)" fill="#f4e9dc"/>
      <rect id="Rectángulo_31364" data-name="Rectángulo 31364" width="15.427" height="82.217" transform="translate(78.04 55.08)" fill="#f4e9dc"/>
      <rect id="Rectángulo_31365" data-name="Rectángulo 31365" width="15.427" height="104.255" transform="translate(98.422 33.057)" fill="#f4e9dc"/>
      <line id="Línea_439" data-name="Línea 439" x2="102.109" transform="translate(15.887 136.995)" fill="none" stroke="#f4e9dc" stroke-miterlimit="10" stroke-width="1"/>
      <rect id="Rectángulo_31366" data-name="Rectángulo 31366" width="86.006" height="3.471" transform="translate(22.369 12.776)" fill="#f4e9dc" opacity="0.55"/>
      <rect id="Rectángulo_31367" data-name="Rectángulo 31367" width="67.569" height="3.471" transform="translate(31.588 18.739)" fill="#f4e9dc" opacity="0.55"/>
      <path id="Trazado_106366" data-name="Trazado 106366" d="M9.43,79.824,37.474,51.693,61.226,72.305l54.087-49.9" transform="translate(4.153 9.869)" fill="none" stroke="#d8ba98" stroke-miterlimit="10" stroke-width="1"/>
      <path id="Trazado_106367" data-name="Trazado 106367" d="M80.48,21.85h4.163v4.163" transform="translate(35.443 9.623)" fill="#d8ba98"/>
      <path id="Trazado_106368" data-name="Trazado 106368" d="M115.022,80l11.422.4a17.742,17.742,0,0,1,2.3.187.663.663,0,0,1,.447.216.475.475,0,0,1-.115.619,1.44,1.44,0,0,1-.648.274l-3.9.864c3.212,1.167,10.284,3.543,10.284,4.609s-6.482-.691-9.694-1.224c2.881.706,10.414,3.27,9.953,4.408s-7.922-1.109-10.731-1.44c3.226.807,9.665,2.42,9.363,3.356s-6.626-.447-9.881-1.181a39.221,39.221,0,0,1,7.2,2.319c.418.173.893.461.879.922a1.93,1.93,0,0,1-.994,0,69.873,69.873,0,0,1-14.145-3,36.7,36.7,0,0,0-6.525-1.757" transform="translate(48.548 35.231)" fill="#dd936f"/>
      <path id="Trazado_106369" data-name="Trazado 106369" d="M115.22,83.777a4.019,4.019,0,0,0,2.881-.086,10.716,10.716,0,0,0,2.564-1.44" transform="translate(50.742 36.222)" fill="none" stroke="#bc775c" stroke-linejoin="round" stroke-width="0.5"/>
      <path id="Trazado_106370" data-name="Trazado 106370" d="M75.938,71.537s9.492,22.787,18.221,30.248c4.321,3.659,36.01,8.3,36.01,8.3l3.356-12.733s-23.8-10.4-26.474-13.079S99.273,54.871,90.3,45.9c-4.048-4.105-16.089-6.7-16.089-6.7" transform="translate(32.681 17.263)" fill="#9c8c86"/>
      <path id="Trazado_106371" data-name="Trazado 106371" d="M92.874,115.989c-.475-13.554-.922-25.279-.922-25.279l-31.53,9.867c-.907,3.817-.49,9.19.591,15.412Z" transform="translate(26.39 39.948)" fill="#563238"/>
      <path id="Trazado_106372" data-name="Trazado 106372" d="M77.107,117.715c.994-8.873,1.6-15.844,1.6-19.6L45.361,86.79a151.37,151.37,0,0,0-2.1,30.925Z" transform="translate(19.01 38.221)" fill="#563238"/>
      <path id="Trazado_106373" data-name="Trazado 106373" d="M60.081,95.76a54.1,54.1,0,0,0-.461,9.161" transform="translate(26.242 42.172)" fill="none" stroke="#603e45" stroke-miterlimit="10" stroke-width="0.5"/>
      <path id="Trazado_106374" data-name="Trazado 106374" d="M78.33,90q.374,8.844.72,17.688" transform="translate(34.496 39.635)" fill="none" stroke="#603e45" stroke-miterlimit="10" stroke-width="0.5"/>
      <path id="Trazado_106375" data-name="Trazado 106375" d="M48.786,48.151c-2.881,18.855-5.675,47.922-3.414,67.7,16.305,9.478,36.773,7.965,55.066,3.342,1.138-10.572-.706-61.663-5.762-71.04,0,0-.979-9.175-18.639-9.175-1.959,0-8.887-.706-8.887-.706Z" transform="translate(19.618 16.854)" fill="#fda55c"/>
      <path id="Trazado_106376" data-name="Trazado 106376" d="M78.361,34.628l-.3,8.441,4.58,1.858s-4.48,5.762-10.716,5.762S60.27,42.651,60.27,42.651l5.546-.677,4-13.684" transform="translate(26.542 12.459)" fill="#dd936f"/>
      <path id="Trazado_106377" data-name="Trazado 106377" d="M82.672,20.678s2.477,17.357,0,19.834-11.854,1.685-13.54,0-5.013-9.766-5.013-13.28S75.629,9.948,82.672,20.678Z" transform="translate(28.238 7.337)" fill="#dd936f"/>
      <path id="Trazado_106378" data-name="Trazado 106378" d="M68.152,13.962a12.33,12.33,0,0,0-8.2,8.642c-1.916,6.885.3,17.126,8.642,18.336a3.5,3.5,0,0,0,1.887-.13,1.786,1.786,0,0,0,1.152-1.44,2.967,2.967,0,0,0-.49-1.57,12.474,12.474,0,0,1-1.44-7.908,24.732,24.732,0,0,1,.907-2.549,11.193,11.193,0,0,1,.879-2.247,3.961,3.961,0,0,1,2.578-1.873c1.973-.4,3.414,1.527,5.344.922a8.368,8.368,0,0,0,1.844-1.124,2.261,2.261,0,0,1,2-.4c.4.158.821.533,1.224.346a1.023,1.023,0,0,0,.447-.879,6.611,6.611,0,0,0-1.253-5.272,11.077,11.077,0,0,0-4.652-2.78,17.6,17.6,0,0,0-10.875-.072Z" transform="translate(26.121 5.785)" fill="#49497a"/>
      <path id="Trazado_106379" data-name="Trazado 106379" d="M68.4,27.077c-1.095-1.268-3.385-1.44-3.587.663A4.768,4.768,0,0,0,67.4,32.248a2.117,2.117,0,0,0,2.477-.893" transform="translate(28.539 11.511)" fill="#dd936f"/>
      <path id="Trazado_106380" data-name="Trazado 106380" d="M72,26.686a8.022,8.022,0,0,0-.288-1.3c-.173-.389-.778-.864-1.051-.288a2.348,2.348,0,0,0,.245,2.045A.619.619,0,0,0,72,26.686Z" transform="translate(31.06 10.937)" fill="#563238"/>
      <path id="Trazado_106381" data-name="Trazado 106381" d="M76.9,25.906a6.165,6.165,0,0,0-.13-1.354c-.13-.375-.634-.951-.979-.4a2.348,2.348,0,0,0,0,2.06.619.619,0,0,0,1.109-.3Z" transform="translate(33.274 10.536)" fill="#563238"/>
      <path id="Trazado_106382" data-name="Trazado 106382" d="M68.33,24.536a4.321,4.321,0,0,1,4.854-.965" transform="translate(30.092 10.22)" fill="none" stroke="#563238" stroke-miterlimit="10" stroke-width="0.5"/>
      <path id="Trazado_106383" data-name="Trazado 106383" d="M74.33,23.161a2.463,2.463,0,0,1,3.111-.965" transform="translate(32.734 9.68)" fill="none" stroke="#563238" stroke-miterlimit="10" stroke-width="0.5"/>
      <path id="Trazado_106384" data-name="Trazado 106384" d="M75.242,24.81c1.268,2.29,1.829,5.243.994,5.762a5.041,5.041,0,0,1-3.615,0" transform="translate(31.981 10.926)" fill="none" stroke="#bc775c" stroke-linejoin="round" stroke-width="0.5"/>
      <path id="Trazado_106385" data-name="Trazado 106385" d="M77.773,30.11H71.32a3.543,3.543,0,0,0,3.86,2.722,2.636,2.636,0,0,0,2.593-2.722Z" transform="translate(31.409 13.26)" fill="#fff"/>
      <path id="Trazado_106386" data-name="Trazado 106386" d="M78.067,138.673h7.2a8.9,8.9,0,0,0,4.12-4.465V61.483S88.279,52.84,87.746,48s-13.5-8.8-13.5-8.8,3.284,34.022,3.284,58.48C77.476,116.52,77.88,132.379,78.067,138.673Z" transform="translate(32.699 17.263)" fill="#9c8c86"/>
      <line id="Línea_440" data-name="Línea 440" y1="32.149" transform="translate(122.03 78.746)" fill="none" stroke="#7c6760" stroke-miterlimit="10" stroke-width="0.75"/>
      <path id="Trazado_106387" data-name="Trazado 106387" d="M71.836,139.14V78.37a400.156,400.156,0,0,0-1.728-40.23s-16.348.2-21.606,6.367S42.6,122.143,41.53,135.885a23.608,23.608,0,0,0,5.128,3.212Z" transform="translate(18.289 16.796)" fill="#9c8c86"/>
      <path id="Trazado_106388" data-name="Trazado 106388" d="M56.021,38.8s-2.881,22.369-1.08,23.622a54.591,54.591,0,0,0,5.027,2.593L55.5,67.781c.23,11,9.593,34.843,9.593,34.843" transform="translate(23.935 17.087)" fill="none" stroke="#7c6760" stroke-linejoin="round" stroke-width="0.75"/>
      <path id="Trazado_106389" data-name="Trazado 106389" d="M76.21,40.1s5.574,14.015,5.2,18.653c0,1.44-3.8,3.7-3.8,3.7l4.321,2a190.636,190.636,0,0,1-4.321,35.39" transform="translate(33.562 17.66)" fill="none" stroke="#7c6760" stroke-linejoin="round" stroke-width="0.75"/>
      <path id="Trazado_106390" data-name="Trazado 106390" d="M57.845,111.2c0-.317.173-.648.475-.648a.72.72,0,0,1,.4.173,3.313,3.313,0,0,1,.547.475h1.8c-.086-.187-.173-.36-.23-.461a31.934,31.934,0,0,0-7.389-9.146l-6.122,4.321a23.392,23.392,0,0,0,1.008,5.257Z" transform="translate(20.844 44.739)" fill="#dd936f"/>
      <path id="Trazado_106391" data-name="Trazado 106391" d="M62.5,39.14s-10.7,1.44-17.069,8.21c-7.72,8.282-14.519,36.4-12.733,48.973,3.745,26.46,20.583,40.561,20.583,40.561l10.457-6.453s-9.463-29.384-9.463-35.4,4.739-22.96,4.739-22.96" transform="translate(14.273 17.237)" fill="#9c8c86"/>
      <path id="Trazado_106392" data-name="Trazado 106392" d="M57.053,124.306S47.59,94.922,47.59,88.9s7.2-35.851,7.2-35.851" transform="translate(20.958 23.363)" fill="none" stroke="#7c6760" stroke-miterlimit="10" stroke-width="0.75"/>
      <path id="Trazado_106393" data-name="Trazado 106393" d="M160.719,34.273a15.4,15.4,0,0,1,4.508,6.352,8.383,8.383,0,0,0,1.052,3.111,3.471,3.471,0,0,0,4.566.461,5.992,5.992,0,0,0,2.29-4.321,5.618,5.618,0,0,0-.2-2.449,6.28,6.28,0,0,0-2.665-2.881,15.844,15.844,0,0,0-4.768-2.06c-1.772-.432-3.63-.562-5.4-1.037" transform="translate(70.506 13.85)" fill="#030334"/>
      <path id="Trazado_106394" data-name="Trazado 106394" d="M177.907,115.989c.792-6.309.994-11.739.115-15.412l-31.53-9.867s-.144,11.725-.3,25.279Z" transform="translate(64.38 39.948)" fill="#558f99"/>
      <path id="Trazado_106395" data-name="Trazado 106395" d="M165.053,90.84q-1.008,8.124-1.973,16.233" transform="translate(71.819 40.005)" fill="none" stroke="#327077" stroke-miterlimit="10" stroke-width="0.5"/>
      <path id="Trazado_106396" data-name="Trazado 106396" d="M197.12,117.715A150.417,150.417,0,0,0,195,86.79L158.59,98.111c.591,4.667,1.714,11.523,3.169,19.6Z" transform="translate(69.841 38.221)" fill="#558f99"/>
      <path id="Trazado_106397" data-name="Trazado 106397" d="M177.8,93.68c.778,3.918.461,8.253.547,12.243" transform="translate(78.301 41.256)" fill="none" stroke="#327077" stroke-miterlimit="10" stroke-width="0.5"/>
      <path id="Trazado_106398" data-name="Trazado 106398" d="M158.99,42.2c-3.385-.648-7.432-1.109-9.823,1.44a10,10,0,0,0-2.1,5.589c-2.434,16.176-1.311,32.639-.187,48.973q.994,14.4,1.973,28.808a4,4,0,0,0,.591,2.175,3.889,3.889,0,0,0,2.319,1.2,56.29,56.29,0,0,0,34.3-2.737c2.2-.907,4.494-2.1,5.531-4.249a10.3,10.3,0,0,0,.389-5.877c-1.541-11.091-4.955-21.894-5.891-33.043-.749-8.945.115-17.976-.907-26.892-.562-4.941-1.829-10.083-5.1-13.756s-9.046-5.646-13.41-3.27" transform="translate(64.127 17.404)" fill="#9e3543"/>
      <path id="Trazado_106399" data-name="Trazado 106399" d="M147.69,22.881s.072,17.515,2.881,19.618,11.97,0,13.4-1.973,3.486-10.371,2.982-13.8S153.048,11.272,147.69,22.881Z" transform="translate(65.041 7.9)" fill="#ffccb0"/>
      <path id="Trazado_106400" data-name="Trazado 106400" d="M152.679,35.061l.288,9.161L150,44.928s.173,5.027,9.118,3.961,10.241-6.4,10.241-6.4h-4.134l-4-13.684" transform="translate(66.058 12.688)" fill="#ffccb0"/>
      <path id="Trazado_106401" data-name="Trazado 106401" d="M159.133,39.51s-10.457.792-16.046,9.118C134.445,61.591,132.04,79.366,133.6,93.5s19.056,36.615,19.056,36.615l3.889-4.681s-8.484-28.635-8.484-36.24,5.589-25.495,5.589-25.495" transform="translate(58.639 17.4)" fill="#aed3f2"/>
      <path id="Trazado_106402" data-name="Trazado 106402" d="M140.25,62.326c.951,16.709,3.615,63.564,3.947,69.312,1.858,4.71,11.523,6.4,11.523,6.4s-.374-18.567-1.7-41.887,1.959-56.636,1.959-56.636S141.4,44.7,141.129,49.362,140.25,62.326,140.25,62.326Z" transform="translate(61.765 17.4)" fill="#aed3f2"/>
      <line id="Línea_441" data-name="Línea 441" x1="3.918" y1="60.251" transform="translate(202.015 79.726)" fill="none" stroke="#6796bd" stroke-miterlimit="10" stroke-width="0.75"/>
      <path id="Trazado_106403" data-name="Trazado 106403" d="M196.59,129.843c-10.212,9.233-29.931,7.548-29.931,7.548s-2.117-37.047-3.428-60.626a364.791,364.791,0,0,1-.447-38.458s17.371-1.267,25.12,15.672C198.808,77.759,196.59,115.166,196.59,129.843Z" transform="translate(71.553 16.86)" fill="#aed3f2"/>
      <line id="Línea_442" data-name="Línea 442" y1="0.922" x2="14.634" transform="translate(244.794 127.345)" fill="none" stroke="#6796bd" stroke-miterlimit="10" stroke-width="2"/>
      <line id="Línea_443" data-name="Línea 443" x2="9.089" transform="translate(205.299 129.765)" fill="none" stroke="#6796bd" stroke-miterlimit="10" stroke-width="2"/>
      <path id="Trazado_106404" data-name="Trazado 106404" d="M149.334,41s-4.811,16.32-4.177,20.713c.072,1.368,3.99,3.313,3.99,3.313l-4.177,2.161a170.772,170.772,0,0,0,6.251,30.853" transform="translate(63.843 18.056)" fill="none" stroke="#6796bd" stroke-linejoin="round" stroke-width="0.75"/>
      <path id="Trazado_106405" data-name="Trazado 106405" d="M165.965,38.68S169.206,55.4,168.7,59.9c0,1.44-3.27,3.486-3.27,3.486l3.443,2.1s.086,12.445-4.235,31.458" transform="translate(72.506 17.034)" fill="none" stroke="#6796bd" stroke-linejoin="round" stroke-width="0.75"/>
      <path id="Trazado_106406" data-name="Trazado 106406" d="M130.183,83.9l-8.83.36a12.1,12.1,0,0,0-1.772.173.591.591,0,0,0-.36.187.5.5,0,0,0,.1.576,1.023,1.023,0,0,0,.49.23l3.025.792c-2.477,1.051-7.951,3.2-7.951,4.177s5.013-.634,7.49-1.124c-2.161.648-8.052,2.967-7.692,4s6.122-1.023,8.3-1.44c-2.492.72-7.476,2.175-7.2,3.025s5.113-.4,7.62-1.066a28.578,28.578,0,0,0-5.6,2.089c-.331.173-.706.432-.691.835a1.311,1.311,0,0,0,.778,0,47.533,47.533,0,0,0,10.889-2.593,24.645,24.645,0,0,1,5.041-1.584" transform="translate(50.499 36.949)" fill="#ffccb0"/>
      <path id="Trazado_106407" data-name="Trazado 106407" d="M189.749,47.81s-16.593,26.46-23.522,33.4-41.5,18.466-41.5,18.466l2.881,9.579s39.38-2.29,51.235-8.988,25.711-23.91,25.711-23.91" transform="translate(54.93 21.055)" fill="#aed3f2"/>
      <path id="Trazado_106408" data-name="Trazado 106408" d="M185.184,48.93c-.879,1.44-16.046,25.524-22.8,31.775-6.165,5.762-28.923,15.254-28.923,15.254" transform="translate(58.774 21.548)" fill="none" stroke="#6796bd" stroke-miterlimit="10" stroke-width="0.75"/>
      <path id="Trazado_106409" data-name="Trazado 106409" d="M198.668,67.62c-.821,1.44-11.84,16.046-24.371,23.046-13.612,7.634-36.327,7.807-36.327,7.807" transform="translate(60.76 29.779)" fill="none" stroke="#6796bd" stroke-miterlimit="10" stroke-width="0.75"/>
      <path id="Trazado_106410" data-name="Trazado 106410" d="M163.842,27.15c-1.728,0-13.669-.562-17.285-3.14a4.883,4.883,0,0,1-2.017-2.881,3.082,3.082,0,0,1,1.253-3.169,4.926,4.926,0,0,1,1.44-.5,78.069,78.069,0,0,1,12.4-1.93,12.6,12.6,0,0,1,6.511.706,8.714,8.714,0,0,1,4.163,5.056,21.447,21.447,0,0,1,.951,6.626v.49c0,3.529.173,7.375-1.268,10.673a6.8,6.8,0,0,1-.763,1.44,3.515,3.515,0,0,1-2.3,1.325c-1.44.187-2.074-1.152-2.42-2.333a34.326,34.326,0,0,1-1.138-8.729,8.268,8.268,0,0,1,.5-3.615" transform="translate(63.624 6.771)" fill="#030334"/>
      <path id="Trazado_106411" data-name="Trazado 106411" d="M156.395,28.416c-.259-.6.562-1.08,1.253-1.34a2.694,2.694,0,0,1,1.57-.259,1.887,1.887,0,0,1,1.239,1.512,8.986,8.986,0,0,1,.259,2.3,3.255,3.255,0,0,1-1.008,2.636,2.4,2.4,0,0,1-3.082,0" transform="translate(68.853 11.799)" fill="#ffccb0"/>
      <path id="Trazado_106412" data-name="Trazado 106412" d="M153.706,25.15h3.313a1.988,1.988,0,0,0,1.124-.187.3.3,0,0,0,0-.461A1.584,1.584,0,0,0,157,24.185a10.084,10.084,0,0,0-1.138,0,17.733,17.733,0,0,0-2.3.317.331.331,0,0,0,.086.648Z" transform="translate(67.523 10.644)" fill="#030334"/>
      <path id="Trazado_106413" data-name="Trazado 106413" d="M151.471,24.492a11.769,11.769,0,0,0-1.757-.879c-.3-.115-.6-.245-.907-.331s-.864-.245-1.037.144.418.619.735.72.619.158.922.259a19.1,19.1,0,0,1,1.8.648.3.3,0,0,0,.36-.173.317.317,0,0,0-.115-.389Z" transform="translate(65.062 10.207)" fill="#030334"/>
      <path id="Trazado_106414" data-name="Trazado 106414" d="M155.495,28.086c.1-.619,0-1.44-.533-1.584h-.13a.533.533,0,0,0-.547.288c-.187.576-.288,1.6.288,1.988S155.38,28.662,155.495,28.086Z" transform="translate(67.881 11.669)" fill="#030334"/>
      <path id="Trazado_106415" data-name="Trazado 106415" d="M150.33,27.227c.115-.634,0-1.44-.519-1.584h-.13a.49.49,0,0,0-.547.288c-.187.576-.288,1.584.288,1.973S150.244,27.789,150.33,27.227Z" transform="translate(65.613 11.289)" fill="#030334"/>
      <path id="Trazado_106416" data-name="Trazado 106416" d="M152.063,26.17c-1.224,2.089-1.916,4.883-1.268,5.473a3.86,3.86,0,0,0,3.025.259" transform="translate(66.3 11.525)" fill="none" stroke="#db8f77" stroke-linejoin="round" stroke-width="0.5"/>
      <path id="Trazado_106417" data-name="Trazado 106417" d="M152,36.03a16.348,16.348,0,0,0,7.865-1.44" transform="translate(66.939 15.233)" fill="none" stroke="#db8f77" stroke-linejoin="round" stroke-width="0.5"/>
      <path id="Trazado_106418" data-name="Trazado 106418" d="M150.664,31.66l5.085.331s-.634,2.881-3.241,2.564C150.39,34.267,150.664,31.66,150.664,31.66Z" transform="translate(66.346 13.943)" fill="#fff"/>
    </g>
  </g>
</svg>
