<svg xmlns="http://www.w3.org/2000/svg" width="286" height="286" viewBox="0 0 286 286">
  <g id="Grupo_70498" data-name="Grupo 70498" transform="translate(-2108 364)">
    <rect id="Rectángulo_31447" data-name="Rectángulo 31447" width="286" height="286" transform="translate(2108 -364)" fill="none"/>
    <g id="Grupo_70483" data-name="Grupo 70483" transform="translate(1177.971 -7067.301)">
      <g id="Grupo_66530" data-name="Grupo 66530" transform="translate(941.984 6735.431)">
        <path id="Trazado_106109" data-name="Trazado 106109" d="M1210.212,6846.615c-7.766,21-23.634,43.726-45.963,50.454-33.738,10.171-37.769,37.625-98.2,35.078a120.824,120.824,0,0,1-26.131-3.869,100.954,100.954,0,0,1-12.286-4.125c-35.3-14.436-53.718-46.205-55.247-79.448-2.018-43.719,28.2-64.559,47.838-76.761s43.308-59.481,102.734-57.45a117.088,117.088,0,0,1,26.859,3.961c20,5.462,40.322,17.547,52.134,35.211q1.33,1.99,2.543,4.069C1220.3,6780.811,1220.8,6817.988,1210.212,6846.615Z" transform="translate(-972.291 -6710.432)" fill="#dde8f1"/>
      </g>
      <line id="Línea_410" data-name="Línea 410" x2="244.289" transform="translate(959.549 6905.164)" fill="none" stroke="#344154" stroke-linecap="round" stroke-linejoin="round" stroke-width="1"/>
      <g id="Grupo_66575" data-name="Grupo 66575" transform="translate(966.931 6750.179)">
        <g id="Grupo_66573" data-name="Grupo 66573">
          <path id="Trazado_106154" data-name="Trazado 106154" d="M1063.872,6778.232H986.54a9.445,9.445,0,0,0-9.085,9.491l1.63,35.59v95.39a7.836,7.836,0,0,0,7.835,7.835h75.667a8.672,8.672,0,0,0,8.287-8.286v-95.391l1.63-35.591A8.643,8.643,0,0,0,1063.872,6778.232Z" transform="translate(-977.446 -6778.232)" fill="none" stroke="#344154" stroke-linecap="round" stroke-linejoin="round" stroke-width="1"/>
          <path id="Trazado_106155" data-name="Trazado 106155" d="M995.176,6803.966V6829.9h76.683v-25.936Zm72.9,22.149H998.961v-18.364h69.113Z" transform="translate(-985.93 -6790.546)" fill="#344154" stroke="#344154" stroke-linecap="round" stroke-linejoin="round" stroke-width="1"/>
          <g id="Grupo_66571" data-name="Grupo 66571" transform="translate(9.386 54.074)">
            <rect id="Rectángulo_6061" data-name="Rectángulo 6061" width="38.692" height="11.355" rx="4.97" fill="none" stroke="#344154" stroke-linecap="round" stroke-linejoin="round" stroke-width="1"/>
            <line id="Línea_411" data-name="Línea 411" y2="11.215" transform="translate(8.131 0.14)" fill="none" stroke="#344154" stroke-linecap="round" stroke-linejoin="round" stroke-width="1"/>
            <line id="Línea_412" data-name="Línea 412" y2="11.215" transform="translate(15.934 0.14)" fill="none" stroke="#344154" stroke-linecap="round" stroke-linejoin="round" stroke-width="1"/>
            <line id="Línea_413" data-name="Línea 413" y2="11.215" transform="translate(23.737 0.14)" fill="none" stroke="#344154" stroke-linecap="round" stroke-linejoin="round" stroke-width="1"/>
            <line id="Línea_414" data-name="Línea 414" y2="11.215" transform="translate(31.54 0.14)" fill="none" stroke="#344154" stroke-linecap="round" stroke-linejoin="round" stroke-width="1"/>
          </g>
          <g id="Grupo_66572" data-name="Grupo 66572" transform="translate(9.618 60.315)">
            <path id="Rectángulo_6062" data-name="Rectángulo 6062" d="M3.944,0H9.822a3.944,3.944,0,0,1,3.944,3.944V4.97A3.945,3.945,0,0,1,9.822,8.914H3.944A3.944,3.944,0,0,1,0,4.97V3.944A3.944,3.944,0,0,1,3.944,0Z" transform="translate(48.294)" fill="#344154" stroke="#344154" stroke-linecap="round" stroke-linejoin="round" stroke-width="1"/>
            <path id="Rectángulo_6063" data-name="Rectángulo 6063" d="M3.945,0H9.822a3.944,3.944,0,0,1,3.944,3.944v2.6a3.944,3.944,0,0,1-3.944,3.944H3.944A3.944,3.944,0,0,1,0,6.549v-2.6A3.945,3.945,0,0,1,3.945,0Z" transform="translate(0 12.299)" fill="#344154" stroke="#344154" stroke-linecap="round" stroke-linejoin="round" stroke-width="1"/>
            <path id="Rectángulo_6064" data-name="Rectángulo 6064" d="M3.945,0H9.822a3.945,3.945,0,0,1,3.945,3.945v2.6a3.944,3.944,0,0,1-3.944,3.944H3.944A3.944,3.944,0,0,1,0,6.549v-2.6A3.945,3.945,0,0,1,3.945,0Z" transform="translate(16.136 12.299)" fill="#344154" stroke="#344154" stroke-linecap="round" stroke-linejoin="round" stroke-width="1"/>
            <path id="Rectángulo_6065" data-name="Rectángulo 6065" d="M3.945,0H9.822a3.944,3.944,0,0,1,3.944,3.944v2.6a3.944,3.944,0,0,1-3.944,3.944H3.944A3.944,3.944,0,0,1,0,6.549v-2.6A3.945,3.945,0,0,1,3.945,0Z" transform="translate(32.271 12.299)" fill="#344154" stroke="#344154" stroke-linecap="round" stroke-linejoin="round" stroke-width="1"/>
            <path id="Rectángulo_6066" data-name="Rectángulo 6066" d="M3.945,0H9.822a3.945,3.945,0,0,1,3.945,3.945v2.6a3.944,3.944,0,0,1-3.944,3.944H3.945A3.945,3.945,0,0,1,0,6.549v-2.6A3.945,3.945,0,0,1,3.945,0Z" transform="translate(48.407 12.299)" fill="#344154" stroke="#344154" stroke-linecap="round" stroke-linejoin="round" stroke-width="1"/>
            <path id="Rectángulo_6067" data-name="Rectángulo 6067" d="M3.945,0H9.822a3.945,3.945,0,0,1,3.945,3.945v2.6a3.944,3.944,0,0,1-3.944,3.944H3.944A3.944,3.944,0,0,1,0,6.549v-2.6A3.945,3.945,0,0,1,3.945,0Z" transform="translate(64.543 12.299)" fill="#344154" stroke="#344154" stroke-linecap="round" stroke-linejoin="round" stroke-width="1"/>
            <path id="Rectángulo_6068" data-name="Rectángulo 6068" d="M3.944,0H9.822a3.944,3.944,0,0,1,3.944,3.944v2.6a3.945,3.945,0,0,1-3.945,3.945H3.944A3.944,3.944,0,0,1,0,6.549v-2.6A3.944,3.944,0,0,1,3.944,0Z" transform="translate(0 26.404)" fill="#344154" stroke="#344154" stroke-linecap="round" stroke-linejoin="round" stroke-width="1"/>
            <path id="Rectángulo_6069" data-name="Rectángulo 6069" d="M3.944,0H9.822a3.945,3.945,0,0,1,3.945,3.945v2.6a3.945,3.945,0,0,1-3.945,3.945H3.944A3.944,3.944,0,0,1,0,6.549v-2.6A3.944,3.944,0,0,1,3.944,0Z" transform="translate(16.136 26.404)" fill="#344154" stroke="#344154" stroke-linecap="round" stroke-linejoin="round" stroke-width="1"/>
            <path id="Rectángulo_6070" data-name="Rectángulo 6070" d="M3.944,0H9.822a3.944,3.944,0,0,1,3.944,3.944v2.6a3.945,3.945,0,0,1-3.945,3.945H3.944A3.944,3.944,0,0,1,0,6.549v-2.6A3.944,3.944,0,0,1,3.944,0Z" transform="translate(32.271 26.404)" fill="#344154" stroke="#344154" stroke-linecap="round" stroke-linejoin="round" stroke-width="1"/>
            <rect id="Rectángulo_6071" data-name="Rectángulo 6071" width="13.766" height="10.494" rx="3.945" transform="translate(48.407 26.404)" fill="#344154" stroke="#344154" stroke-linecap="round" stroke-linejoin="round" stroke-width="1"/>
            <path id="Rectángulo_6072" data-name="Rectángulo 6072" d="M3.944,0H9.822a3.945,3.945,0,0,1,3.945,3.945v2.6a3.945,3.945,0,0,1-3.945,3.945H3.944A3.944,3.944,0,0,1,0,6.549v-2.6A3.944,3.944,0,0,1,3.944,0Z" transform="translate(64.543 26.404)" fill="#344154" stroke="#344154" stroke-linecap="round" stroke-linejoin="round" stroke-width="1"/>
            <path id="Rectángulo_6073" data-name="Rectángulo 6073" d="M3.944,0H9.822a3.944,3.944,0,0,1,3.944,3.944v2.6a3.945,3.945,0,0,1-3.945,3.945H3.944A3.944,3.944,0,0,1,0,6.549v-2.6A3.944,3.944,0,0,1,3.944,0Z" transform="translate(0 40.509)" fill="#344154" stroke="#344154" stroke-linecap="round" stroke-linejoin="round" stroke-width="1"/>
            <path id="Rectángulo_6074" data-name="Rectángulo 6074" d="M3.944,0H9.822a3.945,3.945,0,0,1,3.945,3.945v2.6a3.945,3.945,0,0,1-3.945,3.945H3.945A3.945,3.945,0,0,1,0,6.549v-2.6A3.944,3.944,0,0,1,3.944,0Z" transform="translate(16.136 40.509)" fill="#344154" stroke="#344154" stroke-linecap="round" stroke-linejoin="round" stroke-width="1"/>
            <rect id="Rectángulo_6075" data-name="Rectángulo 6075" width="13.766" height="10.494" rx="3.944" transform="translate(32.271 40.509)" fill="#344154" stroke="#344154" stroke-linecap="round" stroke-linejoin="round" stroke-width="1"/>
            <path id="Rectángulo_6076" data-name="Rectángulo 6076" d="M3.944,0H9.822a3.944,3.944,0,0,1,3.944,3.944v2.6a3.945,3.945,0,0,1-3.945,3.945H3.945A3.945,3.945,0,0,1,0,6.549v-2.6A3.944,3.944,0,0,1,3.944,0Z" transform="translate(48.407 40.509)" fill="#344154" stroke="#344154" stroke-linecap="round" stroke-linejoin="round" stroke-width="1"/>
            <path id="Rectángulo_6077" data-name="Rectángulo 6077" d="M3.944,0H9.822a3.945,3.945,0,0,1,3.945,3.945v2.6a3.945,3.945,0,0,1-3.945,3.945H3.945A3.945,3.945,0,0,1,0,6.549v-2.6A3.944,3.944,0,0,1,3.944,0Z" transform="translate(64.543 40.509)" fill="#344154" stroke="#344154" stroke-linecap="round" stroke-linejoin="round" stroke-width="1"/>
            <path id="Rectángulo_6078" data-name="Rectángulo 6078" d="M3.945,0H9.822a3.944,3.944,0,0,1,3.944,3.944v2.6a3.944,3.944,0,0,1-3.944,3.944H3.944A3.944,3.944,0,0,1,0,6.549v-2.6A3.945,3.945,0,0,1,3.945,0Z" transform="translate(0 54.613)" fill="#344154" stroke="#344154" stroke-linecap="round" stroke-linejoin="round" stroke-width="1"/>
            <path id="Rectángulo_6079" data-name="Rectángulo 6079" d="M3.945,0H9.822a3.945,3.945,0,0,1,3.945,3.945v2.6a3.944,3.944,0,0,1-3.944,3.944H3.944A3.944,3.944,0,0,1,0,6.549v-2.6A3.945,3.945,0,0,1,3.945,0Z" transform="translate(16.136 54.613)" fill="#344154" stroke="#344154" stroke-linecap="round" stroke-linejoin="round" stroke-width="1"/>
            <path id="Rectángulo_6080" data-name="Rectángulo 6080" d="M3.945,0H9.822a3.944,3.944,0,0,1,3.944,3.944v2.6a3.944,3.944,0,0,1-3.944,3.944H3.944A3.944,3.944,0,0,1,0,6.549v-2.6A3.945,3.945,0,0,1,3.945,0Z" transform="translate(32.271 54.613)" fill="#344154" stroke="#344154" stroke-linecap="round" stroke-linejoin="round" stroke-width="1"/>
            <path id="Rectángulo_6081" data-name="Rectángulo 6081" d="M3.945,0H9.822a3.945,3.945,0,0,1,3.945,3.945v2.6a3.944,3.944,0,0,1-3.944,3.944H3.945A3.945,3.945,0,0,1,0,6.549v-2.6A3.945,3.945,0,0,1,3.945,0Z" transform="translate(48.407 54.613)" fill="#344154" stroke="#344154" stroke-linecap="round" stroke-linejoin="round" stroke-width="1"/>
            <path id="Rectángulo_6082" data-name="Rectángulo 6082" d="M3.944,0H9.822a3.944,3.944,0,0,1,3.944,3.944v2.6a3.945,3.945,0,0,1-3.945,3.945H3.944A3.944,3.944,0,0,1,0,6.549v-2.6A3.944,3.944,0,0,1,3.944,0Z" transform="translate(0 68.718)" fill="#344154" stroke="#344154" stroke-linecap="round" stroke-linejoin="round" stroke-width="1"/>
            <path id="Rectángulo_6083" data-name="Rectángulo 6083" d="M3.944,0H9.822a3.945,3.945,0,0,1,3.945,3.945v2.6a3.945,3.945,0,0,1-3.945,3.945H3.944A3.944,3.944,0,0,1,0,6.549v-2.6A3.944,3.944,0,0,1,3.944,0Z" transform="translate(16.136 68.718)" fill="#344154" stroke="#344154" stroke-linecap="round" stroke-linejoin="round" stroke-width="1"/>
            <path id="Rectángulo_6084" data-name="Rectángulo 6084" d="M3.944,0H9.822a3.944,3.944,0,0,1,3.944,3.944v2.6a3.945,3.945,0,0,1-3.945,3.945H3.944A3.944,3.944,0,0,1,0,6.549v-2.6A3.944,3.944,0,0,1,3.944,0Z" transform="translate(32.271 68.718)" fill="#344154" stroke="#344154" stroke-linecap="round" stroke-linejoin="round" stroke-width="1"/>
            <path id="Rectángulo_6085" data-name="Rectángulo 6085" d="M3.944,0H9.822a3.945,3.945,0,0,1,3.945,3.945v2.6a3.945,3.945,0,0,1-3.945,3.945H3.945A3.945,3.945,0,0,1,0,6.549v-2.6A3.944,3.944,0,0,1,3.944,0Z" transform="translate(48.407 68.718)" fill="#344154" stroke="#344154" stroke-linecap="round" stroke-linejoin="round" stroke-width="1"/>
            <path id="Trazado_106156" data-name="Trazado 106156" d="M1131.336,6998.619h-9.591a2.087,2.087,0,0,0-2.088,2.087v20.423a2.087,2.087,0,0,0,2.088,2.088h9.591a2.088,2.088,0,0,0,2.087-2.088v-20.423A2.088,2.088,0,0,0,1131.336,6998.619Z" transform="translate(-1055.114 -6944.005)" fill="#344154" stroke="#344154" stroke-linecap="round" stroke-linejoin="round" stroke-width="1"/>
            <path id="Rectángulo_6086" data-name="Rectángulo 6086" d="M3.945,0H9.822a3.945,3.945,0,0,1,3.945,3.945V4.97A3.944,3.944,0,0,1,9.822,8.914H3.944A3.944,3.944,0,0,1,0,4.97V3.945A3.945,3.945,0,0,1,3.945,0Z" transform="translate(64.543)" fill="#344154" stroke="#344154" stroke-linecap="round" stroke-linejoin="round" stroke-width="1"/>
          </g>
        </g>
        <g id="Grupo_66574" data-name="Grupo 66574" transform="translate(47.893 22.548)">
          <path id="Trazado_106157" data-name="Trazado 106157" d="M1070.277,6825.121a1.379,1.379,0,0,1,1.272-.709c1.1,0,1.59.807,1.59,2.03v1.676c0,1.309-.624,2.165-1.932,2.165s-1.92-.856-1.92-2.165v-.575h.893v.636c0,.771.318,1.236,1,1.236s1-.464,1-1.236v-1.663c0-.771-.318-1.236-1-1.236a.922.922,0,0,0-.966.917v.2h-.893l.232-4.757h3.375v.856h-2.519Z" transform="translate(-1069.286 -6821.549)" fill="#344154"/>
          <path id="Trazado_106158" data-name="Trazado 106158" d="M1078.9,6836.963h-.355v-1.187h.917v1.1l-.477,1.162h-.391Z" transform="translate(-1073.718 -6828.316)" fill="#344154"/>
          <path id="Trazado_106159" data-name="Trazado 106159" d="M1086.006,6823.587v.269a1.686,1.686,0,0,1-.978,1.761,1.738,1.738,0,0,1,.978,1.811v.636a2.021,2.021,0,1,1-4.036,0v-.636a1.728,1.728,0,0,1,.99-1.811,1.672,1.672,0,0,1-.99-1.761v-.269a2.02,2.02,0,1,1,4.036,0Zm-3.094.024v.416c0,.831.4,1.2,1.076,1.2s1.076-.368,1.076-1.2v-.416c0-.88-.4-1.284-1.076-1.284S1082.912,6822.731,1082.912,6823.611Zm0,3.706v.722c0,.88.391,1.3,1.076,1.3s1.064-.416,1.076-1.3v-.722c0-.832-.367-1.235-1.076-1.235S1082.912,6826.485,1082.912,6827.317Z" transform="translate(-1075.355 -6821.471)" fill="#344154"/>
          <path id="Trazado_106160" data-name="Trazado 106160" d="M1095.133,6823.624v4.366c0,1.357-.611,2.214-1.981,2.214-1.308,0-1.932-.844-1.932-2.153v-.158h.893v.22c0,.771.33,1.223,1.015,1.223.734,0,1.052-.464,1.052-1.37v-1.92a1.369,1.369,0,0,1-1.382.906c-1.1,0-1.59-.783-1.59-2.019v-1.308c0-1.309.636-2.153,1.956-2.153S1095.133,6822.315,1095.133,6823.624Zm-2.984-.049v1.284c0,.771.33,1.236,1.015,1.236s1.016-.465,1.016-1.236v-1.284c0-.783-.318-1.235-1.016-1.235S1092.149,6822.792,1092.149,6823.575Z" transform="translate(-1079.776 -6821.471)" fill="#344154"/>
          <path id="Trazado_106161" data-name="Trazado 106161" d="M1104.344,6823.636c0,2.58-2.9,3.51-2.911,5.479v.135h2.813v.868h-3.755v-.734c0-2.764,2.9-3.3,2.9-5.711,0-.88-.294-1.345-1-1.345s-1,.5-1,1.26v.758h-.893v-.7c0-1.309.6-2.177,1.92-2.177S1104.344,6822.327,1104.344,6823.636Z" transform="translate(-1084.218 -6821.471)" fill="#344154"/>
          <path id="Trazado_106162" data-name="Trazado 106162" d="M1110.482,6835.776v1.187h-.917v-1.187Z" transform="translate(-1088.56 -6828.316)" fill="#344154"/>
          <path id="Trazado_106163" data-name="Trazado 106163" d="M1114.119,6825.121a1.379,1.379,0,0,1,1.272-.709c1.1,0,1.59.807,1.59,2.03v1.676c0,1.309-.624,2.165-1.932,2.165s-1.92-.856-1.92-2.165v-.575h.893v.636c0,.771.318,1.236,1,1.236s1-.464,1-1.236v-1.663c0-.771-.318-1.236-1-1.236a.923.923,0,0,0-.966.917v.2h-.893l.233-4.757h3.376v.856h-2.519Z" transform="translate(-1090.265 -6821.549)" fill="#344154"/>
          <path id="Trazado_106164" data-name="Trazado 106164" d="M1126.056,6823.611v.159h-.893v-.22c0-.771-.318-1.223-1.015-1.223-.721,0-1.039.465-1.039,1.383v1.919a1.378,1.378,0,0,1,1.382-.917c1.1,0,1.59.795,1.59,2.03v1.3c0,1.309-.648,2.165-1.957,2.165s-1.969-.856-1.969-2.165v-4.366c0-1.357.611-2.2,1.969-2.2C1125.445,6821.471,1126.056,6822.3,1126.056,6823.611Zm-2.947,3.2v1.284c0,.771.318,1.235,1.015,1.235s1.015-.464,1.015-1.235v-1.284c0-.771-.33-1.235-1.015-1.235S1123.109,6826.045,1123.109,6826.816Z" transform="translate(-1094.585 -6821.471)" fill="#344154"/>
        </g>
      </g>
      <g id="Grupo_66578" data-name="Grupo 66578" transform="translate(1028.108 6905.171)">
        <g id="Grupo_66576" data-name="Grupo 66576" transform="translate(0.258)">
          <path id="Trazado_106165" data-name="Trazado 106165" d="M1108.148,7075.445l-12.9,11.219,17.152,1.032,11.349-11.477Z" transform="translate(-1095.252 -7075.445)" fill="#fff" stroke="#344154" stroke-linecap="round" stroke-linejoin="round" stroke-width="1"/>
          <path id="Trazado_106166" data-name="Trazado 106166" d="M1139.491,7076.93l16.507.773-10.317,11.994-17.539-1.29Z" transform="translate(-1110.991 -7076.156)" fill="#fff" stroke="#344154" stroke-linecap="round" stroke-linejoin="round" stroke-width="1"/>
        </g>
        <g id="Grupo_66577" data-name="Grupo 66577" transform="translate(6.2 3.435)">
          <line id="Línea_415" data-name="Línea 415" x2="9.88" y2="0.726" transform="translate(6.102)" fill="none" stroke="#344154" stroke-linecap="round" stroke-linejoin="round" stroke-width="1"/>
          <line id="Línea_416" data-name="Línea 416" x2="12.495" y2="0.726" transform="translate(1.889 2.615)" fill="none" stroke="#344154" stroke-linecap="round" stroke-linejoin="round" stroke-width="1"/>
          <line id="Línea_417" data-name="Línea 417" x2="12.059" y2="0.872" transform="translate(0 4.795)" fill="none" stroke="#344154" stroke-linecap="round" stroke-linejoin="round" stroke-width="1"/>
          <line id="Línea_418" data-name="Línea 418" x2="12.495" y2="0.872" transform="translate(16.418 6.248)" fill="none" stroke="#344154" stroke-linecap="round" stroke-linejoin="round" stroke-width="1"/>
        </g>
        <path id="Trazado_106167" data-name="Trazado 106167" d="M1095.016,7096.96l-.258,1.032,17.409,1.032v-1.032Z" transform="translate(-1094.758 -7085.74)" fill="#344154" stroke="#344154" stroke-linecap="round" stroke-linejoin="round" stroke-width="1"/>
        <path id="Trazado_106168" data-name="Trazado 106168" d="M1128.142,7089.741v.645l17.925,1.289,9.8-12.122-.387-.645-9.8,11.735Z" transform="translate(-1110.733 -7077.103)" fill="#344154" stroke="#344154" stroke-linecap="round" stroke-linejoin="round" stroke-width="1"/>
      </g>
      <g id="Grupo_66580" data-name="Grupo 66580" transform="translate(1073.501 6908.396)">
        <path id="Trazado_106169" data-name="Trazado 106169" d="M1194.96,7081.628l-10.188,13.154,20.891.9,7.093-13.541Z" transform="translate(-1183.225 -7081.628)" fill="#919191" stroke="#344154" stroke-linecap="round" stroke-linejoin="round" stroke-width="1"/>
        <path id="Trazado_106170" data-name="Trazado 106170" d="M1183.095,7105.368l-1.29,1.419,21.536,1.032.645-1.677Z" transform="translate(-1181.805 -7092.988)" fill="#919191" stroke="#344154" stroke-linecap="round" stroke-linejoin="round" stroke-width="1"/>
        <path id="Trazado_106171" data-name="Trazado 106171" d="M1223.748,7095.255l.258.9,7.093-13.541.215.679-7.186,14.439-1.024-.8Z" transform="translate(-1201.567 -7082.102)" fill="#344154" stroke="#344154" stroke-linecap="round" stroke-linejoin="round" stroke-width="1"/>
        <g id="Grupo_66579" data-name="Grupo 66579" transform="translate(5.759 1.938)">
          <path id="Trazado_106172" data-name="Trazado 106172" d="M1211.359,7087.77l1.435-2.123-2.331-.077-1.584,2.076Z" transform="translate(-1200.519 -7085.453)" fill="#fff" stroke="#344154" stroke-linecap="round" stroke-linejoin="round" stroke-width="1"/>
          <path id="Trazado_106173" data-name="Trazado 106173" d="M1202.1,7091.174l-2.429-.122-.885,1.081,2.537.06Z" transform="translate(-1195.69 -7088.077)" fill="#fff" stroke="#344154" stroke-linecap="round" stroke-linejoin="round" stroke-width="1"/>
          <path id="Trazado_106174" data-name="Trazado 106174" d="M1201.282,7098.478l-.858,1.125,3,.1.777-1.148Z" transform="translate(-1196.473 -7091.629)" fill="#fff" stroke="#344154" stroke-linecap="round" stroke-linejoin="round" stroke-width="1"/>
          <path id="Trazado_106175" data-name="Trazado 106175" d="M1199.291,7095.069l-2.592-.061-.594.725,2.625.07Z" transform="translate(-1194.407 -7089.969)" fill="#fff" stroke="#344154" stroke-linecap="round" stroke-linejoin="round" stroke-width="1"/>
          <path id="Trazado_106176" data-name="Trazado 106176" d="M1208.435,7099.846l3.561.122.719-1.186-3.5-.093Z" transform="translate(-1200.307 -7091.73)" fill="#fff" stroke="#344154" stroke-linecap="round" stroke-linejoin="round" stroke-width="1"/>
          <path id="Trazado_106177" data-name="Trazado 106177" d="M1222.043,7092.954l4.093.1.376-.674-4-.2Z" transform="translate(-1206.818 -7088.614)" fill="#fff" stroke="#344154" stroke-linecap="round" stroke-linejoin="round" stroke-width="1"/>
          <path id="Trazado_106178" data-name="Trazado 106178" d="M1224.08,7088.275l3.951.2,1.276-2.287-3.88-.129Z" transform="translate(-1207.793 -7085.686)" fill="#fff" stroke="#344154" stroke-linecap="round" stroke-linejoin="round" stroke-width="1"/>
          <path id="Trazado_106179" data-name="Trazado 106179" d="M1220,7096.331l4.17.112.438-.785-4.141-.1Z" transform="translate(-1205.84 -7090.234)" fill="#fff" stroke="#344154" stroke-linecap="round" stroke-linejoin="round" stroke-width="1"/>
          <path id="Trazado_106180" data-name="Trazado 106180" d="M1203.5,7095.919l2.832.075.506-.749-2.776-.065Z" transform="translate(-1197.947 -7090.051)" fill="#fff" stroke="#344154" stroke-linecap="round" stroke-linejoin="round" stroke-width="1"/>
          <path id="Trazado_106181" data-name="Trazado 106181" d="M1219.018,7088.092l1.335-2.2-3.03-.1-1.448,2.143Z" transform="translate(-1203.867 -7085.559)" fill="#fff" stroke="#344154" stroke-linecap="round" stroke-linejoin="round" stroke-width="1"/>
          <path id="Trazado_106182" data-name="Trazado 106182" d="M1218.186,7098.927l-.725,1.194,4.258.145.685-1.227Z" transform="translate(-1204.626 -7091.844)" fill="#fff" stroke="#344154" stroke-linecap="round" stroke-linejoin="round" stroke-width="1"/>
          <path id="Trazado_106183" data-name="Trazado 106183" d="M1204.374,7087.477l1.569-2.055-2.3-.077-1.65,2.014Z" transform="translate(-1197.226 -7085.345)" fill="#fff" stroke="#344154" stroke-linecap="round" stroke-linejoin="round" stroke-width="1"/>
          <path id="Trazado_106184" data-name="Trazado 106184" d="M1196.423,7098.349l-2.679-.072-.9,1.094,2.724.093Z" transform="translate(-1192.848 -7091.533)" fill="#fff" stroke="#344154" stroke-linecap="round" stroke-linejoin="round" stroke-width="1"/>
          <path id="Trazado_106185" data-name="Trazado 106185" d="M1206.023,7092.389l2.691.063.623-.922-2.561-.128Z" transform="translate(-1199.153 -7088.243)" fill="#fff" stroke="#344154" stroke-linecap="round" stroke-linejoin="round" stroke-width="1"/>
          <path id="Trazado_106186" data-name="Trazado 106186" d="M1217.274,7091.92l-3.208-.16-.6.89,3.32.077Z" transform="translate(-1202.713 -7088.416)" fill="#fff" stroke="#344154" stroke-linecap="round" stroke-linejoin="round" stroke-width="1"/>
          <path id="Trazado_106187" data-name="Trazado 106187" d="M1215.106,7095.437l-3.387-.08-.509.754,3.431.091Z" transform="translate(-1201.635 -7090.136)" fill="#fff" stroke="#344154" stroke-linecap="round" stroke-linejoin="round" stroke-width="1"/>
        </g>
        <path id="Trazado_106188" data-name="Trazado 106188" d="M1181.8,7108.089l1.337.761,21.223,1.075-1.024-.8Z" transform="translate(-1181.805 -7094.29)" fill="#344154" stroke="#344154" stroke-linecap="round" stroke-linejoin="round" stroke-width="1"/>
        <path id="Trazado_106189" data-name="Trazado 106189" d="M1188.531,7104.192l1-1.417,17.594.667-1.167,1.5Z" transform="translate(-1185.023 -7091.747)" fill="#fff" stroke="#344154" stroke-linecap="round" stroke-linejoin="round" stroke-width="1"/>
      </g>
      <g id="Grupo_66589" data-name="Grupo 66589" transform="translate(1010.268 6886.676)">
        <ellipse id="Elipse_4069" data-name="Elipse 4069" cx="7.811" cy="2.504" rx="7.811" ry="2.504" transform="translate(0 9.079)" fill="#fff" stroke="#344154" stroke-linecap="round" stroke-linejoin="round" stroke-width="1"/>
        <g id="Grupo_66583" data-name="Grupo 66583" transform="translate(6.616)">
          <g id="Grupo_66582" data-name="Grupo 66582">
            <g id="Grupo_66581" data-name="Grupo 66581">
              <path id="Trazado_106190" data-name="Trazado 106190" d="M1075.19,7042.172l1.035-2.193.457,2.352-1.951,18.428a.749.749,0,0,1-.826.666h0a.749.749,0,0,1-.667-.824Z" transform="translate(-1073.234 -7039.979)" fill="#fff" stroke="#344154" stroke-linecap="round" stroke-linejoin="round" stroke-width="1"/>
            </g>
            <path id="Trazado_106191" data-name="Trazado 106191" d="M1073.238,7076.611a.75.75,0,0,0,1.493.158l.337-3.189-1.494-.142Z" transform="translate(-1073.234 -7055.989)" fill="#fff" stroke="#344154" stroke-linecap="round" stroke-linejoin="round" stroke-width="1"/>
            <path id="Trazado_106192" data-name="Trazado 106192" d="M1073.905,7078.178a.75.75,0,0,0,.826-.667l.249-2.351-1.491-.17-.25,2.363A.75.75,0,0,0,1073.905,7078.178Z" transform="translate(-1073.234 -7056.732)" fill="#fff" stroke="#344154" stroke-linecap="round" stroke-linejoin="round" stroke-width="1"/>
          </g>
          <path id="Trazado_106193" data-name="Trazado 106193" d="M1076.972,7042.172l-.012.116,1.491.172.014-.13-.457-2.351Z" transform="translate(-1075.017 -7039.979)" fill="#fff" stroke="#344154" stroke-linecap="round" stroke-linejoin="round" stroke-width="1"/>
        </g>
        <g id="Grupo_66586" data-name="Grupo 66586" transform="translate(5.85 2.009)">
          <g id="Grupo_66585" data-name="Grupo 66585" transform="translate(0 0)">
            <g id="Grupo_66584" data-name="Grupo 66584">
              <path id="Trazado_106194" data-name="Trazado 106194" d="M1079.144,7045.621l1.637-1.788-.259,2.381-7.317,17.025a.751.751,0,0,1-.985.393h0a.749.749,0,0,1-.393-.985Z" transform="translate(-1071.766 -7043.833)" fill="#344154" stroke="#344154" stroke-linecap="round" stroke-linejoin="round" stroke-width="1"/>
            </g>
            <path id="Trazado_106195" data-name="Trazado 106195" d="M1071.828,7077.219a.75.75,0,0,0,1.379.593l1.266-2.946-1.385-.577Z" transform="translate(-1071.766 -7058.406)" fill="#fff" stroke="#344154" stroke-linecap="round" stroke-linejoin="round" stroke-width="1"/>
            <path id="Trazado_106196" data-name="Trazado 106196" d="M1072.221,7078.89a.75.75,0,0,0,.986-.393l.933-2.171-1.374-.6-.938,2.184A.75.75,0,0,0,1072.221,7078.89Z" transform="translate(-1071.766 -7059.091)" fill="#fff" stroke="#344154" stroke-linecap="round" stroke-linejoin="round" stroke-width="1"/>
          </g>
          <path id="Trazado_106197" data-name="Trazado 106197" d="M1085.872,7045.62l-.046.106,1.373.606.051-.12.259-2.381Z" transform="translate(-1078.494 -7043.832)" fill="#fff" stroke="#344154" stroke-linecap="round" stroke-linejoin="round" stroke-width="1"/>
        </g>
        <g id="Grupo_66588" data-name="Grupo 66588" transform="translate(4.91 0.712)">
          <g id="Grupo_66587" data-name="Grupo 66587">
            <path id="Trazado_106198" data-name="Trazado 106198" d="M1071.464,7060.641l-1.5-.048.587-18.52a.75.75,0,0,1,.774-.727h0a.749.749,0,0,1,.726.774Z" transform="translate(-1069.964 -7041.346)" fill="#344154" stroke="#344154" stroke-linecap="round" stroke-linejoin="round" stroke-width="1"/>
          </g>
          <path id="Trazado_106199" data-name="Trazado 106199" d="M1072.5,7042.12a.75.75,0,1,0-1.5-.047l-.1,3.2,1.5.032Z" transform="translate(-1070.409 -7041.346)" fill="#fff" stroke="#344154" stroke-linecap="round" stroke-linejoin="round" stroke-width="1"/>
          <path id="Trazado_106200" data-name="Trazado 106200" d="M1071.794,7041.346a.75.75,0,0,0-.774.727l-.075,2.362,1.5.061.075-2.375A.75.75,0,0,0,1071.794,7041.346Z" transform="translate(-1070.433 -7041.346)" fill="#fff" stroke="#344154" stroke-linecap="round" stroke-linejoin="round" stroke-width="1"/>
        </g>
        <path id="Trazado_106201" data-name="Trazado 106201" d="M1068.359,7064.692c-4.314,0-7.811-1.121-7.811-2.5v17.686c0,1.383,3.5,2.5,7.811,2.5s7.811-1.121,7.811-2.5v-17.686C1076.17,7063.571,1072.673,7064.692,1068.359,7064.692Z" transform="translate(-1060.548 -7050.606)" fill="#fff" stroke="#344154" stroke-linecap="round" stroke-linejoin="round" stroke-width="1"/>
      </g>
      <g id="Grupo_66590" data-name="Grupo 66590" transform="translate(1092.284 6803.229)">
        <path id="Trazado_106202" data-name="Trazado 106202" d="M1222.3,6967.721c-.94,8.457-1.518,20.317-1.567,28.211h51.5c-.049-7.894-.627-19.755-1.567-28.211-.982-8.841,1.769-11.984,3.536-22.4s.786-32.613-.786-34.774c-.714-.981-2.4-1.273-4.028-1.3a22.426,22.426,0,0,1-6.535,10.331c-8.182,7.335-23.325,9.447-33.878-.564a19.466,19.466,0,0,1-5.6-9.762c-1.565.047-3.146.354-3.831,1.3-1.572,2.161-2.554,24.362-.786,34.774S1223.283,6958.88,1222.3,6967.721Z" transform="translate(-1217.822 -6893.976)" fill="#344154" stroke="#344154" stroke-linecap="round" stroke-linejoin="round" stroke-width="1"/>
        <path id="Trazado_106203" data-name="Trazado 106203" d="M1274.339,6882.586c1.779,9.213-.786,17.092-6.483,22.2-7.564,6.781-21.563,8.734-31.319-.522s-4.85-24.231-1.1-24.231S1273.7,6879.291,1274.339,6882.586Z" transform="translate(-1224.045 -6879.961)" fill="#344154" stroke="#344154" stroke-linecap="round" stroke-linejoin="round" stroke-width="1"/>
      </g>
      <path id="Trazado_106204" data-name="Trazado 106204" d="M1208.378,7074.552s-5.378.626-6.128.626-1.126.875-.125,1.751,4.377.375,4.377.375Z" transform="translate(-117.736 -169.846)" fill="#fff" stroke="#344154" stroke-linecap="round" stroke-linejoin="round" stroke-width="1"/>
      <g id="Grupo_66598" data-name="Grupo 66598" transform="translate(1042.821 6796.875)">
        <g id="Grupo_66591" data-name="Grupo 66591" transform="translate(17.928 38.745)">
          <path id="Trazado_106205" data-name="Trazado 106205" d="M1186.7,6942.075v5.671s-9.506,4.836-13.509,6.337-6.838,2.835-7.338,5.17-5.337,24.015-5.67,26.683-2.835,5.171-2.835,6.671a5.291,5.291,0,0,0,.334,2.169s1.168,5.5,5.17,7.671,7.338-.5,9.172-2,3.669-5.337,3.669-5.337-1.334,12.841-1.5,14.009a20.685,20.685,0,0,0-.167,2.5h47.863a249.9,249.9,0,0,1,1.5-29.852c.655-6.135-.5-25.349-2.335-28.184s-6.671-4.336-10.84-5.5-9.506-2.168-9.506-2.168l-.167-2.168Z" transform="translate(-1157.35 -6942.075)" fill="#6595bf" stroke="#344154" stroke-linecap="round" stroke-linejoin="round" stroke-width="1"/>
          <line id="Línea_419" data-name="Línea 419" x1="0.631" y1="3.841" transform="translate(14.342 28.685)" fill="none" stroke="#344154" stroke-linecap="round" stroke-linejoin="round" stroke-width="1"/>
          <line id="Línea_420" data-name="Línea 420" x1="2.977" y1="18.108" transform="translate(15.368 34.925)" fill="none" stroke="#344154" stroke-linecap="round" stroke-linejoin="round" stroke-width="1"/>
        </g>
        <g id="Grupo_66592" data-name="Grupo 66592" transform="translate(36.53 39.174)">
          <path id="Trazado_106206" data-name="Trazado 106206" d="M1210.275,6962.077c11.463,1.433,23.373-9.285,24.867-10.261a36.373,36.373,0,0,0-7.856-2.913c-4.169-1.168-9.505-2.169-9.505-2.169l-.167-2.167-13.842-1.668v5.67s-6.251,3.181-10.75,5.184A29.061,29.061,0,0,0,1210.275,6962.077Z" transform="translate(-1193.021 -6942.899)" fill="#ffbf9d" stroke="#344154" stroke-linecap="round" stroke-linejoin="round" stroke-width="1"/>
          <path id="Trazado_106207" data-name="Trazado 106207" d="M1212.87,6952.949a63.725,63.725,0,0,1-.834,6.837" transform="translate(-1202.12 -6947.708)" fill="none" stroke="#344154" stroke-linecap="round" stroke-linejoin="round" stroke-width="1"/>
          <path id="Trazado_106208" data-name="Trazado 106208" d="M1240.5,6949.431a48.543,48.543,0,0,0,.834,6.5" transform="translate(-1215.739 -6946.024)" fill="none" stroke="#344154" stroke-linecap="round" stroke-linejoin="round" stroke-width="1"/>
        </g>
        <g id="Grupo_66593" data-name="Grupo 66593" transform="translate(35.951)">
          <path id="Trazado_106209" data-name="Trazado 106209" d="M1222.014,6870.282c-3.064-1.751-9.453-3.013-12.91-2.3a27.139,27.139,0,0,0-12.326,5.688c-7.13,6.254-4.5,15.76-3.878,16.636l.626.875a53.841,53.841,0,0,1-1.376,7.13c-1.125,4.5,4.378,8.881,11.132,10.131s17.636.25,24.765-1.876,8.38-7.754,5.879-16.134-5.212-15.969-9.339-18.6C1223.666,6871.25,1222.8,6870.732,1222.014,6870.282Z" transform="translate(-1191.911 -6867.779)" fill="#d9a171" stroke="#344154" stroke-linecap="round" stroke-linejoin="round" stroke-width="1"/>
          <path id="Trazado_106210" data-name="Trazado 106210" d="M1223.9,6887.23a8.578,8.578,0,0,1,1.567-.24" transform="translate(-1207.219 -6876.972)" fill="none" stroke="#344154" stroke-linecap="round" stroke-linejoin="round" stroke-width="1"/>
          <path id="Trazado_106211" data-name="Trazado 106211" d="M1197.035,6900.59s-1.751-.625-1-3.127c.61-2.031,7.406-7.033,12.685-8.974" transform="translate(-1193.794 -6877.689)" fill="none" stroke="#344154" stroke-linecap="round" stroke-linejoin="round" stroke-width="1"/>
          <path id="Trazado_106212" data-name="Trazado 106212" d="M1221.083,6878.966q.86-.1,1.786-.13" transform="translate(-1205.87 -6873.069)" fill="none" stroke="#344154" stroke-linecap="round" stroke-linejoin="round" stroke-width="1"/>
          <path id="Trazado_106213" data-name="Trazado 106213" d="M1193.328,6891.183a15.947,15.947,0,0,1,12.864-11.637" transform="translate(-1192.589 -6873.41)" fill="none" stroke="#344154" stroke-linecap="round" stroke-linejoin="round" stroke-width="1"/>
          <path id="Trazado_106214" data-name="Trazado 106214" d="M1231.735,6875.195a21.587,21.587,0,0,0-2.43,6.151" transform="translate(-1209.804 -6871.327)" fill="none" stroke="#344154" stroke-linecap="round" stroke-linejoin="round" stroke-width="1"/>
          <path id="Trazado_106215" data-name="Trazado 106215" d="M1236.378,6870.441s-.151.235-.395.639" transform="translate(-1213 -6869.053)" fill="none" stroke="#344154" stroke-linecap="round" stroke-linejoin="round" stroke-width="1"/>
          <path id="Trazado_106216" data-name="Trazado 106216" d="M1249.947,6883.459a33.53,33.53,0,0,1,8.747,13.1" transform="translate(-1219.682 -6875.282)" fill="none" stroke="#344154" stroke-linecap="round" stroke-linejoin="round" stroke-width="1"/>
          <path id="Trazado_106217" data-name="Trazado 106217" d="M1242.017,6877.636a19.2,19.2,0,0,1,3.063,2.113" transform="translate(-1215.887 -6872.495)" fill="none" stroke="#344154" stroke-linecap="round" stroke-linejoin="round" stroke-width="1"/>
          <path id="Trazado_106218" data-name="Trazado 106218" d="M1265.983,6933.116a7.692,7.692,0,0,1-4.538,3.589" transform="translate(-1225.184 -6899.043)" fill="none" stroke="#344154" stroke-linecap="round" stroke-linejoin="round" stroke-width="1"/>
          <path id="Trazado_106219" data-name="Trazado 106219" d="M1250.652,6893.706s11.382,10.882,11.132,16.885a9.082,9.082,0,0,1-.308,2.036" transform="translate(-1220.019 -6880.185)" fill="none" stroke="#344154" stroke-linecap="round" stroke-linejoin="round" stroke-width="1"/>
          <path id="Trazado_106220" data-name="Trazado 106220" d="M1253.007,6923.927s3.5,2,2,5.628-3.878,2.627-3.878,2.627" transform="translate(-1220.248 -6894.646)" fill="none" stroke="#344154" stroke-linecap="round" stroke-linejoin="round" stroke-width="1"/>
        </g>
        <g id="Grupo_66595" data-name="Grupo 66595" transform="translate(39.591 12.818)">
          <path id="Trazado_106221" data-name="Trazado 106221" d="M1214.421,6892.357a43.173,43.173,0,0,1-9.469,7.215l-6.012,3.457s3.607,13.376,5.261,15.932,4.509,6.313,8.567,6.313,10.07-5.862,10.371-6.914,1.654-6.463,1.654-6.463a3.829,3.829,0,0,0,1.5-1.8,11.364,11.364,0,0,0,.3-2.555s-6.764-6.462-9.168-9.317A14.536,14.536,0,0,1,1214.421,6892.357Z" transform="translate(-1198.915 -6892.357)" fill="#ffbf9d" stroke="#344154" stroke-linecap="round" stroke-linejoin="round" stroke-width="1"/>
          <g id="Grupo_66594" data-name="Grupo 66594" transform="translate(0 12.695)">
            <path id="Trazado_106222" data-name="Trazado 106222" d="M1209.523,6917.369l-10.019-.666a.573.573,0,0,0-.6.683c.3,1.515,1.075,4.919,2.118,5.73,1.353,1.052,5.356.877,6.166.877,1.729,0,2.735-4.663,2.843-5.188a.578.578,0,0,0,.011-.1l.019-.751A.574.574,0,0,0,1209.523,6917.369Z" transform="translate(-1198.892 -6916.702)" fill="none" stroke="#344154" stroke-linecap="round" stroke-linejoin="round" stroke-width="2"/>
            <path id="Trazado_106223" data-name="Trazado 106223" d="M1224.7,6918.529l10.037.27a.574.574,0,0,1,.536.736c-.44,1.48-1.528,4.8-2.643,5.509-1.445.922-5.415.375-6.22.3-1.721-.161-2.289-4.9-2.348-5.431a.521.521,0,0,1,0-.1l.051-.75A.575.575,0,0,1,1224.7,6918.529Z" transform="translate(-1210.933 -6917.576)" fill="none" stroke="#344154" stroke-linecap="round" stroke-linejoin="round" stroke-width="2"/>
            <line id="Línea_421" data-name="Línea 421" x2="3.132" y2="0.286" transform="translate(10.632 0.667)" fill="none" stroke="#344154" stroke-linecap="round" stroke-linejoin="round" stroke-width="2"/>
            <line id="Línea_422" data-name="Línea 422" x2="1.777" y2="0.056" transform="translate(11.348 1.851)" fill="none" stroke="#344154" stroke-linecap="round" stroke-linejoin="round" stroke-width="2"/>
            <line id="Línea_423" data-name="Línea 423" y1="1.055" x2="1.61" transform="translate(24.451 0.519)" fill="none" stroke="#344154" stroke-linecap="round" stroke-linejoin="round" stroke-width="2"/>
          </g>
          <path id="Trazado_106224" data-name="Trazado 106224" d="M1232.956,6921.635c0,.705-.323,1.277-.722,1.277s-.722-.572-.722-1.277.323-1.277.722-1.277S1232.956,6920.93,1232.956,6921.635Z" transform="translate(-1214.501 -6905.756)" fill="#344154"/>
          <path id="Trazado_106225" data-name="Trazado 106225" d="M1211.877,6921.1c0,.705-.323,1.277-.722,1.277s-.722-.572-.722-1.277.323-1.277.722-1.277S1211.877,6920.4,1211.877,6921.1Z" transform="translate(-1204.414 -6905.502)" fill="#344154"/>
          <path id="Trazado_106226" data-name="Trazado 106226" d="M1218.872,6923.847s-1.251,5-1.418,5.586.751,1.168,2.419.584" transform="translate(-1207.765 -6907.426)" fill="none" stroke="#344154" stroke-linecap="round" stroke-linejoin="round" stroke-width="1"/>
          <path id="Trazado_106227" data-name="Trazado 106227" d="M1217.472,6940.8a10.22,10.22,0,0,0,5.337-.167" transform="translate(-1207.783 -6915.459)" fill="none" stroke="#344154" stroke-linecap="round" stroke-linejoin="round" stroke-width="1"/>
          <path id="Trazado_106228" data-name="Trazado 106228" d="M1227.706,6916.005s1.668-1.917,6.921-.083" transform="translate(-1212.68 -6903.253)" fill="none" stroke="#344154" stroke-linecap="round" stroke-linejoin="round" stroke-width="1"/>
          <path id="Trazado_106229" data-name="Trazado 106229" d="M1211.907,6914.874a6.253,6.253,0,0,0-6.588-.5" transform="translate(-1201.968 -6902.539)" fill="none" stroke="#344154" stroke-linecap="round" stroke-linejoin="round" stroke-width="1"/>
        </g>
        <g id="Grupo_66596" data-name="Grupo 66596" transform="translate(74.588 48.542)">
          <path id="Trazado_106230" data-name="Trazado 106230" d="M1266.6,6975.19s-.176,19.951-.528,23.907.528,7.4,4.4,9.459a16.107,16.107,0,0,0,10.393,1.375c1.585-.515,7.222-3.439,6.517-7.911s-5.46-19.436-7.574-26.487-2.466-10.32-5.284-12.556-3.684-2.845-6.15-1.125" transform="translate(-1266.002 -6960.862)" fill="#6595bf" stroke="#344154" stroke-linecap="round" stroke-linejoin="round" stroke-width="1"/>
        </g>
        <g id="Grupo_66597" data-name="Grupo 66597" transform="translate(0 89.16)">
          <path id="Trazado_106231" data-name="Trazado 106231" d="M1136.4,7055.211l2.168-3.168a60.4,60.4,0,0,0,8.339-3.169c2.335-1.334,3.836-5.169,1.5-7.67s-6.17-3.336-8.839-1.335-3.669,5.67-5.17,6.671-7.672,2.5-9.339,2.835a2.28,2.28,0,0,0-2,2.834c.333,1.168,1.5,5.837,2.335,6.5s3.669,2.669,5.67,2.669,4-2.334,4.67-2.5A2.148,2.148,0,0,0,1136.4,7055.211Z" transform="translate(-1122.972 -7038.75)" fill="#ffbf9d" stroke="#344154" stroke-linecap="round" stroke-linejoin="round" stroke-width="1"/>
          <path id="Trazado_106232" data-name="Trazado 106232" d="M1140.6,7058.7s-.784,7.345-.5,7.631a2.51,2.51,0,0,0,2.068.427c.856-.213,2-5.776,2-6.917a7.148,7.148,0,0,0-.784-2.638" transform="translate(-1131.139 -7047.579)" fill="none" stroke="#344154" stroke-linecap="round" stroke-linejoin="round" stroke-width="1"/>
          <path id="Trazado_106233" data-name="Trazado 106233" d="M1131.545,7061.164s2.424,4.35,3.352,4.993l.927.642" transform="translate(-1127.074 -7049.476)" fill="none" stroke="#344154" stroke-linecap="round" stroke-linejoin="round" stroke-width="1"/>
          <path id="Trazado_106234" data-name="Trazado 106234" d="M1126.485,7065.676s2.425,4.494,3.637,5.064a14.534,14.534,0,0,0,6.775,1.427" transform="translate(-1124.653 -7051.635)" fill="none" stroke="#344154" stroke-linecap="round" stroke-linejoin="round" stroke-width="1"/>
          <path id="Trazado_106235" data-name="Trazado 106235" d="M1132.257,7046.862l2.97,12.014.856.286.143-1.284-2.538-11.354a.735.735,0,0,0-.928-.543h0A.735.735,0,0,0,1132.257,7046.862Z" transform="translate(-1127.405 -7042.196)" fill="#344154" stroke="#344154" stroke-linecap="round" stroke-linejoin="round" stroke-width="1"/>
          <path id="Trazado_106236" data-name="Trazado 106236" d="M1130.177,7078.669s3.138,1.07,3.922,1.212a5.772,5.772,0,0,0,2.995-.285" transform="translate(-1126.42 -7057.852)" fill="none" stroke="#344154" stroke-linecap="round" stroke-linejoin="round" stroke-width="1"/>
          <path id="Trazado_106237" data-name="Trazado 106237" d="M1147.453,7070.315a1.778,1.778,0,0,1-1.376.834" transform="translate(-1134.028 -7053.855)" fill="none" stroke="#344154" stroke-linecap="round" stroke-linejoin="round" stroke-width="1"/>
        </g>
        <path id="Trazado_106238" data-name="Trazado 106238" d="M1239.069,7042.309s-18.261,12.007-19.262,12.508-11.007,3.252-12.508,4.128-2.5,4.627-3.127,5.878a26.967,26.967,0,0,0-1.25,4.754,2.059,2.059,0,0,0,1.75.625c1.126-.125,2.377-4.878,2.377-4.878l2.5-3.627a25.332,25.332,0,0,0-1.626,4.5c0,.875-.626,3.252-.626,3.628s.75.875,1.751.375,1.751-4.253,1.751-4.253l2.126-3.5s-1.626,4.878-2.126,5.878-.625,1.376.75,1.251,1.5-1.626,1.876-2.627,1.251-2.876,1.251-2.876l2.5-1.751s-1.626,3.5-2.126,4.378-1,1.125.75,1.125,2.877-3.876,2.877-3.876a23.655,23.655,0,0,0,1.876-1.5c.5-.5,2.376-3.378,2.376-3.378s22.264-7.5,24.89-8.755,2.877-3.127,1.876-4.754S1244.323,7040.183,1239.069,7042.309Z" transform="translate(-1161.229 -6950.989)" fill="#ffbf9d" stroke="#344154" stroke-linecap="round" stroke-linejoin="round" stroke-width="1"/>
      </g>
      <g id="Grupo_66600" data-name="Grupo 66600" transform="translate(1106.409 6894.914)">
        <g id="Grupo_66599" data-name="Grupo 66599">
          <path id="Trazado_106239" data-name="Trazado 106239" d="M1261.033,7102.766l-16.125-13.453h28.756Z" transform="translate(-1244.907 -7071.824)" fill="#fff" stroke="#344154" stroke-linecap="round" stroke-linejoin="round" stroke-width="1"/>
          <path id="Trazado_106240" data-name="Trazado 106240" d="M1271.124,7106.573l-6.544-5.9h10.393Z" transform="translate(-1254.321 -7077.259)" fill="#344154" stroke="#344154" stroke-linecap="round" stroke-linejoin="round" stroke-width="1"/>
          <path id="Trazado_106241" data-name="Trazado 106241" d="M1324.6,7086.718h-48.767l7.436-30.941h48.767Z" transform="translate(-1259.704 -7055.776)" fill="#fff" stroke="#344154" stroke-linecap="round" stroke-linejoin="round" stroke-width="1"/>
        </g>
        <path id="Trazado_106242" data-name="Trazado 106242" d="M1328.133,7086.882c-9.037,1.435-17.741,6.771-28.4,9.905a117.3,117.3,0,0,1-23.787,4.334l-.116.481H1324.6Z" transform="translate(-1259.704 -7070.661)" fill="#344154" stroke="#344154" stroke-linecap="round" stroke-linejoin="round" stroke-width="1"/>
        <ellipse id="Elipse_4070" data-name="Elipse 4070" cx="3.418" cy="2.614" rx="3.418" ry="2.614" transform="translate(42.038 13.26)" fill="#fff" stroke="#344154" stroke-linecap="round" stroke-linejoin="round" stroke-width="1"/>
      </g>
    </g>
  </g>
</svg>
