<svg id="Grupo_58890" data-name="Grupo 58890" xmlns="http://www.w3.org/2000/svg" xmlns:xlink="http://www.w3.org/1999/xlink" width="119.688" height="105.009" viewBox="0 0 119.688 105.009">
  <defs>
    <clipPath id="clip-path">
      <rect id="Rectángulo_25628" data-name="Rectángulo 25628" width="119.688" height="105.009" fill="none"/>
    </clipPath>
  </defs>
  <g id="Grupo_24953" data-name="Grupo 24953" clip-path="url(#clip-path)">
    <path id="Trazado_64741" data-name="Trazado 64741" d="M58.4,88.356,56.379,81.2A23.026,23.026,0,0,0,43.912,66.579l-5.025-2.33A11.232,11.232,0,0,1,32.8,57.12l-2.433-8.577.192-1.444a7.393,7.393,0,0,0-3.434-7.256l-.123-.076" transform="translate(-3.364 -4.954)" fill="none" stroke="#344154" stroke-linecap="round" stroke-linejoin="round" stroke-width="3"/>
    <path id="Trazado_64742" data-name="Trazado 64742" d="M30.491,77.274q-.538.075-1.058.119a17.25,17.25,0,0,1-14.986-6.7C7.1,61.276,1.5,67.154,1.5,67.154A120.274,120.274,0,0,1,11.7,81.606,21.8,21.8,0,0,0,25.156,92.05q.531.133,1.086.247a12.678,12.678,0,0,1,8.633,6.528" transform="translate(-0.187 -8.14)" fill="none" stroke="#344154" stroke-linecap="round" stroke-linejoin="round" stroke-width="3"/>
    <path id="Trazado_64743" data-name="Trazado 64743" d="M7.412,60.587l-2.5-11.442,7.35-22.562s4.217,1.057,3.129,7.494L12.052,48.754l2.276,9.278" transform="translate(-0.612 -3.312)" fill="none" stroke="#344154" stroke-linecap="round" stroke-linejoin="round" stroke-width="3"/>
    <path id="Trazado_64744" data-name="Trazado 64744" d="M16.34,28.431l1.973-6.092s5.457,2.006,3.615,9.277L18.873,47.552l2.438,8.62" transform="translate(-2.036 -2.783)" fill="none" stroke="#344154" stroke-linecap="round" stroke-linejoin="round" stroke-width="3"/>
    <path id="Trazado_64745" data-name="Trazado 64745" d="M23.147,29.276l.278.2a8.284,8.284,0,0,1,3.246,8.206L24.9,47.124,27.425,55.9" transform="translate(-2.884 -3.647)" fill="none" stroke="#344154" stroke-linecap="round" stroke-linejoin="round" stroke-width="3"/>
    <path id="Trazado_64746" data-name="Trazado 64746" d="M56.907,110.275l-17.186,5.289-4.627-11.546,24.317-8.752v5.854" transform="translate(-4.372 -11.868)" fill="none" stroke="#344154" stroke-linecap="round" stroke-linejoin="round" stroke-width="3"/>
    <line id="Línea_160" data-name="Línea 160" y1="7.889" x2="22.317" transform="translate(32.722 89.251)" fill="none" stroke="#344154" stroke-linecap="round" stroke-linejoin="round" stroke-width="3"/>
    <path id="Trazado_64747" data-name="Trazado 64747" d="M73.849,88.356,75.874,81.2A23.025,23.025,0,0,1,88.341,66.579l5.025-2.33a11.232,11.232,0,0,0,6.082-7.129l2.433-8.577-.192-1.444a7.393,7.393,0,0,1,3.434-7.256l.123-.076" transform="translate(-9.2 -4.954)" fill="none" stroke="#344154" stroke-linecap="round" stroke-linejoin="round" stroke-width="3"/>
    <path id="Trazado_64748" data-name="Trazado 64748" d="M101.48,77.274q.538.075,1.058.119a17.25,17.25,0,0,0,14.986-6.7c7.35-9.413,12.947-3.536,12.947-3.536a120.276,120.276,0,0,0-10.2,14.451A21.8,21.8,0,0,1,106.816,92.05q-.531.133-1.086.247A12.678,12.678,0,0,0,97.1,98.825" transform="translate(-12.096 -8.14)" fill="none" stroke="#344154" stroke-linecap="round" stroke-linejoin="round" stroke-width="3"/>
    <path id="Trazado_64749" data-name="Trazado 64749" d="M127.792,60.587l2.5-11.442-7.35-22.562s-4.217,1.057-3.129,7.494l3.335,14.677-2.276,9.278" transform="translate(-14.904 -3.312)" fill="none" stroke="#344154" stroke-linecap="round" stroke-linejoin="round" stroke-width="3"/>
    <path id="Trazado_64750" data-name="Trazado 64750" d="M119.532,28.431l-1.973-6.092s-5.457,2.006-3.615,9.277L117,47.552l-2.438,8.62" transform="translate(-14.148 -2.783)" fill="none" stroke="#344154" stroke-linecap="round" stroke-linejoin="round" stroke-width="3"/>
    <path id="Trazado_64751" data-name="Trazado 64751" d="M112.965,29.276l-.278.2a8.284,8.284,0,0,0-3.246,8.206l1.767,9.439L108.687,55.9" transform="translate(-13.54 -3.647)" fill="none" stroke="#344154" stroke-linecap="round" stroke-linejoin="round" stroke-width="3"/>
    <path id="Trazado_64752" data-name="Trazado 64752" d="M76.353,110.275l17.186,5.289,4.627-11.546L73.85,95.266v5.854" transform="translate(-9.2 -11.868)" fill="none" stroke="#344154" stroke-linecap="round" stroke-linejoin="round" stroke-width="3"/>
    <line id="Línea_161" data-name="Línea 161" x1="22.317" y1="7.889" transform="translate(64.649 89.251)" fill="none" stroke="#344154" stroke-linecap="round" stroke-linejoin="round" stroke-width="3"/>
    <path id="Trazado_64753" data-name="Trazado 64753" d="M65.254,0A25.628,25.628,0,1,0,90.883,25.629,25.628,25.628,0,0,0,65.254,0m0,45.053A19.424,19.424,0,1,1,84.678,25.629,19.424,19.424,0,0,1,65.254,45.053" transform="translate(-4.937)" fill="#56bcc7"/>
    <path id="Trazado_64754" data-name="Trazado 64754" d="M62.9,33.015a5.255,5.255,0,1,0,10.51,0c0-2.9-2.154-4.243-5.255-5.254-2.759-.9-5.255-2.353-5.255-5.255a5.255,5.255,0,1,1,10.51,0" transform="translate(-7.836 -2.149)" fill="none" stroke="#344154" stroke-linecap="round" stroke-linejoin="round" stroke-width="3"/>
    <line id="Línea_162" data-name="Línea 162" y2="2.965" transform="translate(60.317 12.171)" fill="none" stroke="#344154" stroke-linecap="round" stroke-linejoin="round" stroke-width="3"/>
    <line id="Línea_163" data-name="Línea 163" y2="2.965" transform="translate(60.317 36.121)" fill="none" stroke="#344154" stroke-linecap="round" stroke-linejoin="round" stroke-width="3"/>
  </g>
</svg>
