<svg xmlns="http://www.w3.org/2000/svg" width="286" height="286" viewBox="0 0 286 286">
  <g id="Grupo_70490" data-name="Grupo 70490" transform="translate(-2106 4231)">
    <rect id="Rectángulo_31439" data-name="Rectángulo 31439" width="286" height="286" transform="translate(2106 -4231)" fill="none"/>
    <g id="grafico-07" transform="translate(2120.825 -4187.136)" style="isolation: isolate">
      <g id="Layer_1" data-name="Layer 1" transform="translate(0.282 0.002)">
        <g id="freepik--background-simple--inject-28" transform="translate(30.008)">
          <path id="Path_105909" data-name="Path 105909" d="M52.3,124.973S53.62,147.1,69.92,168.324c14.219,18.495,35.441,28.762,58.534,29.826,15.242.712,30.107-2.948,44.577-7.367,18.62-5.675,39.83-9.34,55.741-21.179,24.761-18.453,35.213-54.133,30.777-83.971-2.858-19.278-13.753-39.644-33.485-45.582-7.3-2.194-15.134-3.271-21.879-7.02-8.1-4.527-12.79-12.7-19.374-18.877-8.126-7.642-18.25-10.727-28.965-12.635C121.039-4.675,91.518,8.575,69.92,32.488S48.771,114.766,52.3,124.973Z" transform="translate(-50.467 -0.002)" fill="#dfedfa"/>
        </g>
        <path id="Trazado_100999" data-name="Trazado 100999" d="M258.342,174.715l55.281-36.176L282.051,90.29l-27.637,18.088-28.283,9.238.64,8.844Z" transform="translate(-91.083 -36.302)" fill="#f6c092"/>
        <path id="Trazado_101000" data-name="Trazado 101000" d="M307.62,110.85l15.26,43.4,6.308.407,4.658-3.725Z" transform="translate(-123.846 -44.568)" fill="#dba47b"/>
        <rect id="Rectángulo_31268" data-name="Rectángulo 31268" width="27.215" height="6.67" transform="translate(197.108 111.374) rotate(-33.215)" fill="#dba47b"/>
        <rect id="Rectángulo_31269" data-name="Rectángulo 31269" width="33.537" height="67.337" transform="translate(178.39 56.608) rotate(-33.215)" fill="#f4f4f4"/>
        <rect id="Rectángulo_31270" data-name="Rectángulo 31270" width="33.537" height="21.817" transform="translate(203.361 94.655) rotate(-33.215)" fill="#cecece"/>
        <path id="Trazado_101001" data-name="Trazado 101001" d="M230.984,212.49l41.133-26.908a16.91,16.91,0,0,0,4.891-23.41L258.741,134.26,231.1,152.342,202.82,161.61l.64,8.85Z" transform="translate(-81.712 -53.98)" fill="#f6c092"/>
        <path id="Trazado_101002" data-name="Trazado 101002" d="M237.52,236.327,287.228,203.8a16.844,16.844,0,0,0,6.482-7.995,16.892,16.892,0,0,1-7.642,14.512l-39.357,25.754Z" transform="translate(-95.663 -78.726)" fill="#dba47b"/>
        <rect id="Rectángulo_31271" data-name="Rectángulo 31271" width="36.768" height="73.817" transform="translate(183.596 49.024) rotate(-33.2)" fill="#535353"/>
        <rect id="Rectángulo_31272" data-name="Rectángulo 31272" width="36.768" height="20.827" transform="translate(212.617 93.365) rotate(-33.2)" fill="#494949"/>
        <path id="Trazado_101003" data-name="Trazado 101003" d="M270.048,197.1l-51.077-33.42a10.494,10.494,0,0,1-3.032-14.518h0a10.488,10.488,0,0,1,14.512-3.032l51.077,33.426a10.482,10.482,0,0,1,3.032,14.512h0A10.488,10.488,0,0,1,270.048,197.1Z" transform="translate(-86.298 -58.064)" fill="#cc8f62"/>
        <path id="Trazado_101004" data-name="Trazado 101004" d="M284.36,192.252l-4.784-3.121A10.482,10.482,0,0,1,267.564,206.3L221.27,176c.173.126.353.257.532.377l51.077,33.42a10.483,10.483,0,1,0,11.481-17.544Z" transform="translate(-89.129 -70.761)" fill="#aa7149"/>
        <path id="Trazado_101005" data-name="Trazado 101005" d="M205.07,192.193l52.817,34.562A10.487,10.487,0,1,0,269.369,209.2L209.1,169.77Z" transform="translate(-82.616 -68.257)" fill="#cc8f62"/>
        <g id="Grupo_63467" data-name="Grupo 63467" transform="translate(114.972 62.579)" style="mix-blend-mode: multiply;isolation: isolate">
          <path id="Trazado_101006" data-name="Trazado 101006" d="M254.28,134.58c-21.245,25.365-36.882-5.2-36.882-5.2l16.36,24.994a10.494,10.494,0,0,1-3.032,14.518h0a10.482,10.482,0,0,1-14.512-3.038l-21.945-33.527a10.482,10.482,0,0,1,3.038-14.512l17.472-11.433a10.452,10.452,0,0,1,9.137-1.16l20.827,7.092Z" transform="translate(-192.558 -104.657)" fill="#dba47b"/>
        </g>
        <path id="Trazado_101007" data-name="Trazado 101007" d="M191.841,271.775l-46.389-30.352a10.488,10.488,0,0,1-3.032-14.512h0a10.488,10.488,0,0,1,14.512-3.056l46.389,30.352a10.488,10.488,0,0,1,3.032,14.512h0a10.476,10.476,0,0,1-14.512,3.056Z" transform="translate(-56.74 -89.316)" fill="#cc8f62"/>
        <path id="Trazado_101008" data-name="Trazado 101008" d="M206.14,266.935l-4.784-3.115a10.482,10.482,0,0,1-12.013,17.167L147.72,253.75c.173.132.347.257.532.377l46.389,30.352a10.483,10.483,0,1,0,11.481-17.544Z" transform="translate(-59.559 -102.021)" fill="#aa7149"/>
        <path id="Trazado_101009" data-name="Trazado 101009" d="M109.207,175.385,53.92,139.215,85.5,90.96l27.637,18.088,28.283,9.238-.64,8.85Z" transform="translate(-21.847 -36.571)" fill="#cc8f62"/>
        <path id="Trazado_101010" data-name="Trazado 101010" d="M74.453,152.791l27.542-50.886-14.512-9.5L55.91,140.659Z" transform="translate(-22.647 -37.154)" fill="#aa7149"/>
        <rect id="Rectángulo_31273" data-name="Rectángulo 31273" width="67.066" height="33.402" transform="translate(12.278 95.178) rotate(-56.8)" fill="#f4f4f4"/>
        <rect id="Rectángulo_31274" data-name="Rectángulo 31274" width="21.73" height="33.402" transform="translate(12.278 95.18) rotate(-56.8)" fill="#cecece"/>
        <path id="Trazado_101011" data-name="Trazado 101011" d="M141.847,218.568,100.72,191.66a16.91,16.91,0,0,1-4.891-23.428L114.09,140.32l27.643,18.088,28.283,9.226-.646,8.85Z" transform="translate(-37.583 -56.416)" fill="#cc8f62"/>
        <path id="Trazado_101012" data-name="Trazado 101012" d="M149.273,242.417,99.565,209.895a16.892,16.892,0,0,1-6.488-7.995,16.9,16.9,0,0,0,7.648,14.512l39.357,25.754Z" transform="translate(-37.588 -81.174)" fill="#dba47b"/>
        <path id="Trazado_101013" data-name="Trazado 101013" d="M227.957,253.287l-43.926-28.738A10.488,10.488,0,0,1,181,210.037h0A10.482,10.482,0,0,1,195.512,207l43.926,28.744a10.488,10.488,0,0,1,3.061,14.512h0a10.476,10.476,0,0,1-14.542,3.032Z" transform="translate(-72.251 -82.537)" fill="#cc8f62"/>
        <path id="Trazado_101014" data-name="Trazado 101014" d="M242.256,248.44l-4.784-3.115a10.482,10.482,0,0,1-12.013,17.167L186.3,236.87c.173.132.353.257.532.377l43.926,28.738a10.483,10.483,0,0,0,11.481-17.544Z" transform="translate(-75.07 -95.234)" fill="#aa7149"/>
        <path id="Trazado_101015" data-name="Trazado 101015" d="M269.356,224.262l-4.784-3.115a10.482,10.482,0,0,1-12.013,17.167L205.04,207.22h0l52.817,34.562a10.487,10.487,0,1,0,11.482-17.552Z" transform="translate(-82.604 -83.313)" fill="#aa7149"/>
        <path id="Trazado_101016" data-name="Trazado 101016" d="M135.215,106.246,166.6,95.561a10.464,10.464,0,0,1,9.125,1.148l17.466,11.445a10.482,10.482,0,0,1,3.038,14.512l-21.963,33.521a10.488,10.488,0,0,1-14.512,3.032h0a10.494,10.494,0,0,1-3.032-14.518l16.36-24.994s-15.122,27.853-41.558,10.572" transform="translate(-53.046 -38.194)" fill="#cc8f62"/>
        <rect id="Rectángulo_31275" data-name="Rectángulo 31275" width="74.116" height="36.917" transform="translate(0 91.196) rotate(-56.785)" fill="#114677"/>
        <path id="Trazado_101017" data-name="Trazado 101017" d="M119.982,228.872l46.389-30.358A10.488,10.488,0,0,0,169.4,184h0a10.488,10.488,0,0,0-14.512-3.032L108.5,211.322a10.494,10.494,0,0,0-3.032,14.518h0a10.488,10.488,0,0,0,14.512,3.032Z" transform="translate(-41.884 -72.072)" fill="#f6c092"/>
        <path id="Trazado_101018" data-name="Trazado 101018" d="M117.82,226.84,164.2,196.482a10.482,10.482,0,0,0,4.12-12.372,10.662,10.662,0,0,1,1.531,1.842h0a10.488,10.488,0,0,1-3.032,14.512l-46.389,30.358a10.488,10.488,0,0,1-14.512-3.032h0a10.428,10.428,0,0,1-1.07-2.147A10.482,10.482,0,0,0,117.82,226.84Z" transform="translate(-42.323 -74.022)" fill="#dba47b"/>
        <path id="Trazado_101019" data-name="Trazado 101019" d="M95.284,206.119l39.674-25.975a10.488,10.488,0,0,0,3.032-14.512h0a10.488,10.488,0,0,0-14.512-3.032L83.809,188.575a10.476,10.476,0,0,0-3.032,14.512h0A10.482,10.482,0,0,0,95.284,206.119Z" transform="translate(-31.956 -64.686)" fill="#f6c092"/>
        <path id="Trazado_101020" data-name="Trazado 101020" d="M93.1,204.087l39.674-25.975a10.488,10.488,0,0,0,4.108-12.372,10.441,10.441,0,0,1,1.531,1.842h0a10.488,10.488,0,0,1-3.032,14.512L95.709,208.069A10.482,10.482,0,0,1,81.2,205.037h0A10.41,10.41,0,0,1,80.12,202.9a10.488,10.488,0,0,0,12.982,1.19Z" transform="translate(-32.38 -66.636)" fill="#dba47b"/>
        <path id="Trazado_101021" data-name="Trazado 101021" d="M152.171,252.814l39.674-25.975a10.488,10.488,0,0,0,3.038-14.518h0a10.494,10.494,0,0,0-14.518-3.032L140.69,235.271a10.482,10.482,0,0,0-3.032,14.512h0a10.488,10.488,0,0,0,14.512,3.032Z" transform="translate(-54.825 -83.457)" fill="#f6c092"/>
        <path id="Trazado_101022" data-name="Trazado 101022" d="M149.992,250.787l39.68-25.975a10.488,10.488,0,0,0,4.1-12.372,10.428,10.428,0,0,1,1.537,1.836h0a10.488,10.488,0,0,1-3.038,14.518L152.6,254.769a10.488,10.488,0,0,1-14.512-3.032h0a10.875,10.875,0,0,1-1.076-2.141A10.488,10.488,0,0,0,149.992,250.787Z" transform="translate(-55.253 -85.412)" fill="#dba47b"/>
        <path id="Trazado_101023" data-name="Trazado 101023" d="M184.914,277.55l31.327-20.42a10.476,10.476,0,0,0,3.032-14.512h0a10.488,10.488,0,0,0-14.524-3.032l-31.327,20.42a10.488,10.488,0,0,0-3.032,14.512h0A10.488,10.488,0,0,0,184.914,277.55Z" transform="translate(-67.985 -95.636)" fill="#f6c092"/>
        <path id="Trazado_101024" data-name="Trazado 101024" d="M182.746,275.522l31.327-20.42a10.482,10.482,0,0,0,4.108-12.372,10.661,10.661,0,0,1,1.531,1.842h0a10.476,10.476,0,0,1-3.032,14.512L185.353,279.5a10.488,10.488,0,0,1-14.512-3.032h0a10.531,10.531,0,0,1-1.07-2.141A10.482,10.482,0,0,0,182.746,275.522Z" transform="translate(-68.424 -97.59)" fill="#dba47b"/>
        <rect id="Rectángulo_31276" data-name="Rectángulo 31276" width="20.911" height="36.917" transform="translate(0.098 91.215) rotate(-56.785)" fill="#06263d"/>
        <path id="Trazado_101025" data-name="Trazado 101025" d="M246.509,105.575,215.128,94.884A10.488,10.488,0,0,0,206,96.038l-17.472,11.433a10.488,10.488,0,0,0-3.032,14.512l21.945,33.527a10.482,10.482,0,0,0,14.512,3.032h0a10.488,10.488,0,0,0,3.032-14.512l-16.36-24.994s15.14,27.853,41.576,10.554" transform="translate(-74.06 -37.924)" fill="#f6c092"/>
      </g>
    </g>
  </g>
</svg>
