<svg xmlns="http://www.w3.org/2000/svg" xmlns:xlink="http://www.w3.org/1999/xlink" width="246" height="246" viewBox="0 0 246 246">
  <defs>
    <clipPath id="clip-path">
      <rect id="Rectángulo_25821" data-name="Rectángulo 25821" width="245.302" height="140.418" fill="none"/>
    </clipPath>
  </defs>
  <g id="Grupo_70514" data-name="Grupo 70514" transform="translate(580 -484)">
    <rect id="Rectángulo_31453" data-name="Rectángulo 31453" width="246" height="246" transform="translate(-580 484)" fill="none"/>
    <g id="Grupo_70511" data-name="Grupo 70511" transform="translate(-579.302 536.993)">
      <rect id="Rectángulo_25820" data-name="Rectángulo 25820" width="106.193" height="3.527" transform="translate(196.351 118.737) rotate(-89.541)" fill="#3d4451"/>
      <path id="Trazado_65954" data-name="Trazado 65954" d="M239.335,13.2l40.026,13.387-39.81,10.064Z" transform="translate(-40.624 -2.241)" fill="#ed7b5c"/>
      <path id="Trazado_65955" data-name="Trazado 65955" d="M240.824,15.251l31.589,10.565-31.42,7.943Zm-3.484,23.243,48.2-12.184L237.08,10.1Z" transform="translate(-40.241 -1.715)" fill="#3d4451"/>
      <g id="Grupo_25120" data-name="Grupo 25120">
        <g id="Grupo_25119" data-name="Grupo 25119" clip-path="url(#clip-path)">
          <path id="Trazado_65956" data-name="Trazado 65956" d="M2.207,164.887h0c0-11.449,8.708-20.729,19.45-20.729H205.32c10.741,0,19.45,9.281,19.45,20.729" transform="translate(-0.375 -24.469)" fill="#f4f4f4"/>
          <path id="Trazado_65957" data-name="Trazado 65957" d="M0,164.513c0-12.441,9.547-22.562,21.282-22.562H204.945c11.735,0,21.282,10.121,21.282,22.562h-3.665c0-10.42-7.9-18.9-17.617-18.9H21.282c-9.714,0-17.617,8.477-17.617,18.9Z" transform="translate(0 -24.094)" fill="#3d4451"/>
          <path id="Trazado_65958" data-name="Trazado 65958" d="M191.814,70.317A11.628,11.628,0,1,0,179.6,60.255a11.825,11.825,0,0,0,12.215,10.062" transform="translate(-30.467 -7.991)" fill="#3d4451"/>
          <path id="Trazado_65959" data-name="Trazado 65959" d="M171.405,104.121l-8.73-2.816a5.333,5.333,0,0,1-3.495-6.826l7.743-22.134A5.654,5.654,0,0,1,174,68.928a14.136,14.136,0,0,1,9.266,18.1L178.482,100.7a5.656,5.656,0,0,1-7.077,3.417" transform="translate(-26.968 -11.652)" fill="#3d4451"/>
          <path id="Trazado_65960" data-name="Trazado 65960" d="M186.89,135.623a4.534,4.534,0,0,1-4.532-4.438l-.325-15.342L171,108.154a4.534,4.534,0,0,1,5.186-7.438L191,111.042l.423,19.95a4.534,4.534,0,0,1-4.437,4.63h-.1" transform="translate(-28.696 -16.956)" fill="#3d4451"/>
          <path id="Trazado_65961" data-name="Trazado 65961" d="M141.51,138.309a4.534,4.534,0,0,1-3.731-7.1l11.751-17.08,5.186-12.662a4.534,4.534,0,1,1,8.391,3.438l-5.556,13.561-12.3,17.882a4.532,4.532,0,0,1-3.74,1.964" transform="translate(-23.25 -16.744)" fill="#3d4451"/>
          <path id="Trazado_65962" data-name="Trazado 65962" d="M175.019,74.169a3.728,3.728,0,0,1-1.4-.274l-12.229-4.951-4.411-15.724a3.739,3.739,0,0,1,7.2-2.021L167.6,63.39l8.825,3.573a3.74,3.74,0,0,1-1.4,7.206" transform="translate(-26.621 -8.227)" fill="#3d4451"/>
          <path id="Trazado_65963" data-name="Trazado 65963" d="M184.2,78.137h42.614v1.592a2.585,2.585,0,0,1-2.585,2.585h-4.1l-.012,2.547a3.608,3.608,0,0,1-3.422,2.467H184.2" transform="translate(-31.266 -13.263)" fill="#3d4451"/>
          <path id="Trazado_65964" data-name="Trazado 65964" d="M120.135,32.645a15.58,15.58,0,0,0,2.634-3.288l4.845.637,1.76-6.289L125,21.743a15.661,15.661,0,0,0-.476-4.347l3.74-2.878-3.211-5.711-4.326,1.644a15.763,15.763,0,0,0-3.536-2.834l.58-4.549-6.3-1.787-1.85,4.15a15.664,15.664,0,0,0-4.549.531l-2.79-3.612-5.7,3.185,1.65,4.294a15.579,15.579,0,0,0-2.761,3.563l-4.6-.605-1.76,6.29,4.327,1.94a15.722,15.722,0,0,0,.574,4.33L90.22,28.266l3.211,5.711,4.564-1.734a15.716,15.716,0,0,0,3.341,2.591l-.622,4.882,6.3,1.786,2.018-4.527a15.654,15.654,0,0,0,4.131-.482l3.04,3.938,5.7-3.184Zm-16.152-5.492a8.012,8.012,0,1,1,11.34-.618,8.028,8.028,0,0,1-11.34.618" transform="translate(-15.125 -0.218)" fill="#ed7b5c"/>
          <path id="Trazado_65965" data-name="Trazado 65965" d="M106.8,42.349a1.1,1.1,0,0,1-.291-.041l-6.3-1.787a1.064,1.064,0,0,1-.765-1.158l.535-4.2a16.858,16.858,0,0,1-2.454-1.905l-3.929,1.493a1.067,1.067,0,0,1-1.306-.474l-3.211-5.711a1.064,1.064,0,0,1,.278-1.365l3.234-2.489a16.848,16.848,0,0,1-.424-3.221l-3.706-1.662a1.065,1.065,0,0,1-.59-1.258l1.761-6.29a1.063,1.063,0,0,1,1.163-.768l3.906.513a16.577,16.577,0,0,1,2.076-2.678L95.37,5.7a1.065,1.065,0,0,1,.474-1.311l5.7-3.185a1.066,1.066,0,0,1,1.362.279l2.365,3.063a16.8,16.8,0,0,1,3.442-.4L110.279.631A1.066,1.066,0,0,1,111.543.04l6.3,1.787a1.064,1.064,0,0,1,.766,1.158l-.492,3.869a16.855,16.855,0,0,1,2.668,2.136l3.673-1.4a1.065,1.065,0,0,1,1.306.473l3.211,5.711a1.065,1.065,0,0,1-.279,1.366l-3.2,2.46a16.741,16.741,0,0,1,.355,3.234l3.74,1.677a1.066,1.066,0,0,1,.589,1.259l-1.76,6.289a1.065,1.065,0,0,1-1.164.769l-4.169-.548a16.722,16.722,0,0,1-1.93,2.409l1.519,3.954a1.066,1.066,0,0,1-.475,1.312l-5.7,3.184a1.064,1.064,0,0,1-1.362-.279l-2.624-3.4a16.768,16.768,0,0,1-3.012.351l-1.737,3.9a1.065,1.065,0,0,1-.972.632m-5.13-3.626,4.532,1.285,1.643-3.685a1.049,1.049,0,0,1,.99-.631,14.656,14.656,0,0,0,3.85-.449,1.064,1.064,0,0,1,1.105.381l2.479,3.212,4.095-2.287-1.438-3.741a1.065,1.065,0,0,1,.261-1.153,14.541,14.541,0,0,0,2.454-3.063,1.062,1.062,0,0,1,1.051-.508l3.931.516,1.264-4.517L124.347,22.5a1.062,1.062,0,0,1-.628-1,14.649,14.649,0,0,0-.444-4.053,1.065,1.065,0,0,1,.383-1.106l3.009-2.316-2.31-4.108-3.469,1.318a1.063,1.063,0,0,1-1.156-.268,14.707,14.707,0,0,0-3.3-2.643,1.068,1.068,0,0,1-.516-1.052l.465-3.641L111.849,2.34l-1.475,3.307a1.063,1.063,0,0,1-1,.631,14.592,14.592,0,0,0-4.241.5A1.064,1.064,0,0,1,104.01,6.4l-2.228-2.885L97.688,5.8l1.318,3.433a1.064,1.064,0,0,1-.255,1.148A14.512,14.512,0,0,0,96.18,13.7a1.064,1.064,0,0,1-1.067.531l-3.686-.484-1.264,4.517,3.49,1.565a1.063,1.063,0,0,1,.629.98,14.683,14.683,0,0,0,.536,4.037,1.067,1.067,0,0,1-.376,1.129l-3.06,2.354,2.311,4.109L97.4,31.029a1.066,1.066,0,0,1,1.138.249,14.733,14.733,0,0,0,3.114,2.417,1.061,1.061,0,0,1,.522,1.055Zm7.465-8.677a9.129,9.129,0,0,1-9.11-8.588,9,9,0,0,1,2.283-6.567,9.12,9.12,0,0,1,15.878,5.569,9.046,9.046,0,0,1-9.051,9.586M109.071,14a7,7,0,1,0,4.659,1.778A6.916,6.916,0,0,0,109.071,14" transform="translate(-14.907 0)" fill="#3d4451"/>
          <path id="Trazado_65966" data-name="Trazado 65966" d="M158.115,27.424A12.168,12.168,0,0,0,154.9,26.8l-1.3-3.548L148.625,24.3l.22,3.7a12.233,12.233,0,0,0-2.826,1.882l-3.331-1.531-2.782,4.243,2.689,2.375a12.14,12.14,0,0,0-.682,3.436l-3.346,1.232,1.035,4.957,3.528-.219a12.055,12.055,0,0,0,2,2.927l-1.488,3.2,4.248,2.765,2.368-2.668a12.181,12.181,0,0,0,3.451.615l1.239,3.368,4.971-1.046-.218-3.658a12.241,12.241,0,0,0,2.78-1.944l3.375,1.552,2.783-4.244-2.838-2.5a12.1,12.1,0,0,0,.585-3.216L169.98,38.2l-1.035-4.957-3.847.239a12.107,12.107,0,0,0-1.818-2.658L164.9,27.33l-4.247-2.765Zm2.024,13.031a6.229,6.229,0,1,1-4.506-7.547,6.253,6.253,0,0,1,4.506,7.547" transform="translate(-23.52 -3.946)" fill="#47a4d8"/>
          <path id="Trazado_65967" data-name="Trazado 65967" d="M154.767,55.292a.893.893,0,0,1-.837-.585l-1.036-2.819a13.009,13.009,0,0,1-2.529-.452l-1.988,2.239a.892.892,0,0,1-1.154.155l-4.247-2.765a.89.89,0,0,1-.322-1.123l1.241-2.675a13.024,13.024,0,0,1-1.474-2.154l-2.947.183a.894.894,0,0,1-.928-.707l-1.035-4.957a.89.89,0,0,1,.565-1.019l2.808-1.034a13.1,13.1,0,0,1,.5-2.519l-2.249-1.986a.891.891,0,0,1-.156-1.157l2.783-4.244a.891.891,0,0,1,1.118-.321l2.814,1.294a13.1,13.1,0,0,1,2.047-1.364l-.187-3.117a.892.892,0,0,1,.707-.926l4.971-1.046a.892.892,0,0,1,1.021.565l1.108,3.013a13.153,13.153,0,0,1,2.292.447l2.154-2.428a.894.894,0,0,1,1.154-.155L165.2,26.4a.893.893,0,0,1,.322,1.123L164.148,30.5a13.088,13.088,0,0,1,1.284,1.877l3.276-.2a.9.9,0,0,1,.927.707l1.035,4.957a.892.892,0,0,1-.565,1.02l-3.048,1.122a13.092,13.092,0,0,1-.417,2.289l2.409,2.128a.892.892,0,0,1,.155,1.157l-2.783,4.244a.892.892,0,0,1-1.118.321L162.457,48.8a13.078,13.078,0,0,1-2.013,1.4l.184,3.091a.891.891,0,0,1-.707.925l-4.971,1.047a.939.939,0,0,1-.184.019m-4.689-5.768a.887.887,0,0,1,.281.046,11.3,11.3,0,0,0,3.2.57.891.891,0,0,1,.808.584l.972,2.644,3.465-.729-.173-2.891a.892.892,0,0,1,.486-.848,11.317,11.317,0,0,0,2.577-1.8.893.893,0,0,1,.98-.157l2.678,1.231,1.939-2.956-2.258-1.994a.891.891,0,0,1-.257-.945,11.258,11.258,0,0,0,.542-2.98.891.891,0,0,1,.583-.8l2.869-1.056L168.047,34l-3.078.191a.893.893,0,0,1-.852-.489,11.174,11.174,0,0,0-1.685-2.462.892.892,0,0,1-.146-.972l1.3-2.791-2.956-1.925L158.6,27.834a.891.891,0,0,1-.953.252,11.289,11.289,0,0,0-2.981-.582.892.892,0,0,1-.785-.583L152.842,24.1l-3.463.729.175,2.932a.894.894,0,0,1-.5.858,11.31,11.31,0,0,0-2.621,1.744.894.894,0,0,1-.965.144l-2.633-1.211-1.939,2.957L143,34.113a.892.892,0,0,1,.251.966,11.231,11.231,0,0,0-.633,3.185.893.893,0,0,1-.582.791l-2.624.966.72,3.448,2.757-.171a.892.892,0,0,1,.856.5,11.171,11.171,0,0,0,1.857,2.711.892.892,0,0,1,.154.982l-1.162,2.5,2.956,1.925,1.859-2.094a.893.893,0,0,1,.667-.3m3.818-3.656a7.134,7.134,0,0,1-1.735-.215,7.092,7.092,0,0,1-5.153-8.632,7.153,7.153,0,0,1,8.66-5.16,7.092,7.092,0,0,1,5.152,8.632,7.157,7.157,0,0,1-6.924,5.375m.035-12.439a5.369,5.369,0,0,0-5.195,4.031,5.308,5.308,0,0,0,3.859,6.463,5.367,5.367,0,0,0,6.5-3.87,5.309,5.309,0,0,0-3.859-6.463,5.364,5.364,0,0,0-1.3-.161" transform="translate(-23.337 -3.764)" fill="#3d4451"/>
          <path id="Trazado_65968" data-name="Trazado 65968" d="M139.685,79.43a20.366,20.366,0,0,0-.322-5.491l5.254-3.621-3.8-7.638L134.863,64.6a20.467,20.467,0,0,0-4.264-3.8l1.108-6.061L123.6,52.019,120.843,57.4a20.631,20.631,0,0,0-5.907.345l-3.418-4.917L103.848,56.6l1.838,5.642a20.476,20.476,0,0,0-3.945,4.494l-5.863-1.062-2.74,8.073,5.356,2.72a20.342,20.342,0,0,0,.442,5.869l-4.988,3.437,3.8,7.638,5.892-1.9a20.509,20.509,0,0,0,4.344,3.7l-1.123,6.142,8.109,2.727,2.906-5.672A20.6,20.6,0,0,0,123.377,98l3.668,5.276,7.671-3.779-2.005-6.153a20.46,20.46,0,0,0,3.583-4.079l6.392,1.158,2.74-8.073Zm-20.461,8.8a10.461,10.461,0,1,1,10.452-10.516,10.485,10.485,0,0,1-10.452,10.516" transform="translate(-15.809 -8.829)" fill="#f9a44a"/>
          <path id="Trazado_65969" data-name="Trazado 65969" d="M114.7,105.1a1.285,1.285,0,0,1-.411-.068l-8.108-2.727a1.285,1.285,0,0,1-.855-1.45l.968-5.308a21.8,21.8,0,0,1-3.313-2.822l-5.109,1.651a1.287,1.287,0,0,1-1.548-.652l-3.8-7.638a1.288,1.288,0,0,1,.422-1.631l4.29-2.956a21.665,21.665,0,0,1-.339-4.522l-4.612-2.343a1.286,1.286,0,0,1-.636-1.56L94.4,65a1.287,1.287,0,0,1,1.448-.852l5.037.912a21.721,21.721,0,0,1,3.056-3.484l-1.577-4.838a1.286,1.286,0,0,1,.654-1.553l7.672-3.78a1.287,1.287,0,0,1,1.625.42l2.944,4.236a21.887,21.887,0,0,1,4.566-.27l2.369-4.624a1.289,1.289,0,0,1,1.555-.633l8.108,2.728a1.286,1.286,0,0,1,.855,1.45l-.959,5.246a21.735,21.735,0,0,1,3.256,2.9l5.156-1.666a1.288,1.288,0,0,1,1.548.652l3.8,7.637a1.287,1.287,0,0,1-.423,1.632l-4.573,3.152a21.654,21.654,0,0,1,.243,4.134l4.992,2.535a1.288,1.288,0,0,1,.636,1.561l-2.74,8.073a1.286,1.286,0,0,1-1.448.853l-5.579-1.011a21.781,21.781,0,0,1-2.685,3.059l1.746,5.362a1.284,1.284,0,0,1-.654,1.553l-7.67,3.779a1.285,1.285,0,0,1-1.625-.419l-3.192-4.591a21.9,21.9,0,0,1-4.156.308l-2.531,4.94a1.286,1.286,0,0,1-1.144.7m-6.643-4.879,6,2.02,2.4-4.687a1.288,1.288,0,0,1,1.221-.7,19.335,19.335,0,0,0,5.163-.384,1.287,1.287,0,0,1,1.323.524l3.036,4.368,5.678-2.8-1.66-5.094a1.288,1.288,0,0,1,.377-1.368,19.206,19.206,0,0,0,3.358-3.823,1.288,1.288,0,0,1,1.3-.552l5.3.961,2.026-5.968-4.747-2.41a1.285,1.285,0,0,1-.7-1.245,19.117,19.117,0,0,0-.3-5.144,1.288,1.288,0,0,1,.531-1.308l4.337-2.987L139.9,63.983,135,65.567a1.285,1.285,0,0,1-1.377-.392,19.2,19.2,0,0,0-4-3.56,1.289,1.289,0,0,1-.551-1.3l.907-4.965-6-2.019-2.25,4.39a1.281,1.281,0,0,1-1.255.7,19.311,19.311,0,0,0-5.539.324,1.285,1.285,0,0,1-1.315-.526L110.831,54.2,105.154,57l1.492,4.581a1.285,1.285,0,0,1-.39,1.379,19.142,19.142,0,0,0-3.7,4.213,1.287,1.287,0,0,1-1.311.567l-4.772-.864-2.025,5.968,4.362,2.215a1.287,1.287,0,0,1,.7,1.236,19,19,0,0,0,.413,5.5,1.288,1.288,0,0,1-.526,1.34l-4.071,2.8,2.806,5.647,4.838-1.563a1.286,1.286,0,0,1,1.357.369,19.21,19.21,0,0,0,4.073,3.465,1.287,1.287,0,0,1,.575,1.318ZM118.9,89.257a11.785,11.785,0,0,1-11.792-11.686,11.77,11.77,0,0,1,11.732-11.809h.064a11.748,11.748,0,1,1,.061,23.5Zm0-20.923h-.051a9.182,9.182,0,0,0-6.507,2.724,9.089,9.089,0,0,0-2.664,6.5,9.208,9.208,0,0,0,9.219,9.126h.05a9.2,9.2,0,0,0,9.172-9.223,9.2,9.2,0,0,0-9.219-9.126" transform="translate(-15.546 -8.566)" fill="#3d4451"/>
          <path id="Trazado_65970" data-name="Trazado 65970" d="M78.142,61.258A11.386,11.386,0,1,0,66.995,50.492,11.579,11.579,0,0,0,78.142,61.258" transform="translate(-11.369 -6.538)" fill="#3d4451"/>
          <path id="Trazado_65971" data-name="Trazado 65971" d="M75.158,100.438l-8.92-1.055a5.22,5.22,0,0,1-4.649-5.9l3.254-22.73A5.536,5.536,0,0,1,71,66.134,13.843,13.843,0,0,1,83.323,81.773L81.312,95.818a5.538,5.538,0,0,1-6.154,4.62" transform="translate(-10.445 -11.219)" fill="#3d4451"/>
          <path id="Trazado_65972" data-name="Trazado 65972" d="M90.812,136.541a4.441,4.441,0,0,1-4.408-3.953l-2.035-18.43-10.52-8.645a4.44,4.44,0,1,1,5.637-6.86L92.8,109.592l2.43,22.021a4.439,4.439,0,0,1-3.925,4.9,4.527,4.527,0,0,1-.493.027" transform="translate(-12.259 -16.573)" fill="#3d4451"/>
          <path id="Trazado_65973" data-name="Trazado 65973" d="M49.857,137.372a4.442,4.442,0,0,1-3.968-6.426L55.76,111.2l3.435-12.388a4.44,4.44,0,1,1,8.557,2.372L64.088,114.4,53.831,134.916a4.439,4.439,0,0,1-3.974,2.456" transform="translate(-7.709 -16.22)" fill="#3d4451"/>
          <path id="Trazado_65974" data-name="Trazado 65974" d="M89.611,89.5l-14.745-9.92a3.662,3.662,0,0,1,4.088-6.076l12.527,8.428L101.1,80.9a3.662,3.662,0,0,1,.787,7.281Z" transform="translate(-12.433 -12.371)" fill="#3d4451"/>
        </g>
      </g>
    </g>
  </g>
</svg>
