<svg xmlns="http://www.w3.org/2000/svg" xmlns:xlink="http://www.w3.org/1999/xlink" width="286" height="286" viewBox="0 0 286 286">
  <defs>
    <clipPath id="clip-path">
      <rect id="Rectángulo_31438" data-name="Rectángulo 31438" width="273.58" height="192.663" fill="none"/>
    </clipPath>
  </defs>
  <g id="Grupo_70501" data-name="Grupo 70501" transform="translate(-2099 -1444)">
    <rect id="Rectángulo_31451" data-name="Rectángulo 31451" width="286" height="286" transform="translate(2099 1444)" fill="none"/>
    <g id="grafico-10" transform="translate(2105 1491)" clip-path="url(#clip-path)">
      <rect id="Rectángulo_31433" data-name="Rectángulo 31433" width="39.324" height="53.43" transform="translate(225.399 28.417)" fill="#efdbc7"/>
      <rect id="Rectángulo_31434" data-name="Rectángulo 31434" width="30.876" height="41.956" transform="translate(229.623 34.154)" fill="none" stroke="#f4e9dc" stroke-miterlimit="10" stroke-width="1.5"/>
      <line id="Línea_445" data-name="Línea 445" x2="22.712" transform="translate(233.705 39.182)" fill="none" stroke="#f4e9dc" stroke-miterlimit="10" stroke-width="1.5"/>
      <line id="Línea_446" data-name="Línea 446" x2="22.712" transform="translate(233.705 44.998)" fill="none" stroke="#f4e9dc" stroke-miterlimit="10" stroke-width="1.5"/>
      <line id="Línea_447" data-name="Línea 447" x2="22.712" transform="translate(233.705 52.153)" fill="none" stroke="#f4e9dc" stroke-miterlimit="10" stroke-width="1.5"/>
      <line id="Línea_448" data-name="Línea 448" x2="22.712" transform="translate(233.705 64.809)" fill="none" stroke="#f4e9dc" stroke-miterlimit="10" stroke-width="1.5"/>
      <line id="Línea_449" data-name="Línea 449" x2="13.491" transform="translate(233.705 59.608)" fill="none" stroke="#f4e9dc" stroke-miterlimit="10" stroke-width="1.5"/>
      <line id="Línea_450" data-name="Línea 450" x2="6.966" transform="translate(249.45 59.608)" fill="none" stroke="#f4e9dc" stroke-miterlimit="10" stroke-width="1.5"/>
      <line id="Línea_451" data-name="Línea 451" x2="6.966" transform="translate(249.45 70.94)" fill="none" stroke="#f4e9dc" stroke-miterlimit="10" stroke-width="1.5"/>
      <rect id="Rectángulo_31435" data-name="Rectángulo 31435" width="68.718" height="50.372" transform="translate(127.412 11.458)" fill="#efdbc7"/>
      <rect id="Rectángulo_31436" data-name="Rectángulo 31436" width="53.966" height="39.56" transform="translate(134.788 16.864)" fill="none" stroke="#f4e9dc" stroke-miterlimit="10" stroke-width="1.5"/>
      <line id="Línea_452" data-name="Línea 452" x2="39.686" transform="translate(141.928 21.608)" fill="none" stroke="#f4e9dc" stroke-miterlimit="10" stroke-width="1.5"/>
      <line id="Línea_453" data-name="Línea 453" x2="39.686" transform="translate(141.928 27.093)" fill="none" stroke="#f4e9dc" stroke-miterlimit="10" stroke-width="1.5"/>
      <line id="Línea_454" data-name="Línea 454" x2="39.686" transform="translate(141.928 33.839)" fill="none" stroke="#f4e9dc" stroke-miterlimit="10" stroke-width="1.5"/>
      <line id="Línea_455" data-name="Línea 455" x2="39.686" transform="translate(141.928 45.77)" fill="none" stroke="#f4e9dc" stroke-miterlimit="10" stroke-width="1.5"/>
      <line id="Línea_456" data-name="Línea 456" x2="23.579" transform="translate(141.928 40.884)" fill="none" stroke="#f4e9dc" stroke-miterlimit="10" stroke-width="1.5"/>
      <line id="Línea_457" data-name="Línea 457" x2="12.168" transform="translate(169.447 40.884)" fill="none" stroke="#f4e9dc" stroke-miterlimit="10" stroke-width="1.5"/>
      <line id="Línea_458" data-name="Línea 458" x2="12.168" transform="translate(169.447 51.554)" fill="none" stroke="#f4e9dc" stroke-miterlimit="10" stroke-width="1.5"/>
      <path id="Trazado_108400" data-name="Trazado 108400" d="M27.71,91.31s-7.881,16.013-8.022,24.051c-.63,25.706,1.119,28.086,3.152,56.125-4.035,20.489-.835,47.283,2.853,71.571H36.725s5.327-54.959,7.644-70.925c1.576-11.19,8.464-37.432,8.464-37.432s1.97,12.325,5.753,37.59c-4.634,22.065,6.73,49.663,11.033,70.751l10.2-.221s-1.576-39.4-.426-72.848c1.135-32.8,0-68.119-2.7-75.007" transform="translate(11.267 52.604)" fill="#b5967d"/>
      <path id="Trazado_108401" data-name="Trazado 108401" d="M26.206,96.23a150.629,150.629,0,0,0-4.366,34.123c0,17.668,3.657,34.3,3.657,37.827s-2.08,8.732-2.443,20.032a328.251,328.251,0,0,0,3.152,52.012" transform="translate(12.582 55.438)" fill="none" stroke="#a08373" stroke-miterlimit="10" stroke-width="0.75"/>
      <path id="Trazado_108402" data-name="Trazado 108402" d="M41.61,117.25s6.036,30.4,6.4,39.8a143.425,143.425,0,0,0,.52,21.482c1.828,14.09,9.457,43.485,9.914,49.537" transform="translate(23.972 67.548)" fill="none" stroke="#a08373" stroke-miterlimit="10" stroke-width="0.75"/>
      <path id="Trazado_108403" data-name="Trazado 108403" d="M68.593,137.494c-24.792,11.569-44.793,0-44.793,0V41.73l42.177.8S69.334,130.906,68.593,137.494Z" transform="translate(13.711 24.041)" fill="#333d59"/>
      <path id="Trazado_108404" data-name="Trazado 108404" d="M36.654,31.26l.189,10.387L26,43.759S38.751,53.578,46.489,52c10.45-2.112,12.388-7.77,12.388-7.77l-10.8-3.152-1.86-9.126" transform="translate(14.979 18.009)" fill="#ffccb0"/>
      <path id="Trazado_108405" data-name="Trazado 108405" d="M46.94,39.49a31.522,31.522,0,0,1,13.681,8.921c6.651,8.133,11.632,32.641,11.632,41.184,0,24.43-9.173,46.542-9.173,46.542L50.9,111.218S62.654,93.2,58.572,89.153,46.94,64.093,46.94,64.093" transform="translate(27.042 22.75)" fill="#ab7d73"/>
      <path id="Trazado_108406" data-name="Trazado 108406" d="M17.19,59.1s1.576,74.077,2.79,84.322c8.684,5.122,26.951,3.594,26.951,3.594V111.659A442.889,442.889,0,0,0,41.163,37.85s-17.968,2.869-21.12,5.973C17.694,46.172,17.206,58.8,17.206,58.8" transform="translate(9.903 21.806)" fill="#ab7d73"/>
      <path id="Trazado_108407" data-name="Trazado 108407" d="M60.888,56.569c4.145,25.044,6.462,71.886,4.917,85.11-4.46,2.3-16.25,3.94-16.25,3.94S48.909,101.488,47.617,83,42.4,38.16,42.4,38.16s9.882,2.1,16.707,7.029C60.683,48.657,60.888,56.569,60.888,56.569Z" transform="translate(24.427 21.984)" fill="#ab7d73"/>
      <path id="Trazado_108408" data-name="Trazado 108408" d="M59.166,121.315s-.835-56.44-4.476-67.205" transform="translate(31.507 31.173)" fill="none" stroke="#89635d" stroke-miterlimit="10" stroke-width="0.75"/>
      <path id="Trazado_108409" data-name="Trazado 108409" d="M40.552,115.175S28.069,78.625,28.069,75.52a45.2,45.2,0,0,1,7.392-5.091s-7.156-2.112-8.826-5.154c0-4.728-.221-20.127,1.1-25.785" transform="translate(15.337 22.75)" fill="none" stroke="#89635d" stroke-linejoin="round" stroke-width="0.75"/>
      <path id="Trazado_108410" data-name="Trazado 108410" d="M47.271,112.726s6.557-34.359,6.557-37.464a36.8,36.8,0,0,0-6.888-5.138s6.872-1.5,8.322-4.539c0-4.728-5.107-20.174-8.322-25.564" transform="translate(27.042 23.056)" fill="none" stroke="#89635d" stroke-linejoin="round" stroke-width="0.75"/>
      <path id="Trazado_108411" data-name="Trazado 108411" d="M51.034,21.73s3.152,20.284,0,22.743a11.3,11.3,0,0,1-10.7,1.324C34.154,43.259,29.82,35.442,29.82,29.311,29.82,25.339,43.012,9.467,51.034,21.73Z" transform="translate(17.179 9.887)" fill="#ffccb0"/>
      <path id="Trazado_108412" data-name="Trazado 108412" d="M23.146,104.94s3.231,3.152,3.578,4.429a10.8,10.8,0,0,1,.331,4.728c-.126.914.11,2.364-.851,2.3s-.473-2.364-.914-2.3-1.024,1.419-1.214,3.152c0,.646.331,3.594-.173,4.1s-1.245,0-2.08-.757a14.721,14.721,0,0,1-2.427-5.075c-.52-2.585,1.245-8.369,1.245-8.369" transform="translate(11.118 60.456)" fill="#ffccb0"/>
      <path id="Trazado_108413" data-name="Trazado 108413" d="M22.1,117.635a6.115,6.115,0,0,1-.347-.993,8.59,8.59,0,0,1-.315-2.285A15.367,15.367,0,0,1,21.85,111v3.294a18.5,18.5,0,0,0,.126,2.238A10.839,10.839,0,0,0,22.1,117.635Z" transform="translate(12.352 63.948)" fill="#dd936f"/>
      <path id="Trazado_108414" data-name="Trazado 108414" d="M22.313,117.368a4.1,4.1,0,0,1-.646-.757,4.24,4.24,0,0,1-.772-2.065c0-.772-.095-1.576-.095-2.143v-.993s.095.394.189.961.189,1.355.268,2.144a5.548,5.548,0,0,0,.567,1.986A6.3,6.3,0,0,0,22.313,117.368Z" transform="translate(11.983 64.184)" fill="#dd936f"/>
      <path id="Trazado_108415" data-name="Trazado 108415" d="M21.694,117.1a6.9,6.9,0,0,1-.567-.772,7.077,7.077,0,0,1-.82-1.954c-.126-.772-.221-1.576-.252-2.08a7.951,7.951,0,0,1,0-.946s.126.363.268.914.284,1.308.426,2.033a12.183,12.183,0,0,0,.63,1.939C21.552,116.709,21.694,117.1,21.694,117.1Z" transform="translate(11.546 64.149)" fill="#dd936f"/>
      <path id="Trazado_108416" data-name="Trazado 108416" d="M38.826,39.23s-12.341,2.427-20.773,9.945S.369,92.644,2.671,105.332c3.53,19.449,25.218,43.721,25.218,43.721l6.84-5.3s-11.506-34.485-11.506-42.681S34.571,69.081,34.571,69.081" transform="translate(1.333 22.601)" fill="#ab7d73"/>
      <path id="Trazado_108417" data-name="Trazado 108417" d="M27.056,132.846S15.55,98.361,15.55,90.165,26.9,58.17,26.9,58.17" transform="translate(8.958 33.512)" fill="none" stroke="#89635d" stroke-miterlimit="10" stroke-width="0.75"/>
      <path id="Trazado_108418" data-name="Trazado 108418" d="M55.368,17.818a12.7,12.7,0,0,0-3.152-.441,10.245,10.245,0,0,0-1.923-2.853,5.753,5.753,0,0,0-5.721-1.1,10.4,10.4,0,0,0-3.53,2.947,5.217,5.217,0,0,0-6.131-1.844,5.973,5.973,0,0,0-3.783,4.728,3.152,3.152,0,0,0-2.679,1.5,6.683,6.683,0,0,0-.284,7.266,4.728,4.728,0,0,0-1.072,7.345.82.82,0,0,1,.236,1.119,4.555,4.555,0,0,0,2.443,5.39c1.482.867,5.075,2.143,6.509.662a3.231,3.231,0,0,0,.252-3.341,30.767,30.767,0,0,1-.82-3.373s2.27-.883,2.522-1.072A3.452,3.452,0,0,0,39.4,32.854a8.9,8.9,0,0,0,.158-2.6,10.134,10.134,0,0,0,7.565-4.35,7.045,7.045,0,0,0,5.154,2.474,3.751,3.751,0,0,0,1.939-.41,2.553,2.553,0,0,0,1.024-3.152,3.389,3.389,0,0,0,3.152-4.728,4.413,4.413,0,0,0-2.585-2.254Z" transform="translate(14.863 7.541)" fill="#333d59"/>
      <path id="Trazado_108419" data-name="Trazado 108419" d="M35.141,30.363a2.033,2.033,0,0,0-2.868-1.907A2.474,2.474,0,0,0,31.185,30.3a5.91,5.91,0,0,0,.441,3.294,3.152,3.152,0,0,0,1.844,1.8,2.459,2.459,0,0,0,2.191-.5" transform="translate(17.927 16.29)" fill="#ffccb0"/>
      <path id="Trazado_108420" data-name="Trazado 108420" d="M39.062,28.4a8.038,8.038,0,0,0-.331-1.482c-.2-.441-.883-1.009-1.2-.347A2.7,2.7,0,0,0,37.8,29a.709.709,0,0,0,1.261-.6Z" transform="translate(21.523 15.133)" fill="#563238"/>
      <path id="Trazado_108421" data-name="Trazado 108421" d="M44.186,27.591a6.3,6.3,0,0,0-.158-1.576c-.142-.441-.725-1.088-1.119-.473a2.711,2.711,0,0,0,0,2.364.709.709,0,0,0,1.277-.315Z" transform="translate(24.564 14.57)" fill="#563238"/>
      <path id="Trazado_108422" data-name="Trazado 108422" d="M35.06,26.083a5.028,5.028,0,0,1,5.579-1.1" transform="translate(20.198 14.155)" fill="none" stroke="#563238" stroke-miterlimit="10" stroke-width="0.5"/>
      <path id="Trazado_108423" data-name="Trazado 108423" d="M41.36,24.637a2.79,2.79,0,0,1,3.562-1.1" transform="translate(23.828 13.41)" fill="none" stroke="#563238" stroke-miterlimit="10" stroke-width="0.5"/>
      <path id="Trazado_108424" data-name="Trazado 108424" d="M42.57,26.24c1.45,2.632,2.1,6.021,1.135,6.667a5.784,5.784,0,0,1-4.145,0" transform="translate(22.791 15.117)" fill="none" stroke="#db8f77" stroke-linejoin="round" stroke-width="0.5"/>
      <path id="Trazado_108425" data-name="Trazado 108425" d="M37.91,31.73a4.523,4.523,0,0,0,2.963,2.112,7.628,7.628,0,0,0,4.46-.363" transform="translate(21.84 18.28)" fill="none" stroke="#db8f77" stroke-linejoin="round" stroke-width="0.5"/>
      <path id="Trazado_108426" data-name="Trazado 108426" d="M37.483,96.746,30.69,132.24H84.482l6.872-35.982a1.214,1.214,0,0,0-1.2-1.387H39.721a2.222,2.222,0,0,0-2.238,1.876Z" transform="translate(17.681 54.655)" fill="#c1d8e5"/>
      <path id="Trazado_108427" data-name="Trazado 108427" d="M21.567,116.76h31.68v2.869H19.55v-.914A2.017,2.017,0,0,1,21.567,116.76Z" transform="translate(11.263 67.266)" fill="#c1d8e5"/>
      <path id="Trazado_108428" data-name="Trazado 108428" d="M56.863,108.539a5,5,0,0,1-4.728,4.192,3.578,3.578,0,0,1-3.625-4.192,5,5,0,0,1,4.728-4.208,3.562,3.562,0,0,1,3.625,4.208Z" transform="translate(27.916 60.104)" fill="#9ac0db"/>
      <path id="Trazado_108429" data-name="Trazado 108429" d="M128.012,146.13c0,3.641.158,17.684-3.42,22.065-3.924,4.839-8.669,3.152-16.644,6.856-5.28,2.411-4.445,10.67,4.854,10.67h63.675c27.944,0,32.61-35.116,29.284-68.576-3.152-31.522-20.379-42.949-40.08-42.192C142.023,75.867,128.012,105.4,128.012,146.13Z" transform="translate(60.317 43.16)" fill="#fff"/>
      <path id="Trazado_108430" data-name="Trazado 108430" d="M137.877,57.639a5.28,5.28,0,0,0-1.2-3.42c-.646-.993-1.34-1.939-2.08-2.869a4.728,4.728,0,0,0-1.655-1.466,4.429,4.429,0,0,0-2.821,0,8.164,8.164,0,0,0-5.816,4.066c-1.151,2.459-.552,5.469-2.128,7.754a10.8,10.8,0,0,1-2.679,2.38,6.7,6.7,0,0,0-2.411,2.6c-.883,2.112.867,3.073,1.844,4.618.678,1.072.693,2.49,1.466,3.5a5.548,5.548,0,0,0,1.671,1.277,15.761,15.761,0,0,0,7.723,2.411,7.266,7.266,0,0,0,6.667-3.94,12.609,12.609,0,0,0,.331-6.1,50.78,50.78,0,0,0-.961-8.338,10.56,10.56,0,0,0-4.555-6.761" transform="translate(67.316 28.606)" fill="#561b08"/>
      <path id="Trazado_108431" data-name="Trazado 108431" d="M186.369,126.082s3.877,21.167-10.8,24.209c-19.717,4.082-39.135-5.721-49.364-5.721-6.966,5.028-15.068,47.756-15.068,47.756L85.53,186.573s12.7-48.7,21.8-57.8c7.25-7.25,42.3-8.117,55.983-8.117" transform="translate(49.274 69.513)" fill="#49497a"/>
      <path id="Trazado_108432" data-name="Trazado 108432" d="M97.566,99.544,85.32,92.31c-.977-.567-2.585-5.69-5.532-9.756C79,81.45,77.975,79.4,77.171,79.4s.347,2.774.788,4.114c-2.853-2.222-8.448-5.769-9.772-5.138s4.886,3.389,6.888,5.438c-3.373-1.324-8.779-5.233-9.772-4.4s6.036,4.508,8.148,5.973c-2.711-1.229-8.07-4.114-8.779-3.53s5.091,4.035,7.282,5.3C69.2,86.037,63.68,82.9,63.68,83.783s5.311,4.3,7.881,6.557c2.159,1.876,3.767,4.35,6.6,5.422a25.221,25.221,0,0,1,2.727.946c.552.284,13.744,11.033,16.565,12.12" transform="translate(36.686 45.111)" fill="#ffccb0"/>
      <path id="Trazado_108433" data-name="Trazado 108433" d="M72.989,82.34s-1.576,5.832.5,8.18" transform="translate(41.72 47.436)" fill="none" stroke="#e8a991" stroke-linejoin="round" stroke-width="0.5"/>
      <path id="Trazado_108434" data-name="Trazado 108434" d="M152.134,70.05c-24.682,3.247-34.674,31.349-40.128,33.87-9.362,0-34.28-7.6-34.28-7.6l-1.986,7.25s21.356,19.985,39.1,19.985c18.913,0,33.413-28.37,33.413-28.37" transform="translate(43.634 40.356)" fill="#8c6664"/>
      <path id="Trazado_108435" data-name="Trazado 108435" d="M130.7,71.869c-1.954-.583-3.924.82-5.264,2.348-4.823,5.564-5.879,13.365-6.635,20.678q-2.569,25.029-3.83,50.183a6.872,6.872,0,0,0,.173,2.538c.693,2.191,3.152,3.152,5.438,3.751a85.929,85.929,0,0,0,16.013,2.616,21.277,21.277,0,0,0,10.481-1.292,17.637,17.637,0,0,0,8.038-9.126c2.932-6.541,3.562-13.854,4.145-21.009.552-6.73,1.1-13.46,1.308-20.221a44.557,44.557,0,0,0-.457-9.457A26.274,26.274,0,0,0,135.126,72" transform="translate(66.206 41.326)" fill="#fda55c"/>
      <path id="Trazado_108436" data-name="Trazado 108436" d="M125.612,50.6s-7.991,22.065-2.459,24.13c8.416,3.152,15.462-6.163,17.211-10.576S130.529,45.838,125.612,50.6Z" transform="translate(69.825 28.585)" fill="#ffccb0"/>
      <path id="Trazado_108437" data-name="Trazado 108437" d="M129.648,64.454l-1.466,10.765L121.767,76.7s-1.261,10.276,9.252,10.276a17.053,17.053,0,0,0,14.863-8.858l-9.866-2.932-.6-15.068" transform="translate(70.123 34.635)" fill="#ffccb0"/>
      <path id="Trazado_108438" data-name="Trazado 108438" d="M132.845,70s-2.7,15.115-2.7,44.446c0,14.185,3.5,47.772,3.5,47.772s19.465,2.049,31.68-5.769c-1.261-13.57,2.348-45.234-3.988-61.925C156.424,81.616,150.939,72.38,132.845,70Z" transform="translate(74.98 40.327)" fill="#8c6664"/>
      <path id="Trazado_108439" data-name="Trazado 108439" d="M132.286,70.05a449.4,449.4,0,0,0-6.3,48.859c-1.229,21.955-.9,42.35-.9,42.35s-12.357-1.907-14.863-8.5c-.221-12.861.8-43.627,4.114-56.74,2.143-8.542,7.092-20.489,9.725-23.2A31.286,31.286,0,0,1,132.286,70.05Z" transform="translate(63.482 40.356)" fill="#8c6664"/>
      <path id="Trazado_108440" data-name="Trazado 108440" d="M111.19,107a241.49,241.49,0,0,1,4.224-25" transform="translate(64.057 47.241)" fill="none" stroke="#5b3b3b" stroke-miterlimit="10" stroke-width="0.75"/>
      <path id="Trazado_108441" data-name="Trazado 108441" d="M137.674,107.43l-19.307,8.511s-6.021-4.255-7.628-4.255-5.422.142-6.462,1.166-5.091,4.224-4.255,5.075,7.723,0,8.306,0,2.995,4.24,8.716,4.24c2.79,0,26.888-4.728,26.888-4.728" transform="translate(57.558 61.891)" fill="#ffccb0"/>
      <path id="Trazado_108442" data-name="Trazado 108442" d="M146.058,82.83s-7.881,28.5-13.633,34.217c-2.128,2.128-7.707,5.327-13.145,7.487l2.664,11.253a47.9,47.9,0,0,0,25.344-5.311c13.7-7.723,19.638-30.4,19.638-30.4" transform="translate(68.718 47.719)" fill="#8c6664"/>
      <path id="Trazado_108443" data-name="Trazado 108443" d="M131.16,127.987a46.007,46.007,0,0,0,9.283-3.814c13.7-7.723,19.638-30.4,19.638-30.4" transform="translate(75.562 54.021)" fill="none" stroke="#5b3b3b" stroke-miterlimit="10" stroke-width="0.75"/>
      <path id="Trazado_108444" data-name="Trazado 108444" d="M139.646,82.83a233.263,233.263,0,0,1-9.236,26.794" transform="translate(75.13 47.719)" fill="none" stroke="#5b3b3b" stroke-miterlimit="10" stroke-width="0.75"/>
      <path id="Trazado_108445" data-name="Trazado 108445" d="M116.85,110.921s2.664,10.733,3.83,11.458c.426.268,1.576-.693,1.576-.693a2.664,2.664,0,0,0,1.86.236c1.434-.315,2.474-.189,2.963-.93l-4.728-12.372a10.228,10.228,0,0,0-2.017.189c-.457.079-1.277,1.466-1.576,1.466s-1.214-.2-1.371,0S116.85,110.921,116.85,110.921Z" transform="translate(67.318 62.576)" fill="#a58381"/>
      <path id="Trazado_108446" data-name="Trazado 108446" d="M121.877,96.746l6.793,35.494H74.862L68.006,96.257a1.2,1.2,0,0,1,1.2-1.387h50.435A2.222,2.222,0,0,1,121.877,96.746Z" transform="translate(39.17 54.655)" fill="#9ac0db"/>
      <path id="Trazado_108447" data-name="Trazado 108447" d="M0,0H33.7V2.869H2.017A2.017,2.017,0,0,1,0,.851Z" transform="translate(185.397 186.894) rotate(180)" fill="#9ac0db"/>
      <path id="Trazado_108448" data-name="Trazado 108448" d="M83.412,108.54a5,5,0,0,0,4.728,4.192,3.562,3.562,0,0,0,3.672-4.192,4.98,4.98,0,0,0-4.728-4.208,3.562,3.562,0,0,0-3.672,4.208Z" transform="translate(48.019 60.103)" fill="#61a6c9"/>
      <path id="Trazado_108449" data-name="Trazado 108449" d="M125.845,48.672c.536-.3,1.088-.567,1.576-.8a18.378,18.378,0,0,1,3.641-1.245,12.609,12.609,0,0,1,11.033,2.08c3.53,2.506,4.6,6.3,6.966,9.74,1.576,2.191,1.04,4.051.946,6.572s1.576,3.735,2.869,5.627a5.973,5.973,0,0,1,.173,5.847c-1.466,3.152-4.571,3.278-7.628,3.7-3.42.473-7.061.993-10.339-.315a3.262,3.262,0,0,1-1.4-.9,2.069,2.069,0,0,1,0-2.317,15.871,15.871,0,0,0,.961-3.042,6.3,6.3,0,0,1,.883-2.49A11.553,11.553,0,0,0,137,68.988a1.891,1.891,0,0,0,.11-1.4c-.268-.693-1.088-1.024-1.576-1.576-.788-1.088-.142-2.7-.757-3.893a3.152,3.152,0,0,0-1.418-1.261A16.044,16.044,0,0,0,131.787,60a4.035,4.035,0,0,0-1.576-.173,11.253,11.253,0,0,1-5.958-1.4,5.264,5.264,0,0,1-2.222-5.3A7.313,7.313,0,0,1,125.845,48.672Z" transform="translate(70.254 26.587)" fill="#561b08"/>
      <path id="Trazado_108450" data-name="Trazado 108450" d="M131.107,60.614a2.207,2.207,0,0,1,3.452-.835,2.285,2.285,0,0,1,.6,1.056,3.152,3.152,0,0,1,0,1.482,4.476,4.476,0,0,1-1.4,2.27,4.066,4.066,0,0,1-2.364,1.2,2.175,2.175,0,0,1-2.191-1.229" transform="translate(74.433 34.142)" fill="#ffccb0"/>
      <path id="Trazado_108451" data-name="Trazado 108451" d="M131.356,62.429a2.065,2.065,0,0,0-.9,1.5,2.459,2.459,0,0,0,.347,1.986,1.466,1.466,0,0,0,1.655.5,1.576,1.576,0,0,0,.883-1.387,4.475,4.475,0,0,0,0-.914,1.576,1.576,0,0,0-.3-.914.142.142,0,0,0-.221.126,3.294,3.294,0,0,1,0,.678,2.933,2.933,0,0,1-.126.646,3.149,3.149,0,0,1-.189.536,1.056,1.056,0,0,1-.268.5.709.709,0,0,1-.977-.142,1.765,1.765,0,0,1-.331-1.371,2.017,2.017,0,0,1,.536-1.418c.189-.142,0-.441-.252-.331Z" transform="translate(75.113 35.952)" fill="#fda55c"/>
      <path id="Trazado_108452" data-name="Trazado 108452" d="M126.079,57.54s-3.4,4.476-2.727,5.438,2.033.41,2.033.41" transform="translate(71.013 33.149)" fill="none" stroke="#db8f77" stroke-linejoin="round" stroke-width="0.5"/>
      <path id="Trazado_108453" data-name="Trazado 108453" d="M128.408,58.015a1.088,1.088,0,0,1,0,.2,2.664,2.664,0,0,1,0,1.45c-.11.8-1.576.52-1.4-.284a5.044,5.044,0,0,1,.6-1.482C127.967,57.479,128.235,57.715,128.408,58.015Z" transform="translate(73.16 33.226)" fill="#38140a"/>
      <path id="Trazado_108454" data-name="Trazado 108454" d="M124.158,56.664a1.769,1.769,0,0,1,0,.2,2.664,2.664,0,0,1,0,1.45c-.126.8-1.576.52-1.4-.284a4.729,4.729,0,0,1,.6-1.466C123.717,56.128,123.985,56.364,124.158,56.664Z" transform="translate(70.712 32.449)" fill="#38140a"/>
      <path id="Trazado_108455" data-name="Trazado 108455" d="M132.254,58.881a2.317,2.317,0,0,0-.158-.961,3.828,3.828,0,0,0-3.877-2.222,2.38,2.38,0,0,0-.772.268,1.576,1.576,0,0,0-.236.173h.284a3.673,3.673,0,0,1,.678.158,8.511,8.511,0,0,1,1.734.82,18.341,18.341,0,0,1,1.576,1.119c.189.173.41.315.536.441a.961.961,0,0,0,.236.2Z" transform="translate(73.286 32.076)" fill="#38140a"/>
      <path id="Trazado_108456" data-name="Trazado 108456" d="M126.527,56.031a.931.931,0,0,0,0-.2,1.261,1.261,0,0,0-.3-.5,2.411,2.411,0,0,0-1.718-.662,2.758,2.758,0,0,0-1.7.583,1.576,1.576,0,0,0-.457.63h.236a4.222,4.222,0,0,1,.536,0h1.387a6.887,6.887,0,0,1,1.324.095A3.783,3.783,0,0,1,126.527,56.031Z" transform="translate(70.486 31.49)" fill="#38140a"/>
      <path id="Trazado_108457" data-name="Trazado 108457" d="M127.588,62.735c-.93,2.569-4.728,2.632-5.028-.2Z" transform="translate(70.607 36.024)" fill="#fff"/>
      <path id="Trazado_108458" data-name="Trazado 108458" d="M8.53,120.433V230.76a2.065,2.065,0,0,0,2.049,2.065h0a2.065,2.065,0,0,0,2.049-1.876L22.936,120.37" transform="translate(4.914 69.346)" fill="none" stroke="#592e27" stroke-linejoin="round" stroke-width="1"/>
      <path id="Trazado_108459" data-name="Trazado 108459" d="M170.321,120.433V230.76a2.065,2.065,0,0,1-2.065,2.065h0a2.065,2.065,0,0,1-2.049-1.876L155.9,120.37" transform="translate(89.815 69.346)" fill="none" stroke="#592e27" stroke-linejoin="round" stroke-width="1"/>
      <rect id="Rectángulo_31437" data-name="Rectángulo 31437" width="273.58" height="5.784" transform="translate(0 186.894)" fill="#996452"/>
    </g>
  </g>
</svg>
