<svg xmlns="http://www.w3.org/2000/svg" width="90" height="90" viewBox="0 0 90 90">
  <g id="Grupo_70478" data-name="Grupo 70478" transform="translate(-280 -7450)">
    <g id="Grupo_70462" data-name="Grupo 70462">
      <circle id="Elipse_4374" data-name="Elipse 4374" cx="45" cy="45" r="45" transform="translate(280 7450)" fill="#d9a171"/>
      <g id="Grupo_70385" data-name="Grupo 70385" transform="translate(323.476 6023.958)">
        <path id="Trazado_108333" data-name="Trazado 108333" d="M18.691,1441.239l-32.778-2.192a1.944,1.944,0,0,0-2.067,1.808l-.256,3.834h-4.357a1.944,1.944,0,0,0-1.942,1.942v47.2a1.944,1.944,0,0,0,1.942,1.941H4.323a.841.841,0,0,0,.587-.242l3.787-3.771a.817.817,0,0,0,.118.018l6.466.432a1.99,1.99,0,0,0,2.067-1.808l3.15-47.1a1.958,1.958,0,0,0-1.808-2.067Zm-13.536,51.69v-5.78a.278.278,0,0,1,.277-.277h5.758Zm10.533-2.636a.277.277,0,0,1-.3.258l-5.135-.344,3.523-3.507a.832.832,0,0,0,.245-.59V1446.63a1.944,1.944,0,0,0-1.942-1.941H3.432a.832.832,0,0,0,0,1.664h8.653a.278.278,0,0,1,.277.277v38.577H5.432a1.944,1.944,0,0,0-1.942,1.942v6.962H-20.766a.278.278,0,0,1-.277-.277v-47.2a.278.278,0,0,1,.277-.277H-1a.832.832,0,0,0,0-1.664H-14.742l.249-3.723a.277.277,0,0,1,.3-.258L18.58,1442.9a.277.277,0,0,1,.258.3Z" fill="#fff"/>
        <path id="Trazado_108334" data-name="Trazado 108334" d="M56.592,1675.767H33.9a.832.832,0,1,0,0,1.664H56.592a.832.832,0,1,0,0-1.664Z" transform="translate(-49.586 -210.461)" fill="#fff"/>
        <path id="Trazado_108335" data-name="Trazado 108335" d="M56.592,1728.052H33.9a.832.832,0,1,0,0,1.664H56.592a.832.832,0,1,0,0-1.664Z" transform="translate(-49.586 -256.945)" fill="#fff"/>
        <path id="Trazado_108336" data-name="Trazado 108336" d="M33.066,1624.314a.832.832,0,0,0,.832.832H56.592a.832.832,0,1,0,0-1.664H33.9A.832.832,0,0,0,33.066,1624.314Z" transform="translate(-49.586 -163.977)" fill="#fff"/>
        <path id="Trazado_108337" data-name="Trazado 108337" d="M69.1,1572.029a.832.832,0,0,0,.832.832h14.7a.832.832,0,1,0,0-1.664h-14.7A.832.832,0,0,0,69.1,1572.029Z" transform="translate(-81.621 -117.493)" fill="#fff"/>
        <path id="Trazado_108338" data-name="Trazado 108338" d="M46.34,1831.351l-4.49.01-1.509,0c-.911,0-1.526-.182-1.73-1.185-.173-.848-1.372-.734-1.6,0-.576,1.813-1.528,1.1-2.062-.117a17.07,17.07,0,0,1-.9-3.872c-.171-.951-1.609-.685-1.634.221a15.5,15.5,0,0,1-.447,3.523,28.282,28.282,0,0,1-1.245,3.481c-.405.994,1.206,1.422,1.6.442a32.121,32.121,0,0,0,1.131-3.075c.57,1.372,1.75,2.922,3.431,2.008a3.351,3.351,0,0,0,.861-.694c.874,1.01,2.176.93,3.393.929q2.6,0,5.2-.01a.833.833,0,0,0,0-1.664Z" transform="translate(-47.441 -343.662)" fill="#fff"/>
        <path id="Trazado_108339" data-name="Trazado 108339" d="M388.654,1621.238a2.394,2.394,0,0,0-1.63-.667l-.629,0v-1.189a2.3,2.3,0,0,0-1.047-1.871v-1.675c0-3.447-5.367-3.432-5.367.016v1.675a2.2,2.2,0,0,0-1.049,1.87v1.219c-2.77.188-2.778,4.41,0,4.574.018,3.725.017,7.389,0,11.176a.833.833,0,0,0,1.664.009c.02-3.791.021-7.458,0-11.186l4.128-.02s-.005,12.3-.005,17.838a2.065,2.065,0,0,1-4.129-.028v-1.517a.832.832,0,0,0-1.661-.1v1.424a4.087,4.087,0,0,0,1.108,2.981,6.959,6.959,0,0,0,2.038,4.655.883.883,0,0,0,1.192-.02,6.862,6.862,0,0,0,2.016-4.706,3.434,3.434,0,0,0,1.1-2.984v-7.583a2.332,2.332,0,0,0,2.939-2.213v-10.06a2.27,2.27,0,0,0-.673-1.62Zm-8.057-.635v-1.2a.535.535,0,0,1,.4-.514l3.331-.017a.525.525,0,0,1,.406.515v1.2Zm2.071-5.769a1.083,1.083,0,0,1,1.016,1.005v1.35l-2.038.01v-1.344a1.027,1.027,0,0,1,1.023-1.022Zm0,33.717a5.308,5.308,0,0,1-.823-1.82,3.617,3.617,0,0,0,1.649-.021A5.189,5.189,0,0,1,382.667,1648.55Zm5-15.632a.636.636,0,0,1-1.271.015s0-7.874,0-8.6a.839.839,0,0,0-.839-.833l-6.478.032a.631.631,0,0,1,.008-1.261l7.945-.04a.624.624,0,0,1,.631.623v10.06Z" transform="translate(-355.231 -154.89)" fill="#fff"/>
      </g>
    </g>
  </g>
</svg>
