<svg xmlns="http://www.w3.org/2000/svg" width="90" height="90" viewBox="0 0 90 90">
  <g id="Grupo_70476" data-name="Grupo 70476" transform="translate(-280 -7160)">
    <g id="Grupo_70460" data-name="Grupo 70460">
      <circle id="Elipse_4372" data-name="Elipse 4372" cx="45" cy="45" r="45" transform="translate(280 7160)" fill="#d9a171"/>
      <g id="Grupo_70371" data-name="Grupo 70371" transform="translate(294.768 7177)">
        <g id="Grupo_70368" data-name="Grupo 70368">
          <g id="Grupo_70367" data-name="Grupo 70367">
            <path id="Trazado_108325" data-name="Trazado 108325" d="M55.757,22.492l-5.864-.651a22.266,22.266,0,0,0-1.657-3.994l3.685-4.606a1.183,1.183,0,0,0-.088-1.575l-6.7-6.689a1.183,1.183,0,0,0-1.575-.088L38.957,8.574a22.257,22.257,0,0,0-3.994-1.657l-.651-5.864A1.183,1.183,0,0,0,33.136,0H23.669a1.183,1.183,0,0,0-1.176,1.053l-.651,5.858a22.265,22.265,0,0,0-3.994,1.657L13.241,4.883a1.183,1.183,0,0,0-1.575.088l-6.7,6.7a1.183,1.183,0,0,0-.086,1.575l3.69,4.606a22.257,22.257,0,0,0-1.657,3.994l-5.864.651A1.183,1.183,0,0,0,0,23.668v9.467a1.184,1.184,0,0,0,1.053,1.176l5.858.651a22.265,22.265,0,0,0,1.657,3.994L4.883,43.563a1.183,1.183,0,0,0,.088,1.575l6.7,6.7a1.183,1.183,0,0,0,1.575.08l4.606-3.684a22.256,22.256,0,0,0,3.994,1.657l.651,5.864A1.183,1.183,0,0,0,23.668,56.8h9.467a1.184,1.184,0,0,0,1.176-1.047l.651-5.864a22.265,22.265,0,0,0,3.994-1.657l4.606,3.685a1.183,1.183,0,0,0,1.575-.088l6.689-6.7a1.183,1.183,0,0,0,.088-1.575L48.23,38.957a22.256,22.256,0,0,0,1.657-3.994l5.864-.651A1.183,1.183,0,0,0,56.8,33.136V23.668A1.183,1.183,0,0,0,55.757,22.492Zm-1.319,9.585h0l-5.594.623a1.183,1.183,0,0,0-1.013.872A20,20,0,0,1,45.8,38.483a1.183,1.183,0,0,0,.1,1.334l3.518,4.4-5.2,5.2-4.4-3.518a1.183,1.183,0,0,0-1.334-.1,20,20,0,0,1-4.911,2.032,1.183,1.183,0,0,0-.872,1.013l-.623,5.6H24.734l-.628-5.6a1.183,1.183,0,0,0-.872-1.013,20,20,0,0,1-4.911-2.032,1.183,1.183,0,0,0-1.334.1l-4.4,3.518-5.2-5.2,3.518-4.392a1.183,1.183,0,0,0,.1-1.334A20,20,0,0,1,8.98,33.577a1.183,1.183,0,0,0-1.013-.872l-5.6-.623V24.734l5.6-.628a1.183,1.183,0,0,0,1.013-.872,20,20,0,0,1,2.032-4.911,1.183,1.183,0,0,0-.1-1.334l-3.518-4.4,5.2-5.2,4.4,3.518a1.183,1.183,0,0,0,1.334.1A20,20,0,0,1,23.239,8.98a1.183,1.183,0,0,0,.872-1.013l.623-5.6h7.343l.623,5.6a1.183,1.183,0,0,0,.872,1.013,20,20,0,0,1,4.911,2.032,1.183,1.183,0,0,0,1.334-.1l4.4-3.518,5.2,5.2-3.518,4.4a1.183,1.183,0,0,0-.1,1.334,20,20,0,0,1,2.032,4.911,1.183,1.183,0,0,0,1.013.872l5.6.623Z" fill="#fff"/>
          </g>
        </g>
        <g id="Grupo_70370" data-name="Grupo 70370" transform="translate(11.828 11.831)">
          <g id="Grupo_70369" data-name="Grupo 70369">
            <path id="Trazado_108326" data-name="Trazado 108326" d="M137.644,115.121a16.568,16.568,0,1,0-28.917,16.18,1.183,1.183,0,0,0,1.869.259l7.731-7.731,2.731,3.643a1.184,1.184,0,0,0,1.783.127l7.447-7.447v4.244h2.367v-7.1h0a1.183,1.183,0,0,0-1.183-1.183h-7.1v2.367h4.244l-6.483,6.483-2.731-3.643a1.183,1.183,0,0,0-.863-.473,1.2,1.2,0,0,0-.921.347l-7.524,7.523a14.167,14.167,0,1,1,22.562,5.036v-6.988h-2.367v8.717a14.112,14.112,0,0,1-2.367,1.1v-7.447h-2.367v8.066a14.254,14.254,0,0,1-2.367.2v-4.719h-2.367v4.527a14.093,14.093,0,0,1-2.367-.609v-6.285h-2.367v5.2a14.282,14.282,0,0,1-1.911-1.321l-1.5,1.828a16.567,16.567,0,0,0,24.971-20.893Z" transform="translate(-106.614 -106.64)" fill="#fff"/>
          </g>
        </g>
      </g>
    </g>
  </g>
</svg>
