<svg xmlns="http://www.w3.org/2000/svg" width="108" height="108" viewBox="0 0 108 108">
  <g id="Grupo_70454" data-name="Grupo 70454" transform="translate(-263.75 -8318.995)">
    <circle id="Elipse_3957" data-name="Elipse 3957" cx="54" cy="54" r="54" transform="translate(263.75 8318.995)" fill="#5e6178"/>
    <g id="Grupo_63429" data-name="Grupo 63429" transform="translate(50.635 8290.313)">
      <g id="Grupo_63428" data-name="Grupo 63428" transform="translate(226.115 51.682)">
        <path id="Trazado_100796" data-name="Trazado 100796" d="M261.462,59.04V99.089a.893.893,0,0,1-.891.891h-.891V58.149h.891A.894.894,0,0,1,261.462,59.04Z" transform="translate(-193.2 -45.34)" fill="#fff"/>
        <rect id="Rect치ngulo_31248" data-name="Rect치ngulo 31248" width="30.324" height="1.783" transform="translate(36.155 52.859)" fill="#fff"/>
        <rect id="Rect치ngulo_31249" data-name="Rect치ngulo 31249" width="30.324" height="1.783" transform="translate(36.155 12.809)" fill="#fff"/>
        <path id="Trazado_100797" data-name="Trazado 100797" d="M260.253,80.665a.891.891,0,1,1,0,1.783h-10.01a.891.891,0,0,1,0-1.783Z" transform="translate(-203.329 -23.26)" fill="#fff"/>
        <path id="Trazado_100798" data-name="Trazado 100798" d="M255.118,72.783a1.755,1.755,0,0,0-.812-1.373L254.3,74.2A1.427,1.427,0,0,0,255.118,72.783Zm-1.337-3.718c2.076.9,3.12,2.157,3.12,3.726-.01,1.105-.446,3.022-3.361,3.468l-1.024.151.018-7.887Z" transform="translate(-200.226 -35.167)" fill="#fff"/>
        <path id="Trazado_100799" data-name="Trazado 100799" d="M254.1,65.828a1.84,1.84,0,0,0,.731,1.48l.008-2.977-.364.382A1.562,1.562,0,0,0,254.1,65.828Zm10.767,11.926a5.326,5.326,0,0,0-1.47-3.84,13.814,13.814,0,0,0-5.34-3.068l-.588-.214.018-5.641h-.866l-.018,5.4-1.283-.642c-2-1-3.013-2.317-3-3.922a4.165,4.165,0,0,1,.079-.838h-3a5.492,5.492,0,0,0-.125,1.131,5.828,5.828,0,0,0,1.337,3.922c.917,1.105,2.745,2.177,5.409,3.175l.58.214-.018,8.172-.955-.061a15.476,15.476,0,0,1-3.947-.891c-.206-.071-.41-.153-.606-.224l-1.079,2.4a13.978,13.978,0,0,0,5.686,1.212l.891.01-.008,3.823h.866l.008-3.84.794-.089a8.33,8.33,0,0,0,4.981-1.981A5.479,5.479,0,0,0,264.868,77.754Zm-.168-5.063a7.159,7.159,0,0,1,1.951,5.072,7.306,7.306,0,0,1-2.21,5.49,9.558,9.558,0,0,1-5.231,2.353l-.01,4.056-4.431-.018.01-3.85a15.58,15.58,0,0,1-6.364-1.757l-.749-.392,2.5-5.554.812.366c.382.168.81.339,1.283.507a15.189,15.189,0,0,0,2.531.677l.018-4.981a13.832,13.832,0,0,1-5.579-3.478,7.679,7.679,0,0,1-1.747-5.063,7.844,7.844,0,0,1,.364-2.282l.2-.632h11.222l-.018,6.186A14.515,14.515,0,0,1,264.7,72.691Z" transform="translate(-205.156 -40.379)" fill="#fff"/>
        <path id="Trazado_100800" data-name="Trazado 100800" d="M277.358,59.945v3.288a.894.894,0,0,0-.891-.891h-.891v-2.4a4.289,4.289,0,0,0-4.288-4.288H249.53a4.28,4.28,0,0,0-4.278,4.288v2.4h-.891a.889.889,0,0,0-.891.891V59.945a6.068,6.068,0,0,1,6.061-6.071h21.757A6.07,6.07,0,0,1,277.358,59.945Z" transform="translate(-209.097 -49.532)" fill="#fff"/>
        <path id="Trazado_100801" data-name="Trazado 100801" d="M244.511,70.768a.886.886,0,0,0,.705-.873h.036V88.462h-.891a.888.888,0,0,1-.891-.891V70.929A10.514,10.514,0,0,0,244.511,70.768Z" transform="translate(-209.097 -33.821)" fill="#fff"/>
        <path id="Trazado_100802" data-name="Trazado 100802" d="M277.358,82.8a6.068,6.068,0,0,1-6.071,6.061H249.53a6.066,6.066,0,0,1-6.061-6.061V78.819a.888.888,0,0,0,.891.891h.891V82.8a4.278,4.278,0,0,0,4.278,4.278h21.757a4.286,4.286,0,0,0,4.288-4.278V79.71h.891a.893.893,0,0,0,.891-.891Z" transform="translate(-209.097 -25.07)" fill="#fff"/>
        <path id="Trazado_100803" data-name="Trazado 100803" d="M244.574,62.36v2.068a6.549,6.549,0,0,0-1.105-.339V62.164A6.782,6.782,0,0,1,244.574,62.36Z" transform="translate(-209.097 -41.403)" fill="#fff"/>
        <path id="Trazado_100804" data-name="Trazado 100804" d="M244.022,68.05a1.175,1.175,0,0,0-.553-.955V64.742a8.032,8.032,0,0,1,1.105.58v5.259a4.219,4.219,0,0,1-1.105.392V69A.983.983,0,0,0,244.022,68.05Z" transform="translate(-209.097 -38.875)" fill="#fff"/>
        <path id="Trazado_100805" data-name="Trazado 100805" d="M244.743,60.625a.886.886,0,0,1-1.07.66c-.079-.018-.143-.036-.2-.044v-1.8a3.253,3.253,0,0,1,.614.107A.9.9,0,0,1,244.743,60.625Z" transform="translate(-209.097 -44.073)" fill="#fff"/>
        <path id="Trazado_100806" data-name="Trazado 100806" d="M244.511,71.21a10.514,10.514,0,0,1-1.042.16v-1.8c.232-.026.454-.061.677-.107a.89.89,0,0,1,1.052.7,1.547,1.547,0,0,1,.018.178A.886.886,0,0,1,244.511,71.21Z" transform="translate(-209.097 -34.263)" fill="#fff"/>
        <path id="Trazado_100807" data-name="Trazado 100807" d="M243.673,62.552a.886.886,0,0,0,1.07-.66.9.9,0,0,0-.66-1.077,3.253,3.253,0,0,0-.614-.107V59.04a.889.889,0,0,1,.891-.891h.891V81.414h-.036a1.547,1.547,0,0,0-.018-.178.89.89,0,0,0-1.052-.7c-.224.046-.446.081-.677.107V77.439a4.219,4.219,0,0,0,1.105-.392V71.788a8.032,8.032,0,0,0-1.105-.58V68.027a6.549,6.549,0,0,1,1.105.339V66.3a6.782,6.782,0,0,0-1.105-.2V62.508C243.53,62.516,243.594,62.534,243.673,62.552Z" transform="translate(-209.097 -45.34)" fill="#fff"/>
        <path id="Trazado_100808" data-name="Trazado 100808" d="M243.469,65.93a1.175,1.175,0,0,1,.553.955.983.983,0,0,1-.553.953Z" transform="translate(-209.097 -37.71)" fill="#fff"/>
        <path id="Trazado_100809" data-name="Trazado 100809" d="M244.188,67.321l.01-2.549c-.749.135-1.123.527-1.123,1.169C243.075,66.483,243.45,66.947,244.188,67.321Zm.018-5.918,1.169.008v1.464c.2.008.392.018.57.036v1.925c-.188-.036-.384-.063-.58-.089l-.008,3.038c.2.081.4.153.588.232v2.353a3.005,3.005,0,0,0-.588-.329l-.01,2.424a1.816,1.816,0,0,0,.6-.188v1.971a5.783,5.783,0,0,1-.606.1v1.737h-1.177l.008-1.693a6.523,6.523,0,0,1-3.03-.749l.794-1.757c.178.081.374.16.6.242a6.547,6.547,0,0,0,1.64.374l.01-2.923a6.262,6.262,0,0,1-2.559-1.525,2.947,2.947,0,0,1-.677-1.987,2.891,2.891,0,0,1,.891-2.139A3.734,3.734,0,0,1,244.2,62.9Z" transform="translate(-211.573 -42.149)" fill="#fff"/>
        <path id="Trazado_100810" data-name="Trazado 100810" d="M239.163,70.355a9.13,9.13,0,0,0,9.119,9.119,8.353,8.353,0,0,0,1.159-.081v1.8a9.781,9.781,0,0,1-1.159.063,10.906,10.906,0,0,1,0-21.813c.214,0,.364,0,.489-.008a3.29,3.29,0,0,1,.669.018v1.8a1.89,1.89,0,0,0-.6-.036c-.143.008-.321.008-.561.008A9.132,9.132,0,0,0,239.163,70.355Z" transform="translate(-215.068 -44.086)" fill="#fff"/>
        <path id="Trazado_100811" data-name="Trazado 100811" d="M232.929,57.018c-.741.133-1.115.517-1.115,1.159,0,.553.366,1.016,1.115,1.382Zm1.159,7.693c.757-.117,1.141-.5,1.149-1.151,0-.517-.382-.953-1.149-1.283Zm.008-4.68a6.469,6.469,0,0,1,2.513,1.454,2.775,2.775,0,0,1,.759,1.969,2.83,2.83,0,0,1-.856,2.149,4.016,4.016,0,0,1-2.434.98l-.008,1.747-1.169-.01.01-1.693a6.482,6.482,0,0,1-3.04-.739l.794-1.765a6.138,6.138,0,0,0,.606.24,6.529,6.529,0,0,0,1.64.374l.008-2.923a6.134,6.134,0,0,1-2.557-1.515,3,3,0,0,1-.687-1.987,2.936,2.936,0,0,1,.9-2.149,3.776,3.776,0,0,1,2.361-1.026V53.649h1.176v1.462a5.871,5.871,0,0,1,2.523.553l-.749,1.783a6.318,6.318,0,0,0-1.783-.456Z" transform="translate(-222.624 -49.753)" fill="#fff"/>
        <path id="Trazado_100812" data-name="Trazado 100812" d="M246.135,62.584a9.132,9.132,0,0,0-8.37-9.091c-.25-.018-.5-.028-.749-.028a9.119,9.119,0,1,0,0,18.238c.224,0,.446-.01.66-.028A9.126,9.126,0,0,0,246.135,62.584Zm-9.119-10.9a10.9,10.9,0,1,1-10.9,10.9A10.919,10.919,0,0,1,237.017,51.682Z" transform="translate(-226.115 -51.682)" fill="#fff"/>
      </g>
    </g>
  </g>
</svg>
