<svg xmlns="http://www.w3.org/2000/svg" xmlns:xlink="http://www.w3.org/1999/xlink" width="246" height="246" viewBox="0 0 246 246">
  <defs>
    <clipPath id="clip-path">
      <rect id="Rect치ngulo_25819" data-name="Rect치ngulo 25819" width="191.876" height="197.465" fill="none"/>
    </clipPath>
  </defs>
  <g id="Grupo_70513" data-name="Grupo 70513" transform="translate(160 -484)">
    <rect id="Rect치ngulo_31452" data-name="Rect치ngulo 31452" width="246" height="246" transform="translate(-160 484)" fill="none"/>
    <g id="Grupo_70512" data-name="Grupo 70512" transform="translate(-133 508)">
      <g id="Grupo_25117" data-name="Grupo 25117" clip-path="url(#clip-path)">
        <path id="Trazado_65925" data-name="Trazado 65925" d="M45.633,110.291l.3,43.413c.012,1.657,2.29,2.99,5.089,2.977l30.29-.133c16.95-.076,33.9-.19,50.848-.218l4.934-.007c1.337,0,2.812-.073,3.779-1.256,1.022-1.251,1.1-3.28,1.108-5.1q.086-17.363.173-34.724.045-9.584.142-19.171c.012-1.3-.123-2.908-1.059-3.411a2.079,2.079,0,0,0-1.886.277q-7.762,3.838-15.562,7.489l-18.155,8.535c-5.363,2.521-10.719,5.846-16.538,5.854l-5.416.006" transform="translate(11.127 22.561)" fill="#f4f4f4"/>
        <path id="Trazado_65926" data-name="Trazado 65926" d="M133.533,165.454H39.983c-4.254,0-7.714-2.963-7.714-6.6V97.678a2.2,2.2,0,1,1,4.4,0v61.171c0,1.175,1.55,2.208,3.317,2.208h93.55c1.766,0,3.316-1.032,3.316-2.208V96.276a2.2,2.2,0,0,1,4.4,0v62.573c0,3.642-3.46,6.6-7.713,6.6" transform="translate(7.869 22.94)" fill="#3d4451"/>
        <path id="Trazado_65927" data-name="Trazado 65927" d="M121.372,119.962H47.239a2.2,2.2,0,0,1,0-4.4h74.133a2.2,2.2,0,1,1,0,4.4" transform="translate(10.983 28.18)" fill="#3d4451"/>
        <path id="Trazado_65928" data-name="Trazado 65928" d="M91.02,132.365H47.24a2.2,2.2,0,1,1,0-4.4H91.02a2.2,2.2,0,1,1,0,4.4" transform="translate(10.983 31.204)" fill="#3d4451"/>
        <path id="Trazado_65929" data-name="Trazado 65929" d="M61.782,105.4S23.154,73.488,31.258,46.62,71,1.965,95.7,27.893c0,0,21.264-23.118,49.119,1.97s-4.174,54.892-4.174,54.892,2.177,15.319-4.656,23.769S92.983,136.765,61.782,105.4" transform="translate(7.35 3.717)" fill="#f4f4f4"/>
        <path id="Trazado_65930" data-name="Trazado 65930" d="M123.238,36.685s3.894,25.1-6.313,24.332C93.851,59.283,82.732,39.576,82.732,39.576s25.4,11.916,40.506-2.891" transform="translate(20.174 8.945)" fill="#f4f4f4"/>
        <path id="Trazado_65931" data-name="Trazado 65931" d="M129.368,98.367a25.126,25.126,0,0,1-4.049-.337c-5.565-.907-11.328-3.111-16.413-5.055l-1.208-.461a126.646,126.646,0,0,1-18.3-8.736,2.8,2.8,0,0,1,2.809-4.85,120.846,120.846,0,0,0,17.483,8.347l1.214.465c5.07,1.939,10.314,3.943,15.313,4.759,2.654.433,6.507.546,9.782-1.372A12.081,12.081,0,0,0,141.214,83a10.575,10.575,0,0,0-1.659-8.519c-1.439-1.835-3.841-2.954-5.982-3.86-4.395-1.86-9.048-3.4-13.547-4.89-4.34-1.437-8.828-2.923-13.179-4.718-10.275-4.24-21.491-10.086-26.766-21.288A2.8,2.8,0,1,1,85.15,37.34c4.449,9.446,14.084,14.471,23.835,18.495,4.166,1.718,8.556,3.172,12.8,4.579,4.6,1.524,9.367,3.1,13.97,5.049,2.989,1.265,6.053,2.815,8.207,5.562a16.142,16.142,0,0,1,2.755,13.024,17.559,17.559,0,0,1-7.885,11.915,18.6,18.6,0,0,1-9.467,2.4" transform="translate(19.462 8.713)" fill="#3d4451"/>
        <path id="Trazado_65932" data-name="Trazado 65932" d="M91.651,111.7a16.905,16.905,0,0,1-5.9-1.435,2.335,2.335,0,0,1,1.868-4.28,11.434,11.434,0,0,0,4.258,1.035c1.2-.208,4.628-3.157,4.862-4.4l-.35-4.08,3.392,1.708c.568.058,4.381.134,11.523-6.827a2.335,2.335,0,1,1,3.26,3.345c-6.49,6.326-11.086,7.9-13.738,8.14-1.6,3.332-6.1,6.513-8.456,6.764a6.889,6.889,0,0,1-.721.036" transform="translate(20.569 22.617)" fill="#3d4451"/>
        <path id="Trazado_65933" data-name="Trazado 65933" d="M58.771,121.552C42.02,112.94,21.5,95.394,14.146,71.982c-4.789-15.245-3.315-30.34,4.38-44.865C25.962,13.075,40.642,2.883,56.836.519c14.378-2.1,27.686,2.224,37.471,12.175l-4,3.931c-8.5-8.645-20.1-12.394-32.666-10.56C43.187,8.176,30.093,17.247,23.477,29.74,16.509,42.894,15.17,56.54,19.493,70.3c6.837,21.765,26.1,38.17,41.842,46.265Z" transform="translate(2.779 0)" fill="#3d4451"/>
        <path id="Trazado_65934" data-name="Trazado 65934" d="M115.16,100.469c-.119,0-.236,0-.357,0-11-.259-30.04-10.824-30.846-11.273A2.8,2.8,0,1,1,86.688,84.3c.187.1,18.632,10.336,28.245,10.562.066,0,.133,0,.2,0,7.413,0,8.2-9.963,8.234-10.391a2.8,2.8,0,0,1,5.591.369c-.353,5.447-3.7,15.625-13.8,15.625" transform="translate(20.122 19.962)" fill="#3d4451"/>
        <path id="Trazado_65935" data-name="Trazado 65935" d="M98.206,104.29a2.339,2.339,0,0,1-.974-.214l-7.609-3.5a2.335,2.335,0,0,1,1.95-4.244l7.607,3.5a2.336,2.336,0,0,1-.975,4.458" transform="translate(21.523 23.439)" fill="#3d4451"/>
        <path id="Trazado_65936" data-name="Trazado 65936" d="M46.382,105.64c-2.2,0-5.14-.832-8.258-4.084-4.881-5.092-3.03-11.39-1.369-14.008l4.733,3-2.366-1.5,2.379,1.48c-.246.4-2.316,4.035.668,7.15,1.148,1.2,2.886,2.57,4.623,2.33,1.474-.2,2.984-1.628,4.254-4.013l4.948,2.634c-2.74,5.142-6.1,6.607-8.433,6.929a8.484,8.484,0,0,1-1.179.081" transform="translate(8.53 21.348)" fill="#3d4451"/>
        <path id="Trazado_65937" data-name="Trazado 65937" d="M57.074,113.831a10.559,10.559,0,0,1-4.788-1.115,9.966,9.966,0,0,1-4.96-6.162c-.842-3.095.138-5.615,1-7.837l.163-.418C50.461,93.195,53,87.514,58.2,84.706a10.446,10.446,0,0,1,8.637-.535,9.778,9.778,0,0,1,5.839,5.763c2.535,6.767-3.245,14.982-5.077,17.339-1.75,2.25-3.7,4.487-6.095,5.608a10.517,10.517,0,0,1-4.432.95m-3.353-13.516-.169.435c-.75,1.928-1.158,3.08-.818,4.33a4.339,4.339,0,0,0,2.113,2.652,5.177,5.177,0,0,0,4.283.072c1.506-.7,3.286-2.994,4.047-3.973,2.93-3.769,5.382-8.921,4.253-11.932a4.287,4.287,0,0,0-2.556-2.481,4.915,4.915,0,0,0-4.01.219c-3.524,1.9-5.534,6.509-7.142,10.678" transform="translate(11.462 20.357)" fill="#3d4451"/>
        <path id="Trazado_65938" data-name="Trazado 65938" d="M150.3,84.133a2.8,2.8,0,0,1-2.207-4.526,46.089,46.089,0,0,0,6.946-43.42c-4.9-14.38-16.112-25.09-29.99-28.647a44.319,44.319,0,0,0-29.293,2.694c-21.259,9.695-35.54,29.729-40.212,56.412a7.748,7.748,0,0,0-.03,3.917,1.151,1.151,0,0,0,.874.688c1.967.571,5.426-.563,6.944-1.6,2.733-1.858,4.927-5.3,6.521-10.228,2.5-7.726,6.357-12.7,11.466-14.793,6.04-2.469,11.707.031,13.337.878l.016-.024.24.16c.057.037.111.076.163.116,2.039,1.35,12.9,8.071,23.107,5.319,6.156-1.661,11.1-6.558,14.7-14.554a2.8,2.8,0,1,1,5.111,2.3c-4.325,9.617-10.51,15.565-18.383,17.678-12.524,3.36-24.943-4.271-27.632-6.067a10.646,10.646,0,0,0-8.534-.614c-3.51,1.435-6.288,5.248-8.257,11.33-1.986,6.141-4.914,10.561-8.7,13.136-2.285,1.554-7.469,3.565-11.665,2.342a6.71,6.71,0,0,1-4.453-3.851,12.227,12.227,0,0,1-.343-7.1,89.95,89.95,0,0,1,14.286-36A70.742,70.742,0,0,1,93.427,5.135,49.951,49.951,0,0,1,126.436,2.11c15.716,4.03,28.391,16.093,33.9,32.269A51.676,51.676,0,0,1,152.5,83.056a2.8,2.8,0,0,1-2.209,1.077M93.443,45.226a2.812,2.812,0,0,0-2.417,1.389l2.022,1.193,1.6-2.3a2.677,2.677,0,0,0-1.209-.286" transform="translate(12.109 0.144)" fill="#3d4451"/>
        <path id="Trazado_65939" data-name="Trazado 65939" d="M80.173,119.5a8.1,8.1,0,0,1-5.309-1.944,8.943,8.943,0,0,1-3.014-8.946,72.3,72.3,0,0,1,2.963-8.462,14.06,14.06,0,0,1,3.56-5.474A7.169,7.169,0,0,1,84.438,93.1a9.071,9.071,0,0,1,6.172,4.46c1.807,3.28,1.22,6.674.7,9.668-.026.15-.052.3-.076.444.093-.07.19-.141.289-.211l2.723,3.794a20.125,20.125,0,0,0-2.541,2.265,22.821,22.821,0,0,1-3.3,2.878c-3.3,2.285-6.024,3.1-8.232,3.1m2.848-21.864a2.414,2.414,0,0,0-1.615.59,10.182,10.182,0,0,0-2.291,3.74,67.578,67.578,0,0,0-2.771,7.912,4.34,4.34,0,0,0,1.519,4.1c1.754,1.468,4.406.99,7.882-1.418a18.966,18.966,0,0,0,2.657-2.34c.368-.369.743-.743,1.144-1.121l-3.193-.4c.1-.766.228-1.529.356-2.266.444-2.561.827-4.774-.189-6.62a4.364,4.364,0,0,0-2.919-2.12,3.266,3.266,0,0,0-.58-.055" transform="translate(17.454 22.67)" fill="#3d4451"/>
        <path id="Trazado_65940" data-name="Trazado 65940" d="M68.546,116.441a12.946,12.946,0,0,1-1.342-.068,9.672,9.672,0,0,1-6.368-3.082c-2.843-3.275-1.489-7.146-.957-8.637l.08-.246,4.437,1.46-.108.327c-.832,2.33-.587,3.271.075,4.035a5.211,5.211,0,0,0,3.334,1.5c2.3.244,5.427-.524,6.681-2.229a22.862,22.862,0,0,0,3.184-7.922c.536-2.212,1.791-7.39-.337-9a4.343,4.343,0,0,0-3.256-1.1c-1.415.209-2.979,1.438-4.519,3.556l-3.778-2.748c2.33-3.2,4.891-5.026,7.616-5.428a8.858,8.858,0,0,1,6.758,2c4.566,3.464,2.87,10.463,2.055,13.828a26.917,26.917,0,0,1-3.96,9.588c-2.168,2.948-6.239,4.174-9.593,4.174" transform="translate(14.408 21.159)" fill="#3d4451"/>
        <path id="Trazado_65941" data-name="Trazado 65941" d="M69.458,48.944a1.3,1.3,0,0,1-.2-.015,1.272,1.272,0,0,1-1.064-1.45,11.264,11.264,0,0,0-1.331-7.917,1.271,1.271,0,0,1,2.061-1.489c.112.153,2.707,3.81,1.784,9.794a1.272,1.272,0,0,1-1.255,1.077" transform="translate(16.248 9.157)" fill="#3d4451"/>
        <path id="Trazado_65942" data-name="Trazado 65942" d="M94.3,135.564v23.808l8.79-9.094,8.471,9.754V136.621" transform="translate(22.994 33.057)" fill="#ed7b5c"/>
        <path id="Trazado_65943" data-name="Trazado 65943" d="M113.516,164.409,103.346,152.7,92.985,163.415V135.564h3.27V155.33l7.221-7.471,6.77,7.8V136.62h3.27Z" transform="translate(22.674 33.057)" fill="#3d4451"/>
        <path id="Trazado_65944" data-name="Trazado 65944" d="M93.263,133.787a9.92,9.92,0,1,1,9.92,9.92,9.92,9.92,0,0,1-9.92-9.92" transform="translate(22.742 30.204)" fill="#f9a44a"/>
        <path id="Trazado_65945" data-name="Trazado 65945" d="M103.549,145.942a11.788,11.788,0,1,1,11.789-11.789,11.8,11.8,0,0,1-11.789,11.789m0-19.841a8.052,8.052,0,1,0,8.053,8.051,8.062,8.062,0,0,0-8.053-8.051" transform="translate(22.375 29.838)" fill="#3d4451"/>
        <path id="Trazado_65946" data-name="Trazado 65946" d="M135.284,117.655V132.47h7.541v22.575c-5.137.362-7.625,6.522-7.625,6.522h16.745V132.29h6.962V110.478c0-8.334-7.046-12.5-7.046-12.5" transform="translate(32.968 23.891)" fill="#3d4451"/>
        <path id="Trazado_65947" data-name="Trazado 65947" d="M141.429,101.107a10.384,10.384,0,1,1,9.834-9.825,10.385,10.385,0,0,1-9.834,9.825" transform="translate(31.824 19.594)" fill="#3d4451"/>
        <path id="Trazado_65948" data-name="Trazado 65948" d="M135.342,108.742v25.231h7.541v22.575c-5.137.362-7.625,6.522-7.625,6.522H152V133.793h6.962V111.981c0-8.334-14.716-20.17-14.716-20.17l-9.285,5.319" transform="translate(32.91 22.388)" fill="#3d4451"/>
        <path id="Trazado_65949" data-name="Trazado 65949" d="M142.723,93.162l-17.069,17.069a3.541,3.541,0,0,1-2.546,1.036l-1.46-.017a3.541,3.541,0,1,0-.044,7.081h6.75a3.539,3.539,0,0,0,2.5-1.037l8.953-8.952" transform="translate(28.789 22.717)" fill="#3d4451"/>
        <path id="Trazado_65950" data-name="Trazado 65950" d="M23.623,117.655V132.47H16.082v22.575c5.137.362,7.624,6.522,7.624,6.522H6.962V132.29H0V110.478c0-8.334,7.046-12.5,7.046-12.5" transform="translate(0 23.891)" fill="#3d4451"/>
        <path id="Trazado_65951" data-name="Trazado 65951" d="M16.9,101.107a10.384,10.384,0,1,0-9.834-9.825,10.386,10.386,0,0,0,9.834,9.825" transform="translate(1.72 19.594)" fill="#3d4451"/>
        <path id="Trazado_65952" data-name="Trazado 65952" d="M23.623,108.742v25.231H16.082v22.575c5.137.362,7.624,6.522,7.624,6.522H6.962V133.793H0V111.981c0-8.334,14.716-20.17,14.716-20.17L24,97.13" transform="translate(0 22.388)" fill="#3d4451"/>
        <path id="Trazado_65953" data-name="Trazado 65953" d="M16.371,93.162,33.44,110.231a3.541,3.541,0,0,0,2.546,1.036l1.46-.017a3.541,3.541,0,1,1,.044,7.081H30.74a3.542,3.542,0,0,1-2.505-1.037l-8.952-8.952" transform="translate(3.992 22.717)" fill="#3d4451"/>
      </g>
    </g>
  </g>
</svg>
