<svg xmlns="http://www.w3.org/2000/svg" width="286" height="286" viewBox="0 0 286 286">
  <g id="Grupo_70495" data-name="Grupo 70495" transform="translate(-2112 1824)">
    <rect id="Rectángulo_31444" data-name="Rectángulo 31444" width="286" height="286" transform="translate(2112 -1824)" fill="none"/>
    <g id="Grupo_70481" data-name="Grupo 70481" transform="translate(2162.206 -2187.835)">
      <g id="Grupo_66607" data-name="Grupo 66607" transform="translate(90.052 445.157)">
        <g id="Grupo_66602" data-name="Grupo 66602" transform="translate(8.49 61.952)">
          <path id="Trazado_106243" data-name="Trazado 106243" d="M186.417,581.46c1.42,5.3,6.052,10.309,7.981,10.51a8.785,8.785,0,0,0,6.1-2.145c-.726-2.707-1.612-5.506-2.338-8.212a9.687,9.687,0,0,0-1.136-2.924,5.586,5.586,0,0,0-4.973-2.308,7.54,7.54,0,0,0-4.981,2.562A2.68,2.68,0,0,0,186.417,581.46Z" transform="translate(-184.058 -564.187)" fill="#b2614e"/>
          <path id="Trazado_106244" data-name="Trazado 106244" d="M192.681,558.008c-.322-.606-.884-1.3-1.538-1.1s-.705,1.119-.6,1.8a57.1,57.1,0,0,0,2.052,7.934,9.67,9.67,0,0,0,1.092,2.592,3.263,3.263,0,0,0,2.274,1.513.571.571,0,0,0,.374-.059.578.578,0,0,0,.192-.271C197.9,567.2,194.163,560.8,192.681,558.008Z" transform="translate(-185.623 -556.875)" fill="#824639"/>
          <path id="Trazado_106245" data-name="Trazado 106245" d="M188.788,573.142c-.978.3-1.178,1.625-1.354,1.54-.907-.443-1.312-1.06-1.891-.744s-.39,1.75-1.024,1.841c-.279-.459-2.091-.309-1.79,1.664.311,2.034,1.673,5.007,3.35,4.343a2.316,2.316,0,0,0,1.175-1.362,2.177,2.177,0,0,0,1.6.885c.664.029,1.362-.4,1.36-.956.859.6.859.6,2.641.189C193.544,580.381,192.3,572.078,188.788,573.142Z" transform="translate(-182.695 -562.942)" fill="#995343"/>
          <path id="Trazado_106246" data-name="Trazado 106246" d="M200.1,580.773c-.585-2.061-1.233-8.191-2.549-8.659-1.384-.492-5.454,1.781-6.067,2.532a2.169,2.169,0,0,0-.193,2.671c.489.581,3.485-.008,4.122-.421-.735.736-1.177,7.222,2.02,6.762C198.463,583.51,200.382,581.779,200.1,580.773Z" transform="translate(-185.776 -562.566)" fill="#b2614e"/>
        </g>
        <path id="Trazado_106247" data-name="Trazado 106247" d="M192.817,597.9l10.324-9.045,16.779,32.266s-1.35,13.3-9.74,14.175C205.189,635.811,192.817,597.9,192.817,597.9Z" transform="translate(-178.002 -506.918)" fill="#f2e9e4"/>
        <path id="Trazado_106248" data-name="Trazado 106248" d="M247.159,544.215s-19.93,9.368-21.753,14.7-6.317,52.165-6.317,52.165l12.32,3.577Z" transform="translate(-187.858 -490.173)" fill="#f2e9e4"/>
        <g id="Grupo_66603" data-name="Grupo 66603" transform="translate(43.733 54.042)">
          <path id="Trazado_106249" data-name="Trazado 106249" d="M272.6,544.915s24.844,2.432,28.751,5.036,14.58,62.734,10.955,68.658c-3.907,6.385-25.664,6.884-25.664,6.884H239.185s-.62-72,1.445-73.322c5.8-3.715,14.035-7.957,14.035-7.957Z" transform="translate(-239.097 -544.215)" fill="#f2e9e4"/>
        </g>
        <path id="Trazado_106250" data-name="Trazado 106250" d="M272.476,554.946l-6.032,3.662,3.533,4.487-3.533,66.425h16.978l-9.56-66.425,2.5-5.238Z" transform="translate(-205.623 -494.199)" fill="#344154"/>
        <path id="Trazado_106251" data-name="Trazado 106251" d="M257.316,547.128l4.358,8.957,7.378-4.478,5.975,4.478,8.532-10.041" transform="translate(-202.199 -490.859)" fill="none" stroke="#2c1817" stroke-miterlimit="10" stroke-width="0.75"/>
        <g id="Grupo_66604" data-name="Grupo 66604" transform="translate(33.693)">
          <path id="Trazado_106252" data-name="Trazado 106252" d="M264.012,524.77l.54-23.864,14.868-8.524,2.523,33.089S271.235,533.887,264.012,524.77Z" transform="translate(-238.404 -470.728)" fill="#b2614e"/>
          <path id="Trazado_106253" data-name="Trazado 106253" d="M276.435,511.857s-2.552,11.684-12.145,12.523l.366-12.455Z" transform="translate(-238.509 -478.034)" fill="#995343"/>
          <path id="Trazado_106254" data-name="Trazado 106254" d="M243.133,486.308c1.873,19.3,6.607,24.358,18.649,15.113,6.622-5.084,11.367-9.422,10.4-22.135-.659-8.651-7.093-12.545-18.62-11.449C244.377,468.71,242.334,478.073,243.133,486.308Z" transform="translate(-230.512 -461.453)" fill="#b2614e"/>
          <path id="Trazado_106255" data-name="Trazado 106255" d="M268.713,465.808a6.491,6.491,0,0,0-2.934-4.1c-2.173-1.086-2.7-.524-4.918.449.087-2.13-1.3-4.105-2.749-4.261-10.727-1.151-33.675,3.952-34.9,6.716-1.213,2.746,3.912,4.427,5.119,4.684a7.091,7.091,0,0,0-4,1.909c-1.049,1.5.935,3.235,6.846,3.264-3.1,2.039-.055,4.42,5.269,2.753,1.94-.608,10.918-3.7,16.213-5.829a7.031,7.031,0,0,1,9.247,3.837c2.016,5.676,2.5,14.144,2.919,14.339,2.98,1.4,4.505-2.415,4.7-8.291C269.661,477.07,269.984,469.849,268.713,465.808Z" transform="translate(-223.03 -457.728)" fill="#2c1817"/>
          <path id="Trazado_106256" data-name="Trazado 106256" d="M261.854,492.966c-.014.536,2.294,1.168,3.669,1.285s1.859-.277,1.873-.814-1.655-1.114-3.029-1.23S261.868,492.43,261.854,492.966Z" transform="translate(-237.595 -470.654)" fill="#2c1817"/>
          <path id="Trazado_106257" data-name="Trazado 106257" d="M261.867,499.92c-.041.786.229,1.438.6,1.458s.71-.6.751-1.387-.229-1.438-.6-1.458S261.907,499.134,261.867,499.92Z" transform="translate(-237.598 -473.035)" fill="#2c1817"/>
          <path id="Trazado_106258" data-name="Trazado 106258" d="M250.82,492.055c-.014.537-2.346.774-3.721.657s-1.836-.592-1.821-1.128,1.705-.828,3.079-.711S250.834,491.519,250.82,492.055Z" transform="translate(-231.376 -470.152)" fill="#2c1817"/>
          <path id="Trazado_106259" data-name="Trazado 106259" d="M252.4,499.427c-.041.786-.377,1.407-.751,1.388s-.644-.672-.6-1.458.377-1.407.752-1.387S252.44,498.641,252.4,499.427Z" transform="translate(-233.538 -472.824)" fill="#2c1817"/>
          <path id="Trazado_106260" data-name="Trazado 106260" d="M257.039,497.035c-.409,2.677-1.414,8.352-1.059,8.9a1.117,1.117,0,0,0,1.688,0" transform="translate(-235.363 -472.474)" fill="none" stroke="#2c1817" stroke-miterlimit="10" stroke-width="0.5"/>
          <path id="Trazado_106261" data-name="Trazado 106261" d="M259.2,516.321s-.8,1.393-1.81,1.469a3.221,3.221,0,0,1-2.021-.887" transform="translate(-235.164 -479.709)" fill="none" stroke="#2c1817" stroke-miterlimit="10" stroke-width="0.5"/>
          <ellipse id="Elipse_4357" data-name="Elipse 4357" cx="4.401" cy="4.159" rx="4.401" ry="4.159" transform="matrix(0.66, -0.751, 0.751, 0.66, 37.372, 22.213)" fill="#b2614e"/>
          <path id="Trazado_106262" data-name="Trazado 106262" d="M293.415,490.281a5.7,5.7,0,0,0-4.643,1.821,4.578,4.578,0,0,1,3.216,1.054" transform="translate(-247.693 -469.932)" fill="none" stroke="#2c1817" stroke-miterlimit="10" stroke-width="0.5"/>
        </g>
        <g id="Grupo_66606" data-name="Grupo 66606" transform="translate(0 94.019)">
          <g id="Grupo_66605" data-name="Grupo 66605">
            <path id="Trazado_106263" data-name="Trazado 106263" d="M233.462,641.192H178.218l-8.994-30.322a1.93,1.93,0,0,1,1.883-2.677H221a3.885,3.885,0,0,1,3.471,2.677Z" transform="translate(-169.108 -608.193)" fill="#6595bf"/>
            <path id="Trazado_106264" data-name="Trazado 106264" d="M231.57,641.192H178.218l-8.994-30.322a1.93,1.93,0,0,1,1.883-2.677h48a3.886,3.886,0,0,1,3.472,2.677Z" transform="translate(-169.108 -608.193)" fill="#6595bf"/>
          </g>
          <path id="Trazado_106265" data-name="Trazado 106265" d="M217.937,663.721H273.18a1.366,1.366,0,0,0,1.367-1.367h0a1.366,1.366,0,0,0-1.367-1.366H217.937a1.366,1.366,0,0,0-1.366,1.366h0A1.366,1.366,0,0,0,217.937,663.721Z" transform="translate(-186.914 -627.999)" fill="#6595bf"/>
          <path id="Trazado_106266" data-name="Trazado 106266" d="M182.868,663.721h55.243a1.366,1.366,0,0,0,1.366-1.367h0a1.366,1.366,0,0,0-1.366-1.366H182.868a1.366,1.366,0,0,0-1.367,1.366h0A1.366,1.366,0,0,0,182.868,663.721Z" transform="translate(-173.757 -627.999)" fill="#6595bf"/>
          <ellipse id="Elipse_4358" data-name="Elipse 4358" cx="3.227" cy="4.201" rx="3.227" ry="4.201" transform="matrix(0.659, -0.752, 0.752, 0.659, 24.416, 16.157)" fill="#c1dcff"/>
          <path id="Trazado_106267" data-name="Trazado 106267" d="M298.886,663.474h2.391a.5.5,0,0,0,.5-.5h0a.5.5,0,0,0-.5-.5h-2.391a.5.5,0,0,0-.5.5h0A.5.5,0,0,0,298.886,663.474Z" transform="translate(-217.607 -628.557)" fill="#5e5d5b"/>
          <path id="Trazado_106268" data-name="Trazado 106268" d="M295.528,662.974a.5.5,0,1,0,.5-.5A.5.5,0,0,0,295.528,662.974Z" transform="translate(-216.534 -628.557)" fill="#383837"/>
          <path id="Trazado_106269" data-name="Trazado 106269" d="M292.816,662.974a.5.5,0,1,0,.5-.5A.5.5,0,0,0,292.816,662.974Z" transform="translate(-215.517 -628.557)" fill="#383837"/>
        </g>
        <path id="Trazado_106270" data-name="Trazado 106270" d="M299.781,668.2c-3.582.329-8.514.262-9.946.326-3.216.143-16.974-4.8-15.608-5.9.777-.631,2.418-.336,3.036-.1-.161.083-.174-1.085.321-1.42,1.24-.837,5.68,2.191,12.283,1.458a5.871,5.871,0,0,1-3-2.826c-.44-.975.5-1.844.9-1.646,1.56.779,3.055,1.612,4.636,2.348a17.766,17.766,0,0,0,6.765,2.183C299.512,662.665,299.842,668.2,299.781,668.2Z" transform="translate(-208.507 -532.883)" fill="#b2614e"/>
        <path id="Trazado_106271" data-name="Trazado 106271" d="M329.546,558.795c-3.3,2.937-5.983,6.782-6.67,11.144a28.773,28.773,0,0,0,.266,8.1l4.923,38.508" transform="translate(-226.72 -495.643)" fill="none" stroke="#2c1817" stroke-miterlimit="10" stroke-width="0.75"/>
        <path id="Trazado_106272" data-name="Trazado 106272" d="M328.7,649.273l-15.655,3.437,1.332,12.2" transform="translate(-223.107 -529.585)" fill="none" stroke="#2c1817" stroke-miterlimit="10" stroke-width="0.75"/>
      </g>
      <g id="Grupo_66609" data-name="Grupo 66609" transform="translate(-15.806 424.219)">
        <path id="Trazado_106273" data-name="Trazado 106273" d="M41.8,554.1s-16.288,7.825-19.84,11.252c-3.395,3.275,0,63.59,0,63.59H82.349s0-56.242-1.825-60.2c-2.879-6.244-20.79-15.342-20.79-15.342Z" transform="translate(-7.484 -472.679)" fill="#344154"/>
        <path id="Trazado_106274" data-name="Trazado 106274" d="M48.013,557.785s4.128,18.939,4.772,72.8" transform="translate(-17.822 -474.325)" fill="none" stroke="#edf3ff" stroke-miterlimit="10" stroke-width="0.25"/>
        <path id="Trazado_106275" data-name="Trazado 106275" d="M89.876,556.949s4.52,2.675,3.685,73.322" transform="translate(-33.527 -474.012)" fill="none" stroke="#edf3ff" stroke-miterlimit="10" stroke-width="0.25"/>
        <path id="Trazado_106276" data-name="Trazado 106276" d="M106.646,572.524s3.3,32.8,3.657,63.59" transform="translate(-39.818 -479.855)" fill="none" stroke="#edf3ff" stroke-miterlimit="10" stroke-width="0.25"/>
        <path id="Trazado_106277" data-name="Trazado 106277" d="M54.62,554.1s4.759,28.546,4.4,74.841H76.7s2.084-48.871-4.148-75.542Z" transform="translate(-20.301 -472.679)" fill="#edf3ff"/>
        <g id="Grupo_66608" data-name="Grupo 66608" transform="translate(8.482 0)">
          <ellipse id="Elipse_4359" data-name="Elipse 4359" cx="15.767" cy="14.025" rx="15.767" ry="14.025" transform="matrix(0.866, -0.5, 0.5, 0.866, 0, 15.767)" fill="#2c1817"/>
          <ellipse id="Elipse_4360" data-name="Elipse 4360" cx="13.149" cy="10.451" rx="13.149" ry="10.451" transform="translate(11.432 29.013) rotate(-30.001)" fill="#ffcc8a"/>
          <ellipse id="Elipse_4361" data-name="Elipse 4361" cx="22.326" cy="23.24" rx="22.326" ry="23.24" transform="translate(13.693 21.924)" fill="#2c1817"/>
          <ellipse id="Elipse_4362" data-name="Elipse 4362" cx="13.996" cy="18.056" rx="13.996" ry="18.056" transform="translate(38.391 27.417)" fill="#2c1817"/>
          <path id="Trazado_106278" data-name="Trazado 106278" d="M72.551,533.952l-.54-23.864-14.868-8.524L54.62,534.652S65.328,543.069,72.551,533.952Z" transform="translate(-28.783 -453.234)" fill="#b2614e"/>
          <path id="Trazado_106279" data-name="Trazado 106279" d="M66.981,521.149s.074,8.759,9.667,9.6v-9.6Z" transform="translate(-33.42 -460.582)" fill="#995343"/>
          <path id="Trazado_106280" data-name="Trazado 106280" d="M84.8,495.694c-1.873,19.3-7.483,17.1-16.646,13.172A15.886,15.886,0,0,1,59.1,490.288c2.031-7.959,9.376-12.546,16.4-10.245S85.6,487.458,84.8,495.694Z" transform="translate(-30.274 -444.938)" fill="#b2614e"/>
          <path id="Trazado_106281" data-name="Trazado 106281" d="M56.545,499.224a4,4,0,0,1-4.267,4.05,4.583,4.583,0,0,1-4.266-4.531,4,4,0,0,1,4.266-4.05A4.583,4.583,0,0,1,56.545,499.224Z" transform="translate(-26.305 -450.654)" fill="#b2614e"/>
          <path id="Trazado_106282" data-name="Trazado 106282" d="M51.125,499.462a5.7,5.7,0,0,1,4.643,1.821,4.575,4.575,0,0,0-3.216,1.055" transform="translate(-27.472 -452.438)" fill="none" stroke="#2c1817" stroke-miterlimit="10" stroke-width="0.5"/>
          <path id="Trazado_106283" data-name="Trazado 106283" d="M82.345,496.565c.047.414-2.218,1.012-3.583,1.169s-1.873-.126-1.92-.539,1.582-.94,2.947-1.1S82.3,496.151,82.345,496.565Z" transform="translate(-37.119 -451.165)" fill="#2c1817"/>
          <path id="Trazado_106284" data-name="Trazado 106284" d="M85.266,504.142c.089.782-.14,1.45-.512,1.493s-.747-.557-.836-1.339.14-1.45.512-1.493S85.177,503.361,85.266,504.142Z" transform="translate(-39.767 -453.699)" fill="#2c1817"/>
          <path id="Trazado_106285" data-name="Trazado 106285" d="M93.3,495.344c.047.414,2.389.485,3.754.329s1.8-.546,1.748-.959-1.753-.558-3.117-.4S93.251,494.931,93.3,495.344Z" transform="translate(-43.292 -450.491)" fill="#2c1817"/>
          <path id="Trazado_106286" data-name="Trazado 106286" d="M94.684,503.065c.089.782.464,1.381.835,1.338s.6-.711.512-1.493-.464-1.381-.835-1.338S94.6,502.283,94.684,503.065Z" transform="translate(-43.806 -453.237)" fill="#2c1817"/>
          <path id="Trazado_106287" data-name="Trazado 106287" d="M89.952,500.979c.574,2.648,1.929,8.249,1.608,8.819a1.116,1.116,0,0,1-1.684.107" transform="translate(-42.009 -453.015)" fill="none" stroke="#2c1817" stroke-miterlimit="10" stroke-width="0.5"/>
          <path id="Trazado_106288" data-name="Trazado 106288" d="M87.415,520.463s.887,1.341,1.9,1.353a3.222,3.222,0,0,0,1.963-1.01" transform="translate(-41.086 -460.324)" fill="none" stroke="#2c1817" stroke-miterlimit="10" stroke-width="0.5"/>
          <path id="Trazado_106289" data-name="Trazado 106289" d="M83.871,479.41s-8.464,8.352-16.676,8.982l-8.212.63s-2.727-9.333,1.343-12.132S83.871,479.41,83.871,479.41Z" transform="translate(-30.084 -443.673)" fill="#2c1817"/>
        </g>
        <path id="Trazado_106290" data-name="Trazado 106290" d="M55.65,565.9s6.029,3.349,10.563,2.639S74.4,564.1,74.4,564.1" transform="translate(-20.687 -476.696)" fill="none" stroke="#2c1817" stroke-miterlimit="10" stroke-width="0.75"/>
        <path id="Trazado_106291" data-name="Trazado 106291" d="M131.324,612.382h-30.1L79.041,651.066h28.651Z" transform="translate(-29.462 -494.807)" fill="#f5a345"/>
        <path id="Trazado_106292" data-name="Trazado 106292" d="M43.373,638.509c1.931-.326,22.629-8.052,24.56-8.378a.616.616,0,0,0,.088,1.009c.9.549,5.551-2.3,5.447-3.271a5.9,5.9,0,0,0-.986-2.453c1.628.137,3.371.244,5.015.244,1.988,0,2.433-.252,2.493-1.145.04-.6-2.633-.926-6.061-1.427-1.435-.21-3.734-.792-5.03-.154-9.585,4.718-26.306,8.278-29.751,9.185C37.7,634.608,39.149,638.509,43.373,638.509Z" transform="translate(-14.292 -498.656)" fill="#b2614e"/>
        <path id="Trazado_106293" data-name="Trazado 106293" d="M14.176,572.524S6.6,577.46-.269,625.273c-1.184,8.236,29.115-3.368,29.115-3.368l-1.2-9.342-13.371,2.948Z" transform="translate(0.303 -479.855)" fill="#344154"/>
        <path id="Trazado_106294" data-name="Trazado 106294" d="M35.638,634.377l7.425-1.443,3.679,12.943-8.724,2.058S33.662,644.487,35.638,634.377Z" transform="translate(-12.987 -502.517)" fill="#edf3ff"/>
        <line id="Línea_424" data-name="Línea 424" y1="2.711" x2="17.729" transform="translate(10.217 132.708)" fill="none" stroke="#edf3ff" stroke-miterlimit="10" stroke-width="0.25"/>
        <path id="Trazado_106295" data-name="Trazado 106295" d="M25.641,575.313c3.772,3.1,7.825,6.692,8.368,11.541.33,2.95-4.591,20.054-7.435,28.407" transform="translate(-9.43 -480.901)" fill="none" stroke="#edf3ff" stroke-miterlimit="10" stroke-width="0.25"/>
        <path id="Trazado_106296" data-name="Trazado 106296" d="M134.734,612.382h-30.1L82.452,651.066H111.1Z" transform="translate(-30.742 -494.807)" fill="#e59840"/>
        <path id="Trazado_106297" data-name="Trazado 106297" d="M134.8,649.042s4.876-2.426,6.45-5.05,1.227-4.536,1.227-6.439c0-1.47-3.447-9.182-4.831-8.432-1.03.558.945,5.143.945,5.143s-2.519-5.054-3.569-4.154,1.995,6.778,1.995,6.778-2.519-4.094-3.569-3.149,2.2,5.117,2.2,5.117-2.449-2.912-3.428-1.793,5.822,6.665,5.822,6.665Z" transform="translate(-49.377 -501.068)" fill="#b2614e"/>
      </g>
      <rect id="Rectángulo_31350" data-name="Rectángulo 31350" width="268.272" height="8.23" transform="translate(-41.628 580.478)" fill="#5e6178"/>
      <g id="Grupo_66610" data-name="Grupo 66610" transform="translate(51.96 426.546)">
        <rect id="Rectángulo_31351" data-name="Rectángulo 31351" width="39.208" height="29.437" rx="14.719" fill="#fff"/>
        <path id="Trazado_106298" data-name="Trazado 106298" d="M125.441,473.022a8.262,8.262,0,0,0,2.769-3.512c1.695-4.162-.386-9.172-4.8-12.746a14.287,14.287,0,0,1,4.869,1.062c5.524,2.249,8.7,7.28,7.087,11.237C134.045,472.3,129.925,473.816,125.441,473.022Z" transform="translate(-113.873 -438.755)" fill="#fff"/>
        <path id="Trazado_106299" data-name="Trazado 106299" d="M122.119,450.122a2.292,2.292,0,1,1-2.292-2.291A2.292,2.292,0,0,1,122.119,450.122Z" transform="translate(-111.67 -435.404)" fill="#c1dcff"/>
        <path id="Trazado_106300" data-name="Trazado 106300" d="M140.437,450.122a2.292,2.292,0,1,1-2.291-2.291A2.292,2.292,0,0,1,140.437,450.122Z" transform="translate(-118.542 -435.404)" fill="#c1dcff"/>
        <path id="Trazado_106301" data-name="Trazado 106301" d="M158.756,450.122a2.292,2.292,0,1,1-2.292-2.291A2.292,2.292,0,0,1,158.756,450.122Z" transform="translate(-125.414 -435.404)" fill="#c1dcff"/>
      </g>
      <g id="Grupo_66611" data-name="Grupo 66611" transform="translate(90.989 463.102)">
        <rect id="Rectángulo_31352" data-name="Rectángulo 31352" width="35.578" height="26.712" rx="13.356" transform="translate(35.578 26.712) rotate(-180)" fill="#c1dcff"/>
        <path id="Trazado_106302" data-name="Trazado 106302" d="M205.112,527.351a7.5,7.5,0,0,1-2.513-3.187c-1.537-3.777.351-8.322,4.357-11.566a12.971,12.971,0,0,0-4.418.964c-5.013,2.041-7.893,6.606-6.43,10.2C197.305,526.7,201.044,528.071,205.112,527.351Z" transform="translate(-180.032 -496.257)" fill="#c1dcff"/>
        <path id="Trazado_106303" data-name="Trazado 106303" d="M212.372,506.572a2.079,2.079,0,1,0,2.079-2.079A2.079,2.079,0,0,0,212.372,506.572Z" transform="translate(-186.276 -493.216)" fill="#fff"/>
        <path id="Trazado_106304" data-name="Trazado 106304" d="M195.749,506.572a2.08,2.08,0,1,0,2.08-2.079A2.08,2.08,0,0,0,195.749,506.572Z" transform="translate(-180.04 -493.216)" fill="#fff"/>
        <path id="Trazado_106305" data-name="Trazado 106305" d="M179.127,506.572a2.079,2.079,0,1,0,2.079-2.079A2.08,2.08,0,0,0,179.127,506.572Z" transform="translate(-173.804 -493.216)" fill="#fff"/>
      </g>
    </g>
  </g>
</svg>
