<svg id="Grupo_25224" data-name="Grupo 25224" xmlns="http://www.w3.org/2000/svg" xmlns:xlink="http://www.w3.org/1999/xlink" width="184.849" height="185.555" viewBox="0 0 184.849 185.555">
  <defs>
    <clipPath id="clip-path">
      <rect id="Rectángulo_26081" data-name="Rectángulo 26081" width="184.849" height="185.555" fill="none"/>
    </clipPath>
  </defs>
  <g id="Grupo_25223" data-name="Grupo 25223" clip-path="url(#clip-path)">
    <path id="Trazado_66627" data-name="Trazado 66627" d="M30.733.462A26.519,26.519,0,1,0,61.7,21.612,26.55,26.55,0,0,0,30.733.462" transform="translate(-7.324 0)" fill="#e9f6ff"/>
    <path id="Trazado_66628" data-name="Trazado 66628" d="M141.509,29.849,140.09,34.3l-2.317,8.377-3.317-4.31L131.34,41.45,128.113,37.6l-1.552,2.987-1.082-.061-3.551-.66,1.3,3.323,2.725.523L123.6,55.4l-1.708,1.617-2.547-3.693-2.456-6.535-3.354.49-1.906-2.231.889-5.522,2.657-1.177,1.945.81,3.9-1.775-4.972-1.622-3.882.071-.411-1.1,3.228-2.783L113,29.875l3.047-4.036,4.186.635,6.134-3.27s2.4-1.925,5.088-4.054a26.548,26.548,0,0,1,10.058,10.7" transform="translate(-89.619 -15.374)" fill="#d4edff"/>
    <path id="Trazado_66629" data-name="Trazado 66629" d="M15.527,47.541l-1,2.838L12.841,55.57a.416.416,0,0,0,.088.4l2.353,2.548a.456.456,0,0,0,.38.12.417.417,0,0,0,.3-.255l1.046-2.792,3.778,3.152-4.942,6.443-3.307.954a.413.413,0,0,0-.291.332l-.33,2.2a.412.412,0,0,0,.133.37l2.794,2.439L10.9,70.5l-1.27-1.056a26.454,26.454,0,0,1,5.9-21.9" transform="translate(-7.384 -38.168)" fill="#d4edff"/>
    <path id="Trazado_66630" data-name="Trazado 66630" d="M55.238,169.35,52.083,165.3l1.374-5.87,8.283,5.061L58.1,177.863l-1.744-2.545-1.042-5.789a.41.41,0,0,0-.079-.178" transform="translate(-41.814 -127.995)" fill="#d4edff"/>
    <path id="Trazado_66631" data-name="Trazado 66631" d="M58.141,39.108l-4.1-5.585a24.4,24.4,0,0,1,7.677-4.306l-.186,5.9Z" transform="translate(-43.384 -23.456)" fill="#d4edff"/>
    <path id="Trazado_66632" data-name="Trazado 66632" d="M211.2,135.973A68.613,68.613,0,1,1,142.592,67.36,68.613,68.613,0,0,1,211.2,135.973" transform="translate(-59.393 -54.079)" fill="#ffd947"/>
    <path id="Trazado_66633" data-name="Trazado 66633" d="M576.18,201.223a33.74,33.74,0,0,0,13.056-24.983c.037-.623.067-1.248.079-1.883v-.006a33.391,33.391,0,0,0-1.562-10.849c-.033-.1-.07-.193-.1-.29.029.1.064.188.093.284l-10.326,3.2A24.179,24.179,0,0,1,578.5,174.2v0a24.21,24.21,0,0,1-10.272,19.467l6.232,8.839c.586-.415,1.162-.844,1.716-1.283" transform="translate(-456.198 -131.032)" fill="#0253a2"/>
    <path id="Trazado_66634" data-name="Trazado 66634" d="M334.791,88.428a24.244,24.244,0,1,1,42.976-21.134l10.326-3.2c-.03-.1-.065-.188-.093-.284-.139-.435-.283-.863-.434-1.288-.044-.12-.092-.241-.136-.364a34.41,34.41,0,0,0-30.9-22.709c-.334-.018-.664-.025-1-.033-.147,0-.293-.014-.44-.017-.027,0-.053,0-.084,0-.469,0-.935,0-1.4.014-.138.007-.278,0-.418.011-.366.014-.728.042-1.092.067-.254.016-.506.032-.76.055-.2.019-.405.047-.6.069-.419.047-.839.094-1.254.153l-.071.013a34.991,34.991,0,0,0-8.551,2.418c-.33.143-.663.283-.994.434a.192.192,0,0,0-.029.015A35.066,35.066,0,0,0,319.792,70.3c-.01.07-.017.139-.024.209-.048.413-.083.831-.114,1.245-.016.214-.032.426-.044.639-.02.279-.024.563-.036.845-.005.245-.023.484-.026.729a34.883,34.883,0,0,0,6.405,20.7Z" transform="translate(-256.542 -31.633)" fill="#f99b1c"/>
    <path id="Trazado_66635" data-name="Trazado 66635" d="M400.906,302.738l-6.233-8.839a24.131,24.131,0,0,1-14.314,4.432h0a24.2,24.2,0,0,1-19.47-10.272l-8.838,6.231s0,0,.008.009c.393.56.8,1.1,1.218,1.631A33.66,33.66,0,0,0,376.6,308.913c.064.006.128.01.193.017.479.05.96.1,1.448.13.029,0,.054,0,.079,0,.142.009.287.009.429.016.486.028.97.06,1.461.065A34.888,34.888,0,0,0,400.549,303c.71-.488.944-.673.358-.258" transform="translate(-282.639 -231.264)" fill="#e9f6ff"/>
    <path id="Trazado_66636" data-name="Trazado 66636" d="M500.934,51.665l38.118,12.388a40.079,40.079,0,0,0-25.733-50.5,38.155,38.155,0,0,0-12.384-1.96Z" transform="translate(-402.168 -9.305)" fill="#6595bf"/>
    <path id="Trazado_66637" data-name="Trazado 66637" d="M217.541,495.868l-14.365.369-3.192,15.347s16.206.491,19.276-1.351-1.719-14.365-1.719-14.365" transform="translate(-160.555 -398.101)" fill="#0063cb"/>
    <path id="Trazado_66638" data-name="Trazado 66638" d="M289.419,429.507c2.8,2.351,6.09,14.157,6.09,14.157s1.508,7.876-6.865-9.629c-2.077-4.343.085-5.107.775-4.528" transform="translate(-231.028 -344.688)" fill="#e9d6b8"/>
    <path id="Trazado_66639" data-name="Trazado 66639" d="M317.118,503.631l.791-1.367.321-1.25-.287-2.077a13.947,13.947,0,0,0-1.085-2.894c-.509-.735-1.136-3.983-1.343-4.354a10.193,10.193,0,0,0-2.4-1.22s1.676,3.962,2.212,5.266a31.027,31.027,0,0,1,.85,3.95,6.165,6.165,0,0,0,.831,1.528s-.259-1.46-.371-1.835.365-.3.365-.3a12.3,12.3,0,0,1,.5,2.541,3.341,3.341,0,0,1-.33,1.06Z" transform="translate(-251.378 -393.768)" fill="#e9d6b8"/>
    <path id="Trazado_66640" data-name="Trazado 66640" d="M269.912,357.047l3.739,16.817.123.989,4.838-.888c-3.433-9.684-4.173-11.6-4.465-13.428-.106-.667-.9-6.126-.957-7.123a5.554,5.554,0,0,0-3.5-5.087c-3.03-1.333.223,8.721.223,8.721" transform="translate(-215.48 -279.551)" fill="#387bff"/>
    <path id="Trazado_66641" data-name="Trazado 66641" d="M224.507,312.077a6.833,6.833,0,1,0,6.831-6.689,6.762,6.762,0,0,0-6.831,6.689" transform="translate(-180.242 -245.177)" fill="#163f59"/>
    <path id="Trazado_66642" data-name="Trazado 66642" d="M251.875,795.851l-.071,8.184s2.918,3.557,3.985,4.127.925.071.855-.214-1.851-2.348-2.135-3.487.355-8.112.284-8.468-2.918-.142-2.918-.142" transform="translate(-202.157 -638.887)" fill="#e9d6b8"/>
    <path id="Trazado_66643" data-name="Trazado 66643" d="M187.976,799.873a60.023,60.023,0,0,0-1.139,6.191c-.071,1.565.214,2.064-.214,2.562s-3.416,4.412-4.127,4.412a.7.7,0,0,1-.712-.712,24.16,24.16,0,0,0,2.7-4.127c.356-1.138.427-7.471.427-8.112s3.06-.213,3.06-.213" transform="translate(-145.944 -642.056)" fill="#e9d6b8"/>
    <path id="Trazado_66644" data-name="Trazado 66644" d="M198.427,434.822s1.147.148.545,6.292a126.755,126.755,0,0,1-2.87,15.034l.185-14.3s.308-5.465,2.14-7.031" transform="translate(-157.438 -349.091)" fill="#e9d6b8"/>
    <path id="Trazado_66645" data-name="Trazado 66645" d="M250.942,498.727l-.475,29.413-.949,28.18,4.175.189s2.941-28.464,3.321-30.931,4.649-22.3,2.182-27.23-8.254.38-8.254.38" transform="translate(-200.322 -398.407)" fill="#194866"/>
    <path id="Trazado_66646" data-name="Trazado 66646" d="M264.1,498.347a4.427,4.427,0,0,1,.208.495c-2.675,4.155-5.194,7.666-5.772,8.564-.33.514-1.433,2.387-2.91,4.921l.22-13.6s5.787-5.313,8.254-.38" transform="translate(-205.223 -398.407)" fill="#163f59"/>
    <path id="Trazado_66647" data-name="Trazado 66647" d="M199.152,505.447s-1.233,12.525-1.233,21.064S197.065,560,197.065,560v4.365l3.226-.095,5.029-31.88,4.174-26.946Z" transform="translate(-158.211 -405.791)" fill="#194866"/>
    <path id="Trazado_66648" data-name="Trazado 66648" d="M199.95,310.5a6.833,6.833,0,1,0,6.832-6.689,6.762,6.762,0,0,0-6.832,6.689" transform="translate(-160.527 -243.914)" fill="#163f59"/>
    <path id="Trazado_66649" data-name="Trazado 66649" d="M224.014,276.509a5.99,5.99,0,1,0,5.977-6.381,6.188,6.188,0,0,0-5.977,6.381" transform="translate(-179.847 -216.869)" fill="#163f59"/>
    <path id="Trazado_66650" data-name="Trazado 66650" d="M217.512,309.22s-.569,3.416-.094,4.365,3.7,3.131,4.175,3.8-.949,5.788-5.6,5.028-8.824-3.7-8.824-4.459.095-1.518,1.613-2.087,3.985-.949,4.65-1.708a5.63,5.63,0,0,0,1.043-4.65c-.474-1.992,3.036-.285,3.036-.285" transform="translate(-166.324 -247.706)" fill="#e9d6b8"/>
    <path id="Trazado_66651" data-name="Trazado 66651" d="M192.3,357.107l-1.637,17.15v1l-4.91-.284s1.424-13.236,1.637-13.876a55.079,55.079,0,0,0,.64-7.188c-.071-1,.142-5.977,3.416-5.479s.854,8.682.854,8.682" transform="translate(-149.131 -279.7)" fill="#387bff"/>
    <path id="Trazado_66652" data-name="Trazado 66652" d="M237.778,277.2c.1-.027.2-.05.3-.068a6.427,6.427,0,0,0,2.583,3.652,8.638,8.638,0,0,0,1.071.689v1.1a3.087,3.087,0,0,1-6.167,0v-2.481a6.59,6.59,0,0,0,2.216-2.892" transform="translate(-189.118 -222.492)" fill="#e9d6b8"/>
    <path id="Trazado_66653" data-name="Trazado 66653" d="M214.268,395.875h15.3l-2.209-12.968.5-15.211a21.429,21.429,0,0,1-5.337,1.253c-1.634.1-5.124-1.253-5.124-1.253Z" transform="translate(-172.022 -295.2)" fill="#8dcfff"/>
    <path id="Trazado_66654" data-name="Trazado 66654" d="M195.48,543.952a17.045,17.045,0,0,0,.6,2.685c.168.286,1.182,1.5,1.182,1.5a3.089,3.089,0,0,0-.445-1.356,25.861,25.861,0,0,1-1.341-2.828" transform="translate(-156.939 -436.705)" fill="#e9d6b8"/>
    <path id="Trazado_66655" data-name="Trazado 66655" d="M271.512,345.924s-.474,9.393-.19,12.808,2.069,9.638,2.906,16.451c.549,4.474.5,12.142.5,12.142a7.379,7.379,0,0,1-1.9.854c-.664.1-1.93-.545-2.372-2.846-.546-2.847-1.938-23.024-2.272-24.8-.475-2.514-.133-9.787-.183-10.807a29.825,29.825,0,0,1-.328-4.5,10.489,10.489,0,0,0,.036-2.433s3.036,1.328,3.8,3.131" transform="translate(-214.868 -275.207)" fill="#0063cb"/>
    <path id="Trazado_66656" data-name="Trazado 66656" d="M204.556,339.775a3.5,3.5,0,0,0,1.066,1.378c.569.285.285,3.416,0,3.843s-.783,10.033-.854,12.311-1.247,22.821-1.6,24.458-.143,3.558-1.85,4.2a12.788,12.788,0,0,1-3.843.64s1.746-17.2,2.173-19.121,1.779-6.547,1.921-9.464-.284-7.329-.427-9.678a32.45,32.45,0,0,0-1.566-6.546c-.143-.427,4.413-1.8,4.983-2.018" transform="translate(-158.538 -272.784)" fill="#0063cb"/>
    <path id="Trazado_66657" data-name="Trazado 66657" d="M250.554,835.452a1.782,1.782,0,0,0-.2,1.024c.065.427.417,1.679.417,1.679l.782.356v-.569a18.266,18.266,0,0,0,2.135,2.205c.712.5,2.2,1.739,3.06,1.423a.519.519,0,0,0,.285-.356s-1.353-1.495-1.565-1.708-.712.213-1.282-.142a21.069,21.069,0,0,1-2.633-2.42,8.892,8.892,0,0,1-1-1.494" transform="translate(-200.979 -670.732)" fill="#161711"/>
    <path id="Trazado_66658" data-name="Trazado 66658" d="M182.593,839.368a2.83,2.83,0,0,1,.081,1.058,5.151,5.151,0,0,1-.388,1.111l-.714.4a18.73,18.73,0,0,1-2,2.158c-.661.5-2.047,1.74-2.843,1.424a.518.518,0,0,1-.264-.356s1.256-1.494,1.454-1.708.661.214,1.19-.142a20.094,20.094,0,0,0,2.446-2.42,15.049,15.049,0,0,0,1.033-1.528" transform="translate(-141.676 -673.875)" fill="#161711"/>
    <path id="Trazado_66659" data-name="Trazado 66659" d="M196.376,514.436c-.333,2.918.853,4.312,1.134,5.513a21.243,21.243,0,0,0,.768,2.422c-1.061-.772-.986-1.718-1.3-2.229s-.143-.369-.332.662c-.108.586.722,1.727,1.16,2.531a2.491,2.491,0,0,1,.371,1.106,12.067,12.067,0,0,1-1.533-1.9,15.04,15.04,0,0,1-1.5-3.137,12.594,12.594,0,0,1,.338-3.976c.369-1.548,1.129-3.09.89-.988" transform="translate(-156.626 -412.186)" fill="#e9d6b8"/>
    <path id="Trazado_66660" data-name="Trazado 66660" d="M263.683,338.944a28.682,28.682,0,0,0,.327,4.5c.325,2.732.737,2.7.655,7.366a68.414,68.414,0,0,0,.982,10.723s.282-10.586.573-13.505c.164-1.637.164-3.6.164-3.6l-1.637-1.391,1.555.491a14.855,14.855,0,0,1-.491-1.965,8.577,8.577,0,0,0-.573-1.883Z" transform="translate(-211.689 -272.117)" fill="#387bff"/>
    <path id="Trazado_66661" data-name="Trazado 66661" d="M231.33,337.02l-1.417.707-.082,3.11.982.082-1.146.737.655,18.171s.246-.655.328-5.484a99.908,99.908,0,0,1,1.146-13.26Z" transform="translate(-184.385 -270.572)" fill="#387bff"/>
    <path id="Trazado_66662" data-name="Trazado 66662" d="M896.971,861.6l.242,2.831.518,2.352.954.632.717.215.207.4,2.474,1.636a4.3,4.3,0,0,0,2.749.167c.39-.093-.152-1.153-.288-1.312a19.555,19.555,0,0,0-1.972-1.924l-1.93-2.375-2.182-2.974Z" transform="translate(-720.121 -691.442)" fill="#161711"/>
    <path id="Trazado_66663" data-name="Trazado 66663" d="M747.4,847.424l.619,1.135.335,1.278-.045,2.038-1.1.162-.833-.174-.542.382s-3.117.622-4.287.665c-1.941.067-3.006-.129-3.388-.5-.213-.209.69-.623.988-.667a11.435,11.435,0,0,0,3.535-1.377l1.418-1.61.272-1.137Z" transform="translate(-592.597 -680.343)" fill="#161711"/>
    <path id="Trazado_66664" data-name="Trazado 66664" d="M789.62,534.592l17.865,67.26-4.539.289-8.671-21.4-2.1-6.452-10.306-25.316-1.985-13.924Z" transform="translate(-626.121 -429.19)" fill="#0253a2"/>
    <path id="Trazado_66665" data-name="Trazado 66665" d="M753.854,584.374l-1.281-25.857,1.127-11.85,1.369-16.262L753,519.518l-7.1,1.137-.8,17.536.44,16.631.35,6.267,2.678,24.68Z" transform="translate(-598.193 -417.088)" fill="#0253a2"/>
    <path id="Trazado_66666" data-name="Trazado 66666" d="M650.643,358.228s-4.089-1.024-8.829-7.361c-1.6-2.14-.883.124-.735,2.709s4.579,6.942,9.732,8.653-.167-4-.167-4" transform="translate(-514.45 -281.006)" fill="#e9d6b8"/>
    <path id="Trazado_66667" data-name="Trazado 66667" d="M615.745,331.665s.964-2.706.581-3.416-1.943-3.2-1.943-3.2l-.453-.6s-.893.179.175,1.843.133,1.162.133,1.162l-1.5-1.107-1.941-1.2-.8-.652s-.427-.405-.6-.41c-.517-.008-.335.42-.335.42l2.9,2.82-3.335-1.814s-.463-.156-.625.059-.016.288-.016.288l3.318,3.012-1.82-.728s-.458-.14-.623.062c-.182.221-.236.276-.236.276l6.643,3.844Z" transform="translate(-488.062 -260.183)" fill="#e9d6b8"/>
    <rect id="Rectángulo_26064" data-name="Rectángulo 26064" width="3.534" height="2.846" transform="matrix(0.835, -0.551, 0.551, 0.835, 125.801, 72.751)" fill="#fff"/>
    <path id="Trazado_66668" data-name="Trazado 66668" d="M610.981,337.338l-2.417-1.129a2.036,2.036,0,0,0-.839-.3.369.369,0,0,0-.374.365l3.486,2.088Z" transform="translate(-487.603 -269.679)" fill="#e9d6b8"/>
    <path id="Trazado_66669" data-name="Trazado 66669" d="M668.077,354.89s.33,2.183-7.994,10.465c-4.652,4.628-7.451,7.625-10.2,6.712-4.712-1.565-13.357-14.5-13.357-14.5l4.387-4.674s7,8.288,10.163,8.229c.74-.014,5.241-4.121,9.791-9.748,1.924-2.379,6.715,2.9,7.211,3.516" transform="translate(-511.026 -281.604)" fill="#12344a"/>
    <path id="Trazado_66670" data-name="Trazado 66670" d="M730.311,401.08l2.635,2.729,2.139-7.169,2.1,8.278,16.785-2.262s-2.485-14.614-4.077-21.387l5.389-17s4.584-11.987-2.9-12.557-16.117-1.045-16.117-1.045-10.515,28.472-5.955,50.416" transform="translate(-585.4 -281.526)" fill="#163f59"/>
    <path id="Trazado_66671" data-name="Trazado 66671" d="M784.934,353.845l-1.239,15.964,8.291-12.713.144-3.3Z" transform="translate(-629.179 -284.042)" fill="#e9f6ff"/>
    <path id="Trazado_66672" data-name="Trazado 66672" d="M836.838,553.737l2.546-1.24.31-.291-.314-.568-.547.037.186-1.6-2.562-.6-1.292-.7.984,4.434" transform="translate(-670.5 -440.576)" fill="#e9d6b8"/>
    <path id="Trazado_66673" data-name="Trazado 66673" d="M845.007,495.141l-9.538,10.383s.235,1.6,1,.8c.092-.094-.322-.438.237-.706,2.263-1.077,7.52-2.638,9.533-4.377a31.893,31.893,0,0,0,4.587-5.042Z" transform="translate(-670.745 -397.517)" fill="#e9d6b8"/>
    <rect id="Rectángulo_26065" data-name="Rectángulo 26065" width="3.534" height="3.206" transform="matrix(0.721, -0.693, 0.693, 0.721, 166.745, 105.364)" fill="#e7f5fe"/>
    <path id="Trazado_66674" data-name="Trazado 66674" d="M785.9,367.108s-5.271,12-2.015,24.267c.257.965,1.505,1.537,1.505,1.537l1.449-1.584s-1.712-14.1-.94-24.22" transform="translate(-628.477 -294.728)" fill="#387bff"/>
    <path id="Trazado_66675" data-name="Trazado 66675" d="M801.358,355.923l.32,2.067,4.614-3.165.035-1.021Z" transform="translate(-643.36 -284.047)" fill="#d1dbea"/>
    <path id="Trazado_66676" data-name="Trazado 66676" d="M793.04,353.268l-1.06,4.029,1.051-1.38Z" transform="translate(-635.831 -283.616)" fill="#d1dbea"/>
    <path id="Trazado_66677" data-name="Trazado 66677" d="M846.555,368.425l4.127,14.408-5.865,7.58s2.312,3.434,3.273,3.032c6.643-2.779,11.9-12.311,11.9-12.311l-6.01-19.574a12.616,12.616,0,0,0-8.562-5.19c-4.386-.728.85,10.86,1.139,12.056" transform="translate(-677.331 -286.08)" fill="#12344a"/>
    <path id="Trazado_66678" data-name="Trazado 66678" d="M803.006,339.258a15.794,15.794,0,0,1-.907,2.638c-.55,1.066-4.862,2.24-5.521,2.361s.344-3.276.388-4.057c.032-.6.406-.389-.009-1.275Z" transform="translate(-639.341 -272.101)" fill="#e9d6b8"/>
    <path id="Trazado_66679" data-name="Trazado 66679" d="M776.456,351.8l-1.278,3.567-1.64,13.673L771.182,358.3l1.939-1.86-1.051-1.73,2.318-2.821Z" transform="translate(-619.134 -282.44)" fill="#194866"/>
    <path id="Trazado_66680" data-name="Trazado 66680" d="M758.675,391.812l-.2,7.536,1.479-6.8L773.87,401.5s1.151-10.161-.441-16.934l5.389-17s4.584-11.987-2.9-12.557c-1.054-.079-2.131-.158-3.2-.233-1.516-.106-4.341,4.241-5.023,5.489-.728,1.337-5.462,13.462-5.462,13.462Z" transform="translate(-608.935 -284.822)" fill="#12344a"/>
    <path id="Trazado_66681" data-name="Trazado 66681" d="M788.434,353.3l2.48.553-1.995,3.723-2.847,1.693.018,3.222-7.4,10.557,4.832-13.919Z" transform="translate(-625.163 -283.643)" fill="#163f59"/>
    <path id="Trazado_66682" data-name="Trazado 66682" d="M788.633,352.3l2.48.553-1.985,3.735-2.842,1.613.026,3.081-7.372,10.08,4.8-13.3Z" transform="translate(-625.362 -282.84)" fill="#194866"/>
    <path id="Trazado_66683" data-name="Trazado 66683" d="M794.4,365.633l.762-.082-.076,1.877-.918.651-.526-.789Z" transform="translate(-637.168 -293.478)" fill="#387bff"/>
    <path id="Trazado_66684" data-name="Trazado 66684" d="M793.771,295.861a1.229,1.229,0,0,0,.939,1.466l5.415,1.178a1.232,1.232,0,0,0,1.464-.942l1.744-8.019a1.231,1.231,0,0,0-.942-1.466l-5.413-1.175a1.228,1.228,0,0,0-1.464.94Z" transform="translate(-637.246 -230.314)" fill="#e9d6b8"/>
    <path id="Trazado_66685" data-name="Trazado 66685" d="M798.474,288.7a4.677,4.677,0,0,1-.588-1.441,1.836,1.836,0,0,1,1.1-1.336c.678-.218,1.036.54,1.036.54s-1.076.326-1.169.515-.375,1.721-.375,1.721" transform="translate(-640.572 -229.515)" fill="#163f59"/>
    <path id="Trazado_66686" data-name="Trazado 66686" d="M809.446,281.7a18.364,18.364,0,0,0,1.534-3.837c.045-.938.081-1.585-1-1.924-1.618-.508-1.715-.162-2.408-.839a25.238,25.238,0,0,0-2.342-2.424,1.691,1.691,0,0,0-2.526,1.157,1.77,1.77,0,0,1-1.061,1.31c.034.153.306.35.774.727a4.672,4.672,0,0,0,3.428,1.375c1.22-.049,3.506-.235,3.572.673s-.6,3.491-.546,3.713.338.18.573.07" transform="translate(-643.59 -218.745)" fill="#194866"/>
    <path id="Trazado_66687" data-name="Trazado 66687" d="M829.863,319.626a.413.413,0,0,0,.315.489l1.169.253a.411.411,0,0,0,.489-.313l.465-2.138a.413.413,0,0,0-.313-.491l-1.17-.253a.407.407,0,0,0-.487.313Z" transform="translate(-666.237 -254.632)" fill="#e9d6b8"/>
    <path id="Trazado_66688" data-name="Trazado 66688" d="M794.5,311.92a.408.408,0,0,0,.312.489l1.168.255a.411.411,0,0,0,.49-.315l.464-2.137a.411.411,0,0,0-.313-.488l-1.17-.256a.413.413,0,0,0-.487.316Z" transform="translate(-637.845 -248.445)" fill="#e9d6b8"/>
    <path id="Trazado_66689" data-name="Trazado 66689" d="M797.553,321.366s-.686,3.155-.915,4.209c-.207.952-1.042,2.958-6.417,1.786-3.182-.689-2.557-3-2.39-3.772a6.984,6.984,0,0,1,1.579-2.455c.014-.008-.283,1.3-.283,1.3a2.6,2.6,0,0,1,2.45-.8c2.441.53,2.684,2.079,3.765,2.288.834.161,1.747-1.053,2.21-2.563" transform="translate(-632.37 -257.817)" fill="#194866"/>
    <path id="Trazado_66690" data-name="Trazado 66690" d="M802.182,330.893l-1.67-.364a.41.41,0,0,1-.313-.489l.051-.234,2.472.54-.051.233a.411.411,0,0,1-.489.314" transform="translate(-642.421 -264.78)" fill="#e9d6b8"/>
    <rect id="Rectángulo_26066" data-name="Rectángulo 26066" width="1.776" height="5.86" transform="translate(161.417 83.033) rotate(-81.64)" fill="#194866"/>
    <path id="Trazado_66691" data-name="Trazado 66691" d="M436.124,791.307l-1.786,2.722,14.994,4.8s1-.958-2.678-2.881c-4.283-2.242-10.53-4.644-10.53-4.644" transform="translate(-348.703 -635.29)" fill="#88bdda"/>
    <path id="Trazado_66692" data-name="Trazado 66692" d="M375.6,791.307l1.785,2.722-14.992,4.8s-1-.958,2.677-2.881c4.283-2.242,10.53-4.644,10.53-4.644" transform="translate(-290.845 -635.29)" fill="#88bdda"/>
    <rect id="Rectángulo_26067" data-name="Rectángulo 26067" width="3.133" height="11.154" transform="translate(84.524 147.919)" fill="#88bdda"/>
    <path id="Trazado_66693" data-name="Trazado 66693" d="M438.192,794.217l-1.529,2.6L449.5,801.4s.857-.914-2.29-2.75a100.311,100.311,0,0,0-9.015-4.431" transform="translate(-350.569 -637.627)" fill="#acd5f4"/>
    <path id="Trazado_66694" data-name="Trazado 66694" d="M382.4,794.217l1.527,2.6L371.091,801.4s-.856-.914,2.292-2.75a100.131,100.131,0,0,1,9.016-4.431" transform="translate(-297.84 -637.627)" fill="#acd5f4"/>
    <path id="Trazado_66695" data-name="Trazado 66695" d="M494.389,831.437a1.088,1.088,0,1,0,1.089-1.089,1.088,1.088,0,0,0-1.089,1.089" transform="translate(-396.914 -666.634)" fill="#001f46"/>
    <path id="Trazado_66696" data-name="Trazado 66696" d="M368.261,831.437a1.089,1.089,0,1,0,1.089-1.089,1.089,1.089,0,0,0-1.089,1.089" transform="translate(-295.653 -666.634)" fill="#001f46"/>
    <path id="Trazado_66697" data-name="Trazado 66697" d="M507.755,831.437a1.089,1.089,0,1,0,1.089-1.089,1.089,1.089,0,0,0-1.089,1.089" transform="translate(-407.644 -666.634)" fill="#367082"/>
    <path id="Trazado_66698" data-name="Trazado 66698" d="M354.895,831.437a1.089,1.089,0,1,0,1.089-1.089,1.088,1.088,0,0,0-1.089,1.089" transform="translate(-284.923 -666.634)" fill="#367082"/>
    <rect id="Rectángulo_26068" data-name="Rectángulo 26068" width="2.291" height="4.011" transform="translate(84.985 143.831)" fill="#0054df"/>
    <path id="Trazado_66699" data-name="Trazado 66699" d="M422.315,709.656a2.236,2.236,0,0,0,2.235,2.235h1.26a2.234,2.234,0,1,0,0-4.469h-1.26a2.234,2.234,0,0,0-2.235,2.234" transform="translate(-339.05 -567.944)" fill="#0054df"/>
    <path id="Trazado_66700" data-name="Trazado 66700" d="M350.108,686.144c-.054-.263-.086-1.913-.086-2.2,0-1.8,1.166-3.267,2.6-3.267h29.028c1.439,0,2.6,1.462,2.6,3.267,0,.283-.031,1.933-.086,2.2Z" transform="translate(-281.011 -546.476)" fill="#8cc3ff"/>
    <path id="Trazado_66701" data-name="Trazado 66701" d="M383.436,708.8c0,.552-.323,1-.721,1H349.383c-.4,0-.721-.447-.721-1s.324-1,.721-1h33.331c.4,0,.721.448.721,1" transform="translate(-279.919 -568.25)" fill="#0054df"/>
    <path id="Trazado_66702" data-name="Trazado 66702" d="M348.733,628.953s-18.01.039-24.962.144c-4.81.073-5.248-6.785-3.35-7.817,5.759-3.134,23.73-4.747,23.73-4.747l12.224,11.228s-.686-.019-7.642,1.193" transform="translate(-256.405 -494.975)" fill="#194866"/>
    <path id="Trazado_66703" data-name="Trazado 66703" d="M533.187,836.555c.277.336.075,1.221.075,1.221s-4.848.54-6.408.173a8.2,8.2,0,0,1-1.735-.814c-.11-.063-.3-.434-.407-.5-.2-.117-.3.077-.464-.028a5.449,5.449,0,0,1-.739-.512c-.426-2.223.14-3.12.14-3.12s4.127-1.372,4.9-.415c1.82,2.252,4.03,3.256,4.637,3.991" transform="translate(-420.165 -668.141)" fill="#161711"/>
    <path id="Trazado_66704" data-name="Trazado 66704" d="M282.66,833.314l-.335,3.662-3.667.359s-.254-.489-.563-.458c-.262.025-.549.568-.905.6l-1.969.192-7.357.719s-.24-.739-.063-1.02a3.566,3.566,0,0,1,1.078-.591c1.842-.717,7.1-2.908,7.865-4.813.93-2.313,5.916,1.347,5.916,1.347" transform="translate(-214.947 -667.318)" fill="#161711"/>
    <path id="Trazado_66705" data-name="Trazado 66705" d="M514.274,641.978s1.194,11.32,1.023,17.3a130.134,130.134,0,0,0,.933,20.539c.066.452,5.834.112,5.834.112s2.068-28.064,2.682-32.686-1.173-7.956-10.471-5.268" transform="translate(-412.878 -514.632)" fill="#194866"/>
    <path id="Trazado_66706" data-name="Trazado 66706" d="M315.9,651.654s1.859,2.935,6.955,3.63c1.843.251-2.971,32.85-2.971,32.85l-7.529-2.411,1.453-36.051Z" transform="translate(-250.768 -521.581)" fill="#163f59"/>
    <path id="Trazado_66707" data-name="Trazado 66707" d="M432.63,628.611s9.844,1.4,16.415,2.094c2.409.252,4.495-6.491,4.775-6.785a4.959,4.959,0,0,1,3.434-1.676c-1.423-1.539-8.8-2.966-16.5-4.774s-8.878-.669-8.878-.669Z" transform="translate(-346.726 -494.907)" fill="#163f59"/>
    <path id="Trazado_66708" data-name="Trazado 66708" d="M519.806,669.182l.754,22.027.754,5.11.083-5.11-.166-3.182,1.757-4.94.922-11.476-1.34.5.167-5.025Z" transform="translate(-417.32 -535.563)" fill="#163f59"/>
    <path id="Trazado_66709" data-name="Trazado 66709" d="M321.389,645.845l-1.842.5-.671,26.466,3.854,9.465-1.842-6.449.752-13.317s2.68,6.45,2.68,6.114-2.26-13.987-2.26-13.987a28.962,28.962,0,0,1,2.26,2.01c-.25-.084-1.507-9.549-2.93-10.805" transform="translate(-256.005 -518.508)" fill="#194866"/>
    <path id="Trazado_66710" data-name="Trazado 66710" d="M442.158,617.467c7.7,1.808,15.076,3.234,16.5,4.774a4.959,4.959,0,0,0-3.434,1.676c-.077.081-.52,2.241-.838,3.016,1.256-2.263-16.85-8.645-20.761-10.3.729-.233,2.86-.5,8.533.832" transform="translate(-348.13 -494.904)" fill="#194866"/>
    <path id="Trazado_66711" data-name="Trazado 66711" d="M485.658,488.9s7.027,1.162,7.829,2.653a159.427,159.427,0,0,1,9.04,20c.689,1.99,2.49,9.391-2.012,9.938a22.884,22.884,0,0,1-3.9-.656l-2.206-.754.921-1.769.05-1.4s-2.813-6.783-6.266-13.2-3.454-14.816-3.454-14.816" transform="translate(-389.904 -392.511)" fill="#d4edff"/>
    <path id="Trazado_66712" data-name="Trazado 66712" d="M355.857,493.135s-5.52.109-6.645,4.752c-2.228,9.2-1.931,10.853-2.389,19.6-.045.857.048,3.145,5.223,3.254,2.1.044,2-3.876,2-3.876a97.679,97.679,0,0,0,2.778-10.278c1.433-6.461-.969-13.455-.969-13.455" transform="translate(-278.438 -395.907)" fill="#d4edff"/>
    <path id="Trazado_66713" data-name="Trazado 66713" d="M371.862,478.143l10.241-4.3,8.99-.6,9.8,4.578s1.568.245.982,7.966c-.611,8.059-2.54,18.125-2.54,18.125l-25.408.813s.668-14.682-.533-21.229c-.422-2.3-.419-4.022-1.527-5.347" transform="translate(-298.544 -379.932)" fill="#e9f6ff"/>
    <path id="Trazado_66714" data-name="Trazado 66714" d="M358.56,606.748l12.4,5.064s-8.793,1.253-14.292.133c-3.716-.758,1.727-5.358,1.895-5.2" transform="translate(-285.304 -487.116)" fill="#e9d6b8"/>
    <path id="Trazado_66715" data-name="Trazado 66715" d="M488.5,619.665l-12.848.67s12.374,5.678,12.783,4.7c2.319-5.546.064-5.37.064-5.37" transform="translate(-381.87 -497.49)" fill="#e9d6b8"/>
    <path id="Trazado_66716" data-name="Trazado 66716" d="M467.741,616.17c-.751-.361-.683-.367-.683-.367a3.079,3.079,0,0,1-1.68.967c-.494.076-2.088.1-2.088.1l-2.366.058-1.1-.061a2.014,2.014,0,0,0-.784.024c-.478.307-.069.553-.069.553l4.241.6-4.076.5s-.511.152-.536.429c-.022.26.149.25.149.25l4.734.507-2.076.5s-.5.159-.534.429c-.042.293-.061.372-.061.372l4.354-.426s3.323-4.07,2.573-4.431" transform="translate(-368.181 -494.389)" fill="#e9d6b8"/>
    <path id="Trazado_66717" data-name="Trazado 66717" d="M464.913,630.96l-2.848.52a2.363,2.363,0,0,0-.94.255.379.379,0,0,0-.135.53l4.367-.366Z" transform="translate(-370.053 -506.558)" fill="#e9d6b8"/>
    <path id="Trazado_66718" data-name="Trazado 66718" d="M507.873,622.777s4.146,2.292,3.928-6c-.036-1.38-5.433-.98-5.433-.98l-6.353.326-1.964,4.8Z" transform="translate(-399.854 -494.34)" fill="#d4edff"/>
    <path id="Trazado_66719" data-name="Trazado 66719" d="M510.123,619.412l-6.835-.88.932-2.278,6.352-.326s.631-.22,3.25.762c3.929,2.51-3.7,2.721-3.7,2.721" transform="translate(-404.058 -494.473)" fill="#e9f6ff"/>
    <path id="Trazado_66720" data-name="Trazado 66720" d="M348.9,608.417s-1.232-1.693-1.149-2.212c.5-3.1,4.1-3.684,4.1-3.684l9.487,2.549-2.183,4.8Z" transform="translate(-279.183 -483.726)" fill="#d4edff"/>
    <path id="Trazado_66721" data-name="Trazado 66721" d="M432.185,478.684s-10.367-3.164-10.585.11,1.637,17.241,2.619,19.423,4.365-1.745,6-8.839a89.821,89.821,0,0,0,1.964-10.694" transform="translate(-338.462 -383.201)" fill="#7dc2f5"/>
    <path id="Trazado_66722" data-name="Trazado 66722" d="M458.457,476.326l-2.252,9.36-.218,7.857,4.474-12.44-1.2-1.2,1.855-.109s-.11-4.474-1.31-5.893-3.349-1.279-2.292-.328a3.682,3.682,0,0,1,.942,2.753" transform="translate(-366.083 -379.619)" fill="#d4edff"/>
    <path id="Trazado_66723" data-name="Trazado 66723" d="M412.662,476.523a2.241,2.241,0,0,0-2.183,1.31,29.773,29.773,0,0,0-.982,4.692l1.636.764-1.309,1.2,4.911,13.531s-.328-10.912-.764-13.095-1.309-8.4-1.309-8.4" transform="translate(-328.759 -382.569)" fill="#d4edff"/>
    <path id="Trazado_66724" data-name="Trazado 66724" d="M422.91,440.733a2.949,2.949,0,0,0,2.477,2.62h3.357a2.948,2.948,0,0,0,2.475-2.62q.411-3.4.825-6.793c.184-1.357-.623-4.085-2.408-4.89a6.417,6.417,0,0,0-5.14,0c-1.786.805-2.593,3.533-2.41,4.89q.413,3.4.825,6.793" transform="translate(-338.845 -344.025)" fill="#e2c59c"/>
    <path id="Trazado_66725" data-name="Trazado 66725" d="M446.928,409.38a2.683,2.683,0,0,1,2.247,1.215h.922a2.082,2.082,0,0,1,2.081,2.083v5.14h-1.464v-2.09a1.466,1.466,0,0,0-1.465-1.465h-.395a2.686,2.686,0,0,1-2.686-2.686v-2.2Z" transform="translate(-358.2 -328.665)" fill="#163f59"/>
    <path id="Trazado_66726" data-name="Trazado 66726" d="M463.186,450.4a1.273,1.273,0,0,0,1.274,1.273h.107a1.273,1.273,0,0,0,1.274-1.273v-1.548a1.275,1.275,0,0,0-1.274-1.273h-.107a1.276,1.276,0,0,0-1.166.759" transform="translate(-371.863 -359.334)" fill="#e2c59c"/>
    <path id="Trazado_66727" data-name="Trazado 66727" d="M426.913,411.424V409.38H422.5a2.685,2.685,0,0,0-2.686,2.686v2.04h4.411a2.683,2.683,0,0,0,2.685-2.683" transform="translate(-337.044 -328.665)" fill="#163f59"/>
    <path id="Trazado_66728" data-name="Trazado 66728" d="M421.733,426.607a4.2,4.2,0,0,0,2.173,3.449,7.8,7.8,0,0,0,5.852,0,4.19,4.19,0,0,0,2.173-3.448v-9.093a2.253,2.253,0,0,0-2.388-2h-5.422a2.251,2.251,0,0,0-2.388,2Z" transform="translate(-338.582 -333.587)" fill="#e9d6b8"/>
    <path id="Trazado_66729" data-name="Trazado 66729" d="M420.927,409.38a2.682,2.682,0,0,0-2.247,1.215h-.922a2.082,2.082,0,0,0-2.081,2.083v5.14h1.465v-2.09a1.465,1.465,0,0,1,1.465-1.465h1.87a2.686,2.686,0,0,0,2.686-2.686v-2.2Z" transform="translate(-333.721 -328.665)" fill="#163f59"/>
    <path id="Trazado_66730" data-name="Trazado 66730" d="M418.231,448.853a1.273,1.273,0,0,0-1.274-1.272h-.106a1.273,1.273,0,0,0-1.274,1.272V450.4a1.274,1.274,0,0,0,1.274,1.273h.106a1.274,1.274,0,0,0,1.166-.759" transform="translate(-333.641 -359.335)" fill="#e9d6b8"/>
    <path id="Trazado_66731" data-name="Trazado 66731" d="M453.431,411.951a2.718,2.718,0,0,1-.053-.527V409.38h1.9a2.686,2.686,0,0,1,2.686,2.686v2.04h-1.9a2.674,2.674,0,0,1-.551-.057,2.686,2.686,0,0,0-2.081-2.1" transform="translate(-363.988 -328.665)" fill="#163f59"/>
    <path id="Trazado_66732" data-name="Trazado 66732" d="M390.472,638.921a.256.256,0,0,0-.014-.026l.014-.809h25.312v.809a.044.044,0,0,1,0,.026l-.086.151a2.2,2.2,0,0,1-2.09.828H392.649a2.2,2.2,0,0,1-2.091-.828Z" transform="translate(-313.474 -512.278)" fill="#b6c2c9"/>
    <rect id="Rectángulo_26069" data-name="Rectángulo 26069" width="16.761" height="0.571" transform="translate(81.268 125.995)" fill="#879ba6"/>
    <path id="Trazado_66733" data-name="Trazado 66733" d="M390.329,567.729l-.069-16.6a.789.789,0,0,1,.79-.791h23.693a.8.8,0,0,1,.8.791l.067,16.6Z" transform="translate(-313.315 -441.835)" fill="#d7dfe2"/>
    <path id="Trazado_66734" data-name="Trazado 66734" d="M446.751,588.188a1.534,1.534,0,1,0,1.527-1.534,1.525,1.525,0,0,0-1.527,1.534" transform="translate(-358.668 -470.987)" fill="#b6c2c9"/>
    <path id="Trazado_66735" data-name="Trazado 66735" d="M594.335,705.354h3.624l-5.979-57.9h-5.254Z" transform="translate(-471.046 -519.799)" fill="#93cef5"/>
    <path id="Trazado_66736" data-name="Trazado 66736" d="M588.5,650.122l2.3,17.535,2.733-18.9-.134-1.307h-4.592Z" transform="translate(-472.47 -519.8)" fill="#86bbd8"/>
    <path id="Trazado_66737" data-name="Trazado 66737" d="M120.469,705.354h-3.624l5.978-57.9h5.254Z" transform="translate(-93.808 -519.799)" fill="#93cef5"/>
    <path id="Trazado_66738" data-name="Trazado 66738" d="M143.4,650.122l-7.032,17.869,1.994-19.231.134-1.307h4.593Z" transform="translate(-109.485 -519.8)" fill="#86bbd8"/>
    <rect id="Rectángulo_26070" data-name="Rectángulo 26070" width="105.148" height="3.384" transform="translate(20.107 125.774)" fill="#8cc3ff"/>
    <path id="Trazado_66739" data-name="Trazado 66739" d="M225.11,159.808l-.058-2.783-2.48-.153a7.557,7.557,0,0,0-1.029-2.508l1.611-1.988-2.009-1.927-1.861,1.643a7.526,7.526,0,0,0-2.5-1.043l-.267-2.546-2.785.06-.154,2.478a7.574,7.574,0,0,0-2.507,1.029l-1.989-1.611-1.927,2.009,1.644,1.862a7.528,7.528,0,0,0-1.044,2.5l-2.546.268.059,2.782,2.478.156a7.507,7.507,0,0,0,1.029,2.506l-1.612,1.989,2.01,1.927,1.861-1.643a7.506,7.506,0,0,0,2.5,1.042l.264,2.546,2.786-.058.154-2.479a7.554,7.554,0,0,0,2.506-1.03l1.989,1.612,1.927-2.009-1.644-1.862a7.594,7.594,0,0,0,1.045-2.5Zm-9.872,2.32a3.678,3.678,0,1,1,3.6-3.754,3.678,3.678,0,0,1-3.6,3.754" transform="translate(-164.75 -119.222)" fill="#f99b1c"/>
    <path id="Trazado_66740" data-name="Trazado 66740" d="M249.143,195.468l-1.187-1.187.62-.621.567.567,1.883-1.883.62.621Z" transform="translate(-199.068 -154.422)" fill="#fff"/>
    <path id="Trazado_66741" data-name="Trazado 66741" d="M45.126,241.127l-2.84-2.838,5.573-5.571,2.836,2.84Z" transform="translate(-33.949 -186.834)" fill="#0253a2"/>
    <path id="Trazado_66742" data-name="Trazado 66742" d="M78.989,144.331a13.214,13.214,0,1,0-3.867,9.336,13.1,13.1,0,0,0,3.867-9.336M65.813,154.788a10.434,10.434,0,1,1,7.37-3.056,10.389,10.389,0,0,1-7.37,3.056" transform="translate(-42.216 -105.276)" fill="#0063cb"/>
    <rect id="Rectángulo_26071" data-name="Rectángulo 26071" width="12.447" height="6.987" transform="translate(0.352 57.338) rotate(-45.001)" fill="#0063cb"/>
    <path id="Trazado_66743" data-name="Trazado 66743" d="M6.724,267.453l-4.941-4.941,6.951-6.95,4.94,4.942Z" transform="translate(-1.431 -205.174)" fill="#387bff"/>
    <line id="Línea_348" data-name="Línea 348" y1="3.704" x2="3.705" transform="translate(6.709 53.972)" fill="none" stroke="#fff" stroke-width="4.449"/>
    <path id="Trazado_66744" data-name="Trazado 66744" d="M3.813,298.4A3.813,3.813,0,0,1,0,294.591q.457-.457.915-.914,1.907,1.907,3.813,3.812-.456.458-.915.916" transform="translate(0 -235.775)" fill="#0063cb"/>
    <rect id="Rectángulo_26072" data-name="Rectángulo 26072" width="2.554" height="2.625" transform="translate(114.369 24.31)" fill="#0063cb"/>
    <rect id="Rectángulo_26073" data-name="Rectángulo 26073" width="2.552" height="5.87" transform="translate(119.476 21.064)" fill="#f99b1c"/>
    <rect id="Rectángulo_26074" data-name="Rectángulo 26074" width="2.554" height="10.799" transform="translate(124.58 16.135)" fill="#73a9ff"/>
    <rect id="Rectángulo_26075" data-name="Rectángulo 26075" width="2.552" height="7.958" transform="translate(129.688 18.976)" fill="#e9f6ff"/>
    <rect id="Rectángulo_26076" data-name="Rectángulo 26076" width="2.552" height="13.641" transform="translate(134.795 13.293)" fill="#f99b1c"/>
    <rect id="Rectángulo_26077" data-name="Rectángulo 26077" width="2.553" height="6.78" transform="translate(139.9 20.155)" fill="#0063cb"/>
    <rect id="Rectángulo_26078" data-name="Rectángulo 26078" width="2.553" height="20.188" transform="translate(145.007 6.747)" fill="#73a9ff"/>
    <rect id="Rectángulo_26079" data-name="Rectángulo 26079" width="2.553" height="6.083" transform="translate(150.114 20.851)" fill="#e9f6ff"/>
    <rect id="Rectángulo_26080" data-name="Rectángulo 26080" width="2.553" height="9.594" transform="translate(155.219 17.341)" fill="#f99b1c"/>
  </g>
</svg>
