<svg xmlns="http://www.w3.org/2000/svg" width="108" height="108" viewBox="0 0 108 108">
  <g id="Grupo_70455" data-name="Grupo 70455" transform="translate(-575.75 -8318.995)">
    <circle id="Elipse_3958" data-name="Elipse 3958" cx="54" cy="54" r="54" transform="translate(575.75 8318.995)" fill="#5e6178"/>
    <g id="Grupo_63433" data-name="Grupo 63433" transform="translate(549.121 8167.392)">
      <g id="Grupo_63430" data-name="Grupo 63430" transform="translate(65.393 187.775)">
        <path id="Trazado_100813" data-name="Trazado 100813" d="M68.01,195.453a5.062,5.062,0,1,1,5.062-5.062A5.068,5.068,0,0,1,68.01,195.453Zm0-8.347a3.285,3.285,0,1,0,3.284,3.286A3.289,3.289,0,0,0,68.01,187.105Z" transform="translate(-62.947 -185.328)" fill="#fff"/>
      </g>
      <g id="Grupo_63431" data-name="Grupo 63431" transform="translate(58.091 180.471)">
        <path id="Trazado_100814" data-name="Trazado 100814" d="M71.115,232.533H62.151a.888.888,0,0,1-.785-1.3l14.38-27.223a12.36,12.36,0,1,1,6.923-13.1l5.26-9.958a.886.886,0,0,1,.785-.474h8.964a.89.89,0,0,1,.786,1.3L84.906,207.441a12.731,12.731,0,1,1-7.068,13.377L71.9,232.058A.892.892,0,0,1,71.115,232.533Zm-7.489-1.777H70.58l7.346-13.905a.889.889,0,0,1,1.666.537,10.97,10.97,0,1,0,3.474-6.576.888.888,0,0,1-1.383-1.071l14.523-27.492H89.25l-6.656,12.6a.889.889,0,0,1-1.666-.537,10.39,10.39,0,0,0,.116-1.475,10.621,10.621,0,1,0-3.468,7.82.888.888,0,0,1,1.383,1.071Z" transform="translate(-58.091 -180.471)" fill="#fff"/>
      </g>
      <g id="Grupo_63432" data-name="Grupo 63432" transform="translate(85.235 213.71)">
        <path id="Trazado_100815" data-name="Trazado 100815" d="M81.337,212.969a5.2,5.2,0,1,1,5.2-5.2A5.2,5.2,0,0,1,81.337,212.969Zm0-8.617a3.42,3.42,0,1,0,3.42,3.42A3.423,3.423,0,0,0,81.337,204.352Z" transform="translate(-76.142 -202.575)" fill="#fff"/>
      </g>
    </g>
  </g>
</svg>
