<?xml version="1.0" encoding="utf-8"?>
<!-- Generator: Adobe Illustrator 25.3.1, SVG Export Plug-In . SVG Version: 6.00 Build 0)  -->
<svg version="1.1" id="Layer_1" xmlns="http://www.w3.org/2000/svg" xmlns:xlink="http://www.w3.org/1999/xlink" x="0px" y="0px"
	 viewBox="0 0 303.5 282" style="enable-background:new 0 0 303.5 282;" xml:space="preserve">
<style type="text/css">
	.st0{fill:#AED3F2;}
	.st1{fill:#87898D;}
	.st2{fill:#12263F;}
	.st3{fill:#5E6178;}
	.st4{fill:#707070;}
	.st5{fill:#FFFFFF;}
</style>
<g id="Grupo_70422" transform="translate(5367 9478.998)">
	<g id="Grupo_70418" transform="translate(-5523.884 -10236.01)">
		<path id="Trazado_108315" class="st0" d="M195.1,923.1c-13.9-68.7,30.5-135.7,99.3-149.6c8.3-1.7,16.7-2.5,25.1-2.5
			c52.1,0,98.9,31.8,118,80.3l-13.5,5.3c-22.8-57.7-88.1-86-145.8-63.2c-42.9,16.9-71.1,58.4-71.1,104.5c0,7.5,0.7,15,2.2,22.4
			L195.1,923.1z"/>
		<circle id="Elipse_4363" class="st0" cx="319.4" cy="898" r="99.7"/>
		<g id="Grupo_70355">
			<path id="Trazado_108316" class="st1" d="M319.4,1018.4c-51.1,0-96.7-32.3-113.7-80.6l1-0.4c21.9,62.2,90,94.9,152.2,73
				c57.9-20.4,90.9-81.4,76.3-141l1-0.3c15.8,64.7-23.7,129.9-88.4,145.7C338.6,1017.3,329,1018.4,319.4,1018.4z"/>
			<g id="Grupo_70353">
				<path id="Trazado_108317" class="st1" d="M429.9,871.2c-0.8-3.2,1.1-6.6,4.4-7.4c3.2-0.8,6.6,1.1,7.4,4.4
					c0.8,3.2-1.1,6.6-4.4,7.4C434.1,876.4,430.8,874.4,429.9,871.2C429.9,871.2,429.9,871.2,429.9,871.2z"/>
			</g>
			<g id="Grupo_70354">
				<path id="Trazado_108318" class="st1" d="M212.2,936c-1.1-3.2-4.5-4.9-7.7-3.8c-3.2,1.1-4.9,4.5-3.8,7.7
					c1.1,3.2,4.5,4.9,7.7,3.8S213.3,939.2,212.2,936C212.2,936,212.2,936,212.2,936z"/>
			</g>
		</g>
	</g>
	<path id="Trazado_108349" class="st2" d="M-5248.5-9367h-4.8l-1.1,3h-1.5l4.3-11.4h1.3l4.4,11.4h-1.5L-5248.5-9367z
		 M-5252.8-9368.2h3.9l-1.9-5.3L-5252.8-9368.2z M-5237.4-9368.1c0.1,1.1-0.3,2.2-0.9,3.1c-0.6,0.8-1.4,1.2-2.4,1.2
		c-1,0-1.9-0.4-2.5-1.1l-0.1,1h-1.3v-12h1.4v4.5c0.6-0.7,1.5-1.1,2.4-1.1c0.9,0,1.9,0.4,2.4,1.2c0.6,0.9,0.9,2.1,0.9,3.2
		L-5237.4-9368.1z M-5238.9-9368.3c0-0.8-0.2-1.6-0.6-2.3c-0.4-0.5-1-0.8-1.6-0.8c-0.9,0-1.7,0.5-2.1,1.3v3.7
		c0.4,0.8,1.2,1.4,2.1,1.3c0.6,0,1.2-0.3,1.6-0.8C-5239-9366.6-5238.8-9367.4-5238.9-9368.3z M-5230.7-9366.2c0-0.4-0.1-0.7-0.4-0.9
		c-0.5-0.3-1-0.5-1.5-0.6c-0.6-0.1-1.2-0.3-1.7-0.6c-0.4-0.2-0.7-0.4-1-0.8c-0.2-0.3-0.3-0.7-0.3-1.1c0-0.7,0.3-1.3,0.9-1.8
		c0.6-0.5,1.4-0.8,2.2-0.7c0.8,0,1.7,0.2,2.3,0.7c0.6,0.5,0.9,1.2,0.9,1.9h-1.5c0-0.4-0.2-0.8-0.5-1c-0.4-0.3-0.8-0.4-1.3-0.4
		c-0.4,0-0.9,0.1-1.2,0.3c-0.3,0.2-0.5,0.5-0.4,0.9c0,0.3,0.1,0.6,0.4,0.8c0.5,0.2,1,0.4,1.5,0.5c0.6,0.1,1.2,0.3,1.8,0.6
		c0.4,0.2,0.7,0.5,1,0.8c0.2,0.3,0.3,0.7,0.3,1.2c0,0.7-0.3,1.4-0.9,1.8c-0.7,0.5-1.5,0.7-2.4,0.7c-0.6,0-1.2-0.1-1.8-0.4
		c-0.5-0.2-0.9-0.6-1.2-1c-0.3-0.4-0.4-0.9-0.4-1.4h1.4c0,0.5,0.2,0.9,0.6,1.2c0.4,0.3,0.9,0.5,1.4,0.4c0.5,0,0.9-0.1,1.3-0.3
		C-5230.9-9365.5-5230.7-9365.9-5230.7-9366.2L-5230.7-9366.2z M-5225.4-9374.5v2h1.6v1.1h-1.6v5.2c0,0.3,0.1,0.5,0.2,0.8
		c0.2,0.2,0.5,0.3,0.7,0.3c0.2,0,0.5,0,0.7-0.1v1.2c-0.4,0.1-0.7,0.2-1.1,0.2c-0.6,0-1.1-0.2-1.5-0.6c-0.4-0.5-0.5-1.1-0.5-1.7v-5.2
		h-1.5v-1.1h1.5v-2H-5225.4z M-5218.6-9363.8c-1.1,0-2.1-0.4-2.8-1.1c-0.7-0.8-1.1-1.9-1.1-3v-0.3c0-0.8,0.2-1.5,0.5-2.2
		c0.3-0.6,0.8-1.2,1.3-1.5c0.6-0.4,1.2-0.6,1.9-0.6c1-0.1,1.9,0.3,2.6,1.1c0.7,0.9,1,2,0.9,3.1v0.6h-5.7c0,0.7,0.2,1.5,0.7,2
		c0.5,0.5,1.1,0.8,1.8,0.8c0.5,0,0.9-0.1,1.3-0.3c0.4-0.2,0.7-0.5,0.9-0.8l0.9,0.7C-5216.1-9364.4-5217.4-9363.8-5218.6-9363.8z
		 M-5218.8-9371.4c-0.6,0-1.1,0.2-1.5,0.6c-0.4,0.5-0.7,1.1-0.7,1.8h4.2v-0.1c0-0.6-0.2-1.2-0.6-1.7
		C-5217.8-9371.2-5218.3-9371.4-5218.8-9371.4L-5218.8-9371.4z M-5212.3-9372.5l0,1.1c0.6-0.8,1.5-1.2,2.5-1.2c1.8,0,2.7,1,2.7,3
		v5.6h-1.4v-5.6c0-0.5-0.1-1-0.4-1.4c-0.3-0.3-0.8-0.5-1.3-0.4c-0.4,0-0.9,0.1-1.2,0.4c-0.4,0.3-0.6,0.6-0.8,1v6h-1.4v-8.5H-5212.3z
		 M-5201.3-9363.8c-1.1,0-2.1-0.4-2.8-1.1c-0.7-0.8-1.1-1.9-1.1-3v-0.3c0-0.8,0.2-1.5,0.5-2.2c0.3-0.6,0.8-1.2,1.3-1.5
		c0.6-0.4,1.2-0.6,1.9-0.6c1-0.1,1.9,0.3,2.6,1.1c0.7,0.9,1,2,0.9,3.1v0.6h-5.7c0,0.7,0.2,1.5,0.7,2c0.5,0.5,1.1,0.8,1.8,0.8
		c0.5,0,0.9-0.1,1.3-0.3c0.4-0.2,0.7-0.5,0.9-0.8l0.9,0.7C-5198.8-9364.4-5200.1-9363.8-5201.3-9363.8z M-5201.5-9371.4
		c-0.6,0-1.1,0.2-1.5,0.6c-0.4,0.5-0.7,1.1-0.7,1.8h4.2v-0.1c0-0.6-0.2-1.2-0.6-1.7C-5200.4-9371.2-5201-9371.4-5201.5-9371.4z
		 M-5192.3-9371.2c-0.2,0-0.5-0.1-0.7-0.1c-0.8-0.1-1.6,0.4-1.9,1.2v6h-1.4v-8.5h1.4l0,1c0.4-0.7,1.2-1.2,2-1.1c0.2,0,0.4,0,0.6,0.1
		L-5192.3-9371.2z M-5186-9366.2c0-0.4-0.1-0.7-0.4-0.9c-0.5-0.3-1-0.5-1.5-0.6c-0.6-0.1-1.2-0.3-1.7-0.6c-0.4-0.2-0.7-0.4-1-0.8
		c-0.2-0.3-0.3-0.7-0.3-1.1c0-0.7,0.3-1.3,0.9-1.8c0.6-0.5,1.4-0.8,2.2-0.7c0.8,0,1.7,0.2,2.3,0.7c0.6,0.5,0.9,1.2,0.9,1.9h-1.5
		c0-0.4-0.2-0.8-0.5-1c-0.4-0.3-0.8-0.4-1.3-0.4c-0.4,0-0.9,0.1-1.2,0.3c-0.3,0.2-0.5,0.5-0.4,0.9c0,0.3,0.1,0.6,0.4,0.8
		c0.5,0.2,1,0.4,1.5,0.5c0.6,0.1,1.2,0.3,1.8,0.6c0.4,0.2,0.7,0.5,1,0.8c0.2,0.3,0.3,0.7,0.3,1.2c0,0.7-0.3,1.4-0.9,1.8
		c-0.7,0.5-1.5,0.7-2.4,0.7c-0.6,0-1.2-0.1-1.8-0.4c-0.5-0.2-0.9-0.6-1.2-1c-0.3-0.4-0.4-0.9-0.4-1.4h1.4c0,0.5,0.2,0.9,0.6,1.2
		c0.4,0.3,0.9,0.5,1.4,0.4c0.5,0,0.9-0.1,1.3-0.3C-5186.2-9365.5-5186-9365.9-5186-9366.2L-5186-9366.2z M-5179.2-9363.8
		c-1.1,0-2.1-0.4-2.8-1.1c-0.7-0.8-1.1-1.9-1.1-3v-0.3c0-0.8,0.2-1.5,0.5-2.2c0.3-0.6,0.8-1.2,1.3-1.5c0.6-0.4,1.2-0.6,1.9-0.6
		c1-0.1,1.9,0.3,2.6,1.1c0.7,0.9,1,2,0.9,3.1v0.6h-5.7c0,0.7,0.2,1.5,0.7,2c0.5,0.5,1.1,0.8,1.8,0.8c0.5,0,0.9-0.1,1.3-0.3
		c0.4-0.2,0.7-0.5,0.9-0.8l0.9,0.7C-5176.7-9364.4-5177.9-9363.8-5179.2-9363.8L-5179.2-9363.8z M-5179.4-9371.4
		c-0.6,0-1.1,0.2-1.5,0.6c-0.4,0.5-0.7,1.1-0.7,1.8h4.2v-0.1c0-0.6-0.2-1.2-0.6-1.7C-5178.3-9371.2-5178.8-9371.4-5179.4-9371.4
		L-5179.4-9371.4z M-5170.6-9368.3c-0.1-1.1,0.3-2.2,0.9-3.1c1.1-1.4,3.1-1.6,4.4-0.5c0.1,0.1,0.2,0.2,0.4,0.3v-4.4h1.4v12h-1.3
		l-0.1-0.9c-0.6,0.7-1.5,1.1-2.4,1.1c-0.9,0-1.8-0.4-2.4-1.2c-0.7-0.9-1-2-0.9-3.1V-9368.3z M-5169.2-9368.1c0,0.8,0.2,1.6,0.6,2.2
		c0.4,0.5,1,0.8,1.6,0.8c0.9,0,1.7-0.5,2-1.2v-3.9c-0.4-0.8-1.1-1.2-2-1.2c-0.7,0-1.3,0.3-1.7,0.8
		C-5169-9369.8-5169.2-9369-5169.2-9368.1L-5169.2-9368.1z M-5157.7-9363.8c-1.1,0-2.1-0.4-2.8-1.1c-0.7-0.8-1.1-1.9-1.1-3v-0.3
		c0-0.8,0.2-1.5,0.5-2.2c0.3-0.6,0.8-1.2,1.3-1.5c0.6-0.4,1.2-0.6,1.9-0.6c1-0.1,1.9,0.3,2.6,1.1c0.7,0.9,1,2,0.9,3.1v0.6h-5.7
		c0,0.7,0.2,1.5,0.7,2c0.5,0.5,1.1,0.8,1.8,0.8c0.5,0,0.9-0.1,1.3-0.3c0.4-0.2,0.7-0.5,0.9-0.8l0.9,0.7
		C-5155.2-9364.4-5156.5-9363.8-5157.7-9363.8L-5157.7-9363.8z M-5157.9-9371.4c-0.6,0-1.1,0.2-1.5,0.6c-0.4,0.5-0.7,1.1-0.7,1.8
		h4.2v-0.1c0-0.6-0.2-1.2-0.6-1.7C-5156.8-9371.2-5157.4-9371.4-5157.9-9371.4L-5157.9-9371.4z M-5261.5-9339.8
		c-1.1,0-2.1-0.4-2.8-1.1c-0.7-0.8-1.1-1.9-1.1-3v-0.3c0-0.8,0.2-1.5,0.5-2.2c0.3-0.6,0.8-1.2,1.3-1.5c0.6-0.4,1.2-0.6,1.9-0.6
		c1-0.1,1.9,0.3,2.6,1.1c0.7,0.9,1,2,0.9,3.1v0.6h-5.7c0,0.7,0.2,1.5,0.7,2c0.5,0.5,1.1,0.8,1.8,0.8c0.5,0,0.9-0.1,1.3-0.3
		c0.4-0.2,0.7-0.5,0.9-0.8l0.9,0.7C-5259-9340.4-5260.2-9339.8-5261.5-9339.8z M-5261.7-9347.4c-0.6,0-1.1,0.2-1.5,0.6
		c-0.4,0.5-0.7,1.1-0.7,1.8h4.2v-0.1c0-0.6-0.2-1.2-0.6-1.7C-5260.6-9347.2-5261.2-9347.4-5261.7-9347.4z M-5255.1-9348.5v9.4
		c0,1.6-0.7,2.4-2.2,2.4c-0.3,0-0.6,0-0.9-0.1v-1.2c0.2,0,0.4,0.1,0.7,0.1c0.3,0,0.5-0.1,0.7-0.3c0.2-0.3,0.3-0.6,0.3-0.9v-9.5
		H-5255.1z M-5256.7-9350.7c0-0.2,0.1-0.4,0.2-0.6c0.2-0.2,0.4-0.3,0.6-0.2c0.2,0,0.5,0.1,0.6,0.2c0.1,0.2,0.2,0.4,0.2,0.6
		c0,0.2-0.1,0.4-0.2,0.6c-0.2,0.2-0.4,0.3-0.6,0.2c-0.2,0-0.5-0.1-0.6-0.2C-5256.6-9350.3-5256.7-9350.5-5256.7-9350.7z
		 M-5249.2-9339.8c-1.1,0-2.1-0.4-2.8-1.1c-0.7-0.8-1.1-1.9-1.1-3v-0.3c0-0.8,0.2-1.5,0.5-2.2c0.3-0.6,0.8-1.2,1.3-1.5
		c0.6-0.4,1.2-0.6,1.9-0.6c1-0.1,1.9,0.3,2.6,1.1c0.7,0.9,1,2,0.9,3.1v0.6h-5.7c0,0.7,0.2,1.5,0.7,2c0.5,0.5,1.1,0.8,1.8,0.8
		c0.5,0,0.9-0.1,1.3-0.3c0.4-0.2,0.7-0.5,0.9-0.8l0.9,0.7C-5246.7-9340.4-5247.9-9339.8-5249.2-9339.8L-5249.2-9339.8z
		 M-5249.4-9347.4c-0.6,0-1.1,0.2-1.5,0.6c-0.4,0.5-0.7,1.1-0.7,1.8h4.2v-0.1c0-0.6-0.2-1.2-0.6-1.7
		C-5248.3-9347.2-5248.9-9347.4-5249.4-9347.4L-5249.4-9347.4z M-5240.9-9341c0.5,0,1-0.2,1.4-0.5c0.4-0.3,0.6-0.7,0.6-1.2h1.4
		c0,0.5-0.2,1-0.5,1.4c-0.3,0.4-0.7,0.8-1.2,1c-0.5,0.3-1.1,0.4-1.6,0.4c-1,0-2.1-0.4-2.7-1.2c-0.7-0.9-1.1-2-1-3.2v-0.2
		c0-0.8,0.1-1.5,0.5-2.2c0.3-0.6,0.7-1.1,1.3-1.5c0.6-0.4,1.3-0.5,2-0.5c0.9,0,1.7,0.3,2.4,0.9c0.6,0.6,1,1.4,1,2.2h-1.4
		c0-0.5-0.2-1-0.6-1.3c-0.4-0.4-0.9-0.5-1.4-0.5c-0.7,0-1.3,0.3-1.7,0.8c-0.4,0.7-0.7,1.5-0.6,2.3v0.3c-0.1,0.8,0.2,1.6,0.6,2.2
		C-5242.2-9341.3-5241.5-9341-5240.9-9341L-5240.9-9341z M-5230.7-9340.8c-0.6,0.7-1.5,1.1-2.5,1c-0.8,0.1-1.5-0.2-2.1-0.8
		c-0.5-0.7-0.8-1.5-0.7-2.3v-5.5h1.4v5.5c0,1.3,0.5,1.9,1.6,1.9c0.9,0.1,1.8-0.4,2.2-1.2v-6.1h1.4v8.5h-1.4L-5230.7-9340.8z
		 M-5225.1-9350.5v2h1.6v1.1h-1.6v5.2c0,0.3,0.1,0.5,0.2,0.8c0.2,0.2,0.5,0.3,0.7,0.3c0.2,0,0.5,0,0.7-0.1v1.2
		c-0.4,0.1-0.7,0.2-1.1,0.2c-0.6,0-1.1-0.2-1.5-0.6c-0.4-0.5-0.5-1.1-0.5-1.7v-5.2h-1.5v-1.1h1.5v-2H-5225.1z M-5216.6-9340
		c-0.1-0.3-0.2-0.6-0.2-0.9c-0.6,0.7-1.5,1.1-2.4,1c-0.7,0-1.5-0.2-2.1-0.7c-0.5-0.4-0.8-1.1-0.8-1.8c0-0.8,0.3-1.6,1-2.1
		c0.8-0.5,1.8-0.8,2.8-0.7h1.4v-0.7c0-0.4-0.1-0.9-0.5-1.2c-0.4-0.3-0.8-0.5-1.3-0.4c-0.5,0-0.9,0.1-1.3,0.4
		c-0.3,0.2-0.5,0.6-0.5,0.9h-1.5c0-0.4,0.2-0.9,0.4-1.2c0.3-0.4,0.7-0.7,1.2-0.9c0.5-0.2,1.1-0.4,1.7-0.3c0.8,0,1.6,0.2,2.3,0.7
		c0.6,0.5,0.9,1.2,0.9,2v3.9c0,0.6,0.1,1.3,0.3,1.9v0.1H-5216.6z M-5219-9341.1c0.5,0,0.9-0.1,1.3-0.4c0.4-0.2,0.7-0.5,0.9-0.9v-1.7
		h-1.1c-1.8,0-2.7,0.5-2.7,1.6c0,0.4,0.1,0.8,0.5,1.1C-5219.9-9341.2-5219.4-9341.1-5219-9341.1L-5219-9341.1z M-5209.1-9347.2
		c-0.2,0-0.5-0.1-0.7-0.1c-0.8-0.1-1.6,0.4-1.9,1.2v6h-1.4v-8.5h1.4l0,1c0.4-0.7,1.2-1.2,2-1.1c0.2,0,0.4,0,0.6,0.1L-5209.1-9347.2z
		 M-5198.5-9340c-0.1-0.3-0.2-0.6-0.2-0.9c-0.6,0.7-1.5,1.1-2.4,1c-0.7,0-1.5-0.2-2.1-0.7c-0.5-0.4-0.8-1.1-0.8-1.8
		c0-0.8,0.3-1.6,1-2.1c0.8-0.5,1.8-0.8,2.8-0.7h1.4v-0.7c0-0.4-0.1-0.9-0.5-1.2c-0.4-0.3-0.8-0.5-1.3-0.4c-0.5,0-0.9,0.1-1.3,0.4
		c-0.3,0.2-0.5,0.6-0.5,0.9h-1.5c0-0.4,0.2-0.9,0.4-1.2c0.3-0.4,0.7-0.7,1.2-0.9c0.5-0.2,1.1-0.4,1.7-0.3c0.8,0,1.6,0.2,2.3,0.7
		c0.6,0.5,0.9,1.2,0.9,2v3.9c0,0.6,0.1,1.3,0.3,1.9v0.1H-5198.5z M-5200.9-9341.1c0.5,0,0.9-0.1,1.3-0.4c0.4-0.2,0.7-0.5,0.9-0.9
		v-1.7h-1.1c-1.8,0-2.7,0.5-2.7,1.6c0,0.4,0.1,0.8,0.5,1.1C-5201.8-9341.2-5201.4-9341.1-5200.9-9341.1L-5200.9-9341.1z
		 M-5191.7-9341c0.5,0,1-0.2,1.4-0.5c0.4-0.3,0.6-0.7,0.6-1.2h1.4c0,0.5-0.2,1-0.5,1.4c-0.3,0.4-0.7,0.8-1.2,1
		c-0.5,0.3-1.1,0.4-1.6,0.4c-1,0-2-0.4-2.7-1.2c-0.7-0.9-1.1-2-1-3.2v-0.2c0-0.8,0.1-1.5,0.5-2.2c0.3-0.6,0.7-1.1,1.3-1.5
		c0.6-0.4,1.3-0.5,2-0.5c0.9,0,1.7,0.3,2.4,0.9c0.6,0.6,1,1.4,1,2.2h-1.4c0-0.5-0.2-1-0.6-1.3c-0.4-0.4-0.9-0.5-1.4-0.5
		c-0.7,0-1.3,0.3-1.7,0.8c-0.4,0.7-0.7,1.5-0.6,2.3v0.3c-0.1,0.8,0.2,1.6,0.6,2.2C-5193-9341.3-5192.3-9341-5191.7-9341
		L-5191.7-9341z M-5184.7-9350.5v2h1.6v1.1h-1.6v5.2c0,0.3,0.1,0.5,0.2,0.8c0.2,0.2,0.5,0.3,0.7,0.3c0.2,0,0.5,0,0.7-0.1v1.2
		c-0.4,0.1-0.7,0.2-1.1,0.2c-0.6,0-1.1-0.2-1.5-0.6c-0.4-0.5-0.5-1.1-0.5-1.7v-5.2h-1.5v-1.1h1.5v-2H-5184.7z M-5182-9344.3
		c0-0.8,0.2-1.5,0.5-2.2c0.3-0.6,0.8-1.2,1.4-1.5c0.6-0.4,1.3-0.6,2-0.5c1.1,0,2.1,0.4,2.8,1.2c0.7,0.9,1.1,2,1.1,3.2v0.1
		c0,0.8-0.1,1.5-0.5,2.2c-0.3,0.6-0.8,1.2-1.4,1.5c-0.6,0.4-1.3,0.6-2,0.5c-1.1,0-2.1-0.4-2.8-1.2
		C-5181.7-9341.9-5182.1-9343-5182-9344.3L-5182-9344.3z M-5180.5-9344.1c0,0.8,0.2,1.6,0.7,2.3c0.7,1,2.1,1.1,3.1,0.4
		c0.1-0.1,0.3-0.3,0.4-0.4c0.5-0.7,0.7-1.6,0.6-2.4c0-0.8-0.2-1.6-0.7-2.3c-0.4-0.6-1.1-0.9-1.8-0.9c-0.7,0-1.3,0.3-1.7,0.9
		C-5180.4-9345.8-5180.6-9345-5180.5-9344.1L-5180.5-9344.1z M-5167.6-9342.2c0-0.4-0.2-0.7-0.4-0.9c-0.5-0.3-1-0.5-1.5-0.6
		c-0.6-0.1-1.2-0.3-1.7-0.6c-0.4-0.2-0.7-0.4-1-0.8c-0.2-0.3-0.3-0.7-0.3-1.1c0-0.7,0.3-1.3,0.9-1.8c0.6-0.5,1.4-0.8,2.2-0.7
		c0.8,0,1.7,0.2,2.3,0.7c0.6,0.5,0.9,1.2,0.9,1.9h-1.5c0-0.4-0.2-0.8-0.5-1c-0.4-0.3-0.8-0.4-1.3-0.4c-0.4,0-0.9,0.1-1.2,0.3
		c-0.3,0.2-0.5,0.5-0.4,0.9c0,0.3,0.1,0.6,0.4,0.8c0.5,0.2,1,0.4,1.5,0.5c0.6,0.1,1.2,0.3,1.8,0.6c0.4,0.2,0.7,0.5,1,0.8
		c0.2,0.3,0.3,0.7,0.3,1.2c0,0.7-0.3,1.4-0.9,1.8c-0.7,0.5-1.5,0.7-2.4,0.7c-0.6,0-1.2-0.1-1.8-0.4c-0.5-0.2-0.9-0.6-1.2-1
		c-0.3-0.4-0.4-0.9-0.4-1.4h1.4c0,0.5,0.2,0.9,0.6,1.2c0.4,0.3,0.9,0.5,1.4,0.4c0.5,0,0.9-0.1,1.3-0.3
		C-5167.7-9341.5-5167.6-9341.9-5167.6-9342.2L-5167.6-9342.2z M-5160.6-9344.3c-0.1-1.1,0.3-2.2,0.9-3.1c1.1-1.4,3.1-1.6,4.4-0.5
		c0.1,0.1,0.2,0.2,0.4,0.3v-4.4h1.4v12h-1.3l-0.1-0.9c-0.6,0.7-1.5,1.1-2.4,1.1c-0.9,0-1.8-0.4-2.4-1.2c-0.7-0.9-1-2-0.9-3.1
		L-5160.6-9344.3z M-5159.2-9344.1c0,0.8,0.2,1.6,0.6,2.2c0.4,0.5,1,0.8,1.6,0.8c0.9,0,1.7-0.5,2-1.2v-3.9c-0.4-0.8-1.1-1.2-2-1.2
		c-0.7,0-1.3,0.3-1.7,0.8C-5159-9345.8-5159.2-9345-5159.2-9344.1L-5159.2-9344.1z M-5147.7-9339.8c-1.1,0-2.1-0.4-2.8-1.1
		c-0.7-0.8-1.1-1.9-1.1-3v-0.3c0-0.8,0.2-1.5,0.5-2.2c0.3-0.6,0.8-1.2,1.3-1.5c0.6-0.4,1.2-0.6,1.9-0.6c1-0.1,1.9,0.3,2.6,1.1
		c0.7,0.9,1,2,0.9,3.1v0.6h-5.7c0,0.7,0.2,1.5,0.7,2c0.5,0.5,1.1,0.8,1.8,0.8c0.5,0,0.9-0.1,1.3-0.3c0.4-0.2,0.7-0.5,0.9-0.8
		l0.9,0.7C-5145.3-9340.4-5146.5-9339.8-5147.7-9339.8L-5147.7-9339.8z M-5147.9-9347.4c-0.6,0-1.1,0.2-1.5,0.6
		c-0.4,0.5-0.7,1.1-0.7,1.8h4.2v-0.1c0-0.6-0.2-1.2-0.6-1.7C-5146.9-9347.2-5147.4-9347.4-5147.9-9347.4L-5147.9-9347.4z
		 M-5276.2-9317c0.5,0,1-0.2,1.4-0.5c0.4-0.3,0.6-0.7,0.6-1.2h1.4c0,0.5-0.2,1-0.5,1.4c-0.3,0.4-0.7,0.8-1.2,1
		c-0.5,0.3-1.1,0.4-1.6,0.4c-1,0-2.1-0.4-2.7-1.2c-0.7-0.9-1.1-2-1-3.2v-0.2c0-0.8,0.1-1.5,0.5-2.2c0.3-0.6,0.7-1.1,1.3-1.5
		c0.6-0.4,1.3-0.5,2-0.5c0.9,0,1.7,0.3,2.4,0.9c0.6,0.6,1,1.4,1,2.2h-1.4c0-0.5-0.2-1-0.6-1.3c-0.4-0.4-0.9-0.5-1.4-0.5
		c-0.7,0-1.3,0.3-1.7,0.8c-0.4,0.7-0.7,1.5-0.6,2.3v0.3c-0.1,0.8,0.2,1.6,0.6,2.2C-5277.5-9317.3-5276.9-9317-5276.2-9317z
		 M-5271.6-9320.3c0-0.8,0.2-1.5,0.5-2.2c0.3-0.6,0.8-1.2,1.4-1.5c0.6-0.4,1.3-0.6,2-0.5c1.1,0,2.1,0.4,2.8,1.2
		c0.7,0.9,1.1,2,1.1,3.2v0.1c0,0.8-0.1,1.5-0.5,2.2c-0.3,0.6-0.8,1.2-1.4,1.5c-0.6,0.4-1.3,0.6-2,0.5c-1.1,0-2.1-0.4-2.8-1.2
		c-0.7-0.9-1.1-2-1.1-3.2L-5271.6-9320.3z M-5270.1-9320.1c0,0.8,0.2,1.6,0.7,2.3c0.7,1,2.1,1.1,3.1,0.4c0.1-0.1,0.3-0.2,0.4-0.4
		c0.5-0.7,0.7-1.6,0.6-2.4c0-0.8-0.2-1.6-0.7-2.3c-0.4-0.6-1.1-0.9-1.8-0.9c-0.7,0-1.3,0.3-1.7,0.9
		C-5270-9321.8-5270.2-9321-5270.1-9320.1L-5270.1-9320.1z M-5260.7-9324.5l0,0.9c0.6-0.7,1.5-1.1,2.5-1.1c1-0.1,2,0.4,2.4,1.4
		c0.3-0.4,0.7-0.7,1.1-1c0.5-0.3,1-0.4,1.6-0.4c1.9,0,2.8,1,2.8,2.9v5.7h-1.4v-5.6c0-0.5-0.1-1-0.4-1.4c-0.4-0.3-0.9-0.5-1.4-0.4
		c-0.5,0-1,0.2-1.3,0.5c-0.4,0.3-0.6,0.8-0.6,1.3v5.6h-1.5v-5.5c0.1-0.9-0.5-1.7-1.4-1.8c-0.1,0-0.3,0-0.4,0
		c-0.8-0.1-1.6,0.4-1.9,1.2v6.2h-1.5v-8.5L-5260.7-9324.5z M-5240.9-9320.1c0.1,1.1-0.3,2.2-0.9,3.1c-0.6,0.8-1.4,1.2-2.4,1.2
		c-0.9,0-1.8-0.3-2.4-1v4.1h-1.4v-11.7h1.3l0.1,0.9c0.6-0.7,1.5-1.1,2.5-1.1c0.9,0,1.8,0.4,2.4,1.1c0.6,0.9,1,2.1,0.9,3.2
		L-5240.9-9320.1z M-5242.4-9320.3c0-0.8-0.2-1.6-0.6-2.3c-0.4-0.5-1-0.9-1.7-0.8c-0.8,0-1.6,0.4-2,1.2v4c0.4,0.7,1.2,1.2,2,1.2
		c0.7,0,1.3-0.3,1.7-0.8C-5242.5-9318.6-5242.3-9319.4-5242.4-9320.3z M-5235.6-9315.8c-1.1,0-2.1-0.4-2.8-1.1
		c-0.7-0.8-1.1-1.9-1.1-3v-0.3c0-0.8,0.2-1.5,0.5-2.2c0.3-0.6,0.8-1.2,1.3-1.5c0.6-0.4,1.2-0.6,1.9-0.6c1-0.1,1.9,0.3,2.6,1.1
		c0.7,0.9,1,2,0.9,3.1v0.6h-5.7c0,0.7,0.2,1.5,0.7,2c0.5,0.5,1.1,0.8,1.8,0.8c0.5,0,0.9-0.1,1.3-0.3c0.4-0.2,0.7-0.5,0.9-0.8
		l0.9,0.7C-5233.1-9316.4-5234.3-9315.8-5235.6-9315.8L-5235.6-9315.8z M-5235.7-9323.4c-0.6,0-1.1,0.2-1.5,0.6
		c-0.4,0.5-0.7,1.1-0.7,1.8h4.2v-0.1c0-0.6-0.2-1.2-0.6-1.7C-5234.7-9323.2-5235.2-9323.4-5235.7-9323.4L-5235.7-9323.4z
		 M-5228.6-9326.5v2h1.6v1.1h-1.6v5.2c0,0.3,0.1,0.5,0.2,0.8c0.2,0.2,0.5,0.3,0.7,0.3c0.2,0,0.5,0,0.7-0.1v1.2
		c-0.4,0.1-0.7,0.2-1.1,0.2c-0.6,0-1.1-0.2-1.5-0.6c-0.4-0.5-0.5-1.1-0.5-1.7v-5.2h-1.5v-1.1h1.5v-2H-5228.6z M-5221.9-9315.8
		c-1.1,0-2.1-0.4-2.8-1.1c-0.7-0.8-1.1-1.9-1.1-3v-0.3c0-0.8,0.2-1.5,0.5-2.2c0.3-0.6,0.8-1.2,1.3-1.5c0.6-0.4,1.2-0.6,1.9-0.6
		c1-0.1,1.9,0.3,2.6,1.1c0.7,0.9,1,2,0.9,3.1v0.6h-5.7c0,0.7,0.2,1.5,0.7,2c0.5,0.5,1.1,0.8,1.8,0.8c0.5,0,0.9-0.1,1.3-0.3
		c0.4-0.2,0.7-0.5,0.9-0.8l0.9,0.7C-5219.4-9316.4-5220.6-9315.8-5221.9-9315.8L-5221.9-9315.8z M-5222-9323.4
		c-0.6,0-1.1,0.2-1.5,0.6c-0.4,0.5-0.7,1.1-0.7,1.8h4.2v-0.1c0-0.6-0.2-1.2-0.6-1.7C-5221-9323.2-5221.5-9323.4-5222-9323.4
		L-5222-9323.4z M-5215.5-9324.5l0,1.1c0.6-0.8,1.5-1.2,2.5-1.2c1.8,0,2.7,1,2.7,3v5.6h-1.4v-5.6c0-0.5-0.1-1-0.4-1.4
		c-0.3-0.3-0.8-0.5-1.3-0.4c-0.4,0-0.9,0.1-1.2,0.4c-0.4,0.3-0.6,0.6-0.8,1v6h-1.4v-8.5H-5215.5z M-5204.7-9317c0.5,0,1-0.2,1.4-0.5
		c0.4-0.3,0.6-0.7,0.6-1.2h1.4c0,0.5-0.2,1-0.5,1.4c-0.3,0.4-0.7,0.8-1.2,1c-0.5,0.3-1.1,0.4-1.6,0.4c-1,0-2.1-0.4-2.7-1.2
		c-0.7-0.9-1.1-2-1-3.2v-0.2c0-0.8,0.1-1.5,0.5-2.2c0.3-0.6,0.7-1.1,1.3-1.5c0.6-0.4,1.3-0.5,2-0.5c0.9,0,1.7,0.3,2.4,0.9
		c0.6,0.6,1,1.4,1,2.2h-1.4c0-0.5-0.2-1-0.6-1.3c-0.4-0.4-0.9-0.5-1.4-0.5c-0.7,0-1.3,0.3-1.7,0.8c-0.4,0.7-0.7,1.5-0.6,2.3v0.3
		c-0.1,0.8,0.2,1.6,0.6,2.2C-5206-9317.3-5205.3-9317-5204.7-9317z M-5198.1-9316h-1.4v-8.5h1.4V-9316z M-5199.7-9326.7
		c0-0.2,0.1-0.4,0.2-0.6c0.2-0.2,0.4-0.3,0.6-0.2c0.2,0,0.5,0.1,0.6,0.2c0.1,0.2,0.2,0.4,0.2,0.6c0,0.2-0.1,0.4-0.2,0.6
		c-0.2,0.2-0.4,0.3-0.6,0.2c-0.2,0-0.5-0.1-0.6-0.2C-5199.6-9326.3-5199.7-9326.5-5199.7-9326.7z M-5190.6-9316
		c-0.1-0.3-0.2-0.6-0.2-0.9c-0.6,0.7-1.5,1.1-2.4,1c-0.7,0-1.5-0.2-2.1-0.7c-0.5-0.4-0.8-1.1-0.8-1.8c0-0.8,0.3-1.6,1-2.1
		c0.8-0.5,1.8-0.8,2.8-0.7h1.4v-0.7c0-0.4-0.1-0.9-0.4-1.2c-0.4-0.3-0.8-0.5-1.3-0.4c-0.5,0-0.9,0.1-1.3,0.4
		c-0.3,0.2-0.5,0.6-0.5,0.9h-1.4c0-0.4,0.2-0.9,0.4-1.2c0.3-0.4,0.7-0.7,1.2-0.9c0.5-0.2,1.1-0.4,1.7-0.3c0.8,0,1.6,0.2,2.3,0.7
		c0.6,0.5,0.9,1.2,0.9,2v3.9c0,0.6,0.1,1.3,0.3,1.9v0.1H-5190.6z M-5193-9317.1c0.5,0,0.9-0.1,1.3-0.4c0.4-0.2,0.7-0.5,0.9-0.9v-1.7
		h-1.1c-1.8,0-2.7,0.5-2.7,1.6c0,0.4,0.1,0.8,0.5,1.1C-5193.8-9317.2-5193.4-9317.1-5193-9317.1L-5193-9317.1z M-5183.5-9320.3
		c-0.1-1.1,0.3-2.2,0.9-3.1c1.1-1.4,3.1-1.6,4.4-0.5c0.1,0.1,0.2,0.2,0.4,0.3v-4.4h1.4v12h-1.3l-0.1-0.9c-0.6,0.7-1.5,1.1-2.4,1.1
		c-0.9,0-1.8-0.4-2.4-1.2c-0.7-0.9-1-2-0.9-3.1V-9320.3z M-5182.1-9320.1c0,0.8,0.2,1.6,0.6,2.2c0.4,0.5,1,0.8,1.6,0.8
		c0.9,0,1.7-0.5,2-1.2v-3.9c-0.4-0.8-1.1-1.2-2-1.2c-0.7,0-1.3,0.3-1.7,0.8C-5181.9-9321.8-5182.1-9321-5182.1-9320.1
		L-5182.1-9320.1z M-5170.6-9315.8c-1.1,0-2.1-0.4-2.8-1.1c-0.7-0.8-1.1-1.9-1.1-3v-0.3c0-0.8,0.2-1.5,0.5-2.2
		c0.3-0.6,0.8-1.2,1.3-1.5c0.6-0.4,1.2-0.6,1.9-0.6c1-0.1,1.9,0.3,2.6,1.1c0.7,0.9,1,2,0.9,3.1v0.6h-5.7c0,0.7,0.2,1.5,0.7,2
		c0.5,0.5,1.1,0.8,1.8,0.8c0.5,0,0.9-0.1,1.3-0.3c0.4-0.2,0.7-0.5,0.9-0.8l0.9,0.7C-5168.1-9316.4-5169.3-9315.8-5170.6-9315.8
		L-5170.6-9315.8z M-5170.8-9323.4c-0.6,0-1.1,0.2-1.5,0.6c-0.4,0.5-0.7,1.1-0.7,1.8h4.2v-0.1c0-0.6-0.2-1.2-0.6-1.7
		C-5169.7-9323.2-5170.2-9323.4-5170.8-9323.4L-5170.8-9323.4z M-5160.7-9318.2c0-0.4-0.1-0.7-0.4-0.9c-0.5-0.3-1-0.5-1.5-0.6
		c-0.6-0.1-1.2-0.3-1.7-0.6c-0.4-0.2-0.7-0.4-1-0.8c-0.2-0.3-0.3-0.7-0.3-1.1c0-0.7,0.3-1.3,0.9-1.8c0.6-0.5,1.4-0.8,2.2-0.7
		c0.8,0,1.7,0.2,2.3,0.7c0.6,0.5,0.9,1.2,0.9,1.9h-1.5c0-0.4-0.2-0.8-0.5-1c-0.4-0.3-0.8-0.4-1.3-0.4c-0.4,0-0.9,0.1-1.2,0.3
		c-0.3,0.2-0.5,0.5-0.4,0.9c0,0.3,0.1,0.6,0.4,0.8c0.5,0.2,1,0.4,1.5,0.5c0.6,0.1,1.2,0.3,1.8,0.6c0.4,0.2,0.7,0.5,1,0.8
		c0.2,0.3,0.3,0.7,0.3,1.2c0,0.7-0.3,1.4-0.9,1.8c-0.7,0.5-1.5,0.7-2.4,0.7c-0.6,0-1.2-0.1-1.8-0.4c-0.5-0.2-0.9-0.6-1.2-1
		c-0.3-0.4-0.4-0.9-0.5-1.4h1.4c0,0.5,0.2,0.9,0.6,1.2c0.4,0.3,0.9,0.5,1.4,0.4c0.5,0,0.9-0.1,1.3-0.3
		C-5160.9-9317.5-5160.7-9317.9-5160.7-9318.2L-5160.7-9318.2z M-5155.8-9316h-1.4v-12h1.4L-5155.8-9316z M-5150-9315.8
		c-1.1,0-2.1-0.4-2.8-1.1c-0.7-0.8-1.1-1.9-1.1-3v-0.3c0-0.8,0.2-1.5,0.5-2.2c0.3-0.6,0.8-1.2,1.3-1.5c0.6-0.4,1.2-0.6,1.9-0.6
		c1-0.1,1.9,0.3,2.6,1.1c0.7,0.9,1,2,0.9,3.1v0.6h-5.7c0,0.7,0.2,1.5,0.7,2c0.5,0.5,1.1,0.8,1.8,0.8c0.5,0,0.9-0.1,1.3-0.3
		c0.4-0.2,0.7-0.5,0.9-0.8l0.9,0.7C-5147.5-9316.4-5148.7-9315.8-5150-9315.8L-5150-9315.8z M-5150.2-9323.4c-0.6,0-1.1,0.2-1.5,0.6
		c-0.4,0.5-0.7,1.1-0.7,1.8h4.2v-0.1c0-0.6-0.2-1.2-0.6-1.7C-5149.1-9323.2-5149.6-9323.4-5150.2-9323.4L-5150.2-9323.4z
		 M-5139.8-9316c-0.1-0.3-0.2-0.6-0.2-0.9c-0.6,0.7-1.5,1.1-2.4,1c-0.7,0-1.5-0.2-2.1-0.7c-0.5-0.4-0.8-1.1-0.8-1.8
		c0-0.8,0.3-1.6,1-2.1c0.8-0.5,1.8-0.8,2.8-0.7h1.4v-0.7c0-0.4-0.1-0.9-0.5-1.2c-0.4-0.3-0.8-0.5-1.3-0.4c-0.5,0-0.9,0.1-1.3,0.4
		c-0.3,0.2-0.5,0.6-0.5,0.9h-1.5c0-0.4,0.2-0.9,0.4-1.2c0.3-0.4,0.7-0.7,1.2-0.9c0.5-0.2,1.1-0.4,1.7-0.3c0.8,0,1.6,0.2,2.3,0.7
		c0.6,0.5,0.9,1.2,0.9,2v3.9c0,0.6,0.1,1.3,0.3,1.9v0.1H-5139.8z M-5142.2-9317.1c0.5,0,0.9-0.1,1.3-0.4c0.4-0.2,0.7-0.5,0.9-0.9
		v-1.7h-1.1c-1.8,0-2.7,0.5-2.7,1.6c0,0.4,0.1,0.8,0.5,1.1C-5143.1-9317.2-5142.6-9317.1-5142.2-9317.1L-5142.2-9317.1z
		 M-5134.8-9316h-1.4v-12h1.4V-9316z"/>
	<g id="Trazado_108350" transform="translate(-5367 -9383.998)">
		<path class="st3" d="M37,73.5c-4.9,0-9.7-1-14.2-2.9c-4.3-1.8-8.2-4.5-11.6-7.8c-3.4-3.4-6-7.3-7.8-11.6C1.5,46.7,0.5,41.9,0.5,37
			s1-9.7,2.9-14.2c1.8-4.3,4.5-8.2,7.8-11.6c3.4-3.4,7.3-6,11.6-7.8c4.5-1.9,9.3-2.9,14.2-2.9s9.7,1,14.2,2.9
			c4.3,1.8,8.2,4.5,11.6,7.8c3.4,3.4,6,7.3,7.8,11.6c1.9,4.5,2.9,9.3,2.9,14.2s-1,9.7-2.9,14.2c-1.8,4.3-4.5,8.2-7.8,11.6
			c-3.4,3.4-7.3,6-11.6,7.8C46.7,72.5,41.9,73.5,37,73.5z"/>
		<path class="st4" d="M37,1c-4.9,0-9.6,1-14,2.8c-4.3,1.8-8.1,4.4-11.4,7.7C8.2,14.9,5.6,18.7,3.8,23C2,27.4,1,32.1,1,37
			s1,9.6,2.8,14c1.8,4.3,4.4,8.1,7.7,11.4c3.3,3.3,7.2,5.9,11.4,7.7C27.4,72,32.1,73,37,73s9.6-1,14-2.8c4.3-1.8,8.1-4.4,11.4-7.7
			c3.3-3.3,5.9-7.2,7.7-11.4C72,46.6,73,41.9,73,37s-1-9.6-2.8-14c-1.8-4.3-4.4-8.1-7.7-11.4C59.1,8.2,55.3,5.6,51,3.8
			C46.6,2,41.9,1,37,1 M37,0c20.4,0,37,16.6,37,37S57.4,74,37,74S0,57.4,0,37S16.6,0,37,0z"/>
	</g>
	<path id="Trazado_108351" class="st5" d="M-5327.5-9356.6v3.9h-0.2c-1.6-0.1-3.2,0.4-4.5,1.3c-1.2,0.9-2,2.2-2.2,3.7
		c1.1-1.1,2.6-1.7,4.2-1.6c1.7-0.1,3.3,0.7,4.4,2c1.1,1.5,1.7,3.4,1.6,5.3c0,1.3-0.3,2.6-1,3.7c-0.6,1.1-1.6,2-2.7,2.7
		c-1.2,0.6-2.5,1-3.8,1c-1.4,0-2.8-0.3-4.1-1c-1.2-0.7-2.2-1.7-2.8-3c-0.7-1.4-1-2.9-1-4.4v-2c0-2.1,0.5-4.1,1.4-5.9
		c0.9-1.7,2.3-3.2,4-4.1c1.8-1,3.8-1.5,5.8-1.5H-5327.5z M-5331.9-9345.6c-0.6,0-1.2,0.1-1.6,0.5c-0.4,0.3-0.8,0.7-1,1.1v1.5
		c0,2.7,0.9,4,2.8,4c0.8,0,1.5-0.4,1.9-1c0.5-0.7,0.8-1.6,0.8-2.5c0-0.9-0.2-1.8-0.8-2.5
		C-5330.3-9345.2-5331.1-9345.6-5331.9-9345.6z"/>
</g>
</svg>
