<svg xmlns="http://www.w3.org/2000/svg" width="150.999" height="128" viewBox="0 0 150.999 128">
  <g id="Grupo_70502" data-name="Grupo 70502" transform="translate(-855 -9221.316)">
    <g id="Unión_1" data-name="Unión 1" transform="translate(-9929 -2501.096)" fill="none">
      <path d="M10808.572,11800.567l-24.572-14.156,24.572-14.156a64,64,0,1,1,0,28.313Z" stroke="none"/>
      <path d="M 10871 11848.412109375 C 10879.37109375 11848.412109375 10887.490234375 11846.7734375 10895.1328125 11843.541015625 C 10898.8056640625 11841.9873046875 10902.3486328125 11840.0634765625 10905.6630859375 11837.82421875 C 10908.9462890625 11835.6064453125 10912.0341796875 11833.05859375 10914.83984375 11830.2529296875 C 10917.646484375 11827.4462890625 10920.193359375 11824.3583984375 10922.412109375 11821.0751953125 C 10924.6513671875 11817.7607421875 10926.57421875 11814.2177734375 10928.1279296875 11810.5439453125 C 10931.3603515625 11802.9013671875 10932.9990234375 11794.7822265625 10932.9990234375 11786.4111328125 C 10932.9990234375 11778.041015625 10931.3603515625 11769.921875 10928.1279296875 11762.279296875 C 10926.57421875 11758.6064453125 10924.6513671875 11755.0634765625 10922.412109375 11751.7490234375 C 10920.193359375 11748.4658203125 10917.646484375 11745.3779296875 10914.83984375 11742.572265625 C 10912.0341796875 11739.765625 10908.9462890625 11737.2177734375 10905.6630859375 11735 C 10902.3486328125 11732.7607421875 10898.8056640625 11730.837890625 10895.1328125 11729.2841796875 C 10887.490234375 11726.05078125 10879.37109375 11724.412109375 10871 11724.412109375 C 10863.7763671875 11724.412109375 10856.701171875 11725.642578125 10849.970703125 11728.0693359375 C 10843.4658203125 11730.4140625 10837.4296875 11733.8193359375 10832.0302734375 11738.1884765625 C 10826.6767578125 11742.5205078125 10822.1083984375 11747.669921875 10818.4521484375 11753.4931640625 C 10814.728515625 11759.423828125 10812.0615234375 11765.884765625 10810.5234375 11772.6953125 L 10810.330078125 11773.55078125 L 10809.5703125 11773.98828125 L 10788.0068359375 11786.4111328125 L 10810.330078125 11799.271484375 L 10810.5234375 11800.126953125 C 10812.0615234375 11806.9384765625 10814.7294921875 11813.3994140625 10818.4521484375 11819.330078125 C 10822.1083984375 11825.154296875 10826.6767578125 11830.3037109375 10832.0302734375 11834.6357421875 C 10837.4296875 11839.005859375 10843.4658203125 11842.41015625 10849.970703125 11844.7548828125 C 10856.701171875 11847.181640625 10863.7763671875 11848.412109375 10871 11848.412109375 M 10871 11850.412109375 C 10840.5185546875 11850.412109375 10815.015625 11829.1025390625 10808.572265625 11800.5673828125 L 10784 11786.4111328125 L 10808.572265625 11772.2548828125 C 10815.015625 11743.72265625 10840.5185546875 11722.412109375 10871 11722.412109375 C 10906.3466796875 11722.412109375 10934.9990234375 11751.0673828125 10934.9990234375 11786.4111328125 C 10934.9990234375 11821.7578125 10906.3466796875 11850.412109375 10871 11850.412109375 Z" stroke="none" fill="#d8a175"/>
    </g>
    <g id="Grupo_58916" data-name="Grupo 58916" transform="translate(570.344 -1071.482)">
      <path id="Trazado_65777" data-name="Trazado 65777" d="M58.175,53.515H37.45a.864.864,0,0,1-.864-.864,8.646,8.646,0,0,1,8.636-8.636H50.4a8.645,8.645,0,0,1,8.636,8.636.863.863,0,0,1-.864.864M38.367,51.788H57.258A6.92,6.92,0,0,0,50.4,45.743H45.222a6.919,6.919,0,0,0-6.854,6.045" transform="translate(341.548 10331.284)" fill="#20201d"/>
      <path id="Trazado_65778" data-name="Trazado 65778" d="M46.831,45.233c-3.616,0-6.045-2.776-6.045-6.908s2.429-6.908,6.045-6.908,6.045,2.777,6.045,6.908-2.429,6.908-6.045,6.908m0-12.09c-3.187,0-4.318,2.792-4.318,5.181s1.131,5.181,4.318,5.181,4.318-2.792,4.318-5.181-1.131-5.181-4.318-5.181" transform="translate(342.53 10328.341)" fill="#20201d"/>
      <path id="Trazado_65779" data-name="Trazado 65779" d="M41.353,53.515H20.628a.863.863,0,0,1-.864-.864A8.646,8.646,0,0,1,28.4,44.016h5.181a8.645,8.645,0,0,1,8.636,8.636.863.863,0,0,1-.864.864M21.545,51.788H40.436a6.92,6.92,0,0,0-6.855-6.045H28.4a6.919,6.919,0,0,0-6.854,6.045" transform="translate(337.618 10331.284)" fill="#20201d"/>
      <path id="Trazado_65780" data-name="Trazado 65780" d="M30.009,45.233c-3.616,0-6.045-2.776-6.045-6.908s2.429-6.908,6.045-6.908,6.045,2.777,6.045,6.908-2.429,6.908-6.045,6.908m0-12.09c-3.187,0-4.318,2.792-4.318,5.181s1.131,5.181,4.318,5.181,4.318-2.792,4.318-5.181-1.131-5.181-4.318-5.181" transform="translate(338.599 10328.341)" fill="#20201d"/>
      <path id="Trazado_65781" data-name="Trazado 65781" d="M24.553,53.505H3.828a.863.863,0,0,1-.864-.864A8.645,8.645,0,0,1,11.6,44.006h5.181a8.645,8.645,0,0,1,8.636,8.636.863.863,0,0,1-.864.864M4.745,51.778H23.636a6.921,6.921,0,0,0-6.855-6.045H11.6a6.919,6.919,0,0,0-6.854,6.045" transform="translate(333.693 10331.282)" fill="#20201d"/>
      <path id="Trazado_65782" data-name="Trazado 65782" d="M13.209,45.223c-3.616,0-6.045-2.777-6.045-6.908s2.429-6.908,6.045-6.908,6.045,2.776,6.045,6.908-2.43,6.908-6.045,6.908m0-12.09c-3.187,0-4.318,2.792-4.318,5.181S10.022,43.5,13.209,43.5s4.318-2.792,4.318-5.181-1.131-5.181-4.318-5.181" transform="translate(334.674 10328.338)" fill="#20201d"/>
      <path id="Trazado_65783" data-name="Trazado 65783" d="M47.61,26.134H16.522a.863.863,0,1,1,0-1.726H47.61a.863.863,0,1,1,0,1.726" transform="translate(336.659 10326.703)" fill="#f9a44a"/>
      <path id="Trazado_65784" data-name="Trazado 65784" d="M42.474,48.587a.863.863,0,0,1-.864-.864V26.134H20.885V47.723a.864.864,0,0,1-1.727,0V25.271a.863.863,0,0,1,.864-.864H42.474a.863.863,0,0,1,.864.864V47.723a.863.863,0,0,1-.864.864" transform="translate(337.476 10326.703)" fill="#f9a44a"/>
      <path id="Trazado_65785" data-name="Trazado 65785" d="M29.122,27.607a.863.863,0,0,1-.864-.864V24.031a2.222,2.222,0,0,1,2.221-2.221h5.355L35,19.221a.864.864,0,0,1,1.643-.532l1.2,3.719a.863.863,0,0,1-.822,1.129H30.479a.493.493,0,0,0-.493.493v2.713a.863.863,0,0,1-.864.864" transform="translate(339.603 10325.228)" fill="#20201d"/>
      <path id="Trazado_65786" data-name="Trazado 65786" d="M30.577,27.6a.863.863,0,0,1-.864-.864V24.024a.493.493,0,0,0-.492-.493H22.893a.863.863,0,0,1-.83-1.1l1.054-3.686a.863.863,0,0,1,1.66.474L24.039,21.8h5.183a2.222,2.222,0,0,1,2.219,2.221v2.713a.863.863,0,0,1-.864.864" transform="translate(338.147 10325.233)" fill="#20201d"/>
      <path id="Trazado_65787" data-name="Trazado 65787" d="M30.03,12.87c-3.3,0-5.6-2.629-5.6-6.393S26.73.084,30.03.084s5.6,2.629,5.6,6.393-2.3,6.393-5.6,6.393m0-11.058c-2.862,0-3.877,2.513-3.877,4.666s1.015,4.666,3.877,4.666S33.9,8.628,33.9,6.477,32.89,1.811,30.03,1.811" transform="translate(338.707 10321.02)" fill="#20201d"/>
      <path id="Trazado_65788" data-name="Trazado 65788" d="M42.7,29.133H20.586a2.875,2.875,0,0,1-2.456-1.144,4.113,4.113,0,0,1-.342-3.682l2.445-7.571c1.209-3.41,3.262-5.127,6.108-5.127H36.947c2.845,0,4.9,1.717,6.1,5.1L45.5,24.3a4.118,4.118,0,0,1-.34,3.687A2.875,2.875,0,0,1,42.7,29.133m-16.361-15.8c-2.094,0-3.515,1.257-4.472,3.955l-2.436,7.541a2.541,2.541,0,0,0,.09,2.137,1.218,1.218,0,0,0,1.063.437H42.7a1.218,1.218,0,0,0,1.063-.437,2.532,2.532,0,0,0,.088-2.143l-2.44-7.559c-.95-2.675-2.372-3.932-4.465-3.932Z" transform="translate(337.094 10323.713)" fill="#20201d"/>
    </g>
  </g>
</svg>
