<svg xmlns="http://www.w3.org/2000/svg" width="150.999" height="128" viewBox="0 0 150.999 128">
  <g id="Grupo_70504" data-name="Grupo 70504" transform="translate(-855 -9572.314)">
    <g id="Unión_4" data-name="Unión 4" transform="translate(-9929 -2150.098)" fill="#fff">
      <path d="M 10871 11849.412109375 C 10863.6611328125 11849.412109375 10856.4716796875 11848.162109375 10849.6318359375 11845.6962890625 C 10843.021484375 11843.3125 10836.8876953125 11839.853515625 10831.4013671875 11835.4130859375 C 10825.9619140625 11831.01171875 10821.3203125 11825.779296875 10817.60546875 11819.8623046875 C 10813.822265625 11813.8349609375 10811.1103515625 11807.26953125 10809.5478515625 11800.3466796875 L 10809.451171875 11799.919921875 L 10809.0712890625 11799.701171875 L 10786.0029296875 11786.4111328125 L 10809.0712890625 11773.12109375 L 10809.451171875 11772.90234375 L 10809.5478515625 11772.4755859375 C 10811.1103515625 11765.5537109375 10813.822265625 11758.98828125 10817.60546875 11752.9619140625 C 10821.3203125 11747.044921875 10825.9619140625 11741.8125 10831.4013671875 11737.4111328125 C 10836.8876953125 11732.970703125 10843.021484375 11729.51171875 10849.6318359375 11727.12890625 C 10856.4716796875 11724.662109375 10863.6611328125 11723.412109375 10871 11723.412109375 C 10879.505859375 11723.412109375 10887.755859375 11725.078125 10895.5224609375 11728.3623046875 C 10899.2548828125 11729.94140625 10902.85546875 11731.8955078125 10906.22265625 11734.1708984375 C 10909.5595703125 11736.4248046875 10912.6962890625 11739.013671875 10915.5478515625 11741.865234375 C 10918.3984375 11744.7158203125 10920.9873046875 11747.853515625 10923.240234375 11751.189453125 C 10925.515625 11754.5576171875 10927.4697265625 11758.1572265625 10929.048828125 11761.890625 C 10932.333984375 11769.65625 10933.9990234375 11777.90625 10933.9990234375 11786.4111328125 C 10933.9990234375 11794.9169921875 10932.333984375 11803.1669921875 10929.048828125 11810.93359375 C 10927.4697265625 11814.666015625 10925.515625 11818.2666015625 10923.240234375 11821.634765625 C 10920.9873046875 11824.970703125 10918.3984375 11828.1083984375 10915.5478515625 11830.9599609375 C 10912.6962890625 11833.810546875 10909.5595703125 11836.3994140625 10906.22265625 11838.6533203125 C 10902.85546875 11840.9287109375 10899.2548828125 11842.8828125 10895.5224609375 11844.4619140625 C 10887.755859375 11847.74609375 10879.505859375 11849.412109375 10871 11849.412109375 Z" stroke="none"/>
      <path d="M 10871 11848.412109375 C 10879.37109375 11848.412109375 10887.490234375 11846.7734375 10895.1328125 11843.541015625 C 10898.8056640625 11841.9873046875 10902.3486328125 11840.0634765625 10905.6630859375 11837.82421875 C 10908.9462890625 11835.6064453125 10912.0341796875 11833.05859375 10914.83984375 11830.2529296875 C 10917.646484375 11827.4462890625 10920.193359375 11824.3583984375 10922.412109375 11821.0751953125 C 10924.6513671875 11817.7607421875 10926.57421875 11814.2177734375 10928.1279296875 11810.5439453125 C 10931.3603515625 11802.9013671875 10932.9990234375 11794.7822265625 10932.9990234375 11786.4111328125 C 10932.9990234375 11778.041015625 10931.3603515625 11769.921875 10928.1279296875 11762.279296875 C 10926.57421875 11758.6064453125 10924.6513671875 11755.0634765625 10922.412109375 11751.7490234375 C 10920.193359375 11748.4658203125 10917.646484375 11745.3779296875 10914.83984375 11742.572265625 C 10912.0341796875 11739.765625 10908.9462890625 11737.2177734375 10905.6630859375 11735 C 10902.3486328125 11732.7607421875 10898.8056640625 11730.837890625 10895.1328125 11729.2841796875 C 10887.490234375 11726.05078125 10879.37109375 11724.412109375 10871 11724.412109375 C 10863.7763671875 11724.412109375 10856.701171875 11725.642578125 10849.970703125 11728.0693359375 C 10843.4658203125 11730.4140625 10837.4296875 11733.8193359375 10832.0302734375 11738.1884765625 C 10826.6767578125 11742.5205078125 10822.1083984375 11747.669921875 10818.4521484375 11753.4931640625 C 10814.728515625 11759.423828125 10812.0615234375 11765.884765625 10810.5234375 11772.6953125 L 10810.330078125 11773.55078125 L 10809.5703125 11773.98828125 L 10788.0068359375 11786.4111328125 L 10810.330078125 11799.271484375 L 10810.5234375 11800.126953125 C 10812.0615234375 11806.9384765625 10814.7294921875 11813.3994140625 10818.4521484375 11819.330078125 C 10822.1083984375 11825.154296875 10826.6767578125 11830.3037109375 10832.0302734375 11834.6357421875 C 10837.4296875 11839.005859375 10843.4658203125 11842.41015625 10849.970703125 11844.7548828125 C 10856.701171875 11847.181640625 10863.7763671875 11848.412109375 10871 11848.412109375 M 10871 11850.412109375 C 10840.5185546875 11850.412109375 10815.015625 11829.1025390625 10808.572265625 11800.5673828125 L 10784 11786.4111328125 L 10808.572265625 11772.2548828125 C 10815.015625 11743.72265625 10840.5185546875 11722.412109375 10871 11722.412109375 C 10906.3466796875 11722.412109375 10934.9990234375 11751.0673828125 10934.9990234375 11786.4111328125 C 10934.9990234375 11821.7578125 10906.3466796875 11850.412109375 10871 11850.412109375 Z" stroke="none" fill="#d8a175"/>
    </g>
    <g id="Grupo_25093" data-name="Grupo 25093" transform="translate(-43.421 -712.588)">
      <path id="Trazado_65807" data-name="Trazado 65807" d="M409.143,25.863h-1.5a.863.863,0,1,1,0-1.726h1.5a.863.863,0,1,1,0,1.726" transform="translate(579.044 10326.64)" fill="#8d85ac"/>
      <path id="Trazado_65808" data-name="Trazado 65808" d="M409.1,25.42c-3.162,0-5.37-2.517-5.37-6.12s2.208-6.121,5.37-6.121,5.371,2.517,5.371,6.121-2.209,6.12-5.371,6.12m0-10.514c-2.688,0-3.642,2.366-3.642,4.394s.954,4.393,3.642,4.393,3.643-2.366,3.643-4.393-.954-4.394-3.643-4.394" transform="translate(578.333 10324.079)" fill="#8d85ac"/>
      <path id="Trazado_65809" data-name="Trazado 65809" d="M408.249,34.125a.863.863,0,0,1-.862-.864V25a.863.863,0,1,1,1.726,0v8.262a.863.863,0,0,1-.864.864" transform="translate(579.187 10326.64)" fill="#8d85ac"/>
      <path id="Trazado_65810" data-name="Trazado 65810" d="M401.788,35.291a.863.863,0,0,1-.7-1.368L402,32.662a1.9,1.9,0,0,1,2.158-.806l2.927.549a24.259,24.259,0,0,1,8.206.4l-.2-2.063a.864.864,0,0,1,1.72-.169l.342,3.47a.863.863,0,0,1-1.268.845c-2.279-1.227-7.068-.96-8.719-.754a.831.831,0,0,1-.265-.007l-3.137-.588a.813.813,0,0,1-.186-.057c0,.012-.1.089-.173.19l-.909,1.26a.859.859,0,0,1-.7.359" transform="translate(577.677 10327.962)" fill="#8d85ac"/>
      <path id="Trazado_65811" data-name="Trazado 65811" d="M414.338,42.4a.863.863,0,0,1-.864-.864V37.785a.864.864,0,1,1,1.727,0V41.54a.863.863,0,0,1-.864.864" transform="translate(580.609 10329.627)" fill="#8d85ac"/>
      <path id="Trazado_65812" data-name="Trazado 65812" d="M402.163,42.4a.863.863,0,0,1-.864-.864V37.785a.863.863,0,1,1,1.726,0V41.54a.863.863,0,0,1-.862.864" transform="translate(577.764 10329.627)" fill="#8d85ac"/>
      <path id="Trazado_65813" data-name="Trazado 65813" d="M419.576,40.945H414a8.02,8.02,0,0,1-2.027-.368c-.027,0-.056.009-.083.011l-4.32.354-7.318,0a3.505,3.505,0,0,1-2.609-1.12,2.415,2.415,0,0,1-.575-1.958l1.561-8.712c.555-2.73,3.584-5.018,6.616-5.018h.92a.862.862,0,0,1,.787.509l3.719,8.257,3.718-8.257a.863.863,0,0,1,.788-.509h.535a6.12,6.12,0,0,1,5.873,5l1.179,8.743a2.247,2.247,0,0,1-.516,1.859,3.567,3.567,0,0,1-2.671,1.209m-7.758-2.251a7.5,7.5,0,0,0,2.179.524h5.58a1.855,1.855,0,0,0,1.336-.577.542.542,0,0,0,.147-.481l-1.178-8.738a4.376,4.376,0,0,0-4.149-3.558l-3.616,8.026a1.634,1.634,0,0,1-1.45.9,1.614,1.614,0,0,1-1.421-.85l-3.642-8.08h-.363c-2.229,0-4.527,1.689-4.92,3.616l-1.553,8.665a.67.67,0,0,0,.178.553,1.8,1.8,0,0,0,1.3.521H407.5l1.779-.147c-1.7-1.045-4.463-2.462-6.635-2.246a.863.863,0,0,1-.929-1.044L402.539,32a.864.864,0,1,1,1.688.37l-.6,2.729c3.594.281,7.578,3.141,8.189,3.595" transform="translate(576.769 10326.64)" fill="#8d85ac"/>
      <path id="Trazado_65814" data-name="Trazado 65814" d="M411.026,46.937c-5.773,0-15.544-.909-15.544-4.318,0-2.242,4.308-3.317,7.921-3.823a.863.863,0,0,1,.241,1.71c-5.1.716-6.389,1.871-6.435,2.118.164.873,5.189,2.586,13.817,2.586s13.654-1.712,13.817-2.593c-.044-.234-1.3-1.371-6.272-2.087a.864.864,0,0,1,.247-1.71c5.143.743,7.754,2.022,7.754,3.8,0,3.409-9.772,4.318-15.545,4.318" transform="translate(576.405 10330.063)" fill="#8d85ac"/>
      <path id="Trazado_65815" data-name="Trazado 65815" d="M439.32,27.541a.863.863,0,0,1-.864-.864V22.9c0-3.225-2.134-5.15-5.706-5.15h-3.016c-3.571,0-5.706,1.926-5.706,5.15v3.775a.863.863,0,1,1-1.726,0V22.9c0-4.177,2.916-6.876,7.432-6.876h3.016c4.515,0,7.432,2.7,7.432,6.876v3.775a.863.863,0,0,1-.862.864" transform="translate(582.672 10324.744)" fill="#20201d"/>
      <path id="Trazado_65816" data-name="Trazado 65816" d="M430.379,16.386c-2.573,0-4.3-2-4.3-4.989s1.728-4.99,4.3-4.99,4.3,2.006,4.3,4.99-1.728,4.989-4.3,4.989m0-8.252c-2.39,0-2.575,2.5-2.575,3.263s.185,3.263,2.575,3.263,2.576-2.5,2.576-3.263-.186-3.263-2.576-3.263" transform="translate(583.554 10322.497)" fill="#20201d"/>
      <path id="Trazado_65817" data-name="Trazado 65817" d="M425.969,26.09a.863.863,0,0,1-.864-.864V23.1a.863.863,0,1,1,1.726,0v2.128a.863.863,0,0,1-.862.864" transform="translate(583.327 10326.195)" fill="#20201d"/>
      <path id="Trazado_65818" data-name="Trazado 65818" d="M433.494,26.085a.863.863,0,0,1-.862-.864v-2.1a.863.863,0,1,1,1.726,0v2.1a.863.863,0,0,1-.864.864" transform="translate(585.085 10326.2)" fill="#20201d"/>
      <path id="Trazado_65819" data-name="Trazado 65819" d="M432,30.338c-6.437,0-12.953-1.573-12.953-4.578,0-1.036.78-2.493,4.49-3.553a.863.863,0,1,1,.472,1.66c-2.374.679-3.236,1.5-3.236,1.892,0,.967,3.962,2.851,11.226,2.851s11.227-1.884,11.227-2.851c0-.391-.868-1.219-3.258-1.9a.864.864,0,0,1,.472-1.662c3.728,1.06,4.511,2.522,4.511,3.56,0,3.005-6.516,4.578-12.953,4.578" transform="translate(581.912 10326.18)" fill="#20201d"/>
      <path id="Trazado_65820" data-name="Trazado 65820" d="M395.92,27.541a.863.863,0,0,1-.864-.864V22.9c0-3.225-2.133-5.15-5.706-5.15h-3.016c-3.571,0-5.7,1.926-5.7,5.15v3.775a.864.864,0,1,1-1.727,0V22.9c0-4.177,2.918-6.876,7.432-6.876h3.016c4.515,0,7.433,2.7,7.433,6.876v3.775a.863.863,0,0,1-.864.864" transform="translate(572.532 10324.744)" fill="#20201d"/>
      <path id="Trazado_65821" data-name="Trazado 65821" d="M386.98,16.386c-2.573,0-4.3-2-4.3-4.989s1.728-4.99,4.3-4.99,4.3,2.006,4.3,4.99-1.728,4.989-4.3,4.989m0-8.252c-2.39,0-2.576,2.5-2.576,3.263s.186,3.263,2.576,3.263,2.575-2.5,2.575-3.263-.185-3.263-2.575-3.263" transform="translate(573.414 10322.497)" fill="#20201d"/>
      <path id="Trazado_65822" data-name="Trazado 65822" d="M382.569,26.09a.863.863,0,0,1-.864-.864V23.1a.864.864,0,0,1,1.727,0v2.128a.863.863,0,0,1-.864.864" transform="translate(573.186 10326.195)" fill="#20201d"/>
      <path id="Trazado_65823" data-name="Trazado 65823" d="M390.095,26.085a.863.863,0,0,1-.864-.864v-2.1a.864.864,0,0,1,1.727,0v2.1a.863.863,0,0,1-.864.864" transform="translate(574.945 10326.2)" fill="#20201d"/>
      <path id="Trazado_65824" data-name="Trazado 65824" d="M388.6,30.338c-6.437,0-12.953-1.573-12.953-4.578,0-1.036.778-2.493,4.489-3.553a.863.863,0,0,1,.474,1.66c-2.374.679-3.237,1.5-3.237,1.892,0,.967,3.962,2.851,11.227,2.851s11.226-1.884,11.226-2.851c0-.391-.868-1.219-3.258-1.9a.864.864,0,0,1,.472-1.662c3.729,1.06,4.513,2.522,4.513,3.56,0,3.005-6.516,4.578-12.953,4.578" transform="translate(571.771 10326.18)" fill="#20201d"/>
    </g>
  </g>
</svg>
