<svg xmlns="http://www.w3.org/2000/svg" width="150.999" height="128" viewBox="0 0 150.999 128">
  <g id="Grupo_70505" data-name="Grupo 70505" transform="translate(-584 -9753.316)">
    <g id="Uni칩n_5" data-name="Uni칩n 5" transform="translate(11518.999 21603.729) rotate(180)" fill="none">
      <path d="M10808.572,11800.567l-24.572-14.156,24.572-14.156a64,64,0,1,1,0,28.313Z" stroke="none"/>
      <path d="M 10871 11848.412109375 C 10879.37109375 11848.412109375 10887.490234375 11846.7734375 10895.1328125 11843.541015625 C 10898.8056640625 11841.9873046875 10902.3486328125 11840.0634765625 10905.6630859375 11837.82421875 C 10908.9462890625 11835.6064453125 10912.0341796875 11833.05859375 10914.83984375 11830.2529296875 C 10917.646484375 11827.4462890625 10920.193359375 11824.3583984375 10922.412109375 11821.0751953125 C 10924.6513671875 11817.7607421875 10926.57421875 11814.2177734375 10928.1279296875 11810.5439453125 C 10931.3603515625 11802.9013671875 10932.9990234375 11794.7822265625 10932.9990234375 11786.4111328125 C 10932.9990234375 11778.041015625 10931.3603515625 11769.921875 10928.1279296875 11762.279296875 C 10926.57421875 11758.6064453125 10924.6513671875 11755.0634765625 10922.412109375 11751.7490234375 C 10920.193359375 11748.4658203125 10917.646484375 11745.3779296875 10914.83984375 11742.572265625 C 10912.0341796875 11739.765625 10908.9462890625 11737.2177734375 10905.6630859375 11735 C 10902.3486328125 11732.7607421875 10898.8056640625 11730.837890625 10895.1328125 11729.2841796875 C 10887.490234375 11726.05078125 10879.37109375 11724.412109375 10871 11724.412109375 C 10863.7763671875 11724.412109375 10856.701171875 11725.642578125 10849.970703125 11728.0693359375 C 10843.4658203125 11730.4140625 10837.4296875 11733.8193359375 10832.0302734375 11738.1884765625 C 10826.6767578125 11742.5205078125 10822.1083984375 11747.669921875 10818.4521484375 11753.4931640625 C 10814.728515625 11759.423828125 10812.0615234375 11765.884765625 10810.5234375 11772.6953125 L 10810.330078125 11773.55078125 L 10809.5703125 11773.98828125 L 10788.0068359375 11786.4111328125 L 10810.330078125 11799.271484375 L 10810.5234375 11800.126953125 C 10812.0615234375 11806.9384765625 10814.7294921875 11813.3994140625 10818.4521484375 11819.330078125 C 10822.1083984375 11825.154296875 10826.6767578125 11830.3037109375 10832.0302734375 11834.6357421875 C 10837.4296875 11839.005859375 10843.4658203125 11842.41015625 10849.970703125 11844.7548828125 C 10856.701171875 11847.181640625 10863.7763671875 11848.412109375 10871 11848.412109375 M 10871 11850.412109375 C 10840.5185546875 11850.412109375 10815.015625 11829.1025390625 10808.572265625 11800.5673828125 L 10784 11786.4111328125 L 10808.572265625 11772.2548828125 C 10815.015625 11743.72265625 10840.5185546875 11722.412109375 10871 11722.412109375 C 10906.3466796875 11722.412109375 10934.9990234375 11751.0673828125 10934.9990234375 11786.4111328125 C 10934.9990234375 11821.7578125 10906.3466796875 11850.412109375 10871 11850.412109375 Z" stroke="none" fill="#d8a175"/>
    </g>
    <g id="Grupo_25094" data-name="Grupo 25094" transform="translate(-337.768 -775.588)">
      <path id="Trazado_65825" data-name="Trazado 65825" d="M589.127,22.786a.861.861,0,0,1-.5-.16l-6.9-4.927a.863.863,0,0,1,1-1.405l6.3,4.5L599,10.859a.864.864,0,0,1,1.131-.076l7.129,5.413,4.8-5.78a.863.863,0,1,1,1.329,1.1l-5.326,6.415a.864.864,0,0,1-1.186.137l-7.191-5.458-9.954,9.921a.86.86,0,0,1-.609.252" transform="translate(403.837 10565.36)" fill="#20201d"/>
      <path id="Trazado_65826" data-name="Trazado 65826" d="M607.682,15.685a.862.862,0,0,1-.862-.864V11.83h-2.993a.863.863,0,1,1,0-1.726h3.855a.862.862,0,0,1,.863.862v3.855a.862.862,0,0,1-.863.864" transform="translate(408.884 10565.36)" fill="#20201d"/>
      <path id="Trazado_65827" data-name="Trazado 65827" d="M600.2,26.092a.863.863,0,0,1-.043-1.726l2.988-.153-.153-2.989a.864.864,0,0,1,.818-.907.877.877,0,0,1,.907.819l.2,3.85a.864.864,0,0,1-.819.907l-3.85.2H600.2" transform="translate(408.035 10567.747)" fill="#ed7b5c"/>
      <path id="Trazado_65828" data-name="Trazado 65828" d="M582.356,31.173a.864.864,0,0,1-.575-1.508l5.72-5.115A.865.865,0,0,1,588.6,24.5l3.555,2.666,8.4-8.563a.866.866,0,0,1,1.186-.046l6.241,5.461a.863.863,0,1,1-1.136,1.3L601.214,20.4l-8.359,8.518a.86.86,0,0,1-1.134.086l-3.595-2.694-5.195,4.642a.861.861,0,0,1-.575.22" transform="translate(403.867 10567.287)" fill="#ed7b5c"/>
      <path id="Trazado_65829" data-name="Trazado 65829" d="M623.133,9.632h-47.5a.864.864,0,1,1,0-1.727H622.27V5.314H605.862a.862.862,0,0,1-.772-.477L603.6,1.86H583.943l-1.488,2.977a.865.865,0,0,1-.773.477h-6.044a.864.864,0,1,1,0-1.727h5.511L582.637.61a.863.863,0,0,1,.772-.477h20.725a.865.865,0,0,1,.772.477L606.4,3.587h16.737a.863.863,0,0,1,.864.864V8.769a.863.863,0,0,1-.864.864" transform="translate(402.297 10563.031)" fill="#20201d"/>
      <path id="Trazado_65830" data-name="Trazado 65830" d="M619.725,38.43H578.274V36.7h40.588V9.933h1.726V37.567a.862.862,0,0,1-.863.864" transform="translate(403.115 10565.321)" fill="#20201d"/>
      <rect id="Rect치ngulo_25808" data-name="Rect치ngulo 25808" width="1.726" height="4.318" transform="translate(995.207 10602.888)" fill="#20201d"/>
      <path id="Trazado_65831" data-name="Trazado 65831" d="M590.993,43.769a4.318,4.318,0,1,1,4.318-4.318,4.322,4.322,0,0,1-4.318,4.318m0-6.908a2.591,2.591,0,1,0,2.591,2.591,2.595,2.595,0,0,0-2.591-2.591" transform="translate(405.078 10571.209)" fill="#20201d"/>
      <path id="Trazado_65832" data-name="Trazado 65832" d="M554.368,25.792a.863.863,0,0,1-.864-.862V22.338a.864.864,0,1,1,1.727,0v2.592a.863.863,0,0,1-.864.862" transform="translate(397.328 10568.018)" fill="#20201d"/>
      <path id="Trazado_65833" data-name="Trazado 65833" d="M566.457,35.946h-12.09a.863.863,0,0,1-.864-.864V31.628a.864.864,0,1,1,1.727,0v2.591h10.364V21.266a.865.865,0,0,0-.864-.864H563a.864.864,0,0,1,0-1.727h1.728a2.592,2.592,0,0,1,2.589,2.591V35.083a.862.862,0,0,1-.863.864" transform="translate(397.328 10567.363)" fill="#20201d"/>
      <path id="Trazado_65834" data-name="Trazado 65834" d="M563.657,23.857h-12.09a.864.864,0,0,1-.864-.865V21.266a2.6,2.6,0,0,1,2.591-2.592h12.09a.864.864,0,1,1,0,1.727.864.864,0,0,0-.864.865v1.726a.865.865,0,0,1-.864.865m-11.226-1.728h10.361v-.862a2.579,2.579,0,0,1,.149-.865h-9.647a.864.864,0,0,0-.864.865Z" transform="translate(396.673 10567.363)" fill="#20201d"/>
      <path id="Trazado_65835" data-name="Trazado 65835" d="M555.426,31.183h-1.463a1.861,1.861,0,0,1-1.859-1.86V26.134a1.861,1.861,0,0,1,1.859-1.859h1.463a1.861,1.861,0,0,1,1.859,1.859v3.189a1.861,1.861,0,0,1-1.859,1.86M553.963,26a.131.131,0,0,0-.132.132v3.189a.132.132,0,0,0,.132.133h1.463a.132.132,0,0,0,.132-.133V26.134a.132.132,0,0,0-.132-.132Z" transform="translate(397 10568.672)" fill="#20201d"/>
      <path id="Trazado_65836" data-name="Trazado 65836" d="M569.619,13.816c-3.616,0-6.045-2.776-6.045-6.908S566,0,569.619,0s6.044,2.777,6.044,6.908-2.428,6.908-6.044,6.908m0-12.09c-3.188,0-4.318,2.792-4.318,5.181s1.13,5.181,4.318,5.181,4.318-2.791,4.318-5.181-1.131-5.181-4.318-5.181" transform="translate(399.68 10563)" fill="#20201d"/>
      <path id="Trazado_65837" data-name="Trazado 65837" d="M574.938,59a.863.863,0,0,1-.864-.864V21.864a.864.864,0,0,1,1.727,0V58.133a.863.863,0,0,1-.864.864" transform="translate(402.134 10567.906)" fill="#20201d"/>
      <path id="Trazado_65838" data-name="Trazado 65838" d="M571.718,55.889a.863.863,0,0,1-.859-.788L569.2,36.027h-.143L567.4,55.1a.863.863,0,1,1-1.72-.151L567.4,35.088a.862.862,0,0,1,.86-.788h1.728a.864.864,0,0,1,.86.788l1.726,19.862a.863.863,0,0,1-.785.935c-.026,0-.051,0-.076,0" transform="translate(400.171 10571.015)" fill="#20201d"/>
      <path id="Trazado_65839" data-name="Trazado 65839" d="M562.339,56.589h0a.863.863,0,0,1-.862-.865l.026-23.559a.864.864,0,0,1,.864-.862h0a.864.864,0,0,1,.864.865L563.2,55.726a.863.863,0,0,1-.862.864" transform="translate(399.19 10570.314)" fill="#20201d"/>
      <path id="Trazado_65840" data-name="Trazado 65840" d="M581.719,41.96h-.431a.864.864,0,0,1,0-1.727h.431a.435.435,0,0,0,.434-.433V20.314a6,6,0,0,0-5.521-5.97L571.7,24.211a.9.9,0,0,1-1.544,0l-4.932-9.863a6,6,0,0,0-5.523,5.966.863.863,0,1,1-1.726,0,7.724,7.724,0,0,1,7.714-7.715.954.954,0,0,1,.83.477l4.409,8.818,4.408-8.818a.866.866,0,0,1,.774-.477,7.737,7.737,0,0,1,7.772,7.715V39.8a2.163,2.163,0,0,1-2.161,2.16" transform="translate(398.372 10565.943)" fill="#20201d"/>
      <path id="Trazado_65841" data-name="Trazado 65841" d="M569.666,14.326h-1.727a.864.864,0,1,1,0-1.727h1.727a.864.864,0,0,1,0,1.727" transform="translate(400.498 10565.943)" fill="#20201d"/>
      <path id="Trazado_65842" data-name="Trazado 65842" d="M568.638,23.826a.863.863,0,0,1-.864-.864v-9.5a.864.864,0,1,1,1.727,0v9.5a.863.863,0,0,1-.864.864" transform="translate(400.662 10565.944)" fill="#20201d"/>
    </g>
  </g>
</svg>
