<svg xmlns="http://www.w3.org/2000/svg" width="150.999" height="128" viewBox="0 0 150.999 128">
  <g id="Grupo_70506" data-name="Grupo 70506" transform="translate(-855 -9922.615)">
    <g id="Unión_6" data-name="Unión 6" transform="translate(-9929 -1799.797)" fill="#fff">
      <path d="M 10871 11849.412109375 C 10863.6611328125 11849.412109375 10856.4716796875 11848.162109375 10849.6318359375 11845.6962890625 C 10843.021484375 11843.3125 10836.8876953125 11839.853515625 10831.4013671875 11835.4130859375 C 10825.9619140625 11831.01171875 10821.3203125 11825.779296875 10817.60546875 11819.8623046875 C 10813.822265625 11813.8349609375 10811.1103515625 11807.26953125 10809.5478515625 11800.3466796875 L 10809.451171875 11799.919921875 L 10809.0712890625 11799.701171875 L 10786.0029296875 11786.4111328125 L 10809.0712890625 11773.12109375 L 10809.451171875 11772.90234375 L 10809.5478515625 11772.4755859375 C 10811.1103515625 11765.5537109375 10813.822265625 11758.98828125 10817.60546875 11752.9619140625 C 10821.3203125 11747.044921875 10825.9619140625 11741.8125 10831.4013671875 11737.4111328125 C 10836.8876953125 11732.970703125 10843.021484375 11729.51171875 10849.6318359375 11727.12890625 C 10856.4716796875 11724.662109375 10863.6611328125 11723.412109375 10871 11723.412109375 C 10879.505859375 11723.412109375 10887.755859375 11725.078125 10895.5224609375 11728.3623046875 C 10899.2548828125 11729.94140625 10902.85546875 11731.8955078125 10906.22265625 11734.1708984375 C 10909.5595703125 11736.4248046875 10912.6962890625 11739.013671875 10915.5478515625 11741.865234375 C 10918.3984375 11744.7158203125 10920.9873046875 11747.853515625 10923.240234375 11751.189453125 C 10925.515625 11754.5576171875 10927.4697265625 11758.1572265625 10929.048828125 11761.890625 C 10932.333984375 11769.65625 10933.9990234375 11777.90625 10933.9990234375 11786.4111328125 C 10933.9990234375 11794.9169921875 10932.333984375 11803.1669921875 10929.048828125 11810.93359375 C 10927.4697265625 11814.666015625 10925.515625 11818.2666015625 10923.240234375 11821.634765625 C 10920.9873046875 11824.970703125 10918.3984375 11828.1083984375 10915.5478515625 11830.9599609375 C 10912.6962890625 11833.810546875 10909.5595703125 11836.3994140625 10906.22265625 11838.6533203125 C 10902.85546875 11840.9287109375 10899.2548828125 11842.8828125 10895.5224609375 11844.4619140625 C 10887.755859375 11847.74609375 10879.505859375 11849.412109375 10871 11849.412109375 Z" stroke="none"/>
      <path d="M 10871 11848.412109375 C 10879.37109375 11848.412109375 10887.490234375 11846.7734375 10895.1328125 11843.541015625 C 10898.8056640625 11841.9873046875 10902.3486328125 11840.0634765625 10905.6630859375 11837.82421875 C 10908.9462890625 11835.6064453125 10912.0341796875 11833.05859375 10914.83984375 11830.2529296875 C 10917.646484375 11827.4462890625 10920.193359375 11824.3583984375 10922.412109375 11821.0751953125 C 10924.6513671875 11817.7607421875 10926.57421875 11814.2177734375 10928.1279296875 11810.5439453125 C 10931.3603515625 11802.9013671875 10932.9990234375 11794.7822265625 10932.9990234375 11786.4111328125 C 10932.9990234375 11778.041015625 10931.3603515625 11769.921875 10928.1279296875 11762.279296875 C 10926.57421875 11758.6064453125 10924.6513671875 11755.0634765625 10922.412109375 11751.7490234375 C 10920.193359375 11748.4658203125 10917.646484375 11745.3779296875 10914.83984375 11742.572265625 C 10912.0341796875 11739.765625 10908.9462890625 11737.2177734375 10905.6630859375 11735 C 10902.3486328125 11732.7607421875 10898.8056640625 11730.837890625 10895.1328125 11729.2841796875 C 10887.490234375 11726.05078125 10879.37109375 11724.412109375 10871 11724.412109375 C 10863.7763671875 11724.412109375 10856.701171875 11725.642578125 10849.970703125 11728.0693359375 C 10843.4658203125 11730.4140625 10837.4296875 11733.8193359375 10832.0302734375 11738.1884765625 C 10826.6767578125 11742.5205078125 10822.1083984375 11747.669921875 10818.4521484375 11753.4931640625 C 10814.728515625 11759.423828125 10812.0615234375 11765.884765625 10810.5234375 11772.6953125 L 10810.330078125 11773.55078125 L 10809.5703125 11773.98828125 L 10788.0068359375 11786.4111328125 L 10810.330078125 11799.271484375 L 10810.5234375 11800.126953125 C 10812.0615234375 11806.9384765625 10814.7294921875 11813.3994140625 10818.4521484375 11819.330078125 C 10822.1083984375 11825.154296875 10826.6767578125 11830.3037109375 10832.0302734375 11834.6357421875 C 10837.4296875 11839.005859375 10843.4658203125 11842.41015625 10849.970703125 11844.7548828125 C 10856.701171875 11847.181640625 10863.7763671875 11848.412109375 10871 11848.412109375 M 10871 11850.412109375 C 10840.5185546875 11850.412109375 10815.015625 11829.1025390625 10808.572265625 11800.5673828125 L 10784 11786.4111328125 L 10808.572265625 11772.2548828125 C 10815.015625 11743.72265625 10840.5185546875 11722.412109375 10871 11722.412109375 C 10906.3466796875 11722.412109375 10934.9990234375 11751.0673828125 10934.9990234375 11786.4111328125 C 10934.9990234375 11821.7578125 10906.3466796875 11850.412109375 10871 11850.412109375 Z" stroke="none" fill="#d8a175"/>
    </g>
    <g id="Grupo_25097" data-name="Grupo 25097" transform="translate(241.116 -631.918)">
      <path id="Trazado_65843" data-name="Trazado 65843" d="M588.7,263.286c-5.659,0-11.385-1.522-11.385-4.434v-4.461a.864.864,0,1,1,1.727,0v4.461c0,.919,3.409,2.708,9.658,2.708a24.8,24.8,0,0,0,5.13-.433.864.864,0,0,1,.35,1.691,26.432,26.432,0,0,1-5.48.468" transform="translate(113.89 10380.237)" fill="#55bbc6"/>
      <path id="Trazado_65844" data-name="Trazado 65844" d="M588.7,255.974c-5.659,0-11.385-1.522-11.385-4.434s5.727-4.433,11.385-4.433a28.8,28.8,0,0,1,5.369.481.863.863,0,0,1-.328,1.7,27.177,27.177,0,0,0-5.041-.45c-6.25,0-9.658,1.788-9.658,2.707s3.409,2.708,9.658,2.708a26.883,26.883,0,0,0,5.144-.473.863.863,0,1,1,.337,1.694,28.683,28.683,0,0,1-5.481.5" transform="translate(113.89 10378.737)" fill="#55bbc6"/>
      <path id="Trazado_65845" data-name="Trazado 65845" d="M588.7,259.76c-5.659,0-11.385-1.522-11.385-4.434v-4.462a.864.864,0,1,1,1.727,0v4.462c0,.918,3.409,2.707,9.658,2.707a27.035,27.035,0,0,0,5.035-.45.863.863,0,0,1,.327,1.7,28.738,28.738,0,0,1-5.361.482" transform="translate(113.89 10379.413)" fill="#55bbc6"/>
      <path id="Trazado_65846" data-name="Trazado 65846" d="M601.516,260.726c-5.659,0-11.385-1.563-11.385-4.55a.863.863,0,1,1,1.726,0c0,1.124,3.853,2.824,9.659,2.824s9.658-1.7,9.658-2.824a.864.864,0,1,1,1.727,0c0,2.987-5.728,4.55-11.385,4.55" transform="translate(116.885 10380.654)" fill="#d9a171"/>
      <path id="Trazado_65847" data-name="Trazado 65847" d="M601.516,265.337c-5.659,0-11.385-1.564-11.385-4.551v-4.61a.863.863,0,1,1,1.726,0v4.61c0,1.124,3.853,2.824,9.659,2.824s9.658-1.7,9.658-2.824v-4.61a.864.864,0,1,1,1.727,0v4.61c0,2.987-5.728,4.551-11.385,4.551" transform="translate(116.885 10380.654)" fill="#55bbc6"/>
      <path id="Trazado_65848" data-name="Trazado 65848" d="M601.516,257.084c-5.659,0-11.385-1.564-11.385-4.551a.863.863,0,1,1,1.726,0c0,1.124,3.853,2.826,9.659,2.826s9.658-1.7,9.658-2.826a.864.864,0,1,1,1.727,0c0,2.987-5.728,4.551-11.385,4.551" transform="translate(116.885 10379.803)" fill="#d9a171"/>
      <path id="Trazado_65849" data-name="Trazado 65849" d="M601.516,261.694c-5.659,0-11.385-1.563-11.385-4.551v-4.61a.863.863,0,1,1,1.726,0v4.61c0,1.125,3.853,2.825,9.659,2.825s9.658-1.7,9.658-2.825v-4.61a.864.864,0,1,1,1.727,0v4.61c0,2.988-5.728,4.551-11.385,4.551" transform="translate(116.885 10379.803)" fill="#55bbc6"/>
      <path id="Trazado_65850" data-name="Trazado 65850" d="M601.516,253.442c-5.659,0-11.385-1.564-11.385-4.551a.863.863,0,1,1,1.726,0c0,1.124,3.853,2.824,9.659,2.824s9.658-1.7,9.658-2.824a.864.864,0,1,1,1.727,0c0,2.987-5.728,4.551-11.385,4.551" transform="translate(116.885 10378.952)" fill="#d9a171"/>
      <path id="Trazado_65851" data-name="Trazado 65851" d="M601.516,258.049c-5.659,0-11.385-1.563-11.385-4.55v-4.61a.863.863,0,1,1,1.726,0v4.61c0,1.151,3.764,2.824,9.659,2.824s9.658-1.673,9.658-2.824v-4.61a.864.864,0,1,1,1.727,0v4.61c0,2.987-5.728,4.55-11.385,4.55" transform="translate(116.885 10378.952)" fill="#55bbc6"/>
      <path id="Trazado_65852" data-name="Trazado 65852" d="M601.516,249.744c-5.659,0-11.385-1.564-11.385-4.551a.863.863,0,1,1,1.726,0c0,1.124,3.853,2.824,9.659,2.824s9.658-1.7,9.658-2.824a.864.864,0,1,1,1.727,0c0,2.987-5.728,4.551-11.385,4.551" transform="translate(116.885 10378.088)" fill="#d9a171"/>
      <path id="Trazado_65853" data-name="Trazado 65853" d="M601.516,254.351c-5.659,0-11.385-1.563-11.385-4.55v-4.61a.863.863,0,1,1,1.726,0v4.61c0,1.151,3.764,2.824,9.659,2.824s9.658-1.673,9.658-2.824v-4.61a.864.864,0,1,1,1.727,0v4.61c0,2.987-5.728,4.55-11.385,4.55" transform="translate(116.885 10378.088)" fill="#55bbc6"/>
      <path id="Trazado_65854" data-name="Trazado 65854" d="M601.516,246.8c-5.659,0-11.385-1.563-11.385-4.551s5.727-4.551,11.385-4.551,11.385,1.563,11.385,4.551-5.728,4.551-11.385,4.551m0-7.376c-5.807,0-9.659,1.7-9.659,2.825,0,1.151,3.764,2.823,9.659,2.823s9.658-1.672,9.658-2.823c0-1.124-3.853-2.825-9.658-2.825" transform="translate(116.885 10376.538)" fill="#55bbc6"/>
      <path id="Trazado_65855" data-name="Trazado 65855" d="M601.516,250.708c-5.659,0-11.385-1.563-11.385-4.55v-4.61a.863.863,0,1,1,1.726,0v4.61c0,1.15,3.764,2.823,9.659,2.823s9.658-1.673,9.658-2.823v-4.61a.864.864,0,1,1,1.727,0v4.61c0,2.987-5.728,4.55-11.385,4.55" transform="translate(116.885 10377.236)" fill="#55bbc6"/>
      <path id="Trazado_65856" data-name="Trazado 65856" d="M578.694,237.7a.876.876,0,0,1-.243-.035.865.865,0,0,1-.586-1.072l.761-2.591a.864.864,0,0,1,1.658.486l-.761,2.592a.864.864,0,0,1-.829.619" transform="translate(114.011 10375.529)" fill="#20201d"/>
      <path id="Trazado_65857" data-name="Trazado 65857" d="M578.72,247.85H566.63a.864.864,0,0,1-.82-1.131l4.52-13.818a3.432,3.432,0,0,1,3.04-2.322h1.653a.864.864,0,0,1,0,1.727H573.37a1.722,1.722,0,0,0-1.4,1.131l-4.15,12.686h10.253l.831-2.834a.863.863,0,0,1,1.657.486l-1.014,3.455a.864.864,0,0,1-.829.619" transform="translate(111.193 10374.875)" fill="#20201d"/>
      <path id="Trazado_65858" data-name="Trazado 65858" d="M584.337,235.76H572.65a.863.863,0,0,1-.823-1.125l.548-1.727a.591.591,0,0,0-.009-.5.332.332,0,0,0-.271-.1.864.864,0,0,1,0-1.728h11.572a2.072,2.072,0,0,1,1.677.8,2.288,2.288,0,0,1,.316,2.026l-.492,1.728a.863.863,0,0,1-.829.627m-10.507-1.727h9.853l.313-1.1a.609.609,0,0,0-.033-.512.351.351,0,0,0-.3-.113h-9.54a2.519,2.519,0,0,1-.106,1.124Z" transform="translate(112.469 10374.875)" fill="#20201d"/>
      <path id="Trazado_65859" data-name="Trazado 65859" d="M578.254,243.087H576.8a1.584,1.584,0,0,1-1.289-.621,1.666,1.666,0,0,1-.227-1.485l.952-3.19a2.29,2.29,0,0,1,2.1-1.612h1.427a1.57,1.57,0,0,1,1.277.614,1.667,1.667,0,0,1,.236,1.485l-.922,3.189a2.277,2.277,0,0,1-2.1,1.62m-1.276-1.727h1.276a.582.582,0,0,0,.445-.371l.891-3.083h-1.251a.59.59,0,0,0-.443.38Z" transform="translate(113.399 10376.184)" fill="#20201d"/>
      <path id="Trazado_65860" data-name="Trazado 65860" d="M561.87,268.83a.862.862,0,0,1-.864-.862V242.061a.863.863,0,1,1,1.726,0v25.907a.861.861,0,0,1-.862.862" transform="translate(110.08 10377.356)" fill="#20201d"/>
      <path id="Trazado_65861" data-name="Trazado 65861" d="M574.469,268.176a.862.862,0,0,1-.864-.862V244.861a.864.864,0,1,1,1.727,0v22.452a.862.862,0,0,1-.864.862" transform="translate(113.024 10378.01)" fill="#20201d"/>
      <path id="Trazado_65862" data-name="Trazado 65862" d="M568.169,267.194a.862.862,0,0,1-.864-.862V249.061a.864.864,0,1,1,1.727,0v17.271a.862.862,0,0,1-.864.862" transform="translate(111.552 10378.992)" fill="#20201d"/>
      <path id="Trazado_65863" data-name="Trazado 65863" d="M580.748,233.656a.865.865,0,0,1-.839-.664,8.482,8.482,0,0,0-8.332-6.869h-6.907a.864.864,0,0,1,0-1.727h6.907a10.164,10.164,0,0,1,10.012,8.2.867.867,0,0,1-.841,1.065" transform="translate(110.735 10373.431)" fill="#20201d"/>
      <path id="Trazado_65864" data-name="Trazado 65864" d="M568.45,225.613c-3.616,0-6.045-2.777-6.045-6.908s2.429-6.908,6.045-6.908,6.045,2.776,6.045,6.908-2.429,6.908-6.045,6.908m0-12.09c-3.187,0-4.318,2.792-4.318,5.181s1.131,5.181,4.318,5.181,4.318-2.792,4.318-5.181-1.131-5.181-4.318-5.181" transform="translate(110.407 10370.486)" fill="#20201d"/>
      <path id="Trazado_65865" data-name="Trazado 65865" d="M569.311,246.848h-9.069a3.458,3.458,0,0,1-3.453-3.454v-9.5a9.509,9.509,0,0,1,9.5-9.5h2.9a.863.863,0,1,1,0,1.726h-2.9a7.781,7.781,0,0,0-7.772,7.772v9.5a1.73,1.73,0,0,0,1.726,1.728h9.069a.863.863,0,1,1,0,1.726" transform="translate(109.095 10373.431)" fill="#20201d"/>
      <path id="Trazado_65866" data-name="Trazado 65866" d="M570.056,239.868h-8.2a.864.864,0,0,1-.865-.864v-6.046a.864.864,0,0,1,1.728,0v5.183h7.339a.864.864,0,0,1,0,1.727" transform="translate(110.076 10375.229)" fill="#20201d"/>
      <path id="Trazado_65867" data-name="Trazado 65867" d="M568.857,238.745a.865.865,0,0,1-.795-.524l-1.169-2.735a.863.863,0,1,1,1.588-.679l1.171,2.734a.864.864,0,0,1-.794,1.2" transform="translate(111.44 10375.74)" fill="#20201d"/>
    </g>
  </g>
</svg>
