<svg xmlns="http://www.w3.org/2000/svg" width="150.999" height="128" viewBox="0 0 150.999 128">
  <g id="Grupo_70507" data-name="Grupo 70507" transform="translate(-584 -10106.316)">
    <g id="Unión_7" data-name="Unión 7" transform="translate(11518.999 21956.729) rotate(180)" fill="none">
      <path d="M10808.572,11800.567l-24.572-14.156,24.572-14.156a64,64,0,1,1,0,28.313Z" stroke="none"/>
      <path d="M 10871 11848.412109375 C 10879.37109375 11848.412109375 10887.490234375 11846.7734375 10895.1328125 11843.541015625 C 10898.8056640625 11841.9873046875 10902.3486328125 11840.0634765625 10905.6630859375 11837.82421875 C 10908.9462890625 11835.6064453125 10912.0341796875 11833.05859375 10914.83984375 11830.2529296875 C 10917.646484375 11827.4462890625 10920.193359375 11824.3583984375 10922.412109375 11821.0751953125 C 10924.6513671875 11817.7607421875 10926.57421875 11814.2177734375 10928.1279296875 11810.5439453125 C 10931.3603515625 11802.9013671875 10932.9990234375 11794.7822265625 10932.9990234375 11786.4111328125 C 10932.9990234375 11778.041015625 10931.3603515625 11769.921875 10928.1279296875 11762.279296875 C 10926.57421875 11758.6064453125 10924.6513671875 11755.0634765625 10922.412109375 11751.7490234375 C 10920.193359375 11748.4658203125 10917.646484375 11745.3779296875 10914.83984375 11742.572265625 C 10912.0341796875 11739.765625 10908.9462890625 11737.2177734375 10905.6630859375 11735 C 10902.3486328125 11732.7607421875 10898.8056640625 11730.837890625 10895.1328125 11729.2841796875 C 10887.490234375 11726.05078125 10879.37109375 11724.412109375 10871 11724.412109375 C 10863.7763671875 11724.412109375 10856.701171875 11725.642578125 10849.970703125 11728.0693359375 C 10843.4658203125 11730.4140625 10837.4296875 11733.8193359375 10832.0302734375 11738.1884765625 C 10826.6767578125 11742.5205078125 10822.1083984375 11747.669921875 10818.4521484375 11753.4931640625 C 10814.728515625 11759.423828125 10812.0615234375 11765.884765625 10810.5234375 11772.6953125 L 10810.330078125 11773.55078125 L 10809.5703125 11773.98828125 L 10788.0068359375 11786.4111328125 L 10810.330078125 11799.271484375 L 10810.5234375 11800.126953125 C 10812.0615234375 11806.9384765625 10814.7294921875 11813.3994140625 10818.4521484375 11819.330078125 C 10822.1083984375 11825.154296875 10826.6767578125 11830.3037109375 10832.0302734375 11834.6357421875 C 10837.4296875 11839.005859375 10843.4658203125 11842.41015625 10849.970703125 11844.7548828125 C 10856.701171875 11847.181640625 10863.7763671875 11848.412109375 10871 11848.412109375 M 10871 11850.412109375 C 10840.5185546875 11850.412109375 10815.015625 11829.1025390625 10808.572265625 11800.5673828125 L 10784 11786.4111328125 L 10808.572265625 11772.2548828125 C 10815.015625 11743.72265625 10840.5185546875 11722.412109375 10871 11722.412109375 C 10906.3466796875 11722.412109375 10934.9990234375 11751.0673828125 10934.9990234375 11786.4111328125 C 10934.9990234375 11821.7578125 10906.3466796875 11850.412109375 10871 11850.412109375 Z" stroke="none" fill="#d8a175"/>
    </g>
    <g id="Grupo_25100" data-name="Grupo 25100" transform="translate(193.922 -443.918)">
      <path id="Trazado_65868" data-name="Trazado 65868" d="M390.851,267.708a5.634,5.634,0,0,1-5.628-5.628V217.295a.864.864,0,0,1,.865-.864h37.251a.863.863,0,0,1,.864.864V253.86a.864.864,0,1,1-1.727,0v-35.7H386.951V262.08a3.9,3.9,0,1,0,7.8,0c0-1.174-.287-3.9-2.95-3.9a.864.864,0,0,1,0-1.727h18.671a.864.864,0,1,1,0,1.727H395.392a6.542,6.542,0,0,1,1.087,3.9,5.634,5.634,0,0,1-5.628,5.628" transform="translate(42.008 10371.569)" fill="#20201d"/>
      <path id="Trazado_65869" data-name="Trazado 65869" d="M408.62,258.323H389.95a.864.864,0,1,1,0-1.727h18.67a.864.864,0,0,1,0,1.727" transform="translate(42.911 10380.954)" fill="#20201d"/>
      <path id="Trazado_65870" data-name="Trazado 65870" d="M383.355,262.119a.85.85,0,0,1-.518-.175,5.581,5.581,0,0,1-2.248-4.5V212.66a.863.863,0,0,1,.864-.864h38.115a.864.864,0,0,1,.865.864v1.906a.864.864,0,0,1-1.728,0v-1.042H382.316v43.923a3.87,3.87,0,0,0,1.558,3.119.864.864,0,0,1-.519,1.554" transform="translate(40.926 10370.486)" fill="#20201d"/>
      <path id="Trazado_65871" data-name="Trazado 65871" d="M392.829,233.131a.861.861,0,0,1-.851-1.008l.488-2.849-2.069-2.017a.863.863,0,0,1,.479-1.473l2.858-.416,1.279-2.591a.863.863,0,0,1,1.549,0l1.278,2.591,2.86.416a.863.863,0,0,1,.479,1.473l-2.069,2.017.489,2.849a.864.864,0,0,1-1.253.909l-2.557-1.343-2.557,1.343a.865.865,0,0,1-.4.1m.026-5.888L394,228.354a.862.862,0,0,1,.249.765l-.27,1.57,1.411-.741a.859.859,0,0,1,.8,0l1.411.741-.27-1.57a.864.864,0,0,1,.248-.765l1.141-1.112-1.577-.231a.86.86,0,0,1-.651-.471l-.7-1.43-.706,1.43a.858.858,0,0,1-.651.471Z" transform="translate(43.156 10372.94)" fill="#20201d"/>
      <path id="Trazado_65872" data-name="Trazado 65872" d="M414.289,225.423H402.2a.863.863,0,0,1,0-1.726h12.091a.863.863,0,0,1,0,1.726" transform="translate(45.773 10373.268)" fill="#20201d"/>
      <path id="Trazado_65873" data-name="Trazado 65873" d="M414.289,229.623H402.2a.863.863,0,0,1,0-1.726h12.091a.863.863,0,0,1,0,1.726" transform="translate(45.773 10374.249)" fill="#20201d"/>
      <path id="Trazado_65874" data-name="Trazado 65874" d="M392.829,245.731a.861.861,0,0,1-.851-1.009l.488-2.849-2.069-2.016a.864.864,0,0,1,.479-1.474l2.858-.416,1.279-2.591a.864.864,0,0,1,1.549,0l1.278,2.591,2.86.416a.864.864,0,0,1,.479,1.474l-2.069,2.016.489,2.849a.863.863,0,0,1-1.253.909l-2.557-1.343-2.557,1.343a.852.852,0,0,1-.4.1m.026-5.889L394,240.953a.862.862,0,0,1,.249.765l-.27,1.572,1.411-.743a.866.866,0,0,1,.8,0l1.411.743-.27-1.572a.864.864,0,0,1,.248-.765l1.141-1.112-1.577-.229a.865.865,0,0,1-.651-.471l-.7-1.431-.706,1.431a.863.863,0,0,1-.651.471Z" transform="translate(43.156 10375.884)" fill="#20201d"/>
      <path id="Trazado_65875" data-name="Trazado 65875" d="M414.289,238.023H402.2a.864.864,0,0,1,0-1.727h12.091a.864.864,0,0,1,0,1.727" transform="translate(45.773 10376.211)" fill="#20201d"/>
      <path id="Trazado_65876" data-name="Trazado 65876" d="M414.289,242.223H402.2a.864.864,0,0,1,0-1.727h12.091a.864.864,0,0,1,0,1.727" transform="translate(45.773 10377.192)" fill="#20201d"/>
      <path id="Trazado_65877" data-name="Trazado 65877" d="M417.166,263.493c-5.131,0-10.327-1.4-10.327-4.074v-4.014a.864.864,0,0,1,1.727,0v4.014c0,.827,3.265,2.348,8.6,2.348a22.109,22.109,0,0,0,4.6-.389.864.864,0,0,1,.352,1.693,23.866,23.866,0,0,1-4.948.422" transform="translate(47.059 10380.475)" fill="#47a4d8"/>
      <path id="Trazado_65878" data-name="Trazado 65878" d="M417.166,256.916c-5.131,0-10.327-1.4-10.327-4.075s5.2-4.072,10.327-4.072a26,26,0,0,1,4.845.434.863.863,0,0,1-.328,1.7,24.272,24.272,0,0,0-4.516-.4c-5.334,0-8.6,1.52-8.6,2.346s3.265,2.348,8.6,2.348a24.226,24.226,0,0,0,4.61-.422.863.863,0,1,1,.337,1.694,25.933,25.933,0,0,1-4.947.455" transform="translate(47.059 10379.125)" fill="#47a4d8"/>
      <path id="Trazado_65879" data-name="Trazado 65879" d="M417.166,260.321c-5.131,0-10.327-1.4-10.327-4.074v-4.014a.864.864,0,0,1,1.727,0v4.014c0,.827,3.265,2.348,8.6,2.348a24.248,24.248,0,0,0,4.511-.4.864.864,0,1,1,.327,1.7,26.062,26.062,0,0,1-4.838.433" transform="translate(47.059 10379.733)" fill="#47a4d8"/>
      <path id="Trazado_65880" data-name="Trazado 65880" d="M428.7,265.336c-5.132,0-10.327-1.436-10.327-4.181v-4.144a.864.864,0,0,1,1.727,0v4.144c0,.833,3.035,2.455,8.6,2.455s8.6-1.622,8.6-2.455v-4.144a.864.864,0,0,1,1.727,0v4.144c0,2.745-5.2,4.181-10.327,4.181" transform="translate(49.753 10380.85)" fill="#47a4d8"/>
      <path id="Trazado_65881" data-name="Trazado 65881" d="M428.7,257.914c-5.132,0-10.327-1.435-10.327-4.18a.864.864,0,0,1,1.727,0c0,.833,3.035,2.453,8.6,2.453s8.6-1.62,8.6-2.453a.864.864,0,1,1,1.727,0c0,2.745-5.2,4.18-10.327,4.18" transform="translate(49.753 10380.084)" fill="#47a4d8"/>
      <path id="Trazado_65882" data-name="Trazado 65882" d="M428.7,263.041c-5.132,0-10.327-1.435-10.327-4.18v-9.326a.864.864,0,0,1,1.727,0v9.326c0,.833,3.035,2.454,8.6,2.454s8.6-1.621,8.6-2.454v-9.326a.864.864,0,1,1,1.727,0v9.326c0,2.745-5.2,4.18-10.327,4.18" transform="translate(49.753 10379.103)" fill="#47a4d8"/>
      <path id="Trazado_65883" data-name="Trazado 65883" d="M428.7,254.638c-5.132,0-10.327-1.435-10.327-4.181a.864.864,0,0,1,1.727,0c0,.833,3.035,2.454,8.6,2.454s8.6-1.621,8.6-2.454a.864.864,0,1,1,1.727,0c0,2.746-5.2,4.181-10.327,4.181" transform="translate(49.753 10379.318)" fill="#d9a171"/>
      <path id="Trazado_65884" data-name="Trazado 65884" d="M428.7,251.311c-5.132,0-10.327-1.435-10.327-4.18a.864.864,0,0,1,1.727,0c0,.833,3.035,2.454,8.6,2.454s8.6-1.621,8.6-2.454a.864.864,0,1,1,1.727,0c0,2.745-5.2,4.18-10.327,4.18" transform="translate(49.753 10378.541)" fill="#47a4d8"/>
      <path id="Trazado_65885" data-name="Trazado 65885" d="M428.7,256.276c-5.132,0-10.327-1.436-10.327-4.181v-8.463a.864.864,0,0,1,1.727,0V252.1c0,.833,3.035,2.454,8.6,2.454s8.6-1.621,8.6-2.454v-8.463a.864.864,0,1,1,1.727,0V252.1c0,2.745-5.2,4.181-10.327,4.181" transform="translate(49.753 10377.724)" fill="#47a4d8"/>
      <path id="Trazado_65886" data-name="Trazado 65886" d="M428.7,248.663c-5.132,0-10.327-1.435-10.327-4.18s5.195-4.18,10.327-4.18,10.327,1.436,10.327,4.18-5.2,4.18-10.327,4.18m0-6.632c-5.565,0-8.6,1.62-8.6,2.453s3.035,2.454,8.6,2.454,8.6-1.621,8.6-2.454-3.036-2.453-8.6-2.453" transform="translate(49.753 10377.147)" fill="#47a4d8"/>
    </g>
  </g>
</svg>
