<svg xmlns="http://www.w3.org/2000/svg" width="150.999" height="128" viewBox="0 0 150.999 128">
  <g id="Grupo_70509" data-name="Grupo 70509" transform="translate(-584 -10460.316)">
    <g id="Unión_9" data-name="Unión 9" transform="translate(11518.999 22310.729) rotate(180)" fill="none">
      <path d="M10808.572,11800.567l-24.572-14.156,24.572-14.156a64,64,0,1,1,0,28.313Z" stroke="none"/>
      <path d="M 10871 11848.412109375 C 10879.37109375 11848.412109375 10887.490234375 11846.7734375 10895.1328125 11843.541015625 C 10898.8056640625 11841.9873046875 10902.3486328125 11840.0634765625 10905.6630859375 11837.82421875 C 10908.9462890625 11835.6064453125 10912.0341796875 11833.05859375 10914.83984375 11830.2529296875 C 10917.646484375 11827.4462890625 10920.193359375 11824.3583984375 10922.412109375 11821.0751953125 C 10924.6513671875 11817.7607421875 10926.57421875 11814.2177734375 10928.1279296875 11810.5439453125 C 10931.3603515625 11802.9013671875 10932.9990234375 11794.7822265625 10932.9990234375 11786.4111328125 C 10932.9990234375 11778.041015625 10931.3603515625 11769.921875 10928.1279296875 11762.279296875 C 10926.57421875 11758.6064453125 10924.6513671875 11755.0634765625 10922.412109375 11751.7490234375 C 10920.193359375 11748.4658203125 10917.646484375 11745.3779296875 10914.83984375 11742.572265625 C 10912.0341796875 11739.765625 10908.9462890625 11737.2177734375 10905.6630859375 11735 C 10902.3486328125 11732.7607421875 10898.8056640625 11730.837890625 10895.1328125 11729.2841796875 C 10887.490234375 11726.05078125 10879.37109375 11724.412109375 10871 11724.412109375 C 10863.7763671875 11724.412109375 10856.701171875 11725.642578125 10849.970703125 11728.0693359375 C 10843.4658203125 11730.4140625 10837.4296875 11733.8193359375 10832.0302734375 11738.1884765625 C 10826.6767578125 11742.5205078125 10822.1083984375 11747.669921875 10818.4521484375 11753.4931640625 C 10814.728515625 11759.423828125 10812.0615234375 11765.884765625 10810.5234375 11772.6953125 L 10810.330078125 11773.55078125 L 10809.5703125 11773.98828125 L 10788.0068359375 11786.4111328125 L 10810.330078125 11799.271484375 L 10810.5234375 11800.126953125 C 10812.0615234375 11806.9384765625 10814.7294921875 11813.3994140625 10818.4521484375 11819.330078125 C 10822.1083984375 11825.154296875 10826.6767578125 11830.3037109375 10832.0302734375 11834.6357421875 C 10837.4296875 11839.005859375 10843.4658203125 11842.41015625 10849.970703125 11844.7548828125 C 10856.701171875 11847.181640625 10863.7763671875 11848.412109375 10871 11848.412109375 M 10871 11850.412109375 C 10840.5185546875 11850.412109375 10815.015625 11829.1025390625 10808.572265625 11800.5673828125 L 10784 11786.4111328125 L 10808.572265625 11772.2548828125 C 10815.015625 11743.72265625 10840.5185546875 11722.412109375 10871 11722.412109375 C 10906.3466796875 11722.412109375 10934.9990234375 11751.0673828125 10934.9990234375 11786.4111328125 C 10934.9990234375 11821.7578125 10906.3466796875 11850.412109375 10871 11850.412109375 Z" stroke="none" fill="#d8a175"/>
    </g>
    <g id="Grupo_25096" data-name="Grupo 25096" transform="translate(-51.744 -307.065)">
      <path id="Trazado_65921" data-name="Trazado 65921" d="M41.958,257.739a.866.866,0,0,1-.6-.245l-2.3-2.246a.863.863,0,0,1,1.207-1.235l1.582,1.542,5.028-7.04a.864.864,0,0,1,1.405,1l-5.614,7.858a.859.859,0,0,1-.625.359c-.026,0-.051,0-.076,0" transform="translate(671.064 10592.981)" fill="#20201d"/>
      <path id="Trazado_65912" data-name="Trazado 65912" d="M29.01,246.67a.863.863,0,0,1-.864-.864v-2.966a2.35,2.35,0,0,1,2.346-2.349h5.966l-.949-2.936a.863.863,0,1,1,1.643-.53l1.314,4.066a.864.864,0,0,1-.822,1.129H30.492a.62.62,0,0,0-.619.621v2.966a.863.863,0,0,1-.864.864" transform="translate(668.576 10590.241)" fill="#20201d"/>
      <path id="Trazado_65913" data-name="Trazado 65913" d="M30.6,246.663a.863.863,0,0,1-.864-.864v-2.966a.621.621,0,0,0-.621-.621H22.2a.866.866,0,0,1-.83-1.1l1.151-4.03a.864.864,0,0,1,1.662.475l-.838,2.929h5.773a2.35,2.35,0,0,1,2.348,2.349V245.8a.863.863,0,0,1-.864.864" transform="translate(666.985 10590.248)" fill="#20201d"/>
      <path id="Trazado_65914" data-name="Trazado 65914" d="M30,230.557c-3.616,0-6.045-2.776-6.045-6.908S26.385,216.74,30,216.74s6.045,2.777,6.045,6.908-2.429,6.908-6.045,6.908m0-12.09c-3.187,0-4.318,2.791-4.318,5.181S26.814,228.83,30,228.83s4.318-2.79,4.318-5.181-1.131-5.181-4.318-5.181" transform="translate(667.597 10585.642)" fill="#20201d"/>
      <path id="Trazado_65915" data-name="Trazado 65915" d="M43.855,248.337H19.676a3.065,3.065,0,0,1-2.62-1.215,4.421,4.421,0,0,1-.363-3.955l2.675-8.277c1.309-3.692,3.527-5.55,6.6-5.55h11.6c3.073,0,5.29,1.858,6.594,5.526l2.678,8.3a4.424,4.424,0,0,1-.36,3.961,3.067,3.067,0,0,1-2.62,1.215M25.967,231.066c-2.328,0-3.906,1.392-4.965,4.378l-2.665,8.247a2.855,2.855,0,0,0,.111,2.411,1.411,1.411,0,0,0,1.227.509h24.18a1.409,1.409,0,0,0,1.226-.509,2.861,2.861,0,0,0,.11-2.415l-2.67-8.267c-1.054-2.962-2.631-4.354-4.958-4.354Z" transform="translate(665.833 10588.586)" fill="#20201d"/>
      <path id="Trazado_65916" data-name="Trazado 65916" d="M30.1,261.105a6.477,6.477,0,1,1,2.06-12.619.864.864,0,0,1-.55,1.638,4.751,4.751,0,1,0,3.24,4.5,4.831,4.831,0,0,0-.028-.519.864.864,0,0,1,1.717-.186,6.342,6.342,0,0,1,.038.706,6.483,6.483,0,0,1-6.477,6.477" transform="translate(667.52 10592.981)" fill="#ab8484"/>
      <path id="Trazado_65917" data-name="Trazado 65917" d="M29.475,257.739a.866.866,0,0,1-.6-.245l-2.3-2.246a.863.863,0,0,1,1.207-1.235l1.582,1.542,5.028-7.04a.864.864,0,1,1,1.405,1l-5.613,7.858a.857.857,0,0,1-.625.359c-.025,0-.051,0-.076,0" transform="translate(668.147 10592.981)" fill="#ab8484"/>
      <path id="Trazado_65918" data-name="Trazado 65918" d="M17.618,261.105a6.477,6.477,0,1,1,2.06-12.619.864.864,0,0,1-.549,1.638,4.751,4.751,0,1,0,3.238,4.5,4.832,4.832,0,0,0-.027-.519.863.863,0,0,1,1.716-.186,6.341,6.341,0,0,1,.038.706,6.483,6.483,0,0,1-6.477,6.477" transform="translate(664.603 10592.981)" fill="#ab8484"/>
      <path id="Trazado_65919" data-name="Trazado 65919" d="M16.991,257.739a.866.866,0,0,1-.6-.245l-2.3-2.246a.863.863,0,0,1,1.207-1.235l1.582,1.542,5.028-7.04a.864.864,0,0,1,1.405,1l-5.614,7.858a.859.859,0,0,1-.625.359c-.026,0-.051,0-.076,0" transform="translate(665.23 10592.981)" fill="#ab8484"/>
      <path id="Trazado_65920" data-name="Trazado 65920" d="M42.585,261.105a6.477,6.477,0,1,1,2.061-12.619.864.864,0,0,1-.55,1.638,4.751,4.751,0,1,0,3.24,4.5,4.832,4.832,0,0,0-.028-.519.863.863,0,0,1,1.716-.186,6.34,6.34,0,0,1,.039.706,6.484,6.484,0,0,1-6.478,6.477" transform="translate(670.437 10592.981)" fill="#20201d"/>
    </g>
  </g>
</svg>
